<svg width="135" height="41" viewBox="0 0 135 41" fill="none" xmlns="http://www.w3.org/2000/svg">
<g clip-path="url(#clip0)">
<path d="M5.35191 37.8907L3.96729 40.3748H0L7.79779 26.025H11.8812L15.0194 40.3831H11.0313L10.4924 37.899L5.35191 37.8907ZM9.14509 30.4633H9.10779L6.83602 34.6034H9.94518L9.14509 30.4633Z" fill="white"/>
<path d="M33.0486 40.3832H29.3176L31.096 29.2047H28.0034L28.505 26.0458H38.4212L37.9196 29.2047H34.8311L33.0486 40.3832Z" fill="white"/>
<path d="M41.2608 40.3831H37.5298L39.8098 26.025H43.5408L41.2608 40.3831Z" fill="white"/>
<path d="M49.0419 29.184L48.6605 31.5853H52.8724L52.3749 34.7484H48.1589L47.7651 37.2325H52.2091L51.7075 40.3914H43.5283L45.8042 26.0333H53.9834L53.4859 29.1923L49.0419 29.184Z" fill="white"/>
<path d="M59.1447 29.184L58.7633 31.5853H62.8632L62.3616 34.7483H58.2617L57.3663 40.3831H53.6353L55.9112 26.025H64.1774L63.6758 29.184H59.1447Z" fill="white"/>
<path d="M69.2638 40.408H67.4937L69.268 26.0499H71.063L69.2638 40.408Z" fill="white"/>
<path d="M73.5589 25.3627L82.7662 36.657L84.0513 26.0499H85.809L83.9974 41L74.786 29.7057L73.4926 40.408H71.7349L73.5589 25.3627Z" fill="white"/>
<path d="M90.6178 40.408H88.8269L90.3981 27.6853H86.978L87.1812 26.0499H95.8081L95.6049 27.6853H92.1931L90.6178 40.408Z" fill="white"/>
<path d="M97.2299 26.0499H104.953L104.754 27.6853H98.8218L98.3243 31.7054H104.082L103.879 33.3407H98.1212L97.4496 38.7685H103.382L103.179 40.4246H95.4556L97.2299 26.0499Z" fill="white"/>
<path d="M114.542 40.408H112.369L108.887 34.3344H108.141L107.39 40.408H105.6L107.374 26.0499H109.546C110.827 26.0499 112.195 26.0499 113.277 26.7165C113.822 27.0904 114.248 27.6112 114.507 28.2182C114.767 28.8253 114.847 29.4934 114.741 30.1445C114.628 31.1587 114.178 32.1058 113.463 32.8341C112.747 33.5623 111.807 34.0294 110.794 34.1605L114.542 40.408ZM108.323 32.8481H108.895C110.724 32.8481 112.751 32.5044 113.041 30.2191C113.331 27.9337 111.221 27.648 109.451 27.648H108.974L108.323 32.8481Z" fill="white"/>
<path d="M117.481 40.408H115.69L117.464 26.0499H119.255L117.481 40.408Z" fill="white"/>
<path d="M123.989 30.9229H123.952L121.1 40.408H119.251L124.039 25.4413L127.579 36.7522L133.914 25.4413L135 40.408H133.151L132.645 30.9229H132.608L127.09 40.7143L123.989 30.9229Z" fill="white"/>
<path d="M55.5217 7.46887H49.6143V13.9896H55.5217V7.46887Z" fill="white"/>
<path d="M48.1633 7.45227H42.2559V13.973H48.1633V7.45227Z" fill="white"/>
<path d="M55.5217 15.2068H49.6143V21.7275H55.5217V15.2068Z" fill="white"/>
<path d="M48.2336 15.2234H42.3262V21.7441H48.2336V15.2234Z" fill="white"/>
<path d="M41.0656 15.182H35.1582V21.7028H41.0656V15.182Z" fill="white"/>
<path d="M62.7263 15.1985H56.8188V21.7192H62.7263V15.1985Z" fill="white"/>
<path d="M35.3076 13.9895H41.0451V7.67578L35.3076 13.9895Z" fill="white"/>
<path d="M62.5026 13.973H56.7651V7.6593L62.5026 13.973Z" fill="white"/>
<path d="M69.8236 21.7028H64.0903V15.389L69.8236 21.7028Z" fill="white"/>
<path d="M55.3847 6.31374H49.6514V0L55.3847 6.31374Z" fill="white"/>
<path d="M42.5332 6.31374H48.2665V0L42.5332 6.31374Z" fill="white"/>
<path d="M28.0942 21.7028H33.8275V15.389L28.0942 21.7028Z" fill="white"/>
<path d="M26.9836 30.2728C26.3866 29.2461 25.0269 28.8983 23.7501 28.8983C21.4617 28.8983 19.6377 30.8607 19.2853 33.0882C18.9329 35.3156 20.2305 37.1993 22.5561 37.1993C23.7749 37.1993 25.2963 37.0213 26.225 36.0898L25.9306 39.9443C24.6236 40.3404 23.2704 40.5645 21.9053 40.6108C20.961 40.6265 20.0237 40.4466 19.1525 40.0825C18.2814 39.7183 17.4952 39.1779 16.8436 38.4952C15.488 37.0668 15.061 34.9926 15.3968 32.8604C15.7077 30.898 16.5451 28.8072 18.1411 27.3996C19.7372 25.9919 22.1665 25.4868 24.1895 25.4868C25.3341 25.4886 26.4651 25.7357 27.5059 26.2113L26.9836 30.2728Z" fill="white"/>
</g>
<defs>
<clipPath id="clip0">
<path d="M0 0H135V41H0V0Z" fill="white"/>
</clipPath>
</defs>
</svg>
