<svg width="64" height="65" viewBox="0 0 64 65" fill="none" xmlns="http://www.w3.org/2000/svg">
<path d="M57 32C57 31.4477 56.5523 31 56 31C55.4477 31 55 31.4477 55 32H57ZM53.7557 42.2187L52.848 41.799L52.848 41.799L53.7557 42.2187ZM47.45 50.4923L48.0941 51.2573L48.0941 51.2573L47.45 50.4923ZM38.2831 55.246L38.536 56.2135L38.536 56.2135L38.2831 55.246ZM27.4406 54.746C26.9828 55.0549 26.8622 55.6765 27.1711 56.1343L32.2055 63.5945C32.5144 64.0523 33.136 64.1729 33.5938 63.864C34.0516 63.5551 34.1723 62.9335 33.8633 62.4757L29.3883 55.8444L36.0196 51.3694C36.4774 51.0605 36.5981 50.4389 36.2891 49.9811C35.9802 49.5233 35.3586 49.4026 34.9008 49.7116L27.4406 54.746ZM55 32C55 35.3884 54.265 38.7344 52.848 41.799L54.6634 42.6384C56.2024 39.3098 57 35.6773 57 32H55ZM52.848 41.799C51.4311 44.8636 49.3676 47.5705 46.8059 49.7274L48.0941 51.2573C50.8816 48.9103 53.1244 45.967 54.6634 42.6384L52.848 41.799ZM46.8059 49.7274C44.2443 51.8841 41.2477 53.4377 38.0303 54.2785L38.536 56.2135C42.0429 55.2971 45.3064 53.6043 48.0941 51.2573L46.8059 49.7274ZM38.0303 54.2785C34.813 55.1192 31.4532 55.2267 28.1906 54.5932L27.8094 56.5566C31.3662 57.2471 35.029 57.1299 38.536 56.2135L38.0303 54.2785Z" fill="#8CA3A6"/>
<path d="M19.4946 53.8629C19.9712 54.142 20.5838 53.9819 20.8629 53.5054C21.142 53.0288 20.9819 52.4162 20.5054 52.1371L19.4946 53.8629ZM12.2963 45.8129L11.4713 46.3781L11.4713 46.3781L12.2963 45.8129ZM8.8792 25.367L7.9148 25.1026L7.9148 25.1026L8.8792 25.367ZM14.813 15.9184C14.7679 15.368 14.2852 14.9583 13.7347 15.0033L4.76472 15.7375C4.21427 15.7826 3.80457 16.2653 3.84962 16.8158C3.89468 17.3662 4.37742 17.7759 4.92787 17.7309L12.9012 17.0782L13.5538 25.0516C13.5989 25.602 14.0816 26.0117 14.6321 25.9667C15.1825 25.9216 15.5922 25.4389 15.5471 24.8884L14.813 15.9184ZM20.5054 52.1371C17.5761 50.4216 15.0544 48.0695 13.1212 45.2477L11.4713 46.3781C13.5699 49.4413 16.3092 51.9974 19.4946 53.8629L20.5054 52.1371ZM13.1212 45.2477C11.188 42.426 9.89131 39.2045 9.32452 35.8131L7.35188 36.1428C7.96644 39.82 9.37275 43.315 11.4713 46.3781L13.1212 45.2477ZM9.32452 35.8131C8.75772 32.4217 8.93502 28.945 9.8436 25.6315L7.9148 25.1026C6.92949 28.6959 6.73732 32.4656 7.35188 36.1428L9.32452 35.8131ZM9.8436 25.6315C10.7522 22.318 12.3694 19.2503 14.5787 16.6471L13.0539 15.3529C10.6546 18.18 8.90012 21.5092 7.9148 25.1026L9.8436 25.6315Z" fill="#8CA3A6"/>
<path d="M19.4974 10.4237C19.02 10.7013 18.8579 11.3133 19.1355 11.7908C19.413 12.2683 20.0251 12.4303 20.5026 12.1528L19.4974 10.4237ZM30.0491 8.09609L29.9603 7.10004L30.0491 8.09609ZM40.5094 9.46006L40.1681 10.4L40.1681 10.4L40.5094 9.46006ZM49.3898 15.1205L48.6815 15.8264L48.6815 15.8264L49.3898 15.1205ZM54.5717 24.9036C55.0707 25.1402 55.667 24.9274 55.9036 24.4283L59.7587 16.2958C59.9953 15.7968 59.7825 15.2004 59.2835 14.9639C58.7844 14.7273 58.1881 14.9401 57.9515 15.4391L54.5247 22.668L47.2958 19.2413C46.7968 19.0047 46.2004 19.2175 45.9639 19.7165C45.7273 20.2156 45.9401 20.8119 46.4391 21.0485L54.5717 24.9036ZM20.5026 12.1528C23.4482 10.4404 26.7383 9.39517 30.1379 9.09214L29.9603 7.10004C26.2694 7.42904 22.6967 8.56383 19.4974 10.4237L20.5026 12.1528ZM30.1379 9.09214C33.5375 8.7891 36.9624 9.23573 40.1681 10.4L40.8508 8.52013C37.3699 7.25589 33.6513 6.77103 29.9603 7.10004L30.1379 9.09214ZM40.1681 10.4C43.3736 11.5642 46.2806 13.4173 48.6815 15.8264L50.0981 14.4146C47.4894 11.797 44.3317 9.78438 40.8508 8.52013L40.1681 10.4ZM48.6815 15.8264C51.0825 18.2355 52.9182 21.1413 54.0582 24.3361L55.9418 23.6639C54.7025 20.1905 52.7069 17.0323 50.0981 14.4146L48.6815 15.8264Z" fill="#8CA3A6"/>
</svg>
