<?xml version="1.0" encoding="UTF-8"?>
<svg width="27px" height="31px" viewBox="0 0 27 31" version="1.1" xmlns="http://www.w3.org/2000/svg" xmlns:xlink="http://www.w3.org/1999/xlink">
    <!-- Generator: Sketch 49.3 (51167) - http://www.bohemiancoding.com/sketch -->
    <title>icon-twitter</title>
    <desc>Created with Sketch.</desc>
    <defs></defs>
    <g id="Page-1" stroke="none" stroke-width="1" fill="none" fill-rule="evenodd">
        <g id="icon-twitter" transform="translate(0.000000, -1.000000)" fill="#FFFFFF" fill-rule="nonzero">
            <path d="M0.001606425,8.75 L13.4258034,0.998608791 L26.8491972,8.74860881 L26.848394,24.25 L13.424197,32.0013912 L0.000803201814,24.2513912 L0.001606425,8.75 Z M19.9472656,14.6406187 C20.5527345,14.1914012 21.0703124,13.6542928 21.5,13.0292944 C20.9140625,13.2832002 20.328125,13.4492151 19.7421875,13.5273401 C20.4062501,13.1171848 20.8554688,12.5507801 21.0898438,11.8281254 C20.4843749,12.1796871 19.8300781,12.423827 19.1269531,12.5605455 C18.8339844,12.2675775 18.4970703,12.033203 18.1162109,11.8574222 C17.7353516,11.6816414 17.3203124,11.593751 16.8710938,11.593751 C16.3242186,11.593751 15.8164063,11.7304695 15.3476563,12.0039062 C14.8789063,12.2773429 14.5078124,12.6533189 14.234375,13.1318332 C13.9609376,13.6103476 13.8242188,14.1230417 13.8242188,14.6699155 C13.8242188,14.90429 13.8437501,15.1386644 13.8828125,15.3730388 C12.6328124,15.3144452 11.4560548,15.0019458 10.3525391,14.4355411 C9.24902329,13.8691363 8.31640625,13.1074194 7.5546875,12.1503903 C7.26171875,12.6386705 7.11523438,13.1513646 7.11523438,13.6884725 C7.11523438,14.2255805 7.24218735,14.7187437 7.49609375,15.1679612 C7.75000015,15.6171787 8.08203125,15.9882717 8.4921875,16.2812398 C8.0039061,16.2617084 7.54492202,16.1249903 7.11523438,15.8710845 L7.11523438,15.9296781 C7.11523438,16.6523328 7.34960938,17.2968625 7.81835938,17.8632673 C8.28710938,18.429672 8.87304688,18.7909996 9.57617188,18.9472491 C9.30273452,19.0058427 9.02929673,19.0351395 8.75585938,19.0351395 C8.58007813,19.0351395 8.3945314,19.025374 8.19921875,19.0058427 C8.3945314,19.6113101 8.75097641,20.1142383 9.26855469,20.5146281 C9.78613296,20.915018 10.3867189,21.1152126 11.0703125,21.1152126 C9.93749985,21.9941168 8.65820327,22.4335689 7.23242188,22.4335689 C6.95898452,22.4335689 6.7148436,22.4238034 6.5,22.4042721 C7.9257814,23.3222385 9.49804673,23.7812219 11.2167969,23.7812219 C13.0136717,23.7812219 14.6054689,23.3222385 15.9921875,22.4042721 C17.2617186,21.5839615 18.2480469,20.4804484 18.9511719,19.0937331 C19.6347655,17.7851423 19.9765625,16.4277238 19.9765625,15.0214772 C19.9765625,14.8456963 19.966797,14.7187437 19.9472656,14.6406187 Z" id="Combined-Shape"></path>
        </g>
    </g>
</svg>