<?xml version="1.0" encoding="UTF-8" standalone="no"?>
<svg
   xmlns:dc="http://purl.org/dc/elements/1.1/"
   xmlns:cc="http://creativecommons.org/ns#"
   xmlns:rdf="http://www.w3.org/1999/02/22-rdf-syntax-ns#"
   xmlns:svg="http://www.w3.org/2000/svg"
   xmlns="http://www.w3.org/2000/svg"
   xmlns:sodipodi="http://sodipodi.sourceforge.net/DTD/sodipodi-0.dtd"
   xmlns:inkscape="http://www.inkscape.org/namespaces/inkscape"
   version="1.1"
   id="Layer_1"
   x="0px"
   y="0px"
   width="507"
   height="350"
   viewBox="0 0 506.99998 349.99999"
   enable-background="new 0 0 595.275 841.89"
   xml:space="preserve">
<g
   id="g3"
   clip-path="none"
   transform="matrix(3.9698743,0,0,3.9698743,-948.2283,-1513.586)">
	<path
   style="fill:#002451"
   d="m 261.526,412.532 c -1.041,0.407 -2.175,0.617 -3.337,0.617 -5.792,0 -10.177,-5.348 -10.177,-11.535 0,-6.296 4.385,-11.535 10.177,-11.535 5.768,0 10.176,5.239 10.176,11.535 0,1.835 -0.408,3.612 -1.051,5.111 l -2.459,-2.426 c -1.831,-1.771 -4.41,-1.79 -6.019,-0.183 -1.609,1.607 -1.547,4.236 0.257,6.015 l 2.433,2.401 z m 12.563,0.866 c 2.193,-3.277 3.433,-7.229 3.433,-11.785 0,-11.236 -8.257,-20.345 -19.333,-20.345 -11.179,0 -19.333,9.108 -19.333,20.345 0,11.771 8.666,20.275 19.333,20.275 3.723,0 7.114,-0.985 10.017,-2.776 l 2.275,2.245 c 1.831,1.771 4.409,1.789 6.019,0.182 1.608,-1.606 1.547,-4.235 -0.257,-6.015 l -2.154,-2.126 z"
   id="path5" />
	<path
   style="fill:#002451"
   d="m 302.189,399.908 c 0,0 -0.134,0.163 -0.612,0.203 0.329,-0.005 0.617,0.193 0.617,0.193 3.667,2.324 5.122,6.121 5.122,9.084 0,8.065 -5.791,12.732 -13.329,12.732 -7.541,0 -13.325,-4.667 -13.325,-12.732 0,-3.012 1.454,-6.791 5.115,-9.099 0,0 0.291,-0.186 0.62,-0.181 -0.478,-0.04 -0.612,-0.203 -0.612,-0.203 -2.64,-1.987 -3.532,-4.986 -3.532,-7.737 0,-6.249 5.253,-10.867 11.734,-10.867 6.48,0 11.733,4.657 11.733,10.867 10e-4,2.753 -0.889,5.753 -3.531,7.74 z m -8.196,-3.304 c 2.234,0 3.645,-1.676 3.645,-3.846 0,-2.16 -1.465,-3.846 -3.649,-3.846 -2.184,0 -3.645,1.686 -3.645,3.846 0,2.171 1.415,3.846 3.649,3.846 z m -0.009,17.566 c 2.474,0 4.42,-2.025 4.42,-5.055 0,-2.881 -1.867,-4.981 -4.416,-4.981 -2.548,0 -4.416,2.1 -4.416,4.981 0,3.031 1.938,5.055 4.412,5.055 z"
   id="path7" />
</g><g
   id="g9"
   clip-path="none"
   transform="matrix(3.9698743,0,0,3.9698743,-948.2283,-1513.586)">
	<path
   style="fill:#ffffff"
   d="m 328.828,469.432 0.787,-1.217 3.011,1.217 h 20.796 c 24.622,-48.895 7.1,-81.185 7.1,-81.185 -3.116,1.277 -8.468,4.603 -13.393,8.337 -0.733,-8.322 -2.562,-12.964 -2.562,-12.964 0,0 -35.786,8.63 -60.795,64.941 0,0 10.577,10.158 33.619,20.871 h 11.437 z"
   id="path11" />
	<path
   style="fill:#fdb827"
   d="m 317.392,469.432 c -23.042,-10.713 -33.619,-20.871 -33.619,-20.871 25.009,-56.312 60.795,-64.941 60.795,-64.941 0,0 1.828,4.642 2.562,12.964 4.925,-3.734 10.276,-7.06 13.393,-8.337 0,0 17.522,32.291 -7.1,81.185 h -20.796 l -3.011,-1.217 -0.787,1.217 h -11.437 z"
   id="path13" />
	<path
   style="fill:#ffffff"
   d="m 352.807,468.43 c 7.55,-15.154 11.392,-29.232 12.496,-42.742 1.12,-13.852 -1.021,-26.746 -5.234,-36.158 -5.067,2.397 -10.699,6.588 -12.878,8.271 0,0 0.12,1.353 0.192,4.37 h -30.798 c -1.655,1.543 -3.233,3.112 -4.728,4.684 h 35.533 c 0,0 -0.069,3.395 -0.193,4.975 h -39.791 c -0.068,0.072 -0.139,0.15 -0.202,0.226 -1.581,1.833 -3.093,3.729 -4.532,5.647 h 44.023 c 0,0 -0.266,2.92 -0.699,5.611 h -47.299 c -1.406,2.098 -2.718,4.179 -3.931,6.189 h 50.148 c 0,0 -1.006,4.689 -1.575,6.709 h -52.408 c -1.292,2.382 -2.391,4.537 -3.279,6.348 h 53.842 c 0,0 -1.152,3.627 -2.006,5.75 H 284.99 c -0.005,0.01 -0.007,0 -0.007,0 0,0 2.414,2.258 7.527,5.854 h 44.57 c 0,0 -0.218,0.623 -2.58,5.414 h -33.663 c 2.553,1.531 5.426,3.15 8.552,4.793 l 22.511,-0.002 c 0,0 -0.624,1.199 -1.759,2.984 l 2.664,1.076 h 20.002 z"
   id="path15" />
	<path
   style="fill:#ffffff"
   d="m 346.218,397.789 c -0.097,-1.471 -0.241,-2.859 -0.409,-4.137 h -18.775 c -1.873,1.315 -3.691,2.701 -5.443,4.137 h 24.627 z"
   id="path17" />
	<path
   style="fill:#ffffff"
   d="m 345.175,389.798 c -0.211,-1.073 -0.424,-1.999 -0.611,-2.751 h -6.193 c -1.801,0.833 -3.571,1.754 -5.306,2.751 h 12.11 z"
   id="path19" />
	<g
   id="g21">
		<g
   id="g23">
			<path
   style="fill:#ed1c2e"
   d="m 354.749,464.371 c 0.741,-1.609 1.441,-3.205 2.101,-4.791 h -44.919 c 3.216,1.744 7.304,3.586 10.265,4.791 h 32.553 z"
   id="path25" />
		</g>
		<g
   id="g27">
			<path
   style="fill:#ed1c2e"
   d="m 358.957,454.162 c 0.715,-1.969 1.367,-3.916 1.96,-5.854 h -52.152 c 0,0 -0.89,2.484 -1.704,5.854 h 51.896 z"
   id="path29" />
		</g>
		<g
   id="g31">
			<path
   style="fill:#ed1c2e"
   d="m 362.514,442.561 c 0.531,-2.132 0.99,-4.248 1.381,-6.348 l -49.908,-0.001 c -1.105,2.056 -2.222,4.438 -3.037,6.349 h 51.564 z"
   id="path33" />
		</g>
		<path
   style="fill:#ed1c2e"
   d="m 347.19,397.799 c 1.153,-0.891 3.274,-2.483 5.767,-4.142 h 8.746 c 0.466,1.33 0.895,2.713 1.282,4.142 H 347.19 z"
   id="path35" />
		<g
   id="g37">
			<path
   style="fill:#ed1c2e"
   d="m 341.871,402.17 c -1.235,1.062 -3.406,3.036 -5.149,4.681 h 28.095 c -0.223,-1.6 -0.488,-3.159 -0.797,-4.682 l -22.149,0.001 z"
   id="path39" />
		</g>
		<g
   id="g41">
			<path
   style="fill:#ed1c2e"
   d="m 365.594,417.705 c -0.016,-1.997 -0.1,-3.954 -0.246,-5.876 h -33.576 c -1.398,1.476 -3.797,4.188 -5.207,5.876 h 39.029 z"
   id="path43" />
		</g>
		<g
   id="g45">
			<path
   style="fill:#ed1c2e"
   d="m 364.918,429.511 c 0.153,-1.28 0.281,-2.554 0.385,-3.823 0.064,-0.796 0.118,-1.586 0.161,-2.376 h -43.326 c -1.257,1.678 -3.212,4.532 -4.245,6.199 h 47.025 z"
   id="path47" />
		</g>
	</g>
	<g
   id="g49">
		<g
   id="g51">
			<path
   style="fill:#007cc3"
   d="m 354.749,464.377 c -0.618,1.342 -1.265,2.693 -1.942,4.053 h -20.001 l -2.664,-1.076 c 1.135,-1.785 1.759,-2.984 1.759,-2.984 l 0,0 h 22.853 l -0.005,0.007 z"
   id="path53" />
		</g>
		<g
   id="g55">
			<path
   style="fill:#007cc3"
   d="m 334.501,459.578 c 2.362,-4.791 2.58,-5.414 2.58,-5.414 v -0.002 h 21.88 l -0.004,0.007 c -0.65,1.79 -1.353,3.595 -2.107,5.413 l 0.006,-0.004 h -22.355 l 0,0 z"
   id="path57" />
		</g>
		<g
   id="g59">
			<path
   style="fill:#007cc3"
   d="m 339.489,448.311 c 0.854,-2.123 2.006,-5.75 2.006,-5.75 v 0.002 h 21.017 l 0.002,-0.003 c -0.475,1.901 -1.006,3.817 -1.597,5.751 v -0.006 h -21.428 v 0.006 z"
   id="path61" />
		</g>
		<g
   id="g63">
			<path
   style="fill:#007cc3"
   d="m 364.918,429.512 c -0.265,2.217 -0.604,4.45 -1.023,6.701 l -10e-4,0.004 H 343.34 v -0.004 c 0.569,-2.02 1.575,-6.709 1.575,-6.709 v 0.003 h 20.003 v 0.005 z"
   id="path65" />
		</g>
		<path
   style="fill:#007cc3"
   d="m 361.703,393.657 c -0.502,-1.438 -1.049,-2.818 -1.635,-4.128 -2.386,1.128 -4.896,2.653 -7.111,4.128 h 8.746 z"
   id="path67" />
		<g
   id="g69">
			<path
   style="fill:#007cc3"
   d="m 364.02,402.17 c -0.305,-1.499 -0.65,-2.958 -1.034,-4.371 H 347.19 c 0,0 0.12,1.354 0.192,4.371 h 16.638 z"
   id="path71" />
		</g>
		<path
   style="fill:#007cc3"
   d="m 365.348,411.824 c -0.129,-1.69 -0.307,-3.349 -0.531,-4.97 l -0.004,0.001 h -17.43 0.008 c 0,0 -0.069,3.395 -0.193,4.975 l 0,0 h 18.153 l -0.003,-0.006 z"
   id="path73" />
		<g
   id="g75">
			<path
   style="fill:#007cc3"
   d="m 365.464,423.309 c 0.103,-1.891 0.146,-3.761 0.13,-5.604 l -0.002,-10e-4 h -18.896 v 0 c 0,0 -0.266,2.92 -0.699,5.611 v -10e-4 h 19.469 l -0.002,-0.005 z"
   id="path77" />
		</g>
	</g>
</g>
</svg>