<?xml version="1.0" encoding="UTF-8"?>
<svg width="115px" height="41px" viewBox="0 0 115 41" version="1.1" xmlns="http://www.w3.org/2000/svg" xmlns:xlink="http://www.w3.org/1999/xlink">
    <!-- Generator: Sketch 50 (54983) - http://www.bohemiancoding.com/sketch -->
    <title>Logo_SDworx</title>
    <desc>Created with Sketch.</desc>
    <defs></defs>
    <g id="Page-1" stroke="none" stroke-width="1" fill="none" fill-rule="evenodd">
        <g id="website4" transform="translate(-299.000000, -784.000000)" fill-rule="nonzero">
            <g id="Logo-bar" transform="translate(-30.000000, 755.000000)">
                <g id="Logo_SDworx" transform="translate(328.824219, 29.500000)">
                    <g id="Group-3" transform="translate(28.497625, 9.166227)">
                        <path d="M1.47459831,18.616524 C2.28219889,19.0827393 3.64043623,19.62068 4.96196444,19.62068 C6.83412942,19.62068 7.71514823,18.7241121 7.71514823,17.5406426 C7.71514823,16.3213103 6.98096589,15.6399187 5.0720918,14.9585271 C2.46574448,14.0260965 1.21763449,12.6633133 1.21763449,10.9777657 C1.21763449,8.71841472 3.12650858,6.85355355 6.21007443,6.85355355 C7.67843912,6.85355355 8.96325822,7.24804341 9.73414968,7.7142587 L9.11009469,9.54325716 C8.55945793,9.22049272 7.49489353,8.71841472 6.17336531,8.71841472 C4.63158239,8.71841472 3.78727269,9.57911987 3.78727269,10.6550013 C3.78727269,11.8384709 4.63158239,12.3764116 6.50374737,13.0578032 C8.96325822,13.9543711 10.2847864,15.1737034 10.2847864,17.3254663 C10.2847864,19.8358563 8.30249411,21.5572666 4.92525533,21.5572666 C3.34676329,21.5572666 1.8783986,21.1627767 0.887252436,20.5531106 L1.47459831,18.616524 Z" id="Shape" fill="#3D4E6B"></path>
                        <path d="M24.9317242,0.541715744 L24.9317242,17.5765053 C24.9317242,18.8317003 24.9684333,20.2662089 25.0418515,21.2345022 L22.692468,21.2345022 L22.5823407,18.7958376 L22.5089225,18.7958376 C21.7013219,20.373797 19.9759934,21.5572666 17.6266099,21.5572666 C14.1392437,21.5572666 11.4227691,18.6882494 11.4227691,14.3847237 C11.38606,9.6508453 14.3962076,6.81769083 17.8835737,6.81769083 C20.1228298,6.81769083 21.5911945,7.82184685 22.2152495,8.93359101 L22.2886678,8.93359101 L22.2886678,0.541715744 L24.9317242,0.541715744 Z M22.2886678,12.8426269 C22.2886678,12.4839998 22.2519586,12.0895099 22.1785404,11.7308828 C21.7747401,10.1170606 20.3430845,8.79014015 18.3975013,8.79014015 C15.6810267,8.79014015 14.0658255,11.1212166 14.0658255,14.2054101 C14.0658255,17.0744273 15.5341902,19.4413664 18.3240831,19.4413664 C20.0861207,19.4413664 21.7013219,18.2937596 22.1785404,16.3930357 C22.2519586,16.0344085 22.2886678,15.7116441 22.2886678,15.2812915 L22.2886678,12.8426269 Z" id="Shape" fill="#3D4E6B"></path>
                        <path d="M29.7039094,7.10459255 L31.6494926,14.2412728 C32.0532929,15.8192322 32.4203841,17.2896036 32.6773479,18.7599749 L32.7507662,18.7599749 C33.0811482,17.3254663 33.5583667,15.8192322 34.0355853,14.2771355 L36.3849688,7.10459255 L38.5875158,7.10459255 L40.8267719,14.1336846 C41.3774087,15.7833695 41.781209,17.2896036 42.111591,18.7241121 L42.1850093,18.7241121 C42.405264,17.2896036 42.8090643,15.8192322 43.2862828,14.1336846 L45.3419934,7.06872984 L47.9483407,7.06872984 L43.2862828,21.1627767 L40.9001902,21.1627767 L38.6976431,14.4564491 C38.1837155,12.8426269 37.7799152,11.443981 37.412824,9.79429616 L37.3394058,9.79429616 C36.9723146,11.4798438 36.5318052,12.9502151 36.0178776,14.4923118 L33.7052032,21.1986395 L31.3191106,21.1986395 L26.9874348,7.10459255 L29.7039094,7.10459255 Z" id="Shape" fill="#7E8A95"></path>
                        <path d="M54.9964912,21.5214039 C51.1420339,21.5214039 48.0951771,18.7241121 48.0951771,14.2771355 C48.0951771,9.54325716 51.2888703,6.78182812 55.253455,6.78182812 C59.4015852,6.78182812 62.1914781,9.72257073 62.1914781,13.9902338 C62.1914781,19.2620529 58.4471482,21.5214039 54.9964912,21.5214039 Z M55.1066185,19.62068 C57.6028385,19.62068 59.4750035,17.3254663 59.4750035,14.1336846 C59.4750035,11.7308828 58.2636026,8.75427743 55.1433276,8.75427743 C52.0597618,8.75427743 50.7382336,11.5515692 50.7382336,14.2412728 C50.7382336,17.2896036 52.5369803,19.62068 55.1066185,19.62068 Z" id="Shape" fill="#7E8A95"></path>
                        <path d="M64.3573161,11.5157065 C64.3573161,9.86602159 64.3206069,8.431513 64.2471887,7.10459255 L66.523154,7.10459255 L66.6332813,9.86602159 L66.7066996,9.86602159 C67.3674637,7.96529771 68.9826648,6.78182812 70.7447025,6.78182812 C71.0016663,6.78182812 71.221921,6.81769083 71.4421757,6.85355355 L71.4421757,9.25635544 C71.1485027,9.22049272 70.8915389,9.18463001 70.5244477,9.18463001 C68.6889919,9.18463001 67.3674637,10.5474132 67.0003725,12.4481371 C66.9269543,12.8426269 66.9269543,13.2371168 66.9269543,13.6674694 L66.9269543,21.1627767 L64.3206069,21.1627767 L64.3573161,11.5157065 Z" id="Shape" fill="#7E8A95"></path>
                        <path d="M75.8105606,7.10459255 L77.8662712,10.1170606 C78.4169079,10.941903 78.8574174,11.6232946 79.3346359,12.4122743 L79.4080541,12.4122743 C79.8852726,11.5874319 80.3624912,10.8701776 80.8764188,10.1170606 L82.8587111,7.10459255 L85.7220223,7.10459255 L80.8030006,13.9185084 L85.8321496,21.1986395 L82.8587111,21.1986395 L80.7295823,18.0427206 C80.1789456,17.2178781 79.701727,16.4288984 79.1877994,15.604056 L79.1143812,15.604056 C78.6371626,16.4647611 78.123235,17.2178781 77.6093074,18.0427206 L75.5168877,21.1986395 L72.6168674,21.1986395 L77.7561438,14.0260965 L72.8738312,7.14045527 L75.8105606,7.14045527 L75.8105606,7.10459255 Z" id="Shape" fill="#7E8A95"></path>
                    </g>
                    <polygon id="Shape" fill="#FF003C" points="11.8033903 10.9994721 8.33192568 40.3313978 13.8316617 40.3313978 17.4981524 10.9994721"></polygon>
                    <polygon id="Shape" fill="#969EA6" points="3.19883868 31.165171 8.33192568 31.165171 6.28640981 20.1656989 0.998944257 20.1656989"></polygon>
                    <polygon id="Shape" fill="#FFA300" points="24.5118299 0 17.4981524 31.165171 23.008899 31.165171 30.3308699 0"></polygon>
                </g>
            </g>
        </g>
    </g>
</svg>