<svg width="886" height="166" viewBox="0 0 886 166" fill="none" xmlns="http://www.w3.org/2000/svg">
<path d="M838.877 142.146C838.877 129.184 849.4 118.668 862.355 118.668C875.317 118.668 885.827 129.184 885.827 142.146C885.827 155.108 875.317 165.618 862.355 165.618C849.4 165.618 838.877 155.108 838.877 142.146Z" fill="#86BC24"/>
<path d="M90.1095 79.9683C90.1095 65.0973 87.2362 54.0647 81.4889 46.8772C75.7345 39.6964 67.0179 36.1094 55.2994 36.1094H42.8336V127.048H52.371C65.3874 127.048 74.9259 123.189 80.9993 115.444C87.0656 107.713 90.1095 95.8855 90.1095 79.9683ZM134.566 78.4195C134.566 105.512 127.283 126.388 112.718 141.042C98.1525 155.702 77.6774 163.033 51.2843 163.033H0V0.688293H54.8642C80.3127 0.688293 99.9593 7.35267 113.805 20.6747C127.643 34.0036 134.566 53.2428 134.566 78.4195Z" fill="black"/>
<path d="M276.623 163.031H317.432V0.00695801H276.623V163.031Z" fill="black"/>
<path d="M374.76 102.222C374.76 112.616 376.119 120.544 378.83 125.992C381.547 131.448 386.098 134.172 392.498 134.172C398.829 134.172 403.306 131.448 405.915 125.992C408.523 120.544 409.821 112.616 409.821 102.222C409.821 91.8823 408.503 84.0832 405.86 78.8182C403.211 73.5397 398.694 70.8969 392.288 70.8969C386.024 70.8969 381.547 73.5262 378.83 78.7572C376.119 83.995 374.76 91.8144 374.76 102.222ZM451.357 102.222C451.357 122.025 446.166 137.473 435.758 148.547C425.358 159.627 410.799 165.17 392.084 165.17C374.135 165.17 359.848 159.505 349.243 148.173C338.625 136.841 333.32 121.529 333.32 102.222C333.32 82.4801 338.517 67.1402 348.925 56.2026C359.332 45.2651 373.924 39.7964 392.715 39.7964C404.325 39.7964 414.597 42.3305 423.497 47.3916C432.403 52.4528 439.278 59.7015 444.108 69.1445C448.945 78.5739 451.357 89.6065 451.357 102.222Z" fill="black"/>
<path d="M467.563 163.031H508.379V100.64V41.937H467.563V163.031Z" fill="black"/>
<path d="M467.562 27.2895H508.377V0H467.562V27.2895Z" fill="black"/>
<path d="M591.068 132.145C596.578 132.145 603.14 130.745 610.796 127.967V158.435C605.293 160.854 600.063 162.586 595.09 163.612C590.117 164.651 584.281 165.168 577.603 165.168C563.901 165.168 554.023 161.724 547.956 154.848C541.917 147.973 538.887 137.416 538.887 123.17V73.2518H524.594V41.9473H538.887V11.0232L580.016 3.86945V41.9473H606.055V73.2518H580.016V120.385C580.016 128.225 583.704 132.145 591.068 132.145Z" fill="black"/>
<path d="M685.53 132.145C691.04 132.145 697.603 130.745 705.259 127.967V158.435C699.763 160.854 694.524 162.586 689.552 163.612C684.572 164.651 678.757 165.168 672.065 165.168C658.363 165.168 648.485 161.724 642.432 154.848C636.379 147.973 633.35 137.416 633.35 123.17V73.2518H619.049V41.9473H633.35V10.5545L674.47 3.86945V41.9473H700.523V73.2518H674.47V120.385C674.47 128.225 678.159 132.145 685.53 132.145Z" fill="black"/>
<path d="M756.757 87.4697C757.314 80.8393 759.211 75.9819 762.444 72.8773C765.692 69.7794 769.699 68.2306 774.496 68.2306C779.727 68.2306 783.884 69.9696 786.968 73.475C790.072 76.9601 791.69 81.6273 791.819 87.4697H756.757ZM814.312 54.0731C804.611 44.5622 790.847 39.7997 773.041 39.7997C754.325 39.7997 739.923 45.2684 729.828 56.206C719.74 67.1435 714.691 82.8367 714.691 103.285C714.691 123.088 720.147 138.36 731.03 149.08C741.92 159.8 757.212 165.167 776.906 165.167C786.363 165.167 794.503 164.522 801.323 163.238C808.103 161.968 814.665 159.671 821.031 156.356L814.76 129.066C810.134 130.955 805.732 132.409 801.574 133.367C795.569 134.759 788.98 135.459 781.805 135.459C773.939 135.459 767.729 133.536 763.177 129.691C758.626 125.839 756.201 120.527 755.922 113.761H828.87V95.1668C828.87 77.2795 824.02 63.5772 814.312 54.0731Z" fill="black"/>
<path d="M188.729 87.4697C189.287 80.8393 191.182 75.9819 194.415 72.8773C197.656 69.7794 201.672 68.2306 206.475 68.2306C211.692 68.2306 215.849 69.9696 218.941 73.475C222.045 76.9601 223.655 81.6273 223.798 87.4697H188.729ZM246.291 54.0731C236.584 44.5622 222.826 39.7997 205.014 39.7997C186.291 39.7997 171.895 45.2684 161.806 56.206C151.718 67.1435 146.664 82.8367 146.664 103.285C146.664 123.088 152.113 138.36 163.01 149.08C173.893 159.8 189.184 165.167 208.879 165.167C218.336 165.167 226.474 164.522 233.295 163.238C240.075 161.968 246.638 159.671 253.01 156.356L246.733 129.066C242.106 130.955 237.704 132.409 233.553 133.367C227.534 134.759 220.951 135.459 213.777 135.459C205.917 135.459 199.702 133.536 195.15 129.691C190.591 125.839 188.173 120.527 187.895 113.761H260.843V95.1668C260.843 77.2795 255.992 63.5772 246.291 54.0731Z" fill="black"/>
</svg>
