<svg width="326" height="100" viewBox="0 0 326 100" fill="none" xmlns="http://www.w3.org/2000/svg">
<g clip-path="url(#clip0)">
<path d="M12.91 91.52L9.56999 97.52H0L18.81 62.86H28.66L36.23 97.54H26.61L25.31 91.54L12.91 91.52ZM22.06 73.58H21.97L16.49 83.58H23.99L22.06 73.58Z" fill="#004992"/>
<path d="M79.72 97.54H70.72L75.01 70.54H67.55L68.76 62.91H92.68L91.47 70.54H84.02L79.72 97.54Z" fill="#004992"/>
<path d="M99.53 97.54H90.53L96.03 62.86H105.03L99.53 97.54Z" fill="#004992"/>
<path d="M118.3 70.49L117.38 76.29H127.54L126.34 83.93H116.17L115.22 89.93H125.94L124.73 97.56H105L110.49 62.88H130.22L129.02 70.51L118.3 70.49Z" fill="#004992"/>
<path d="M142.67 70.49L141.75 76.29H151.64L150.43 83.93H140.54L138.38 97.54H129.38L134.87 62.86H154.81L153.6 70.49H142.67Z" fill="#004992"/>
<path d="M167.08 97.6H162.81L167.09 62.92H171.42L167.08 97.6Z" fill="#004992"/>
<path d="M177.44 61.26L199.65 88.54L202.75 62.92H206.99L202.62 99.03L180.4 71.75L177.28 97.6H173.04L177.44 61.26Z" fill="#004992"/>
<path d="M218.59 97.6H214.27L218.06 66.87H209.81L210.3 62.92H231.11L230.62 66.87H222.39L218.59 97.6Z" fill="#004992"/>
<path d="M234.54 62.92H253.17L252.69 66.87H238.38L237.18 76.58H251.07L250.58 80.53H236.69L235.07 93.64H249.38L248.89 97.64H230.26L234.54 62.92Z" fill="#004992"/>
<path d="M276.3 97.6H271.06L262.66 82.93H260.86L259.05 97.6H254.73L259.01 62.92H264.25C267.34 62.92 270.64 62.92 273.25 64.53C274.563 65.4331 275.593 66.6911 276.218 68.1573C276.843 69.6234 277.038 71.2371 276.78 72.81C276.509 75.2596 275.424 77.5473 273.697 79.3062C271.971 81.0651 269.704 82.1933 267.26 82.51L276.3 97.6ZM261.3 79.34H262.68C267.09 79.34 271.98 78.51 272.68 72.99C273.38 67.47 268.29 66.78 264.02 66.78H262.87L261.3 79.34Z" fill="#004992"/>
<path d="M283.39 97.6H279.07L283.35 62.92H287.67L283.39 97.6Z" fill="#004992"/>
<path d="M299.09 74.69H299L292.12 97.6H287.66L299.21 61.45L307.75 88.77L323.03 61.45L325.65 97.6H321.19L319.97 74.69H319.88L306.57 98.34L299.09 74.69Z" fill="#004992"/>
<path d="M133.93 18.04H119.68V33.79H133.93V18.04Z" fill="#FFED00"/>
<path d="M116.18 18H101.93V33.75H116.18V18Z" fill="#FFED00"/>
<path d="M133.93 36.73H119.68V52.48H133.93V36.73Z" fill="#FFED00"/>
<path d="M116.35 36.77H102.1V52.52H116.35V36.77Z" fill="#FFED00"/>
<path d="M99.06 36.67H84.81V52.42H99.06V36.67Z" fill="#FFED00"/>
<path d="M151.31 36.71H137.06V52.46H151.31V36.71Z" fill="#FFED00"/>
<path d="M85.17 33.79H99.01V18.54L85.17 33.79Z" fill="#FFED00"/>
<path d="M150.77 33.75H136.93V18.5L150.77 33.75Z" fill="#FFED00"/>
<path d="M168.43 52.42H154.6V37.17L168.43 52.42Z" fill="#FFED00"/>
<path d="M133.6 15.25H119.77V0L133.6 15.25Z" fill="#FFED00"/>
<path d="M102.6 15.25H116.43V0L102.6 15.25Z" fill="#FFED00"/>
<path d="M67.77 52.42H81.6V37.17L67.77 52.42Z" fill="#FFED00"/>
<path d="M65.09 73.12C63.65 70.64 60.37 69.8 57.29 69.8C51.77 69.8 47.37 74.54 46.52 79.92C45.67 85.3 48.8 89.85 54.41 89.85C57.35 89.85 61.02 89.42 63.26 87.17L62.55 96.48C59.3972 97.4368 56.133 97.978 52.84 98.09C50.5622 98.1279 48.3013 97.6933 46.1998 96.8138C44.0983 95.9343 42.2019 94.629 40.63 92.98C37.36 89.53 36.33 84.52 37.14 79.37C37.89 74.63 39.91 69.58 43.76 66.18C47.61 62.78 53.47 61.56 58.35 61.56C61.1112 61.5644 63.8393 62.1611 66.35 63.31L65.09 73.12Z" fill="#004992"/>
</g>
<defs>
<clipPath id="clip0">
<rect width="325.65" height="99.03" fill="white"/>
</clipPath>
</defs>
</svg>
