<svg width="387" height="115" viewBox="0 0 387 115" fill="none" xmlns="http://www.w3.org/2000/svg">
<g clip-path="url(#clip0)">
<path d="M49.6701 28.5C54.4201 29.55 56.2101 29.02 56.0701 26.85C55.8801 23.98 54.0701 23.79 53.6601 20.75C53.3501 18.11 55.2801 13.42 61.6601 13.42C65.0301 13.42 67.4601 15.66 67.4601 21C67.4601 28.16 61.4601 27 61.1601 30.23C60.9201 33.18 67.2801 34.23 67.2801 40.9C67.2801 46.41 58.4001 51.76 59.0601 60.35C59.5601 66.87 73.3001 66.73 82.2401 69.35C86.9201 70.71 89.4501 70.64 102.87 91.35C108.439 83.8908 112.099 75.1835 113.534 65.9863C114.968 56.789 114.133 47.3806 111.1 38.58C111.1 38.58 100.43 42.3 91.4601 42.3C74.2701 42.3 66.6001 33.7 74.7901 34.66C81.255 35.5321 87.7915 35.7499 94.3001 35.31C99.1486 34.7917 103.943 33.8549 108.63 32.51C103.588 21.95 95.4228 13.194 85.2406 7.42661C75.0584 1.65927 63.3503 -0.840964 51.7005 0.264229C40.0507 1.36942 29.0216 6.02669 20.1055 13.6058C11.1895 21.185 4.81692 31.3202 1.8501 42.64C8.7101 39.5 38.2601 26 49.6701 28.5Z" fill="white"/>
<path d="M72.85 78.94C51 79.76 39.14 79.1 39.14 66.75C39.14 59.24 44.86 55.46 46.57 42.5C47.86 32.74 38.19 33.4999 0.659954 48.4199C-0.597387 56.651 -0.0415692 65.0574 2.28854 73.0513C4.61865 81.0452 8.66681 88.4336 14.15 94.6999C21.5 87.6599 27 83.6099 34 82.3399C42.12 80.8799 48.3 82.34 39.36 89.72C36.83 91.82 32.11 95.29 22.71 102.72C32.6128 110.198 44.6908 114.23 57.1 114.2C72.262 114.156 86.7985 108.151 97.57 97.48C80.76 85.79 86.89 78.42 72.85 78.94Z" fill="white"/>
<path d="M275.16 32.42V33C276.024 33.8958 276.7 34.9554 277.148 36.1163C277.596 37.2773 277.808 38.5161 277.77 39.76V81.76H288.18V32.42H275.18H275.16Z" fill="white"/>
<path d="M250 44.9399C249.87 38.3099 249.09 32.4199 249.09 32.4199H236.82V32.9999C237.681 33.8953 238.354 34.9536 238.801 36.1127C239.247 37.2718 239.458 38.5084 239.42 39.7499V81.7499H250.06C250.06 81.7499 249.76 72.8499 249.76 63.5299C249.679 59.3466 250.548 55.1994 252.3 51.3999C260.11 36.2199 268.59 42.4799 268.59 42.4799H269.29V32.9999C261.83 30.3499 255.12 36.1199 249.95 44.8999" fill="white"/>
<path d="M168.29 54.2801L185.64 32.4301H177.27L164.91 49.4301L153.41 32.4301H138.95V33.2001C138.95 33.2001 140.45 33.0701 144.74 38.4601L158.46 57.1901L139.09 81.7301H148.23L161.95 61.8001L174.41 81.7301H188.23L168.29 54.2801Z" fill="white"/>
<path d="M382.6 44.3H382C380.581 41.7629 378.465 39.6849 375.903 38.3116C373.34 36.9383 370.439 36.327 367.54 36.55C363.75 36.78 359.81 38.13 359.81 41.68C359.81 51.75 386.31 50.68 386.31 66.94C386.31 77.33 378.31 82.82 364.96 82.82C355.62 82.82 349.78 79.96 349.78 79.96V69.49H350.37C350.37 69.49 354.16 77 366.05 77C373.52 77 376.37 73.71 376.37 70C376.37 57.66 351.14 58.39 349.68 45.39C348.68 35.98 357.83 31.27 367.95 31.27C373.057 31.4169 378.063 32.7232 382.59 35.09V44.29L382.6 44.3Z" fill="white"/>
<path d="M228.08 77.66C228.08 77.66 222.77 82.75 211.34 82.75C194.02 82.75 187.09 69.6 187.09 55.75C187.09 41.9 198 31.46 210.2 31.46C229.03 31.46 232.42 47.87 231.53 57.46H198.84C198.04 68.26 203.69 76.83 212.06 76.83C223.63 76.83 228.28 70.92 228.28 70.92H229L228.08 77.66ZM221.61 51.66C222.15 45.57 219.21 36.8 211.18 36.8C203.49 36.8 199.38 44.8 199.09 51.66H221.61Z" fill="white"/>
<path d="M329.32 32.42V33C329.32 33 331.75 34.84 331.75 39.88V58.53C331.75 71.02 328.53 77.23 320.69 77.23C312.85 77.23 309.64 71.48 309.64 58.53V32.42H296.78V33C296.78 33 299.2 34.84 299.2 39.88V60C299.2 80.53 312.49 82.92 320.7 82.92C328.91 82.92 342.16 80.16 342.16 60V32.42H329.32Z" fill="white"/>
<path d="M282.78 26.59C283.955 26.5919 285.105 26.2452 286.083 25.5937C287.061 24.9423 287.824 24.0152 288.275 22.93C288.726 21.8448 288.845 20.6502 288.617 19.4973C288.389 18.3444 287.824 17.285 286.994 16.4533C286.164 15.6216 285.105 15.0548 283.953 14.8248C282.8 14.5948 281.605 14.7119 280.519 15.1612C279.433 15.6104 278.505 16.3718 277.852 17.3488C277.199 18.3259 276.85 19.4747 276.85 20.65C276.849 21.4295 277.001 22.2017 277.299 22.9223C277.596 23.643 278.033 24.2979 278.583 24.8496C279.134 25.4013 279.788 25.839 280.508 26.1376C281.229 26.4362 282.001 26.59 282.78 26.59" fill="white"/>
</g>
<defs>
<clipPath id="clip0">
<rect width="386.34" height="114.2" fill="white"/>
</clipPath>
</defs>
</svg>
