<svg width="1000" height="1000" viewBox="0 0 1000 1000" fill="none" xmlns="http://www.w3.org/2000/svg">
<g clip-path="url(#clip0)">
<path d="M449.998 238.136H448.668C448.184 238.135 447.711 238.279 447.31 238.55C446.909 238.821 446.599 239.206 446.419 239.655L415.967 315.845C415.823 316.213 415.77 316.61 415.814 317.003C415.857 317.396 415.996 317.773 416.217 318.1C416.438 318.428 416.736 318.697 417.084 318.884C417.433 319.071 417.821 319.17 418.216 319.174H422.765C423.251 319.173 423.726 319.026 424.127 318.751C424.529 318.476 424.838 318.087 425.014 317.634L430.173 304.558H468.513L473.661 317.634C473.839 318.089 474.149 318.479 474.553 318.754C474.956 319.029 475.433 319.175 475.921 319.174H480.569C480.966 319.173 481.356 319.075 481.705 318.888C482.055 318.702 482.353 318.433 482.575 318.105C482.797 317.776 482.935 317.399 482.978 317.005C483.02 316.611 482.966 316.213 482.819 315.845L452.257 239.655C452.075 239.205 451.763 238.82 451.36 238.549C450.958 238.278 450.483 238.134 449.998 238.136V238.136ZM433.642 295.72L449.338 256.171L464.934 295.72H433.642Z" fill="#18A7B5"/>
<path d="M577.175 340.148C577.175 327.332 568.737 319.674 554.591 319.674H530.677C530.033 319.674 529.415 319.93 528.96 320.385C528.504 320.841 528.248 321.459 528.248 322.103V397.403C528.248 398.047 528.504 398.665 528.96 399.121C529.415 399.576 530.033 399.832 530.677 399.832H557.92C573.916 399.832 583.483 390.834 583.483 375.839C583.483 366.621 578.814 358.993 571.216 355.194C575.095 351.905 577.175 346.766 577.175 340.148ZM554.181 328.511C563.489 328.511 567.817 332.21 567.817 340.148C567.817 348.086 564.228 351.795 556.171 351.795H537.636V328.511H554.181ZM537.665 360.623H557.25C571.176 360.623 574.096 368.88 574.096 375.809C574.096 385.886 568.467 390.994 557.36 390.994H537.636L537.665 360.623Z" fill="#18A7B5"/>
<path d="M26.2433 479.65C26.5422 479.651 26.8403 479.621 27.1331 479.561L56.5752 473.322C57.411 473.145 58.1747 472.722 58.768 472.108C59.3614 471.493 59.7571 470.715 59.9043 469.873L62.5835 455.037L65.7027 475.272L45.5781 479.531H45.4482C45.2238 479.594 45.0034 479.671 44.7883 479.76L44.5384 479.86C44.2517 480.01 43.9804 480.187 43.7286 480.39L43.5987 480.52C43.4263 480.671 43.2659 480.835 43.1188 481.01C43.1023 481.042 43.0822 481.073 43.0588 481.1L42.8789 481.39C42.7637 481.57 42.6602 481.757 42.5689 481.95C42.5689 482.01 42.509 482.04 42.489 482.1C42.469 482.16 42.489 482.23 42.489 482.3C42.4205 482.499 42.367 482.703 42.329 482.91C42.329 483.03 42.329 483.14 42.329 483.26C42.309 483.479 42.309 483.7 42.329 483.919C42.329 484.029 42.329 484.129 42.329 484.239V484.329L65.9826 638.238C66.1459 639.237 66.6585 640.147 67.4291 640.804C68.1998 641.461 69.1786 641.823 70.1915 641.827C70.6009 641.83 71.0085 641.773 71.4011 641.657L95.1947 634.659C96.0873 634.397 96.8702 633.852 97.4242 633.104C97.9782 632.357 98.2731 631.45 98.2639 630.52L97.3341 531.057L99.0837 530.787L120.408 625.031C120.606 625.9 121.07 626.685 121.734 627.278C122.399 627.871 123.232 628.242 124.117 628.34L148.11 630.92H148.57C149.155 630.919 149.733 630.799 150.269 630.567C150.806 630.335 151.289 629.995 151.689 629.569C152.089 629.143 152.397 628.639 152.595 628.089C152.793 627.539 152.876 626.954 152.839 626.371L146.751 531.007L166.326 657.972C166.414 658.581 166.632 659.164 166.965 659.681C167.297 660.199 167.738 660.639 168.255 660.972C168.945 661.402 169.741 661.63 170.554 661.631C170.96 661.634 171.365 661.577 171.754 661.461L195.548 654.463C196.44 654.201 197.224 653.655 197.779 652.909C198.334 652.162 198.632 651.255 198.627 650.324L197.687 550.861L199.447 550.591L220.761 644.826C220.958 645.696 221.423 646.484 222.09 647.077C222.756 647.67 223.592 648.04 224.48 648.135L248.473 650.724H248.933C249.518 650.724 250.096 650.604 250.632 650.372C251.169 650.139 251.652 649.8 252.052 649.374C252.452 648.947 252.76 648.444 252.958 647.894C253.156 647.344 253.239 646.759 253.202 646.175L248.663 575.095L269.868 568.896C270.761 568.654 271.552 568.129 272.122 567.399C272.692 566.668 273.009 565.773 273.027 564.847L272.307 487.868L278.695 486.519L295.171 559.369C295.372 560.24 295.843 561.025 296.516 561.614C297.189 562.202 298.03 562.564 298.92 562.648L322.913 565.227C323.066 565.237 323.22 565.237 323.373 565.227C323.959 565.227 324.538 565.107 325.075 564.874C325.612 564.641 326.095 564.301 326.496 563.873C326.896 563.446 327.204 562.941 327.401 562.39C327.598 561.839 327.68 561.253 327.642 560.669L321.084 457.876C321.39 457.799 321.685 457.685 321.963 457.536C322.075 457.486 322.183 457.426 322.283 457.357C322.66 457.136 322.997 456.856 323.283 456.527C323.314 456.509 323.341 456.485 323.363 456.457C323.591 456.172 323.783 455.859 323.933 455.527C323.933 455.437 323.933 455.347 324.013 455.267C324.093 455.187 324.083 455.027 324.123 454.917C324.237 454.511 324.291 454.09 324.283 453.667C324.283 453.667 324.283 453.588 324.283 453.538L320.374 382.027L326.462 402.561C326.726 403.444 327.268 404.218 328.006 404.769C328.744 405.32 329.64 405.618 330.561 405.62C330.86 405.62 331.158 405.59 331.451 405.531L353.505 400.892C354.093 400.764 354.647 400.515 355.133 400.16C355.618 399.806 356.024 399.353 356.324 398.832C356.626 398.312 356.814 397.734 356.876 397.136C356.938 396.538 356.872 395.934 356.684 395.363L313.816 265.198C313.821 265.169 313.821 265.138 313.816 265.108C313.662 264.656 313.432 264.234 313.136 263.859L313.036 263.749C312.73 263.4 312.373 263.099 311.976 262.859L311.846 262.799C311.439 262.578 311.001 262.419 310.547 262.329H310.477C310.193 262.279 309.905 262.259 309.617 262.269L278.165 263.659L275.106 237.036L290.032 234.417C290.507 234.326 290.963 234.157 291.382 233.917C291.522 233.837 291.632 233.727 291.762 233.637C292.019 233.451 292.256 233.24 292.471 233.007C292.587 232.867 292.694 232.72 292.791 232.567C292.955 232.323 293.093 232.061 293.201 231.787C293.296 231.492 293.396 231.199 293.501 230.908C293.516 230.708 293.516 230.507 293.501 230.308C293.501 230.188 293.551 230.078 293.551 229.958L289.922 169.734C289.891 169.142 289.736 168.564 289.469 168.035C289.201 167.506 288.827 167.038 288.369 166.662C287.911 166.286 287.379 166.009 286.809 165.85C286.238 165.69 285.64 165.651 285.053 165.735L251.503 170.474C250.914 170.558 250.349 170.764 249.845 171.078C249.34 171.392 248.906 171.808 248.57 172.298C248.235 172.789 248.005 173.344 247.895 173.929C247.786 174.513 247.799 175.114 247.933 175.693L257.311 215.532L253.612 215.832C253.271 215.871 252.936 215.948 252.612 216.062L252.302 216.192C252.081 216.292 251.867 216.409 251.662 216.542C251.562 216.612 251.463 216.671 251.363 216.751C251.158 216.916 250.968 217.096 250.793 217.291L250.613 217.491V217.551C250.417 217.818 250.253 218.107 250.123 218.411V218.411C250.11 218.475 250.093 218.539 250.073 218.601C249.982 218.861 249.915 219.129 249.873 219.401C249.873 219.511 249.873 219.631 249.873 219.741C249.848 219.99 249.848 220.241 249.873 220.49C249.873 220.6 249.873 220.71 249.873 220.82C249.873 220.93 249.873 220.91 249.873 220.96L259.41 264.419L223.26 266.008C222.818 266.038 222.383 266.136 221.97 266.298L221.731 266.388C221.365 266.56 221.028 266.785 220.731 267.058C220.669 267.106 220.613 267.16 220.561 267.218C220.428 267.327 220.304 267.448 220.191 267.578C220.061 267.748 219.944 267.929 219.841 268.118L219.741 268.258C219.543 268.645 219.402 269.059 219.321 269.487C219.321 269.487 219.321 269.567 219.321 269.607L217.322 281.874L215.722 255.221C215.686 254.631 215.529 254.054 215.26 253.528C214.991 253.001 214.617 252.535 214.16 252.16C213.703 251.785 213.173 251.508 212.604 251.346C212.036 251.185 211.439 251.143 210.853 251.222L177.293 255.971C176.704 256.057 176.14 256.264 175.636 256.579C175.132 256.893 174.699 257.309 174.363 257.8C174.027 258.29 173.797 258.844 173.688 259.428C173.58 260.012 173.595 260.612 173.734 261.189L182.951 301.109L179.262 301.409C178.904 301.439 178.551 301.516 178.212 301.639L177.912 301.769C177.687 301.867 177.469 301.984 177.263 302.118L176.973 302.318C176.765 302.489 176.571 302.677 176.393 302.878C176.331 302.937 176.274 303 176.223 303.068L176.163 303.128C175.967 303.395 175.803 303.684 175.673 303.988C175.673 303.988 175.673 303.988 175.673 304.038C175.673 304.088 175.673 304.168 175.673 304.228C175.574 304.483 175.504 304.747 175.463 305.018C175.463 305.138 175.463 305.258 175.463 305.368C175.438 305.617 175.438 305.868 175.463 306.117C175.458 306.224 175.458 306.331 175.463 306.437C175.463 306.487 175.463 306.537 175.463 306.587L184.95 350.045L148.81 351.645C148.364 351.668 147.925 351.766 147.511 351.935L147.271 352.025C146.907 352.186 146.57 352.402 146.271 352.665L139.053 330.911C139.053 330.861 139.003 330.831 138.993 330.791C138.839 330.358 138.617 329.952 138.333 329.591L138.183 329.431C137.897 329.089 137.56 328.792 137.183 328.551H137.133C136.721 328.329 136.275 328.174 135.814 328.091C135.701 328.082 135.587 328.082 135.474 328.091C135.266 328.057 135.055 328.037 134.844 328.031L103.393 329.421L100.323 302.798L115.259 300.179C115.734 300.088 116.19 299.919 116.609 299.679C116.742 299.591 116.869 299.494 116.989 299.389C117.246 299.207 117.483 298.999 117.699 298.769C117.814 298.629 117.921 298.482 118.019 298.329C118.183 298.085 118.32 297.823 118.428 297.55C118.499 297.373 118.559 297.193 118.608 297.01C118.655 296.9 118.692 296.786 118.718 296.67C118.733 296.47 118.733 296.27 118.718 296.07C118.718 295.95 118.768 295.84 118.718 295.72L115.089 235.516C115.056 234.925 114.901 234.347 114.633 233.819C114.365 233.291 113.991 232.824 113.533 232.448C113.075 232.072 112.545 231.795 111.974 231.635C111.404 231.475 110.807 231.435 110.221 231.517L76.6697 236.266C76.0819 236.352 75.5182 236.558 75.0142 236.873C74.5102 237.187 74.0769 237.603 73.7415 238.093C73.4062 238.584 73.1761 239.138 73.0658 239.722C72.9555 240.306 72.9674 240.906 73.1007 241.485L82.4782 281.324L78.7792 281.624C78.4384 281.663 78.1031 281.74 77.7794 281.854L77.4695 281.984C77.2457 282.087 77.0287 282.204 76.8197 282.334L76.5398 282.534C76.3298 282.702 76.1357 282.89 75.9599 283.094C75.8999 283.164 75.83 283.214 75.78 283.283L75.73 283.343C75.5344 283.61 75.37 283.899 75.2401 284.203V284.253C75.2401 284.313 75.2401 284.383 75.2401 284.443C75.1501 284.7 75.0832 284.964 75.0402 285.233C75.0402 285.353 75.0402 285.473 75.0402 285.583C75.0152 285.832 75.0152 286.083 75.0402 286.333C75.0348 286.439 75.0348 286.546 75.0402 286.653C75.0402 286.703 75.0402 286.753 75.0402 286.803L84.5776 330.261L48.4274 331.86C47.9856 331.887 47.5507 331.981 47.1377 332.14L46.8978 332.24C46.5197 332.408 46.1664 332.626 45.848 332.89L45.6781 333.06C45.5475 333.172 45.424 333.293 45.3082 333.42C45.1789 333.591 45.0619 333.772 44.9583 333.96L44.8583 334.11C44.6606 334.494 44.5192 334.905 44.4384 335.329C44.4328 335.373 44.4328 335.416 44.4384 335.459L21.9945 474.692C21.8879 475.306 21.9172 475.936 22.0802 476.538C22.2433 477.14 22.5361 477.699 22.9382 478.175C23.3404 478.651 23.842 479.034 24.4078 479.296C24.9736 479.558 25.5899 479.692 26.2134 479.69L26.2433 479.65ZM106.862 240.625L109.751 288.472L109.981 292.391L108.471 292.651L99.3036 294.261L95.0848 295L94.5349 295.1L93.1353 289.152L92.1356 284.833L91.1358 280.624L82.5481 244.074L106.862 240.625ZM87.9767 302.788C88.3776 303.262 88.8769 303.642 89.4397 303.902C90.0026 304.163 90.6155 304.298 91.2358 304.298H91.3158C91.4989 304.307 91.6825 304.307 91.8656 304.298L94.8048 329.831L93.2053 329.901L86.9769 301.669L87.9767 302.788ZM90.7359 338.529L95.0748 338.339H95.7846L100.073 338.149L104.352 337.959L112.92 337.579L117.329 337.379L130.975 336.779V337.539L133.054 375.529L134.054 393.974L135.054 412.419L135.184 414.778L125.317 476.351L124.677 480.35L124.567 481.06L123.807 485.789L123.667 486.629L122.667 492.907L122.397 494.546C122.294 495.161 122.326 495.791 122.491 496.392C122.656 496.993 122.95 497.551 123.353 498.026C123.755 498.502 124.257 498.884 124.822 499.147C125.387 499.409 126.003 499.545 126.626 499.545C126.736 499.545 126.846 499.545 126.956 499.545C127.141 499.54 127.325 499.52 127.506 499.485L131.505 498.645L135.994 497.706H136.074L139.703 496.936L140.083 503.934L140.552 512.472L140.742 515.971L138.003 516.391L137.283 516.501L105.672 521.309L101.433 521.959L97.2542 522.589H97.1942L92.9753 523.229L88.7065 523.879L81.9983 524.878L75.9999 485.999L75.3901 482.06V481.76L74.7902 477.831L74.7402 477.511L74.1304 473.592L67.2423 429.184L65.2428 416.188L63.2434 403.191L53.526 340.208L74.7802 339.268L79.1591 339.068L83.5479 338.878L86.3871 338.749L90.7359 338.529ZM142.552 368.9L141.552 374.829L140.972 364.262L142.552 368.9ZM207.264 260.43L210.154 308.277L210.384 312.196L208.884 312.456L199.717 314.065L195.498 314.805L194.938 314.905L193.538 308.907L192.538 304.588L191.539 300.379L182.951 263.869L207.264 260.43ZM281.624 174.873L284.514 222.72L284.744 226.639L283.234 226.899L274.076 228.508L269.848 229.248L269.298 229.348L267.898 223.35L266.898 219.041L265.899 214.832L257.311 178.282L281.624 174.873ZM262.719 237.036C263.122 237.508 263.621 237.887 264.184 238.147C264.746 238.408 265.359 238.544 265.979 238.546H266.059C266.242 238.555 266.425 238.555 266.608 238.546L269.548 264.089L267.948 264.159L261.77 235.936L262.719 237.036ZM265.479 272.776L269.818 272.586H270.527L274.816 272.396L279.095 272.206L287.663 271.827L292.072 271.627L305.718 271.027V271.787L307.797 309.776L308.797 328.211L309.797 346.656L313.076 406.56L313.306 410.899L314.795 438.132L315.265 446.659L315.455 450.168L312.716 450.588L311.996 450.698L280.385 455.507L276.146 456.147L274.206 456.447L271.897 449.449L267.488 436.082L266.618 433.423L263.089 422.716L262.01 419.457L260.63 415.268L260.27 414.178L259.27 411.079L258.941 410.079L257.631 405.89L242.635 360.223L240.635 354.114L240.066 350.435L238.066 337.439L228.349 274.456L249.603 273.506L253.992 273.316L258.371 273.126L261.21 272.996L265.479 272.776ZM347.067 393.454L333.52 396.323L318.334 345.127L315.785 298.519L347.067 393.454ZM302.839 554.47L282.334 463.815L312.596 459.206L318.794 556.18L302.839 554.47ZM264.449 561.678L248.453 566.357L248.023 563.538L246.734 543.413C247.04 543.336 247.335 543.222 247.614 543.073C247.727 543.011 247.834 542.937 247.933 542.853C248.305 542.63 248.641 542.354 248.933 542.034L249.003 541.954C249.235 541.671 249.426 541.358 249.573 541.024C249.573 540.934 249.623 540.844 249.653 540.764C249.7 540.651 249.737 540.534 249.763 540.414C249.877 540.011 249.931 539.593 249.923 539.174C249.923 539.124 249.923 539.084 249.923 539.044L246.014 467.514L252.102 488.058C252.364 488.942 252.904 489.718 253.643 490.27C254.382 490.821 255.279 491.118 256.201 491.117C256.5 491.117 256.798 491.087 257.091 491.027L263.789 489.608L264.449 561.678ZM190.089 647.235L174.093 651.924L153.959 521.159L175.353 551.921C175.562 552.217 175.807 552.486 176.083 552.721L176.173 552.781C176.475 553.033 176.812 553.242 177.173 553.401L177.492 553.521C177.92 553.659 178.363 553.74 178.812 553.76C179.028 553.775 179.246 553.775 179.462 553.76L189.179 552.281L190.089 647.235ZM128.106 620.242L107.571 529.567L137.833 524.958L144.032 621.932L128.106 620.242ZM167.875 506.353L171.774 531.856L154.679 507.273L154.069 506.383L167.415 503.564L167.875 506.353ZM148.38 498.865L148.17 495.016L156.988 493.147C157.819 492.97 158.579 492.549 159.17 491.938C159.761 491.327 160.157 490.554 160.307 489.718L162.956 474.872L166.076 495.106L148.38 498.865ZM148.88 383.476L150.24 392.284L158.958 448.879L157.398 457.546L155.728 466.874L154.949 471.203L152.399 485.329L147.701 486.329L143.982 487.118L143.462 487.228L139.763 488.008L139.233 488.118L135.524 488.898L131.865 489.678L132.965 482.87L133.714 478.141L134.474 473.412L137.473 455.037L140.662 435.103L141.092 432.433L142.652 422.666L143.852 415.168L144.221 412.899L148.43 386.616L148.88 383.476ZM206.375 349.106L203.755 349.226L200.696 322.603L210.913 320.803L206.375 349.106ZM236.497 545.053L238.236 544.793L239.496 564.488L244.434 641.757L228.439 640.047L207.944 549.372L236.497 545.053ZM267.958 480.07L263.689 480.97L259.16 481.97L255.042 468.054L253.812 463.875L252.472 459.356L250.473 452.548L243.935 430.674L243.395 420.676L243.225 417.677L243.155 416.408L242.995 413.348L242.925 412.129L242.755 409.03L241.705 389.745L241.395 384.066L248.463 405.55L249.163 407.67L250.463 411.599L250.513 411.759L251.842 415.758V415.818L253.202 419.947L263.339 450.728L265.619 457.646L266.978 461.775L267.748 464.095L268.338 465.894L272.147 477.461L272.647 478.971L272.167 479.071L267.958 480.07ZM230.968 348.106L215.102 348.806L223.24 297.92L230.968 348.106ZM188.37 322.693C188.769 323.166 189.266 323.546 189.827 323.807C190.388 324.068 191 324.203 191.619 324.202H191.699C191.883 324.201 192.067 324.184 192.249 324.152L195.188 349.696L193.598 349.766L187.41 321.583L188.37 322.693ZM191.119 358.433L195.458 358.243H196.177L200.456 358.053L204.745 357.863H204.995L209.354 357.663L213.353 357.493H213.773L217.772 357.314L231.418 356.714V357.473L232.118 370.31L233.117 388.805L233.477 395.423L234.047 405.81L234.327 410.989L234.427 412.908L234.487 413.908L234.557 415.358L234.667 417.227L234.797 419.677L234.897 421.496L235.427 431.094L235.487 432.353L235.867 439.221L236.307 447.349L238.766 492.257L239.006 496.596L239.746 510.152L240.485 523.829L240.955 532.366L241.145 535.865L239.426 536.135L238.426 536.285L237.706 536.395L235.217 536.775L206.105 541.204L201.866 541.854L197.677 542.484H197.627L193.398 543.123L189.129 543.773L182.421 544.773L176.423 505.893L175.813 501.954V501.655L175.203 497.726L175.153 497.406L174.553 493.487L170.694 468.493L169.955 464.075L169.305 459.836L167.635 448.989L166.505 441.681L165.626 436.002L163.626 423.006L162.537 416.008L158.538 390.285L153.959 359.983L175.223 359.043L179.602 358.843L183.981 358.653L186.82 358.523L191.119 358.433ZM89.6862 627.431L73.6905 632.119L53.516 501.355L74.9102 532.116C75.1122 532.415 75.3544 532.684 75.63 532.916L75.73 532.976C76.0326 533.228 76.3691 533.437 76.7297 533.596L77.0496 533.716C77.4754 533.859 77.9203 533.936 78.3693 533.946C78.5834 533.944 78.7972 533.927 79.0091 533.896L88.7365 532.416L89.6862 627.431ZM53.6959 486.579L66.9823 483.759L67.4122 486.529L71.3512 512.052L54.2758 487.468L53.6959 486.579ZM58.6146 429.074L51.9864 465.544L31.4619 469.873L48.4573 363.632L58.6146 429.074Z" fill="#18A7B5"/>
<path d="M884.902 232.427C884.444 232.801 884.069 233.266 883.801 233.793C883.532 234.32 883.376 234.896 883.342 235.486L879.763 295.69C879.763 295.81 879.763 295.92 879.763 296.04C879.748 296.24 879.748 296.44 879.763 296.64C879.763 296.76 879.843 296.86 879.873 296.98C879.923 297.163 879.983 297.343 880.053 297.52C880.162 297.793 880.299 298.055 880.463 298.299C880.561 298.452 880.667 298.599 880.783 298.739C880.998 298.969 881.236 299.177 881.493 299.359C881.613 299.464 881.739 299.561 881.873 299.649C882.293 299.888 882.748 300.056 883.222 300.149V300.149L898.158 302.768L895.089 329.391L863.638 328.001H863.338H863.008C862.73 328.033 862.455 328.09 862.188 328.171L861.988 328.241C861.704 328.344 861.432 328.478 861.178 328.641L861.028 328.741C860.729 328.945 860.456 329.187 860.218 329.461L860.118 329.561C859.828 329.93 859.601 330.346 859.449 330.791C859.425 330.825 859.405 330.862 859.389 330.901L852.231 352.615C851.932 352.352 851.595 352.137 851.231 351.975L850.991 351.885C850.58 351.717 850.144 351.619 849.701 351.595L813.551 349.995L823.088 306.537C823.088 306.487 823.088 306.437 823.088 306.387C823.094 306.281 823.094 306.174 823.088 306.067C823.113 305.818 823.113 305.567 823.088 305.318C823.088 305.208 823.088 305.088 823.088 304.968C823.047 304.699 822.98 304.434 822.889 304.178C822.884 304.115 822.884 304.051 822.889 303.988V303.938C822.759 303.634 822.594 303.345 822.399 303.078V303.018L822.219 302.828C822.043 302.624 821.849 302.437 821.639 302.268L821.359 302.068C821.15 301.938 820.933 301.821 820.709 301.719L820.399 301.589C820.077 301.471 819.741 301.393 819.399 301.359L815.7 301.059L825.068 261.219C825.206 260.642 825.222 260.042 825.113 259.458C825.005 258.874 824.775 258.32 824.438 257.83C824.103 257.339 823.669 256.923 823.165 256.609C822.661 256.294 822.097 256.087 821.509 256.001L787.788 251.302C787.202 251.221 786.606 251.261 786.036 251.421C785.467 251.581 784.937 251.857 784.479 252.232C784.019 252.604 783.643 253.069 783.375 253.596C783.106 254.123 782.951 254.7 782.919 255.291L781.33 281.924L779.33 269.657C779.335 269.617 779.335 269.577 779.33 269.537C779.251 269.112 779.11 268.701 778.91 268.318C778.91 268.258 778.84 268.218 778.81 268.168C778.712 267.977 778.594 267.796 778.461 267.628C778.35 267.495 778.226 267.375 778.091 267.268C778.039 267.209 777.982 267.156 777.921 267.108C777.623 266.835 777.286 266.61 776.921 266.438L776.691 266.348C776.275 266.187 775.837 266.089 775.391 266.058L739.241 264.469L748.779 221.01C748.779 220.96 748.779 220.91 748.779 220.87C748.779 220.83 748.779 220.65 748.779 220.54C748.804 220.291 748.804 220.04 748.779 219.791C748.779 219.681 748.779 219.561 748.779 219.451C748.737 219.179 748.67 218.911 748.579 218.651C748.579 218.581 748.579 218.521 748.579 218.461C748.449 218.157 748.284 217.868 748.089 217.601V217.541C748.089 217.471 747.969 217.411 747.909 217.341C747.736 217.144 747.546 216.963 747.339 216.801L747.049 216.591C746.841 216.459 746.624 216.342 746.399 216.242L746.089 216.112C745.766 215.997 745.43 215.92 745.09 215.882L741.391 215.582L750.768 175.743C750.901 175.162 750.913 174.561 750.803 173.976C750.693 173.391 750.463 172.835 750.128 172.343C749.793 171.853 749.36 171.438 748.855 171.125C748.351 170.811 747.787 170.607 747.199 170.524L713.648 165.785C713.061 165.701 712.464 165.74 711.893 165.9C711.322 166.059 710.791 166.336 710.333 166.712C709.875 167.088 709.5 167.556 709.233 168.085C708.965 168.613 708.811 169.192 708.779 169.784L704.95 229.938C704.95 230.058 704.95 230.168 704.95 230.288C704.935 230.487 704.935 230.688 704.95 230.888C704.978 231.004 705.015 231.117 705.06 231.228C705.11 231.411 705.17 231.591 705.24 231.767C705.349 232.041 705.486 232.303 705.65 232.547C705.748 232.7 705.855 232.847 705.97 232.987C706.185 233.22 706.423 233.431 706.68 233.617C706.81 233.707 706.92 233.817 707.06 233.897C707.479 234.137 707.935 234.306 708.409 234.397V234.397L723.345 237.016L720.276 263.639L688.825 262.249C688.613 262.252 688.402 262.276 688.195 262.319C688.085 262.319 687.965 262.319 687.855 262.319C687.396 262.4 686.954 262.555 686.545 262.779H686.485C686.086 263.012 685.728 263.309 685.426 263.659L685.306 263.809C685.014 264.17 684.787 264.579 684.636 265.018C684.612 265.053 684.592 265.09 684.576 265.128L641.827 395.313C641.639 395.884 641.574 396.488 641.636 397.086C641.698 397.684 641.886 398.262 642.187 398.782C642.489 399.303 642.895 399.754 643.38 400.109C643.866 400.463 644.419 400.713 645.007 400.842L667.081 405.51C667.374 405.57 667.672 405.6 667.97 405.6C668.892 405.598 669.788 405.3 670.526 404.749C671.264 404.198 671.805 403.424 672.069 402.541L678.158 382.007L674.249 453.518C674.249 453.568 674.249 453.607 674.249 453.647C674.24 454.07 674.294 454.491 674.409 454.897C674.409 455.007 674.479 455.127 674.519 455.247C674.559 455.367 674.519 455.417 674.599 455.507C674.749 455.839 674.94 456.152 675.168 456.437L675.248 456.507C675.534 456.836 675.872 457.116 676.248 457.336C676.35 457.404 676.457 457.464 676.568 457.516C676.847 457.665 677.142 457.779 677.448 457.856L670.82 560.699C670.781 561.283 670.863 561.869 671.06 562.42C671.258 562.971 671.566 563.476 671.966 563.903C672.366 564.33 672.85 564.671 673.387 564.904C673.924 565.137 674.503 565.257 675.088 565.257C675.242 565.267 675.395 565.267 675.548 565.257L699.542 562.678C700.429 562.584 701.264 562.214 701.929 561.621C702.595 561.027 703.057 560.239 703.251 559.369L719.806 486.489L726.185 487.838L725.465 564.817C725.457 565.748 725.752 566.657 726.306 567.405C726.859 568.154 727.641 568.702 728.534 568.966L749.738 575.165L745.2 646.245C745.163 646.829 745.246 647.414 745.443 647.964C745.641 648.514 745.95 649.017 746.35 649.443C746.75 649.87 747.233 650.209 747.769 650.442C748.306 650.674 748.884 650.794 749.468 650.794H749.928L773.922 648.205C774.81 648.113 775.648 647.744 776.315 647.15C776.983 646.557 777.446 645.768 777.641 644.896L798.955 550.661L800.715 550.931L799.785 650.394C799.776 651.324 800.07 652.232 800.624 652.979C801.178 653.726 801.961 654.272 802.854 654.533L826.648 661.531C827.037 661.647 827.441 661.704 827.847 661.701C828.66 661.7 829.457 661.472 830.147 661.041C830.665 660.71 831.106 660.271 831.44 659.753C831.773 659.235 831.99 658.652 832.076 658.042L851.661 531.077L845.562 626.441C845.526 627.024 845.609 627.609 845.806 628.159C846.004 628.709 846.313 629.213 846.713 629.639C847.113 630.065 847.596 630.405 848.132 630.637C848.668 630.869 849.247 630.989 849.831 630.99H850.291L874.335 628.41C875.22 628.314 876.054 627.943 876.719 627.35C877.384 626.756 877.847 625.97 878.044 625.101L899.378 530.857L901.137 531.127L900.198 630.59C900.189 631.52 900.483 632.427 901.037 633.174C901.591 633.922 902.374 634.467 903.267 634.729L927.07 641.727C927.459 641.844 927.864 641.901 928.27 641.897C929.291 641.893 930.277 641.525 931.052 640.86C931.827 640.195 932.34 639.276 932.499 638.268L956.223 484.419V484.329C956.223 484.219 956.223 484.119 956.223 484.009C956.237 483.79 956.237 483.569 956.223 483.349L956.163 483C956.125 482.793 956.071 482.589 956.003 482.39C956.008 482.323 956.008 482.256 956.003 482.19C955.98 482.138 955.953 482.088 955.923 482.04C955.835 481.845 955.732 481.658 955.613 481.48C955.559 481.38 955.499 481.283 955.433 481.19C955.409 481.162 955.389 481.132 955.373 481.1C955.226 480.925 955.065 480.761 954.893 480.61L954.763 480.48C954.513 480.275 954.241 480.097 953.953 479.95L953.703 479.85C953.489 479.759 953.268 479.682 953.043 479.62H952.913L932.749 475.292L935.878 455.057L938.557 469.873C938.709 470.71 939.107 471.484 939.7 472.094C940.293 472.705 941.054 473.125 941.886 473.302L971.328 479.541C971.621 479.6 971.919 479.63 972.218 479.63V479.63C973.353 479.63 974.441 479.18 975.244 478.377C976.046 477.575 976.497 476.486 976.497 475.352C976.496 474.89 976.421 474.431 976.277 473.992L954.123 335.439C954.129 335.396 954.129 335.353 954.123 335.309C954.047 334.884 953.905 334.472 953.703 334.09L953.603 333.94C953.5 333.752 953.383 333.571 953.253 333.4C953.143 333.27 953.013 333.16 952.893 333.04L952.713 332.87C952.411 332.61 952.075 332.391 951.714 332.22L951.464 332.12C951.051 331.961 950.616 331.867 950.174 331.84L914.024 330.241L923.561 286.783C923.566 286.733 923.566 286.682 923.561 286.633C923.567 286.526 923.567 286.419 923.561 286.313C923.581 286.063 923.581 285.812 923.561 285.563V285.213C923.51 284.945 923.44 284.681 923.351 284.423C923.356 284.36 923.356 284.296 923.351 284.233V284.183C923.221 283.879 923.057 283.59 922.862 283.323V283.263C922.812 283.194 922.742 283.144 922.692 283.074C922.513 282.872 922.319 282.685 922.112 282.514L921.822 282.314C921.614 282.181 921.397 282.065 921.172 281.964L920.862 281.834C920.539 281.719 920.203 281.642 919.862 281.604L916.173 281.304L925.541 241.465C925.677 240.886 925.691 240.285 925.582 239.7C925.473 239.115 925.244 238.559 924.908 238.068C924.572 237.577 924.137 237.161 923.632 236.847C923.126 236.534 922.561 236.329 921.972 236.246L888.421 231.497C887.802 231.386 887.166 231.412 886.558 231.573C885.95 231.733 885.385 232.025 884.902 232.427ZM946.465 465.544L939.897 429.074L949.984 363.652L966.98 469.893L946.465 465.544ZM914.924 338.848L919.312 339.038L923.691 339.238L944.956 340.178L935.228 403.161L933.229 416.158L931.229 429.154L924.391 473.482L923.781 477.401V477.721L923.181 481.65V481.95L922.572 485.889L916.573 524.768L909.865 523.769L905.596 523.119L901.377 522.479L897.188 521.849L892.95 521.199L861.338 516.391L860.618 516.281L857.769 515.861L857.959 512.362L858.429 503.824L858.809 496.826L862.438 497.596H862.518L867.007 498.535L871.006 499.375C871.19 499.41 871.377 499.431 871.565 499.435C871.672 499.441 871.779 499.441 871.885 499.435H871.945C873.08 499.435 874.168 498.984 874.971 498.182C875.773 497.379 876.224 496.291 876.224 495.156C876.224 494.694 876.149 494.235 876.004 493.797L875.854 492.797L874.855 486.519L874.715 485.679L873.965 480.95L873.845 480.24L873.205 476.241L863.338 414.668L863.468 412.309L864.467 393.864L865.467 375.419L867.537 337.429V336.669L881.193 337.269L885.592 337.469L894.159 337.849L898.438 338.039L902.727 338.229H903.437L907.776 338.419L912.114 338.609L914.924 338.848ZM908.755 627.431L909.645 532.456L919.372 533.936C919.584 533.967 919.798 533.984 920.012 533.986V533.986C920.458 533.975 920.899 533.898 921.322 533.756L921.642 533.636C922.003 533.478 922.34 533.27 922.642 533.016L922.732 532.956C923.007 532.724 923.249 532.455 923.451 532.156L944.856 501.395L924.751 632.119L908.755 627.431ZM927.06 512.052L930.999 486.529L931.429 483.759L944.776 486.579L944.156 487.468L927.06 512.052ZM854.44 621.932L860.628 524.958L890.9 529.567L870.386 620.223L854.44 621.932ZM808.372 647.235L809.272 552.261L819 553.74C819.213 553.755 819.426 553.755 819.639 553.74V553.74C820.088 553.723 820.533 553.642 820.959 553.501L821.279 553.381C821.638 553.219 821.974 553.011 822.279 552.761L822.369 552.701C822.642 552.466 822.884 552.197 823.088 551.901L844.483 521.139L824.378 651.924L808.372 647.235ZM750.018 566.357L734.023 561.678L734.692 489.648L741.391 491.067C741.683 491.127 741.981 491.157 742.28 491.157C743.202 491.158 744.1 490.861 744.839 490.31C745.577 489.758 746.118 488.982 746.379 488.098L752.468 467.554L748.559 539.084C748.559 539.084 748.559 539.164 748.559 539.214C748.551 539.633 748.605 540.051 748.719 540.454C748.749 540.572 748.786 540.689 748.829 540.804C748.829 540.884 748.829 540.974 748.909 541.064C749.059 541.396 749.25 541.709 749.478 541.994L749.558 542.074C749.847 542.397 750.185 542.673 750.558 542.893C750.659 542.963 750.766 543.023 750.878 543.073C751.156 543.222 751.452 543.336 751.758 543.413L750.478 563.538L750.018 566.357ZM679.677 556.18L685.866 459.206L716.127 463.815L695.623 554.47L679.677 556.18ZM651.405 393.454L682.676 298.479L680.127 345.087L664.941 396.283L651.405 393.454ZM688.615 346.596L689.615 328.151L690.614 309.716L692.684 271.727V270.967L706.34 271.567L710.739 271.767L719.307 272.147L723.585 272.336L727.874 272.526H728.584L732.923 272.716L737.262 272.906L740.101 273.036L744.49 273.226L748.869 273.416L770.123 274.366L760.405 337.349L758.406 350.345L757.836 354.024L755.837 360.133L740.801 405.89L739.461 409.979L739.131 410.979L738.131 414.078L737.771 415.168L736.392 419.357L735.322 422.616L731.803 433.323L730.923 435.982L726.515 449.349L724.205 456.347L722.266 456.047L718.027 455.407L686.415 450.598L685.696 450.488L682.956 450.068L683.146 446.559L683.616 438.032L685.106 410.889L685.336 406.55L688.615 346.596ZM713.718 226.629L713.948 222.71L716.807 174.873L741.141 178.312L732.543 214.862L731.543 219.071L730.543 223.38L729.144 229.378L728.594 229.278L724.375 228.538L715.228 226.939L713.718 226.629ZM731.853 238.476C732.036 238.485 732.22 238.485 732.403 238.476H732.483C733.103 238.474 733.715 238.338 734.278 238.077C734.84 237.817 735.34 237.438 735.742 236.966L736.742 235.846L730.553 264.029L728.954 263.959L731.853 238.476ZM791.197 260.42L815.521 263.859L806.923 300.409L805.923 304.618L804.923 308.937L803.524 314.935L802.974 314.835L798.745 314.095L789.588 312.486L788.078 312.226L788.308 308.307L791.197 260.42ZM797.785 322.583L794.726 349.206L792.107 349.086L787.568 320.783L797.785 322.583ZM803.294 349.576L806.233 324.032C806.415 324.064 806.599 324.081 806.783 324.082H806.863C807.483 324.081 808.095 323.946 808.658 323.685C809.221 323.425 809.72 323.045 810.122 322.573L811.072 321.453L804.883 349.636L803.294 349.576ZM783.379 348.696L767.513 347.996L775.221 297.92L783.379 348.696ZM726.255 477.501L730.064 465.934L730.663 464.135L731.423 461.815L732.783 457.686L735.062 450.768L745.2 419.987L746.559 415.858V415.798L747.889 411.799L747.949 411.639L749.238 407.71L749.938 405.59L757.016 384.106L756.706 389.785L755.647 409.07L755.477 412.169L755.407 413.388L755.247 416.448L755.177 417.717L755.007 420.716L754.467 430.714L747.989 452.538L745.989 459.346L744.65 463.875L743.42 468.014L739.301 481.87L734.782 480.87L730.514 479.97L726.245 479.061L725.755 478.961L726.255 477.501ZM754.027 641.737L758.966 564.468L760.225 544.773L761.965 545.033L790.487 549.372L769.983 640.027L754.027 641.737ZM796.626 541.654L792.387 541.004L763.275 536.575L760.775 536.195L760.056 536.085L759.056 535.935L757.326 535.665L757.516 532.166L757.986 523.629L758.726 509.952L759.476 496.396L759.706 492.057L762.165 447.149L762.605 439.021L762.985 432.153L763.055 430.894L763.575 421.296L763.675 419.477L763.805 417.027L763.914 415.158L763.994 413.708V412.709L764.094 410.789L764.384 405.61L764.944 395.223L765.314 388.605L766.314 370.11L767.014 357.274V356.514L780.66 357.114L784.659 357.294H785.079L789.078 357.463L793.437 357.663H793.696L797.975 357.853L802.254 358.043H802.974L807.313 358.233L811.652 358.423L814.491 358.553L818.87 358.743L823.258 358.943L844.513 359.883L839.844 390.145L835.845 415.868L834.765 422.866L832.766 435.862L831.886 441.541L830.776 448.989L829.137 459.876L828.487 464.115L827.827 468.344L823.968 493.337L823.368 497.256L823.318 497.576L822.719 501.505L822.669 501.804L822.059 505.743L816.06 544.623L809.352 543.623L805.083 542.973L800.865 542.334H800.785L796.626 541.654ZM857.439 364.272L856.859 374.839L855.86 368.91L857.439 364.272ZM854.66 415.158L855.86 422.656L857.419 432.423L857.849 435.092L861.048 455.027L863.987 473.402L864.747 478.131L865.507 482.86L866.597 489.698L862.938 488.918L859.239 488.138L858.709 488.028L855 487.248L854.48 487.138L850.761 486.349L846.062 485.349L843.513 471.223L842.773 466.874L841.084 457.526L839.484 448.879L848.222 392.264L849.581 383.456L850.081 386.606L854.29 412.888L854.66 415.158ZM830.666 506.333L831.086 503.564L844.443 506.383L843.823 507.273L826.687 531.856L830.666 506.333ZM835.475 474.872L838.154 489.708C838.305 490.544 838.7 491.317 839.292 491.928C839.883 492.539 840.642 492.96 841.474 493.137L850.291 495.006L850.081 498.855L832.356 495.106L835.475 474.872ZM903.677 329.791L906.616 304.258C906.802 304.268 906.989 304.268 907.176 304.258H907.246C907.866 304.258 908.479 304.123 909.042 303.862C909.605 303.602 910.104 303.222 910.505 302.748L911.505 301.629L905.316 329.811L903.677 329.791ZM906.346 284.803L905.346 289.122L903.937 295.07L903.387 294.97L899.168 294.231L890 292.621L888.491 292.361L888.731 288.442L891.61 240.595L915.943 244.034L907.346 280.584L906.346 284.803Z" fill="#18A7B5"/>
<path d="M594.439 854.039C580.443 861.847 572.445 876.263 568.446 886.181L560.448 869.095C559.938 868.115 559.069 867.369 558.022 867.016C556.975 866.662 555.831 866.727 554.831 867.197C553.831 867.668 553.051 868.507 552.656 869.539C552.261 870.571 552.28 871.716 552.71 872.734L565.277 899.497C565.621 900.234 566.167 900.857 566.852 901.294C567.538 901.732 568.333 901.965 569.146 901.966C569.296 901.976 569.446 901.976 569.596 901.966C570.481 901.874 571.316 901.508 571.983 900.918C572.649 900.328 573.115 899.545 573.315 898.677C573.375 898.417 579.663 872.105 598.638 861.547C599.611 860.986 600.324 860.065 600.624 858.982C600.924 857.9 600.786 856.743 600.24 855.761C599.694 854.779 598.784 854.052 597.706 853.735C596.628 853.419 595.469 853.539 594.479 854.069L594.439 854.039Z" fill="#18A7B5"/>
<path d="M614.064 775.621C613.513 774.629 612.59 773.897 611.499 773.586C610.408 773.275 609.237 773.41 608.246 773.961C594.25 781.759 586.252 796.185 582.253 806.102L574.255 789.017C573.745 788.036 572.875 787.291 571.828 786.937C570.781 786.583 569.638 786.648 568.638 787.119C567.637 787.589 566.858 788.428 566.463 789.46C566.067 790.493 566.087 791.638 566.517 792.656L579.084 819.419C579.428 820.154 579.975 820.776 580.66 821.212C581.345 821.647 582.141 821.879 582.953 821.878H583.402C584.286 821.784 585.118 821.418 585.784 820.83C586.45 820.243 586.917 819.463 587.121 818.599C587.181 818.329 593.54 791.966 612.445 781.459C612.936 781.183 613.368 780.813 613.715 780.37C614.063 779.927 614.319 779.42 614.47 778.877C614.62 778.334 614.662 777.767 614.592 777.208C614.523 776.649 614.343 776.11 614.064 775.621V775.621Z" fill="#18A7B5"/>
<path d="M592.841 739.34C593.187 740.074 593.734 740.695 594.419 741.13C595.104 741.566 595.898 741.798 596.71 741.8H597.16C598.044 741.71 598.879 741.345 599.546 740.757C600.212 740.169 600.679 739.387 600.879 738.521C600.939 738.261 607.297 711.898 626.202 701.391C627.149 700.818 627.838 699.9 628.123 698.83C628.408 697.76 628.267 696.621 627.73 695.653C627.193 694.684 626.301 693.962 625.242 693.638C624.184 693.313 623.04 693.412 622.053 693.913C608.057 701.71 600.059 716.137 596.06 726.044L588.062 708.969C587.823 708.46 587.486 708.003 587.071 707.625C586.656 707.246 586.17 706.953 585.641 706.762C585.112 706.571 584.551 706.487 583.99 706.513C583.428 706.539 582.877 706.675 582.369 706.914C581.86 707.153 581.403 707.49 581.025 707.905C580.646 708.321 580.353 708.807 580.162 709.335C579.972 709.864 579.887 710.425 579.913 710.987C579.939 711.548 580.075 712.099 580.314 712.608L592.841 739.34Z" fill="#18A7B5"/>
<path d="M606.656 659.262C607.002 659.996 607.55 660.617 608.235 661.052C608.919 661.487 609.714 661.719 610.525 661.721H610.985C611.867 661.628 612.699 661.262 613.363 660.674C614.028 660.087 614.493 659.306 614.694 658.442C614.754 658.172 621.042 631.859 640.017 621.312C641.009 620.757 641.739 619.83 642.048 618.736C642.356 617.642 642.217 616.47 641.662 615.479C641.106 614.487 640.18 613.757 639.086 613.448C637.992 613.14 636.82 613.279 635.828 613.834C621.832 621.622 613.834 636.048 609.835 645.966L601.838 628.83C601.599 628.321 601.262 627.865 600.846 627.486C600.431 627.108 599.945 626.815 599.416 626.624C598.349 626.239 597.171 626.293 596.144 626.776C595.117 627.258 594.323 628.129 593.938 629.197C593.552 630.265 593.607 631.442 594.09 632.469L606.656 659.262Z" fill="#18A7B5"/>
<path d="M408.77 595.769L572.196 617.763H572.766C573.849 617.76 574.89 617.346 575.68 616.605C576.47 615.864 576.949 614.851 577.021 613.77C577.094 612.689 576.753 611.622 576.069 610.782C575.385 609.942 574.408 609.393 573.335 609.245L409.89 587.291C409.325 587.198 408.747 587.22 408.19 587.354C407.634 587.489 407.11 587.733 406.65 588.074C406.189 588.414 405.802 588.844 405.511 589.337C405.22 589.83 405.03 590.376 404.954 590.943C404.878 591.511 404.916 592.088 405.067 592.64C405.218 593.192 405.478 593.709 405.832 594.159C406.186 594.609 406.626 594.983 407.128 595.26C407.629 595.536 408.181 595.71 408.75 595.769H408.77Z" fill="#18A7B5"/>
<path d="M406.561 608.476L569.986 630.47H570.566C571.661 630.488 572.721 630.084 573.526 629.343C574.332 628.602 574.822 627.579 574.895 626.487C574.968 625.394 574.619 624.316 573.919 623.474C573.22 622.632 572.223 622.09 571.136 621.962L407.7 599.968C407.135 599.875 406.557 599.896 406.001 600.031C405.444 600.165 404.921 600.41 404.46 600.75C404 601.091 403.613 601.52 403.322 602.013C403.03 602.506 402.841 603.053 402.765 603.62C402.688 604.187 402.727 604.764 402.878 605.317C403.028 605.869 403.288 606.385 403.642 606.835C403.996 607.285 404.437 607.66 404.938 607.936C405.439 608.213 405.991 608.386 406.561 608.446V608.476Z" fill="#18A7B5"/>
<path d="M404.361 621.182L567.787 643.176C567.98 643.191 568.174 643.191 568.367 643.176C569.449 643.17 570.489 642.755 571.277 642.013C572.065 641.271 572.542 640.258 572.613 639.178C572.684 638.098 572.343 637.032 571.659 636.193C570.975 635.354 569.999 634.806 568.927 634.659L405.501 612.665C404.936 612.572 404.358 612.593 403.802 612.727C403.245 612.862 402.721 613.106 402.261 613.447C401.801 613.788 401.414 614.217 401.122 614.71C400.831 615.203 400.642 615.749 400.565 616.317C400.489 616.884 400.528 617.461 400.678 618.013C400.829 618.566 401.089 619.082 401.443 619.532C401.797 619.982 402.238 620.356 402.739 620.633C403.24 620.91 403.792 621.083 404.361 621.142V621.182Z" fill="#18A7B5"/>
<path d="M403.121 633.929L566.547 655.923C566.74 655.937 566.934 655.937 567.127 655.923C568.221 655.941 569.281 655.537 570.087 654.796C570.892 654.055 571.382 653.032 571.456 651.94C571.529 650.847 571.179 649.769 570.48 648.927C569.78 648.085 568.784 647.544 567.697 647.415L404.261 625.421C403.696 625.328 403.118 625.35 402.561 625.484C402.005 625.618 401.481 625.863 401.021 626.204C400.561 626.544 400.173 626.974 399.882 627.466C399.591 627.959 399.402 628.506 399.325 629.073C399.249 629.641 399.287 630.217 399.438 630.77C399.589 631.322 399.849 631.839 400.203 632.288C400.557 632.738 400.997 633.113 401.499 633.39C402 633.666 402.552 633.839 403.121 633.899V633.929Z" fill="#18A7B5"/>
<path d="M396.793 675.817L560.219 697.812H560.799C561.892 697.826 562.95 697.421 563.753 696.679C564.557 695.937 565.045 694.915 565.117 693.823C565.188 692.732 564.839 691.655 564.139 690.814C563.44 689.973 562.445 689.432 561.359 689.304L397.893 667.3C396.763 667.154 395.622 667.463 394.72 668.158C393.819 668.854 393.23 669.879 393.084 671.009C392.938 672.138 393.247 673.279 393.943 674.181C394.638 675.083 395.664 675.672 396.793 675.817V675.817Z" fill="#18A7B5"/>
<path d="M394.594 688.484L558.02 710.478C558.209 710.493 558.4 710.493 558.589 710.478C559.672 710.475 560.714 710.061 561.504 709.32C562.293 708.579 562.773 707.566 562.845 706.485C562.917 705.404 562.577 704.337 561.893 703.497C561.209 702.657 560.232 702.108 559.159 701.96L395.733 679.966C395.168 679.873 394.591 679.895 394.034 680.029C393.478 680.164 392.954 680.408 392.494 680.749C392.033 681.089 391.646 681.519 391.355 682.012C391.064 682.505 390.874 683.051 390.798 683.618C390.722 684.186 390.76 684.763 390.911 685.315C391.061 685.867 391.322 686.384 391.675 686.834C392.029 687.284 392.47 687.658 392.971 687.935C393.473 688.211 394.024 688.385 394.594 688.444V688.484Z" fill="#18A7B5"/>
<path d="M392.394 701.191L555.82 723.185C556.01 723.2 556.201 723.2 556.39 723.185C557.473 723.181 558.515 722.767 559.304 722.026C560.094 721.285 560.574 720.272 560.646 719.192C560.718 718.111 560.378 717.043 559.694 716.203C559.01 715.364 558.033 714.815 556.96 714.667L393.534 692.673C392.969 692.58 392.391 692.601 391.835 692.736C391.278 692.87 390.755 693.115 390.294 693.455C389.834 693.796 389.447 694.225 389.156 694.718C388.864 695.211 388.675 695.757 388.599 696.325C388.522 696.892 388.561 697.469 388.712 698.022C388.862 698.574 389.122 699.09 389.476 699.54C389.83 699.99 390.271 700.365 390.772 700.641C391.273 700.918 391.825 701.091 392.394 701.151V701.191Z" fill="#18A7B5"/>
<path d="M391.154 713.947L554.58 735.941C554.773 735.956 554.967 735.956 555.16 735.941C556.242 735.935 557.282 735.52 558.07 734.778C558.858 734.036 559.335 733.023 559.406 731.943C559.477 730.863 559.136 729.797 558.452 728.958C557.768 728.119 556.792 727.571 555.72 727.424L392.294 705.429C391.729 705.337 391.151 705.358 390.595 705.492C390.038 705.627 389.514 705.871 389.054 706.212C388.594 706.552 388.207 706.982 387.915 707.475C387.624 707.968 387.435 708.514 387.358 709.081C387.282 709.649 387.321 710.226 387.471 710.778C387.622 711.33 387.882 711.847 388.236 712.297C388.59 712.747 389.031 713.121 389.532 713.398C390.033 713.674 390.585 713.848 391.154 713.907V713.947Z" fill="#18A7B5"/>
<path d="M549.392 769.352L385.966 747.358C385.401 747.265 384.823 747.287 384.267 747.421C383.71 747.555 383.186 747.8 382.726 748.141C382.266 748.481 381.879 748.911 381.587 749.404C381.296 749.896 381.107 750.443 381.03 751.01C380.954 751.578 380.992 752.155 381.143 752.707C381.294 753.259 381.554 753.776 381.908 754.226C382.262 754.676 382.703 755.05 383.204 755.327C383.705 755.603 384.257 755.776 384.826 755.836L548.252 777.79C548.442 777.805 548.632 777.805 548.822 777.79C549.916 777.808 550.976 777.404 551.782 776.663C552.587 775.922 553.077 774.899 553.151 773.807C553.224 772.715 552.874 771.636 552.175 770.794C551.475 769.952 550.479 769.411 549.392 769.282V769.352Z" fill="#18A7B5"/>
<path d="M547.192 782.059L383.767 760.065C383.202 759.972 382.624 759.993 382.067 760.128C381.511 760.262 380.987 760.507 380.527 760.847C380.066 761.188 379.679 761.617 379.388 762.11C379.097 762.603 378.907 763.149 378.831 763.717C378.755 764.284 378.793 764.861 378.944 765.413C379.095 765.966 379.355 766.482 379.709 766.932C380.063 767.382 380.503 767.757 381.005 768.033C381.506 768.31 382.057 768.483 382.627 768.542L546.053 790.537C546.243 790.546 546.433 790.546 546.623 790.537C547.706 790.533 548.747 790.119 549.537 789.378C550.327 788.637 550.806 787.624 550.878 786.543C550.951 785.463 550.61 784.395 549.926 783.555C549.242 782.716 548.265 782.166 547.192 782.019V782.059Z" fill="#18A7B5"/>
<path d="M544.993 794.785L381.567 772.791C381.002 772.698 380.425 772.72 379.868 772.854C379.312 772.988 378.788 773.233 378.327 773.574C377.867 773.914 377.48 774.344 377.189 774.837C376.898 775.33 376.708 775.876 376.632 776.443C376.556 777.011 376.594 777.588 376.745 778.14C376.895 778.692 377.156 779.209 377.509 779.659C377.863 780.109 378.304 780.483 378.805 780.76C379.307 781.036 379.858 781.209 380.428 781.269L543.844 803.263C544.037 803.278 544.23 803.278 544.423 803.263C545.506 803.26 546.548 802.846 547.338 802.105C548.127 801.363 548.607 800.35 548.679 799.27C548.751 798.189 548.411 797.121 547.727 796.282C547.043 795.442 546.066 794.893 544.993 794.745V794.785Z" fill="#18A7B5"/>
<path d="M543.753 807.502L380.327 785.508C379.762 785.415 379.184 785.436 378.628 785.571C378.071 785.705 377.547 785.95 377.087 786.29C376.627 786.631 376.24 787.06 375.949 787.553C375.657 788.046 375.468 788.592 375.392 789.16C375.315 789.727 375.354 790.304 375.504 790.857C375.655 791.409 375.915 791.925 376.269 792.375C376.623 792.825 377.064 793.2 377.565 793.476C378.066 793.753 378.618 793.926 379.187 793.986L542.613 815.98C542.803 815.995 542.994 815.995 543.183 815.98C544.266 815.976 545.308 815.562 546.097 814.821C546.887 814.08 547.367 813.067 547.439 811.986C547.511 810.906 547.171 809.838 546.487 808.998C545.803 808.159 544.826 807.61 543.753 807.462V807.502Z" fill="#18A7B5"/>
<path d="M537.415 849.351L373.989 827.357C373.401 827.202 372.787 827.175 372.188 827.277C371.588 827.379 371.018 827.607 370.513 827.947C370.009 828.286 369.583 828.73 369.264 829.247C368.944 829.764 368.738 830.343 368.66 830.946C368.582 831.549 368.634 832.162 368.811 832.743C368.988 833.325 369.287 833.862 369.688 834.319C370.09 834.775 370.583 835.141 371.137 835.393C371.691 835.644 372.292 835.774 372.9 835.774L536.325 857.768C536.518 857.783 536.712 857.783 536.905 857.768C537.987 857.762 539.027 857.347 539.815 856.605C540.603 855.863 541.081 854.85 541.152 853.77C541.223 852.69 540.882 851.624 540.198 850.785C539.514 849.946 538.537 849.398 537.465 849.251L537.415 849.351Z" fill="#18A7B5"/>
<path d="M535.226 862.067L371.79 840.073C371.225 839.98 370.647 840.002 370.091 840.136C369.534 840.27 369.01 840.515 368.55 840.856C368.09 841.196 367.703 841.626 367.411 842.118C367.12 842.611 366.931 843.158 366.855 843.725C366.778 844.293 366.817 844.869 366.967 845.422C367.118 845.974 367.378 846.491 367.732 846.941C368.086 847.391 368.527 847.765 369.028 848.042C369.529 848.318 370.081 848.491 370.65 848.551L534.076 870.545C534.269 870.559 534.463 870.559 534.656 870.545C535.739 870.541 536.781 870.127 537.57 869.386C538.36 868.645 538.839 867.632 538.912 866.552C538.984 865.471 538.644 864.403 537.96 863.564C537.276 862.724 536.299 862.175 535.226 862.027V862.067Z" fill="#18A7B5"/>
<path d="M533.017 874.764L369.591 852.77C369.026 852.677 368.448 852.698 367.892 852.833C367.335 852.967 366.811 853.212 366.351 853.552C365.891 853.893 365.503 854.322 365.212 854.815C364.921 855.308 364.732 855.854 364.655 856.422C364.579 856.989 364.617 857.566 364.768 858.118C364.919 858.671 365.179 859.187 365.533 859.637C365.887 860.087 366.328 860.462 366.829 860.738C367.33 861.015 367.882 861.188 368.451 861.247L531.877 883.242C532.07 883.256 532.264 883.256 532.457 883.242C533.539 883.236 534.579 882.82 535.367 882.078C536.155 881.336 536.632 880.323 536.703 879.243C536.774 878.164 536.433 877.097 535.749 876.258C535.065 875.42 534.089 874.871 533.017 874.724V874.764Z" fill="#18A7B5"/>
<path d="M531.786 887.52L368.351 865.526C367.786 865.433 367.208 865.455 366.651 865.589C366.095 865.724 365.571 865.968 365.111 866.309C364.65 866.649 364.263 867.079 363.972 867.572C363.681 868.065 363.491 868.611 363.415 869.178C363.339 869.746 363.377 870.323 363.528 870.875C363.679 871.427 363.939 871.944 364.293 872.394C364.647 872.844 365.087 873.218 365.589 873.495C366.09 873.771 366.641 873.944 367.211 874.004L530.637 895.998C530.83 896.013 531.024 896.013 531.217 895.998C532.3 895.995 533.341 895.581 534.131 894.84C534.921 894.098 535.4 893.085 535.472 892.005C535.545 890.924 535.204 889.856 534.52 889.017C533.836 888.177 532.859 887.628 531.786 887.48V887.52Z" fill="#18A7B5"/>
<path d="M849.681 857.768C849.513 856.939 849.102 856.179 848.501 855.584C847.899 854.989 847.133 854.587 846.302 854.429L685.996 823.118C685.277 822.97 684.532 823.015 683.836 823.248L633.14 839.993L632.14 840.333L670.36 605.836V605.666C670.395 605.351 670.395 605.032 670.36 604.717L670.3 604.387C670.249 604.117 670.172 603.852 670.07 603.597C670.036 603.498 669.996 603.401 669.95 603.307C669.794 602.976 669.595 602.667 669.36 602.387L636.689 564.398C636.014 563.612 635.075 563.1 634.05 562.958L392.325 528.767C391.21 528.609 390.077 528.898 389.173 529.57C388.269 530.242 387.667 531.243 387.496 532.356L328.912 911.894C328.826 912.459 328.854 913.036 328.994 913.591C329.135 914.145 329.385 914.666 329.729 915.122C330.074 915.579 330.507 915.962 331.001 916.249C331.496 916.535 332.044 916.72 332.611 916.792L609.836 951.493H610.376C611.39 951.49 612.37 951.128 613.142 950.471C613.915 949.814 614.429 948.904 614.595 947.904L626.971 871.765L667.61 906.325C668.188 906.801 668.875 907.124 669.61 907.265L829.927 938.537C830.193 938.593 830.464 938.62 830.736 938.617C831.456 938.613 832.163 938.428 832.792 938.078C833.421 937.729 833.952 937.226 834.335 936.617L849.331 913.333C849.625 912.876 849.829 912.367 849.931 911.834L855.03 885.731C855.135 885.179 855.135 884.613 855.03 884.061L849.681 857.768ZM672.299 899.107L634.389 866.876L638.198 847.331L685.456 831.775L841.863 862.297L846.472 885.041L841.693 909.504L828.697 929.669L672.299 899.107ZM338.039 908.845L395.304 537.855L627.641 570.706L624.832 603.327C624.782 603.904 624.849 604.486 625.03 605.037C625.211 605.587 625.502 606.095 625.885 606.53C626.268 606.965 626.736 607.317 627.26 607.566C627.783 607.814 628.352 607.954 628.931 607.976L661.172 609.206L622.943 843.362L608.946 847.971C608.225 848.211 607.58 848.639 607.078 849.21C606.576 849.78 606.234 850.474 606.087 851.22C606.019 851.593 605.996 851.972 606.017 852.35C606.062 852.914 606.217 853.464 606.474 853.969C606.732 854.473 607.086 854.922 607.517 855.289L619.324 865.286L606.727 942.456L338.039 908.845ZM656.284 600.458L633.71 599.598L635.649 577.254L656.284 600.458ZM621.393 852.89L625.972 851.38L628.881 850.38L626.881 860.488L624.742 858.668L620.933 855.439L618.874 853.679L621.393 852.89Z" fill="#18A7B5"/>
<path d="M685.735 836.344C685.174 836.392 684.629 836.55 684.13 836.809C683.631 837.069 683.187 837.424 682.826 837.855C682.465 838.286 682.192 838.784 682.024 839.321C681.856 839.858 681.795 840.423 681.846 840.983L683.146 855.759L683.426 858.888L680.736 872.634L679.347 875.244L672.818 887.49C672.284 888.49 672.167 889.661 672.495 890.747C672.824 891.832 673.569 892.743 674.568 893.279C675.185 893.604 675.87 893.775 676.567 893.779C677.341 893.781 678.1 893.573 678.764 893.177C679.428 892.781 679.972 892.211 680.336 891.529L688.594 876.103C688.796 875.727 688.941 875.323 689.024 874.904L691.943 859.908C692.022 859.516 692.045 859.116 692.013 858.718L690.384 840.203C690.27 839.079 689.719 838.044 688.849 837.322C687.979 836.601 686.861 836.249 685.735 836.344V836.344Z" fill="#18A7B5"/>
<path d="M836.854 878.763L705.579 853.15C705.027 853.042 704.459 853.044 703.908 853.156C703.357 853.268 702.833 853.487 702.367 853.801C701.9 854.115 701.5 854.519 701.189 854.987C700.879 855.456 700.663 855.982 700.556 856.534C700.448 857.086 700.45 857.654 700.562 858.205C700.674 858.756 700.893 859.28 701.207 859.746C701.522 860.213 701.925 860.613 702.394 860.924C702.862 861.234 703.388 861.45 703.94 861.557L835.214 887.17C835.485 887.222 835.759 887.249 836.034 887.25C837.097 887.25 838.122 886.853 838.908 886.138C839.695 885.423 840.187 884.441 840.29 883.383C840.392 882.325 840.097 881.267 839.462 880.415C838.827 879.563 837.897 878.977 836.854 878.773V878.763Z" fill="#18A7B5"/>
<path d="M832.086 903.186L700.812 877.573C699.707 877.378 698.571 877.624 697.646 878.259C696.722 878.894 696.083 879.866 695.868 880.967C695.653 882.067 695.879 883.208 696.497 884.144C697.115 885.08 698.076 885.736 699.172 885.971L830.447 911.584C830.717 911.635 830.991 911.661 831.266 911.664C832.329 911.663 833.354 911.266 834.141 910.552C834.927 909.837 835.42 908.855 835.522 907.797C835.624 906.739 835.329 905.681 834.694 904.828C834.059 903.976 833.129 903.391 832.086 903.186V903.186Z" fill="#18A7B5"/>
<path d="M501.344 197.197V467.384C501.344 468.519 501.795 469.607 502.597 470.409C503.399 471.212 504.488 471.663 505.623 471.663C506.757 471.663 507.846 471.212 508.648 470.409C509.451 469.607 509.901 468.519 509.901 467.384V197.197C509.901 196.062 509.451 194.974 508.648 194.171C507.846 193.369 506.757 192.918 505.623 192.918C504.488 192.918 503.399 193.369 502.597 194.171C501.795 194.974 501.344 196.062 501.344 197.197V197.197Z" fill="#18A7B5"/>
<path d="M764.263 939.206C763.82 938.861 763.313 938.607 762.772 938.457C762.231 938.308 761.665 938.267 761.108 938.337C760.551 938.406 760.013 938.585 759.525 938.863C759.037 939.141 758.609 939.513 758.264 939.956L718.275 991.442H281.733L8.88667 640.377L36.5492 513.461C36.6886 512.905 36.7148 512.327 36.6264 511.761C36.538 511.195 36.3367 510.652 36.0345 510.165C35.7322 509.678 35.3353 509.256 34.8671 508.926C34.3989 508.595 33.869 508.362 33.309 508.24C32.7489 508.118 32.1701 508.11 31.6068 508.216C31.0436 508.322 30.5074 508.54 30.03 508.858C29.5527 509.175 29.144 509.585 28.8282 510.063C28.5123 510.541 28.2958 511.078 28.1915 511.642L0.0990448 640.507C-0.0350757 641.12 -0.0329582 641.754 0.105248 642.366C0.243453 642.977 0.51437 643.551 0.898829 644.046L276.264 998.35C276.665 998.864 277.178 999.279 277.764 999.565C278.349 999.851 278.992 1000 279.644 1000H720.335C720.986 999.999 721.629 999.85 722.214 999.564C722.799 999.279 723.312 998.863 723.714 998.35L765.013 945.215C765.358 944.771 765.613 944.264 765.762 943.722C765.912 943.179 765.953 942.613 765.883 942.055C765.814 941.497 765.635 940.958 765.356 940.47C765.078 939.981 764.707 939.552 764.263 939.206Z" fill="#18A7B5"/>
<path d="M999.899 640.507L973.236 518.17C973.132 517.606 972.915 517.07 972.599 516.591C972.284 516.113 971.875 515.703 971.398 515.386C970.92 515.068 970.384 514.85 969.821 514.744C969.258 514.638 968.679 514.646 968.119 514.768C967.559 514.89 967.029 515.123 966.561 515.454C966.092 515.785 965.695 516.206 965.393 516.693C965.091 517.18 964.89 517.723 964.801 518.289C964.713 518.855 964.739 519.434 964.878 519.99L991.111 640.377L846.77 826.077C846.093 826.975 845.796 828.103 845.943 829.218C846.091 830.333 846.672 831.345 847.561 832.035C848.449 832.725 849.573 833.037 850.69 832.904C851.807 832.772 852.827 832.204 853.529 831.325L999.099 644.046C999.484 643.551 999.755 642.977 999.893 642.366C1000.03 641.754 1000.03 641.119 999.899 640.507Z" fill="#18A7B5"/>
<path d="M100.563 204.025C101.215 204.025 101.858 203.874 102.442 203.585L499.955 8.9976L897.557 203.585C898.577 204.084 899.753 204.157 900.826 203.788C901.899 203.42 902.782 202.64 903.281 201.621C903.779 200.601 903.852 199.425 903.484 198.352C903.116 197.279 902.336 196.396 901.316 195.897L501.864 0.439907C501.28 0.148592 500.637 -0.00305176 499.985 -0.00305176C499.332 -0.00305176 498.689 0.148592 498.105 0.439907L98.6831 195.947C97.8114 196.37 97.1093 197.077 96.6915 197.951C96.2737 198.826 96.1651 199.816 96.3834 200.76C96.6018 201.704 97.1341 202.546 97.8933 203.148C98.6525 203.751 99.5936 204.077 100.563 204.075V204.025Z" fill="#18A7B5"/>
</g>
<defs>
<clipPath id="clip0">
<rect width="1000" height="1000" fill="white"/>
</clipPath>
</defs>
</svg>
