<svg width="1000" height="1000" viewBox="0 0 1000 1000" fill="none" xmlns="http://www.w3.org/2000/svg">
<g clip-path="url(#clip0)">
<path d="M411.439 782.449C410.598 782.023 409.637 781.897 408.715 782.09C407.792 782.283 406.963 782.785 406.364 783.512C405.765 784.24 405.431 785.149 405.417 786.092C405.404 787.034 405.712 787.953 406.29 788.697C406.879 789.474 407.721 790.022 408.67 790.247H408.99C409.446 790.322 409.912 790.322 410.369 790.247C411.166 790.095 411.901 789.714 412.485 789.151C413.069 788.588 413.477 787.868 413.658 787.077C413.848 786.166 413.734 785.218 413.333 784.378C412.932 783.539 412.267 782.854 411.439 782.429V782.449Z" fill="#18A7B5"/>
<path d="M442.041 771.732C441.86 772.535 441.922 773.375 442.218 774.143C442.514 774.912 443.031 775.576 443.704 776.051C444.376 776.527 445.175 776.792 445.999 776.813C446.822 776.835 447.633 776.612 448.33 776.173C449.027 775.734 449.579 775.098 449.915 774.346C450.251 773.594 450.356 772.759 450.218 771.947C450.08 771.135 449.704 770.382 449.139 769.783C448.573 769.184 447.843 768.766 447.04 768.582C446.504 768.458 445.95 768.442 445.408 768.533C444.867 768.625 444.349 768.822 443.884 769.115C443.419 769.408 443.017 769.79 442.701 770.239C442.384 770.688 442.16 771.195 442.041 771.732V771.732Z" fill="#18A7B5"/>
<path d="M349.446 947.924V813.39L358.503 811.391L374.049 919.072C374.137 919.648 374.34 920.2 374.648 920.695C374.956 921.19 375.361 921.617 375.839 921.951C376.548 922.447 377.393 922.712 378.258 922.711C378.561 922.712 378.863 922.679 379.158 922.611L466.074 903.836C467.023 903.628 467.872 903.103 468.482 902.347C469.091 901.59 469.423 900.648 469.423 899.677V755.926L519.18 746.528C519.67 746.423 520.14 746.237 520.57 745.979C520.7 745.899 520.81 745.789 520.929 745.699C521.202 745.494 521.45 745.26 521.669 744.999C521.719 744.939 521.789 744.909 521.839 744.839L552.571 702.42C553.072 701.728 553.354 700.901 553.377 700.046C553.401 699.191 553.167 698.35 552.705 697.63C552.242 696.911 551.574 696.348 550.787 696.015C550 695.682 549.13 695.593 548.292 695.762L462.575 712.947L424.446 696.042L424.256 695.992C424 695.893 423.736 695.82 423.466 695.772L423.146 695.712C422.761 695.667 422.371 695.667 421.986 695.712L316.915 714.307C316.452 714.396 316.007 714.558 315.595 714.787C315.465 714.867 315.355 714.967 315.235 715.047C314.984 715.222 314.75 715.419 314.535 715.637C314.425 715.767 314.325 715.907 314.225 716.047C314.061 716.275 313.92 716.519 313.805 716.776C313.727 716.944 313.664 717.118 313.616 717.296C313.563 717.409 313.52 717.526 313.486 717.646C313.476 717.816 313.476 717.986 313.486 718.156C313.46 718.268 313.44 718.382 313.426 718.496V726.994L299.989 728.993L292.701 680.186C292.616 679.626 292.42 679.088 292.125 678.604C291.829 678.12 291.44 677.7 290.98 677.368C290.52 677.037 289.999 676.801 289.446 676.673C288.894 676.546 288.321 676.53 287.762 676.627L147.15 701.421C146.546 701.525 145.971 701.757 145.465 702.102C144.958 702.447 144.53 702.896 144.211 703.42C143.899 703.955 143.709 704.552 143.654 705.169C143.598 705.786 143.679 706.407 143.891 706.989L173.533 789.817C173.536 789.843 173.536 789.87 173.533 789.897C173.651 790.189 173.802 790.468 173.983 790.726C174.043 790.816 174.083 790.916 174.143 791.006C174.379 791.3 174.655 791.559 174.963 791.776L175.223 791.946C175.471 792.097 175.732 792.224 176.003 792.326L176.323 792.436C176.691 792.552 177.076 792.613 177.462 792.616V792.616C177.765 792.617 178.067 792.584 178.362 792.516L197.927 788.267L224.69 973.577C224.836 974.588 225.342 975.513 226.115 976.181C226.888 976.85 227.877 977.217 228.898 977.216C229.198 977.218 229.497 977.184 229.788 977.116L346.017 952.003C346.969 951.818 347.828 951.312 348.452 950.57C349.076 949.827 349.427 948.894 349.446 947.924V947.924ZM340.908 815.23V944.495L232.527 967.919L206.334 786.528L205.725 782.309L205.115 778.1L201.356 752.037L292.771 738.611L294.851 738.301L296.98 737.991L301.179 737.371L313.366 735.581L317.624 734.961L321.863 734.332L330.021 733.132L331.951 732.852L338.319 731.922H338.479L340.948 731.562V815.26L340.908 815.23ZM284.923 685.725L291.561 730.203L195.947 744.249C195.625 744.296 195.31 744.38 195.008 744.499L194.758 744.619C194.552 744.716 194.355 744.83 194.168 744.959L193.918 745.149C193.746 745.286 193.586 745.436 193.438 745.599C193.368 745.679 193.298 745.739 193.238 745.819C193.038 746.065 192.867 746.333 192.728 746.618L178.112 777.36L153.589 708.909L284.923 685.725ZM185.13 782.449L194.388 762.974L196.827 779.909L185.13 782.449ZM422.186 704.34L426.185 706.099L448.179 715.847L424.186 720.645L421.896 721.105C421.026 721.297 420.238 721.759 419.647 722.425C419.557 722.525 419.427 722.585 419.347 722.695L414.448 729.123L407.37 738.401L403.681 743.239L399.992 748.078L390.405 760.635L376.409 751.537L371.01 748.038L365.611 744.539L349.466 734.072V726.614C349.466 726.544 349.466 726.484 349.466 726.414V726.134C349.43 725.759 349.339 725.392 349.196 725.044C349.196 725.044 349.196 724.964 349.196 724.934C349.02 724.571 348.795 724.235 348.526 723.935L348.336 723.725C348.246 723.645 348.176 723.545 348.086 723.465C347.88 723.288 347.655 723.134 347.416 723.005V723.005C347.056 722.809 346.668 722.668 346.267 722.585H346.007C345.586 722.525 345.158 722.525 344.737 722.585L333.91 723.974L328.981 720.805L422.116 704.36L422.186 704.34ZM539.324 706.229L516.971 737.071L515.971 738.481L511.582 739.32L504.234 740.7L469.453 747.278L465.205 748.078L460.956 748.878L458.126 749.418L457.057 749.618L454.447 750.107L450.169 750.917L443.28 752.217L419.287 756.756L414.878 757.585L410.479 758.415L401.532 760.105L412.069 746.308L412.149 746.199L415.758 741.47L417.377 739.35L419.447 736.631L422.606 732.492L425.175 729.123L461.596 721.805L468.814 720.355L476.032 718.906L539.324 706.229ZM460.926 896.278L381.817 913.373L366.821 809.611L366.211 805.392L365.601 801.184L358.803 754.126L363.642 753.407L389.075 769.902L389.195 769.962C389.423 770.096 389.664 770.207 389.915 770.292C390.026 770.341 390.139 770.385 390.255 770.422C390.621 770.533 391.002 770.591 391.384 770.592C391.65 770.591 391.914 770.564 392.174 770.512L409.17 767.303L413.578 766.463L417.977 765.633L433.823 762.634L440.701 761.334L447.599 760.035L460.876 757.525L460.926 896.278ZM349.446 804.693V767.463L351.595 763.604L357.284 802.983L349.446 804.693ZM349.446 744.199L352.915 746.448C352.775 746.448 352.625 746.518 352.485 746.568L352.255 746.678C352.055 746.768 351.861 746.871 351.675 746.988L351.425 747.178C351.269 747.297 351.122 747.428 350.985 747.568C350.904 747.644 350.831 747.728 350.765 747.818C350.634 747.967 350.517 748.128 350.416 748.298L350.286 748.468L349.446 749.977V744.199Z" fill="#18A7B5"/>
<path d="M318.534 786.278C318.235 786.21 317.93 786.177 317.624 786.178C316.561 786.179 315.538 786.587 314.767 787.318C313.995 788.05 313.533 789.049 313.475 790.111C313.417 791.173 313.768 792.216 314.456 793.027C315.144 793.838 316.116 794.354 317.173 794.471C318.23 794.587 319.292 794.294 320.139 793.652C320.987 793.009 321.556 792.067 321.73 791.018C321.905 789.969 321.67 788.893 321.076 788.012C320.481 787.13 319.572 786.509 318.534 786.278V786.278Z" fill="#18A7B5"/>
<path d="M271.786 803.513C270.983 803.332 270.143 803.394 269.375 803.69C268.606 803.986 267.942 804.503 267.467 805.176C266.991 805.848 266.726 806.647 266.705 807.471C266.683 808.294 266.906 809.106 267.345 809.803C267.784 810.5 268.42 811.051 269.172 811.387C269.924 811.723 270.759 811.828 271.571 811.69C272.383 811.552 273.136 811.177 273.735 810.611C274.334 810.045 274.751 809.315 274.936 808.512C275.18 807.431 274.986 806.298 274.396 805.36C273.805 804.423 272.867 803.759 271.786 803.513V803.513Z" fill="#18A7B5"/>
<path d="M393.963 287.922C393.954 288.062 393.954 288.202 393.963 288.342L401.411 349.506V349.576C401.437 349.82 401.488 350.061 401.561 350.295C401.593 350.376 401.634 350.453 401.681 350.525C401.703 350.617 401.73 350.707 401.761 350.795L429.164 409.26C429.159 409.276 429.159 409.293 429.164 409.31C429.286 409.552 429.43 409.783 429.594 409.999V409.999L433.423 414.918L433.523 415.058L439.061 422.196L453.057 462.795L455.577 501.075C455.577 501.075 455.577 501.145 455.577 501.175L455.637 501.515C455.651 501.626 455.671 501.736 455.697 501.845V501.845C455.709 501.899 455.726 501.953 455.747 502.004C455.747 502.004 455.747 502.064 455.747 502.094C455.747 502.124 455.747 502.144 455.747 502.184C455.847 502.479 455.982 502.761 456.147 503.024L456.237 503.174L456.327 503.304C456.55 503.598 456.813 503.86 457.106 504.084C457.106 504.084 457.106 504.144 457.186 504.174L457.276 504.234C457.587 504.444 457.923 504.616 458.276 504.744H458.366C458.366 504.744 458.456 504.744 458.506 504.744C458.88 504.854 459.266 504.915 459.656 504.924H613.384C611.825 508.373 610.665 512.622 611.735 516.561C611.795 516.78 611.865 517.01 611.945 517.24L459.406 534.686C458.671 534.767 457.97 535.039 457.372 535.474C456.775 535.91 456.301 536.493 455.998 537.168C455.695 537.842 455.574 538.584 455.645 539.32C455.717 540.056 455.979 540.76 456.407 541.364C460.785 547.552 464.714 556.29 463.345 558.939C463.123 559.248 462.796 559.465 462.425 559.549L459.426 559.899C458.331 560.003 457.319 560.527 456.603 561.362C455.887 562.196 455.523 563.276 455.586 564.374C455.65 565.471 456.136 566.502 456.944 567.248C457.751 567.995 458.816 568.399 459.916 568.377C461.312 568.389 462.705 568.235 464.064 567.917L613.204 550.671C610.945 555.59 609.055 561.668 610.595 566.387C584.162 570.196 510.622 579.174 459.416 585.262C458.676 585.349 457.972 585.629 457.375 586.073C456.777 586.518 456.307 587.111 456.012 587.795C455.716 588.478 455.605 589.228 455.69 589.967C455.775 590.707 456.053 591.412 456.497 592.01C460.425 597.329 462.925 603.597 462.245 605.007C461.523 605.36 460.714 605.499 459.916 605.407C458.789 605.407 457.708 605.854 456.911 606.651C456.114 607.448 455.667 608.529 455.667 609.655C455.667 610.782 456.114 611.863 456.911 612.66C457.708 613.457 458.789 613.904 459.916 613.904H614.654C606.976 626.531 584.942 654.593 540.824 654.593C508.762 654.593 488.308 639.477 476.791 626.801C476.034 625.966 474.976 625.465 473.85 625.41C472.725 625.355 471.623 625.749 470.788 626.506C469.952 627.263 469.452 628.321 469.397 629.446C469.342 630.572 469.736 631.674 470.493 632.509C483.169 646.505 505.653 663.091 540.824 663.091C602.207 663.091 625.421 611.875 625.651 611.365C625.947 610.717 626.074 610.004 626.022 609.294C625.969 608.583 625.739 607.897 625.351 607.299C624.964 606.701 624.432 606.211 623.804 605.873C623.177 605.535 622.474 605.361 621.762 605.367H470.703C471.023 601.278 469.143 596.619 467.114 592.91C480.32 591.33 511.002 587.651 541.374 583.912C564.897 581.013 583.632 578.634 597.069 576.844C604.686 575.845 611.065 574.945 615.464 574.265C623.311 573.065 626.241 572.615 626.001 568.477C626.001 567.787 625.521 564.378 620.862 564.378C619.612 564.378 618.863 564.128 618.693 563.888C617.593 561.888 620.322 554.22 624.431 547.892C624.869 547.215 625.105 546.428 625.112 545.622C625.12 544.816 624.898 544.025 624.472 543.341C624.047 542.656 623.435 542.107 622.709 541.757C621.983 541.407 621.173 541.271 620.372 541.364L472.022 558.439C472.312 553.141 469.593 546.922 467.024 542.374L621.302 524.918C622.245 524.811 623.124 524.391 623.801 523.726C624.477 523.061 624.912 522.188 625.035 521.248C625.158 520.307 624.963 519.352 624.48 518.535C623.997 517.718 623.255 517.087 622.372 516.74C620.282 515.921 620.002 514.911 619.902 514.531C619.123 511.682 621.902 506.353 624.161 503.534C624.655 502.907 624.962 502.154 625.048 501.361C625.134 500.568 624.994 499.767 624.646 499.049C624.297 498.332 623.754 497.726 623.078 497.303C622.402 496.88 621.62 496.656 620.822 496.656H486.648L541.104 478.871L620.972 475.872C621.032 475.872 621.082 475.872 621.132 475.872C621.185 475.876 621.239 475.876 621.292 475.872C621.455 475.835 621.615 475.789 621.772 475.732C622.028 475.681 622.279 475.607 622.522 475.512C622.714 475.417 622.898 475.307 623.072 475.182C623.287 475.057 623.491 474.913 623.681 474.752C623.829 474.598 623.966 474.434 624.091 474.262C624.255 474.074 624.399 473.869 624.521 473.652C624.621 473.456 624.704 473.252 624.771 473.042C624.843 472.893 624.906 472.739 624.961 472.582C624.961 472.482 624.961 472.392 624.961 472.302C624.961 472.212 625.011 472.143 625.021 472.053C625.851 463.475 631.019 444.06 631.929 440.911L643.476 419.057L650.914 410.279C651.117 410.031 651.294 409.763 651.444 409.479L682.056 350.275C682.056 350.225 682.056 350.165 682.126 350.115C682.196 350.065 682.196 349.996 682.226 349.926C682.256 349.856 682.226 349.816 682.276 349.756C682.326 349.696 682.276 349.666 682.276 349.626C682.276 349.586 682.336 349.406 682.366 349.296C682.396 349.186 682.426 348.996 682.446 348.846C682.466 348.696 682.446 348.686 682.446 348.616L687.814 269.457C687.814 269.457 687.814 269.367 687.814 269.317V269.267C687.81 268.696 687.691 268.132 687.464 267.608L667.35 220.83C667.35 220.83 667.35 220.77 667.29 220.74C667.136 220.382 666.934 220.045 666.69 219.741C666.646 219.692 666.599 219.645 666.55 219.601C666.318 219.346 666.057 219.121 665.77 218.931C665.732 218.906 665.698 218.876 665.67 218.841L598.368 177.472C597.8 177.115 597.157 176.893 596.489 176.822L538.614 170.334C538.332 170.304 538.047 170.304 537.765 170.334H537.625L479.21 177.562C478.87 177.597 478.534 177.671 478.211 177.782C478.211 177.782 478.211 177.782 478.211 177.782L478.071 177.842H478.011C477.751 177.953 477.503 178.09 477.271 178.252L416.117 218.911C415.765 219.156 415.452 219.453 415.188 219.791L415.058 219.961C414.807 220.303 414.615 220.685 414.488 221.09C414.486 221.114 414.486 221.137 414.488 221.16L394.233 286.523C394.238 286.563 394.238 286.603 394.233 286.643C394.166 286.881 394.122 287.125 394.103 287.372C394.103 287.442 394.103 287.492 394.103 287.562V287.672C394.049 287.751 394.002 287.835 393.963 287.922ZM468.473 194.218L453.417 223.66L429.884 219.941L468.473 194.218ZM652.953 220.88L622.962 229.258L605.836 191.948L652.953 220.88ZM626.031 433.883L618.093 430.554L630.6 425.225L626.031 433.883ZM614.154 438.112L622.912 441.781C622.082 444.91 620.842 449.699 619.682 454.717L614.154 438.112ZM442.88 413.198L441.201 411.029V408.17L449.698 404.001L442.88 413.198ZM409.239 343.367L404.241 302.468L430.753 336.459L409.239 343.367ZM536.045 198.766L497.056 183.77L534.286 179.162L536.045 198.766ZM674.818 259.43L631.829 235.626L661.101 227.449L674.818 259.43ZM634.039 414.498L613.524 423.226L619.522 400.662L621.922 391.664L627.74 402.661L634.039 414.498ZM549.851 383.836L541.734 414.888L531.016 379.278L523.179 353.235H557.929L549.851 383.836ZM461.705 464.435L474.702 457.247L462.935 483.499L461.705 464.435ZM445.07 343.837L507.053 351.915L486.478 368.521L465.134 385.746L453.007 360.433L445.07 343.837ZM441.421 292.511L520.679 271.097L441.98 330.201L441.421 292.511ZM638.007 325.762L560.208 269.927L645.825 288.922L638.007 325.762ZM514.321 344.297L448.749 335.739L533.616 272.017L514.321 344.297ZM540.854 278.005L558.009 344.737H523.019L540.854 278.005ZM547.962 271.517L630.51 330.801L566.547 344.007L547.962 271.517ZM652.354 299.509L670.269 340.418L645.755 330.421L652.354 299.509ZM652.584 280.124L632.249 245.624L674.558 269.027L652.584 280.124ZM618.763 239.495L642.316 279.485L556.729 260.49L618.763 239.495ZM478.631 445.44L462.335 454.437L466.224 411.639L478.631 445.44ZM483.739 434.693L468.743 393.854L496.976 371.07L508.752 361.562L504.783 372.899L483.739 434.693ZM513.131 374.979L517.21 362.902L521.449 376.998L536.705 427.695L490.497 441.051L513.131 374.979ZM633.699 338.809L618.563 374.129L575.664 350.805L633.699 338.809ZM643.076 338.509L668.459 348.836L629.41 370.4L643.076 338.509ZM675.227 330.631L656.403 287.642L678.816 276.315L675.227 330.631ZM545.133 255.321V211.253L607.836 234.167L545.133 255.321ZM536.635 255.041L469.393 229.048L536.635 210.733V255.041ZM458.526 233.937L527.247 260.51L443.44 283.154L458.526 233.937ZM441.88 357.743V356.834L442.37 357.833L457.996 390.445L441.361 398.622L441.88 357.743ZM486.868 450.878L524.318 440.051L471.462 485.299L486.868 450.878ZM558.129 385.796L564.847 360.523L581.423 391.444L600.108 426.305H547.532L558.129 385.796ZM592.43 394.094L573.875 359.493L615.634 382.197L611.245 398.632L605.836 419.067L592.43 394.094ZM643.036 406.31L640.737 409.03L638.737 405.281L626.341 381.797L668.099 358.743L644.106 405.081L643.036 406.31ZM612.504 226.839L552.281 204.845L593.989 186.55L612.504 226.839ZM579.923 183.411L544.593 198.946L542.853 179.252L579.923 183.411ZM527.237 204.485L463.954 221.72L481.7 187.01L527.237 204.485ZM421.426 227.139L447.069 231.248L407.51 272.057L421.426 227.139ZM446.559 243.934L434.023 284.923L407.89 283.923L446.559 243.934ZM432.933 293.321L433.423 325.972L407.16 292.341L432.933 293.321ZM413.558 350.905L433.553 344.467L433.413 355.694L432.883 397.063L411.549 351.555L413.558 350.905ZM458.046 407.06L454.877 441.881L447.679 420.976L458.046 407.06ZM478.87 490.218L537.415 440.091L536.225 471.533L478.87 490.218ZM544.783 470.223L546.012 437.412L604.637 467.934L544.783 470.223ZM559.389 434.793H604.117L613.474 462.955L559.389 434.793Z" fill="#18A7B5"/>
<path d="M246.743 381.707C246.977 381.705 247.211 381.688 247.443 381.657L365.521 362.102C366.595 361.88 367.541 361.251 368.162 360.347C368.783 359.443 369.03 358.333 368.852 357.251C368.674 356.169 368.084 355.198 367.206 354.54C366.328 353.883 365.23 353.591 364.141 353.724L246.053 373.269C245.005 373.447 244.062 374.012 243.409 374.851C242.757 375.691 242.443 376.745 242.53 377.804C242.616 378.864 243.097 379.853 243.877 380.575C244.657 381.298 245.68 381.702 246.743 381.707V381.707Z" fill="#18A7B5"/>
<path d="M832.355 378.648C833.429 378.658 834.467 378.261 835.26 377.537C836.054 376.813 836.543 375.815 836.631 374.745C836.718 373.674 836.397 372.61 835.732 371.767C835.066 370.924 834.106 370.364 833.045 370.2L714.966 350.665C714.407 350.552 713.831 350.552 713.271 350.666C712.712 350.78 712.181 351.006 711.711 351.33C711.241 351.653 710.841 352.069 710.535 352.55C710.229 353.032 710.023 353.571 709.929 354.134C709.836 354.697 709.857 355.273 709.991 355.828C710.125 356.383 710.37 356.905 710.71 357.363C711.051 357.821 711.48 358.206 711.973 358.495C712.465 358.784 713.011 358.97 713.577 359.043L831.655 378.588C831.886 378.627 832.12 378.647 832.355 378.648V378.648Z" fill="#18A7B5"/>
<path d="M357.144 289.922C358.212 289.914 359.238 289.505 360.018 288.775C360.798 288.046 361.274 287.049 361.352 285.984C361.43 284.919 361.104 283.863 360.439 283.028C359.775 282.192 358.819 281.637 357.764 281.474L235.297 263.409C234.745 263.327 234.182 263.356 233.641 263.492C233.1 263.628 232.591 263.869 232.143 264.202C231.695 264.535 231.317 264.952 231.03 265.431C230.744 265.91 230.555 266.441 230.473 266.993C230.392 267.545 230.42 268.108 230.556 268.649C230.692 269.19 230.933 269.699 231.266 270.147C231.599 270.595 232.017 270.973 232.496 271.259C232.975 271.546 233.505 271.735 234.057 271.817L356.524 289.922C356.73 289.936 356.938 289.936 357.144 289.922V289.922Z" fill="#18A7B5"/>
<path d="M309.597 478.871C310.399 478.871 311.186 478.646 311.866 478.221L400.452 422.406C400.937 422.115 401.359 421.73 401.693 421.273C402.027 420.817 402.267 420.298 402.398 419.748C402.529 419.198 402.549 418.627 402.456 418.069C402.364 417.511 402.161 416.977 401.86 416.499C401.558 416.02 401.164 415.607 400.701 415.282C400.237 414.958 399.714 414.73 399.161 414.61C398.608 414.491 398.037 414.483 397.481 414.588C396.925 414.692 396.395 414.906 395.924 415.218L307.337 471.033C306.554 471.52 305.951 472.25 305.62 473.112C305.289 473.973 305.248 474.919 305.504 475.806C305.759 476.693 306.297 477.472 307.036 478.025C307.775 478.578 308.674 478.875 309.597 478.871V478.871Z" fill="#18A7B5"/>
<path d="M682.815 415.248C681.863 414.676 680.724 414.5 679.643 414.757C678.562 415.015 677.625 415.685 677.033 416.625C676.441 417.566 676.24 418.7 676.474 419.786C676.709 420.873 677.359 421.824 678.287 422.436L766.873 478.251C767.345 478.563 767.874 478.777 768.43 478.881C768.986 478.986 769.557 478.978 770.11 478.859C770.663 478.739 771.186 478.511 771.65 478.187C772.113 477.862 772.507 477.449 772.809 476.97C773.11 476.492 773.313 475.958 773.406 475.4C773.498 474.842 773.478 474.271 773.347 473.721C773.216 473.17 772.976 472.652 772.642 472.196C772.308 471.739 771.886 471.354 771.401 471.063L682.815 415.248Z" fill="#18A7B5"/>
<path d="M387.155 201.486L283.093 141.712C282.609 141.433 282.076 141.253 281.522 141.181C280.969 141.109 280.406 141.147 279.867 141.292C279.329 141.437 278.824 141.687 278.381 142.028C277.939 142.368 277.568 142.793 277.29 143.276C277.011 143.76 276.831 144.294 276.759 144.847C276.687 145.401 276.725 145.963 276.87 146.502C277.015 147.041 277.265 147.546 277.606 147.988C277.946 148.431 278.371 148.801 278.854 149.08L382.896 208.864C383.87 209.366 385.001 209.474 386.052 209.164C387.104 208.854 387.995 208.151 388.542 207.2C389.088 206.25 389.246 205.125 388.984 204.061C388.722 202.996 388.06 202.074 387.135 201.486H387.155Z" fill="#18A7B5"/>
<path d="M467.104 157.567C467.474 158.223 468.011 158.768 468.661 159.147C469.311 159.527 470.05 159.727 470.803 159.727C471.536 159.727 472.257 159.534 472.892 159.167C473.872 158.609 474.591 157.685 474.891 156.598C475.19 155.511 475.047 154.35 474.492 153.369L417.727 53.4856C417.17 52.5058 416.247 51.7874 415.161 51.4884C414.074 51.1894 412.913 51.3342 411.934 51.891C410.954 52.4478 410.236 53.371 409.937 54.4575C409.637 55.5439 409.782 56.7047 410.339 57.6844L467.104 157.567Z" fill="#18A7B5"/>
<path d="M540.344 149.64H540.414C541.542 149.621 542.616 149.156 543.401 148.346C544.187 147.537 544.619 146.449 544.603 145.321L542.463 21.2242C542.429 20.1006 541.958 19.0348 541.149 18.2541C540.34 17.4734 539.259 17.0396 538.135 17.0453C537.577 17.0557 537.026 17.176 536.514 17.3992C536.003 17.6224 535.54 17.9442 535.153 18.3461C534.766 18.7481 534.462 19.2225 534.258 19.742C534.054 20.2616 533.955 20.8162 533.966 21.3742L536.095 145.471C536.119 146.583 536.576 147.642 537.37 148.421C538.164 149.2 539.232 149.637 540.344 149.64V149.64Z" fill="#18A7B5"/>
<path d="M617.344 162.956C617.776 163.312 618.275 163.579 618.811 163.742C619.347 163.905 619.91 163.96 620.468 163.904C621.025 163.848 621.566 163.683 622.059 163.417C622.553 163.152 622.989 162.791 623.342 162.356L708.389 58.2843C709.104 57.412 709.442 56.2915 709.331 55.1694C709.219 54.0473 708.667 53.0155 707.794 52.3009C706.922 51.5863 705.801 51.2476 704.679 51.3591C703.557 51.4707 702.525 52.0234 701.811 52.8957L616.744 156.958C616.386 157.39 616.118 157.888 615.955 158.424C615.791 158.961 615.736 159.524 615.792 160.082C615.847 160.64 616.013 161.181 616.28 161.675C616.546 162.168 616.908 162.603 617.344 162.956V162.956Z" fill="#18A7B5"/>
<path d="M683.086 205.944C683.69 206.896 684.647 207.57 685.746 207.819C686.845 208.068 687.999 207.872 688.954 207.274L803.843 134.904C804.328 134.612 804.75 134.227 805.084 133.771C805.418 133.314 805.658 132.796 805.789 132.246C805.92 131.696 805.94 131.125 805.847 130.567C805.755 130.009 805.552 129.475 805.251 128.996C804.949 128.518 804.555 128.104 804.092 127.78C803.628 127.456 803.105 127.227 802.552 127.108C801.999 126.989 801.428 126.981 800.872 127.085C800.316 127.19 799.786 127.404 799.314 127.715L684.415 200.046C683.94 200.345 683.529 200.736 683.205 201.194C682.88 201.653 682.65 202.171 682.526 202.719C682.403 203.267 682.389 203.834 682.485 204.388C682.581 204.941 682.785 205.47 683.086 205.944V205.944Z" fill="#18A7B5"/>
<path d="M856.349 251.032C856.283 250.479 856.109 249.943 855.836 249.457C855.563 248.971 855.197 248.543 854.759 248.199C854.321 247.854 853.819 247.6 853.282 247.449C852.745 247.299 852.184 247.256 851.63 247.323L724.345 262.609C723.269 262.737 722.284 263.272 721.589 264.102C720.895 264.933 720.543 265.997 720.607 267.078C720.671 268.159 721.145 269.175 721.932 269.918C722.72 270.661 723.762 271.076 724.844 271.077H725.364L852.64 255.791C853.197 255.724 853.735 255.548 854.223 255.272C854.712 254.996 855.141 254.627 855.486 254.184C855.83 253.742 856.084 253.235 856.232 252.695C856.381 252.154 856.42 251.589 856.349 251.032V251.032Z" fill="#18A7B5"/>
<path d="M8.83759 640.387L104.262 202.635L386.466 64.5226C386.99 64.2923 387.462 63.9585 387.854 63.5411C388.246 63.1238 388.55 62.6315 388.746 62.0938C388.943 61.5562 389.03 60.9843 389 60.4125C388.97 59.8408 388.825 59.2809 388.574 58.7665C388.323 58.2521 387.97 57.7938 387.537 57.4192C387.104 57.0446 386.599 56.7614 386.054 56.5866C385.509 56.4118 384.934 56.3489 384.364 56.4019C383.794 56.4548 383.24 56.6224 382.737 56.8947L98.6833 195.947C98.1067 196.23 97.6013 196.64 97.2049 197.145C96.8085 197.65 96.5313 198.239 96.3939 198.866L0.109946 640.517C-0.0237432 641.124 -0.0222935 641.753 0.114192 642.359C0.250677 642.966 0.518859 643.535 0.899732 644.026L193.188 891.439C193.53 891.88 193.957 892.248 194.442 892.524C194.927 892.8 195.461 892.978 196.015 893.047C196.569 893.116 197.131 893.075 197.669 892.927C198.207 892.779 198.711 892.527 199.151 892.184C199.592 891.841 199.96 891.415 200.236 890.93C200.512 890.445 200.689 889.91 200.759 889.357C200.828 888.803 200.787 888.241 200.639 887.703C200.491 887.165 200.239 886.661 199.896 886.221L8.83759 640.387Z" fill="#18A7B5"/>
<path d="M999.91 640.517L903.626 198.826C903.489 198.2 903.213 197.613 902.818 197.107C902.424 196.602 901.921 196.192 901.347 195.907L810.881 151.649C809.874 151.186 808.726 151.136 807.682 151.507C806.637 151.879 805.78 152.645 805.292 153.64C804.804 154.635 804.725 155.782 805.07 156.835C805.416 157.888 806.159 158.764 807.142 159.277L895.758 202.635L991.182 640.387L718.256 991.502H281.714L276.515 984.814C275.81 983.967 274.804 983.427 273.708 983.307C272.613 983.188 271.514 983.499 270.643 984.175C269.773 984.851 269.199 985.839 269.043 986.93C268.887 988.021 269.161 989.13 269.807 990.023L276.285 998.36C276.684 998.871 277.193 999.284 277.775 999.568C278.357 999.853 278.997 1000 279.644 1000H720.355C721.003 999.999 721.642 999.85 722.224 999.566C722.805 999.282 723.315 998.87 723.714 998.36L999.12 644.026C999.501 643.535 999.769 642.966 999.906 642.36C1000.04 641.753 1000.04 641.124 999.91 640.517V640.517Z" fill="#18A7B5"/>
<path d="M695.652 99.973C695.406 100.474 695.261 101.019 695.226 101.577C695.191 102.134 695.266 102.693 695.447 103.221C695.628 103.75 695.912 104.237 696.281 104.656C696.651 105.075 697.1 105.416 697.601 105.661L751.187 131.874C751.763 132.165 752.401 132.316 753.046 132.314C754.008 132.316 754.941 131.991 755.694 131.394C756.447 130.796 756.976 129.961 757.193 129.025C757.41 128.088 757.303 127.106 756.889 126.238C756.476 125.37 755.78 124.668 754.916 124.246L701.33 98.0235C700.319 97.53 699.152 97.4581 698.088 97.8236C697.023 98.1891 696.147 98.9622 695.652 99.973V99.973Z" fill="#18A7B5"/>
<path d="M562.848 39.7293L649.054 81.9079C649.632 82.1937 650.269 82.3409 650.914 82.3377C651.875 82.3394 652.809 82.0149 653.562 81.4174C654.315 80.8199 654.843 79.9846 655.06 79.048C655.277 78.1115 655.17 77.129 654.757 76.2611C654.343 75.3933 653.648 74.6913 652.783 74.2699L566.537 32.0913C565.535 31.6804 564.415 31.6671 563.404 32.0542C562.393 32.4413 561.568 33.1995 561.098 34.1742C560.627 35.1488 560.546 36.2664 560.871 37.2987C561.196 38.3311 561.903 39.2004 562.848 39.7293Z" fill="#18A7B5"/>
<path d="M433.063 41.2489C433.708 41.2497 434.345 41.099 434.922 40.809L499.965 8.9976L510.292 13.9962C511.305 14.4921 512.473 14.5652 513.54 14.1996C514.607 13.834 515.485 13.0596 515.98 12.0468C516.476 11.0339 516.549 9.86559 516.184 8.79879C515.818 7.732 515.044 6.85413 514.031 6.35831L501.864 0.429909C501.283 0.148502 500.645 0.00231934 500 0.00231934C499.354 0.00231934 498.716 0.148502 498.135 0.429909L431.193 33.1811C430.329 33.6024 429.633 34.3044 429.22 35.1723C428.806 36.0402 428.699 37.0226 428.916 37.9592C429.133 38.8957 429.662 39.731 430.415 40.3285C431.168 40.9261 432.101 41.2505 433.063 41.2489V41.2489Z" fill="#18A7B5"/>
</g>
<defs>
<clipPath id="clip0">
<rect width="1000" height="1000" fill="white"/>
</clipPath>
</defs>
</svg>
