<svg width="1000" height="1000" viewBox="0 0 1000 1000" fill="none" xmlns="http://www.w3.org/2000/svg">
<g clip-path="url(#clip0)">
<path d="M605.546 474.872C604.554 474.421 603.427 474.366 602.396 474.718C601.365 475.069 600.506 475.801 599.996 476.764C599.486 477.727 599.362 478.849 599.651 479.9C599.939 480.951 600.617 481.852 601.547 482.42L689.524 529.217C690.022 529.521 690.577 529.72 691.155 529.802C691.734 529.883 692.322 529.846 692.885 529.691C693.448 529.537 693.974 529.269 694.429 528.904C694.885 528.539 695.261 528.084 695.534 527.568C695.807 527.052 695.972 526.486 696.019 525.904C696.065 525.322 695.991 524.737 695.803 524.184C695.615 523.631 695.315 523.123 694.923 522.691C694.531 522.258 694.054 521.911 693.523 521.669L605.546 474.872Z" fill="#18A7B5"/>
<path d="M710.578 465.084C711.658 465.071 712.693 464.651 713.476 463.906C714.258 463.162 714.73 462.149 714.797 461.072C714.865 459.994 714.522 458.93 713.837 458.095C713.153 457.259 712.178 456.713 711.108 456.567L616.044 444.69C615.487 444.62 614.922 444.661 614.381 444.81C613.84 444.959 613.334 445.212 612.891 445.557C612.449 445.901 612.078 446.33 611.801 446.817C611.523 447.305 611.345 447.842 611.275 448.399C611.206 448.956 611.246 449.521 611.395 450.061C611.544 450.602 611.798 451.109 612.142 451.551C612.486 451.994 612.915 452.365 613.402 452.642C613.89 452.92 614.428 453.098 614.984 453.168L710.049 465.054C710.224 465.074 710.401 465.084 710.578 465.084V465.084Z" fill="#18A7B5"/>
<path d="M710.578 395.703H710.478L624.931 397.603C623.833 397.666 622.802 398.15 622.051 398.954C621.301 399.758 620.888 400.82 620.9 401.919C620.911 403.019 621.346 404.072 622.113 404.86C622.881 405.648 623.922 406.11 625.021 406.15H625.121L710.668 404.251C711.766 404.187 712.798 403.704 713.549 402.9C714.299 402.096 714.712 401.034 714.7 399.934C714.689 398.834 714.254 397.781 713.486 396.993C712.719 396.205 711.678 395.743 710.578 395.703Z" fill="#18A7B5"/>
<path d="M611.495 363.532C611.79 364.357 612.333 365.071 613.048 365.577C613.764 366.083 614.617 366.357 615.494 366.361C615.989 366.363 616.48 366.275 616.943 366.101L712.008 331.76C713.068 331.369 713.931 330.575 714.407 329.55C714.884 328.525 714.936 327.354 714.551 326.291C714.167 325.228 713.378 324.361 712.357 323.878C711.335 323.395 710.164 323.335 709.099 323.713L614.044 358.063C613.517 358.254 613.033 358.547 612.619 358.926C612.206 359.304 611.871 359.76 611.634 360.268C611.397 360.776 611.263 361.326 611.239 361.886C611.215 362.446 611.302 363.005 611.495 363.532V363.532Z" fill="#18A7B5"/>
<path d="M584.222 340.398C585.057 341.15 586.154 341.542 587.277 341.492C588.399 341.441 589.456 340.952 590.22 340.128L662.911 260.76C663.643 259.918 664.017 258.823 663.954 257.709C663.891 256.596 663.395 255.55 662.572 254.797C661.749 254.043 660.665 253.641 659.55 253.675C658.435 253.71 657.377 254.178 656.603 254.981L583.912 334.35C583.153 335.194 582.759 336.304 582.817 337.438C582.875 338.572 583.38 339.636 584.222 340.398V340.398Z" fill="#18A7B5"/>
<path d="M581.114 245.194C580.058 244.781 578.882 244.802 577.842 245.254C576.802 245.705 575.984 246.55 575.565 247.603L544.463 326.162C544.047 327.216 544.066 328.392 544.516 329.432C544.965 330.473 545.81 331.292 546.863 331.71C547.364 331.915 547.901 332.02 548.442 332.02C549.304 332.023 550.146 331.765 550.859 331.282C551.573 330.799 552.124 330.112 552.441 329.311L583.543 250.752C583.748 250.228 583.849 249.668 583.838 249.105C583.827 248.542 583.705 247.986 583.48 247.47C583.254 246.954 582.929 246.487 582.523 246.096C582.117 245.706 581.638 245.399 581.114 245.194V245.194Z" fill="#18A7B5"/>
<path d="M496.426 320.263C496.479 321.361 496.952 322.396 497.748 323.155C498.544 323.913 499.601 324.336 500.7 324.336C501.799 324.336 502.856 323.913 503.651 323.155C504.447 322.396 504.92 321.361 504.974 320.263V217.601C505.002 217.023 504.912 216.444 504.71 215.901C504.507 215.358 504.197 214.862 503.798 214.443C503.398 214.023 502.917 213.69 502.385 213.461C501.852 213.233 501.279 213.116 500.7 213.116C500.12 213.116 499.547 213.233 499.015 213.461C498.482 213.69 498.002 214.023 497.602 214.443C497.202 214.862 496.892 215.358 496.69 215.901C496.488 216.444 496.398 217.023 496.426 217.601V320.263Z" fill="#18A7B5"/>
<path d="M352.355 287.292C352.018 287.744 351.773 288.257 351.635 288.803C351.497 289.349 351.467 289.917 351.549 290.474C351.631 291.032 351.822 291.567 352.111 292.051C352.4 292.534 352.782 292.955 353.235 293.291L432.563 352.355C433.476 353.031 434.62 353.317 435.744 353.152C436.868 352.988 437.881 352.385 438.562 351.475C439.237 350.562 439.524 349.418 439.359 348.294C439.194 347.17 438.591 346.157 437.682 345.477L358.353 286.423C357.903 286.085 357.39 285.84 356.844 285.701C356.299 285.562 355.731 285.532 355.174 285.612C354.616 285.693 354.08 285.883 353.597 286.171C353.113 286.46 352.691 286.841 352.355 287.292V287.292Z" fill="#18A7B5"/>
<path d="M406.51 234.817C405.529 235.387 404.815 236.323 404.525 237.42C404.234 238.517 404.391 239.684 404.961 240.665L454.747 326.212C455.123 326.86 455.662 327.398 456.312 327.772C456.961 328.146 457.697 328.342 458.446 328.341C459.198 328.341 459.937 328.143 460.588 327.766C461.239 327.39 461.779 326.848 462.154 326.197C462.529 325.545 462.726 324.806 462.724 324.054C462.723 323.302 462.523 322.563 462.145 321.913L412.359 236.366C411.789 235.385 410.852 234.671 409.755 234.38C408.659 234.09 407.491 234.247 406.51 234.817Z" fill="#18A7B5"/>
<path d="M324.153 356.714C323.898 357.819 324.091 358.981 324.691 359.944C325.291 360.907 326.247 361.593 327.352 361.852L411.779 381.457C412.106 381.536 412.442 381.573 412.779 381.567C413.825 381.565 414.835 381.18 415.617 380.485C416.399 379.789 416.898 378.831 417.021 377.792C417.145 376.752 416.882 375.704 416.285 374.845C415.687 373.986 414.796 373.375 413.778 373.129L329.361 353.515C328.809 353.377 328.235 353.35 327.672 353.437C327.109 353.524 326.57 353.722 326.085 354.02C325.6 354.318 325.179 354.709 324.847 355.172C324.515 355.635 324.279 356.159 324.153 356.714V356.714Z" fill="#18A7B5"/>
<path d="M321.793 412.889L412.598 416.078H412.748C413.883 416.098 414.979 415.666 415.796 414.877C416.612 414.089 417.082 413.009 417.102 411.874C417.122 410.739 416.69 409.643 415.902 408.826C415.114 408.01 414.033 407.54 412.898 407.52L322.093 404.341C320.965 404.319 319.874 404.736 319.049 405.505C318.224 406.274 317.731 407.334 317.674 408.46C317.653 409.021 317.742 409.581 317.938 410.108C318.133 410.635 318.431 411.118 318.814 411.529C319.196 411.941 319.657 412.273 320.168 412.506C320.679 412.739 321.231 412.869 321.793 412.889V412.889Z" fill="#18A7B5"/>
<path d="M425.995 444.59C425.904 444.035 425.705 443.504 425.408 443.027C425.112 442.55 424.724 442.136 424.267 441.809C423.81 441.482 423.293 441.249 422.745 441.122C422.198 440.995 421.631 440.978 421.077 441.071L327.622 456.467C326.566 456.645 325.616 457.213 324.958 458.058C324.301 458.904 323.984 459.965 324.071 461.032C324.157 462.099 324.641 463.095 325.426 463.823C326.211 464.551 327.241 464.959 328.312 464.964C328.546 464.964 328.78 464.944 329.012 464.904L422.466 449.509C423.021 449.418 423.553 449.218 424.03 448.922C424.508 448.625 424.922 448.237 425.25 447.781C425.578 447.324 425.812 446.807 425.94 446.259C426.068 445.712 426.087 445.145 425.995 444.59V444.59Z" fill="#18A7B5"/>
<path d="M354.484 516.541C355.113 516.541 355.735 516.401 356.303 516.131L432.093 480.48C432.615 480.25 433.085 479.917 433.477 479.501C433.868 479.086 434.172 478.597 434.372 478.062C434.571 477.527 434.662 476.958 434.638 476.388C434.614 475.818 434.476 475.258 434.233 474.742C433.989 474.226 433.645 473.763 433.22 473.382C432.796 473.001 432.299 472.709 431.76 472.522C431.22 472.336 430.649 472.26 430.079 472.297C429.51 472.335 428.954 472.486 428.444 472.742L352.664 508.393C351.786 508.808 351.075 509.509 350.648 510.382C350.221 511.254 350.104 512.246 350.316 513.194C350.527 514.142 351.055 514.99 351.813 515.598C352.57 516.206 353.512 516.539 354.484 516.541Z" fill="#18A7B5"/>
<path d="M632.549 635.608V635.528C632.617 634.93 632.557 634.324 632.375 633.75C632.192 633.177 631.89 632.648 631.489 632.199C631.088 631.75 630.597 631.39 630.047 631.144C629.498 630.898 628.903 630.77 628.3 630.77H540.064L570.446 496.336C570.446 496.266 570.446 496.196 570.446 496.136C570.446 496.076 570.446 495.886 570.446 495.756C570.466 495.517 570.466 495.276 570.446 495.036C570.456 494.913 570.456 494.789 570.446 494.666C570.395 494.369 570.315 494.078 570.206 493.797C570.21 493.747 570.21 493.697 570.206 493.647C570.063 493.348 569.892 493.064 569.696 492.797L569.616 492.717L569.416 492.517C569.233 492.319 569.033 492.138 568.816 491.977C568.724 491.908 568.627 491.845 568.527 491.787C568.305 491.658 568.074 491.544 567.837 491.447L567.537 491.337C567.184 491.224 566.817 491.16 566.447 491.147L547.602 490.548L576.334 371.7C576.479 371.102 576.493 370.481 576.376 369.877C576.259 369.274 576.014 368.703 575.656 368.203C575.298 367.703 574.837 367.286 574.304 366.98C573.771 366.674 573.178 366.487 572.565 366.431L479.081 357.853C478.51 357.8 477.934 357.862 477.387 358.036C476.841 358.209 476.335 358.491 475.899 358.864C475.464 359.237 475.108 359.694 474.852 360.207C474.597 360.72 474.447 361.28 474.412 361.852L463.415 527.468C463.401 527.802 463.424 528.138 463.485 528.467C463.485 528.467 463.485 528.537 463.485 528.567C463.495 528.613 463.512 528.656 463.535 528.697C463.619 529.085 463.757 529.458 463.945 529.807V529.867C464.135 530.192 464.371 530.488 464.645 530.747L464.785 530.897C465.069 531.147 465.385 531.359 465.724 531.526C465.792 531.561 465.862 531.591 465.934 531.616C466.302 531.787 466.693 531.901 467.094 531.956L515.521 538.025L504.234 630.79H403.171C402.775 630.798 402.382 630.858 402.001 630.97L401.732 631.06C401.377 631.184 401.041 631.356 400.732 631.569L400.642 631.649C400.449 631.786 400.268 631.94 400.102 632.109C400.027 632.195 399.956 632.285 399.892 632.379C399.827 632.451 399.766 632.528 399.712 632.609C399.487 632.916 399.305 633.253 399.172 633.609V633.609L274.926 994.322C274.555 995.394 274.625 996.57 275.121 997.591C275.616 998.612 276.498 999.394 277.57 999.765C278.643 1000.14 279.819 1000.07 280.839 999.57C281.86 999.074 282.642 998.193 283.014 997.121L283.503 995.721L399.892 657.622L407.32 824.637L352.465 994.391C352.333 994.822 352.269 995.271 352.275 995.721C352.276 996.737 352.638 997.719 353.298 998.492C353.958 999.264 354.872 999.776 355.876 999.935C356.879 1000.09 357.906 999.89 358.773 999.359C359.639 998.829 360.288 998.007 360.603 997.041L408.4 848.941L414.128 995.901C414.177 997.001 414.648 998.04 415.443 998.801C416.238 999.563 417.296 999.988 418.397 999.99H418.597C419.698 999.936 420.737 999.459 421.495 998.658C422.253 997.857 422.672 996.794 422.666 995.691C422.666 995.631 422.666 995.581 422.666 995.521L415.938 825.777L415.398 813.63L414.888 801.524L407.67 639.347H491.967L500.145 664.521L503.274 674.168L506.413 683.825V683.995L503.864 699.461L502.924 705.25L484.129 821.328C484.029 821.924 484.06 822.535 484.219 823.118L506.963 907.975C507.208 908.874 507.738 909.669 508.474 910.24C509.209 910.812 510.111 911.129 511.042 911.144H511.102C512.023 911.142 512.919 910.843 513.657 910.292C514.396 909.741 514.937 908.967 515.201 908.085L540.474 823.238C540.631 822.71 540.686 822.157 540.634 821.608L527.628 685.815L527.468 684.105L528.797 680.646L544.743 639.347H623.522L604.347 808.182L602.837 821.778L601.298 835.354L583.083 995.311C583.073 995.478 583.073 995.645 583.083 995.811C583.094 996.896 583.517 997.936 584.267 998.719C585.017 999.503 586.038 999.972 587.121 1000.03C588.204 1000.09 589.269 999.733 590.099 999.035C590.929 998.336 591.462 997.348 591.59 996.271L606.836 862.087L636.828 996.591C636.934 997.149 637.15 997.68 637.463 998.154C637.777 998.628 638.182 999.035 638.654 999.35C639.126 999.666 639.657 999.884 640.214 999.993C640.772 1000.1 641.346 1000.1 641.902 999.983C642.458 999.867 642.986 999.642 643.454 999.32C643.922 998.999 644.322 998.587 644.629 998.11C644.937 997.632 645.146 997.098 645.245 996.538C645.344 995.979 645.331 995.405 645.206 994.851L609.915 834.895L629.91 658.542L721.615 995.731L721.915 996.851C722.053 997.403 722.3 997.922 722.641 998.377C722.982 998.833 723.411 999.215 723.901 999.503C724.392 999.791 724.935 999.978 725.499 1000.05C726.063 1000.13 726.637 1000.09 727.186 999.942C727.735 999.793 728.249 999.536 728.698 999.186C729.146 998.836 729.521 998.4 729.799 997.904C730.077 997.408 730.253 996.861 730.318 996.295C730.382 995.73 730.333 995.158 730.173 994.611L632.549 635.608ZM557.31 499.385L540.634 519.16L545.513 499.005L557.31 499.385ZM480.71 525.018L473.712 524.148L472.173 523.949L472.432 519.95L482.61 366.761L566.847 374.469L538.855 490.238L537.855 494.486L536.855 498.725L528.957 531.057L525.068 530.577L520.819 530.037L516.581 529.507L480.71 525.018ZM524.039 539.064L531.686 540.064H532.216C532.641 540.055 533.062 539.985 533.466 539.854L533.746 539.754C534.132 539.61 534.495 539.411 534.826 539.164L534.906 539.094C535.112 538.929 535.303 538.745 535.475 538.545L558.229 511.552L531.297 630.77H512.862L524.039 539.064ZM531.177 650.714L520.599 678.127L519.12 681.946C518.874 682.582 518.781 683.267 518.85 683.945L518.98 685.305L520.29 698.931L521.599 712.558L532.056 821.588L511.342 891.149L492.737 821.778L510.102 714.547L511.042 708.749L511.982 702.96L514.981 684.155C515.088 683.486 515.034 682.8 514.821 682.156L508.823 663.651L505.693 653.993L502.554 644.346L500.925 639.347H535.535L531.177 650.714Z" fill="#18A7B5"/>
<path d="M478.36 159.957C478.085 159.452 477.711 159.008 477.261 158.651C476.81 158.294 476.293 158.031 475.738 157.879C475.184 157.726 474.605 157.687 474.035 157.763C473.465 157.839 472.917 158.03 472.422 158.323C471.928 158.616 471.497 159.005 471.157 159.468C470.816 159.931 470.572 160.458 470.44 161.018C470.307 161.577 470.288 162.157 470.385 162.724C470.482 163.291 470.692 163.832 471.002 164.316L489.997 196.307C490.375 196.947 490.913 197.477 491.558 197.845C492.203 198.213 492.933 198.407 493.676 198.406C494.444 198.41 495.198 198.202 495.856 197.807C496.831 197.228 497.536 196.286 497.818 195.188C498.099 194.089 497.932 192.924 497.355 191.948L478.36 159.957Z" fill="#18A7B5"/>
<path d="M535.106 159.367L507.873 191.358C507.139 192.221 506.777 193.341 506.868 194.47C506.959 195.6 507.495 196.647 508.358 197.382C509.221 198.116 510.341 198.478 511.47 198.387C512.6 198.296 513.647 197.76 514.382 196.897L541.614 164.905C542.002 164.482 542.301 163.984 542.492 163.442C542.684 162.9 542.764 162.326 542.729 161.752C542.693 161.179 542.542 160.618 542.286 160.104C542.029 159.59 541.671 159.133 541.234 158.76C540.797 158.388 540.289 158.107 539.741 157.934C539.192 157.762 538.615 157.702 538.043 157.758C537.471 157.813 536.917 157.984 536.412 158.258C535.907 158.533 535.463 158.907 535.106 159.357V159.367Z" fill="#18A7B5"/>
<path d="M547.412 228.278L521.999 213.882C521.011 213.323 519.842 213.179 518.748 213.481C517.654 213.784 516.725 214.509 516.165 215.497C515.606 216.484 515.462 217.654 515.764 218.748C516.067 219.842 516.792 220.771 517.78 221.33L543.203 235.726C543.693 236.02 544.237 236.212 544.802 236.292C545.367 236.372 545.943 236.338 546.495 236.192C547.047 236.047 547.565 235.792 548.017 235.443C548.469 235.094 548.846 234.658 549.127 234.161C549.408 233.664 549.587 233.115 549.652 232.548C549.718 231.981 549.669 231.406 549.51 230.858C549.35 230.31 549.082 229.799 548.722 229.356C548.361 228.913 547.916 228.547 547.412 228.278Z" fill="#18A7B5"/>
<path d="M448.449 226.319C448.794 227.06 449.343 227.687 450.032 228.126C450.721 228.565 451.521 228.798 452.338 228.798C452.958 228.795 453.571 228.662 454.138 228.408L485.959 213.652C486.989 213.175 487.787 212.308 488.178 211.242C488.569 210.176 488.521 208.999 488.043 207.969C487.566 206.939 486.699 206.14 485.633 205.75C484.568 205.359 483.39 205.407 482.36 205.884L450.539 220.64C449.509 221.116 448.71 221.982 448.318 223.047C447.926 224.112 447.973 225.289 448.449 226.319V226.319Z" fill="#18A7B5"/>
<path d="M747.048 268.927C746.063 268.364 744.895 268.215 743.8 268.513C742.705 268.811 741.773 269.532 741.21 270.517L722.635 303.038C722.073 304.025 721.925 305.194 722.225 306.289C722.525 307.384 723.248 308.314 724.234 308.877C725.221 309.439 726.39 309.586 727.485 309.286C728.58 308.986 729.511 308.263 730.073 307.277L748.638 274.756C748.917 274.269 749.097 273.732 749.168 273.175C749.238 272.619 749.199 272.053 749.051 271.512C748.904 270.971 748.651 270.464 748.307 270.02C747.963 269.577 747.536 269.205 747.048 268.927Z" fill="#18A7B5"/>
<path d="M701.131 309.466C702.146 309.47 703.13 309.116 703.91 308.467C704.762 307.73 705.289 306.687 705.377 305.564C705.465 304.441 705.107 303.329 704.38 302.468L690.494 286.213C689.756 285.35 688.707 284.815 687.575 284.726C686.444 284.637 685.323 285.001 684.46 285.738C683.597 286.475 683.062 287.525 682.973 288.656C682.884 289.788 683.248 290.908 683.985 291.771L697.872 308.027C698.279 308.487 698.782 308.854 699.344 309.102C699.907 309.35 700.516 309.475 701.131 309.466Z" fill="#18A7B5"/>
<path d="M736.701 335.189C736.432 334.697 736.067 334.261 735.629 333.909C735.192 333.557 734.689 333.295 734.149 333.137C733.61 332.979 733.045 332.929 732.486 332.989C731.927 333.05 731.386 333.22 730.893 333.49C730.4 333.76 729.965 334.124 729.613 334.562C729.261 335 728.998 335.503 728.84 336.042C728.682 336.582 728.632 337.147 728.693 337.705C728.754 338.264 728.924 338.805 729.193 339.298L744.459 367.131C744.721 367.639 745.082 368.089 745.521 368.454C745.96 368.82 746.467 369.095 747.013 369.261C747.56 369.428 748.134 369.484 748.702 369.425C749.27 369.366 749.821 369.194 750.322 368.919C750.822 368.644 751.263 368.271 751.617 367.823C751.972 367.375 752.233 366.861 752.385 366.31C752.538 365.76 752.578 365.184 752.505 364.618C752.431 364.051 752.245 363.505 751.957 363.012L736.701 335.189Z" fill="#18A7B5"/>
<path d="M301.779 349.186C302.768 349.178 303.723 348.825 304.478 348.186C305.352 347.47 305.908 346.438 306.024 345.315C306.14 344.191 305.807 343.067 305.098 342.188L281.674 313.385C281.324 312.938 280.887 312.565 280.391 312.288C279.895 312.011 279.348 311.836 278.783 311.772C278.218 311.709 277.646 311.759 277.101 311.919C276.556 312.079 276.047 312.346 275.606 312.705C275.165 313.064 274.8 313.506 274.532 314.008C274.265 314.509 274.099 315.059 274.046 315.625C273.993 316.191 274.053 316.762 274.223 317.304C274.393 317.846 274.669 318.349 275.036 318.784L298.46 347.586C298.859 348.083 299.364 348.485 299.938 348.761C300.512 349.038 301.141 349.183 301.779 349.186V349.186Z" fill="#18A7B5"/>
<path d="M275.295 393.464C275.688 393.867 276.157 394.189 276.675 394.411C277.192 394.632 277.749 394.749 278.312 394.755C278.875 394.76 279.434 394.654 279.956 394.443C280.478 394.232 280.953 393.919 281.354 393.524L304.777 370.53C305.587 369.734 306.048 368.65 306.059 367.515C306.069 366.379 305.628 365.287 304.832 364.477C304.037 363.667 302.952 363.206 301.817 363.195C300.682 363.185 299.589 363.626 298.779 364.422L275.355 387.415C274.546 388.21 274.085 389.293 274.073 390.427C274.062 391.561 274.502 392.653 275.295 393.464V393.464Z" fill="#18A7B5"/>
<path d="M336.57 309.117C335.562 308.597 334.389 308.498 333.308 308.84C332.227 309.183 331.325 309.94 330.801 310.946L318.154 335.269C317.67 336.271 317.595 337.423 317.945 338.479C318.295 339.536 319.044 340.414 320.031 340.928C321.018 341.442 322.167 341.551 323.234 341.232C324.3 340.912 325.2 340.19 325.742 339.218L338.389 314.915C338.653 314.415 338.815 313.868 338.866 313.306C338.917 312.743 338.857 312.176 338.688 311.637C338.518 311.098 338.244 310.597 337.881 310.165C337.517 309.732 337.071 309.376 336.57 309.117V309.117Z" fill="#18A7B5"/>
<path d="M715.987 449.189C716.541 449.436 717.14 449.565 717.746 449.569C718.569 449.569 719.374 449.333 720.065 448.888C720.757 448.443 721.305 447.808 721.645 447.059L736.801 413.608C737.052 413.094 737.198 412.535 737.229 411.964C737.261 411.393 737.177 410.821 736.984 410.283C736.791 409.745 736.491 409.25 736.104 408.83C735.716 408.409 735.248 408.07 734.727 407.834C734.206 407.597 733.643 407.467 733.072 407.452C732.5 407.437 731.931 407.536 731.398 407.745C730.865 407.953 730.38 408.266 729.97 408.665C729.561 409.065 729.235 409.542 729.013 410.069L713.817 443.52C713.586 444.035 713.458 444.59 713.442 445.154C713.426 445.717 713.521 446.279 713.723 446.806C713.925 447.332 714.228 447.814 714.617 448.223C715.005 448.632 715.471 448.96 715.987 449.189V449.189Z" fill="#18A7B5"/>
<path d="M722.035 466.264C721.324 467.142 720.99 468.265 721.104 469.389C721.218 470.513 721.772 471.546 722.645 472.263L760.795 503.364C761.226 503.75 761.731 504.044 762.279 504.229C762.827 504.414 763.407 504.486 763.984 504.441C764.561 504.395 765.122 504.233 765.635 503.964C766.147 503.696 766.599 503.326 766.965 502.877C767.33 502.429 767.601 501.91 767.76 501.354C767.92 500.798 767.965 500.215 767.893 499.641C767.82 499.067 767.633 498.514 767.341 498.015C767.048 497.515 766.658 497.08 766.193 496.736L728.073 465.654C727.638 465.295 727.136 465.026 726.596 464.862C726.056 464.698 725.489 464.643 724.927 464.699C724.365 464.756 723.821 464.923 723.324 465.192C722.828 465.461 722.39 465.825 722.035 466.264V466.264Z" fill="#18A7B5"/>
<path d="M597.149 205.704C596.615 205.527 596.052 205.456 595.491 205.497C594.93 205.538 594.383 205.69 593.881 205.944C593.379 206.198 592.932 206.548 592.567 206.976C592.201 207.403 591.924 207.899 591.75 208.434L584.412 230.658C584.236 231.191 584.166 231.755 584.207 232.315C584.248 232.876 584.399 233.423 584.651 233.925C584.904 234.428 585.253 234.875 585.678 235.243C586.104 235.61 586.598 235.89 587.132 236.066C587.568 236.204 588.023 236.275 588.481 236.276C589.381 236.275 590.257 235.991 590.986 235.463C591.715 234.935 592.259 234.191 592.54 233.337L599.838 211.103C600.194 210.03 600.11 208.861 599.607 207.849C599.103 206.838 598.219 206.067 597.149 205.704V205.704Z" fill="#18A7B5"/>
<path d="M603.537 253.452H633.269C634.403 253.452 635.492 253.001 636.294 252.198C637.097 251.396 637.547 250.308 637.547 249.173C637.547 248.038 637.097 246.95 636.294 246.147C635.492 245.345 634.403 244.894 633.269 244.894H603.537C602.402 244.894 601.314 245.345 600.511 246.147C599.709 246.95 599.258 248.038 599.258 249.173C599.258 250.308 599.709 251.396 600.511 252.198C601.314 253.001 602.402 253.452 603.537 253.452V253.452Z" fill="#18A7B5"/>
<path d="M999.9 640.447L903.626 198.816C903.487 198.184 903.208 197.592 902.808 197.083C902.408 196.574 901.898 196.162 901.317 195.877L501.865 0.439907C501.281 0.148592 500.638 -0.00305176 499.985 -0.00305176C499.333 -0.00305176 498.689 0.148592 498.106 0.439907L98.6836 195.877C98.1024 196.16 97.5933 196.572 97.1949 197.081C96.7965 197.591 96.5192 198.184 96.3842 198.816L0.100231 640.447C-0.0331972 641.06 -0.0307341 641.694 0.107447 642.305C0.245627 642.917 0.516166 643.49 0.900015 643.986L255.181 971.138C255.584 971.652 256.098 972.068 256.685 972.354C257.273 972.64 257.917 972.788 258.57 972.787C259.371 972.788 260.156 972.564 260.835 972.141C261.514 971.717 262.061 971.111 262.412 970.392C262.764 969.673 262.906 968.869 262.822 968.073C262.738 967.277 262.433 966.52 261.94 965.889L8.88786 640.317L104.302 202.655L499.955 8.9976L895.698 202.655L991.113 640.317L740.8 962.37C740.425 962.81 740.143 963.321 739.971 963.873C739.799 964.425 739.741 965.006 739.799 965.581C739.858 966.157 740.033 966.714 740.313 967.22C740.593 967.725 740.973 968.169 741.429 968.524C741.885 968.879 742.409 969.138 742.968 969.285C743.527 969.432 744.11 969.464 744.682 969.379C745.254 969.295 745.803 969.095 746.296 968.792C746.788 968.49 747.214 968.091 747.548 967.619L999.1 643.986C999.484 643.49 999.755 642.917 999.893 642.305C1000.03 641.694 1000.03 641.06 999.9 640.447Z" fill="#18A7B5"/>
</g>
<defs>
<clipPath id="clip0">
<rect width="1000" height="1000" fill="white"/>
</clipPath>
</defs>
</svg>
