<svg width="1000" height="1000" viewBox="0 0 1000 1000" fill="none" xmlns="http://www.w3.org/2000/svg">
<g clip-path="url(#clip0)">
<path d="M498.08 0.440063L499.47 6.83006L498.08 0.440063V0.440063Z" fill="#18A7B5"/>
<path d="M999.9 640.51L903.62 198.83C903.481 198.2 903.202 197.61 902.804 197.103C902.406 196.596 901.899 196.185 901.32 195.9L501.84 0.440026C501.256 0.148633 500.613 -0.00305176 499.96 -0.00305176C499.307 -0.00305176 498.664 0.148633 498.08 0.440026L499.47 6.83003L500 9.00003L895.7 202.68L991.12 640.37L718.24 991.45H281.74L8.88 640.37L104.3 202.68L104.08 202.41L104.3 202.68L296.3 108.86C296.831 108.63 297.309 108.294 297.707 107.874C298.104 107.453 298.412 106.956 298.612 106.414C298.812 105.871 298.9 105.293 298.87 104.715C298.841 104.137 298.694 103.572 298.44 103.052C298.186 102.532 297.829 102.07 297.39 101.692C296.952 101.314 296.442 101.029 295.89 100.854C295.339 100.679 294.758 100.618 294.182 100.674C293.606 100.73 293.047 100.902 292.54 101.18L98.68 195.9C98.1015 196.185 97.5944 196.596 97.1963 197.103C96.7981 197.61 96.5192 198.2 96.38 198.83L0.100003 640.51C-0.0279125 641.115 -0.0226117 641.74 0.115537 642.343C0.253686 642.946 0.521372 643.511 0.900003 644L276.26 998.35C276.662 998.863 277.174 999.278 277.76 999.564C278.346 999.85 278.988 999.999 279.64 1000H720.33C720.982 1000 721.625 999.851 722.21 999.565C722.796 999.279 723.309 998.864 723.71 998.35L999.1 644C999.479 643.511 999.746 642.946 999.884 642.343C1000.02 641.74 1000.03 641.115 999.9 640.51V640.51Z" fill="#18A7B5"/>
<path d="M395.18 50.7201C394.313 51.1469 393.616 51.8546 393.202 52.728C392.788 53.6014 392.683 54.5891 392.902 55.5303C393.121 56.4716 393.652 57.311 394.409 57.912C395.166 58.5129 396.104 58.84 397.07 58.8401C397.718 58.8444 398.359 58.6972 398.94 58.4101L500 9.00006L499.51 6.79006L498.08 0.440063L395.18 50.7201Z" fill="#18A7B5"/>
<path d="M300.71 247.69L328.71 497.92C328.783 498.564 329.011 499.181 329.375 499.718C329.739 500.254 330.228 500.694 330.8 501C331.38 501.306 332.025 501.467 332.68 501.47C333.324 501.471 333.959 501.317 334.53 501.02L382.21 476.25C382.914 475.884 383.494 475.317 383.875 474.621C384.256 473.924 384.422 473.131 384.35 472.34L379.88 423.87L405.25 480.16L369.61 498.66L369.44 498.77L369.31 498.84C369.111 498.97 368.923 499.117 368.75 499.28L368.67 499.36C368.501 499.522 368.347 499.7 368.21 499.89C368.074 500.098 367.954 500.315 367.85 500.54V500.66C367.762 500.884 367.692 501.115 367.64 501.35V501.75C367.63 501.893 367.63 502.037 367.64 502.18C367.642 502.422 367.669 502.663 367.72 502.9V503.04C367.774 503.273 367.847 503.5 367.94 503.72V503.77L405.94 588.12L381 577.78L309.8 508.65C309.342 508.204 308.783 507.875 308.171 507.689C307.559 507.504 306.911 507.468 306.282 507.585C305.653 507.701 305.062 507.967 304.557 508.359C304.052 508.752 303.648 509.259 303.38 509.84L292.62 533.18C292.318 533.843 292.201 534.576 292.28 535.3L295.68 565.79C295.77 566.58 296.094 567.325 296.61 567.93L331.9 609.48L348.46 633.54L282.36 613.94L229.77 587.35L178.3 553.29L127.87 483.69C127.297 482.898 126.454 482.343 125.5 482.13L106.56 477.9C105.892 477.745 105.195 477.766 104.536 477.958C103.878 478.151 103.28 478.51 102.8 479L86.26 496.33C85.73 496.885 85.3709 497.581 85.2255 498.335C85.0801 499.088 85.1546 499.868 85.44 500.58L109.83 561.58C109.83 561.71 109.94 561.84 110 561.96L136.73 612.86C136.913 613.229 137.152 613.566 137.44 613.86L190.55 667.26C190.842 667.553 191.18 667.796 191.55 667.98L277.97 713.54L431.14 790.22L453.24 851.44C453.324 851.675 453.434 851.9 453.57 852.11C453.6 852.166 453.633 852.219 453.67 852.27C453.817 852.492 453.984 852.699 454.17 852.89H454.23C454.357 853.008 454.49 853.118 454.63 853.22L454.81 853.33L454.99 853.44C455.213 853.57 455.448 853.68 455.69 853.77C455.841 853.816 455.995 853.853 456.15 853.88H456.31C456.516 853.895 456.724 853.895 456.93 853.88C457.123 853.895 457.317 853.895 457.51 853.88H457.69C457.822 853.857 457.952 853.827 458.08 853.79L458.37 853.68L458.63 853.58C458.814 853.497 458.991 853.4 459.16 853.29L496.16 828.54L520.71 930.12C520.843 930.672 521.093 931.189 521.441 931.638C521.79 932.086 522.23 932.455 522.733 932.719C523.235 932.984 523.788 933.139 524.355 933.174C524.922 933.208 525.489 933.122 526.02 932.92L571.51 915.6L577.23 931.12C577.512 931.888 578.023 932.551 578.694 933.019C579.364 933.487 580.162 933.739 580.98 933.74C581.176 933.755 581.374 933.755 581.57 933.74L697.46 916.61C698.059 916.522 698.629 916.3 699.13 915.959C699.63 915.619 700.046 915.169 700.348 914.645C700.649 914.12 700.827 913.534 700.869 912.93C700.911 912.327 700.816 911.721 700.59 911.16L659.94 810L716.89 814.5H717.21C717.465 814.499 717.72 814.472 717.97 814.42H718.18C718.357 814.374 718.53 814.317 718.7 814.25L718.93 814.15C719.09 814.07 719.24 813.98 719.39 813.89L719.59 813.75C719.776 813.619 719.947 813.468 720.1 813.3C720.278 813.093 720.438 812.873 720.58 812.64L720.68 812.44C720.779 812.262 720.859 812.074 720.92 811.88C720.951 811.802 720.978 811.721 721 811.64V811.5C721.034 811.338 721.057 811.175 721.07 811.01V810.82C721.083 810.546 721.067 810.271 721.02 810L710.39 745.79L806.58 603.96L859.67 522.04C859.892 521.702 860.057 521.331 860.16 520.94L880.4 448.39C880.51 448.007 880.561 447.609 880.55 447.21L878.99 389.74V389.33L870.56 324C870.462 323.239 870.146 322.522 869.651 321.935C869.157 321.348 868.504 320.916 867.77 320.69L844.9 313.69C844.242 313.488 843.542 313.459 842.87 313.606C842.197 313.753 841.574 314.071 841.06 314.53L826.59 327.48C825.864 328.133 825.401 329.029 825.29 330L815.29 415.37L787.03 470.25L754.14 519.14L706.06 568.54L708.74 539.47L719.25 486C719.402 485.22 719.319 484.412 719.01 483.68L707.08 455.42C706.792 454.75 706.329 454.17 705.74 453.74L685 438.63C684.482 438.255 683.882 438.01 683.25 437.915C682.618 437.819 681.972 437.877 681.367 438.083C680.762 438.288 680.215 438.636 679.772 439.097C679.328 439.557 679.002 440.117 678.82 440.73L650.4 535.87L609.64 588.13C609.351 588.495 609.127 588.908 608.98 589.35L595.69 630.42L557.81 521.34L560.11 520.34C560.313 520.248 560.507 520.138 560.69 520.01C560.741 519.982 560.788 519.949 560.83 519.91C561.001 519.79 561.161 519.656 561.31 519.51C561.458 519.353 561.595 519.186 561.72 519.01L561.81 518.87C561.919 518.709 562.013 518.538 562.09 518.36V518.3C562.176 518.104 562.243 517.899 562.29 517.69C562.296 517.633 562.296 517.577 562.29 517.52C562.295 517.45 562.295 517.38 562.29 517.31C562.295 517.213 562.295 517.117 562.29 517.02V516.86C562.305 516.65 562.305 516.44 562.29 516.23V516.07C562.26 515.884 562.216 515.7 562.16 515.52C562.165 515.49 562.165 515.46 562.16 515.43L511.53 364.85L548.23 423.54C548.763 424.392 549.597 425.011 550.566 425.276C551.535 425.541 552.568 425.432 553.46 424.97L589.22 406.4C589.719 406.141 590.157 405.779 590.506 405.339C590.856 404.899 591.109 404.39 591.248 403.845C591.388 403.301 591.411 402.733 591.317 402.179C591.222 401.625 591.012 401.097 590.7 400.63L454.89 197.22C454.84 197.14 454.77 197.08 454.72 197.01C454.67 196.94 454.57 196.81 454.49 196.72L454.19 196.44L453.93 196.22C453.82 196.14 453.69 196.07 453.57 196L453.3 195.84L452.9 195.68L452.6 195.58C452.455 195.543 452.308 195.516 452.16 195.5L451.87 195.45C451.624 195.43 451.376 195.43 451.13 195.45H450.96C450.76 195.474 450.562 195.518 450.37 195.58L393.7 214.02L373.16 163.35L400.7 150.25L400.85 150.16C400.975 150.095 401.095 150.021 401.21 149.94C401.32 149.872 401.423 149.795 401.52 149.71L401.81 149.45C401.9 149.35 401.99 149.26 402.07 149.16C402.15 149.06 402.2 148.99 402.26 148.91V148.85C402.296 148.809 402.329 148.765 402.36 148.72C402.36 148.72 402.36 148.62 402.43 148.57C402.49 148.465 402.54 148.354 402.58 148.24C402.614 148.175 402.644 148.108 402.67 148.04C402.675 147.987 402.675 147.933 402.67 147.88C402.67 147.76 402.74 147.64 402.77 147.51C402.8 147.38 402.77 147.51 402.77 147.44V147.29V147.13V146.62V146.35C402.76 146.225 402.74 146.102 402.71 145.98C402.69 145.838 402.66 145.698 402.62 145.56V145.4L367.62 43.55C367.441 43.0282 367.155 42.5492 366.782 42.1431C366.408 41.7369 365.955 41.4125 365.45 41.19C364.944 40.9683 364.398 40.8539 363.845 40.8539C363.293 40.8539 362.746 40.9683 362.24 41.19L306.92 65.35C306.41 65.571 305.951 65.8961 305.573 66.3044C305.195 66.7127 304.907 67.1952 304.726 67.7213C304.546 68.2473 304.477 68.8053 304.524 69.3595C304.571 69.9137 304.733 70.452 305 70.94L341.38 137.31L341.82 138.11L342.16 138.73L332 142.45C331.76 142.541 331.529 142.655 331.31 142.79L331.16 142.88C330.953 143.019 330.759 143.177 330.58 143.35L330.53 143.41C330.365 143.57 330.217 143.748 330.09 143.94L330 144.07C329.867 144.279 329.753 144.5 329.66 144.73V144.78C329.656 144.81 329.656 144.84 329.66 144.87C329.588 145.079 329.531 145.293 329.49 145.51V145.72C329.47 145.943 329.47 146.167 329.49 146.39V146.55C329.512 146.772 329.549 146.993 329.6 147.21V147.31C329.671 147.55 329.761 147.784 329.87 148.01V148.08L369.03 222.08L303.5 243.41C303.253 243.5 303.013 243.607 302.78 243.73L302.59 243.86C302.437 243.958 302.29 244.065 302.15 244.18L301.96 244.36C301.833 244.48 301.716 244.611 301.61 244.75C301.551 244.812 301.498 244.879 301.45 244.95C301.328 245.131 301.221 245.322 301.13 245.52C301.11 245.544 301.093 245.571 301.08 245.6C300.98 245.839 300.903 246.086 300.85 246.34V246.54C300.819 246.725 300.802 246.912 300.8 247.1V247.38C300.71 247.52 300.7 247.6 300.71 247.69V247.69ZM362.28 232.69L372.78 229.27L380.5 226.76L389.05 223.98L396.67 221.49L418.33 214.49L429.86 210.74L449 204.47L449.22 205.14L482.15 302.83L487.66 319.2L493.18 335.56L529.1 442L549.92 503.78L552.47 511.36L553.47 514.47L551.47 515.37L547.85 517L491.33 542.33L489.63 543.1L486 544.78L482.34 546.42L475.04 549.69L471.35 551.34L467.63 553L450.39 560.73L418.39 489.79L416.74 486.13L415.67 483.77L415.09 482.47L414.03 480.12L412.38 476.46L377.66 399.4L372.61 388.19L367.56 377L310.17 249.67L358.38 234L362.28 232.69ZM581.57 401.36L553.05 416.17L500.5 332.12L465 226.75L581.57 401.36ZM600 643L616.34 592.54L657.13 540.24C657.44 539.848 657.671 539.4 657.81 538.92L684.81 448.47L700.13 459.61L711.13 485.71L700.84 538.22C700.81 538.352 700.789 538.485 700.78 538.62L697.03 579.16C696.953 579.984 697.134 580.811 697.547 581.528C697.96 582.245 698.586 582.816 699.337 583.163C700.089 583.51 700.929 583.615 701.743 583.464C702.556 583.313 703.303 582.913 703.88 582.32L760.11 524.55C760.276 524.377 760.427 524.189 760.56 523.99L793.78 474.61C793.87 474.479 793.95 474.342 794.02 474.2L822.71 418.48C822.929 418.051 823.071 417.588 823.13 417.11L833.02 332.52L844.71 322L863 327.63L871.12 390L872.66 446.66L852.75 518L800.05 599.34L703 742.45C702.422 743.299 702.193 744.337 702.36 745.35L712.11 804.18L645.79 778.11C645.618 778.042 645.441 777.988 645.26 777.95C645.08 777.901 644.896 777.868 644.71 777.85L609.88 774.47L605.65 774.06L601.43 773.64L595.89 773.11L594.41 745.66L593.28 724.71L592.35 707.38L592.16 703.77V703.36L591.94 699.36L590.5 672.53L596 655.57L598 649.26L600 643ZM583.6 925.41L579 912.8L577.63 909L576.25 905.25L537.75 800.8L536.33 796.93L534.91 793.07L529.11 777.32L528.11 774.55L534.17 775.14L553.88 777.06L557.03 777.36L558.56 777.51L561.05 777.75L563.24 777.97L565.08 778.15L588.29 780.4L592.29 780.79L596.29 781.19L601.1 781.65L603.46 781.88L607.69 782.29L611.91 782.71L641.49 785.58L647.68 800.98L649.34 805.12L651.01 809.27L691.3 909.45L583.6 925.41ZM527.4 923.93L503.24 823.93L502.24 819.79L501.24 815.65L487.63 759.1L487.49 758.52L527.11 731L530.11 728.88L533.44 726.57L536.76 724.26L566.62 703.5L569.92 701.2L573.23 698.9L577.23 696.11L581.23 693.33L581.64 694.99L583.1 700.82L583.71 703.23L584.08 704.71L584.15 705L584.35 708.72L587.77 772.35L566.96 770.35L562.96 769.96L559.04 769.58H559L554.42 769.13L549.74 768.68L522.52 766C522.301 765.98 522.08 765.98 521.86 766H521.71C521.524 766.018 521.34 766.051 521.16 766.1H521.07C520.864 766.157 520.664 766.23 520.47 766.32H520.37C520.208 766.4 520.051 766.49 519.9 766.59L519.8 766.66C519.624 766.78 519.459 766.917 519.31 767.07C519.186 767.189 519.069 767.316 518.96 767.45L518.9 767.55C518.864 767.591 518.83 767.634 518.8 767.68C518.71 767.82 518.63 767.97 518.55 768.12C518.47 768.27 518.55 768.21 518.48 768.25C518.395 768.448 518.325 768.652 518.27 768.86V768.95C518.231 769.125 518.201 769.302 518.18 769.48V769.65C518.165 769.856 518.165 770.064 518.18 770.27C518.176 770.303 518.176 770.337 518.18 770.37C518.199 770.543 518.232 770.713 518.28 770.88L518.34 771.08C518.336 771.133 518.336 771.187 518.34 771.24L528.03 797.56L529.45 801.42L530.87 805.28L568.73 908.05L527.4 923.93ZM438.05 785.93C437.691 784.962 436.975 784.168 436.05 783.71L281.6 706.36L195.79 661.12L143.53 608.58L117.18 558.39L93.82 500L107 486.2L122.26 489.61L172.26 558.61C172.529 559.002 172.868 559.341 173.26 559.61L225.53 594.2C225.661 594.29 225.798 594.37 225.94 594.44L279.06 621.29C279.269 621.401 279.491 621.489 279.72 621.55L357 644.42C357.793 644.654 358.638 644.637 359.42 644.37C360.202 644.104 360.883 643.603 361.369 642.934C361.854 642.265 362.121 641.463 362.132 640.637C362.143 639.811 361.898 639.001 361.43 638.32L338.34 604.78C338.262 604.669 338.179 604.562 338.09 604.46L303.5 563.68L300.35 535.52L308.28 518.32L376 584.05C376.36 584.396 376.78 584.674 377.24 584.87L410.69 598.87L416.1 601.14L421.51 603.41L438.39 610.5L500.09 667.65L501.29 670.09L511.29 690.47L521.29 710.86L526.54 721.54L524.73 722.8L521.26 725.21L517.79 727.63L487.13 749L483.79 751.32L480.68 753.49C480.603 753.541 480.529 753.598 480.46 753.66C480.359 753.738 480.262 753.821 480.17 753.91C480.122 753.952 480.078 753.999 480.04 754.05C479.94 754.16 479.84 754.28 479.75 754.4C479.703 754.461 479.66 754.524 479.62 754.59C479.543 754.706 479.472 754.826 479.41 754.95C479.367 755.024 479.331 755.101 479.3 755.18C479.25 755.3 479.2 755.42 479.16 755.55C479.139 755.598 479.122 755.649 479.11 755.7L456.48 836.84L438.05 785.93ZM533.2 716.93L508.75 667.21L477.24 557.46L486.11 553.46L562.86 696.35L533.2 716.93ZM463.72 840.68L482.72 772.68L494.23 820.31L463.72 840.68ZM408.58 487.46L409.19 488.82L410.84 492.48L437.63 551.89L379.46 503.63L378.69 502.99L399 492.45L408.58 487.46ZM445.78 569.05H445.83L445.91 569.11C446.045 569.219 446.189 569.316 446.34 569.4L446.53 569.51L446.92 569.68L447.13 569.76C447.271 569.809 447.414 569.849 447.56 569.88H447.75C447.96 569.895 448.17 569.895 448.38 569.88C448.659 569.88 448.937 569.85 449.21 569.79C449.489 569.735 449.761 569.648 450.02 569.53L469.87 560.63L496.51 653.34L443.32 604.08C442.978 603.759 442.582 603.502 442.15 603.32L416.7 592.76L382.25 516.33L445.78 569.05ZM656.61 801.68L651.5 789L690.74 804.43L656.61 801.73V801.68ZM582.61 670.75C582.452 671.213 582.387 671.702 582.42 672.19L582.99 682.79L582.66 682.87L582.45 682.94C582.336 682.973 582.226 683.016 582.12 683.07L581.94 683.15C581.771 683.228 581.611 683.321 581.46 683.43L569.46 691.78L493.46 550.2L550.51 524.63L591.6 643L582.61 670.75ZM336.05 491.24L311.49 272.08L369.82 401.46L376.18 470.39L336.05 491.24ZM346.05 145.83L349.65 152.4L342.07 147.28L346.05 145.83ZM361.6 50.25L394 144.62L362.68 159.51L351.42 139L314.13 71L361.6 50.25ZM344.38 158.49L358.62 168.11C359.279 168.562 360.061 168.803 360.86 168.8C361.198 168.799 361.535 168.752 361.86 168.66C361.99 168.66 362.12 168.57 362.25 168.53L362.49 168.45L362.72 168.37L365.9 166.86L386 216.56L376.67 219.56L344.38 158.49Z" fill="#18A7B5"/>
</g>
<defs>
<clipPath id="clip0">
<rect width="1000" height="1000" fill="white"/>
</clipPath>
</defs>
</svg>
