<svg width="1000" height="1000" viewBox="0 0 1000 1000" fill="none" xmlns="http://www.w3.org/2000/svg">
<g clip-path="url(#clip0)">
<path d="M267.438 662.331L259.44 648.505C263.038 644.975 266.288 641.109 269.147 636.958L284.143 642.417C285.21 642.803 286.387 642.751 287.416 642.271C288.445 641.791 289.242 640.923 289.632 639.857L300.069 611.185C300.455 610.119 300.403 608.943 299.923 607.916C299.443 606.889 298.575 606.094 297.51 605.706L282.514 600.268C282.754 597.759 282.874 595.269 282.874 592.72C282.874 590.171 282.754 587.721 282.514 585.162L297.51 579.713C298.038 579.524 298.523 579.231 298.937 578.852C299.351 578.472 299.684 578.014 299.919 577.504C300.397 576.476 300.451 575.302 300.069 574.235L289.632 545.573C289.242 544.507 288.445 543.639 287.416 543.159C286.387 542.679 285.21 542.627 284.143 543.013L269.147 548.472C266.286 544.32 263.035 540.45 259.44 536.915L267.438 523.099C268.008 522.123 268.169 520.962 267.886 519.868C267.603 518.775 266.899 517.837 265.928 517.26L239.505 502.004C239.019 501.723 238.482 501.541 237.925 501.468C237.368 501.394 236.803 501.432 236.26 501.578C235.718 501.723 235.21 501.975 234.765 502.317C234.32 502.66 233.947 503.087 233.667 503.574L225.669 517.35C220.807 515.998 215.825 515.121 210.793 514.731L208.024 499.055C207.927 498.502 207.722 497.973 207.42 497.5C207.118 497.026 206.725 496.617 206.264 496.296C205.33 495.653 204.183 495.399 203.065 495.586L173.073 500.885C172.515 500.98 171.98 501.185 171.502 501.489C171.024 501.793 170.611 502.19 170.288 502.655C169.965 503.121 169.738 503.646 169.621 504.2C169.503 504.755 169.498 505.327 169.604 505.883L172.363 521.559C167.777 523.654 163.404 526.188 159.307 529.127L147.04 518.86C146.612 518.5 146.117 518.228 145.583 518.059C145.05 517.891 144.488 517.829 143.931 517.879C143.374 517.928 142.831 518.087 142.336 518.346C141.84 518.605 141.4 518.96 141.042 519.39L121.427 542.753C120.707 543.621 120.359 544.738 120.458 545.862C120.557 546.985 121.096 548.024 121.957 548.752L134.154 558.989C131.966 563.541 130.228 568.295 128.965 573.185H113.039C112.478 573.185 111.922 573.296 111.403 573.511C110.885 573.726 110.414 574.042 110.017 574.439C109.621 574.836 109.307 575.308 109.093 575.827C108.879 576.346 108.769 576.903 108.771 577.464V607.966C108.771 609.099 109.22 610.186 110.02 610.988C110.821 611.79 111.906 612.242 113.039 612.245H128.965C130.225 617.131 131.96 621.882 134.144 626.431L121.967 636.668C121.106 637.396 120.567 638.435 120.468 639.558C120.369 640.682 120.717 641.799 121.437 642.666L141.052 666.03C141.779 666.893 142.818 667.434 143.942 667.533C145.066 667.632 146.183 667.282 147.05 666.56L159.267 656.313C163.368 659.246 167.74 661.78 172.323 663.881L169.564 679.556C169.364 680.673 169.616 681.824 170.264 682.756C170.92 683.684 171.915 684.316 173.033 684.515L203.065 689.814C203.309 689.861 203.557 689.885 203.805 689.884C204.81 689.885 205.782 689.532 206.552 688.886C207.322 688.241 207.84 687.344 208.014 686.355L210.783 670.669C215.814 670.282 220.796 669.408 225.659 668.06L233.657 681.836C233.936 682.324 234.308 682.752 234.753 683.095C235.198 683.439 235.706 683.69 236.249 683.836C236.792 683.982 237.358 684.019 237.915 683.945C238.472 683.871 239.009 683.688 239.495 683.405L265.928 668.17C266.899 667.593 267.603 666.655 267.886 665.561C268.169 664.468 268.008 663.307 267.438 662.331V662.331ZM238.935 673.878L231.427 660.882C230.936 660.042 230.173 659.393 229.265 659.043C228.357 658.692 227.357 658.66 226.429 658.952C220.18 660.992 213.674 662.136 207.104 662.351C206.117 662.361 205.164 662.712 204.406 663.344C203.648 663.976 203.132 664.851 202.945 665.82L200.336 680.626L178.722 676.817L181.331 662.021C181.501 661.055 181.335 660.059 180.861 659.201C180.386 658.342 179.631 657.672 178.722 657.302C172.621 654.846 166.898 651.538 161.726 647.475C160.952 646.871 159.993 646.55 159.011 646.567C158.029 646.583 157.082 646.936 156.328 647.565L144.801 657.243L130.695 640.437L142.231 630.83C142.98 630.197 143.488 629.326 143.67 628.363C143.852 627.4 143.697 626.403 143.231 625.541C140.128 619.75 137.866 613.546 136.513 607.116C136.311 606.155 135.784 605.292 135.022 604.673C134.259 604.054 133.306 603.717 132.324 603.717H117.328V581.723H132.324C133.306 581.723 134.259 581.386 135.022 580.767C135.784 580.148 136.311 579.285 136.513 578.324C137.868 571.898 140.13 565.698 143.231 559.909C143.698 559.045 143.853 558.047 143.671 557.082C143.489 556.117 142.981 555.245 142.231 554.61L130.715 544.943L144.821 528.117L156.348 537.855C157.101 538.486 158.05 538.839 159.033 538.854C160.016 538.868 160.974 538.544 161.746 537.935C166.92 533.877 172.642 530.572 178.742 528.117C179.651 527.748 180.406 527.078 180.881 526.219C181.355 525.361 181.521 524.365 181.351 523.399L178.742 508.603L200.356 504.794L202.945 519.57C203.116 520.535 203.614 521.412 204.355 522.055C205.095 522.697 206.034 523.066 207.014 523.099C213.585 523.304 220.092 524.449 226.339 526.498C227.267 526.795 228.269 526.766 229.179 526.415C230.088 526.064 230.85 525.412 231.337 524.568L238.855 511.572L257.85 522.569L250.322 535.615C249.83 536.463 249.645 537.455 249.798 538.424C249.951 539.392 250.433 540.279 251.162 540.934C256.047 545.319 260.293 550.367 263.779 555.93C264.296 556.763 265.084 557.393 266.011 557.713C266.937 558.033 267.946 558.025 268.867 557.689L283.013 552.541L290.521 573.165L276.405 578.304C275.484 578.64 274.705 579.282 274.199 580.122C273.694 580.963 273.491 581.951 273.626 582.923C274.546 589.432 274.546 596.038 273.626 602.547C273.491 603.519 273.694 604.507 274.199 605.348C274.705 606.188 275.484 606.83 276.405 607.166L290.521 612.305L283.013 632.929L268.927 627.76C268.006 627.43 266.999 627.425 266.073 627.745C265.148 628.065 264.36 628.691 263.839 629.52C260.357 635.083 256.114 640.13 251.232 644.516C250.501 645.17 250.017 646.056 249.863 647.024C249.708 647.993 249.891 648.985 250.382 649.835L257.93 662.901L238.935 673.878Z" fill="#18A7B5"/>
<path d="M204.705 549.482C196.153 549.48 187.792 552.014 180.68 556.764C173.568 561.514 168.025 568.266 164.751 576.166C161.477 584.067 160.619 592.761 162.286 601.149C163.953 609.537 168.071 617.243 174.117 623.291C180.164 629.339 187.868 633.458 196.256 635.127C204.644 636.796 213.338 635.94 221.239 632.668C229.141 629.396 235.894 623.854 240.646 616.743C245.397 609.632 247.933 601.272 247.933 592.72C247.92 581.258 243.362 570.27 235.258 562.164C227.154 554.058 216.167 549.498 204.705 549.482V549.482ZM204.705 627.391C197.845 627.393 191.138 625.36 185.434 621.55C179.729 617.74 175.282 612.324 172.656 605.986C170.03 599.649 169.342 592.675 170.68 585.947C172.018 579.218 175.321 573.038 180.172 568.187C185.023 563.336 191.203 560.033 197.931 558.695C204.66 557.357 211.634 558.045 217.971 560.671C224.309 563.297 229.725 567.744 233.535 573.449C237.345 579.153 239.378 585.86 239.376 592.72C239.365 601.912 235.709 610.724 229.209 617.224C222.709 623.724 213.897 627.38 204.705 627.391V627.391Z" fill="#18A7B5"/>
<path d="M391.684 501.535C392.793 501.766 393.949 501.551 394.9 500.935C395.851 500.319 396.52 499.352 396.763 498.245L401.321 476.871C401.559 475.762 401.345 474.603 400.729 473.651C400.112 472.698 399.142 472.03 398.032 471.793L387.805 469.603C387.715 468.074 387.565 466.544 387.355 465.034C387.145 463.525 386.875 462.035 386.535 460.526L395.783 455.627C396.783 455.092 397.531 454.183 397.863 453.098C398.195 452.013 398.083 450.841 397.552 449.839L387.325 430.544C387.062 430.047 386.702 429.608 386.268 429.251C385.834 428.894 385.334 428.627 384.796 428.464C384.259 428.296 383.695 428.237 383.135 428.29C382.575 428.343 382.032 428.508 381.537 428.774L372.279 433.683C370.178 431.465 367.905 429.416 365.481 427.555L369.43 417.837C369.855 416.786 369.845 415.609 369.403 414.565C368.96 413.521 368.122 412.695 367.071 412.269L346.826 404.061C346.306 403.849 345.749 403.742 345.187 403.746C344.625 403.75 344.069 403.865 343.552 404.084C343.035 404.304 342.566 404.623 342.172 405.024C341.778 405.424 341.468 405.899 341.258 406.42L337.329 416.118C334.287 415.758 331.221 415.647 328.161 415.788L324.912 405.89C324.562 404.811 323.797 403.916 322.787 403.4C321.776 402.885 320.603 402.792 319.523 403.141L298.759 409.869C298.224 410.041 297.729 410.316 297.3 410.679C296.872 411.042 296.52 411.486 296.263 411.986C296.007 412.486 295.852 413.031 295.807 413.591C295.761 414.15 295.827 414.714 296 415.248L299.229 425.245C296.674 426.925 294.26 428.811 292.011 430.884L283.123 425.325C282.648 425.027 282.119 424.825 281.566 424.731C281.012 424.638 280.446 424.654 279.899 424.779C279.352 424.905 278.836 425.137 278.378 425.462C277.921 425.787 277.533 426.199 277.235 426.675L265.638 445.18C265.34 445.656 265.138 446.187 265.045 446.741C264.952 447.296 264.969 447.863 265.096 448.411C265.222 448.958 265.455 449.476 265.781 449.934C266.108 450.391 266.521 450.78 266.998 451.078L275.865 456.637C274.977 459.578 274.331 462.587 273.936 465.634L263.579 467.074C262.456 467.233 261.442 467.83 260.76 468.735C260.078 469.641 259.783 470.78 259.94 471.903L262.939 493.537C263.097 494.659 263.695 495.673 264.6 496.355C265.506 497.037 266.645 497.333 267.767 497.176L278.125 495.736C279.338 498.546 280.776 501.254 282.424 503.834L275.425 511.602C274.679 512.442 274.293 513.542 274.351 514.665C274.409 515.787 274.906 516.841 275.735 517.6L291.941 532.226C292.784 532.987 293.893 533.382 295.027 533.326C296.161 533.27 297.226 532.767 297.989 531.926L304.987 524.148C307.718 525.521 310.552 526.674 313.465 527.598L313.095 538.055C313.055 539.188 313.466 540.291 314.238 541.122C315.01 541.952 316.081 542.442 317.214 542.484L339.028 543.273H339.188C340.295 543.274 341.359 542.845 342.155 542.076C342.951 541.308 343.418 540.26 343.457 539.154L343.847 528.697C346.823 527.989 349.738 527.046 352.565 525.878L358.993 534.126C359.693 535.016 360.716 535.593 361.84 535.732C362.963 535.87 364.096 535.559 364.991 534.866L382.207 521.439C382.65 521.095 383.022 520.667 383.3 520.179C383.578 519.691 383.756 519.153 383.826 518.596C383.896 518.038 383.855 517.473 383.706 516.932C383.556 516.39 383.302 515.884 382.956 515.441L376.508 507.173C378.333 504.722 379.958 502.127 381.367 499.415L391.684 501.535ZM375.138 492.707C373.276 496.893 370.84 500.799 367.9 504.314C367.265 505.063 366.908 506.008 366.89 506.99C366.871 507.972 367.193 508.93 367.8 509.702L373.679 517.24L363.202 525.408L357.293 517.86C356.691 517.086 355.841 516.542 354.885 516.32C353.93 516.098 352.927 516.211 352.045 516.641C347.933 518.652 343.558 520.072 339.048 520.859C338.08 521.024 337.198 521.518 336.552 522.258C335.905 522.997 335.534 523.937 335.499 524.918L335.149 534.456L321.873 533.976L322.223 524.438C322.246 523.454 321.93 522.491 321.328 521.712C320.725 520.932 319.873 520.384 318.914 520.16C314.462 519.048 310.191 517.311 306.227 515.001C305.377 514.516 304.387 514.336 303.421 514.493C302.455 514.649 301.572 515.132 300.919 515.861L294.51 522.969L284.653 514.061L291.051 506.973C291.707 506.244 292.093 505.312 292.144 504.333C292.195 503.354 291.908 502.387 291.331 501.595C288.63 497.877 286.472 493.794 284.923 489.468C284.594 488.543 283.955 487.76 283.116 487.252C282.276 486.744 281.286 486.541 280.314 486.679L270.867 487.998L269.027 474.872L278.475 473.552C279.448 473.421 280.346 472.957 281.016 472.239C281.687 471.521 282.089 470.593 282.154 469.613C282.471 465.037 283.441 460.529 285.033 456.227C285.369 455.304 285.379 454.293 285.06 453.364C284.742 452.434 284.115 451.642 283.283 451.118L275.195 446.05L282.244 434.793L290.351 439.871C291.183 440.391 292.169 440.609 293.143 440.489C294.116 440.369 295.019 439.918 295.7 439.211C298.883 435.908 302.514 433.067 306.487 430.774C307.334 430.289 307.989 429.528 308.342 428.618C308.695 427.708 308.725 426.704 308.427 425.775L305.487 416.698L318.124 412.609L321.063 421.686C321.362 422.622 321.975 423.426 322.798 423.962C323.622 424.497 324.605 424.732 325.582 424.625C330.148 424.143 334.759 424.308 339.278 425.115C340.243 425.285 341.237 425.119 342.095 424.646C342.953 424.174 343.624 423.422 343.997 422.516L347.576 413.668L359.893 418.667L356.294 427.535C355.927 428.444 355.884 429.452 356.169 430.391C356.455 431.329 357.052 432.141 357.863 432.693C361.669 435.256 365.096 438.342 368.04 441.861C368.673 442.607 369.542 443.113 370.503 443.295C371.464 443.477 372.458 443.324 373.319 442.86L381.767 438.382L387.995 450.118L379.557 454.597C378.692 455.055 378.011 455.797 377.628 456.699C377.246 457.6 377.186 458.605 377.458 459.546C378.086 461.75 378.56 463.995 378.877 466.264C379.189 468.537 379.346 470.828 379.347 473.122C379.342 474.103 379.676 475.055 380.291 475.818C380.907 476.581 381.767 477.109 382.726 477.311L392.064 479.311L389.285 492.307L379.937 490.308C378.984 490.1 377.988 490.225 377.115 490.662C376.242 491.098 375.545 491.82 375.138 492.707V492.707Z" fill="#18A7B5"/>
<path d="M330.711 440.791C329.219 440.79 327.729 440.893 326.252 441.101C318.232 442.275 310.952 446.433 305.866 452.744C300.781 459.055 298.266 467.053 298.825 475.139C299.383 483.225 302.974 490.801 308.878 496.353C314.783 501.906 322.566 505.024 330.671 505.084C332.162 505.08 333.652 504.976 335.13 504.774C343.575 503.586 351.204 499.097 356.345 492.293C361.486 485.488 363.718 476.922 362.552 468.474C361.445 460.809 357.62 453.796 351.776 448.715C345.931 443.634 338.455 440.822 330.711 440.791ZM333.91 496.336C332.823 496.487 331.728 496.564 330.631 496.566C324.669 496.537 318.94 494.253 314.592 490.175C310.244 486.096 307.6 480.524 307.19 474.577C306.78 468.629 308.634 462.747 312.381 458.11C316.129 453.474 321.491 450.426 327.392 449.579C328.478 449.427 329.574 449.351 330.671 449.349C336.359 449.375 341.848 451.446 346.137 455.182C350.426 458.919 353.229 464.072 354.034 469.703C354.892 475.903 353.255 482.189 349.482 487.183C345.708 492.176 340.108 495.468 333.91 496.336V496.336Z" fill="#18A7B5"/>
<path d="M151.189 432.373L158.617 433.913C158.769 435.909 159.056 437.894 159.477 439.851L152.809 443.44C152.314 443.707 151.876 444.068 151.52 444.504C151.165 444.939 150.899 445.441 150.737 445.979C150.576 446.518 150.522 447.083 150.579 447.642C150.636 448.201 150.802 448.744 151.069 449.239L159.237 464.425C159.503 464.92 159.865 465.358 160.3 465.713C160.736 466.068 161.238 466.333 161.777 466.494C162.316 466.655 162.881 466.708 163.44 466.649C163.999 466.591 164.541 466.423 165.035 466.154L171.704 462.565C173.114 463.992 174.613 465.328 176.192 466.564L173.393 473.562C172.976 474.615 172.993 475.79 173.441 476.83C173.889 477.87 174.731 478.69 175.782 479.111L191.778 485.489C192.832 485.909 194.01 485.893 195.052 485.445C196.094 484.997 196.916 484.153 197.337 483.1L200.146 476.101C202.139 476.292 204.143 476.352 206.144 476.281L208.534 483.479C208.814 484.334 209.358 485.077 210.087 485.603C210.816 486.129 211.693 486.411 212.592 486.409C213.047 486.412 213.5 486.341 213.932 486.199L230.298 480.79C230.832 480.614 231.325 480.334 231.751 479.967C232.177 479.599 232.526 479.152 232.778 478.649C233.031 478.147 233.182 477.6 233.223 477.039C233.264 476.479 233.194 475.915 233.017 475.382L230.638 468.184C232.29 467.048 233.866 465.806 235.356 464.465L241.805 468.464C242.77 469.057 243.932 469.244 245.036 468.984C246.139 468.724 247.094 468.037 247.693 467.074L256.751 452.408C257.347 451.443 257.536 450.28 257.275 449.176C257.014 448.072 256.326 447.116 255.361 446.519L248.893 442.521C249.424 440.592 249.831 438.632 250.112 436.652L257.63 435.562C258.751 435.394 259.761 434.79 260.44 433.883C260.777 433.432 261.021 432.919 261.158 432.374C261.296 431.828 261.323 431.26 261.239 430.704L258.75 413.648C258.671 413.092 258.482 412.557 258.195 412.074C257.907 411.591 257.528 411.17 257.077 410.835C256.626 410.499 256.114 410.256 255.569 410.12C255.024 409.983 254.457 409.956 253.901 410.039L246.403 411.129C245.983 410.209 245.544 409.309 245.064 408.44C244.584 407.57 244.064 406.7 243.554 405.83L248.553 400.172C249.297 399.328 249.677 398.224 249.612 397.101C249.546 395.977 249.04 394.925 248.203 394.174L235.336 382.707C234.486 381.955 233.373 381.57 232.24 381.635C231.107 381.701 230.046 382.212 229.288 383.057L224.289 388.725C222.482 387.87 220.622 387.132 218.721 386.516L218.941 378.898C218.958 378.336 218.864 377.777 218.665 377.252C218.466 376.726 218.165 376.246 217.779 375.837C217.394 375.428 216.932 375.1 216.419 374.87C215.906 374.641 215.353 374.514 214.792 374.499L197.577 373.899C197.014 373.878 196.453 373.969 195.926 374.166C195.399 374.364 194.917 374.665 194.507 375.051C194.098 375.437 193.769 375.901 193.541 376.416C193.313 376.93 193.189 377.485 193.178 378.048L192.948 385.616C191.006 386.124 189.099 386.758 187.239 387.515L182.541 381.517C181.835 380.633 180.809 380.063 179.685 379.932C178.562 379.801 177.432 380.119 176.542 380.817L163.016 391.504C162.13 392.208 161.558 393.235 161.427 394.359C161.296 395.483 161.616 396.614 162.316 397.503L167.015 403.451C165.848 405.079 164.796 406.786 163.866 408.56L156.428 407.02C155.316 406.793 154.159 407.015 153.21 407.639C152.262 408.263 151.6 409.238 151.369 410.349L147.88 427.225C147.752 427.78 147.737 428.356 147.835 428.918C147.933 429.479 148.143 430.016 148.451 430.495C148.759 430.975 149.16 431.388 149.63 431.711C150.101 432.033 150.631 432.258 151.189 432.373V432.373ZM158.877 416.378L165.385 417.727C166.347 417.93 167.349 417.794 168.222 417.342C169.095 416.89 169.784 416.15 170.174 415.248C171.588 412.003 173.453 408.974 175.712 406.25C176.34 405.498 176.688 404.551 176.699 403.572C176.71 402.592 176.383 401.638 175.772 400.872L171.664 395.663L178.482 390.285L182.591 395.483C183.198 396.254 184.052 396.793 185.01 397.008C185.968 397.223 186.971 397.101 187.849 396.663C191.01 395.096 194.376 393.979 197.846 393.344C198.812 393.17 199.688 392.67 200.328 391.928C200.969 391.185 201.335 390.245 201.366 389.265L201.555 382.637L210.233 382.897L210.043 389.545C210.013 390.524 210.321 391.483 210.914 392.262C211.507 393.041 212.351 393.592 213.302 393.824C216.741 394.659 220.045 395.971 223.12 397.723C223.97 398.209 224.962 398.387 225.928 398.229C226.895 398.071 227.777 397.585 228.428 396.853L232.857 391.854L239.345 397.633L234.936 402.601C234.284 403.331 233.903 404.263 233.858 405.241C233.812 406.219 234.105 407.183 234.687 407.97C235.737 409.401 236.686 410.905 237.526 412.469C238.362 414.022 239.087 415.632 239.695 417.287C240.033 418.208 240.678 418.985 241.521 419.487C242.363 419.99 243.353 420.187 244.324 420.047L250.892 419.047L252.152 427.645L245.574 428.594C244.597 428.739 243.701 429.216 243.034 429.944C242.368 430.673 241.973 431.608 241.915 432.593C241.695 436.123 240.974 439.603 239.775 442.93C239.442 443.853 239.436 444.862 239.758 445.788C240.081 446.715 240.711 447.502 241.545 448.019L247.213 451.518L242.684 458.876L237.036 455.387C236.2 454.873 235.213 454.661 234.24 454.786C233.266 454.912 232.365 455.367 231.687 456.077C229.252 458.645 226.461 460.85 223.4 462.625C222.561 463.117 221.914 463.88 221.567 464.789C221.22 465.698 221.193 466.698 221.49 467.624L223.58 473.922L215.332 476.651L213.242 470.353C212.962 469.499 212.418 468.755 211.689 468.229C210.959 467.703 210.083 467.421 209.183 467.424C209.027 467.414 208.87 467.414 208.714 467.424C205.2 467.813 201.65 467.705 198.166 467.104C197.199 466.931 196.201 467.099 195.343 467.578C194.485 468.057 193.819 468.819 193.458 469.733L190.998 475.912L182.95 472.792L185.4 466.624C185.761 465.711 185.799 464.702 185.506 463.765C185.213 462.828 184.607 462.02 183.79 461.475C180.842 459.53 178.186 457.173 175.902 454.477C175.267 453.73 174.394 453.223 173.43 453.041C172.466 452.859 171.468 453.013 170.604 453.478L164.765 456.627L160.647 448.979L166.485 445.84C167.353 445.372 168.034 444.62 168.413 443.71C168.792 442.799 168.845 441.786 168.564 440.841C167.565 437.452 167.053 433.937 167.045 430.404C167.046 429.421 166.707 428.468 166.086 427.706C165.465 426.944 164.599 426.421 163.636 426.225L157.137 424.875L158.877 416.378Z" fill="#18A7B5"/>
<path d="M204.565 456.537C210.315 456.528 215.904 454.634 220.475 451.144C225.045 447.654 228.345 442.762 229.869 437.217C231.392 431.671 231.055 425.78 228.909 420.445C226.762 415.11 222.926 410.626 217.987 407.68C213.048 404.735 207.279 403.491 201.566 404.138C195.852 404.786 190.508 407.289 186.353 411.265C182.198 415.241 179.462 420.469 178.564 426.149C177.666 431.829 178.656 437.647 181.381 442.711C183.637 446.893 186.984 450.387 191.066 452.822C195.148 455.256 199.812 456.54 204.565 456.537ZM204.485 412.549C208.807 412.54 212.982 414.112 216.226 416.968C219.47 419.824 221.558 423.767 222.097 428.055C222.635 432.343 221.588 436.68 219.152 440.25C216.716 443.82 213.059 446.376 208.869 447.437C204.68 448.498 200.247 447.991 196.405 446.011C192.563 444.032 189.578 440.716 188.01 436.688C186.443 432.661 186.402 428.199 187.895 424.144C189.388 420.088 192.312 416.718 196.117 414.668C198.686 413.269 201.56 412.527 204.485 412.509V412.549Z" fill="#18A7B5"/>
<path d="M867.206 565.197L821.448 582.123L866.096 487.758C866.092 487.698 866.092 487.638 866.096 487.578C866.237 487.232 866.334 486.869 866.386 486.499C866.391 486.402 866.391 486.305 866.386 486.209C866.386 486.149 866.386 486.089 866.386 486.029C866.389 485.648 866.342 485.268 866.246 484.899C866.246 484.829 866.196 484.769 866.176 484.699C866.065 484.348 865.911 484.012 865.716 483.699C865.655 483.599 865.589 483.502 865.516 483.409C865.262 483.025 864.944 482.687 864.576 482.41L844.792 468.413L785.518 351.165C785.073 350.288 784.34 349.59 783.441 349.19C782.542 348.79 781.533 348.712 780.583 348.969C779.634 349.227 778.802 349.803 778.227 350.602C777.653 351.4 777.371 352.373 777.43 353.355L784.158 469.133V469.213C784.153 469.27 784.153 469.327 784.158 469.383C784.19 469.745 784.267 470.101 784.388 470.443C784.438 470.573 784.518 470.703 784.578 470.833C784.698 471.079 784.842 471.314 785.008 471.533C785.103 471.66 785.207 471.78 785.318 471.893C785.502 472.087 785.707 472.261 785.928 472.412C786.051 472.508 786.182 472.595 786.318 472.672C786.398 472.722 786.458 472.782 786.538 472.822L807.632 482.87L796.705 568.846L777.71 546.552C777.141 545.883 776.379 545.405 775.528 545.184C774.678 544.962 773.78 545.008 772.956 545.315C772.133 545.622 771.424 546.175 770.926 546.899C770.428 547.623 770.164 548.483 770.172 549.362L771.112 674.528C771.12 675.392 771.39 676.233 771.886 676.941C772.382 677.649 773.081 678.19 773.89 678.493C774.7 678.796 775.582 678.847 776.421 678.639C777.26 678.431 778.016 677.973 778.59 677.327L871.885 572.045C872.514 571.332 872.887 570.429 872.945 569.479C873.004 568.53 872.744 567.588 872.208 566.802C871.671 566.017 870.888 565.433 869.982 565.142C869.076 564.851 868.099 564.871 867.206 565.197V565.197ZM779.529 663.361L778.79 561.078L795.275 580.373L799.024 584.762L802.783 589.161L806.582 593.6L806.682 593.73C807.159 594.275 807.768 594.69 808.45 594.935C809.132 595.18 809.866 595.247 810.581 595.129C810.866 595.103 811.148 595.046 811.421 594.959L816.23 593.18L854.219 579.134L779.529 663.361ZM829.966 457.876L818.199 449.559C817.892 449.333 817.556 449.152 817.199 449.019C817.079 449.019 816.939 448.969 816.809 448.929C816.567 448.862 816.32 448.815 816.07 448.789C815.923 448.779 815.776 448.779 815.63 448.789C815.395 448.788 815.161 448.808 814.93 448.849C814.774 448.885 814.62 448.932 814.47 448.989C814.328 449.019 814.187 449.06 814.05 449.109C813.97 449.109 813.91 449.209 813.83 449.249C813.758 449.269 813.688 449.296 813.62 449.329L792.346 461.735L787.207 373.329L829.966 457.876ZM797.565 468.583L799.924 467.214L810.401 461.105L809.401 469.383L808.852 473.652V473.942L807.612 473.352L797.565 468.583ZM816.33 482.3L816.639 479.84L816.899 477.841L817.189 475.582L817.719 471.323L819.079 460.656L838.234 474.212L845.712 479.5L851.42 483.499L856.819 487.318L855.439 490.248L852 497.526L810.571 585.092L804.213 577.664L815.78 486.779L816.33 482.3Z" fill="#18A7B5"/>
<path d="M554.96 838.284L446.139 798.165H446.079C446.009 798.165 445.949 798.165 445.889 798.165C445.546 798.051 445.19 797.981 444.83 797.955H444.43C444.14 797.961 443.852 797.998 443.57 798.065L443.14 798.204C442.887 798.299 442.642 798.416 442.41 798.554C442.273 798.634 442.139 798.721 442.011 798.814C441.941 798.874 441.861 798.904 441.791 798.954L424.155 814.18L349.685 769.792L377.728 761.244C378.558 760.983 379.289 760.475 379.823 759.788C380.357 759.101 380.668 758.267 380.716 757.398C380.764 756.529 380.546 755.666 380.09 754.924C379.635 754.182 378.964 753.597 378.168 753.247L263.069 704.03C262.274 703.687 261.393 703.593 260.544 703.762C259.694 703.931 258.916 704.355 258.313 704.976C257.71 705.598 257.31 706.388 257.167 707.242C257.023 708.096 257.143 708.974 257.51 709.758L316.754 837.424C317.097 838.164 317.645 838.79 318.332 839.23C319.019 839.669 319.818 839.903 320.633 839.903C320.902 839.901 321.169 839.875 321.433 839.823C322.377 839.644 323.233 839.152 323.862 838.426C324.492 837.701 324.858 836.784 324.902 835.824L327.681 787.128L396.323 865.766C396.423 865.886 396.543 865.966 396.653 866.076C396.738 866.165 396.828 866.248 396.923 866.326C397.14 866.494 397.375 866.638 397.622 866.756L397.742 866.836C397.955 866.93 398.176 867.004 398.402 867.056L398.622 867.126C398.902 867.185 399.186 867.216 399.472 867.216V867.216C399.858 867.218 400.241 867.164 400.612 867.056C400.991 866.954 401.355 866.799 401.691 866.596L422.416 854.059L553.65 846.511C554.633 846.457 555.567 846.065 556.294 845.402C557.022 844.739 557.498 843.846 557.644 842.872C557.79 841.899 557.595 840.905 557.094 840.058C556.592 839.212 555.814 838.564 554.89 838.224L554.96 838.284ZM438.142 844.652L450.478 837.194C450.814 836.986 451.12 836.734 451.388 836.444C451.47 836.345 451.547 836.242 451.618 836.134C451.781 835.939 451.925 835.728 452.048 835.504C452.118 835.374 452.158 835.225 452.218 835.095C452.303 834.876 452.373 834.652 452.428 834.425C452.458 834.266 452.478 834.106 452.488 833.945C452.518 833.803 452.538 833.66 452.548 833.515C452.552 833.428 452.552 833.342 452.548 833.255C452.552 833.182 452.552 833.108 452.548 833.035L449.678 808.572L532.756 839.203L438.142 844.652ZM319.913 772.791L319.624 777.92L317.324 818.309L269.927 716.277L363.982 756.466L339.718 763.864L334.19 765.543L328.661 767.233L323.073 768.932L322.913 768.982C322.221 769.197 321.596 769.586 321.097 770.111C320.599 770.636 320.243 771.28 320.063 771.982C319.99 772.247 319.939 772.518 319.913 772.791ZM329.271 775.95L338.618 773.111L417.337 820.039L421.206 822.348L423.336 823.618L425.075 824.617L427.075 825.787L430.764 827.986L439.991 833.485L419.886 845.702L412.049 850.44L406.14 854.009L402.781 856.009L400.412 857.439L398.282 854.999L392.984 848.931L329.271 775.95ZM432.923 817.859L441.271 810.631L441.591 813.34L443 825.337L435.882 821.148L432.183 818.949L431.883 818.779L432.923 817.859Z" fill="#18A7B5"/>
<path d="M264.998 373.779C265.826 373.784 266.636 373.544 267.328 373.089L364.611 309.966C364.661 309.966 364.691 309.886 364.741 309.856C365.038 309.644 365.307 309.396 365.541 309.117C365.641 309.007 365.701 308.887 365.791 308.767C365.944 308.538 366.078 308.297 366.191 308.047C366.251 307.897 366.301 307.747 366.351 307.587C366.423 307.335 366.473 307.078 366.501 306.817C366.511 306.654 366.511 306.49 366.501 306.327C366.501 306.247 366.501 306.157 366.501 306.077L364.831 282.814L444.99 249.743L434.992 277.325C434.758 277.969 434.682 278.66 434.771 279.339C434.86 280.018 435.112 280.666 435.504 281.228C435.896 281.79 436.418 282.249 437.025 282.567C437.632 282.885 438.306 283.052 438.991 283.054C439.745 283.053 440.486 282.857 441.141 282.484L549.442 219.741C550.191 219.308 550.792 218.658 551.163 217.876C551.535 217.095 551.66 216.218 551.522 215.364C551.385 214.51 550.991 213.717 550.392 213.092C549.794 212.467 549.02 212.038 548.172 211.863L410.449 182.871C409.517 182.678 408.548 182.801 407.694 183.221C406.841 183.641 406.151 184.333 405.735 185.189C405.318 186.044 405.199 187.014 405.396 187.945C405.592 188.876 406.093 189.714 406.82 190.329L444.16 221.71L340.078 229.608C340.012 229.603 339.945 229.603 339.878 229.608C339.518 229.653 339.165 229.744 338.828 229.878L338.529 229.998C338.477 230.014 338.427 230.034 338.379 230.058C338.044 230.24 337.735 230.465 337.459 230.728L337.309 230.908C337.062 231.175 336.847 231.47 336.669 231.787L336.509 232.107C336.328 232.521 336.206 232.959 336.149 233.407L333.78 257.51L261.429 367.141C261 367.785 260.753 368.534 260.716 369.307C260.679 370.081 260.854 370.85 261.22 371.532C261.587 372.214 262.132 372.783 262.798 373.179C263.463 373.575 264.224 373.782 264.998 373.779ZM332.17 275.716L330.761 290.062C330.71 290.45 330.71 290.843 330.761 291.231C330.761 291.361 330.841 291.471 330.871 291.601C330.934 291.851 331.018 292.095 331.121 292.331C331.191 292.461 331.281 292.581 331.35 292.711C331.472 292.911 331.609 293.102 331.76 293.281C331.87 293.402 331.986 293.515 332.11 293.621C332.206 293.728 332.31 293.828 332.42 293.921C332.486 293.95 332.549 293.983 332.61 294.021C332.69 294.021 332.74 294.141 332.82 294.181L354.124 306.537L279.924 354.744L332.17 275.716ZM343.847 244.474L344.227 240.555L344.497 237.806L347.726 237.556L355.724 236.946L452.308 229.628L448.989 238.815L364.272 273.806L360.103 275.526L357.813 276.475L355.944 277.245L353.834 278.115L349.835 279.754L339.898 283.853L342.198 260.49L342.487 257.54L343.097 251.382L343.847 244.474ZM535.695 217.881L447.189 269.147L455.797 245.284L457.796 239.845L459.796 234.407L461.795 228.918L461.855 228.758C462.096 228.073 462.158 227.337 462.034 226.621C461.909 225.905 461.603 225.233 461.145 224.669C460.978 224.44 460.791 224.226 460.586 224.029L456.647 220.73L425.655 194.737L535.695 217.881ZM356.744 287.562L357.533 298.559L355.174 297.19L344.687 291.111L352.395 287.932L356.394 286.293L356.674 286.173L356.744 287.562Z" fill="#18A7B5"/>
<path d="M657.463 404.891C678.503 404.893 699.072 398.655 716.568 386.967C734.063 375.279 747.7 358.665 755.753 339.227C763.806 319.788 765.915 298.398 761.811 277.762C757.707 257.125 747.576 238.169 732.699 223.29C717.822 208.411 698.866 198.278 678.23 194.173C657.594 190.067 636.204 192.173 616.765 200.225C597.325 208.276 580.71 221.912 569.02 239.406C557.331 256.901 551.091 277.469 551.091 298.509C551.123 326.712 562.34 353.75 582.281 373.694C602.222 393.637 629.26 404.856 657.463 404.891V404.891ZM657.463 200.696C676.811 200.694 695.726 206.43 711.814 217.178C727.903 227.926 740.443 243.204 747.848 261.079C755.253 278.955 757.191 298.624 753.417 317.601C749.643 336.578 740.326 354.01 726.644 367.691C712.963 381.373 695.531 390.69 676.555 394.464C657.578 398.238 637.908 396.3 620.033 388.895C602.157 381.489 586.879 368.95 576.131 352.861C565.383 336.772 559.647 317.858 559.649 298.509C559.675 272.575 569.989 247.71 588.327 229.37C606.664 211.031 631.528 200.715 657.463 200.686V200.696Z" fill="#18A7B5"/>
<path d="M602.447 287.922C601.974 289.933 601.64 291.974 601.447 294.031C601.225 295.935 601.122 297.852 601.137 299.769C601.115 301.772 601.209 303.775 601.417 305.767C602.162 313.183 604.389 320.373 607.966 326.912C611.144 332.717 615.348 337.899 620.372 342.208C624.55 345.836 629.274 348.785 634.368 350.945C636.469 351.853 638.623 352.634 640.817 353.285C642.866 353.834 644.816 354.204 646.485 354.604L651.184 355.174C652.554 355.354 653.653 355.264 654.573 355.314L657.372 355.374C657.651 355.378 657.922 355.278 658.131 355.093C658.34 354.908 658.472 354.652 658.502 354.374C658.517 354.086 658.422 353.803 658.236 353.583C658.051 353.362 657.788 353.22 657.502 353.185L654.703 352.955C653.592 352.898 652.484 352.784 651.384 352.615L647.075 351.805C645.475 351.325 643.696 350.865 641.816 350.245C639.799 349.503 637.826 348.646 635.908 347.676C631.312 345.399 627.107 342.406 623.451 338.808C619.111 334.652 615.534 329.766 612.884 324.372C609.971 318.401 608.291 311.903 607.946 305.268C607.856 303.573 607.856 301.874 607.946 300.179C608.101 296.637 608.648 293.124 609.575 289.702C609.993 287.978 610.537 286.287 611.205 284.643C613.788 277.918 617.799 271.833 622.962 266.808C628.103 261.915 634.242 258.191 640.957 255.891L649.954 289.642C647.156 291.429 645.087 294.157 644.122 297.335C643.156 300.512 643.357 303.93 644.687 306.972C646.018 310.014 648.392 312.482 651.38 313.929C654.369 315.377 657.776 315.71 660.989 314.868C664.201 314.026 667.007 312.065 668.902 309.337C670.796 306.61 671.654 303.296 671.322 299.992C670.989 296.688 669.488 293.611 667.088 291.316C664.688 289.02 661.548 287.657 658.232 287.472L649.334 253.921C653.346 253.303 657.418 253.169 661.461 253.522C667.757 254.096 673.875 255.921 679.456 258.89C684.452 261.557 688.966 265.041 692.813 269.197C696.094 272.716 698.794 276.735 700.811 281.104C701.671 282.907 702.432 284.756 703.09 286.643C703.64 288.412 704.04 290.072 704.47 291.561C704.949 293.904 705.283 296.275 705.469 298.659L705.669 301.199V301.729C705.798 302.962 706.381 304.104 707.305 304.932C708.229 305.759 709.428 306.214 710.668 306.207C711.307 306.19 711.937 306.048 712.521 305.787C713.106 305.527 713.633 305.154 714.073 304.69C714.513 304.226 714.857 303.679 715.086 303.082C715.315 302.485 715.424 301.848 715.407 301.209C715.407 301.209 715.407 300.139 715.327 298.149C715.323 296.921 715.257 295.693 715.127 294.47C714.927 293.031 714.697 291.381 714.437 289.532C713.987 287.712 713.547 285.683 712.927 283.533C712.196 281.206 711.314 278.929 710.288 276.715C704.896 265.025 695.745 255.477 684.295 249.593C677.358 246.072 669.782 243.987 662.021 243.464C656.964 243.114 651.882 243.45 646.915 244.464L643.346 231.028C643.026 229.965 642.305 229.069 641.336 228.528C640.368 227.986 639.227 227.843 638.154 228.127C637.081 228.411 636.161 229.1 635.587 230.05C635.013 231 634.831 232.135 635.078 233.217L638.687 246.813L638.038 247.033C630.147 249.965 623.009 254.618 617.142 260.653C611.274 266.688 606.825 273.954 604.117 281.924C603.413 283.88 602.855 285.884 602.447 287.922V287.922ZM662.821 301.199C662.829 301.993 662.66 302.78 662.327 303.502C661.993 304.223 661.504 304.862 660.893 305.37C660.282 305.879 659.566 306.246 658.796 306.444C658.027 306.642 657.222 306.666 656.442 306.514C655.662 306.363 654.925 306.04 654.285 305.569C653.645 305.097 653.118 304.489 652.742 303.789C652.366 303.089 652.15 302.314 652.111 301.52C652.071 300.726 652.209 299.933 652.514 299.199L653.333 302.298C653.577 303.208 654.113 304.012 654.86 304.587C655.606 305.161 656.52 305.474 657.462 305.477C657.834 305.477 658.204 305.427 658.562 305.328C659.652 305.03 660.58 304.313 661.142 303.333C661.704 302.353 661.855 301.19 661.561 300.099L660.751 297.03C661.389 297.523 661.907 298.154 662.265 298.876C662.624 299.598 662.814 300.392 662.821 301.199Z" fill="#18A7B5"/>
<path d="M730.123 298.499C730.123 299.634 730.574 300.723 731.376 301.525C732.179 302.327 733.267 302.778 734.402 302.778H743.169C744.304 302.778 745.393 302.327 746.195 301.525C746.998 300.723 747.448 299.634 747.448 298.499C747.448 297.365 746.998 296.276 746.195 295.474C745.393 294.671 744.304 294.221 743.169 294.221H734.402C733.267 294.221 732.179 294.671 731.376 295.474C730.574 296.276 730.123 297.365 730.123 298.499Z" fill="#18A7B5"/>
<path d="M571.726 302.778H580.493C581.628 302.778 582.716 302.327 583.519 301.525C584.321 300.723 584.772 299.634 584.772 298.499C584.772 297.365 584.321 296.276 583.519 295.474C582.716 294.671 581.628 294.221 580.493 294.221H571.726C570.591 294.221 569.502 294.671 568.7 295.474C567.898 296.276 567.447 297.365 567.447 298.499C567.447 299.634 567.898 300.723 568.7 301.525C569.502 302.327 570.591 302.778 571.726 302.778Z" fill="#18A7B5"/>
<path d="M711.868 248.363C712.993 248.356 714.07 247.907 714.867 247.113L721.065 240.915C721.549 240.545 721.949 240.075 722.237 239.538C722.524 239 722.694 238.408 722.734 237.8C722.775 237.191 722.685 236.582 722.47 236.011C722.256 235.44 721.922 234.922 721.491 234.491C721.06 234.06 720.541 233.726 719.971 233.512C719.4 233.297 718.79 233.207 718.182 233.247C717.574 233.288 716.981 233.457 716.444 233.745C715.907 234.033 715.437 234.433 715.067 234.917L708.869 241.115C708.274 241.712 707.869 242.472 707.704 243.298C707.539 244.124 707.622 244.981 707.943 245.761C708.263 246.54 708.806 247.208 709.505 247.68C710.203 248.151 711.025 248.407 711.868 248.413V248.363Z" fill="#18A7B5"/>
<path d="M600.008 349.905L593.84 356.104C593.245 356.701 592.84 357.46 592.675 358.287C592.511 359.113 592.594 359.97 592.914 360.75C593.234 361.529 593.778 362.197 594.476 362.668C595.174 363.14 595.996 363.395 596.839 363.402C597.963 363.393 599.04 362.944 599.838 362.152L606.026 355.954C606.788 355.144 607.205 354.069 607.188 352.957C607.171 351.845 606.722 350.783 605.935 349.997C605.149 349.21 604.087 348.761 602.975 348.744C601.863 348.727 600.788 349.144 599.978 349.905H600.008Z" fill="#18A7B5"/>
<path d="M600.008 247.123C600.802 247.921 601.881 248.37 603.007 248.373C603.85 248.367 604.672 248.111 605.37 247.64C606.068 247.168 606.612 246.5 606.932 245.721C607.252 244.941 607.335 244.084 607.171 243.258C607.006 242.432 606.601 241.672 606.006 241.075L599.798 234.877C598.974 234.203 597.929 233.861 596.867 233.916C595.804 233.971 594.8 234.421 594.051 235.176C593.302 235.932 592.861 236.939 592.815 238.002C592.768 239.065 593.119 240.107 593.799 240.925L600.008 247.123Z" fill="#18A7B5"/>
<path d="M657.442 225.819C658.575 225.819 659.662 225.37 660.464 224.569C661.267 223.769 661.719 222.683 661.721 221.55V212.783C661.721 211.648 661.27 210.559 660.468 209.757C659.666 208.954 658.577 208.504 657.442 208.504C656.308 208.504 655.219 208.954 654.417 209.757C653.614 210.559 653.164 211.648 653.164 212.783V221.55C653.166 222.683 653.618 223.769 654.42 224.569C655.222 225.37 656.309 225.819 657.442 225.819Z" fill="#18A7B5"/>
<path d="M657.442 371.19C656.309 371.19 655.222 371.639 654.42 372.439C653.618 373.24 653.166 374.326 653.164 375.459V384.226C653.164 385.361 653.614 386.449 654.417 387.252C655.219 388.054 656.308 388.505 657.442 388.505C658.577 388.505 659.666 388.054 660.468 387.252C661.27 386.449 661.721 385.361 661.721 384.226V375.459C661.719 374.326 661.267 373.24 660.464 372.439C659.662 371.639 658.575 371.19 657.442 371.19V371.19Z" fill="#18A7B5"/>
<path d="M728.364 272.926C728.93 272.93 729.491 272.818 730.013 272.596L738.101 269.187C739.147 268.747 739.975 267.91 740.404 266.859C740.832 265.808 740.825 264.63 740.385 263.584C739.945 262.538 739.107 261.709 738.057 261.281C737.006 260.853 735.828 260.859 734.782 261.299L726.694 264.708C725.786 265.094 725.039 265.781 724.579 266.654C724.119 267.527 723.976 268.532 724.172 269.499C724.369 270.466 724.893 271.336 725.657 271.96C726.421 272.585 727.377 272.926 728.364 272.926V272.926Z" fill="#18A7B5"/>
<path d="M584.842 324.452L576.784 327.911C575.876 328.297 575.129 328.984 574.669 329.857C574.21 330.73 574.066 331.735 574.262 332.702C574.459 333.669 574.983 334.538 575.747 335.163C576.511 335.787 577.467 336.129 578.454 336.129C579.024 336.129 579.589 336.014 580.113 335.789L588.191 332.39C589.237 331.95 590.066 331.112 590.494 330.062C590.922 329.011 590.916 327.833 590.476 326.787C590.035 325.741 589.198 324.912 588.147 324.484C587.096 324.056 585.918 324.062 584.872 324.502L584.842 324.452Z" fill="#18A7B5"/>
<path d="M684.815 231.188C685.865 231.61 687.04 231.6 688.083 231.16C689.127 230.72 689.953 229.885 690.384 228.838L693.693 220.71C694.098 219.663 694.075 218.499 693.63 217.469C693.184 216.439 692.352 215.625 691.312 215.202C690.272 214.78 689.107 214.783 688.07 215.211C687.032 215.64 686.204 216.458 685.765 217.491L682.456 225.609C682.033 226.662 682.044 227.839 682.486 228.884C682.928 229.929 683.765 230.757 684.815 231.188V231.188Z" fill="#18A7B5"/>
<path d="M630.06 365.821C629.008 365.395 627.831 365.404 626.785 365.844C625.74 366.284 624.911 367.121 624.481 368.171L621.182 376.298C620.966 376.82 620.854 377.379 620.855 377.944C620.856 378.509 620.97 379.067 621.188 379.588C621.407 380.109 621.726 380.581 622.128 380.977C622.531 381.374 623.008 381.686 623.532 381.897C624.042 382.108 624.589 382.217 625.141 382.217C625.998 382.222 626.837 381.971 627.55 381.495C628.263 381.019 628.816 380.341 629.14 379.548L632.439 371.43C632.654 370.906 632.762 370.344 632.759 369.778C632.755 369.211 632.64 368.651 632.418 368.13C632.197 367.608 631.875 367.136 631.47 366.739C631.065 366.343 630.586 366.031 630.06 365.821V365.821Z" fill="#18A7B5"/>
<path d="M576.434 270.167L584.552 273.466C585.062 273.678 585.609 273.786 586.162 273.786C587.153 273.785 588.112 273.44 588.877 272.811C589.642 272.181 590.165 271.305 590.356 270.333C590.547 269.36 590.395 268.352 589.926 267.479C589.456 266.607 588.698 265.924 587.781 265.548L579.653 262.239C578.607 261.834 577.442 261.857 576.412 262.302C575.382 262.748 574.568 263.58 574.145 264.62C573.723 265.66 573.726 266.824 574.155 267.862C574.583 268.9 575.402 269.727 576.434 270.167V270.167Z" fill="#18A7B5"/>
<path d="M623.612 229.248C623.937 230.024 624.484 230.687 625.185 231.153C625.886 231.619 626.709 231.868 627.551 231.867C628.121 231.867 628.686 231.752 629.21 231.527C629.728 231.31 630.198 230.993 630.593 230.594C630.987 230.194 631.3 229.721 631.511 229.201C631.723 228.681 631.83 228.124 631.826 227.563C631.823 227.001 631.708 226.446 631.489 225.929L628.09 217.851C627.65 216.805 626.813 215.977 625.762 215.548C624.711 215.12 623.533 215.127 622.487 215.567C621.441 216.007 620.613 216.845 620.184 217.895C619.756 218.946 619.762 220.124 620.203 221.17L623.612 229.248Z" fill="#18A7B5"/>
<path d="M806.222 784.628L804.113 736.721C804.113 721.375 798.704 710.288 788.027 703.78C768.732 692.013 734.971 698.091 704.72 707.779L645.286 685.715C644.317 685.36 643.255 685.36 642.287 685.715L513.521 733.472C512.711 733.781 512.013 734.328 511.521 735.042C511.028 735.757 510.765 736.603 510.765 737.471C510.765 738.338 511.028 739.185 511.521 739.899C512.013 740.613 512.711 741.161 513.521 741.47L565.507 760.735V795.385C565.507 818.049 599.758 835.804 643.486 835.804C687.214 835.804 721.465 818.049 721.465 795.385V761.014L774.091 741.5C774.902 741.191 775.599 740.644 776.092 739.929C776.584 739.215 776.848 738.368 776.848 737.501C776.848 736.633 776.584 735.787 776.092 735.072C775.599 734.358 774.902 733.811 774.091 733.502L717.966 712.688C743.199 705.539 768.872 702.14 783.598 711.118C791.656 716.037 795.595 724.414 795.595 736.941L797.694 784.788C796.035 788.787 791.326 802.113 799.134 809.221C800.423 810.559 802.177 811.35 804.033 811.431C805.141 811.423 806.22 811.074 807.122 810.431C809.911 808.432 810.531 804.433 809.291 796.655C808.644 792.559 807.616 788.533 806.222 784.628V784.628ZM721.245 751.957L717.156 753.477L706.469 757.475L643.826 780.679L581.143 757.435L569.786 753.227L565.787 751.737L527.358 737.491L643.826 694.293L691.923 712.128C674.817 718.326 658.089 725.523 641.827 733.682C640.818 734.202 640.057 735.101 639.711 736.182C639.365 737.262 639.462 738.436 639.982 739.445C640.502 740.454 641.401 741.215 642.482 741.561C643.563 741.907 644.737 741.81 645.746 741.29C664.77 731.821 684.408 723.641 704.53 716.806L760.285 737.491L721.245 751.957ZM712.877 795.415C712.877 812.691 681.086 827.277 643.456 827.277C605.826 827.277 574.025 812.691 574.025 795.415V763.944L642.296 789.257C643.263 789.621 644.329 789.621 645.296 789.257L712.897 764.184L712.877 795.415Z" fill="#18A7B5"/>
<path d="M999.9 640.507L903.626 198.836C903.487 198.204 903.207 197.612 902.808 197.103C902.408 196.594 901.898 196.182 901.317 195.897L501.865 0.439907C501.281 0.148592 500.637 -0.00305176 499.985 -0.00305176C499.333 -0.00305176 498.689 0.148592 498.106 0.439907L98.6834 195.947C98.1022 196.23 97.593 196.642 97.1946 197.151C96.7962 197.661 96.519 198.254 96.384 198.886L0.100021 640.507C-0.0340992 641.12 -0.0319816 641.754 0.106224 642.366C0.24443 642.977 0.515347 643.551 0.899805 644.046L276.265 998.35C276.666 998.864 277.179 999.279 277.765 999.565C278.35 999.851 278.993 1000 279.645 1000H720.336C720.987 1000 721.63 999.851 722.216 999.565C722.801 999.279 723.314 998.864 723.715 998.35L999.1 644.046C999.485 643.551 999.756 642.977 999.894 642.366C1000.03 641.754 1000.03 641.12 999.9 640.507V640.507ZM718.236 991.412H281.734L8.88765 640.377L104.302 202.675L499.955 8.9976L895.698 202.675L991.112 640.377L718.236 991.412Z" fill="#18A7B5"/>
</g>
<defs>
<clipPath id="clip0">
<rect width="1000" height="1000" fill="white"/>
</clipPath>
</defs>
</svg>
