<svg width="1000" height="1000" viewBox="0 0 1000 1000" fill="none" xmlns="http://www.w3.org/2000/svg">
<g clip-path="url(#clip0)">
<path d="M512.331 684.635L561.688 697.812C562.014 697.9 562.35 697.944 562.688 697.941C563.596 697.947 564.475 697.622 565.161 697.026C565.847 696.431 566.293 695.607 566.415 694.707C566.538 693.807 566.328 692.893 565.826 692.136C565.324 691.379 564.564 690.831 563.687 690.594L514.361 677.367C513.401 677.102 512.375 677.229 511.509 677.72C510.643 678.211 510.007 679.027 509.742 679.986C509.477 680.946 509.604 681.972 510.095 682.838C510.586 683.704 511.401 684.34 512.361 684.605L512.331 684.635Z" fill="#18A7B5"/>
<path d="M18.6245 456.697C18.9239 456.698 19.2225 456.664 19.5142 456.597L60.6631 447.879C61.4942 447.705 62.2542 447.286 62.8456 446.677C63.437 446.068 63.8329 445.296 63.9822 444.46L69.5307 413.718L75.6891 453.628L45.9871 459.876H45.8571C45.6307 459.928 45.4097 460.002 45.1973 460.096L44.9374 460.206C44.6509 460.352 44.3797 460.526 44.1276 460.726C44.0935 460.768 44.0567 460.808 44.0176 460.846C43.842 461 43.6782 461.167 43.5278 461.345L43.4678 461.445C43.3978 461.535 43.3478 461.625 43.2878 461.715C43.2278 461.805 43.0679 462.085 42.9679 462.285C42.8679 462.485 42.9179 462.385 42.8979 462.435C42.8779 462.485 42.8979 462.575 42.8379 462.645C42.7774 462.839 42.7274 463.036 42.688 463.235C42.6583 463.36 42.6382 463.487 42.628 463.615C42.608 463.824 42.608 464.035 42.628 464.245C42.628 464.355 42.628 464.465 42.628 464.575C42.628 464.685 42.628 464.635 42.628 464.665L75.819 679.816C75.9743 680.827 76.486 681.748 77.2617 682.414C78.0374 683.079 79.0258 683.445 80.0479 683.445C80.454 683.449 80.8583 683.391 81.2476 683.276L114.499 673.538C115.392 673.277 116.176 672.732 116.732 671.985C117.288 671.238 117.585 670.33 117.578 669.399L116.248 528.857L121.737 528.017L151.878 661.271C152.075 662.141 152.538 662.927 153.203 663.52C153.868 664.113 154.702 664.484 155.588 664.581L189.188 668.18C189.342 668.189 189.495 668.189 189.648 668.18C190.764 668.183 191.838 667.757 192.647 666.99C193.098 666.559 193.448 666.036 193.674 665.455C193.901 664.875 193.997 664.252 193.957 663.631L184.68 518.42L185.589 518.28C186.055 518.201 186.504 518.046 186.919 517.82V517.82L216.141 707.459C216.299 708.467 216.811 709.386 217.587 710.05C218.362 710.714 219.349 711.078 220.37 711.078C220.776 711.081 221.18 711.024 221.57 710.908L254.821 701.181C255.714 700.92 256.498 700.374 257.054 699.627C257.61 698.88 257.907 697.973 257.9 697.042L256.58 556.55L262.059 555.72L292.201 688.964C292.395 689.834 292.857 690.622 293.522 691.216C294.188 691.809 295.023 692.179 295.91 692.273L329.511 695.882H329.97C330.554 695.879 331.131 695.757 331.666 695.524C332.201 695.29 332.683 694.951 333.082 694.525C333.482 694.099 333.79 693.597 333.989 693.048C334.188 692.499 334.273 691.916 334.239 691.333L327.801 590.64L358.743 581.583C359.636 581.323 360.42 580.778 360.974 580.03C361.528 579.283 361.823 578.374 361.812 577.444L360.812 468.474L371.729 466.164C372.074 466.085 372.41 465.968 372.729 465.814L396.153 569.396C396.353 570.265 396.818 571.051 397.484 571.644C398.151 572.237 398.985 572.608 399.872 572.705L433.472 576.304H433.922C435.039 576.317 436.117 575.889 436.922 575.115C437.375 574.687 437.728 574.163 437.954 573.582C438.181 573.002 438.275 572.378 438.231 571.756L428.884 426.575L429.793 426.435C430.263 426.358 430.715 426.202 431.133 425.975L431.443 425.785C431.816 425.564 432.153 425.288 432.443 424.965L432.513 424.885C432.748 424.603 432.943 424.291 433.093 423.956C433.115 423.868 433.141 423.781 433.173 423.696C433.173 423.576 433.243 423.466 433.273 423.346C433.39 422.943 433.448 422.525 433.442 422.106C433.442 422.056 433.442 422.016 433.442 421.976L427.184 307.567L439.811 350.145C440.072 351.03 440.612 351.805 441.351 352.357C442.09 352.908 442.988 353.206 443.91 353.205C444.208 353.204 444.507 353.174 444.799 353.115L475.651 346.586C476.239 346.462 476.794 346.215 477.28 345.862C477.766 345.509 478.172 345.057 478.472 344.536C478.772 344.016 478.959 343.438 479.02 342.84C479.082 342.243 479.017 341.639 478.83 341.068L418.886 159.217C418.886 159.217 418.886 159.157 418.886 159.127C418.726 158.662 418.486 158.229 418.177 157.847V157.847C417.934 157.553 417.651 157.294 417.337 157.078V157.078C417.029 156.863 416.692 156.691 416.337 156.568V156.568C416.014 156.457 415.678 156.386 415.337 156.358H415.067C414.951 156.348 414.834 156.348 414.718 156.358L369.19 158.357L364.471 117.968L386.895 113.969C387.376 113.875 387.839 113.703 388.265 113.459C388.4 113.374 388.527 113.277 388.645 113.169C388.901 112.987 389.139 112.779 389.354 112.55C389.47 112.41 389.577 112.263 389.674 112.11C389.836 111.867 389.974 111.61 390.084 111.34C390.158 111.161 390.218 110.978 390.264 110.79C390.31 110.68 390.347 110.566 390.374 110.45C390.389 110.254 390.389 110.057 390.374 109.86C390.374 109.73 390.424 109.62 390.424 109.5L385.345 25.3632C385.314 24.7713 385.16 24.1925 384.892 23.6636C384.625 23.1347 384.25 22.6673 383.792 22.2911C383.334 21.9149 382.803 21.6383 382.232 21.4787C381.661 21.3191 381.063 21.2801 380.477 21.3643L333.609 27.9925C333.02 28.0751 332.455 28.2799 331.95 28.5937C331.445 28.9075 331.011 29.3234 330.676 29.8147C330.341 30.306 330.112 30.8619 330.004 31.4468C329.897 32.0317 329.912 32.6326 330.05 33.2111L343.597 90.8155L336.469 91.3953C336.109 91.4196 335.756 91.4971 335.419 91.6253L335.119 91.7452C334.891 91.8493 334.67 91.9696 334.459 92.1052L334.179 92.2951C333.968 92.473 333.771 92.6668 333.589 92.8749C333.539 92.9349 333.469 92.9849 333.429 93.0449L333.369 93.1049C333.184 93.3767 333.03 93.6684 332.91 93.9746C332.91 94.0246 332.91 94.0846 332.91 94.1346C332.812 94.4033 332.741 94.6814 332.7 94.9644C332.7 95.0843 332.7 95.1943 332.7 95.3143C332.68 95.5605 332.68 95.8079 332.7 96.0541V96.384C332.705 96.4339 332.705 96.4841 332.7 96.534L346.466 159.237L337.778 159.617L293.93 161.556C293.503 161.589 293.083 161.68 292.68 161.826L292.431 161.926C292.068 162.098 291.731 162.32 291.431 162.586C291.371 162.586 291.321 162.696 291.261 162.756C291.131 162.866 291.011 162.986 290.901 163.116C290.764 163.284 290.643 163.465 290.541 163.656C290.508 163.7 290.477 163.747 290.451 163.796C290.25 164.18 290.105 164.59 290.021 165.015C290.021 165.065 290.021 165.095 290.021 165.145L284.833 197.537L281.454 144.961C281.422 144.369 281.268 143.79 281 143.261C280.733 142.732 280.358 142.265 279.9 141.889C279.442 141.513 278.911 141.236 278.34 141.076C277.769 140.917 277.172 140.878 276.585 140.962L229.697 147.59C229.11 147.676 228.546 147.882 228.042 148.197C227.538 148.511 227.105 148.927 226.769 149.417C226.434 149.908 226.204 150.462 226.094 151.046C225.983 151.63 225.995 152.23 226.128 152.809L239.675 210.423L232.547 210.993C232.205 211.026 231.869 211.104 231.547 211.223L231.237 211.353C231.011 211.452 230.794 211.569 230.587 211.703C230.491 211.765 230.397 211.831 230.307 211.903C230.088 212.071 229.887 212.262 229.707 212.473L229.548 212.643L229.488 212.713C229.29 212.982 229.125 213.274 228.998 213.582C228.998 213.582 228.998 213.692 228.998 213.742C228.895 214.01 228.822 214.289 228.778 214.572C228.768 214.685 228.768 214.799 228.778 214.912C228.758 215.158 228.758 215.406 228.778 215.652C228.778 215.762 228.778 215.882 228.778 215.992C228.778 216.102 228.778 216.082 228.778 216.132L242.474 278.925L233.786 279.315L189.948 281.204C189.524 281.24 189.107 281.334 188.709 281.484L188.459 281.584C188.079 281.749 187.726 281.968 187.409 282.234C187.345 282.283 187.288 282.34 187.239 282.404C187.108 282.516 186.985 282.636 186.869 282.764C186.736 282.933 186.619 283.113 186.519 283.304L186.419 283.453C186.222 283.834 186.08 284.242 185.999 284.663C185.999 284.713 185.999 284.753 185.949 284.803V285.093L174.752 251.102C174.736 251.064 174.716 251.027 174.692 250.992C174.536 250.547 174.306 250.131 174.013 249.763L173.933 249.673C173.69 249.387 173.411 249.135 173.103 248.923V248.923C172.792 248.718 172.456 248.553 172.103 248.433V248.433C171.782 248.314 171.445 248.244 171.103 248.223H170.873C170.753 248.223 170.643 248.223 170.523 248.223L124.986 250.222L120.337 209.843L142.781 205.904C143.263 205.812 143.726 205.64 144.151 205.395C144.291 205.305 144.411 205.205 144.54 205.105C144.798 204.923 145.035 204.715 145.25 204.485C145.363 204.345 145.466 204.198 145.56 204.045C145.724 203.804 145.861 203.546 145.97 203.275C146.048 203.094 146.112 202.907 146.16 202.715C146.203 202.607 146.239 202.497 146.27 202.385C146.285 202.189 146.285 201.992 146.27 201.796C146.296 201.677 146.313 201.557 146.32 201.436L141.241 117.288C141.208 116.699 141.053 116.124 140.784 115.599C140.515 115.074 140.14 114.611 139.682 114.239C139.224 113.865 138.693 113.59 138.124 113.43C137.555 113.27 136.959 113.229 136.373 113.309L89.3754 119.968C88.7856 120.049 88.2193 120.253 87.7129 120.566C87.2066 120.879 86.7714 121.295 86.4353 121.787C86.0991 122.278 85.8695 122.834 85.7612 123.42C85.6529 124.005 85.6683 124.607 85.8063 125.186L99.3527 182.791L92.2246 183.361C91.8824 183.397 91.5464 183.478 91.2249 183.6C91.1193 183.634 91.0159 183.674 90.915 183.72C90.6869 183.818 90.4692 183.939 90.2651 184.08L89.9852 184.27C89.7661 184.443 89.5651 184.637 89.3854 184.85L89.2254 185.02L89.1654 185.08C88.9711 185.35 88.81 185.642 88.6856 185.95V185.95C88.6856 186.01 88.6856 186.06 88.6856 186.11C88.5903 186.38 88.5167 186.658 88.4656 186.94C88.4557 187.056 88.4557 187.173 88.4656 187.289C88.4456 187.536 88.4456 187.783 88.4656 188.029C88.4656 188.139 88.4656 188.249 88.4656 188.359C88.4656 188.469 88.4656 188.459 88.4656 188.499L102.232 251.212L93.5443 251.592L49.6961 253.532C49.2711 253.562 48.8532 253.656 48.4564 253.811L48.1965 253.901C47.8332 254.072 47.4965 254.294 47.1968 254.561L47.0268 254.731C46.8915 254.838 46.7675 254.959 46.6569 255.091C46.5222 255.261 46.4018 255.441 46.297 255.631C46.2706 255.68 46.2405 255.727 46.207 255.771C46.0093 256.155 45.8679 256.566 45.7871 256.991C45.7871 257.041 45.7871 257.071 45.7871 257.121L14.4056 451.738C14.299 452.352 14.3283 452.982 14.4913 453.584C14.6544 454.186 14.9473 454.745 15.3494 455.221C15.7515 455.698 16.2531 456.08 16.8189 456.342C17.3847 456.604 18.001 456.739 18.6245 456.737V456.697ZM101.332 191.168V191.308L101.212 191.168H101.332ZM132.874 122.407L137.202 194.198L137.442 198.107L135.933 198.366L119.247 201.296L115.028 202.035L112.769 202.435L109.96 190.439L108.96 186.23L107.96 182.011L95.2038 127.736L132.874 122.407ZM106.171 210.123C106.57 210.596 107.067 210.977 107.629 211.237C108.19 211.498 108.801 211.633 109.42 211.633H109.53C109.778 211.632 110.025 211.612 110.27 211.573L111.789 211.303L116.308 250.582L110.83 250.832L100.412 203.395L106.171 210.123ZM108.35 259.49L112.689 259.3L117.288 259.09L121.577 258.9L125.856 258.71L141.101 258.04L145.38 257.85L166.565 256.911V257.67L170.364 327.162L171.363 345.597L172.363 364.042L172.563 367.731L158.567 454.997L157.807 459.726L157.137 463.915L157.057 464.455L156.137 470.193L155.138 476.471L154.668 479.421C154.568 480.037 154.605 480.668 154.776 481.268C154.947 481.869 155.247 482.425 155.656 482.897C156.065 483.369 156.573 483.745 157.143 484C157.713 484.254 158.332 484.38 158.957 484.369C159.255 484.369 159.554 484.339 159.846 484.279L160.246 484.189L164.745 483.24L169.234 482.29L173.703 481.35L177.931 480.45L178.781 480.27L179.781 498.415L180.251 506.953L180.441 510.462L179.861 510.542L177.702 510.872L175.622 511.192L128.345 518.38L124.096 519.03L119.857 519.67L116.188 520.23L111.919 520.879L107.65 521.539L95.1338 523.439L86.2062 465.594L85.5564 461.355L85.3965 460.356L84.8966 457.147L84.7466 456.147L84.0668 451.878L74.1995 387.895L72.2 374.899L70.2006 361.902L54.7747 261.929L78.4683 260.88L92.8844 260.24L97.2633 260.05L104.021 259.75L108.35 259.49ZM182.91 303.478L179.011 327.831L176.632 284.423L182.91 303.478ZM241.654 218.831V218.981L241.534 218.841L241.654 218.831ZM273.196 150.069L277.525 221.86L277.765 225.769L276.255 226.039L259.569 228.938L255.351 229.678L253.091 230.068L250.282 218.121L249.282 213.902L248.282 209.693L235.506 155.378L273.196 150.069ZM377.168 30.5018L381.497 102.292L381.726 106.201L380.217 106.461L363.541 109.39L359.312 110.13L357.063 110.53L354.254 98.5334L353.254 94.3246L352.254 90.1057L339.448 35.8403L377.168 30.5018ZM345.606 99.4132L345.496 99.2732H345.576L345.606 99.4132ZM350.405 118.228C350.805 118.702 351.304 119.083 351.867 119.344C352.43 119.605 353.044 119.739 353.664 119.738H353.774C354.022 119.737 354.269 119.717 354.514 119.678L356.023 119.408L360.552 158.687L355.064 158.927L344.656 111.49L350.405 118.228ZM352.594 167.595L356.923 167.405L361.532 167.195L365.811 167.005L370.1 166.815L385.345 166.145L389.624 165.955L410.799 165.015V165.775L414.598 235.266L415.597 253.702L416.597 272.147L421.346 357.903L424.005 406.56L424.475 415.088L424.665 418.597L424.085 418.687L421.926 419.007L419.836 419.327L372.559 426.525L368.32 427.165L364.081 427.804L360.312 416.358L355.903 402.961L351.505 389.595L345.906 372.599L344.526 368.411L343.527 365.481L343.107 364.222L342.177 361.392L340.907 357.314L319.273 291.631L316.544 283.363L316.484 282.964L314.485 269.967L298.999 169.954L322.702 168.954L337.118 168.315L341.497 168.125L348.255 167.825L352.594 167.595ZM469.193 339.208L446.879 343.907L425.155 270.657L420.886 192.538L469.193 339.208ZM403.79 564.528L374.448 434.883L420.386 427.884L429.294 567.277L403.79 564.528ZM353.234 574.305L327.771 581.753L326.911 575.844L325.012 546.173L325.922 546.033C326.388 545.95 326.837 545.791 327.251 545.563C327.361 545.505 327.468 545.442 327.571 545.373C327.947 545.156 328.284 544.879 328.571 544.553L328.641 544.483C328.873 544.196 329.068 543.88 329.221 543.543C329.252 543.461 329.279 543.378 329.301 543.293C329.301 543.173 329.371 543.053 329.411 542.943C329.525 542.54 329.578 542.123 329.571 541.704C329.571 541.654 329.571 541.614 329.571 541.564L323.312 427.165L335.909 469.723C336.175 470.606 336.718 471.381 337.458 471.932C338.198 472.482 339.095 472.781 340.018 472.782C340.314 472.784 340.609 472.75 340.897 472.682L352.284 470.283L353.234 574.305ZM299.919 684.095L270.586 554.43L313.915 547.852L316.494 547.462L318.374 576.774L325.372 686.854L299.919 684.095ZM271.826 277.575L265.198 277.875L260.549 237.486L278.754 234.297L271.826 277.575ZM356.443 460.646L352.164 461.555L342.957 463.505L336.179 440.661L334.279 434.263L330.41 421.196L327.691 412.029L321.233 390.255L320.363 374.419L320.143 370.42V370.12L319.913 366.121V365.901L319.693 361.822L319.553 359.163L317.174 315.715L316.974 312.146L324.452 334.82L332.45 359.123L333.799 363.212L334.349 364.881L335.149 367.291L335.729 369.06L337.108 373.259L351.775 417.777L355.513 429.114L356.183 431.114L356.863 433.203L358.223 437.332L360.582 444.48L365.291 458.776L360.732 459.776L356.443 460.646ZM306.707 276.035L280.554 277.195L293.97 193.448L306.707 276.035ZM246.493 237.806C246.894 238.276 247.392 238.654 247.953 238.912C248.514 239.171 249.124 239.305 249.742 239.305H249.852C250.1 239.305 250.347 239.285 250.592 239.245L252.111 238.985L256.63 278.265L251.152 278.505L240.735 231.058L246.493 237.806ZM248.672 287.162L253.011 286.973L257.61 286.773L261.899 286.583L266.178 286.393L270.436 286.203L274.805 286.013L279.164 285.813L281.424 285.713L285.702 285.523L306.887 284.593V285.343L307.986 305.488L308.986 323.983L309.986 342.478L310.666 354.834L311.146 363.582L311.295 366.481L311.375 367.911L311.535 370.75L311.615 372.229L311.675 373.279L311.765 375.019L312.685 391.724L312.925 396.143L313.365 404.271L313.815 412.409L317.364 477.451L320.023 526.098L320.493 534.626V535.136L320.653 538.135L320.073 538.225L317.914 538.545L316.714 538.735L315.914 538.854L312.565 539.364L268.637 546.053L264.388 546.702L260.149 547.342L256.49 547.902L252.211 548.552L247.933 549.202L235.426 551.101L226.498 493.257L225.849 489.018L225.689 488.018L225.199 484.809L225.039 483.809L224.379 479.58L218.471 441.261L217.821 437.022L217.171 432.783L214.512 415.568L212.512 402.571L210.513 389.575L209.853 385.296L205.854 359.593L201.855 333.88L195.027 289.572L218.72 288.522L233.137 287.882L237.515 287.692L244.274 287.392L248.672 287.162ZM249.312 693.883L223.849 701.331L194.257 509.382L228.348 558.369C228.553 558.662 228.795 558.928 229.068 559.159L229.168 559.229C229.472 559.476 229.808 559.681 230.167 559.839C230.273 559.889 230.384 559.929 230.497 559.959C230.915 560.108 231.354 560.189 231.797 560.199C232.013 560.218 232.231 560.218 232.447 560.199L248.033 557.849L249.312 693.883ZM159.546 656.423L130.214 526.748L176.152 519.75L185.05 659.142L159.546 656.423ZM194.397 494.626L217.321 489.778L217.941 493.867L224.799 538.345L195.007 495.496L194.397 494.626ZM187.239 478.481L200.945 475.572C201.777 475.392 202.536 474.971 203.129 474.361C203.721 473.751 204.12 472.979 204.274 472.142L209.503 443.15L210.063 443.03L215.971 481.35L187.679 487.348L187.239 478.481ZM193.567 335.849L205.844 415.418L202.345 434.883L201.345 440.501L200.525 445.04L196.416 467.824L186.789 469.823L182.55 470.723L181.62 470.913L178.321 471.613L177.392 471.813L173.163 472.702L164.215 474.602V474.542L166.305 461.545L167.054 456.817L167.814 452.088L174.872 408.03L178.071 388.085L178.611 384.716L180.171 374.949L181.261 368.151L181.74 365.151L188.739 321.163L190.048 312.995L193.567 335.849ZM108.97 666.2L83.507 673.648L53.905 481.7L88.0058 530.687C88.2107 530.983 88.4526 531.252 88.7256 531.486L88.8255 531.546C89.1281 531.799 89.4646 532.007 89.8253 532.166L90.1552 532.286C90.5763 532.434 91.0187 532.511 91.4648 532.516V532.516C91.679 532.514 91.8928 532.498 92.1046 532.466L107.64 530.107L108.97 666.2ZM54.0749 466.954L76.9787 462.095L77.6086 466.204L84.4667 510.682L54.6947 467.874L54.0749 466.954ZM65.5218 387.735L56.0744 440.111L23.8331 446.939L49.7261 285.343L65.5218 387.735Z" fill="#18A7B5"/>
<path d="M669.959 673.678C669.988 674.792 670.45 675.851 671.247 676.629C672.044 677.408 673.114 677.845 674.228 677.847H674.338L723.865 676.577C724.963 676.512 725.994 676.026 726.743 675.22C727.493 674.415 727.903 673.351 727.889 672.251C727.875 671.151 727.437 670.098 726.667 669.312C725.897 668.526 724.854 668.067 723.755 668.03H723.645L674.118 669.299C672.987 669.331 671.914 669.809 671.134 670.63C670.355 671.45 669.932 672.547 669.959 673.678V673.678Z" fill="#18A7B5"/>
<path d="M713.987 627.351L658.512 647.395C657.569 647.74 656.776 648.406 656.274 649.276C655.772 650.147 655.593 651.166 655.767 652.155C655.941 653.145 656.458 654.042 657.226 654.688C657.995 655.335 658.967 655.691 659.972 655.693C660.466 655.693 660.956 655.608 661.422 655.443L716.887 635.448C717.923 635.041 718.759 634.246 719.219 633.231C719.678 632.217 719.724 631.064 719.346 630.016C718.969 628.969 718.198 628.109 717.197 627.621C716.197 627.133 715.045 627.054 713.987 627.401V627.351Z" fill="#18A7B5"/>
<path d="M685.165 572.255L628.731 637.948C628.354 638.372 628.066 638.867 627.883 639.404C627.699 639.941 627.625 640.509 627.663 641.076C627.701 641.642 627.852 642.195 628.106 642.702C628.36 643.209 628.712 643.661 629.143 644.031C629.573 644.401 630.072 644.682 630.612 644.857C631.152 645.032 631.721 645.098 632.286 645.051C632.852 645.004 633.402 644.845 633.906 644.583C634.409 644.321 634.856 643.962 635.219 643.526L691.654 577.844C692.03 577.419 692.318 576.924 692.502 576.387C692.685 575.85 692.76 575.282 692.721 574.716C692.683 574.15 692.532 573.597 692.278 573.09C692.024 572.582 691.672 572.131 691.242 571.761C690.812 571.391 690.312 571.11 689.772 570.935C689.233 570.76 688.663 570.694 688.098 570.741C687.532 570.788 686.982 570.947 686.479 571.209C685.975 571.47 685.529 571.83 685.165 572.265V572.255Z" fill="#18A7B5"/>
<path d="M625.741 558.339C624.674 557.953 623.497 558.007 622.47 558.489C621.442 558.971 620.649 559.841 620.263 560.909L594.54 632.049C594.284 633.075 594.418 634.159 594.915 635.092C595.411 636.026 596.236 636.742 597.229 637.103C598.223 637.465 599.315 637.446 600.295 637.05C601.275 636.653 602.074 635.909 602.538 634.959L628.311 563.848C628.508 563.318 628.597 562.754 628.574 562.189C628.552 561.624 628.417 561.069 628.178 560.556C627.939 560.044 627.6 559.584 627.182 559.203C626.764 558.823 626.274 558.529 625.741 558.339Z" fill="#18A7B5"/>
<path d="M562.418 632.719H562.598C563.731 632.672 564.799 632.177 565.568 631.343C566.337 630.509 566.743 629.404 566.697 628.27L563.218 543.853C563.171 542.718 562.676 541.648 561.841 540.879C561.005 540.109 559.899 539.703 558.764 539.749C557.629 539.796 556.559 540.291 555.789 541.126C555.02 541.961 554.613 543.068 554.66 544.203L558.149 628.65C558.203 629.747 558.676 630.78 559.47 631.538C560.265 632.295 561.32 632.718 562.418 632.719V632.719Z" fill="#18A7B5"/>
<path d="M449.259 598.838C448.925 599.293 448.684 599.81 448.55 600.358C448.417 600.906 448.393 601.476 448.48 602.033C448.568 602.591 448.764 603.125 449.059 603.606C449.354 604.088 449.741 604.506 450.198 604.837L497.306 639.117C497.756 639.496 498.28 639.777 498.844 639.944C499.408 640.11 500 640.159 500.583 640.087C501.167 640.014 501.73 639.823 502.236 639.523C502.742 639.224 503.181 638.823 503.525 638.346C503.87 637.87 504.112 637.327 504.238 636.753C504.363 636.178 504.369 635.584 504.254 635.007C504.139 634.43 503.907 633.883 503.572 633.4C503.236 632.917 502.805 632.508 502.304 632.199L455.207 597.919C454.294 597.258 453.158 596.984 452.044 597.156C450.93 597.328 449.929 597.933 449.259 598.838V598.838Z" fill="#18A7B5"/>
<path d="M533.227 634.319C534.003 634.318 534.764 634.104 535.426 633.699C536.392 633.109 537.085 632.16 537.353 631.06C537.621 629.96 537.442 628.799 536.856 627.83L497.006 561.748C496.414 560.79 495.468 560.103 494.372 559.838C493.277 559.573 492.121 559.751 491.156 560.333C490.191 560.914 489.495 561.854 489.218 562.946C488.941 564.038 489.107 565.196 489.678 566.167L529.558 632.249C529.939 632.881 530.477 633.404 531.12 633.767C531.763 634.129 532.488 634.32 533.227 634.319V634.319Z" fill="#18A7B5"/>
<path d="M471.993 655.523C472.981 655.521 473.938 655.177 474.702 654.55C475.465 653.922 475.988 653.05 476.181 652.08C476.374 651.111 476.226 650.105 475.761 649.233C475.297 648.36 474.544 647.676 473.632 647.295L420.027 625.151C419.506 624.928 418.946 624.81 418.379 624.805C417.813 624.8 417.251 624.907 416.726 625.121C416.201 625.335 415.724 625.651 415.323 626.05C414.921 626.45 414.603 626.925 414.386 627.449C414.17 627.973 414.059 628.534 414.062 629.101C414.064 629.667 414.179 630.228 414.399 630.75C414.62 631.272 414.942 631.745 415.347 632.141C415.752 632.537 416.231 632.849 416.758 633.059L470.363 655.203C470.88 655.415 471.434 655.523 471.993 655.523V655.523Z" fill="#18A7B5"/>
<path d="M387.156 666.75H387.006C385.905 666.78 384.858 667.234 384.083 668.017C383.308 668.799 382.865 669.851 382.845 670.952C382.826 672.053 383.232 673.12 383.979 673.929C384.726 674.739 385.757 675.229 386.856 675.298L447.62 677.427H447.77C448.904 677.447 450.001 677.015 450.817 676.227C451.634 675.438 452.103 674.358 452.123 673.223C452.143 672.088 451.711 670.992 450.923 670.176C450.135 669.359 449.054 668.889 447.919 668.869L387.156 666.75Z" fill="#18A7B5"/>
<path d="M771.392 745.299C771.322 745.229 771.242 745.179 771.172 745.119L770.832 744.859C770.613 744.71 770.383 744.579 770.142 744.469C770.022 744.469 769.912 744.359 769.792 744.319C769.438 744.189 769.068 744.108 768.692 744.079H768.632C768.522 744.079 768.412 744.079 768.303 744.079C768.067 744.054 767.829 744.054 767.593 744.079C767.546 744.076 767.499 744.076 767.453 744.079C767.323 744.079 767.203 744.159 767.073 744.199C766.825 744.28 766.585 744.38 766.353 744.499L765.993 744.719C765.776 744.867 765.574 745.038 765.393 745.229C765.303 745.319 765.203 745.399 765.113 745.499C764.857 745.802 764.642 746.138 764.474 746.498L752.477 773.541L727.174 757.355C726.732 757.075 726.245 756.876 725.734 756.766L680.046 747.408C679.553 747.323 679.05 747.323 678.557 747.408L645.416 752.327V727.434L668.27 719.516C668.791 719.337 669.267 719.044 669.661 718.658C670.055 718.273 670.359 717.804 670.549 717.286C670.742 716.77 670.82 716.218 670.777 715.669C670.734 715.12 670.57 714.587 670.299 714.107L646.995 673.418C646.942 673.349 646.885 673.282 646.825 673.218C646.65 672.968 646.449 672.737 646.226 672.528C646.118 672.421 646.001 672.324 645.876 672.238C645.61 672.04 645.312 671.888 644.996 671.789C644.896 671.789 644.786 671.699 644.676 671.669H644.596L556.13 650.954C555.465 650.822 554.778 650.856 554.13 651.054L490.967 671.819C490.907 671.819 490.897 671.879 490.837 671.889C490.554 672.01 490.286 672.165 490.038 672.348L489.968 672.408C489.846 672.459 489.731 672.527 489.628 672.608L457.187 701.78C456.62 702.286 456.221 702.952 456.042 703.69C455.864 704.428 455.914 705.203 456.186 705.911C456.459 706.62 456.94 707.229 457.567 707.657C458.194 708.085 458.937 708.313 459.696 708.309C460.135 708.305 460.57 708.231 460.985 708.089L480.87 700.641C481.751 700.261 482.453 699.558 482.83 698.675C483.207 697.793 483.23 696.799 482.895 695.9C482.56 695.001 481.892 694.266 481.029 693.845C480.166 693.425 479.175 693.353 478.261 693.643L476.851 694.173L488.438 683.755L494.087 678.687L488.438 683.765V783.179L486.289 783.898C485.591 784.134 484.965 784.546 484.473 785.094C483.981 785.642 483.639 786.308 483.479 787.027L480.63 799.784C480.451 800.585 480.506 801.42 480.79 802.189C481.074 802.959 481.574 803.631 482.23 804.123L510.862 825.607L511.222 825.847L538.075 842.023C538.44 842.247 538.838 842.412 539.254 842.513L579.094 852.4C579.516 852.501 579.95 852.538 580.383 852.51L633.589 849.331L725.804 841.853L752.717 863.587C752.768 863.621 752.821 863.651 752.877 863.677C753.183 863.911 753.519 864.103 753.876 864.247C754.04 864.297 754.207 864.337 754.376 864.367C754.592 864.435 754.813 864.489 755.036 864.527H755.396C755.732 864.528 756.068 864.491 756.396 864.417L756.516 864.367C756.631 864.333 756.745 864.293 756.856 864.247C757.094 864.164 757.325 864.06 757.545 863.937L757.865 863.737C758.072 863.586 758.266 863.419 758.445 863.237C758.525 863.157 758.615 863.077 758.685 862.997C758.927 862.708 759.135 862.393 759.305 862.057L768.303 842.792L806.292 881.082C806.673 881.532 807.143 881.898 807.673 882.157C808.202 882.417 808.779 882.564 809.368 882.59C809.957 882.616 810.545 882.52 811.095 882.308C811.645 882.096 812.145 881.773 812.564 881.359C812.984 880.944 813.313 880.448 813.531 879.9C813.749 879.353 813.852 878.766 813.833 878.177C813.814 877.588 813.673 877.009 813.42 876.476C813.167 875.944 812.806 875.47 812.361 875.084L811.981 874.694L772.141 834.575L768.932 831.336L765.723 828.106L746.308 808.572L756.236 786.218L757.345 783.708L757.995 782.259L759.745 778.26L769.742 755.696L771.032 756.976L777.49 763.364L845.602 830.776C845.722 830.906 845.892 830.946 846.022 831.056C846.835 831.703 847.857 832.029 848.895 831.972C849.932 831.915 850.913 831.478 851.65 830.746C852.449 829.942 852.898 828.855 852.898 827.722C852.898 826.588 852.449 825.501 851.65 824.697L771.392 745.299ZM761.864 836.364L756.436 848.011L749.798 824.178L761.864 836.364ZM737.291 807.782C737.112 808.212 737.001 808.667 736.961 809.132C736.951 809.275 736.951 809.418 736.961 809.561C736.959 809.877 736.993 810.193 737.061 810.501C737.056 810.561 737.056 810.621 737.061 810.681L747.668 848.581L729.803 834.125C729.045 833.497 728.097 833.144 727.114 833.125H726.804L632.959 840.773L580.493 843.912L541.904 834.345L515.801 818.619L497.806 805.093L489.538 798.874L491.237 791.186L495.846 789.627L497.446 789.097L539.494 806.812C539.967 807.011 540.472 807.123 540.984 807.142L573.895 808.452H575.125C575.291 808.462 575.458 808.462 575.625 808.452L581.363 808.002L607.976 806.002C608.233 805.984 608.487 805.94 608.736 805.872L623.732 801.874L645.316 796.205L651.194 794.665C652.036 794.432 652.787 793.945 653.345 793.272C653.902 792.599 654.24 791.771 654.313 790.9C654.386 790.029 654.191 789.156 653.753 788.399C653.315 787.643 652.656 787.038 651.864 786.668L645.396 783.788L637.928 780.419L631.709 777.63L631.31 777.47L604.247 768.472L595.569 757.206L594.839 750.397L637.968 760.285L642.107 761.284C642.625 761.404 643.161 761.424 643.686 761.344L645.436 761.084L679.087 756.086L723.255 765.083L748.988 781.539L737.291 807.782ZM637.928 724.804C637.925 724.313 638.02 723.826 638.206 723.371C638.392 722.916 638.666 722.503 639.013 722.155C639.359 721.806 639.771 721.53 640.225 721.341C640.679 721.152 641.165 721.055 641.657 721.055V721.055C640.667 721.063 639.72 721.461 639.022 722.163C638.323 722.865 637.93 723.814 637.928 724.804V724.804ZM647.465 675.118C647.514 675.928 647.296 676.733 646.845 677.408C646.393 678.083 645.734 678.592 644.966 678.857C645.729 678.591 646.386 678.085 646.836 677.414C647.287 676.744 647.508 675.945 647.465 675.138V675.118ZM640.467 677.117L641.997 679.826L661.521 713.897L608.046 732.502L593.05 710.948C592.78 710.522 592.427 710.154 592.012 709.868C591.597 709.581 591.128 709.382 590.633 709.281C590.139 709.181 589.629 709.182 589.135 709.283C588.641 709.385 588.172 709.586 587.758 709.873C587.343 710.161 586.991 710.53 586.723 710.957C586.455 711.384 586.275 711.861 586.196 712.36C586.117 712.858 586.14 713.367 586.263 713.856C586.386 714.346 586.606 714.805 586.912 715.207L603.467 739.12C603.816 739.616 604.279 740.02 604.816 740.3C605.354 740.58 605.95 740.728 606.556 740.73C606.975 740.726 607.391 740.652 607.786 740.51L637.908 730.083V751.507L590.84 740.71C590.175 740.559 589.483 740.57 588.822 740.741C588.161 740.912 587.551 741.238 587.042 741.693C586.533 742.148 586.141 742.718 585.897 743.356C585.653 743.994 585.566 744.68 585.642 745.359L587.221 759.285C587.303 760.058 587.601 760.793 588.081 761.404L598.278 774.661C598.787 775.329 599.483 775.83 600.278 776.1L628.38 785.468L637.378 789.527L606.946 797.525L581.373 799.524V700.911L578.874 701.771C578.4 701.942 577.896 702.014 577.394 701.98C577.884 702.025 578.378 701.968 578.844 701.81L581.363 700.951L641.977 679.956L640.447 677.267C640.196 676.831 640.036 676.348 639.977 675.848C640.056 676.324 640.23 676.779 640.487 677.187L640.467 677.117ZM495.866 678.047L555.4 658.512L630.27 676.037L576.414 694.722C576.414 694.722 576.364 694.722 576.304 694.772C576.73 694.6 577.185 694.509 577.644 694.502C577.191 694.507 576.743 694.599 576.324 694.772C576.071 694.894 575.827 695.035 575.595 695.192C575.435 695.322 575.235 695.402 575.085 695.542C574.916 695.721 574.769 695.919 574.645 696.132C574.496 696.312 574.365 696.506 574.255 696.712C574.185 696.907 574.132 697.108 574.095 697.312C574.003 697.58 573.946 697.859 573.925 698.141C573.925 698.141 573.925 698.211 573.925 698.251V799.904L542.134 798.644L499.295 780.599C498.342 780.199 497.276 780.16 496.296 780.489L495.896 780.629L495.866 678.047Z" fill="#18A7B5"/>
<path d="M792.976 902.266C792.08 901.574 790.946 901.264 789.822 901.405C788.698 901.545 787.676 902.125 786.978 903.016L718.246 991.442H281.734L8.88765 640.377L35.0506 520.339C35.19 519.784 35.2162 519.205 35.1278 518.639C35.0394 518.073 34.8381 517.53 34.5358 517.043C34.2336 516.556 33.8366 516.135 33.3684 515.804C32.9003 515.473 32.3704 515.24 31.8104 515.118C31.2503 514.996 30.6715 514.988 30.1082 515.094C29.545 515.2 29.0088 515.418 28.5314 515.736C28.0541 516.053 27.6454 516.463 27.3296 516.941C27.0137 517.42 26.7972 517.956 26.6928 518.52L0.100021 640.507C-0.0340992 641.12 -0.0319816 641.754 0.106224 642.366C0.24443 642.977 0.515347 643.551 0.899805 644.046L276.265 998.35C276.666 998.864 277.179 999.279 277.765 999.565C278.35 999.851 278.993 1000 279.645 1000H720.336C720.987 1000 721.63 999.851 722.216 999.565C722.801 999.279 723.314 998.864 723.715 998.35L793.696 908.275C794.394 907.382 794.711 906.248 794.576 905.122C794.441 903.996 793.866 902.969 792.976 902.266V902.266Z" fill="#18A7B5"/>
<path d="M999.9 640.507L903.626 198.836C903.487 198.204 903.207 197.612 902.807 197.103C902.408 196.594 901.898 196.182 901.317 195.897L501.864 0.439907C501.281 0.148592 500.637 -0.00305176 499.985 -0.00305176C499.333 -0.00305176 498.689 0.148592 498.105 0.439907L420.766 38.2697C419.743 38.7682 418.959 39.6528 418.588 40.729C418.217 41.8051 418.288 42.9847 418.787 44.0081C419.285 45.0316 420.17 45.8151 421.246 46.1863C422.322 46.5576 423.502 46.4861 424.525 45.9876L499.955 8.9976L895.758 202.675L991.162 640.377L924.67 725.924C923.992 726.822 923.695 727.95 923.843 729.065C923.991 730.18 924.572 731.192 925.46 731.882C926.349 732.572 927.473 732.884 928.59 732.751C929.707 732.619 930.727 732.051 931.428 731.173L999.15 644.046C999.526 643.547 999.788 642.971 999.917 642.36C1000.05 641.748 1000.04 641.116 999.9 640.507V640.507Z" fill="#18A7B5"/>
</g>
<defs>
<clipPath id="clip0">
<rect width="1000" height="1000" fill="white"/>
</clipPath>
</defs>
</svg>
