<svg width="1000" height="1000" viewBox="0 0 1000 1000" fill="none" xmlns="http://www.w3.org/2000/svg">
<g clip-path="url(#clip0)">
<path d="M891.489 625.951C892.512 625.946 893.499 625.575 894.272 624.905C895.044 624.235 895.551 623.311 895.701 622.299C895.851 621.288 895.634 620.256 895.089 619.391C894.543 618.526 893.706 617.884 892.729 617.583L860.078 607.666L905.636 511.352C906.153 510.618 906.429 509.741 906.425 508.843C906.405 508.668 906.375 508.494 906.335 508.323L906.276 508.003C906.187 507.593 906.046 507.197 905.856 506.823L905.656 506.503C905.568 506.333 905.467 506.169 905.356 506.013L826.447 383.896C826.338 383.763 826.222 383.636 826.097 383.516C825.9 383.251 825.671 383.009 825.417 382.797C825.007 382.479 824.538 382.245 824.038 382.107L804.883 376.588L818.629 286.923C818.629 286.853 818.629 286.783 818.629 286.713C818.629 286.643 818.629 286.473 818.629 286.343C818.644 286.096 818.644 285.849 818.629 285.603C818.629 285.493 818.629 285.373 818.559 285.263C818.485 284.959 818.378 284.664 818.239 284.383C818.239 284.383 818.239 284.303 818.239 284.263C818.08 283.975 817.893 283.704 817.679 283.453C817.679 283.453 817.629 283.453 817.609 283.393C817.589 283.333 817.4 283.204 817.29 283.114C817.142 282.979 816.985 282.856 816.82 282.744C816.658 282.644 816.492 282.554 816.32 282.474L815.9 282.304C815.71 282.244 815.53 282.174 815.35 282.134C815.022 282.063 814.686 282.029 814.35 282.034L804.943 282.384L810.441 249.873L844.972 250.602C845.145 250.612 845.319 250.612 845.492 250.602H845.662H845.932C846.499 250.619 847.064 250.52 847.591 250.311C848.119 250.102 848.599 249.787 849.001 249.387C849.403 248.987 849.72 248.509 849.931 247.982C850.143 247.455 850.244 246.891 850.231 246.323C850.234 245.692 850.095 245.068 849.825 244.497C849.555 243.926 849.161 243.423 848.671 243.024L831.566 205.734L840.983 206.644H841.393C841.961 206.662 842.526 206.564 843.054 206.355C843.583 206.147 844.063 205.833 844.465 205.432C844.868 205.031 845.184 204.553 845.395 204.025C845.606 203.498 845.707 202.933 845.692 202.365C845.693 201.668 845.521 200.981 845.192 200.366L813.681 111.74C813.377 110.894 812.815 110.166 812.074 109.657C811.333 109.149 810.451 108.887 809.553 108.908C808.655 108.929 807.786 109.232 807.07 109.774C806.354 110.317 805.826 111.071 805.563 111.93L791.097 159.417L758.275 158.327C757.857 158.324 757.44 158.378 757.036 158.487C756.926 158.487 756.816 158.567 756.706 158.607C756.414 158.706 756.135 158.84 755.876 159.007L755.596 159.187C755.324 159.391 755.075 159.626 754.856 159.887C754.856 159.947 754.746 159.997 754.706 160.057C754.689 160.079 754.669 160.099 754.646 160.117C754.423 160.441 754.245 160.794 754.117 161.166C754.115 161.19 754.115 161.213 754.117 161.236C754.117 161.306 754.117 161.386 754.117 161.456C754.029 161.763 753.976 162.078 753.957 162.396V162.796C753.978 163.093 754.025 163.387 754.097 163.676C754.097 163.786 754.147 163.906 754.187 164.016C754.182 164.059 754.182 164.102 754.187 164.146L770.062 205.075L755.766 204.755C755.45 204.748 755.135 204.779 754.826 204.845C754.612 204.888 754.401 204.948 754.197 205.025L753.967 205.115C753.757 205.201 753.556 205.308 753.367 205.435L753.187 205.564C753.004 205.693 752.831 205.833 752.667 205.984C752.63 206.033 752.59 206.08 752.547 206.124C752.376 206.319 752.216 206.522 752.067 206.734C752.067 206.734 752.067 206.784 752.067 206.804C752.036 206.862 752.01 206.922 751.987 206.984C751.87 207.206 751.77 207.437 751.687 207.674C751.687 207.774 751.617 207.884 751.587 207.984C751.527 208.237 751.487 208.494 751.467 208.754C751.467 208.834 751.467 208.904 751.467 208.984C751.467 209.064 751.467 208.984 751.467 209.054L751.827 310.026C751.835 310.364 751.882 310.699 751.967 311.026C751.967 311.026 751.967 311.096 751.967 311.126C751.983 311.168 752.003 311.208 752.027 311.246C752.141 311.629 752.306 311.996 752.517 312.336C752.517 312.336 752.517 312.336 752.567 312.396C752.78 312.704 753.036 312.98 753.327 313.215L753.477 313.355C753.781 313.589 754.118 313.778 754.476 313.915L754.686 313.995C755.067 314.133 755.463 314.221 755.866 314.255L783.859 315.785L781.099 369.57L762.794 364.412L712.708 349.995C712.476 349.927 712.238 349.884 711.998 349.866C711.762 349.846 711.524 349.846 711.288 349.866H711.028C710.582 349.915 710.146 350.036 709.739 350.225L709.529 350.345C709.369 350.417 709.215 350.5 709.069 350.595C708.865 350.746 708.675 350.913 708.499 351.095L708.399 351.185C708.082 351.534 707.825 351.932 707.639 352.365C707.639 352.365 707.579 352.445 707.559 352.495L642.947 512.182L596.629 443.63C596.241 443.057 595.72 442.585 595.111 442.257C594.502 441.928 593.822 441.751 593.13 441.741L556.36 441.401H555.2C554.196 441.392 553.223 441.748 552.461 442.4L550.202 430.244C550.025 429.297 549.534 428.438 548.808 427.804C548.083 427.171 547.165 426.801 546.203 426.755L529.007 425.855L534.796 417.117C535.213 416.489 535.456 415.761 535.501 415.008C535.546 414.255 535.392 413.503 535.053 412.829C534.714 412.155 534.202 411.583 533.571 411.17C532.939 410.757 532.21 410.519 531.457 410.479L451.428 406.2C450.31 406.137 449.212 406.515 448.371 407.254C447.529 407.993 447.012 409.033 446.929 410.149L444.3 444.95L413.059 435.013H413.009C412.638 434.904 412.255 434.843 411.869 434.833H411.569C411.272 434.841 410.976 434.884 410.689 434.963L410.349 435.062C410.088 435.158 409.837 435.278 409.6 435.422C409.49 435.48 409.383 435.543 409.28 435.612L409.12 435.712L366.361 469.283L305.718 377.408C305.57 377.19 305.399 376.989 305.208 376.808L305.108 376.688C304.782 376.384 304.411 376.131 304.008 375.938L303.718 375.819C303.287 375.635 302.827 375.527 302.359 375.499L228.548 371.82L226.869 318.024L253.152 324.482C253.478 324.568 253.814 324.611 254.152 324.612H254.212C254.66 324.603 255.105 324.525 255.531 324.382V324.382C256.582 324.028 257.451 323.274 257.951 322.283C257.951 322.283 257.951 322.233 257.951 322.203C258.257 321.63 258.425 320.993 258.44 320.343C258.44 320.184 258.44 320.034 258.44 319.884L259.2 233.777L292.541 237.776H293.051C293.491 237.771 293.926 237.693 294.341 237.546C294.463 237.505 294.583 237.459 294.701 237.406C295 237.276 295.284 237.115 295.55 236.926C295.61 236.876 295.69 236.856 295.76 236.806L346.677 195.207C347.308 194.692 347.778 194.007 348.033 193.234C348.289 192.46 348.318 191.63 348.117 190.84C347.917 190.05 347.495 189.334 346.901 188.776C346.308 188.218 345.567 187.841 344.767 187.689L274.016 174.363C273.362 174.237 272.688 174.267 272.047 174.449C271.406 174.631 270.817 174.961 270.327 175.413L253.812 190.579L165.096 149.96C164.693 149.779 164.265 149.664 163.826 149.62H163.406C163.111 149.608 162.816 149.631 162.526 149.69L162.086 149.79C161.798 149.884 161.52 150.008 161.257 150.159C161.137 150.213 161.02 150.273 160.907 150.339L160.797 150.399C160.478 150.637 160.192 150.916 159.947 151.229C159.947 151.229 159.897 151.349 159.857 151.399C159.644 151.708 159.472 152.045 159.347 152.399C159.3 152.532 159.263 152.669 159.237 152.809C159.165 153.094 159.121 153.385 159.107 153.679C159.107 153.828 159.107 153.978 159.107 154.128C159.107 154.278 159.107 154.288 159.107 154.368L171.574 257.93C171.607 258.168 171.661 258.402 171.734 258.63C171.753 258.702 171.776 258.772 171.804 258.84C171.875 259.054 171.965 259.262 172.074 259.46L172.214 259.68C172.301 259.836 172.398 259.986 172.504 260.13C172.685 260.336 172.889 260.521 173.113 260.68C173.113 260.68 173.163 260.76 173.203 260.79H173.263C173.595 261.031 173.958 261.226 174.343 261.369L174.553 261.439C174.956 261.575 175.378 261.646 175.803 261.649H176.373L199.306 258.54L201.986 275.256L192.518 272.576C192.13 272.473 191.73 272.423 191.329 272.426C191.199 272.426 191.079 272.426 190.949 272.426C190.682 272.453 190.418 272.5 190.159 272.566C190.022 272.608 189.889 272.658 189.759 272.716C189.526 272.81 189.302 272.923 189.089 273.056C188.964 273.131 188.843 273.215 188.729 273.306C188.659 273.366 188.569 273.396 188.509 273.456C188.378 273.589 188.254 273.729 188.139 273.876C188.079 273.946 187.999 273.996 187.939 274.076C187.879 274.156 187.939 274.136 187.939 274.166C187.706 274.471 187.517 274.807 187.38 275.166C187.252 275.536 187.178 275.924 187.16 276.315C187.16 276.445 187.16 276.575 187.16 276.705C187.145 276.895 187.145 277.085 187.16 277.275L202.066 370.42L182.871 369.47C182.219 369.427 181.567 369.543 180.971 369.81C180.888 369.847 180.808 369.891 180.731 369.94C180.531 370.04 180.337 370.153 180.152 370.28C180.044 370.368 179.94 370.461 179.842 370.56C179.709 370.659 179.585 370.77 179.472 370.89V370.89L94.6546 470.603C94.6146 470.654 94.5779 470.707 94.5447 470.763C94.4058 470.934 94.2789 471.114 94.1648 471.303C94.1239 471.384 94.0872 471.468 94.0548 471.553C94.0548 471.673 93.9548 471.793 93.9148 471.913C93.8204 472.169 93.7502 472.433 93.7049 472.702C93.7049 472.822 93.7049 472.932 93.7049 473.052C93.655 473.43 93.655 473.814 93.7049 474.192C93.7091 474.222 93.7091 474.252 93.7049 474.282C93.7694 474.573 93.8597 474.857 93.9748 475.132L143.092 583.672L108.631 585.842C107.579 585.9 106.586 586.344 105.842 587.09C105.098 587.836 104.657 588.831 104.602 589.883C104.547 590.935 104.884 591.97 105.546 592.789C106.209 593.608 107.151 594.153 108.191 594.319L153.469 601.977C153.697 602.017 153.927 602.037 154.159 602.037C154.444 602.036 154.728 602.009 155.008 601.957C155.289 601.895 155.563 601.808 155.828 601.697L181.441 590.84L179.622 803.373L159.957 822.148C159.878 822.244 159.805 822.344 159.737 822.448C159.367 822.815 159.101 823.274 158.967 823.778C158.854 824.101 158.777 824.437 158.737 824.777C158.737 824.877 158.737 824.947 158.677 825.047L156.958 869.685C156.958 869.765 156.958 869.845 156.958 869.925C156.958 870.005 156.958 870.015 156.958 870.065C156.954 870.125 156.954 870.185 156.958 870.245C156.992 870.635 157.08 871.018 157.218 871.385C157.218 871.445 157.218 871.495 157.218 871.545C157.393 871.934 157.625 872.294 157.908 872.614C157.979 872.699 158.056 872.779 158.137 872.854C158.237 872.954 158.317 873.064 158.437 873.164C158.557 873.264 158.677 873.284 158.797 873.364C158.996 873.5 159.207 873.617 159.427 873.714C159.658 873.819 159.899 873.9 160.147 873.954C160.287 873.954 160.407 874.064 160.547 874.084L270.917 889.55C271.115 889.581 271.316 889.598 271.517 889.6C272.515 889.6 273.482 889.251 274.25 888.614C275.019 887.976 275.54 887.09 275.724 886.109C275.908 885.128 275.743 884.113 275.257 883.241C274.772 882.368 273.997 881.693 273.066 881.332L219.471 853.15L205.105 824.917L224.61 813.31C224.71 813.25 224.769 813.16 224.859 813.1C224.949 813.04 225.029 813.02 225.109 812.96C225.269 812.824 225.419 812.677 225.559 812.521L225.669 812.411C225.92 812.108 226.125 811.772 226.279 811.411L226.389 811.171C226.536 810.809 226.633 810.429 226.679 810.041V810.041L245.084 632.239L251.842 631.659L265.179 713.867L249.053 716.666C248.754 716.718 248.462 716.805 248.183 716.926L247.943 717.046C247.754 717.134 247.57 717.234 247.393 717.346L247.143 717.536C246.991 717.659 246.847 717.793 246.714 717.936C246.635 718.008 246.562 718.085 246.494 718.166C246.362 718.335 246.242 718.512 246.134 718.696C246.091 718.745 246.055 718.799 246.024 718.856V718.856C245.885 719.123 245.774 719.405 245.694 719.696C245.694 719.696 245.694 719.766 245.694 719.806C245.634 720.055 245.594 720.309 245.574 720.565C245.574 720.675 245.574 720.785 245.574 720.895C245.574 721.005 245.574 721.155 245.574 721.295L259.91 854.459C259.96 854.867 260.071 855.265 260.24 855.639C260.27 855.73 260.31 855.817 260.36 855.899C260.542 856.288 260.785 856.646 261.08 856.959C261.109 856.979 261.136 857.002 261.16 857.029C261.342 857.211 261.54 857.378 261.75 857.528C261.839 857.588 261.949 857.618 262.049 857.678C262.211 857.768 262.378 857.848 262.549 857.918C262.82 858.029 263.101 858.109 263.389 858.158C263.494 858.194 263.601 858.224 263.709 858.248L362.922 868.925C363.075 868.935 363.229 868.935 363.382 868.925C364.368 868.923 365.322 868.58 366.085 867.954C366.847 867.329 367.369 866.46 367.564 865.493C367.76 864.527 367.615 863.523 367.155 862.651C366.696 861.779 365.949 861.093 365.042 860.708L313.056 838.893L307.307 796.785L314.305 795.425L315.005 795.285C315.49 795.182 315.953 794.996 316.375 794.735L316.525 794.655C316.905 794.4 317.242 794.086 317.524 793.726L317.674 793.526L317.844 793.316C318.029 793.003 318.17 792.667 318.264 792.316C318.264 792.236 318.264 792.166 318.324 792.096C318.445 791.633 318.485 791.153 318.444 790.676C318.444 790.676 318.444 790.676 318.444 790.676L302.229 627.331L319.684 625.831C320.083 625.796 320.475 625.698 320.844 625.541L321.073 625.451C321.434 625.301 321.771 625.099 322.073 624.851C322.115 624.817 322.156 624.78 322.193 624.741C322.454 624.503 322.686 624.235 322.883 623.941C322.925 623.892 322.962 623.839 322.993 623.782C323.193 623.447 323.347 623.087 323.453 622.712V622.622C323.453 622.622 323.453 622.532 323.453 622.482C323.544 622.109 323.581 621.725 323.563 621.342V621.262L312.566 466.564L336.439 498.125C336.504 498.2 336.574 498.271 336.649 498.335L336.949 498.655C337.114 498.803 337.287 498.94 337.469 499.065L337.809 499.285C338.023 499.393 338.243 499.486 338.469 499.565L338.799 499.675C339.125 499.763 339.461 499.81 339.798 499.815V499.815C340.267 499.815 340.733 499.741 341.178 499.595L373.899 488.508L374.279 488.358L422.886 466.474L441.141 497.656L441.191 497.716C441.369 498.012 441.58 498.287 441.821 498.535V498.535L441.901 498.595C442.12 498.801 442.362 498.982 442.621 499.135L442.891 499.275C443.107 499.385 443.331 499.478 443.56 499.555L443.84 499.635C444.168 499.715 444.503 499.758 444.84 499.765V499.765H445.2L492.737 495.766L494.117 502.694C494.311 503.665 494.836 504.538 495.601 505.165C496.367 505.792 497.326 506.134 498.316 506.133H559.229C559.566 506.128 559.902 506.085 560.229 506.003C560.331 505.973 560.431 505.936 560.529 505.893C560.757 505.824 560.978 505.734 561.189 505.623C561.302 505.563 561.412 505.496 561.519 505.423C561.706 505.302 561.884 505.165 562.048 505.014C562.146 504.932 562.24 504.845 562.328 504.754C562.328 504.694 562.438 504.654 562.488 504.594C562.597 504.45 562.698 504.3 562.788 504.144C562.788 504.074 562.888 504.034 562.928 503.964L577.674 477.781L632.779 543.463C633.122 543.867 633.535 544.206 633.999 544.463L667.32 562.658C667.633 562.834 667.97 562.965 668.32 563.048C668.646 563.132 668.982 563.175 669.319 563.178C669.713 563.173 670.103 563.112 670.479 562.998C670.529 563.003 670.579 563.003 670.629 562.998C670.698 562.972 670.764 562.942 670.829 562.908C670.963 562.86 671.093 562.803 671.219 562.738C671.353 562.672 671.483 562.599 671.609 562.518C671.726 562.444 671.84 562.364 671.949 562.278C672.076 562.179 672.196 562.072 672.309 561.958L672.489 561.798C672.489 561.798 672.489 561.738 672.549 561.708C672.796 561.431 673.004 561.122 673.168 560.789L696.502 512.652L691.234 590.63C691.204 590.988 691.224 591.348 691.294 591.7C691.294 591.7 691.294 591.79 691.294 591.83C691.294 591.87 691.364 592.07 691.404 592.19C691.489 592.452 691.596 592.706 691.723 592.95C691.793 593.07 691.863 593.19 691.943 593.3C692.1 593.523 692.273 593.734 692.463 593.93C692.553 594.01 692.633 594.11 692.733 594.189C693.035 594.448 693.372 594.664 693.733 594.829L709.239 601.578L696.072 761.404V761.504C696.043 761.927 696.08 762.352 696.182 762.764C696.182 762.764 696.182 762.854 696.182 762.904C696.293 763.288 696.451 763.658 696.652 764.004L696.772 764.184C696.991 764.514 697.253 764.813 697.552 765.073L697.712 765.193C698.043 765.46 698.414 765.673 698.812 765.823L708.809 769.552L703.81 817.599L652.564 836.204C651.62 836.549 650.828 837.215 650.326 838.085C649.824 838.956 649.644 839.975 649.818 840.964C649.993 841.954 650.509 842.851 651.278 843.497C652.047 844.144 653.019 844.5 654.024 844.502H654.074L746.269 843.422H746.379C746.769 843.399 747.155 843.328 747.528 843.212L747.908 843.062C748.038 843.002 748.168 842.972 748.298 842.902C748.446 842.81 748.586 842.706 748.718 842.592C748.812 842.531 748.902 842.465 748.988 842.392C749.313 842.129 749.593 841.815 749.818 841.463C749.852 841.401 749.882 841.338 749.908 841.273C750.089 840.959 750.23 840.623 750.328 840.273C750.328 840.213 750.328 840.163 750.398 840.093C750.468 840.023 750.398 839.983 750.398 839.923C750.398 839.863 750.398 839.733 750.458 839.633L764.264 712.668C764.264 712.668 764.264 712.668 764.264 712.608C764.314 712.239 764.314 711.866 764.264 711.498C764.259 711.418 764.259 711.338 764.264 711.258C764.189 710.911 764.072 710.575 763.914 710.258V710.178C763.733 709.857 763.515 709.559 763.264 709.288L763.084 709.108C762.806 708.843 762.497 708.611 762.164 708.419L744.739 699.031L755.476 621.582L771.112 628.39L781.619 809.421C781.619 809.511 781.619 809.591 781.679 809.681C781.708 809.906 781.758 810.127 781.829 810.341C781.885 810.572 781.966 810.797 782.069 811.011C782.16 811.2 782.267 811.38 782.389 811.551C782.529 811.76 782.686 811.957 782.859 812.141C782.939 812.211 782.969 812.301 783.049 812.371L801.414 828.686L783.789 862.407L728.234 882.622C727.29 882.966 726.498 883.632 725.996 884.503C725.494 885.373 725.314 886.392 725.488 887.382C725.662 888.371 726.179 889.268 726.948 889.915C727.717 890.562 728.688 890.917 729.693 890.919L841.203 891.099C841.667 891.096 842.126 891.015 842.563 890.859C842.713 890.798 842.86 890.728 843.003 890.649C843.206 890.572 843.404 890.479 843.592 890.37C843.667 890.315 843.737 890.255 843.802 890.19L844.062 889.96C844.324 889.722 844.555 889.453 844.752 889.16C844.802 889.08 844.862 889.02 844.902 888.94C845.123 888.562 845.278 888.15 845.362 887.72C845.362 887.72 845.362 887.65 845.362 887.61C845.362 887.57 845.362 887.47 845.362 887.4C845.399 887.229 845.426 887.055 845.442 886.88L846.072 840.383C846.077 840.323 846.077 840.263 846.072 840.203C846.056 839.995 846.026 839.787 845.982 839.583C845.95 839.341 845.893 839.103 845.812 838.873C845.745 838.69 845.661 838.512 845.562 838.344C845.441 838.112 845.3 837.891 845.142 837.684C845.142 837.624 845.072 837.544 845.012 837.474L825.887 816.01L824.238 607.346L847.471 622.832C847.808 623.057 848.175 623.232 848.561 623.352C848.691 623.352 848.831 623.352 848.961 623.422C849.173 623.485 849.391 623.529 849.611 623.552L891.24 625.941L891.489 625.951ZM808.682 833.005L836.544 843.002L837.544 843.362L837.024 880.662L792.826 863.667L808.682 833.005ZM808.822 824.007L801.244 817.279L819.389 821.548L827.537 830.696L808.822 824.007ZM727.804 835.074L679.107 835.654L707.499 825.337L727.804 835.074ZM712.298 818.149L717.037 772.661L728.493 776.95C728.974 777.127 729.481 777.219 729.993 777.22H730.233C730.537 777.208 730.838 777.164 731.133 777.09C731.3 777.034 731.464 776.967 731.623 776.89C731.814 776.82 732 776.74 732.183 776.65V776.65C732.237 776.616 732.287 776.576 732.332 776.53C732.582 776.369 732.813 776.181 733.022 775.97L733.252 775.7C733.418 775.498 733.565 775.28 733.692 775.051C733.692 774.991 733.772 774.951 733.812 774.881L753.067 735.891L742.54 832.765L712.298 818.149ZM754.287 714.017L737.901 747.318L743.339 708.099L750.338 711.838L754.287 714.017ZM735.882 699.241L735.302 703.81L726.524 767.103L723.405 765.933L717.986 763.934L713.807 762.314L709.709 760.795L705.57 759.245L704.87 758.975L706.299 741.74L708.029 720.845L717.626 605.237L747.188 618.093L736.561 694.752L735.882 699.241ZM748.358 609.265L744.019 607.376L718.316 596.199L714.177 594.399L710.038 592.59L699.961 588.211L700.081 586.392L700.511 579.943L706.449 492.067L707.219 480.67L707.989 469.273L715.387 359.683L759.675 372.429L763.854 373.629L780.399 378.398L784.618 379.607L788.837 380.827L795.215 382.657L798.675 383.656L799.354 383.856L803.503 385.046L804.703 385.396L810.701 387.125L815.31 388.455L817.939 389.215L816.78 397.133L815.78 403.721L814.78 410.309L789.287 571.846L788.617 576.084L787.947 580.323L781.149 623.522L779.21 622.672L774.811 620.762L770.412 618.843L756.556 612.844L752.477 611.075L748.358 609.265ZM571.776 470.753L561.219 489.488L554.9 455.497L556.45 452.498L557.75 449.978H559.949L565.577 450.038L583.343 450.208L576.265 462.775L574.015 466.774L571.776 470.753ZM501.795 497.566L501.285 495.036L523.599 493.157C524.503 493.083 525.36 492.723 526.046 492.13C526.733 491.537 527.213 490.741 527.418 489.858L536.545 450.108C536.685 449.503 536.692 448.875 536.564 448.267C536.436 447.659 536.177 447.087 535.806 446.589C535.433 446.091 534.957 445.68 534.41 445.385C533.862 445.09 533.257 444.917 532.636 444.88L478.201 441.611L476.651 431.673L521.119 434.003L542.434 435.122L545.983 454.187L547.252 461.035L548.532 467.894L553.641 495.346L554.051 497.566H501.765H501.795ZM458.876 490.018L449.429 490.807L449.559 489.048L451.358 465.194L451.938 457.556L452.518 449.908L455.157 414.968L523.539 418.627L519.09 425.335L471.813 422.886C471.176 422.847 470.539 422.953 469.95 423.197C469.361 423.442 468.836 423.817 468.414 424.295C467.989 424.767 467.674 425.328 467.492 425.937C467.311 426.545 467.267 427.187 467.364 427.814L470.243 446.369C470.393 447.34 470.873 448.229 471.601 448.888C472.329 449.547 473.261 449.936 474.242 449.988L527.078 453.158L519.74 484.869L495.746 486.869L471.673 488.868L458.876 490.018ZM428.514 459.226L426.335 455.507L421.116 446.579L441.971 453.208L443.68 453.757L443.42 457.246L441.581 481.54L430.684 462.935L428.514 459.226ZM314.755 617.663L313.556 617.763L306.677 618.363L301.379 618.813L297.12 619.183L292.861 619.553L259.2 622.472L254.931 622.832L250.663 623.202L246.174 623.592L241.835 623.961L237.496 624.341L227.199 625.231L219.131 574.845L218.431 570.446L217.721 566.057L191.399 401.452L190.489 395.773L189.579 390.095L187.71 378.368L196.827 378.818L198.627 378.908L203.435 379.148H203.915L207.794 379.338L209.204 379.408L212.203 379.557L220.291 379.957L224.58 380.167L228.868 380.387L248.213 381.387L253.782 381.657L298.16 383.896L302.029 438.422L302.588 446.239L303.138 454.067L314.435 613.254L314.755 617.663ZM307.757 768.722L309.647 787.717L306.277 788.367L302.069 789.197L297.86 790.017L286.763 792.176L275.196 720.885L274.516 716.656L273.826 712.438L260.61 630.94L293.741 628.07L305.438 745.439L307.757 768.722ZM287.493 852.27L308.917 846.501L334.83 857.368L287.493 852.27ZM268.018 848.651L257.221 748.378L279.215 798.944C279.546 799.708 280.094 800.358 280.79 800.815C281.487 801.271 282.301 801.514 283.134 801.514H283.234C283.512 801.512 283.79 801.485 284.064 801.434L299.009 798.514L304.528 838.823L268.018 848.651ZM273.576 764.544L256.051 724.194L266.728 722.345L273.576 764.544ZM183.891 868.695L215.882 860.838L247.873 877.673L183.891 868.695ZM165.755 864.337L167.065 829.296L197.057 827.706L210.143 853.429L165.755 864.337ZM198.377 819.069L194.378 819.289L174.253 820.348L185.41 809.681L209.544 812.441L198.377 819.069ZM146.151 592.05H146.891L146.97 592.23L146.151 592.05ZM158.467 591.28L156.358 592.18L156.018 591.44L154.139 587.271L152.249 583.103L104.162 476.871L128.965 473.392L176.802 581.573L177.532 583.212L170.354 586.212L158.467 591.28ZM108.481 467.594L179.922 383.616L182.381 398.992L129.305 464.654L119.308 466.044L108.481 467.594ZM207.844 257.4L207.164 253.182L206.484 248.953L199.826 207.454L203.295 208.454L219.441 227.808C219.501 227.878 219.591 227.908 219.651 227.978C219.897 228.24 220.176 228.468 220.481 228.658L220.831 228.878C221.267 229.099 221.736 229.248 222.22 229.318L241.335 231.627L243.155 231.847L246.094 232.197L248.153 232.447L250.712 232.757V232.937V236.076L250.063 309.526V314.865L248.993 314.595L241.425 312.736L226.709 309.117L222.4 308.057L217.941 307.027L215.652 306.467L212.553 287.132L211.803 282.484L211.063 277.825L207.844 257.4ZM262.309 194.507L274.596 183.221L334.21 194.457L293.921 227.369L291.811 229.088L289.702 228.838L283.934 228.138L259.42 225.139H259.33L256.181 224.749L255.061 224.619L254.421 224.539L251.422 224.179L250.782 224.099L249.433 223.94L246.664 223.6L232.437 221.94L236.766 217.941L240.465 214.542L244.164 211.143L255.441 200.786L258.86 197.647L262.309 194.507ZM182.071 252.242L193.068 219.361L197.947 250.092L182.071 252.242ZM234.527 208.404L230.828 211.803L227.129 215.202L223.13 218.861L217.881 212.573L213.023 206.744L208.144 200.946L178.692 165.635L247.004 196.947L234.527 208.404ZM193.948 197.267H193.718L193.438 197.327C193.161 197.397 192.893 197.497 192.638 197.627H192.538C192.249 197.775 191.98 197.96 191.738 198.176L191.668 198.226C191.632 198.261 191.599 198.297 191.568 198.336C191.383 198.509 191.216 198.7 191.069 198.906L190.909 199.136C190.769 199.362 190.649 199.6 190.549 199.846C190.549 199.906 190.489 199.956 190.469 200.016L177.802 237.866L169.314 167.585L193.948 197.267ZM204.295 289.472L200.786 283.803L203.505 284.573L204.295 289.472ZM208.294 312.196C208.344 312.276 208.434 312.316 208.484 312.396C208.699 312.693 208.951 312.961 209.234 313.195C209.337 313.294 209.447 313.384 209.564 313.465C209.972 313.755 210.429 313.968 210.913 314.095L218.281 315.905L220.021 371.41L210.813 370.95L198.946 297.15L208.294 312.196ZM136.503 469.363L184.17 410.379L208.944 564.987L186.5 562.238C186.151 562.193 185.799 562.193 185.45 562.238L185.07 562.318C184.842 562.368 184.618 562.435 184.4 562.518C184.285 562.562 184.171 562.612 184.06 562.668C183.787 562.803 183.529 562.967 183.291 563.158L183.171 563.248C182.907 563.483 182.675 563.752 182.481 564.048L182.411 564.128C182.377 564.186 182.347 564.246 182.321 564.308C182.186 564.54 182.072 564.784 181.981 565.037C181.981 565.137 181.911 565.237 181.881 565.347C181.8 565.648 181.75 565.956 181.731 566.267C181.736 566.31 181.736 566.354 181.731 566.397V566.397V571.336L136.503 469.363ZM194.078 571.786L210.293 573.785L215.802 608.216L194.078 571.846V571.786ZM218.791 804.893L214.172 804.363L188.179 801.364L190.059 581.753L219.671 631.419C219.916 632.02 220.296 632.555 220.782 632.985C221.267 633.415 221.845 633.728 222.47 633.899C222.713 633.963 222.96 634.007 223.21 634.029C223.33 634.029 223.44 634.089 223.57 634.089H224.07L236.566 632.999L218.791 804.893ZM307.577 395.763L359.563 474.602L340.628 489.478L311.496 450.878L307.577 395.763ZM373.109 479.511L371 480.51L369.001 481.17L364.902 482.55L362.232 483.449L364.382 481.76L367.761 479.111L371.14 476.461L410.589 445.47L418.537 459.036L373.109 479.511ZM592.05 452.158L639.038 521.739L641.917 526.008L644.806 530.277L655.903 546.702L638.828 537.325L637.888 536.205L634.769 532.496L582.173 469.793L592.05 452.158ZM648.705 520.729L705.44 380.517L698.072 489.868L668.74 550.351L648.705 520.729ZM759.835 213.412L762.834 213.472L773.301 213.702L777.93 213.802L782.559 213.902L796.755 214.212L807.622 214.442L803.903 236.436L803.193 240.665L803.123 241.085L802.484 244.884L802.404 245.344L801.684 249.613L796.105 282.604L795.375 286.923L794.646 291.221L792.986 301.049L791.866 307.667L788.377 307.477L784.098 307.237L761.725 306.017L760.175 305.927V301.928L759.905 225.949V216.951L759.835 213.412ZM764.374 167.085L772.162 167.345L788.397 167.885L792.826 168.035L797.255 168.175L804.913 168.435L817.21 195.237L817.439 195.737L819.289 199.736L819.499 200.176L821.378 204.285L821.558 204.675L829.776 222.57L815.78 207.384C815.68 207.284 815.57 207.204 815.47 207.114L815.2 206.864C815.053 206.761 814.899 206.668 814.74 206.584C814.644 206.518 814.544 206.458 814.44 206.404C814.262 206.326 814.079 206.263 813.89 206.214C813.8 206.214 813.701 206.134 813.611 206.114C813.319 206.043 813.021 206.006 812.721 206.004L779.17 205.275L767.173 174.283L764.374 167.085ZM829.776 182.841L810.911 161.426C810.682 161.177 810.427 160.953 810.151 160.757L809.902 160.617C809.677 160.476 809.44 160.359 809.192 160.267L808.902 160.167C808.577 160.066 808.241 160.005 807.902 159.987L799.904 159.717L809.902 126.826L829.776 182.841ZM827.157 196.397L823.778 188.949L830.776 196.837L827.157 196.397ZM835.805 241.785L811.781 241.275L812.401 237.586L815.4 219.591L834.685 240.585L835.805 241.785ZM802.633 295.14L803.343 290.931L805.743 290.841L802.633 295.14ZM792.166 316.305L795.165 316.465H795.545C796.221 316.464 796.887 316.304 797.488 315.996C798.089 315.688 798.609 315.243 799.004 314.695L807.442 303.058L796.525 374.129L789.287 372.04L792.166 316.305ZM890.14 498.345L882.342 494.566L872.145 489.628L823.558 408.58L825.237 397.883L890.14 498.345ZM796.425 580.973L811.961 582.173L791.586 611.725L796.425 580.973ZM823.978 578.444C823.982 578.371 823.982 578.297 823.978 578.224C823.956 577.839 823.882 577.459 823.758 577.094C823.758 576.984 823.698 576.884 823.658 576.784V576.634C823.474 576.269 823.239 575.932 822.958 575.635L822.758 575.455C822.488 575.189 822.182 574.964 821.848 574.785C821.735 574.719 821.618 574.659 821.498 574.605C821.068 574.401 820.604 574.276 820.129 574.235L797.855 572.515L821.568 421.776L864.407 493.247L824.118 584.572L823.978 578.444ZM782.789 633.559C783.325 633.794 783.903 633.917 784.488 633.919V633.919C784.825 633.92 785.161 633.879 785.488 633.799C785.6 633.762 785.711 633.718 785.818 633.669C786.042 633.605 786.259 633.521 786.468 633.419C786.651 633.311 786.825 633.187 786.988 633.049C787.068 632.989 787.168 632.939 787.248 632.869C787.502 632.645 787.727 632.39 787.917 632.109V632.109L815.49 592.12L817.24 812.301L789.837 805.782L779.79 632.239L782.789 633.559ZM827.087 598.938L827.587 597.809L871.305 498.705L896.418 510.862L851.77 605.157L849.921 609.065L848.071 612.974L835.814 604.777L827.087 598.938ZM753.887 882.402L786.808 870.405L802.144 876.323L818.139 882.492L753.887 882.402Z" fill="#18A7B5"/>
<path d="M241.935 256.491C242.521 256.498 243.102 256.372 243.633 256.123C244.164 255.874 244.632 255.508 245.002 255.052C245.372 254.597 245.633 254.063 245.768 253.492C245.902 252.921 245.905 252.327 245.777 251.755C245.65 251.182 245.394 250.646 245.029 250.186C244.665 249.726 244.201 249.355 243.673 249.1C243.145 248.845 242.565 248.713 241.979 248.713C241.392 248.714 240.813 248.847 240.285 249.103C240.067 249.211 239.856 249.334 239.655 249.473C238.91 250.016 238.382 250.806 238.166 251.702C238.161 251.729 238.161 251.756 238.166 251.782C238.102 252.054 238.068 252.332 238.066 252.612C238.069 253.638 238.477 254.622 239.201 255.348C239.926 256.075 240.909 256.485 241.935 256.491V256.491Z" fill="#18A7B5"/>
<path d="M218.161 251.682C218.571 252.026 219.047 252.28 219.561 252.429C220.074 252.578 220.613 252.618 221.143 252.547C221.673 252.475 222.182 252.294 222.638 252.014C223.094 251.734 223.486 251.362 223.79 250.922V250.922C224.237 250.293 224.484 249.542 224.498 248.77C224.512 247.998 224.293 247.239 223.87 246.593C223.473 245.973 222.908 245.48 222.24 245.171C221.572 244.861 220.83 244.749 220.1 244.848C219.371 244.947 218.685 245.252 218.124 245.728C217.562 246.204 217.149 246.83 216.931 247.533C216.804 247.907 216.736 248.298 216.731 248.693C216.733 249.267 216.862 249.835 217.109 250.353C217.356 250.872 217.716 251.329 218.161 251.692V251.682Z" fill="#18A7B5"/>
<path d="M771.062 240.585C771.602 240.705 772.161 240.705 772.701 240.585C773.432 240.437 774.103 240.081 774.636 239.559C775.168 239.038 775.538 238.373 775.7 237.646C775.727 237.511 775.744 237.374 775.751 237.236C775.846 236.441 775.692 235.637 775.31 234.933C774.929 234.229 774.339 233.661 773.621 233.307C773.35 233.173 773.065 233.069 772.771 232.997C772.128 232.854 771.46 232.878 770.828 233.065C770.197 233.252 769.624 233.597 769.162 234.067C768.66 234.583 768.313 235.231 768.163 235.936C767.932 236.937 768.108 237.989 768.651 238.86C769.195 239.732 770.062 240.352 771.062 240.585Z" fill="#18A7B5"/>
<path d="M789.997 239.805C790.494 239.919 791.008 239.933 791.511 239.847C792.013 239.762 792.494 239.577 792.925 239.305C793.356 239.033 793.729 238.678 794.023 238.261C794.316 237.844 794.524 237.374 794.635 236.876C794.76 236.33 794.76 235.763 794.635 235.216C794.489 234.539 794.163 233.912 793.692 233.403C793.221 232.895 792.621 232.522 791.957 232.324C791.292 232.126 790.586 232.111 789.913 232.279C789.241 232.448 788.626 232.794 788.132 233.282C787.639 233.77 787.286 234.381 787.111 235.052C786.935 235.723 786.943 236.429 787.133 237.095C787.324 237.762 787.69 238.366 788.194 238.842C788.698 239.319 789.32 239.652 789.997 239.805V239.805Z" fill="#18A7B5"/>
<path d="M8.88748 640.367L104.302 202.675L137.743 186.31C138.247 186.063 138.699 185.719 139.071 185.298C139.443 184.877 139.728 184.386 139.91 183.855C140.093 183.323 140.169 182.761 140.134 182.2C140.099 181.64 139.954 181.091 139.707 180.586C139.46 180.081 139.117 179.63 138.695 179.258C138.274 178.886 137.784 178.601 137.252 178.419C136.721 178.236 136.159 178.16 135.598 178.195C135.037 178.23 134.489 178.375 133.984 178.622L98.6832 195.947C98.1014 196.227 97.5915 196.636 97.1929 197.144C96.7942 197.652 96.5175 198.245 96.3839 198.876L0.0998549 640.507C-0.0341246 641.118 -0.0319224 641.751 0.106305 642.361C0.244532 642.971 0.515392 643.543 0.899639 644.036L136.423 818.409C136.765 818.861 137.193 819.241 137.682 819.527C138.172 819.812 138.713 819.998 139.275 820.072C139.837 820.147 140.408 820.109 140.955 819.961C141.502 819.813 142.015 819.558 142.462 819.21C142.91 818.862 143.284 818.429 143.563 817.936C143.842 817.442 144.02 816.898 144.087 816.336C144.154 815.773 144.108 815.202 143.953 814.657C143.797 814.112 143.535 813.603 143.181 813.16L8.88748 640.367Z" fill="#18A7B5"/>
<path d="M789.597 906.615C788.701 905.923 787.567 905.613 786.443 905.754C785.319 905.894 784.297 906.473 783.599 907.365L718.246 991.442H281.734L210.623 899.937C209.921 899.058 208.902 898.491 207.785 898.358C206.668 898.225 205.544 898.538 204.655 899.228C203.767 899.918 203.186 900.93 203.038 902.045C202.89 903.16 203.187 904.288 203.865 905.186L276.266 998.35C276.667 998.864 277.179 999.279 277.765 999.565C278.35 999.851 278.993 1000 279.645 1000H720.336C720.987 1000 721.63 999.851 722.216 999.565C722.801 999.279 723.314 998.864 723.715 998.35L790.347 912.614C791.042 911.718 791.353 910.584 791.212 909.459C791.072 908.335 790.491 907.312 789.597 906.615V906.615Z" fill="#18A7B5"/>
<path d="M999.9 640.507L903.616 198.836C903.482 198.205 903.205 197.612 902.807 197.104C902.408 196.596 901.898 196.187 901.316 195.907L860.327 175.863C859.308 175.364 858.132 175.291 857.059 175.659C855.985 176.028 855.102 176.807 854.604 177.827C854.105 178.846 854.032 180.022 854.401 181.096C854.769 182.169 855.549 183.052 856.568 183.55L895.658 202.675L991.072 640.367L853.239 817.779C852.561 818.677 852.264 819.805 852.412 820.92C852.56 822.035 853.141 823.047 854.029 823.737C854.918 824.427 856.042 824.739 857.159 824.607C858.276 824.474 859.295 823.907 859.997 823.028L999.1 644.076C999.49 643.578 999.764 642.999 999.902 642.382C1000.04 641.764 1000.04 641.124 999.9 640.507Z" fill="#18A7B5"/>
<path d="M205.854 152.499C206.506 152.499 207.149 152.348 207.734 152.059L499.955 8.9976L772.261 142.272C772.769 142.549 773.327 142.722 773.903 142.778C774.478 142.834 775.059 142.772 775.611 142.597C776.162 142.422 776.672 142.138 777.11 141.76C777.549 141.382 777.906 140.92 778.16 140.4C778.414 139.881 778.561 139.315 778.59 138.737C778.62 138.16 778.532 137.582 778.332 137.039C778.132 136.497 777.824 136 777.427 135.58C777.029 135.159 776.551 134.824 776.02 134.594L501.864 0.439907C501.281 0.148592 500.637 -0.00305176 499.985 -0.00305176C499.333 -0.00305176 498.689 0.148592 498.105 0.439907L203.945 144.371C203.073 144.794 202.371 145.501 201.953 146.375C201.535 147.25 201.427 148.24 201.645 149.184C201.863 150.128 202.396 150.97 203.155 151.572C203.914 152.175 204.855 152.501 205.824 152.499H205.854Z" fill="#18A7B5"/>
</g>
<defs>
<clipPath id="clip0">
<rect width="1000" height="1000" fill="white"/>
</clipPath>
</defs>
</svg>
