<svg width="1000" height="1000" viewBox="0 0 1000 1000" fill="none" xmlns="http://www.w3.org/2000/svg">
<g clip-path="url(#clip0)">
<path d="M353.365 381.127C353.053 382.218 353.188 383.388 353.739 384.38C354.29 385.372 355.213 386.104 356.304 386.416L483.339 422.596C483.719 422.71 484.113 422.767 484.509 422.766C485.537 422.76 486.529 422.384 487.303 421.707C488.077 421.03 488.581 420.096 488.723 419.078C488.865 418.06 488.635 417.024 488.076 416.161C487.517 415.298 486.666 414.665 485.679 414.378L358.643 378.188C357.553 377.88 356.386 378.016 355.396 378.567C354.407 379.118 353.676 380.038 353.365 381.127V381.127Z" fill="#18A7B5"/>
<path d="M685.425 475.722C685.269 476.262 685.222 476.829 685.287 477.388C685.351 477.947 685.525 478.488 685.799 478.979C686.073 479.471 686.442 479.903 686.884 480.252C687.326 480.6 687.832 480.858 688.374 481.01L815.4 517.2C815.784 517.307 816.181 517.361 816.579 517.36C817.608 517.355 818.599 516.979 819.373 516.301C820.147 515.624 820.651 514.691 820.793 513.673C820.935 512.654 820.706 511.619 820.147 510.755C819.588 509.892 818.736 509.259 817.749 508.973L690.713 472.782C689.622 472.474 688.453 472.61 687.462 473.16C686.471 473.711 685.739 474.632 685.425 475.722V475.722Z" fill="#18A7B5"/>
<path d="M615.054 349.286C615.438 349.395 615.835 349.452 616.234 349.456C617.164 349.454 618.068 349.15 618.809 348.589C619.55 348.028 620.089 347.241 620.343 346.346L656.533 219.321C656.698 218.778 656.752 218.207 656.694 217.642C656.636 217.078 656.466 216.53 656.194 216.032C655.922 215.534 655.554 215.095 655.111 214.74C654.668 214.386 654.158 214.123 653.613 213.967C653.067 213.811 652.496 213.765 651.932 213.832C651.368 213.9 650.824 214.078 650.33 214.358C649.836 214.637 649.403 215.012 649.055 215.461C648.707 215.91 648.453 216.423 648.305 216.971L612.115 344.007C611.961 344.547 611.915 345.111 611.979 345.669C612.044 346.226 612.217 346.766 612.49 347.256C612.763 347.746 613.13 348.178 613.57 348.526C614.01 348.874 614.515 349.132 615.054 349.286V349.286Z" fill="#18A7B5"/>
<path d="M521.629 681.516C522.559 681.517 523.464 681.215 524.207 680.656C524.95 680.097 525.491 679.311 525.748 678.417L561.938 551.381C562.111 550.835 562.172 550.26 562.119 549.69C562.066 549.12 561.898 548.566 561.627 548.062C561.356 547.558 560.986 547.113 560.54 546.754C560.094 546.395 559.58 546.13 559.029 545.973C558.478 545.816 557.902 545.772 557.333 545.842C556.765 545.913 556.217 546.096 555.721 546.383C555.225 546.669 554.791 547.052 554.446 547.508C554.1 547.965 553.85 548.487 553.71 549.042L517.52 676.067C517.208 677.159 517.343 678.329 517.894 679.32C518.445 680.312 519.368 681.044 520.459 681.356C520.84 681.462 521.233 681.516 521.629 681.516V681.516Z" fill="#18A7B5"/>
<path d="M703.1 660.532C703.844 660.529 704.575 660.332 705.22 659.961C705.865 659.59 706.403 659.058 706.78 658.417C707.157 657.775 707.361 657.047 707.371 656.303C707.382 655.559 707.198 654.825 706.839 654.173L642.607 538.755C642.339 538.254 641.974 537.813 641.533 537.455C641.093 537.097 640.585 536.83 640.041 536.671C639.496 536.511 638.926 536.461 638.362 536.524C637.798 536.586 637.252 536.761 636.756 537.037C636.26 537.312 635.824 537.684 635.473 538.13C635.122 538.576 634.863 539.087 634.712 539.634C634.56 540.181 634.519 540.753 634.591 541.316C634.662 541.879 634.845 542.422 635.129 542.913L699.361 658.332C699.731 658.999 700.273 659.555 700.931 659.942C701.588 660.329 702.337 660.533 703.1 660.532V660.532Z" fill="#18A7B5"/>
<path d="M468.873 235.406C468.383 235.679 467.952 236.046 467.604 236.486C467.256 236.926 466.998 237.43 466.845 237.969C466.692 238.508 466.646 239.073 466.711 239.63C466.776 240.186 466.95 240.725 467.224 241.215L531.456 356.634C531.826 357.301 532.368 357.857 533.025 358.244C533.683 358.631 534.432 358.834 535.195 358.833C535.923 358.831 536.638 358.645 537.275 358.293C538.266 357.742 538.998 356.819 539.309 355.728C539.62 354.637 539.486 353.466 538.934 352.475L474.681 237.056C474.128 236.069 473.206 235.341 472.118 235.032C471.029 234.723 469.863 234.857 468.873 235.406Z" fill="#18A7B5"/>
<path d="M396.203 297.3C395.505 298.191 395.189 299.323 395.323 300.448C395.458 301.572 396.034 302.597 396.923 303.298L500.655 385.056C501.548 385.734 502.671 386.034 503.783 385.892C504.895 385.75 505.907 385.178 506.601 384.298C507.296 383.417 507.617 382.3 507.496 381.185C507.374 380.071 506.821 379.048 505.953 378.338L402.211 296.59C401.319 295.89 400.187 295.572 399.061 295.705C397.935 295.838 396.907 296.411 396.203 297.3Z" fill="#18A7B5"/>
<path d="M774.481 599.718C775.37 599.718 776.237 599.441 776.961 598.925C777.686 598.41 778.231 597.681 778.523 596.841C778.814 596.002 778.836 595.092 778.587 594.238C778.338 593.385 777.829 592.631 777.131 592.08L673.389 510.322C672.951 509.946 672.441 509.663 671.891 509.489C671.34 509.315 670.761 509.255 670.186 509.311C669.612 509.367 669.055 509.539 668.548 509.816C668.042 510.093 667.597 510.469 667.24 510.923C666.883 511.376 666.621 511.897 666.471 512.454C666.321 513.012 666.285 513.594 666.365 514.165C666.445 514.737 666.64 515.286 666.939 515.78C667.237 516.274 667.632 516.703 668.1 517.04L771.792 598.838C772.562 599.429 773.511 599.739 774.481 599.718V599.718Z" fill="#18A7B5"/>
<path d="M599.059 549.302C598.501 549.367 597.962 549.542 597.472 549.817C596.982 550.091 596.551 550.459 596.204 550.9C595.857 551.342 595.6 551.847 595.448 552.387C595.296 552.928 595.253 553.493 595.32 554.05L610.835 685.225C610.96 686.262 611.46 687.219 612.241 687.913C613.021 688.607 614.029 688.992 615.074 688.994H615.584C616.711 688.861 617.739 688.286 618.442 687.396C619.145 686.505 619.466 685.372 619.333 684.245L603.837 553.041C603.774 552.479 603.6 551.936 603.325 551.443C603.049 550.949 602.678 550.516 602.233 550.168C601.788 549.82 601.278 549.564 600.733 549.415C600.188 549.266 599.619 549.228 599.059 549.302V549.302Z" fill="#18A7B5"/>
<path d="M574.474 346.117H574.984C575.543 346.052 576.083 345.878 576.574 345.604C577.065 345.33 577.497 344.962 577.845 344.521C578.194 344.08 578.451 343.574 578.604 343.033C578.756 342.492 578.8 341.926 578.733 341.368L563.197 210.163C563.046 209.052 562.465 208.044 561.579 207.357C560.692 206.67 559.571 206.359 558.458 206.49C557.344 206.621 556.326 207.184 555.623 208.058C554.92 208.932 554.589 210.047 554.7 211.163L570.236 342.338C570.358 343.377 570.857 344.335 571.638 345.032C572.419 345.728 573.428 346.114 574.474 346.117V346.117Z" fill="#18A7B5"/>
<path d="M480.67 455.987L349.496 471.523C348.413 471.652 347.42 472.189 346.72 473.025C346.02 473.861 345.666 474.933 345.73 476.022C345.794 477.111 346.271 478.134 347.064 478.882C347.856 479.631 348.905 480.049 349.996 480.05C350.165 480.06 350.336 480.06 350.506 480.05L481.67 464.515C482.236 464.458 482.784 464.29 483.284 464.019C483.784 463.749 484.225 463.381 484.581 462.938C484.937 462.495 485.201 461.986 485.359 461.44C485.516 460.893 485.562 460.321 485.496 459.757C485.43 459.192 485.251 458.647 484.972 458.152C484.692 457.657 484.317 457.223 483.868 456.875C483.418 456.527 482.904 456.271 482.355 456.124C481.806 455.977 481.234 455.94 480.67 456.017V455.987Z" fill="#18A7B5"/>
<path d="M692.873 439.441C693.042 439.456 693.213 439.456 693.383 439.441L824.547 423.886C825.673 423.753 826.699 423.179 827.402 422.289C828.104 421.399 828.424 420.267 828.291 419.142C828.159 418.016 827.584 416.99 826.695 416.287C825.805 415.585 824.673 415.265 823.547 415.398L692.373 430.884C691.29 431.013 690.297 431.55 689.597 432.386C688.897 433.222 688.543 434.294 688.607 435.383C688.671 436.472 689.148 437.495 689.941 438.243C690.733 438.992 691.782 439.41 692.873 439.411V439.441Z" fill="#18A7B5"/>
<path d="M517.73 416.268C518.691 416.275 519.626 415.958 520.386 415.368C521.145 414.778 521.683 413.95 521.914 413.017C522.145 412.084 522.055 411.1 521.659 410.224C521.262 409.349 520.583 408.632 519.729 408.19L433.882 363.902C433.381 363.614 432.827 363.431 432.253 363.363C431.678 363.296 431.097 363.345 430.542 363.509C429.988 363.672 429.472 363.946 429.027 364.315C428.581 364.683 428.215 365.138 427.95 365.651C427.685 366.165 427.527 366.727 427.485 367.304C427.443 367.88 427.519 368.459 427.707 369.006C427.895 369.552 428.192 370.055 428.58 370.484C428.968 370.912 429.438 371.258 429.963 371.5L515.82 415.748C516.407 416.069 517.061 416.247 517.73 416.268V416.268Z" fill="#18A7B5"/>
<path d="M652.504 481.44C651.986 482.45 651.889 483.625 652.236 484.707C652.583 485.788 653.344 486.688 654.353 487.208L740.21 531.447C740.826 531.77 741.514 531.935 742.21 531.926C743.171 531.933 744.106 531.616 744.866 531.027C745.625 530.437 746.163 529.609 746.394 528.676C746.625 527.743 746.535 526.759 746.139 525.883C745.742 525.008 745.063 524.291 744.209 523.849L658.352 479.601C657.849 479.331 657.297 479.165 656.728 479.111C656.159 479.058 655.586 479.119 655.041 479.29C654.496 479.462 653.991 479.74 653.556 480.109C653.12 480.478 652.762 480.931 652.504 481.44V481.44Z" fill="#18A7B5"/>
<path d="M670.818 294.51C671.338 293.502 671.436 292.328 671.09 291.247C670.744 290.166 669.983 289.267 668.974 288.747C667.965 288.227 666.791 288.13 665.71 288.476C664.629 288.822 663.73 289.583 663.21 290.592L621.132 372.24L543.853 437.882C542.992 438.611 542.456 439.652 542.36 440.776C542.265 441.9 542.618 443.016 543.343 443.88L550.641 452.578C503.154 473.702 419.016 508.783 334.349 532.616C229.088 562.248 156.197 614.014 139.402 671.109C128.745 707.259 139.732 744.979 171.933 783.279C171.933 783.748 171.933 784.278 172.023 784.698C172.081 785.199 172.226 785.687 172.453 786.138L172.503 786.238C172.726 786.647 173.013 787.019 173.353 787.337C173.395 787.375 173.435 787.415 173.473 787.457C173.82 787.745 174.207 787.981 174.622 788.157L174.822 788.237C175.17 788.366 175.533 788.45 175.902 788.487H176.252H176.362C205.554 822.398 237.345 839.623 270.886 839.623C305.107 839.623 339.998 822.058 374.608 787.417C411.258 750.737 437.591 704.91 453.277 672.928C491.647 594.559 541.103 518.65 570.366 475.981L579.363 486.739C579.726 487.171 580.171 487.528 580.672 487.789C581.172 488.05 581.72 488.209 582.282 488.258H582.642C583.654 488.262 584.635 487.908 585.411 487.258L657.582 425.895C658.052 426.758 658.808 427.431 659.721 427.796C660.634 428.161 661.645 428.196 662.581 427.895L754.556 398.472C755.103 398.311 755.612 398.042 756.053 397.681C756.495 397.32 756.86 396.875 757.127 396.371C757.393 395.867 757.557 395.315 757.607 394.747C757.658 394.179 757.594 393.606 757.42 393.063C757.246 392.52 756.966 392.018 756.595 391.585C756.224 391.152 755.77 390.797 755.26 390.542C754.75 390.287 754.194 390.136 753.625 390.099C753.056 390.061 752.485 390.138 751.947 390.325L667.629 417.317L785.977 316.804C786.158 316.852 786.342 316.888 786.527 316.914H786.897C787.903 316.917 788.877 316.563 789.646 315.915L857.458 259.02C858.052 258.516 858.497 257.86 858.745 257.122C858.994 256.384 859.036 255.592 858.868 254.831L940.086 185.77C940.944 185.039 941.479 183.998 941.573 182.874C941.666 181.75 941.312 180.635 940.586 179.771L904.595 136.863C904.234 136.431 903.791 136.076 903.292 135.816C902.793 135.557 902.247 135.4 901.686 135.353C900.549 135.263 899.422 135.622 898.547 136.353L638.227 357.673L670.818 294.51ZM848.72 255.221L787.467 306.627L786.347 305.298L776.02 292.981L837.263 241.575L847.261 253.502L848.72 255.221ZM853.769 247.933L841.052 232.777C840.323 231.919 839.284 231.382 838.162 231.282C837.039 231.183 835.923 231.53 835.054 232.247L767.252 289.152C766.391 289.88 765.853 290.919 765.754 292.042C765.654 293.165 766.003 294.282 766.722 295.15L779.789 310.836L583.132 478.041L575.354 468.773L570.845 463.385L568.846 460.986L567.596 459.496L566.597 458.356L565.317 456.877L563.317 454.477L558.759 449.039L552.63 441.741L622.112 382.667L627.94 377.668L900.756 145.661L931.268 182.021L853.769 247.933ZM181.021 779.61L180.451 778.43C180.809 774.647 181.736 770.939 183.2 767.433C184.497 771.216 186.26 774.823 188.449 778.17C186.123 778.925 183.739 779.487 181.321 779.849L181.021 779.61ZM196.277 774.461C192.488 768.984 190.127 762.647 189.408 756.026C208.593 727.354 255.85 693.963 308.476 656.783C334.539 638.368 361.462 619.323 388.085 598.798C436.932 561.139 486.978 522.999 525.558 493.727C489.907 526.978 443.3 570.866 396.592 616.024C340.138 670.609 289.281 714.567 249.512 743.129C225.209 760.605 208.383 770.032 196.826 774.981C196.646 774.791 196.456 774.651 196.277 774.461V774.461ZM382.896 592.06C356.413 612.435 329.531 631.43 303.538 649.825C254.841 684.225 212.752 713.977 189.938 741.2C190.32 738.843 190.824 736.507 191.448 734.202C206.174 680.026 289.131 606.776 353.464 577.494C398.122 557.16 449.538 531.337 488.238 511.442C455.876 536.005 419.046 564.158 382.896 592.06ZM402.581 622.212C433.572 592.22 464.484 562.878 492.207 536.765C460.495 573.755 424.225 618.253 402.371 652.334C381.441 684.717 356.571 714.376 328.331 740.63C295.58 770.682 265.048 787.867 240.045 790.317C226.418 791.656 214.352 788.557 204.054 781.129C245.733 761.794 316.274 705.62 402.541 622.212H402.581ZM163.425 757.635C144.95 728.733 139.612 700.551 147.56 673.578C163.555 619.323 234.246 569.726 336.659 540.894C400.281 522.989 463.624 498.775 511.471 478.811C467.663 501.625 409.649 528.937 348.635 549.492C226.079 590.781 182.23 643.826 167.024 681.046C157.087 705.39 155.897 731.043 163.425 757.635ZM174.952 684.285C195.487 633.999 258.14 589.011 351.365 557.599C422.106 533.776 488.808 500.945 534.315 476.361L528.477 480.79C495.686 498.056 415.507 539.774 349.915 569.636C318.134 584.102 280.554 609.975 249.382 638.848C214.132 671.499 190.618 704.54 183.18 731.892C181.144 739.038 180.273 746.464 180.601 753.886C178.352 757.467 176.44 761.249 174.892 765.183C164.575 736.881 164.555 709.738 174.952 684.285ZM194.947 784.908C205.714 794.266 219.542 799.346 233.806 799.184C236.112 799.184 238.445 799.068 240.805 798.834C301.788 792.836 375.088 710.708 409.499 656.943C437.631 612.954 490.287 551.281 525.468 511.542C495.566 550.361 459.985 600.608 430.253 654.173C376.408 751.307 313.495 804.783 253.131 804.783C232.347 804.783 211.532 798.534 191.148 786.208C192.348 785.788 193.617 785.388 194.947 784.908ZM445.539 669.249C407.22 747.518 341.197 831.146 270.836 831.146C246.273 831.146 222.569 820.958 200.086 800.794C217.571 809.142 235.326 813.35 253.131 813.35C338.958 813.35 405.66 716.227 437.791 658.322C468.673 602.657 505.973 550.551 536.475 511.362C508.512 554.35 474.002 611.125 445.539 669.249Z" fill="#18A7B5"/>
<path d="M640.187 618.213C640.632 618.213 641.074 618.142 641.497 618.003C642.577 617.657 643.476 616.896 643.995 615.887C644.514 614.879 644.612 613.705 644.266 612.625L614.844 520.649C614.479 519.593 613.715 518.722 612.715 518.222C611.715 517.721 610.56 517.632 609.495 517.973C608.431 518.314 607.542 519.058 607.019 520.046C606.496 521.033 606.38 522.187 606.696 523.259L636.118 615.234C636.394 616.097 636.936 616.851 637.667 617.387C638.399 617.922 639.281 618.211 640.187 618.213Z" fill="#18A7B5"/>
<path d="M532.556 277.385C532.02 277.556 531.523 277.83 531.094 278.192C530.664 278.555 530.31 278.999 530.052 279.498C529.794 279.998 529.636 280.543 529.589 281.104C529.542 281.664 529.606 282.228 529.777 282.764L559.209 374.739C559.37 375.286 559.639 375.795 560 376.236C560.361 376.678 560.807 377.043 561.31 377.31C561.814 377.576 562.367 377.74 562.935 377.79C563.503 377.841 564.075 377.777 564.618 377.603C565.161 377.429 565.664 377.149 566.097 376.778C566.53 376.407 566.884 375.953 567.139 375.443C567.395 374.933 567.545 374.377 567.583 373.808C567.62 373.239 567.543 372.668 567.357 372.13L537.935 280.154C537.588 279.074 536.827 278.175 535.819 277.656C534.81 277.137 533.637 277.039 532.556 277.385V277.385Z" fill="#18A7B5"/>
<path d="M536.515 392.604C537.528 392.614 538.511 392.259 539.284 391.604C540.139 390.87 540.67 389.829 540.762 388.706C540.854 387.583 540.499 386.469 539.774 385.606L477.181 312.046C476.824 311.598 476.38 311.226 475.876 310.952C475.373 310.679 474.819 310.51 474.249 310.454C473.678 310.399 473.102 310.459 472.555 310.63C472.009 310.802 471.502 311.081 471.065 311.452C470.628 311.824 470.27 312.279 470.013 312.791C469.755 313.303 469.603 313.861 469.566 314.433C469.528 315.005 469.606 315.579 469.795 316.12C469.983 316.661 470.278 317.159 470.663 317.584L533.256 391.154C533.663 391.617 534.164 391.986 534.727 392.236C535.29 392.486 535.9 392.612 536.515 392.604V392.604Z" fill="#18A7B5"/>
<path d="M634.759 503.794C633.905 504.529 633.376 505.572 633.286 506.695C633.196 507.818 633.553 508.931 634.279 509.792L696.872 583.362C697.606 584.226 698.654 584.761 699.783 584.852C700.913 584.943 702.032 584.582 702.895 583.847C703.758 583.113 704.294 582.066 704.385 580.936C704.476 579.806 704.115 578.687 703.38 577.824L640.827 504.284C640.462 503.851 640.015 503.495 639.512 503.237C639.008 502.978 638.459 502.821 637.895 502.775C637.331 502.73 636.763 502.796 636.225 502.971C635.687 503.146 635.188 503.426 634.759 503.794V503.794Z" fill="#18A7B5"/>
<path d="M581.103 521.129C579.972 521.038 578.851 521.4 577.987 522.135C577.123 522.87 576.586 523.918 576.494 525.048L568.746 621.322C568.655 622.453 569.017 623.574 569.752 624.438C570.486 625.302 571.534 625.839 572.665 625.931H573.005C574.08 625.929 575.115 625.523 575.904 624.793C576.693 624.064 577.179 623.063 577.264 621.992L585.022 525.718C585.11 524.59 584.747 523.473 584.012 522.613C583.277 521.752 582.231 521.219 581.103 521.129V521.129Z" fill="#18A7B5"/>
<path d="M592.94 374.269H593.29C594.364 374.267 595.399 373.861 596.188 373.131C596.978 372.402 597.463 371.402 597.548 370.33L605.306 274.056C605.372 272.94 604.997 271.842 604.263 270.998C603.529 270.155 602.494 269.632 601.38 269.542C600.265 269.451 599.16 269.801 598.3 270.516C597.44 271.231 596.894 272.254 596.779 273.366L589.021 369.65C588.929 370.782 589.291 371.904 590.025 372.77C590.76 373.636 591.808 374.175 592.94 374.269V374.269Z" fill="#18A7B5"/>
<path d="M509.333 445.71C510.426 445.692 511.472 445.257 512.254 444.493C513.037 443.729 513.497 442.694 513.541 441.602C513.584 440.509 513.208 439.441 512.488 438.617C511.769 437.793 510.761 437.276 509.673 437.172L413.399 429.414C412.832 429.355 412.259 429.411 411.714 429.576C411.168 429.742 410.662 430.015 410.223 430.38C409.785 430.744 409.424 431.192 409.161 431.698C408.899 432.204 408.74 432.757 408.694 433.325C408.648 433.893 408.716 434.465 408.894 435.006C409.072 435.548 409.356 436.048 409.73 436.478C410.104 436.908 410.56 437.259 411.072 437.511C411.583 437.762 412.14 437.909 412.709 437.942L508.983 445.7L509.333 445.71Z" fill="#18A7B5"/>
<path d="M660.452 453.618C660.363 454.748 660.726 455.867 661.46 456.731C662.194 457.594 663.241 458.132 664.37 458.226L760.645 465.984H760.994C762.088 465.967 763.133 465.532 763.916 464.768C764.698 464.004 765.159 462.969 765.202 461.876C765.246 460.783 764.869 459.715 764.15 458.892C763.43 458.068 762.423 457.551 761.334 457.446L665.06 449.689C664.499 449.641 663.934 449.705 663.398 449.877C662.861 450.049 662.364 450.326 661.936 450.691C661.507 451.056 661.155 451.503 660.901 452.006C660.646 452.508 660.493 453.056 660.452 453.618V453.618Z" fill="#18A7B5"/>
<path d="M449.309 234.417C449.392 234.282 449.466 234.142 449.529 233.997C449.691 233.707 449.816 233.398 449.899 233.077C449.938 232.906 449.968 232.732 449.989 232.557C450.024 232.245 450.024 231.93 449.989 231.617C449.975 231.433 449.951 231.25 449.919 231.068C449.924 230.974 449.924 230.881 449.919 230.788C449.822 230.535 449.705 230.291 449.569 230.058C449.519 229.958 449.509 229.848 449.449 229.748L407.21 162.396C406.906 161.912 406.507 161.494 406.039 161.166C405.57 160.838 405.04 160.607 404.481 160.487C403.924 160.365 403.348 160.357 402.788 160.464C402.228 160.57 401.695 160.789 401.222 161.106L363.712 185.95C363.199 186.288 362.766 186.733 362.441 187.255C362.117 187.776 361.908 188.362 361.83 188.971C361.752 189.58 361.807 190.199 361.99 190.785C362.174 191.372 362.481 191.912 362.892 192.368L400.162 233.937L394.714 237.096C394.402 237.289 394.113 237.517 393.854 237.776C393.774 237.856 393.714 237.946 393.634 238.026C393.47 238.22 393.323 238.427 393.194 238.646C393.131 238.749 393.075 238.856 393.024 238.965C392.907 239.201 392.817 239.45 392.754 239.705C392.754 239.805 392.694 239.895 392.674 239.985C392.671 240.022 392.671 240.059 392.674 240.095C392.628 240.427 392.628 240.763 392.674 241.095C392.674 241.095 392.674 241.095 392.674 241.095C392.679 241.141 392.679 241.188 392.674 241.235C392.71 241.541 392.777 241.842 392.874 242.135C392.874 242.245 392.964 242.355 393.014 242.464C393.105 242.694 393.222 242.912 393.364 243.114C393.426 243.22 393.496 243.32 393.574 243.414C393.574 243.474 393.644 243.534 393.684 243.584L436.742 293.071C437.379 293.805 438.248 294.3 439.204 294.473C440.161 294.646 441.148 294.486 442.001 294.021L453.518 287.822C454.049 287.534 454.514 287.137 454.881 286.657C455.247 286.177 455.508 285.624 455.646 285.036C455.784 284.447 455.796 283.837 455.681 283.243C455.565 282.65 455.326 282.088 454.977 281.594L431.084 247.763L448.319 235.496C448.711 235.198 449.046 234.833 449.309 234.417V234.417ZM433.023 235.856L426.095 240.785L422.616 243.264L421.027 244.384L413.549 236.046L410.629 232.797L407.72 229.548L372.56 190.339L402.262 170.654L437.882 227.469L440.011 230.878L438.742 231.777L433.023 235.856ZM440.881 284.923L411.589 251.252L418.797 254.101C418.797 254.101 418.867 254.101 418.897 254.101C419.368 254.288 419.87 254.386 420.377 254.391V254.391C420.815 254.391 421.25 254.32 421.666 254.181C422.091 254.052 422.492 253.856 422.856 253.601L424.046 252.752L445.14 282.614L440.881 284.923Z" fill="#18A7B5"/>
<path d="M390.055 192.718C389.329 192.554 388.571 192.609 387.877 192.876C387.183 193.143 386.583 193.609 386.155 194.217C385.726 194.825 385.487 195.546 385.468 196.289C385.449 197.033 385.651 197.765 386.049 198.394C386.447 199.022 387.022 199.519 387.701 199.821C388.381 200.122 389.135 200.215 389.868 200.088C390.601 199.961 391.28 199.619 391.818 199.107C392.357 198.594 392.731 197.932 392.894 197.207C393.003 196.726 393.016 196.228 392.932 195.741C392.849 195.255 392.67 194.79 392.406 194.373C392.142 193.956 391.799 193.595 391.395 193.311C390.992 193.027 390.536 192.825 390.055 192.718Z" fill="#18A7B5"/>
<path d="M403.001 185.2C402.275 185.036 401.518 185.091 400.823 185.358C400.129 185.625 399.53 186.091 399.101 186.699C398.672 187.307 398.433 188.028 398.414 188.771C398.395 189.515 398.598 190.247 398.995 190.876C399.393 191.504 399.968 192.001 400.648 192.303C401.328 192.604 402.082 192.697 402.814 192.57C403.547 192.443 404.226 192.101 404.764 191.589C405.303 191.076 405.677 190.414 405.84 189.689C405.949 189.208 405.962 188.71 405.879 188.223C405.795 187.737 405.616 187.272 405.352 186.855C405.089 186.438 404.745 186.077 404.342 185.793C403.938 185.509 403.482 185.307 403.001 185.2V185.2Z" fill="#18A7B5"/>
<path d="M598.418 181.221C598.067 181.171 597.71 181.171 597.358 181.221C597.21 181.234 597.063 181.257 596.919 181.291C596.708 181.329 596.501 181.383 596.299 181.451L595.889 181.611C595.671 181.711 595.464 181.832 595.269 181.971C595.179 182.041 595.079 182.091 594.979 182.171H594.899C594.65 182.389 594.426 182.634 594.229 182.901V182.901C594.205 182.942 594.185 182.985 594.169 183.031C593.993 183.285 593.849 183.561 593.739 183.85C593.692 183.957 593.656 184.067 593.629 184.18C593.555 184.421 593.504 184.669 593.479 184.92C593.479 185.04 593.479 185.15 593.479 185.27C593.479 185.39 593.479 185.41 593.479 185.48L594.339 234.517C594.358 235.487 594.705 236.422 595.324 237.168C595.944 237.915 596.798 238.429 597.748 238.626L607.326 240.625C607.919 240.749 608.532 240.745 609.123 240.614C609.715 240.483 610.272 240.227 610.757 239.864C611.242 239.501 611.645 239.039 611.937 238.508C612.23 237.977 612.406 237.39 612.454 236.786L614.954 207.004L629.65 208.184H629.99C630.46 208.178 630.927 208.094 631.369 207.934C631.509 207.884 631.639 207.814 631.779 207.754C632.058 207.616 632.326 207.455 632.579 207.274L632.949 206.934C633.163 206.722 633.354 206.487 633.519 206.234C633.609 206.094 633.709 205.954 633.789 205.804C633.869 205.654 633.879 205.674 633.909 205.605C633.992 205.363 634.055 205.116 634.099 204.865C634.099 204.745 634.199 204.635 634.219 204.505L642.416 145.631C642.496 145.066 642.462 144.49 642.315 143.939C642.169 143.387 641.913 142.871 641.564 142.419C641.214 141.968 640.778 141.592 640.28 141.312C639.783 141.033 639.234 140.856 638.667 140.792L605.256 136.993C604.647 136.918 604.029 136.978 603.445 137.168C602.861 137.358 602.326 137.674 601.877 138.093C601.426 138.51 601.07 139.02 600.834 139.588C600.597 140.156 600.486 140.767 600.508 141.382L601.817 181.771L598.488 181.191L598.418 181.221ZM609.145 146.081L633.269 148.82L626.831 195.367L626.271 199.366L624.721 199.236L615.624 198.506L611.425 198.167H611.365H610.875L610.685 192.388L610.535 187.719L610.395 183.351L609.145 146.081ZM604.257 231.288L602.757 230.978L602.267 202.945L602.917 204.155C603.098 204.476 603.316 204.774 603.567 205.045L603.667 205.125C603.965 205.413 604.301 205.658 604.666 205.854C604.77 205.914 604.877 205.967 604.986 206.014C605.414 206.207 605.87 206.332 606.336 206.384V206.384L604.257 231.288Z" fill="#18A7B5"/>
<path d="M616.364 158.567C616.805 158.23 617.137 157.77 617.317 157.244C617.497 156.718 617.517 156.151 617.374 155.614C617.232 155.077 616.934 154.595 616.517 154.227C616.1 153.86 615.584 153.624 615.033 153.55C614.483 153.476 613.923 153.567 613.424 153.811C612.925 154.055 612.509 154.442 612.23 154.922C611.951 155.403 611.82 155.955 611.855 156.509C611.89 157.064 612.088 157.596 612.425 158.037C612.648 158.331 612.928 158.577 613.247 158.763C613.566 158.948 613.919 159.069 614.284 159.119C614.65 159.168 615.022 159.144 615.379 159.05C615.736 158.955 616.07 158.791 616.364 158.567V158.567Z" fill="#18A7B5"/>
<path d="M627.391 160.487C627.833 160.15 628.164 159.689 628.344 159.164C628.524 158.638 628.544 158.071 628.402 157.534C628.259 156.997 627.961 156.514 627.544 156.147C627.128 155.779 626.611 155.544 626.061 155.47C625.51 155.396 624.95 155.486 624.451 155.731C623.952 155.975 623.537 156.362 623.258 156.842C622.978 157.322 622.848 157.874 622.882 158.429C622.917 158.983 623.115 159.515 623.452 159.957C623.676 160.25 623.955 160.497 624.274 160.682C624.593 160.868 624.946 160.989 625.312 161.038C625.678 161.087 626.049 161.064 626.406 160.969C626.763 160.875 627.098 160.711 627.391 160.487V160.487Z" fill="#18A7B5"/>
<path d="M886.81 471.653C887.262 471.301 887.598 470.823 887.777 470.279C887.955 469.735 887.968 469.151 887.812 468.6C887.657 468.049 887.341 467.557 886.905 467.186C886.469 466.816 885.932 466.584 885.363 466.52C884.794 466.456 884.22 466.563 883.712 466.827C883.204 467.091 882.787 467.501 882.513 468.003C882.239 468.506 882.121 469.079 882.175 469.649C882.228 470.218 882.45 470.76 882.812 471.203C883.289 471.783 883.973 472.154 884.72 472.238C885.466 472.322 886.216 472.112 886.81 471.653V471.653Z" fill="#18A7B5"/>
<path d="M885.131 482.97C885.579 482.617 885.911 482.139 886.086 481.597C886.261 481.055 886.271 480.474 886.114 479.926C885.957 479.378 885.641 478.89 885.206 478.523C884.77 478.156 884.235 477.926 883.669 477.864C883.103 477.802 882.531 477.909 882.026 478.173C881.522 478.437 881.107 478.845 880.835 479.345C880.563 479.846 880.446 480.416 880.499 480.983C880.552 481.55 880.772 482.088 881.132 482.53C881.61 483.111 882.295 483.482 883.042 483.564C883.79 483.646 884.539 483.433 885.131 482.97V482.97Z" fill="#18A7B5"/>
<path d="M501.554 739.19H501.324C500.95 739.26 500.586 739.381 500.245 739.55L500.075 739.64C499.743 739.819 499.437 740.041 499.165 740.3C499.165 740.3 499.115 740.3 499.105 740.35C498.824 740.649 498.585 740.986 498.395 741.35C498.395 741.35 498.335 741.41 498.315 741.45C498.32 741.483 498.32 741.517 498.315 741.55C498.154 741.866 498.036 742.202 497.965 742.55L469.713 875.854C469.594 876.413 469.588 876.99 469.696 877.552C469.804 878.113 470.023 878.647 470.341 879.123C470.659 879.598 471.069 880.005 471.546 880.319C472.024 880.633 472.56 880.848 473.122 880.952L548.921 894.948C549.179 894.996 549.44 895.02 549.701 895.018C550.807 895.022 551.871 894.595 552.667 893.828C553.464 893.061 553.931 892.015 553.97 890.909L557.719 791.516L571.835 795.015C572.162 795.097 572.498 795.138 572.835 795.135C573.238 795.13 573.638 795.07 574.025 794.955L574.315 794.855C574.668 794.727 575.003 794.556 575.314 794.346L575.404 794.296C575.538 794.187 575.665 794.07 575.784 793.946C575.884 793.846 575.994 793.756 576.094 793.646C576.094 793.646 576.144 793.556 576.174 793.506C576.362 793.273 576.52 793.018 576.644 792.746C576.699 792.64 576.746 792.529 576.784 792.416C576.872 792.182 576.939 791.942 576.984 791.696L577.044 791.346C577.044 791.276 577.044 791.206 577.044 791.136L583.052 678.817C583.101 677.847 582.82 676.89 582.256 676.1C581.691 675.311 580.876 674.735 579.943 674.468L558.359 668.38C557.775 668.217 557.163 668.18 556.564 668.269C555.965 668.359 555.391 668.574 554.88 668.899C554.372 669.226 553.939 669.657 553.61 670.164C553.28 670.671 553.063 671.241 552.97 671.839L541.633 745.019L502.754 739.13C502.353 739.095 501.95 739.115 501.554 739.19V739.19ZM574.325 681.816L569.516 773.171L558.849 749.638C558.689 749.303 558.491 748.987 558.259 748.698C558.259 748.698 558.189 748.698 558.169 748.608C557.875 748.298 557.538 748.033 557.169 747.818C557.072 747.749 556.968 747.688 556.859 747.638C556.45 747.409 556.003 747.253 555.54 747.178L550.041 746.338L560.628 677.967L574.325 681.816ZM558.049 782.789L558.539 769.652L565.317 784.648L558.049 782.849V782.789ZM548.781 754.796L550.531 755.066L549.531 780.729L549.371 785.098L549.211 789.457L545.582 885.691L478.96 873.334L504.603 752.177L505.433 748.238L506.973 748.478L513.971 749.528L514.441 749.598L540.334 753.517L544.563 754.156L548.781 754.796Z" fill="#18A7B5"/>
<path d="M525.858 849.351C524.793 850.049 523.959 851.047 523.461 852.218C522.964 853.39 522.825 854.683 523.062 855.934C523.299 857.185 523.902 858.337 524.794 859.246C525.686 860.154 526.827 860.778 528.073 861.038C529.32 861.297 530.615 861.182 531.796 860.706C532.976 860.23 533.989 859.414 534.707 858.362C535.424 857.31 535.813 856.07 535.825 854.797C535.838 853.524 535.472 852.275 534.775 851.21C534.312 850.502 533.714 849.892 533.015 849.416C532.316 848.939 531.53 848.605 530.702 848.432C529.873 848.26 529.019 848.252 528.188 848.409C527.357 848.567 526.565 848.887 525.858 849.351V849.351Z" fill="#18A7B5"/>
<path d="M500.864 843.182C499.8 843.88 498.966 844.878 498.468 846.05C497.971 847.222 497.832 848.515 498.069 849.766C498.306 851.017 498.909 852.169 499.801 853.078C500.693 853.986 501.834 854.609 503.08 854.869C504.326 855.129 505.622 855.014 506.802 854.538C507.983 854.061 508.996 853.246 509.713 852.194C510.431 851.142 510.82 849.901 510.832 848.628C510.844 847.355 510.479 846.107 509.782 845.042C509.319 844.334 508.721 843.724 508.022 843.248C507.323 842.771 506.537 842.437 505.709 842.264C504.88 842.091 504.026 842.083 503.195 842.241C502.364 842.399 501.572 842.719 500.864 843.182V843.182Z" fill="#18A7B5"/>
<path d="M774.051 685.125C774.051 685.175 774.151 685.215 774.201 685.275C774.276 685.363 774.356 685.447 774.441 685.525C774.618 685.707 774.812 685.871 775.021 686.015L775.301 686.205C775.577 686.363 775.869 686.494 776.171 686.595H776.281C776.607 686.682 776.943 686.733 777.28 686.745H777.44C777.743 686.741 778.044 686.708 778.34 686.645C778.47 686.645 778.6 686.555 778.73 686.515C778.86 686.475 779.04 686.435 779.18 686.375C779.32 686.315 779.46 686.205 779.6 686.125C779.725 686.064 779.846 685.994 779.96 685.915C780.21 685.739 780.438 685.534 780.64 685.305L786.418 678.827L827.197 733.892C827.564 734.385 828.032 734.793 828.57 735.09C829.108 735.386 829.704 735.564 830.316 735.611H830.636C831.761 735.604 832.838 735.156 833.635 734.362L872.125 696.052C872.529 695.649 872.848 695.169 873.064 694.641C873.28 694.112 873.389 693.546 873.383 692.975C873.377 692.405 873.258 691.841 873.032 691.317C872.805 690.793 872.477 690.319 872.065 689.924L802.624 623.592C802.534 623.512 802.424 623.482 802.334 623.412C802.14 623.224 801.925 623.06 801.694 622.922C801.614 622.922 801.514 622.922 801.434 622.832C801.261 622.758 801.084 622.695 800.904 622.642C800.605 622.551 800.296 622.494 799.984 622.472C799.476 622.414 798.96 622.468 798.475 622.632C798.322 622.666 798.172 622.709 798.025 622.762C797.557 622.95 797.127 623.221 796.755 623.562L777.41 641.557L742.58 604.427C742.172 603.975 741.669 603.62 741.107 603.387C740.545 603.153 739.939 603.048 739.331 603.077C738.726 603.094 738.131 603.239 737.587 603.502C737.042 603.766 736.56 604.142 736.172 604.607L726.074 616.833C725.454 617.579 725.104 618.512 725.082 619.482C725.06 620.451 725.368 621.4 725.954 622.172L774.051 685.125ZM771.182 647.485L769.243 649.295C768.903 649.616 768.622 649.995 768.413 650.414C768.353 650.524 768.303 650.634 768.253 650.744C768.089 651.124 767.978 651.524 767.923 651.934V652.064C767.873 652.429 767.873 652.799 767.923 653.164L770.172 665.98L734.802 619.693L739.641 613.904L771.182 647.485ZM788.368 643.166L793.366 638.498L798.515 633.699L799.654 632.639L802.564 635.418L862.997 693.153L831.126 724.874L792.236 672.358L789.637 668.819L787.038 665.3L783.729 660.822L777.87 652.904L780.16 650.764L783.289 647.855L788.368 643.166ZM780.13 673.088L779.51 669.539L781.229 671.859L780.13 673.088Z" fill="#18A7B5"/>
<path d="M828.226 706.879C829.124 706.861 829.996 706.577 830.732 706.064C831.468 705.55 832.036 704.83 832.363 703.994C832.689 703.158 832.761 702.244 832.569 701.367C832.376 700.491 831.928 699.691 831.281 699.069C830.633 698.447 829.816 698.031 828.933 697.873C828.049 697.715 827.139 697.823 826.316 698.183C825.494 698.543 824.797 699.138 824.313 699.894C823.829 700.65 823.58 701.533 823.598 702.43C823.609 703.026 823.738 703.614 823.977 704.16C824.216 704.707 824.56 705.201 824.99 705.614C825.42 706.027 825.927 706.351 826.482 706.568C827.038 706.785 827.63 706.891 828.226 706.879V706.879Z" fill="#18A7B5"/>
<path d="M840.263 693.383C841.161 693.365 842.033 693.081 842.769 692.568C843.505 692.054 844.073 691.334 844.4 690.498C844.727 689.662 844.798 688.748 844.606 687.871C844.413 686.994 843.965 686.195 843.318 685.573C842.671 684.951 841.854 684.534 840.97 684.377C840.086 684.219 839.176 684.327 838.353 684.687C837.531 685.046 836.834 685.642 836.35 686.398C835.866 687.154 835.617 688.037 835.635 688.934C835.646 689.53 835.775 690.118 836.014 690.664C836.253 691.21 836.598 691.704 837.027 692.117C837.457 692.53 837.964 692.855 838.52 693.072C839.075 693.289 839.667 693.395 840.263 693.383V693.383Z" fill="#18A7B5"/>
<path d="M168.225 405.77C167.751 406.16 167.366 406.647 167.099 407.2C166.831 407.752 166.687 408.356 166.675 408.97L165.046 478.871C165.034 479.441 165.136 480.007 165.345 480.537C165.555 481.067 165.868 481.55 166.266 481.958C166.665 482.366 167.14 482.69 167.665 482.912C168.191 483.134 168.755 483.248 169.325 483.25V483.25L292.921 483C293.259 482.992 293.594 482.945 293.921 482.86H294.031L294.141 482.81C294.526 482.697 294.894 482.528 295.231 482.31H295.291C295.599 482.094 295.878 481.839 296.12 481.55C296.169 481.505 296.213 481.455 296.25 481.4C296.49 481.096 296.685 480.759 296.83 480.4C296.83 480.33 296.88 480.26 296.9 480.19C297.043 479.812 297.131 479.414 297.16 479.011L299.16 443.81L365.902 447.289H366.182C367.315 447.289 368.401 446.84 369.204 446.04C370.006 445.239 370.458 444.154 370.46 443.02C370.462 442.683 370.422 442.348 370.34 442.021L369.001 422.426C368.937 421.457 368.545 420.538 367.889 419.822C367.232 419.106 366.352 418.635 365.392 418.487L264.569 402.891H264.009C263.758 402.883 263.507 402.899 263.259 402.941L262.909 403.001C262.611 403.077 262.319 403.181 262.04 403.311L261.91 403.361C261.615 403.514 261.34 403.702 261.09 403.921L261.02 404.011C260.948 404.08 260.882 404.153 260.82 404.231C260.637 404.422 260.473 404.629 260.33 404.851L260.16 405.161C260.045 405.389 259.948 405.627 259.87 405.87C259.87 405.97 259.8 406.08 259.77 406.19C259.688 406.548 259.651 406.914 259.66 407.28L260.12 419.967L171.664 404.891C171.061 404.785 170.443 404.808 169.85 404.96C169.257 405.112 168.703 405.388 168.225 405.77ZM360.653 426.425L361.473 438.492L299.66 435.223L299.919 430.574C299.941 430.107 299.88 429.64 299.74 429.194C299.74 429.074 299.67 428.964 299.63 428.844C299.49 428.458 299.295 428.094 299.05 427.765C299.024 427.729 299.001 427.693 298.98 427.655C298.749 427.363 298.48 427.105 298.18 426.885L280.595 414.008L360.653 426.425ZM268.678 421.426L268.468 415.778L278.465 423.096L268.678 421.426ZM264.679 429.424L268.988 430.154L291.162 433.883L291.112 434.733L290.872 439.011L290.632 443.28L288.972 472.872L288.882 474.422H284.884L173.734 474.632L175.143 414.078L260.45 428.624L264.679 429.424Z" fill="#18A7B5"/>
<path d="M203.296 437.982C204.111 437.165 204.665 436.124 204.889 434.992C205.113 433.86 204.997 432.687 204.554 431.621C204.112 430.555 203.363 429.644 202.404 429.003C201.444 428.362 200.316 428.02 199.162 428.02C198.008 428.02 196.879 428.362 195.92 429.003C194.96 429.644 194.212 430.555 193.769 431.621C193.327 432.687 193.21 433.86 193.434 434.992C193.658 436.124 194.213 437.165 195.028 437.982C196.124 439.078 197.611 439.693 199.162 439.693C200.712 439.693 202.199 439.078 203.296 437.982V437.982Z" fill="#18A7B5"/>
<path d="M195.877 452.968C195.062 453.785 194.508 454.825 194.284 455.957C194.06 457.089 194.176 458.262 194.619 459.328C195.061 460.394 195.809 461.305 196.769 461.946C197.729 462.587 198.857 462.929 200.011 462.929C201.165 462.929 202.294 462.587 203.253 461.946C204.213 461.305 204.961 460.394 205.404 459.328C205.846 458.262 205.963 457.089 205.739 455.957C205.515 454.825 204.96 453.785 204.145 452.968C203.603 452.424 202.959 451.992 202.249 451.698C201.54 451.404 200.779 451.252 200.011 451.252C199.243 451.252 198.483 451.404 197.773 451.698C197.064 451.992 196.42 452.424 195.877 452.968V452.968Z" fill="#18A7B5"/>
<path d="M999.9 640.507L914.923 250.852C914.819 250.289 914.602 249.752 914.286 249.274C913.97 248.795 913.562 248.385 913.084 248.068C912.607 247.751 912.071 247.533 911.508 247.426C910.944 247.32 910.366 247.329 909.805 247.45C909.245 247.572 908.716 247.806 908.247 248.136C907.779 248.467 907.382 248.888 907.08 249.375C906.778 249.862 906.577 250.405 906.488 250.971C906.4 251.538 906.426 252.116 906.565 252.672L991.072 640.377L963.08 676.447L940.636 705.32L718.236 991.442H281.734L8.88765 640.377L104.302 202.675L499.955 8.9976L811.681 161.566C812.7 162.065 813.876 162.138 814.95 161.77C816.023 161.401 816.906 160.621 817.404 159.602C817.903 158.582 817.976 157.407 817.607 156.333C817.239 155.26 816.459 154.377 815.44 153.878L501.865 0.439907C501.281 0.148592 500.637 -0.00305176 499.985 -0.00305176C499.333 -0.00305176 498.689 0.148592 498.106 0.439907L98.6834 195.947C98.1022 196.23 97.593 196.642 97.1946 197.151C96.7962 197.661 96.519 198.254 96.384 198.886L0.100021 640.507C-0.0340992 641.12 -0.0319816 641.754 0.106224 642.366C0.24443 642.977 0.515347 643.551 0.899805 644.046L276.265 998.35C276.666 998.864 277.179 999.279 277.765 999.565C278.35 999.851 278.993 1000 279.645 1000H720.336C720.987 999.999 721.63 999.85 722.215 999.564C722.8 999.278 723.313 998.863 723.715 998.35L947.374 710.588L960.631 693.523L969.818 681.706L999.09 644.046C999.476 643.552 999.749 642.978 999.889 642.367C1000.03 641.755 1000.03 641.12 999.9 640.507V640.507Z" fill="#18A7B5"/>
</g>
<defs>
<clipPath id="clip0">
<rect width="1000" height="1000" fill="white"/>
</clipPath>
</defs>
</svg>
