<svg width="1000" height="1000" viewBox="0 0 1000 1000" fill="none" xmlns="http://www.w3.org/2000/svg">
<g clip-path="url(#clip0)">
<path d="M629.93 780.079C630.04 779.999 630.12 779.899 630.22 779.819L630.619 779.449C630.757 779.29 630.881 779.12 630.989 778.94C631.074 778.846 631.151 778.746 631.219 778.64C631.219 778.59 631.219 778.53 631.289 778.48C631.359 778.43 631.289 778.42 631.349 778.38L665.18 705.28L695.172 703.93H695.632L734.192 697.932C734.439 697.892 734.683 697.831 734.921 697.752L770.122 685.755C770.801 685.525 771.41 685.126 771.891 684.595L790.356 664.411C791.023 663.683 791.419 662.747 791.476 661.761L793.326 627.67C793.356 627.388 793.356 627.103 793.326 626.821C793.322 626.797 793.322 626.774 793.326 626.751C793.266 626.435 793.172 626.126 793.046 625.831C793.046 625.831 793.046 625.751 793.046 625.711L784.248 606.326C783.854 605.468 783.186 604.764 782.349 604.327L744.359 584.262C744.005 584.069 743.624 583.931 743.229 583.852L703.69 575.665C703.485 575.622 703.278 575.596 703.07 575.585L699.071 575.345L699.591 571.346C699.591 571.276 699.591 571.206 699.591 571.126C699.591 571.046 699.591 570.856 699.591 570.726C699.591 570.514 699.571 570.304 699.531 570.096C699.513 569.968 699.486 569.841 699.451 569.716C699.396 569.5 699.322 569.29 699.231 569.086C699.231 569.006 699.231 568.926 699.141 568.856C699.051 568.786 699.141 568.856 699.141 568.796L705.359 569.286H705.699C706.834 569.286 707.922 568.835 708.725 568.033C709.527 567.231 709.978 566.142 709.978 565.007C709.984 564.516 709.899 564.028 709.728 563.568L696.902 492.967L696.812 492.867C696.721 492.405 696.552 491.962 696.312 491.557C696.281 491.512 696.248 491.469 696.212 491.427C696.076 491.206 695.918 490.998 695.742 490.807C695.642 490.707 695.522 490.627 695.412 490.538C695.323 490.455 695.23 490.379 695.132 490.308C694.784 490.058 694.4 489.862 693.992 489.728L693.703 489.658C693.473 489.594 693.239 489.551 693.003 489.528C692.763 489.503 692.522 489.503 692.283 489.528L676.707 490.867L680.606 470.383C680.611 470.28 680.611 470.176 680.606 470.073C680.606 469.943 680.606 469.813 680.606 469.683C680.615 469.435 680.598 469.188 680.556 468.943C680.556 468.823 680.556 468.703 680.556 468.593C680.476 468.244 680.348 467.908 680.176 467.594V467.594C680.176 467.594 680.126 467.534 680.106 467.494C679.968 467.249 679.807 467.018 679.626 466.804L679.556 466.744C679.415 466.591 679.261 466.451 679.096 466.324L678.806 466.094C678.592 465.955 678.368 465.832 678.137 465.724L677.927 465.644C677.701 465.55 677.467 465.48 677.227 465.434L681.076 446.619C681.203 446.001 681.191 445.362 681.043 444.749C680.894 444.135 680.612 443.562 680.216 443.07C679.817 442.582 679.316 442.186 678.747 441.912C678.179 441.637 677.558 441.49 676.927 441.481L659.602 441.321C658.496 441.32 657.432 441.747 656.635 442.513C655.837 443.279 655.367 444.325 655.323 445.43L654.093 477.161C654.093 477.161 654.093 477.161 654.093 477.221C654.085 477.609 654.133 477.996 654.233 478.371C654.233 478.371 654.233 478.461 654.233 478.501C654.233 478.541 654.233 478.561 654.233 478.601C654.351 478.975 654.519 479.332 654.733 479.66L654.853 479.81C655.062 480.101 655.307 480.363 655.583 480.59L655.703 480.7C656.01 480.929 656.346 481.117 656.702 481.26L656.932 481.34C657.311 481.48 657.709 481.561 658.112 481.58L663.401 481.81L662.401 492.157L647.825 493.447C647.723 493.467 647.623 493.494 647.525 493.527C647.182 493.577 646.847 493.668 646.525 493.797C646.381 493.855 646.241 493.922 646.105 493.997C645.814 494.158 645.546 494.356 645.306 494.586C645.174 494.69 645.053 494.807 644.946 494.936C644.758 495.166 644.594 495.414 644.456 495.676C644.352 495.864 644.259 496.058 644.176 496.256C644.176 496.346 644.086 496.416 644.056 496.506L623.371 567.487C623.19 568.097 623.149 568.74 623.249 569.368C623.349 569.996 623.588 570.594 623.95 571.118C624.311 571.641 624.786 572.077 625.338 572.394C625.89 572.71 626.506 572.898 627.14 572.945L638.547 573.865H638.887C639.782 573.858 640.653 573.572 641.377 573.045L641.307 574.935L626.181 575.934C625.962 575.944 625.744 575.974 625.531 576.024L583.972 585.182C583.604 585.262 583.248 585.389 582.912 585.562L547.132 604.257C546.4 604.638 545.795 605.225 545.392 605.946L534.465 625.331C534.447 625.367 534.43 625.404 534.415 625.441C534.282 625.693 534.175 625.957 534.096 626.231C534.094 626.264 534.094 626.298 534.096 626.331C534.023 626.616 533.976 626.907 533.956 627.201L532.096 661.281C532.047 662.194 532.293 663.098 532.796 663.861L543.993 680.926C544.423 681.586 545.029 682.112 545.742 682.446L567.846 692.813C568.104 692.93 568.372 693.024 568.646 693.093L599.138 700.571C599.358 700.623 599.582 700.66 599.808 700.681L607.316 701.281L576.934 749.478L501.164 785.978L475.171 638.757L527.717 518.57C527.717 518.5 527.717 518.44 527.777 518.37C527.837 518.3 527.827 518.3 527.837 518.26C527.847 518.22 527.837 518.04 527.917 517.93C527.997 517.82 527.977 517.77 527.997 517.68L552.051 396.193L578.993 395.473L628.13 390.974L628.59 390.904L672.978 381.807C673.536 381.69 674.065 381.466 674.538 381.147L696.812 365.901C697.386 365.509 697.855 364.982 698.179 364.367C698.503 363.752 698.672 363.067 698.671 362.372V336.529C698.671 336.389 698.671 336.269 698.671 336.139C698.671 336.009 698.671 335.899 698.671 335.779C698.638 335.571 698.584 335.367 698.511 335.169C698.511 335.089 698.511 335 698.431 334.91C698.319 334.632 698.178 334.368 698.011 334.12L697.931 334.03C697.785 333.817 697.617 333.62 697.431 333.44L697.382 333.38L684.715 321.673C684.178 321.183 683.524 320.839 682.815 320.673L632.619 308.547C632.425 308.498 632.228 308.465 632.029 308.447L580.653 303.498H580.353L552.711 302.738L552.161 294.88C552.578 294.508 552.918 294.056 553.16 293.551C553.16 293.551 553.21 293.491 553.22 293.461C553.223 293.411 553.223 293.361 553.22 293.311C553.328 293.073 553.411 292.825 553.47 292.571C553.47 292.491 553.47 292.411 553.52 292.331C553.585 292.002 553.609 291.666 553.59 291.331V291.331L552.221 268.827C552.923 269.314 553.755 269.579 554.61 269.587C554.837 269.585 555.065 269.568 555.29 269.537L566.637 267.708C567.249 267.609 567.833 267.378 568.348 267.032C568.862 266.685 569.295 266.231 569.617 265.7C569.938 265.169 570.14 264.575 570.209 263.959C570.278 263.342 570.212 262.718 570.016 262.129L547.602 195.147C547.602 195.147 547.602 195.077 547.542 195.047C547.391 194.626 547.175 194.232 546.902 193.878L546.782 193.748C546.502 193.399 546.164 193.101 545.782 192.868H545.712C545.329 192.648 544.915 192.49 544.483 192.398C544.363 192.398 544.243 192.398 544.123 192.348C543.942 192.307 543.758 192.28 543.573 192.268L529.107 192.208L527.927 182.571L533.426 181.881C533.827 181.827 534.218 181.712 534.585 181.541L534.795 181.451C535.137 181.281 535.456 181.07 535.745 180.821L535.875 180.681C536.149 180.417 536.388 180.117 536.585 179.791V179.791C536.77 179.437 536.911 179.061 537.005 178.672C537.005 178.622 537.005 178.592 537.005 178.542C537.01 178.512 537.01 178.482 537.005 178.452C537.082 178.108 537.109 177.754 537.085 177.402L535.085 146.82C535.049 146.246 534.899 145.685 534.643 145.17C534.387 144.655 534.031 144.197 533.596 143.821C533.162 143.45 532.658 143.17 532.113 142.998C531.569 142.826 530.995 142.766 530.427 142.821L513.161 144.401C512.549 144.457 511.956 144.644 511.423 144.95C510.89 145.256 510.428 145.673 510.071 146.173C509.713 146.672 509.467 147.244 509.35 147.847C509.233 148.451 509.248 149.072 509.392 149.67L513.711 167.535L513.421 167.605C513.311 167.605 513.211 167.685 513.101 167.725C512.869 167.814 512.644 167.925 512.431 168.055L512.122 168.255C511.92 168.411 511.729 168.581 511.552 168.764C511.472 168.844 511.392 168.914 511.322 168.994L511.252 169.074C511.053 169.334 510.885 169.616 510.752 169.914V169.914C510.752 169.964 510.752 170.024 510.752 170.074C510.643 170.352 510.563 170.64 510.512 170.934C510.502 171.054 510.502 171.174 510.512 171.294C510.482 171.536 510.482 171.781 510.512 172.024C510.512 172.153 510.512 172.273 510.512 172.403C510.512 172.533 510.512 172.533 510.512 172.603L514.931 192.148L499.085 192.088C498.628 192.095 498.176 192.176 497.745 192.328L497.495 192.408C497.1 192.571 496.729 192.79 496.396 193.058L496.206 193.238C496.086 193.348 495.956 193.448 495.836 193.578C495.697 193.759 495.57 193.949 495.456 194.148C495.419 194.195 495.386 194.245 495.356 194.298C495.139 194.686 494.99 195.108 494.916 195.547C494.916 195.597 494.916 195.637 494.866 195.687L483.759 265.668C483.653 266.283 483.682 266.913 483.845 267.514C484.008 268.116 484.301 268.675 484.703 269.151C485.105 269.628 485.607 270.01 486.172 270.272C486.738 270.534 487.355 270.669 487.978 270.667C488.209 270.667 488.44 270.647 488.668 270.607L494.406 269.687C494.335 269.879 494.278 270.076 494.236 270.277L494.176 270.647C494.161 270.857 494.161 271.067 494.176 271.277C494.166 271.403 494.166 271.53 494.176 271.657V271.797L499.245 303.268L481.97 303.788H481.65L428.884 309.266C428.682 309.285 428.481 309.319 428.284 309.366L383.626 320.663C382.936 320.836 382.3 321.18 381.777 321.663L369.11 333.37C369.11 333.37 369.11 333.37 369.05 333.44C368.913 333.574 368.786 333.717 368.67 333.87C368.61 333.95 368.54 334.01 368.49 334.09C368.321 334.329 368.181 334.588 368.07 334.86C367.958 335.127 367.875 335.405 367.821 335.689C367.816 335.776 367.816 335.863 367.821 335.949C367.785 336.137 367.765 336.328 367.76 336.519V362.322C367.76 362.952 367.899 363.575 368.166 364.145C368.434 364.715 368.825 365.219 369.31 365.621L384.896 378.548C385.37 378.94 385.922 379.226 386.515 379.388L415.638 387.255C415.805 387.303 415.975 387.339 416.147 387.365L455.837 393.024C455.97 393.034 456.103 393.034 456.237 393.024L509.042 395.523L477.481 499.295L424.085 608.016L367.9 553.421L392.554 550.201C392.774 550.178 392.992 550.135 393.204 550.071L428.464 539.694C429.167 539.486 429.804 539.101 430.314 538.574L447.359 521.149C447.775 520.725 448.097 520.219 448.305 519.663C448.514 519.106 448.603 518.513 448.569 517.92L446.939 488.468C446.915 488.171 446.865 487.877 446.789 487.588C446.785 487.548 446.785 487.508 446.789 487.468C446.676 487.114 446.515 486.778 446.309 486.469C446.295 486.431 446.278 486.394 446.259 486.359L435.102 469.613C434.635 468.912 433.971 468.366 433.193 468.044L391.704 450.698C391.4 450.578 391.086 450.488 390.764 450.428L348.886 443.36C348.72 443.33 348.553 443.31 348.386 443.3L337.909 442.77L335.599 401.372C335.599 401.372 335.599 401.302 335.599 401.272C335.599 401.242 335.599 401.082 335.599 400.992C335.565 400.762 335.515 400.535 335.449 400.312L335.329 400.002C335.276 399.858 335.213 399.717 335.139 399.582H340.638C341.771 399.579 342.857 399.127 343.657 398.325C344.457 397.523 344.907 396.436 344.907 395.303C344.913 394.549 344.716 393.806 344.337 393.154L318.754 326.702C318.754 326.702 318.704 326.632 318.694 326.592C318.525 326.186 318.296 325.809 318.014 325.472C317.983 325.436 317.95 325.403 317.914 325.372C317.769 325.201 317.609 325.043 317.434 324.902C317.293 324.793 317.142 324.696 316.984 324.612L316.814 324.502C316.445 324.3 316.047 324.156 315.635 324.072H315.375C314.941 323.997 314.498 323.997 314.065 324.072L298.339 326.672L298.489 306.497C298.489 306.497 298.489 306.407 298.489 306.357C298.489 306.307 298.489 306.137 298.489 306.027C298.468 305.78 298.421 305.535 298.349 305.298C298.322 305.186 298.289 305.076 298.249 304.968C298.147 304.706 298.02 304.455 297.869 304.218C297.849 304.158 297.822 304.102 297.789 304.048C297.603 303.776 297.385 303.528 297.14 303.308L297.07 303.258L296.88 303.118C296.658 302.956 296.424 302.812 296.18 302.688L295.85 302.548C295.63 302.462 295.402 302.395 295.17 302.348C295.049 302.314 294.925 302.291 294.8 302.278C294.634 302.268 294.467 302.268 294.3 302.278L294.72 283.803C294.734 283.209 294.624 282.618 294.397 282.069C294.169 281.52 293.829 281.024 293.399 280.614C292.969 280.204 292.458 279.888 291.899 279.686C291.34 279.485 290.744 279.403 290.151 279.445L272.926 280.614C272.337 280.653 271.761 280.814 271.237 281.087C270.713 281.36 270.251 281.738 269.881 282.199C269.511 282.659 269.24 283.192 269.086 283.762C268.932 284.332 268.899 284.929 268.987 285.513L273.526 315.915C273.526 316.035 273.616 316.135 273.646 316.255C273.67 316.451 273.711 316.645 273.766 316.834C273.816 316.944 273.886 317.024 273.936 317.134C273.986 317.244 274.116 317.444 274.216 317.594C274.371 317.842 274.556 318.07 274.766 318.274C274.882 318.401 275.01 318.518 275.146 318.624C275.397 318.808 275.664 318.969 275.945 319.104C276.085 319.164 276.215 319.254 276.355 319.304C276.801 319.463 277.271 319.548 277.745 319.554H277.905L283.653 319.354L284.563 329.031L270.667 331.34C270.377 331.39 270.092 331.467 269.817 331.57V331.57C269.368 331.753 268.952 332.01 268.587 332.33L268.507 332.39C268.167 332.705 267.88 333.073 267.658 333.48L267.568 333.63C267.289 334.021 267.073 334.452 266.928 334.91C266.923 334.946 266.923 334.983 266.928 335.019L259.28 404.411C259.215 405.008 259.277 405.613 259.462 406.185C259.647 406.757 259.95 407.284 260.351 407.731C260.753 408.178 261.245 408.535 261.794 408.78C262.343 409.024 262.938 409.15 263.539 409.149H275.036C275.598 409.139 276.153 409.017 276.667 408.79C277.182 408.564 277.647 408.237 278.035 407.83L281.564 430.554C281.564 430.604 281.564 430.644 281.614 430.704C281.687 431.086 281.815 431.457 281.994 431.803C282.051 431.92 282.114 432.033 282.184 432.143C282.224 432.236 282.271 432.326 282.324 432.413C282.521 432.679 282.749 432.921 283.003 433.133V433.133C283.245 433.332 283.506 433.507 283.783 433.653L285.103 442.77L268.687 443.66C268.5 443.67 268.313 443.69 268.127 443.72L225.959 451.638C225.614 451.701 225.279 451.805 224.959 451.948L189.799 468.104C188.953 468.474 188.251 469.109 187.799 469.913L178.502 486.649C178.486 486.707 178.466 486.764 178.442 486.819C178.313 487.082 178.21 487.356 178.132 487.638C178.103 487.73 178.079 487.824 178.062 487.918C178.005 488.218 177.978 488.523 177.982 488.828C177.982 488.828 177.982 488.918 177.982 488.968L179.621 518.41C179.669 519.391 180.058 520.325 180.721 521.049L194.127 535.795C194.584 536.297 195.153 536.684 195.787 536.925L219.78 545.923C219.998 546.006 220.222 546.069 220.45 546.113L252.932 552.541C253.113 552.574 253.297 552.597 253.481 552.611L305.377 556.06L399.042 661.821L430.034 844.962L396.513 994.561C396.38 995.107 396.356 995.673 396.443 996.228C396.53 996.783 396.725 997.315 397.017 997.794C397.31 998.273 397.694 998.69 398.148 999.02C398.602 999.351 399.116 999.589 399.662 999.72C399.988 999.806 400.324 999.85 400.662 999.85C401.62 999.847 402.55 999.523 403.303 998.931C404.057 998.339 404.591 997.511 404.82 996.581L437.942 848.621L448.879 846.281L421.946 994.731C421.768 995.826 422.022 996.946 422.654 997.857C423.286 998.767 424.247 999.397 425.334 999.613C426.421 999.83 427.55 999.616 428.483 999.017C429.415 998.417 430.079 997.48 430.334 996.401L458.146 843.362L497.056 819.239V864.946L468.283 994.551C468.149 995.098 468.124 995.665 468.21 996.221C468.296 996.777 468.491 997.31 468.784 997.79C469.076 998.271 469.461 998.688 469.915 999.019C470.37 999.351 470.886 999.589 471.432 999.72C471.759 999.806 472.095 999.85 472.432 999.85C473.391 999.847 474.321 999.523 475.074 998.931C475.828 998.339 476.362 997.511 476.591 996.581L505.103 868.026L629.93 780.079ZM505.613 857.209V814.22L601.747 767.313L619.403 777.02L505.613 857.209ZM625.511 770.622L607.516 760.715L635.218 703.57L655.813 705.23L625.511 770.622ZM545.532 623.152L552.231 611.255L586.381 593.41L627.06 584.412L641.057 583.522L640.637 596.129V596.209C640.637 596.289 640.637 596.359 640.637 596.449C640.655 596.701 640.689 596.951 640.737 597.199C640.737 597.299 640.797 597.409 640.827 597.509C640.898 597.746 640.988 597.976 641.097 598.198C641.119 598.26 641.146 598.32 641.177 598.378C641.172 598.401 641.172 598.425 641.177 598.448C641.336 598.726 641.527 598.984 641.746 599.218V599.218C641.746 599.268 641.846 599.298 641.886 599.348L642.156 599.578L641.157 623.102L640.977 627.381L640.797 631.659L639.917 652.374C639.894 652.95 639.988 653.525 640.193 654.063C640.397 654.602 640.709 655.094 641.109 655.51C641.508 655.925 641.988 656.256 642.518 656.481C643.049 656.707 643.619 656.823 644.196 656.823C644.533 656.821 644.868 656.781 645.196 656.703L648.725 655.843L657.542 653.703C658.345 653.528 659.081 653.125 659.662 652.544C660.243 651.963 660.645 651.227 660.821 650.424L661.711 645.876L664.5 631.709L665.34 627.431L666.18 623.152L667.769 615.084L667.849 623.152V627.431L667.899 631.709L668.059 646.625L668.109 650.914C668.12 651.921 668.486 652.891 669.143 653.654C669.8 654.417 670.705 654.923 671.698 655.083L684.015 657.083C684.245 657.102 684.475 657.102 684.705 657.083C685.628 657.084 686.526 656.786 687.264 656.233C687.883 655.769 688.361 655.143 688.644 654.423C688.722 654.246 688.782 654.062 688.824 653.873C688.824 653.743 688.894 653.623 688.914 653.503C688.918 653.454 688.918 653.403 688.914 653.354L691.713 631.659L692.273 627.381L692.823 623.102L697.961 583.842L702.23 584.092L740.87 592.09L777.01 611.205L782.469 623.202L784.168 626.951L783.778 627.481L780.609 631.759L767.613 649.275L733.802 663.651L695.812 670.959L680.656 671.809L670.979 672.358L660.981 672.918L650.504 671.869L641.447 670.949L602.297 666.95L572.845 657.902L552.391 645.756L545.183 631.759L543.033 627.57L543.093 627.481L545.532 623.152ZM633.039 564.847L642.746 531.546L642.506 538.844L635.648 565.057L633.039 564.847ZM661.681 500.785L666.01 500.395L670.619 499.985L673.098 499.765L675.098 499.585L677.427 499.375L681.716 498.995L687.814 498.455L685.395 517.17L683.695 530.337L682.006 543.493L679.206 565.167L678.906 567.497L678.657 569.416L678.347 571.816L678.107 573.665V574.035L677.827 576.134L677.557 578.294L677.007 582.543L676.107 589.481L675.707 592.63L672.588 592.57H671.818L667.819 592.49H667.49L663.491 592.41L652.184 592.18H651.104H649.294L649.424 588.451L649.604 583.072L649.724 579.324V578.784L649.864 574.485V573.855L650.014 569.536L651.014 540.164L651.664 520.789L652.294 501.694L656.752 501.295L661.281 500.895L661.681 500.785ZM662.821 473.192L662.981 468.853L663.721 449.858L671.718 449.928L668.489 465.714L667.41 470.973L666.82 473.372L664.18 473.252H664.08L662.821 473.192ZM684.305 623.152L683.755 627.431L683.205 631.709L681.106 647.925L676.707 647.215L676.537 631.709V627.431V623.152L676.297 601.158L679.426 601.228H679.516C679.98 601.217 680.439 601.133 680.876 600.978C680.997 600.938 681.114 600.888 681.226 600.828C681.562 600.688 681.875 600.5 682.156 600.268C682.236 600.217 682.313 600.16 682.386 600.098C682.692 599.831 682.955 599.517 683.165 599.168L688.654 590.171L684.305 623.152ZM686.624 574.555V574.355L688.094 574.475L688.004 574.635L687.444 575.545L686.215 577.544L686.464 575.545L686.624 574.555ZM656.632 627.431L655.783 631.709L652.963 646.086L648.795 647.085L649.454 631.699L649.624 627.421L649.814 623.142L650.764 600.688L661.841 600.908L657.472 623.142L656.632 627.431ZM694.012 559.769L690.653 543.193L693.433 521.589L700.431 560.289L694.012 559.769ZM541.604 643.456L545.343 650.764C545.713 651.479 546.278 652.075 546.972 652.484L568.966 665.48C569.254 665.655 569.563 665.793 569.886 665.89L600.268 675.258C600.539 675.339 600.816 675.396 601.097 675.428L637.568 679.107L646.625 680.016L660.551 681.426C660.695 681.436 660.838 681.436 660.981 681.426H661.221L666.96 681.096L676.637 680.556L696.632 679.427C696.823 679.413 697.013 679.39 697.202 679.357L735.801 671.959C736.1 671.907 736.392 671.82 736.671 671.699L772.031 656.643C772.736 656.348 773.348 655.868 773.801 655.253L784.048 641.427L783.048 659.762L766.363 677.997L732.562 689.534L694.572 695.392L669.199 696.532L659.672 696.962H659.582L639.157 695.322L630.01 694.582L600.838 692.223L571.106 684.925L550.481 675.218L540.724 660.342L541.604 643.456ZM616.903 702.1L626.041 702.83L599.838 756.936L586.152 750.937L616.903 702.1ZM579.913 757.545L591.66 762.714L504.564 805.223L502.704 794.785L579.913 757.545ZM468.353 632.949L443.98 624.951L500.085 513.161L518.01 519.4L468.353 632.949ZM520.539 511.192L502.974 505.084L527.967 396.453L533.046 396.693H533.356L543.293 396.433L520.539 511.192ZM378.578 336.349L383.016 332.25L386.855 328.691L430.154 317.744L482.45 312.256L500.685 311.706L503.994 332.25L504.684 336.529L505.373 340.798L506.883 350.215C506.977 350.798 507.19 351.354 507.509 351.85C507.828 352.346 508.246 352.771 508.737 353.097C509.228 353.424 509.781 353.646 510.362 353.749C510.943 353.851 511.538 353.833 512.112 353.694L524.338 350.755C525.282 350.526 526.12 349.983 526.714 349.214C527.308 348.446 527.623 347.498 527.607 346.526L527.527 340.798L527.467 336.529L527.397 332.25L527.087 311.486L531.856 332.25L532.856 336.529L533.536 339.438L533.846 340.798L534.845 345.037C535.042 345.868 535.481 346.622 536.108 347.203C536.735 347.783 537.52 348.164 538.364 348.296L539.004 348.396L550.751 350.185C550.963 350.217 551.177 350.233 551.391 350.235C551.759 350.215 552.122 350.144 552.471 350.025C553.145 349.872 553.77 349.552 554.29 349.096C554.765 348.664 555.135 348.13 555.372 347.534C555.61 346.938 555.708 346.296 555.66 345.657L555.32 340.798L555.02 336.529V336.089L554.75 332.25L553.28 311.256L579.943 311.986L630.829 316.914L679.646 328.711L683.465 332.25L687.554 336.029L686.824 336.529L680.576 340.798L670.379 347.796L627.08 356.674L578.464 361.132L558.869 361.652L550.101 361.892L535.795 362.272L533.246 362.342L527.067 362.042L456.876 358.713L417.637 353.125L389.645 345.557L383.896 340.798L378.738 336.529L378.578 336.349ZM505.713 289.082L511.522 297.51C511.73 297.809 511.975 298.081 512.251 298.319L512.391 298.409C512.697 298.65 513.033 298.848 513.391 298.999L513.731 299.119C514.152 299.27 514.594 299.351 515.041 299.359H515.481L518.35 299.059V302.628L518.42 306.907L518.48 311.176L518.79 332.27L518.86 336.549L518.92 340.818V343.257L514.511 344.317L513.941 340.818L513.261 336.549L512.571 332.27L509.222 311.456L508.532 307.207L507.863 302.918L505.713 289.082ZM528.437 173.843L526.977 174.023H526.897L524.318 174.343L523.798 172.203L522.579 167.145L519.01 152.399L527.008 151.669L528.207 169.824L528.437 173.843ZM530.706 200.726H535.175H539.604L540.714 219.011L541.833 237.496L543.563 265.828L543.823 270.177L544.153 275.586L544.673 284.253L544.883 287.702L543.093 287.882L542.003 287.992L530.687 289.152L526.768 289.552H526.398L522.489 289.952H522.099L518.62 290.312L518.18 287.542L516.18 274.806L515.801 272.476L515.491 270.547L515.131 268.258L514.811 266.258L514.451 264.009L511.182 243.694L509.122 230.928L507.063 218.161L504.224 200.486H508.782H514.581H521.379H525.968H530.277L530.706 200.726ZM560.388 260.02L557.709 260.45L550.321 236.016L549.871 228.588L560.388 260.02ZM544.393 306.747L544.693 311.036L546.182 332.25L546.472 336.529V337.239L546.732 340.798V340.908L545.972 340.788L542.503 340.258L541.933 337.839L541.634 336.519L540.634 332.24L535.635 310.776L534.635 306.467L533.636 302.168L532.566 297.57L543.563 296.44L543.993 302.438L544.393 306.747ZM505.813 274.186L507.293 273.946L507.483 275.116L507.793 277.045L506.473 275.136L505.813 274.186ZM502.424 243.744L499.465 260.13L493.157 261.129L499.155 223.41L502.424 243.744ZM376.318 345.627L384.886 352.735C385.36 353.127 385.912 353.413 386.505 353.575L415.628 361.442C415.794 361.494 415.965 361.531 416.137 361.552L455.827 367.221C455.96 367.231 456.093 367.231 456.227 367.221L525.148 370.48L533.036 370.85H533.346H533.846L548.422 370.46L557.189 370.23L578.993 369.64L628.13 365.141L628.59 365.071L672.978 355.974C673.536 355.857 674.065 355.633 674.538 355.314L690.143 344.617V360.063L670.409 373.599L627.11 382.467L578.494 386.895L553.76 387.555L544.983 387.785L533.276 388.095L529.907 387.945L521.229 387.535L456.876 384.526L417.597 378.898L389.605 371.34L376.288 360.293L376.318 345.627ZM517.86 395.973L519.29 396.043L494.916 501.924L486.688 498.435L517.86 395.973ZM483.529 506.383L492.077 510.012L436.732 620.292L430.544 614.294L483.529 506.383ZM432.303 627.92L419.227 645.976L331.7 556.17L352.765 555.38H353.154L357.063 554.87L432.303 627.92ZM187.369 502.804L192.468 509.712C192.891 510.292 193.455 510.753 194.107 511.052L218.241 522.309C218.488 522.426 218.746 522.519 219.011 522.589L251.512 530.677C251.735 530.736 251.962 530.776 252.192 530.797L298.749 534.666L311.746 535.745L314.485 535.975H314.835H315.035L336.579 534.975L348.276 534.416L351.585 534.266L352.065 534.206L391.384 527.777C391.653 527.729 391.917 527.659 392.174 527.568L427.294 514.571C428.045 514.289 428.702 513.804 429.194 513.171L438.971 500.465L439.861 516.52L424.915 531.806L391.054 541.804L360.063 545.853L352.245 546.852L348.966 546.972L323.642 547.972L316.104 548.252L311.696 547.962L254.361 544.153L222.57 537.815L199.846 529.307L188.169 516.46L187.369 502.804ZM187.369 488.388L189.569 484.389L194.647 475.232L228.058 459.886L269.427 452.128L286.352 451.218L291.161 484.209C291.161 484.209 291.161 484.309 291.161 484.359C291.27 484.958 291.505 485.527 291.852 486.028C292.199 486.529 292.648 486.95 293.171 487.262C293.694 487.575 294.277 487.772 294.883 487.84C295.488 487.908 296.1 487.846 296.68 487.658L306.807 484.359L308.397 483.839C309.244 483.564 309.984 483.03 310.513 482.313C311.042 481.596 311.333 480.731 311.346 479.84L311.766 450.008H312.635L318.914 480.69C319.097 481.604 319.574 482.434 320.273 483.051C320.971 483.668 321.853 484.04 322.783 484.109L327.002 484.429L335.379 485.069H335.699C335.699 485.069 335.699 485.069 335.759 485.069C336.892 485.064 337.978 484.611 338.779 483.81C339.58 483.009 340.033 481.923 340.038 480.79C340.04 480.477 340.007 480.165 339.938 479.86L338.348 451.348L347.686 451.808L388.825 458.756L428.674 475.402L434.672 484.399L437.402 488.498L437.262 488.678L433.973 492.957L423.226 506.953L389.655 519.39L350.985 525.718L339.928 526.238L328.211 526.858L314.965 527.478L302.688 526.478L289.692 525.398L253.301 522.399L221.53 514.481L198.746 503.764L190.808 492.987L187.659 488.708L187.369 488.388ZM292.441 433.753L303.438 433.123L303.318 441.771L303.258 446.06L303.198 450.348L302.918 476.721L298.919 478.021L294.92 450.798L294.3 446.549L293.681 442.291L292.441 433.753ZM271.037 400.552H268.257L271.926 367.991L273.106 375.609L271.037 400.552ZM285.123 337.459L289.362 336.759L293.84 336.019L296.16 335.639L298.159 335.309L300.509 334.92L304.838 334.2L310.636 333.2L311.636 350.775L312.365 363.902L313.095 377.018L314.215 397.283L314.345 399.592L314.455 401.592L314.585 403.901L314.695 405.9L314.825 408.22L315.515 420.726L315.695 423.866L312.206 424.065H311.836L307.927 424.285H307.517L303.648 424.515H303.418L292.221 425.165L291.221 425.215L289.432 425.325L288.922 421.886L287.612 413.448L286.762 407.97L286.083 403.611L281.684 375.279L278.855 357.034L276.045 338.978L280.354 338.269L284.703 337.539L285.123 337.459ZM277.925 288.722L285.863 288.182L285.523 303.268L285.403 308.407L285.353 310.586L282.753 310.676H282.644H281.224L280.644 306.807L277.925 288.722ZM334.24 391.024H328.011L321.543 375.169L320.433 355.174L334.24 391.024ZM329.491 446.649L329.731 450.938L331.13 476.171L326.632 475.821L321.533 450.538L320.653 446.219L319.783 441.891L317.844 432.293L320.433 432.143C320.794 432.12 321.15 432.049 321.493 431.933L321.753 431.833C322.022 431.726 322.28 431.592 322.523 431.433L322.703 431.323C322.982 431.12 323.236 430.885 323.462 430.624C323.509 430.563 323.553 430.499 323.592 430.434C323.774 430.195 323.928 429.937 324.052 429.664C324.083 429.623 324.109 429.579 324.132 429.534L328.031 420.296L329.251 442.351L329.491 446.649ZM323.263 405.89H324.832L324.422 406.89L323.422 409.189L323.313 407.04L323.263 405.89ZM320.173 556.62L412.318 651.154L404.191 654.693L317.414 556.72L320.173 556.62ZM437.882 839.923L407.83 662.441L416.477 658.672L449.358 837.404L437.882 839.923ZM457.376 833.765L424.245 653.623L439.571 632.469L466.944 641.467L496.616 809.421L457.376 833.765Z" fill="#18A7B5"/>
<path d="M248.493 568.476C213.432 568.417 187.189 559.059 170.514 540.664C147.73 515.531 150.709 481.56 150.749 481.22C150.804 480.661 150.749 480.096 150.586 479.558C150.423 479.021 150.155 478.52 149.799 478.086C149.442 477.651 149.004 477.291 148.508 477.026C148.012 476.761 147.469 476.596 146.91 476.541C146.351 476.486 145.786 476.542 145.248 476.705C144.711 476.868 144.21 477.135 143.776 477.492C143.341 477.848 142.981 478.287 142.716 478.782C142.451 479.278 142.287 479.821 142.231 480.38C142.081 481.92 138.792 518.37 164.106 546.362C182.471 566.667 210.863 577.004 248.493 577.064C249.628 577.064 250.716 576.613 251.518 575.811C252.321 575.009 252.772 573.92 252.772 572.785C252.772 571.651 252.321 570.562 251.518 569.76C250.716 568.957 249.628 568.506 248.493 568.506V568.476Z" fill="#18A7B5"/>
<path d="M248.493 600.598C202.725 600.528 168.435 588.261 146.59 564.158C116.719 531.167 120.657 486.709 120.697 486.269C120.78 485.697 120.746 485.114 120.597 484.555C120.448 483.996 120.187 483.474 119.831 483.019C119.474 482.564 119.029 482.186 118.523 481.907C118.016 481.629 117.458 481.456 116.883 481.399C116.308 481.343 115.727 481.403 115.175 481.577C114.624 481.751 114.114 482.035 113.675 482.411C113.236 482.788 112.879 483.249 112.623 483.768C112.368 484.287 112.221 484.852 112.19 485.429C111.99 487.428 107.781 533.986 140.182 569.826C163.706 595.819 200.166 609.076 248.483 609.156C249.618 609.156 250.706 608.705 251.509 607.902C252.311 607.1 252.762 606.011 252.762 604.877C252.762 603.742 252.311 602.654 251.509 601.851C250.706 601.049 249.618 600.598 248.483 600.598H248.493Z" fill="#18A7B5"/>
<path d="M86.7765 491.567C85.649 491.453 84.5218 491.789 83.6414 492.502C82.7609 493.216 82.1988 494.249 82.0778 495.376C81.8579 497.556 76.8992 549.362 113.869 590.441C142.432 622.202 187.729 638.358 248.483 638.428C249.062 638.456 249.64 638.366 250.183 638.164C250.726 637.962 251.222 637.651 251.641 637.252C252.061 636.852 252.395 636.371 252.623 635.839C252.851 635.306 252.968 634.733 252.968 634.154C252.968 633.574 252.851 633.001 252.623 632.469C252.395 631.936 252.061 631.456 251.641 631.056C251.222 630.656 250.726 630.346 250.183 630.144C249.64 629.942 249.062 629.852 248.483 629.88C190.319 629.83 147.19 614.634 120.307 584.842C85.8668 546.622 90.5355 496.796 90.5955 496.306C90.6579 495.744 90.6084 495.175 90.4499 494.632C90.2915 494.089 90.0272 493.582 89.6722 493.142C89.3172 492.701 88.8786 492.336 88.3817 492.065C87.8847 491.795 87.3392 491.626 86.7765 491.567V491.567Z" fill="#18A7B5"/>
<path d="M643.246 284.543C674.598 284.603 698.051 292.971 712.937 309.396C733.242 331.8 730.603 362.092 730.563 362.472C730.454 363.6 730.797 364.725 731.517 365.6C732.236 366.476 733.274 367.03 734.402 367.141C734.545 367.151 734.688 367.151 734.832 367.141C735.891 367.141 736.913 366.747 737.698 366.036C738.483 365.324 738.976 364.346 739.08 363.292C739.22 361.902 742.209 329.021 719.356 303.718C702.78 285.373 677.177 276.035 643.266 275.965C642.131 275.965 641.043 276.416 640.241 277.219C639.438 278.021 638.987 279.109 638.987 280.244C638.987 281.379 639.438 282.467 640.241 283.27C641.043 284.072 642.131 284.523 643.266 284.523L643.246 284.543Z" fill="#18A7B5"/>
<path d="M643.256 255.691C684.245 255.781 714.907 266.748 734.431 288.312C761.114 317.774 757.585 357.553 757.555 357.953C757.446 359.081 757.789 360.206 758.509 361.082C759.229 361.957 760.266 362.511 761.394 362.622H761.814C762.874 362.622 763.895 362.228 764.681 361.517C765.466 360.806 765.959 359.828 766.063 358.773C766.243 356.994 770.062 314.965 740.84 282.624C719.635 259.16 686.854 247.203 643.276 247.113C642.141 247.113 641.053 247.564 640.25 248.367C639.448 249.169 638.997 250.257 638.997 251.392C638.997 252.527 639.448 253.615 640.25 254.418C641.053 255.22 642.141 255.671 643.276 255.671L643.256 255.691Z" fill="#18A7B5"/>
<path d="M788.397 353.674C788.547 353.684 788.698 353.684 788.847 353.674C789.902 353.673 790.918 353.283 791.702 352.578C792.487 351.873 792.983 350.904 793.096 349.856C793.306 347.856 797.795 301.209 764.474 264.119C738.801 235.506 697.982 220.94 643.287 220.82C642.152 220.82 641.064 221.271 640.261 222.074C639.459 222.876 639.008 223.964 639.008 225.099C639.008 226.234 639.459 227.322 640.261 228.125C641.064 228.927 642.152 229.378 643.287 229.378C695.403 229.488 734.012 243.074 758.056 269.777C788.847 303.968 784.658 348.536 784.608 348.986C784.494 350.109 784.827 351.232 785.537 352.111C786.247 352.989 787.275 353.551 788.397 353.674Z" fill="#18A7B5"/>
<path d="M750.567 711.558C749.432 711.568 748.348 712.029 747.553 712.839C746.758 713.649 746.318 714.742 746.328 715.877C746.339 717.012 746.8 718.096 747.61 718.891C748.42 719.686 749.512 720.126 750.647 720.116H750.727C752.127 720.116 785.128 719.186 807.572 693.523C823.847 674.908 830.106 648.385 826.197 614.694C826.131 614.135 825.956 613.595 825.682 613.104C825.407 612.613 825.039 612.181 824.597 611.832C824.156 611.484 823.65 611.226 823.109 611.073C822.568 610.919 822.002 610.874 821.443 610.94C820.884 611.006 820.344 611.181 819.853 611.455C819.362 611.73 818.93 612.098 818.581 612.539C818.233 612.981 817.975 613.487 817.821 614.028C817.668 614.569 817.623 615.135 817.689 615.694C821.308 646.825 815.779 671.099 801.193 687.814C781.309 710.638 750.877 711.548 750.567 711.558Z" fill="#18A7B5"/>
<path d="M758.225 737.801C757.091 737.811 756.006 738.272 755.211 739.082C754.417 739.892 753.976 740.985 753.987 742.12C753.997 743.254 754.458 744.339 755.268 745.134C756.078 745.928 757.171 746.369 758.305 746.358H758.385C760.175 746.358 802.373 745.179 831.046 712.368C851.86 688.544 859.868 654.543 854.839 611.295C854.688 610.184 854.107 609.176 853.221 608.489C852.334 607.802 851.213 607.49 850.099 607.621C848.986 607.753 847.968 608.316 847.265 609.19C846.562 610.064 846.231 611.179 846.342 612.295C851.07 652.994 843.782 684.745 824.667 706.669C798.534 736.641 758.625 737.801 758.225 737.801Z" fill="#18A7B5"/>
<path d="M770.312 763.624C769.178 763.632 768.092 764.09 767.296 764.898C766.499 765.706 766.056 766.798 766.064 767.933C766.072 769.067 766.53 770.153 767.338 770.949C768.146 771.746 769.238 772.189 770.372 772.181V772.181C772.372 772.181 819.229 771.122 852.15 733.682C877.563 704.77 887.241 662.561 880.923 608.236C880.772 607.124 880.19 606.117 879.304 605.43C878.417 604.743 877.297 604.431 876.183 604.562C875.069 604.693 874.051 605.257 873.348 606.131C872.645 607.005 872.314 608.12 872.425 609.236C878.423 661.002 869.486 700.941 845.792 727.953C815.51 762.544 770.792 763.614 770.312 763.624Z" fill="#18A7B5"/>
<path d="M999.91 640.507L903.636 198.836C903.498 198.206 903.22 197.616 902.821 197.108C902.423 196.601 901.915 196.191 901.336 195.907L501.864 0.439862C501.278 0.14918 500.633 -0.0020752 499.98 -0.0020752C499.326 -0.0020752 498.681 0.14918 498.095 0.439862L98.693 195.947C98.1125 196.229 97.6037 196.639 97.2053 197.146C96.8069 197.654 96.5293 198.245 96.3936 198.876L0.10962 640.507C-0.0243589 641.118 -0.0221568 641.751 0.11607 642.361C0.254298 642.971 0.525158 643.543 0.909405 644.036L276.275 998.35C276.676 998.864 277.189 999.279 277.774 999.565C278.36 999.851 279.003 1000 279.654 1000H371.179C372.314 1000 373.403 999.549 374.205 998.747C375.007 997.944 375.458 996.856 375.458 995.721C375.458 994.586 375.007 993.498 374.205 992.696C373.403 991.893 372.314 991.442 371.179 991.442H281.754L8.89725 640.367L104.311 202.675L499.975 8.99755L895.758 202.675L991.132 640.367L718.256 991.442H497.935C496.8 991.442 495.712 991.893 494.91 992.696C494.107 993.498 493.656 994.586 493.656 995.721C493.656 996.856 494.107 997.944 494.91 998.747C495.712 999.549 496.8 1000 497.935 1000H720.345C720.997 1000 721.64 999.851 722.225 999.565C722.811 999.279 723.323 998.864 723.724 998.35L999.11 644.036C999.494 643.543 999.765 642.971 999.903 642.361C1000.04 641.751 1000.04 641.118 999.91 640.507V640.507Z" fill="#18A7B5"/>
</g>
<defs>
<clipPath id="clip0">
<rect width="1000" height="1000" fill="white"/>
</clipPath>
</defs>
</svg>
