<svg width="1000" height="1000" viewBox="0 0 1000 1000" fill="none" xmlns="http://www.w3.org/2000/svg">
<g clip-path="url(#clip0)">
<path d="M45.1074 365.311L463.314 426.065C463.956 426.155 464.61 426.093 465.224 425.885L487.218 451.188L487.368 451.328C487.572 451.533 487.792 451.72 488.028 451.888C488.063 451.912 488.097 451.938 488.128 451.968C488.186 451.999 488.246 452.025 488.308 452.048C488.546 452.185 488.797 452.299 489.058 452.388C489.156 452.424 489.256 452.454 489.357 452.478C489.701 452.58 490.058 452.634 490.417 452.638C490.834 452.63 491.249 452.563 491.647 452.438C491.687 452.433 491.727 452.433 491.767 452.438C491.877 452.438 491.957 452.328 492.057 452.288C492.213 452.237 492.367 452.177 492.517 452.108L510.432 442.031L496.366 625.721L473.212 556.59C473.214 556.556 473.214 556.523 473.212 556.49C473.055 556.066 472.836 555.669 472.562 555.31L472.452 555.18C472.165 554.839 471.828 554.542 471.452 554.3H471.362C470.984 554.081 470.572 553.926 470.143 553.84C470.023 553.84 469.903 553.84 469.773 553.78C469.594 553.747 469.414 553.723 469.233 553.71L446.019 553.611L442.88 532.446L452.307 531.267C453.391 531.131 454.381 530.587 455.077 529.745C455.772 528.903 456.119 527.827 456.046 526.738L452.727 476.751C452.692 476.176 452.54 475.614 452.283 475.099C452.025 474.584 451.666 474.126 451.228 473.752C450.797 473.38 450.294 473.099 449.751 472.927C449.208 472.756 448.635 472.696 448.069 472.752L419.836 475.342C419.224 475.398 418.631 475.585 418.098 475.89C417.565 476.196 417.103 476.613 416.746 477.113C416.388 477.613 416.142 478.184 416.025 478.788C415.908 479.391 415.922 480.013 416.067 480.61L421.296 502.214L419.906 502.344C419.292 502.4 418.697 502.587 418.162 502.894C417.628 503.201 417.166 503.62 416.809 504.123C416.452 504.625 416.207 505.2 416.093 505.805C415.979 506.411 415.997 507.035 416.147 507.633L427.534 553.501L396.483 553.381C396.023 553.389 395.567 553.47 395.133 553.621L394.893 553.71C394.492 553.87 394.118 554.089 393.783 554.36L393.603 554.52C393.473 554.632 393.349 554.753 393.233 554.88C393.091 555.061 392.961 555.252 392.843 555.45C392.81 555.494 392.78 555.541 392.753 555.59C392.536 555.982 392.384 556.408 392.304 556.85C392.304 556.85 392.304 556.93 392.304 556.99L376.298 657.073C376.229 656.762 376.125 656.46 375.988 656.173L325.552 552.321C325.552 552.321 325.552 552.271 325.502 552.241C325.29 551.832 325.017 551.458 324.692 551.131L324.582 551.041C324.252 550.727 323.87 550.474 323.452 550.291C323.452 550.291 323.402 550.291 323.372 550.291C322.937 550.108 322.474 549.996 322.003 549.961C321.73 549.937 321.456 549.937 321.183 549.961L298.779 552.781C298.603 552.725 298.422 552.685 298.239 552.661L293.29 532.056L301.528 529.927C302.591 529.654 303.509 528.983 304.091 528.053C304.674 527.122 304.876 526.004 304.657 524.928L294.92 475.762C294.81 475.202 294.589 474.67 294.27 474.198C293.95 473.726 293.539 473.322 293.06 473.012C292.582 472.702 292.047 472.489 291.485 472.388C290.924 472.287 290.348 472.298 289.791 472.422L262.129 478.621C261.528 478.754 260.964 479.015 260.473 479.386C259.983 479.757 259.579 480.23 259.288 480.772C258.998 481.315 258.828 481.913 258.79 482.527C258.752 483.141 258.848 483.756 259.07 484.329L266.927 504.864C266.085 505.223 265.383 505.848 264.928 506.643C264.616 507.176 264.424 507.77 264.363 508.384C264.303 508.999 264.376 509.619 264.578 510.202L279.924 554.61L276.355 555.02C275.604 555.102 274.889 555.385 274.285 555.84L249.032 559.009C248.574 559.077 248.129 559.215 247.713 559.419L247.483 559.539C247.11 559.749 246.773 560.015 246.483 560.329L246.333 560.519C246.212 560.643 246.102 560.777 246.003 560.919C245.88 561.111 245.776 561.315 245.693 561.528C245.663 561.576 245.636 561.626 245.613 561.678C245.454 562.098 245.36 562.54 245.333 562.988C245.338 563.038 245.338 563.088 245.333 563.138L242.164 674.408L107.81 638.478C107.506 638.4 107.194 638.357 106.881 638.348H106.741C106.345 638.345 105.951 638.399 105.571 638.508H105.391C105.007 638.638 104.643 638.823 104.311 639.057C104.236 639.096 104.166 639.143 104.101 639.197C103.768 639.451 103.474 639.755 103.232 640.097L103.172 640.157C103.168 640.197 103.168 640.237 103.172 640.277C102.921 640.639 102.735 641.041 102.622 641.467V641.467C102.525 641.883 102.488 642.31 102.512 642.736C102.507 642.806 102.507 642.877 102.512 642.946C102.544 643.355 102.639 643.756 102.792 644.136L102.892 644.346C103.068 644.735 103.3 645.095 103.582 645.416V645.416L343.737 905.526C343.771 905.561 343.808 905.595 343.847 905.625C343.957 905.735 344.077 905.835 344.197 905.935L344.497 906.165C344.633 906.257 344.777 906.337 344.926 906.405C345.033 906.468 345.143 906.525 345.256 906.575C345.406 906.635 345.566 906.675 345.726 906.725C345.838 906.761 345.951 906.791 346.066 906.815C346.254 906.851 346.445 906.871 346.636 906.875H346.876H662.681C663.017 906.873 663.353 906.832 663.68 906.755L663.97 906.655C664.187 906.593 664.397 906.513 664.6 906.415C664.711 906.359 664.818 906.296 664.92 906.225C665.095 906.121 665.262 906.004 665.42 905.875C665.521 905.791 665.618 905.701 665.71 905.605C665.781 905.554 665.848 905.497 665.91 905.436L895.998 646.625C896.277 646.289 896.51 645.916 896.687 645.516C896.718 645.458 896.745 645.398 896.767 645.336C896.918 644.955 897.009 644.554 897.037 644.146C897.042 644.07 897.042 643.993 897.037 643.916C897.057 643.506 897.016 643.095 896.917 642.696C896.917 642.696 896.917 642.696 896.917 642.636C896.795 642.232 896.613 641.848 896.378 641.497L896.328 641.377C896.082 641.04 895.789 640.74 895.458 640.487L895.248 640.347C894.92 640.114 894.56 639.932 894.178 639.807H893.978C893.61 639.708 893.23 639.657 892.849 639.657H892.679C892.372 639.675 892.067 639.722 891.769 639.797L774.301 670.719L775.93 657.822C775.93 657.822 775.93 657.722 775.93 657.682C775.93 657.642 775.93 657.432 775.93 657.313C775.95 657.1 775.95 656.885 775.93 656.673C775.93 656.553 775.93 656.433 775.85 656.303C775.803 656.098 775.74 655.897 775.66 655.703C775.64 655.624 775.613 655.547 775.58 655.473C775.58 655.473 775.58 655.393 775.51 655.343C775.402 655.144 775.278 654.953 775.14 654.773L774.95 654.503V654.433C774.81 654.283 774.64 654.153 774.48 654.013C774.231 653.81 773.959 653.636 773.671 653.494L773.461 653.374C773.279 653.299 773.092 653.238 772.901 653.194L772.481 653.084C772.421 653.079 772.361 653.079 772.301 653.084L756.195 651.084L757.755 638.748L759.485 646.805C759.67 647.673 760.121 648.462 760.775 649.062C761.429 649.662 762.253 650.044 763.134 650.154L788.007 653.304C788.187 653.314 788.367 653.314 788.547 653.304H788.607C789.294 653.299 789.97 653.129 790.578 652.808C791.185 652.488 791.707 652.026 792.099 651.461C792.491 650.897 792.742 650.246 792.83 649.565C792.918 648.883 792.841 648.191 792.606 647.545L770.682 534.426C770.682 534.376 770.682 534.336 770.682 534.286C770.583 533.847 770.418 533.425 770.192 533.036L770.092 532.896C769.97 532.702 769.833 532.518 769.682 532.346C769.565 532.226 769.438 532.115 769.302 532.016C769.232 531.956 769.172 531.886 769.092 531.826C768.759 531.578 768.392 531.379 768.002 531.237L767.682 531.137C767.257 531.011 766.816 530.95 766.373 530.957L739.98 531.956H738.83L736.181 532.056L733.921 532.146L745.128 486.869C745.278 486.27 745.297 485.647 745.182 485.041C745.068 484.435 744.824 483.861 744.467 483.359C744.11 482.856 743.648 482.437 743.113 482.13C742.578 481.823 741.984 481.635 741.369 481.58L739.65 481.42L744.299 458.876C744.421 458.275 744.414 457.654 744.276 457.056C744.138 456.458 743.874 455.896 743.5 455.409C743.127 454.922 742.653 454.521 742.112 454.232C741.57 453.944 740.972 453.775 740.36 453.737L712.057 452.098C711.488 452.064 710.918 452.146 710.38 452.336C709.843 452.527 709.349 452.823 708.928 453.208C708.507 453.588 708.166 454.05 707.927 454.565C707.689 455.081 707.556 455.639 707.539 456.207L705.889 506.293C705.854 507.385 706.236 508.449 706.959 509.269C707.682 510.088 708.69 510.601 709.778 510.702L718.416 511.492L715.246 532.856L693.632 533.666C693.447 533.685 693.264 533.715 693.082 533.756L692.723 533.826C692.294 533.928 691.885 534.1 691.513 534.336H691.433C691.053 534.58 690.716 534.884 690.433 535.235L690.323 535.375C690.059 535.742 689.854 536.146 689.713 536.575V536.665L656.722 647.315C656.543 647.91 656.496 648.537 656.583 649.152C656.671 649.767 656.893 650.355 657.231 650.876C657.57 651.397 658.019 651.837 658.546 652.167C659.072 652.496 659.665 652.707 660.281 652.784L678.926 655.143H679.466C680.407 655.144 681.323 654.834 682.069 654.261C682.816 653.687 683.353 652.884 683.595 651.974L686.724 640.217L685.285 693.443C685.265 693.682 685.265 693.923 685.285 694.163L634.168 707.809L638.897 678.407C638.897 678.407 638.897 678.317 638.897 678.267C638.897 678.217 638.897 678.027 638.897 677.897C638.912 677.687 638.912 677.477 638.897 677.267C638.887 677.142 638.867 677.019 638.837 676.897C638.796 676.683 638.739 676.473 638.667 676.267C638.667 676.197 638.667 676.117 638.597 676.047L638.527 675.927C638.426 675.719 638.309 675.518 638.177 675.328C638.123 675.237 638.063 675.15 637.997 675.068V674.998C637.813 674.767 637.601 674.559 637.367 674.378V674.378C637.104 674.178 636.819 674.007 636.518 673.868L636.218 673.768C636.003 673.685 635.783 673.618 635.558 673.568H635.418L617.563 670.699L620.132 654.703L622.132 665.79C622.29 666.664 622.715 667.466 623.349 668.088C623.983 668.709 624.794 669.118 625.671 669.259L652.663 673.598C652.888 673.637 653.115 673.658 653.343 673.658C653.911 673.676 654.477 673.578 655.006 673.369C655.535 673.161 656.016 672.847 656.419 672.446C656.822 672.046 657.14 671.567 657.352 671.04C657.564 670.513 657.666 669.948 657.652 669.379C657.651 668.917 657.577 668.458 657.432 668.02L637.687 543.853C637.692 543.807 637.692 543.76 637.687 543.713C637.606 543.272 637.454 542.847 637.237 542.454C637.211 542.408 637.181 542.364 637.148 542.324C637.033 542.12 636.902 541.927 636.758 541.744C636.658 541.634 636.528 541.544 636.418 541.434C636.336 541.352 636.249 541.275 636.158 541.204C635.869 540.98 635.553 540.792 635.218 540.644C635.028 540.564 634.838 540.514 634.648 540.454C634.292 540.341 633.922 540.274 633.548 540.254H633.489L604.696 540.374H601.697C601.368 540.301 601.034 540.257 600.697 540.244H600.517L611.734 495.086C611.884 494.488 611.903 493.865 611.788 493.259C611.674 492.653 611.43 492.079 611.073 491.576C610.716 491.074 610.254 490.655 609.719 490.348C609.184 490.04 608.59 489.853 607.975 489.798L604.736 489.498L611.734 460.406C611.879 459.808 611.893 459.187 611.776 458.583C611.659 457.98 611.414 457.409 611.056 456.909C610.698 456.409 610.237 455.992 609.704 455.686C609.17 455.38 608.578 455.193 607.965 455.137L577.184 452.318C576.615 452.26 576.041 452.319 575.496 452.491C574.951 452.663 574.447 452.944 574.015 453.318C573.576 453.69 573.217 454.148 572.961 454.664C572.705 455.18 572.557 455.742 572.525 456.317L568.846 510.792C568.774 511.881 569.121 512.957 569.816 513.799C570.511 514.641 571.502 515.186 572.585 515.321L585.352 516.92L581.862 540.414L554.09 540.524C553.909 540.538 553.729 540.561 553.55 540.594L553.19 540.654C552.762 540.742 552.35 540.897 551.971 541.114H551.871C551.493 541.348 551.155 541.642 550.871 541.984L550.751 542.124C550.474 542.475 550.257 542.87 550.111 543.293L550.051 543.393L529.237 605.576L542.773 423.586C543.417 422.887 543.808 421.993 543.883 421.046L566.547 103.342V103.072C566.569 102.676 566.535 102.279 566.447 101.892L566.387 101.623C566.284 101.248 566.133 100.888 565.937 100.553L565.887 100.493C565.751 100.268 565.594 100.057 565.417 99.863L565.187 99.6631L564.967 99.4631C564.663 99.2129 564.327 99.0044 563.967 98.8433V98.8433H563.897C563.551 98.7087 563.188 98.6212 562.818 98.5834H562.548H562.308H540.814C539.728 98.5837 538.684 98.9974 537.893 99.7402C537.102 100.483 536.623 101.499 536.555 102.582L534.635 127.576L513.011 151.839L495.016 101.393C495.016 101.333 494.946 101.283 494.916 101.213C494.788 100.907 494.624 100.618 494.426 100.353C494.369 100.253 494.305 100.156 494.236 100.063C493.945 99.7335 493.608 99.4473 493.236 99.2132V99.2132L493.016 99.1132C492.701 98.939 492.365 98.8047 492.017 98.7133L491.607 98.6434C491.291 98.6083 490.973 98.6083 490.657 98.6434C490.577 98.6384 490.497 98.6384 490.417 98.6434C490.349 98.6587 490.282 98.6788 490.217 98.7033C489.897 98.765 489.586 98.8622 489.287 98.9933C489.168 99.0339 489.052 99.0806 488.938 99.1332L488.868 98.9733L43.5778 357.373C42.8085 357.819 42.197 358.493 41.8281 359.301C41.4593 360.11 41.3515 361.014 41.5197 361.886C41.6879 362.759 42.1237 363.558 42.7666 364.172C43.4096 364.786 44.2277 365.184 45.1074 365.311V365.311ZM486.048 110.46L460.055 416.947L58.4938 358.613L486.048 110.46ZM515.56 161.646L533.556 141.462L538.254 136.193L542.943 130.925L557.119 115.019L535.515 418.147L534.565 418.677L520.219 426.745L515.74 429.264L511.252 431.783L495.256 440.781L515.56 161.646ZM544.772 106.971H552.77L544.003 116.808L544.772 106.971ZM574.704 548.962H576.514L582.232 566.107L569.636 621.372C569.511 621.966 569.511 622.578 569.636 623.172L576.634 657.742C576.819 658.657 577.298 659.487 577.998 660.104C578.699 660.721 579.582 661.093 580.513 661.162H580.833C581.707 661.159 582.559 660.888 583.274 660.386C583.989 659.883 584.533 659.174 584.832 658.352L597.348 623.832C597.539 623.324 597.627 622.784 597.608 622.242L595.979 566.727L601.837 552.851L603.517 548.852H605.516H621.832H628.49L619.662 603.697L617.663 616.464L615.603 629.23L609.155 669.339L608.575 672.928L608.475 673.558L607.835 677.117L607.736 677.707L607.146 681.376L601.577 715.937L600.767 715.857L596.109 715.377L591.83 714.937L588.451 714.597L587.561 714.507L584.162 714.157L579.873 713.717L551.581 710.818H551.291L548.401 710.518L548.611 707.069L549.141 698.411L550.541 675.418L550.801 671.069L554.06 617.413L555.18 598.938L556.309 580.453L558.169 549.812V549.102L570.236 549.052L574.704 548.962ZM580.703 461.175L602.187 463.175L596.029 488.678L595.029 492.887L591.13 509.023H590.86L586.611 508.493L577.664 507.373L580.703 461.175ZM593.839 517.98C594.016 517.995 594.193 517.995 594.369 517.98C594.956 517.973 595.535 517.843 596.069 517.598C596.603 517.354 597.079 517 597.468 516.561L591.61 540.164H590.54L593.839 517.98ZM629.92 661.201L624.151 629.08L633.409 571.586L648.125 664.121L629.92 661.201ZM585.531 548.992H588.821L594.219 548.912V548.972L589.38 560.469L585.531 548.992ZM589.031 621.662L581.952 641.137L578.183 622.412L587.841 580.163L589.031 621.662ZM666.37 644.996L688.634 570.246L687.744 603.297L676.307 646.286L666.37 644.996ZM696.771 586.012L697.271 567.497L697.941 542.783V542.074L708.548 541.674L713.017 541.504L715.776 541.404L721.255 558.029L710.648 613.534C710.522 614.124 710.522 614.734 710.648 615.324L717.956 646.196L718.855 649.984C718.925 650.216 719.015 650.44 719.125 650.654C719.431 651.398 719.942 652.04 720.599 652.504C721.255 652.968 722.031 653.235 722.834 653.274H723.014C723.676 653.27 724.328 653.114 724.919 652.818C725.51 652.521 726.025 652.092 726.423 651.564C726.711 651.191 726.934 650.772 727.083 650.324L728.013 647.455L738.4 615.664C738.569 615.145 738.64 614.599 738.61 614.054L734.981 558.399L738.48 549.282L741.289 541.964L741.879 540.424L745.308 540.294L754.386 539.954L761.564 539.684L755.476 587.731L753.856 600.568L752.226 613.394L747.598 649.934L747.178 653.284L747.058 654.183L746.628 657.572L746.528 658.422L746.088 661.851L743.949 678.727L742.799 687.894L742.159 692.973L737.78 692.673L733.492 692.383L730.822 692.193L729.213 692.083L727.433 691.963L726.513 691.903L722.215 691.603L700.86 690.144L696.861 689.874L693.972 689.684L694.062 686.235L694.302 677.557L694.812 657.822L694.932 653.454L696.252 604.517L696.771 586.012ZM715.936 460.876L734.931 461.975L731.082 480.57L730.202 484.869L726.323 503.694L723.934 503.474L719.675 503.094L714.577 502.624L715.936 460.876ZM726.933 512.262L729.333 512.482H729.723C729.789 512.486 729.856 512.486 729.922 512.482L725.084 531.976H724.014L726.933 512.262ZM767.122 641.957L760.914 612.964L767.342 562.248L783.138 643.946L767.122 641.957ZM728.283 551.981L724.674 541.034L732.602 540.734L728.283 551.981ZM730.052 613.834L723.714 633.249L719.225 614.254L727.323 571.946L730.052 613.834ZM759.495 787.287L756.825 790.287L661.921 897.038L514.701 801.784L510.612 799.134L507.612 797.215L510.812 795.985L515.23 794.276L537.694 785.598L542.103 783.888L546.512 782.189L565.617 774.791L570.446 772.921L575.274 771.062L586.741 766.623L591.05 764.963L595.349 763.294L617.973 754.556L622.601 752.767L627.22 750.987L686.934 727.913L691.283 726.234L695.622 724.554L717.396 716.137L722.115 714.317L726.833 712.488L729.603 711.418L733.851 709.778L738.1 708.139L762.094 698.861L766.623 697.112L771.161 695.352L877.853 654.133L759.495 787.287ZM360.402 898.347L481.989 812.89L486.528 809.711L491.057 806.522L498.375 801.384L505.793 806.182L509.892 808.832L513.981 811.481L648.195 898.347H360.402ZM253.051 590.131L267.587 639.117L266.148 668.689L250.682 673.288L253.051 590.131ZM287.382 481.73L295.47 522.629L291.271 523.719L287.132 524.788L284.053 525.588L281.054 517.68L278.614 511.332L277.055 507.263L275.495 503.204L268.827 485.869L287.382 481.73ZM282.493 534.856L284.993 534.216L289.591 553.321L288.522 553.421L282.133 534.856C282.253 534.865 282.374 534.865 282.493 534.856ZM303.288 560.849L307.726 560.299L318.264 558.969L318.394 559.669L323.052 583.952L326.541 602.137L330.04 620.322L339.258 668.4L340.088 672.678L343.797 692.053L345.436 700.581L345.746 702.18L346.086 703.97L343.237 704.64L331.83 707.319L318.484 710.448L314.295 711.448L311.655 712.068L310.096 712.438L307.477 713.047L303.298 714.047L301.458 714.477L298.459 713.317L293.66 697.142L290.801 687.514L290.051 684.985L289.052 681.676L288.922 680.816L287.922 677.537L287.672 676.677L286.672 673.438L276.195 638.128L272.516 625.731L268.837 613.334L255.071 566.847L271.216 564.847L275.125 564.348L275.495 564.887L279.494 570.666L286.432 580.663L291.531 635.858C291.581 636.437 291.751 636.999 292.031 637.508L308.116 667.03L310.026 670.549C310.086 670.659 310.186 670.749 310.256 670.859C310.64 671.443 311.162 671.924 311.775 672.258C312.389 672.593 313.076 672.772 313.775 672.778C314.111 672.779 314.446 672.742 314.775 672.668C315.688 672.457 316.507 671.95 317.105 671.228C317.703 670.505 318.047 669.607 318.084 668.669V668.53L318.264 664.211L319.573 633.719C319.596 633.165 319.511 632.611 319.323 632.089L299.919 578.144L301.608 561.019L303.288 560.849ZM366.091 655.413L356.483 658.262L338.248 617.723L332.02 585.252L366.091 655.413ZM444.43 481.67L447.189 523.279L441.58 523.979L437.331 524.508L435.492 524.738L430.883 505.623L429.883 501.425L425.525 483.429L444.43 481.67ZM432.223 533.736H432.763L434.342 533.536L437.192 552.811H436.122L431.353 533.626C431.638 533.692 431.93 533.729 432.223 533.736V533.736ZM450.038 562.148H454.507H465.124L465.174 562.858L466.674 587.531L467.793 606.016L468.873 624.551L471.872 673.428L472.132 677.777L473.332 697.462L473.862 706.129L474.072 709.568L471.182 709.868L445.879 712.458L441.59 712.898L438.891 713.167L437.291 713.337L434.622 713.607L430.353 714.047L425.985 714.487L420.986 683.495L420.436 680.076L420.296 679.237L419.756 675.857L419.616 674.968L419.076 671.639L413.218 635.268L411.169 622.502L409.109 609.735L401.421 561.918H401.971L418.607 561.978L421.206 566.597L424.495 572.445L429.014 580.443V635.668C429.014 636.25 429.133 636.825 429.364 637.358L442.48 667.83L444.22 671.829C444.55 672.596 445.099 673.249 445.797 673.708C446.496 674.166 447.313 674.41 448.149 674.408C448.342 674.418 448.535 674.418 448.728 674.408C449.649 674.265 450.501 673.833 451.159 673.173C451.817 672.513 452.247 671.66 452.387 670.739L452.887 667.02L457.056 636.218C457.128 635.67 457.094 635.114 456.956 634.579L442.64 579.164L445.939 562.038L450.038 562.148ZM494.676 647.645L498.165 658.062L500.164 664.001L497.695 664.401L493.346 665.1L490.277 665.59L477.401 623.042L475.401 590.051L494.676 647.645ZM518.75 747.198L540.854 741.36L538.414 776.14L515.96 784.788L518.75 747.198ZM586.841 757.395L577.574 760.975L584.852 729.693L587.261 729.063L586.841 757.395ZM577.684 722.745L575.494 732.172L567.926 764.703L547.162 772.701L549.521 739.02L550.151 730.023L550.901 719.356L577.844 722.115L577.684 722.745ZM539.534 714.057C539.514 714.392 539.538 714.728 539.604 715.057C539.618 715.145 539.638 715.232 539.664 715.317C539.716 715.564 539.793 715.805 539.894 716.037C539.894 716.037 539.894 716.137 539.894 716.197C539.919 716.228 539.943 716.262 539.964 716.297C540.108 716.581 540.282 716.849 540.484 717.096C540.687 717.34 540.923 717.555 541.183 717.736C541.256 717.795 541.333 717.849 541.413 717.896C541.619 718.029 541.837 718.143 542.063 718.236L542.313 718.346L541.313 732.342L519.319 738.171L524.368 670.189L533.625 671.679C533.852 671.693 534.079 671.693 534.305 671.679C535.218 671.681 536.107 671.392 536.843 670.852C537.579 670.312 538.123 669.551 538.394 668.679L543.193 652.824L539.534 714.057ZM615.693 681.576L616.103 679.067L627.27 680.866L626.62 681.866L612.324 702.62L615.693 681.576ZM273.596 701.571L276.355 704.63L274.266 703.81L273.596 701.571ZM281.124 684.915L281.524 686.285L283.973 694.532L286.542 703.17L277.135 692.703L272.586 687.644L271.816 686.785L279.544 684.495L280.884 684.095L281.124 684.915ZM321.463 718.536L344.886 713.037L348.935 733.102L323.122 722.985L321.463 718.536ZM402.501 697.922L418.886 721.585C418.886 721.645 418.986 721.695 419.026 721.755C419.202 721.987 419.399 722.201 419.616 722.395C419.657 722.428 419.701 722.458 419.746 722.485C420.051 722.726 420.387 722.925 420.746 723.075C420.85 723.121 420.957 723.161 421.066 723.195C421.49 723.345 421.936 723.426 422.386 723.435H422.825L424.565 723.255L430.463 722.655V724.844L430.593 733.732L431.063 765.293L412.148 757.875L407.26 727.494L405.77 718.236L402.501 697.922ZM439.211 721.785L440.561 727.574L439.061 727.174L438.981 721.805L439.211 721.785ZM439.211 736.061L442.76 737.011L451.188 773.211L439.691 768.702L439.211 736.061ZM452.127 739.52L449.928 730.073L447.879 720.855L471.812 718.406L473.052 736.191L473.692 745.189L476.341 782.969L460.935 776.97L452.127 739.52ZM484.559 779.12L482.349 747.608L486.888 748.818L484.559 779.12ZM481.719 738.581L480.23 717.376C480.458 717.287 480.676 717.173 480.88 717.036L481.11 716.886C481.364 716.697 481.598 716.483 481.809 716.247C482.009 715.995 482.183 715.723 482.329 715.437C482.355 715.405 482.378 715.372 482.399 715.337C482.399 715.287 482.399 715.227 482.449 715.177C482.55 714.949 482.627 714.711 482.679 714.467C482.679 714.377 482.729 714.297 482.749 714.207C482.806 713.877 482.826 713.542 482.809 713.207V713.207L479.58 660.082L483.099 671.729C483.373 672.598 483.918 673.358 484.653 673.897C485.388 674.437 486.276 674.727 487.188 674.728C487.419 674.728 487.65 674.708 487.878 674.668L492.607 673.908L487.518 740.13L481.719 738.581ZM402.641 683.036L411.978 681.526L412.338 683.775L415.137 701.171L403.291 683.985L402.641 683.036ZM437.241 562.348L435.042 573.745L428.694 562.468L437.241 562.348ZM437.601 593.72L448.518 635.998L446.039 654.393L437.631 634.829L437.601 593.72ZM404.56 635.229L399.332 664.371L383.396 666.94L396.443 584.762L404.56 635.229ZM402.941 754.196L358.443 736.801L353.684 713.147L398.252 725.074L402.941 754.196ZM284.393 562.708L292.96 561.708V562.088L291.841 573.385L284.733 563.118L284.393 562.708ZM296.16 592.94L310.966 634.219L310.166 652.944L299.969 634.209L296.16 592.94ZM271.486 676.047C272.337 675.797 273.089 675.288 273.637 674.591C274.185 673.894 274.503 673.044 274.545 672.159L274.945 663.921L278.484 675.818L263.778 680.186L260.459 679.307L271.486 676.047ZM267.297 710.208L272.346 712.208L277.395 714.207L289.161 718.806L291.501 719.716L300.818 723.375L304.887 724.974L309.466 726.774L314.055 728.563L316.484 729.563L321.843 731.662L327.191 733.762L350.985 743.089L355.724 744.949L360.462 746.808L404.52 764.094L409.149 765.913L413.778 767.723L431.253 774.581L435.552 776.27L439.861 777.96L453.567 783.338L458.406 785.228L463.234 787.127L476.951 792.506L481.36 794.236L483.359 795.025L485.758 795.965L487.518 796.665L489.297 797.355L487.368 798.714L486.018 799.714L482.869 801.843L477.061 805.932L347.476 896.968L122.536 653.404L267.297 710.208ZM764.223 682.216L763.333 689.214L754.016 692.813L760.094 683.315L765.093 675.568L764.223 682.216ZM729.403 700.671V702.32L728.773 702.56L729.143 700.661L729.403 700.671ZM752.916 676.377L754.796 661.821L755.086 659.562L764.463 660.752L763.843 661.751L754.716 675.987L752.586 679.327L752.916 676.377ZM696.512 700.161L696.572 698.421L701.72 698.781L720.575 700.071L719.355 706.209L695.962 715.207L696.512 700.161ZM625.121 710.158L623.631 719.406L619.552 744.799L595.489 754.096L595.889 726.804L595.939 723.985L603.587 724.764L604.686 724.884H605.126C605.573 724.876 606.015 724.795 606.436 724.644L606.766 724.524C607.121 724.368 607.457 724.17 607.765 723.935C607.806 723.901 607.85 723.871 607.895 723.845C608.005 723.745 608.085 723.635 608.185 723.525C608.345 723.374 608.492 723.21 608.625 723.035L615.833 712.668L627.44 695.812L625.121 710.158ZM545.542 615.834L531.396 662.621L525.108 661.621L520.869 660.942L519.869 660.772L521.229 656.723L526.747 640.257L547.912 576.844L545.542 615.834ZM510.112 662.821C509.915 663.41 509.849 664.034 509.918 664.65C509.987 665.267 510.19 665.861 510.511 666.392C510.832 666.923 511.265 667.377 511.78 667.724C512.295 668.07 512.878 668.301 513.491 668.4L515.99 668.799L510.672 740.48L510.002 749.478L507.133 788.177L498.285 791.586L492.377 789.277L495.316 750.977L495.986 742.3L501.354 672.428L506.493 671.609C507.105 671.51 507.689 671.279 508.204 670.933C508.718 670.586 509.151 670.132 509.473 669.601C509.794 669.07 509.996 668.476 510.065 667.86C510.134 667.243 510.068 666.619 509.872 666.03L503.344 646.525L519.429 436.962L533.855 428.884L518.24 638.548L510.112 662.821ZM495.316 322.283L486.928 437.802L470.722 419.167L493.716 122.987L507.073 160.457L495.316 322.283ZM375.808 660.192L374.029 671.429C373.93 672.039 373.965 672.664 374.132 673.26C374.299 673.855 374.593 674.407 374.994 674.878C375.396 675.349 375.894 675.726 376.456 675.985C377.018 676.244 377.629 676.378 378.247 676.377C378.475 676.377 378.703 676.357 378.927 676.317L403.681 672.318C404.558 672.179 405.369 671.77 406.003 671.148C406.638 670.527 407.063 669.723 407.22 668.849L408.669 660.742L410.669 673.008L394.673 675.588L394.533 675.638C394.308 675.68 394.087 675.743 393.873 675.828C393.773 675.828 393.673 675.887 393.573 675.937C393.27 676.072 392.985 676.243 392.724 676.447C392.491 676.63 392.277 676.834 392.084 677.057C392.08 677.08 392.08 677.104 392.084 677.127C392.014 677.217 391.964 677.307 391.904 677.387C391.772 677.581 391.655 677.785 391.554 677.997C391.528 678.036 391.505 678.076 391.484 678.117C391.459 678.189 391.439 678.262 391.424 678.337C391.344 678.537 391.284 678.745 391.244 678.957C391.213 679.081 391.193 679.209 391.184 679.337C391.164 679.543 391.164 679.75 391.184 679.956C391.184 680.086 391.184 680.206 391.184 680.336C391.184 680.466 391.184 680.426 391.184 680.476L396.762 715.807L354.904 704.6L345.206 654.063L350.205 665.15C350.546 665.899 351.094 666.535 351.785 666.982C352.476 667.428 353.281 667.667 354.104 667.67C354.517 667.669 354.928 667.609 355.324 667.49L373.319 662.141C374.367 661.833 375.258 661.136 375.808 660.192V660.192ZM260.779 688.264L264.208 699.811L179.061 666.41L260.779 688.264ZM818.779 667.82L772.401 685.715L773.141 679.876L818.779 667.82ZM687.864 702.44L687.274 718.606L628.83 741.21L632.719 717.046L687.864 702.44Z" fill="#18A7B5"/>
<path d="M999.9 640.507L903.616 198.836C903.481 198.204 903.204 197.611 902.805 197.101C902.407 196.592 901.898 196.18 901.317 195.897L501.865 0.439907C501.281 0.148592 500.637 -0.00305176 499.985 -0.00305176C499.333 -0.00305176 498.689 0.148592 498.106 0.439907L98.6834 195.947C98.1046 196.231 97.5973 196.642 97.1992 197.149C96.8011 197.656 96.5225 198.247 96.384 198.876L70.2111 318.324C69.9685 319.434 70.1766 320.594 70.7897 321.55C71.4028 322.507 72.3706 323.18 73.4802 323.423C74.5898 323.665 75.7504 323.457 76.7066 322.844C77.6628 322.231 78.3362 321.263 78.5788 320.154L104.292 202.675L499.955 8.9976L895.698 202.675L991.112 640.367L718.186 991.442H281.734L8.88765 640.367L63.5229 390.525C63.6623 389.969 63.6885 389.39 63.6001 388.824C63.5117 388.258 63.3104 387.715 63.0082 387.228C62.7059 386.741 62.3089 386.32 61.8408 385.989C61.3726 385.658 60.8427 385.425 60.2827 385.303C59.7226 385.181 59.1438 385.173 58.5805 385.279C58.0173 385.385 57.4811 385.603 57.0037 385.921C56.5264 386.238 56.1177 386.648 55.8019 387.126C55.486 387.605 55.2695 388.141 55.1652 388.705L0.100021 640.497C-0.0340992 641.11 -0.0319816 641.744 0.106224 642.356C0.24443 642.967 0.515347 643.541 0.899805 644.036L276.265 998.35C276.666 998.864 277.179 999.279 277.765 999.565C278.35 999.851 278.993 1000 279.645 1000H720.336C720.986 1000 721.627 999.851 722.211 999.565C722.795 999.279 723.306 998.864 723.705 998.35L999.1 644.036C999.485 643.543 999.755 642.971 999.894 642.361C1000.03 641.751 1000.03 641.118 999.9 640.507Z" fill="#18A7B5"/>
</g>
<defs>
<clipPath id="clip0">
<rect width="1000" height="1000" fill="white"/>
</clipPath>
</defs>
</svg>
