<svg width="1000" height="1000" viewBox="0 0 1000 1000" fill="none" xmlns="http://www.w3.org/2000/svg">
<g clip-path="url(#clip0)">
<path d="M263.189 495.176C265.815 496.263 268.481 497.339 271.187 498.405C279.104 469.11 289.399 440.509 301.969 412.889C300.289 409.589 298.669 406.29 297.05 402.991C283.159 432.7 271.831 463.54 263.189 495.176V495.176Z" fill="#18A7B5"/>
<path d="M720.935 499.275C723.601 498.242 726.234 497.192 728.833 496.126C720.727 465.292 710.087 435.181 697.022 406.1C695.362 409.359 693.712 412.619 692.023 415.878C703.81 442.885 713.476 470.768 720.935 499.275V499.275Z" fill="#18A7B5"/>
<path d="M250.382 275.606C249.733 272.816 249.153 270.057 248.563 267.308C246.373 268.258 244.134 269.177 241.985 270.157C172.683 301.779 134.514 344.217 134.514 389.665C134.514 435.113 172.683 477.551 241.985 509.173C247.223 511.562 252.622 513.831 258.12 516.061C260.786 517.127 263.469 518.183 266.168 519.23C275.172 522.669 284.477 525.885 294.081 528.877C295.45 529.307 296.8 529.747 298.179 530.157C299.559 530.567 300.929 530.947 302.288 531.347C308.447 533.153 314.705 534.872 321.063 536.505L322.303 536.825C323.303 537.095 324.302 537.375 325.382 537.625L326.452 537.905L329.691 538.675L330.621 538.885C349.906 543.483 370.03 547.272 390.824 550.192C393.384 550.551 395.963 550.861 398.532 551.191C399.952 551.381 401.372 551.561 402.801 551.731C404.231 551.901 405.63 552.101 407.07 552.271L409.389 552.561C413.458 553.021 417.557 553.411 421.676 553.811L423.036 553.95L427.325 554.37C428.444 554.47 429.584 554.54 430.714 554.63H430.794L431.623 554.7H431.893L435.003 554.94H435.322L436.162 555.01C437.212 555.09 438.252 555.18 439.301 555.25H439.841H440.411C451.435 556.043 462.578 556.6 473.842 556.92C475.332 556.92 476.841 557.03 478.301 557.07L482.73 557.14C487.528 557.22 492.327 557.3 497.166 557.3C499.115 557.3 501.045 557.25 502.994 557.23H507.403H511.802C519.2 557.09 526.558 556.88 533.866 556.54L535.096 556.47C535.835 556.47 536.565 556.39 537.295 556.35L538.295 556.29L539.484 556.23L541.594 556.11L542.713 556.04L543.853 555.98L545.853 555.87C547.722 555.75 549.612 555.66 551.471 555.53L552.311 555.47C553.471 555.39 554.62 555.28 555.78 555.2L560.089 554.85C563.708 554.57 567.317 554.27 570.906 553.931C574.905 553.564 578.87 553.161 582.803 552.721C582.993 552.721 583.193 552.721 583.382 552.661L587.101 552.231C588.531 552.061 589.951 551.871 591.38 551.691C594.959 551.251 598.558 550.831 602.107 550.341C616.104 548.402 629.85 546.023 643.246 543.343L647.445 542.494L648.235 542.334C649.365 542.094 650.524 541.884 651.644 541.634L652.574 541.424C654.043 541.104 655.473 540.754 656.923 540.424C665.92 538.375 674.848 536.185 683.505 533.796C684.895 533.416 686.245 532.996 687.614 532.606L691.733 531.417C703.47 527.968 714.877 524.229 725.784 520.14C728.463 519.14 731.053 518.08 733.682 517.03C740.05 514.501 746.318 511.892 752.357 509.143C821.658 477.521 859.828 435.083 859.828 389.635C859.828 344.187 821.658 301.749 752.357 270.127C751.007 269.517 749.588 268.937 748.228 268.338C747.608 271.097 747.028 273.836 746.348 276.615C811.101 305.488 851.32 345.487 851.32 389.585C851.32 436.922 805.133 479.491 731.982 508.683C729.363 509.722 726.697 510.749 723.985 511.762C713.087 515.861 701.621 519.67 689.664 523.169L685.545 524.358L681.426 525.508C673.648 527.654 665.674 529.654 657.502 531.507L653.154 532.506L649.395 533.336L648.805 533.456L645.196 534.216L640.997 535.076C630.913 537.075 620.582 538.888 610.005 540.514C603.88 541.441 597.679 542.294 591.4 543.073L589.231 543.343C587.801 543.513 586.382 543.693 584.952 543.853C583.522 544.013 582.093 544.173 580.653 544.323C580.113 544.383 579.574 544.453 579.024 544.503C572.939 545.17 566.8 545.749 560.609 546.243H560.529C559.129 546.363 557.709 546.462 556.3 546.572L551.991 546.892C549.842 547.042 547.682 547.172 545.523 547.312L544.413 547.382L541.504 547.552H541.254L539.994 547.612L537.135 547.762H536.975L535.585 547.832L532.756 547.972C526.478 548.252 520.146 548.459 513.761 548.592L509.362 548.662L504.954 548.732C502.344 548.732 499.745 548.732 497.136 548.732C491.557 548.732 486.029 548.662 480.52 548.552L476.081 548.442L471.633 548.312C461.275 547.979 451.052 547.449 440.961 546.722L437.442 546.452H436.692L432.913 546.153H432.423L431.873 546.103H431.334L428.394 545.843L427.045 545.733L422.756 545.323C419.757 545.033 416.757 544.723 413.758 544.403C412.169 544.223 410.579 544.063 409 543.873C407.42 543.683 406.15 543.533 404.731 543.363L401.572 542.973L400.462 542.833C394.603 542.087 388.812 541.274 383.087 540.394C365.491 537.728 348.559 534.439 332.29 530.527L329.381 529.827L328.131 529.527L325.062 528.757L323.973 528.487L320.733 527.668C315.128 526.208 309.616 524.682 304.198 523.089L300.099 521.859C298.729 521.449 297.37 521.019 296.01 520.599C286.319 517.58 276.989 514.358 268.018 510.932C265.308 509.932 262.619 508.833 259.97 507.763C188.219 478.601 143.051 436.452 143.051 389.635C143.071 344.977 184.23 304.548 250.382 275.606Z" fill="#18A7B5"/>
<path d="M295.25 542.763L291.151 541.504L273.286 618.293C273.148 618.879 273.136 619.487 273.249 620.078C273.363 620.669 273.6 621.23 273.946 621.722C274.291 622.215 274.737 622.629 275.254 622.938C275.771 623.246 276.347 623.442 276.945 623.512L308.796 627.321H309.306C310.294 627.319 311.251 626.976 312.015 626.349C312.778 625.722 313.301 624.85 313.495 623.882L322.553 578.894L326.122 680.626C327.531 680.946 328.961 681.236 330.431 681.486L331.19 681.606C331.96 681.726 332.75 681.826 333.53 681.926L334.729 682.086L334.649 679.826L332.91 630.18L330.161 552.061L328.071 551.571L325.852 551.041L323.902 550.571L321.533 549.981L319.743 549.532L305.917 618.353L282.724 615.584L299.389 543.983L295.25 542.763Z" fill="#18A7B5"/>
<path d="M307.097 510.712L318.444 461.875L320.284 514.401C321.713 514.791 323.163 515.161 324.603 515.531L326.492 516.021L328.921 516.641L328.541 505.863L326.912 458.036C325.352 455.437 323.913 452.818 322.353 450.208L321.533 448.799C320.534 446.999 319.424 445.2 318.404 443.4C318.204 443.05 317.994 442.7 317.804 442.401C316.945 440.901 316.145 439.401 315.305 437.882L298.919 508.193C300.269 508.623 301.639 509.043 303.008 509.462L307.097 510.712Z" fill="#18A7B5"/>
<path d="M416.817 851.03L438.242 855.259L440.241 931.308C440.265 932.424 440.725 933.486 441.523 934.265C442.322 935.045 443.394 935.48 444.51 935.477C444.792 935.475 445.073 935.449 445.35 935.397L483.259 927.859C484.137 927.689 484.938 927.246 485.55 926.595C486.161 925.944 486.553 925.116 486.669 924.23L507.393 768.792L514.831 769.242L527.757 929.939C527.833 930.869 528.21 931.748 528.83 932.445C529.451 933.141 530.282 933.616 531.197 933.798L570.066 941.476C570.34 941.527 570.617 941.553 570.896 941.556C571.843 941.554 572.763 941.242 573.515 940.666C573.997 940.294 574.394 939.823 574.678 939.285C574.963 938.747 575.129 938.154 575.165 937.547L580.883 847.571L589.881 845.782C590.756 845.609 591.555 845.166 592.165 844.515C592.775 843.863 593.165 843.037 593.28 842.153L610.275 714.547C608.896 714.207 607.506 713.857 606.106 713.487C604.707 713.117 603.337 712.738 601.947 712.338L585.222 837.964L581.443 838.714L589.721 708.339C588.321 707.839 586.931 707.339 585.522 706.859C584.392 706.429 583.252 705.949 582.123 705.5L581.333 705.19L578.104 703.91L574.105 702.23L556.58 732.972L552.491 740.15L548.402 747.328L547.772 748.438L548.242 741.05L550.851 700.531L551.121 696.262L551.271 693.843L551.321 693.173L551.391 691.993L551.441 691.233L551.261 691.143L550.581 690.774L549.582 690.224C549.202 690.024 548.822 689.834 548.442 689.624L547.332 689.014L546.962 688.804L546.262 688.404L545.883 688.194L543.233 686.675L543.153 688.034L543.043 689.754L542.773 694.033L542.563 697.342V697.402L538.455 762.114L522.849 761.115L518.54 760.845L514.221 760.585L508.623 760.235L504.344 759.975L500.065 759.715L462.705 757.416L458.436 757.156L454.167 756.896L444.33 756.296L441.541 756.126L440.041 756.026L438.771 755.946L438.651 752.437L438.352 743.899L436.582 693.553L436.502 691.363L434.123 692.553L432.303 693.453L431.733 693.733L431.493 693.853C430.354 694.403 429.224 694.982 428.094 695.512L427.315 695.872C426.455 696.282 425.605 696.652 424.745 697.052L424.015 697.382C421.116 698.715 418.244 699.968 415.398 701.141C413.748 701.821 412.099 702.48 410.469 703.14C409.079 703.68 407.68 704.24 406.3 704.75L406.02 704.86C404.711 705.34 403.431 705.769 402.131 706.229L413.468 847.191C413.541 848.106 413.906 848.972 414.509 849.663C415.112 850.355 415.921 850.834 416.817 851.03ZM453.537 765.453L457.806 765.713L462.075 765.973L498.865 768.233L478.561 920.072L448.629 926.02L446.879 856.969L446.769 852.58L446.659 848.201L444.5 764.893L453.537 765.453ZM581.213 707.089L572.755 840.433L572.475 844.852L572.195 849.271L566.937 932.128L536.025 926.03L523.459 769.792L542.104 770.942H542.374C542.711 770.935 543.047 770.888 543.373 770.802L543.623 770.732C543.878 770.649 544.125 770.546 544.363 770.422L544.553 770.322C544.841 770.154 545.107 769.949 545.343 769.712L545.473 769.572C545.662 769.361 545.833 769.134 545.983 768.892C546.015 768.858 546.046 768.821 546.072 768.782L548.862 763.894L552.951 756.716L557.04 749.528L581.213 707.089ZM426.575 706.139H426.885C427.222 706.133 427.558 706.086 427.884 705.999L428.134 705.929L428.394 705.849L430.294 760.145C430.294 760.145 430.294 760.225 430.294 760.275C430.317 760.693 430.408 761.105 430.564 761.494C430.564 761.604 430.654 761.724 430.704 761.834C430.733 761.919 430.766 762.003 430.804 762.084C430.985 762.402 431.203 762.697 431.453 762.964L431.543 763.024C431.838 763.319 432.175 763.568 432.543 763.764L432.873 763.914C433.306 764.107 433.77 764.225 434.243 764.264L435.852 764.364L437.982 846.491L421.606 843.252L410.539 705.15L426.575 706.139Z" fill="#18A7B5"/>
<path d="M386.616 711.038L369.62 838.004L343.907 843.072L340.638 716.916C339.208 716.916 337.769 716.866 336.359 716.776C334.95 716.686 333.5 716.497 332.07 716.357L335.509 848.371C335.538 849.485 336 850.544 336.797 851.322C337.594 852.101 338.664 852.538 339.778 852.54C340.057 852.538 340.334 852.512 340.608 852.46L374.329 845.772C375.206 845.601 376.007 845.159 376.619 844.507C377.231 843.856 377.622 843.029 377.738 842.143L395.593 708.389C394.094 708.869 392.594 709.388 391.094 709.798C389.595 710.208 388.105 710.638 386.616 711.038Z" fill="#18A7B5"/>
<path d="M426.675 657.822L429.744 656.143L430.874 655.523C431.983 654.913 433.083 654.273 434.193 653.634L435.073 653.134L434.773 644.486L434.533 637.588L434.383 633.319V633.219L434.233 629.04V628.89L434.083 624.571L433.253 600.988L433.163 598.308C432.463 597.589 431.773 596.889 431.084 596.169L429.384 594.39L428.714 593.67L427.485 592.35C426.415 591.21 425.335 590.051 424.275 588.891C424.146 588.761 424.016 588.631 423.896 588.491L417.037 622.532L416.198 626.741L415.668 629.39L415.348 630.95L414.798 633.679L413.938 637.978L408.09 666.97C409.689 666.26 411.289 665.52 412.909 664.771C414.528 664.021 416.118 663.241 417.737 662.441L422.736 637.808L423.596 633.519L423.906 631.959L424.465 629.22L424.755 627.761L425.535 623.882L425.675 627.88L425.725 629.21L425.825 632.209L425.875 633.489L426.025 637.768L426.255 644.366L425.355 658.582L426.675 657.822Z" fill="#18A7B5"/>
<path d="M668.47 457.157C667.47 458.856 666.4 460.566 665.351 462.265L678.347 513.251L682.466 512.102L686.575 510.902L671.579 451.978C670.539 453.717 669.519 455.447 668.47 457.157Z" fill="#18A7B5"/>
<path d="M672.199 716.487L663.821 848.521L637.208 843.262L627.111 717.736C625.671 717.536 624.222 717.346 622.772 717.096C621.322 716.846 619.863 716.566 618.413 716.277L628.93 847.171C629.004 848.1 629.378 848.98 629.997 849.676C630.616 850.373 631.446 850.848 632.359 851.03L666.94 857.858C667.213 857.917 667.491 857.947 667.77 857.948C668.856 857.948 669.901 857.535 670.694 856.792C671.487 856.05 671.968 855.033 672.039 853.949L680.916 714.097C679.467 714.567 678.027 715.097 676.547 715.447C675.068 715.797 673.648 716.157 672.199 716.487Z" fill="#18A7B5"/>
<path d="M655.063 554.12L651.724 554.84L650.884 555.02L647.385 555.74L647.245 557.949L643.066 623.832L642.797 628.11L642.727 629.22L642.527 632.389L642.447 633.499L642.187 637.788L639.188 684.595C640.627 684.705 642.047 684.785 643.466 684.835C644.706 684.835 645.926 684.895 647.145 684.895H647.745C649.235 684.895 650.744 684.835 652.144 684.755C653.914 684.655 655.633 684.485 657.343 684.285L676.338 650.954L674.488 680.056C675.998 679.467 677.487 678.827 678.897 678.117C680.306 677.407 681.896 676.537 683.346 675.658L686.045 633.039V632.949C686.045 632.849 686.045 632.749 686.045 632.649C686.037 632.425 686.014 632.201 685.975 631.979C685.975 631.859 685.915 631.749 685.885 631.629C685.833 631.427 685.763 631.23 685.675 631.04C685.675 630.98 685.675 630.91 685.605 630.84C685.579 630.791 685.549 630.744 685.515 630.7C685.404 630.517 685.284 630.34 685.155 630.17C685.085 630.08 685.025 629.99 684.945 629.9L684.875 629.81C684.708 629.646 684.531 629.493 684.345 629.35L684.225 629.26C683.662 628.864 683.009 628.614 682.326 628.53V628.53L651.574 624.831L654.203 583.303L662.751 614.384C662.975 615.204 663.438 615.938 664.081 616.493C664.723 617.049 665.517 617.4 666.36 617.503L708.859 622.572H709.359H709.419C709.98 622.573 710.536 622.464 711.055 622.25C711.574 622.036 712.046 621.722 712.444 621.325C712.841 620.929 713.156 620.458 713.372 619.939C713.587 619.42 713.697 618.864 713.697 618.303C713.695 617.712 713.576 617.128 713.348 616.583L694.912 544.003L690.814 545.183L686.695 546.342L703.69 613.324L670.249 609.325L655.883 557.05L656.083 553.89L655.063 554.12ZM647.825 683.685L650.754 637.598L651.024 633.369L674.878 636.218L674.348 637.158L647.825 683.685Z" fill="#18A7B5"/>
<path d="M652.004 482.99L649.625 520.399L653.973 519.4L658.322 518.4L661.511 468.314C659.922 470.833 658.362 473.312 656.743 475.842C655.123 478.371 653.583 480.61 652.004 482.99Z" fill="#18A7B5"/>
<path d="M385.386 645.446L386.386 641.277L389.505 627.88L390.505 623.682L391.505 619.493L403.891 565.957L402.891 564.758L399.892 564.378C398.473 564.208 397.043 564.028 395.633 563.838L382.897 618.473L381.897 622.662L380.897 626.831L377.968 639.417L376.968 643.586L375.969 647.755L370.15 672.748C370.012 673.333 369.999 673.939 370.113 674.529C370.227 675.118 370.464 675.677 370.81 676.167C371.156 676.661 371.602 677.076 372.118 677.386C372.635 677.696 373.211 677.894 373.809 677.967L376.259 678.257C379.678 677.364 383.153 676.341 386.686 675.188C388.285 674.668 389.895 674.128 391.515 673.548C392.944 673.048 394.384 672.548 395.823 671.979L391.824 671.489L379.588 670.029L384.346 649.575L385.386 645.446Z" fill="#18A7B5"/>
<path d="M573.255 663.081L571.756 657.632L570.106 651.634L568.457 645.636L567.597 642.527L566.317 637.828L565.038 633.159L556.98 603.837L557.23 599.838L556.23 600.898C555.07 602.057 553.891 603.157 552.731 604.307L549.192 607.836L548.092 608.896L547.842 612.825L546.672 631.38L545.793 645.146L545.593 648.275L545.883 648.455C546.972 649.155 548.072 649.845 549.172 650.524L549.722 650.874L550.232 651.184C551.441 651.934 552.641 652.654 553.851 653.374L554.35 645.376L554.71 639.767L554.98 635.448L555.26 631.13L555.32 630.19L555.59 631.19L556.88 635.848L558.159 640.507L562.598 656.693L563.178 658.792L565.607 660.142L568.387 661.611L569.386 662.141C573.818 664.461 578.187 666.603 582.493 668.569C587.392 670.809 592.207 672.808 596.939 674.568L606.886 675.758L611.135 676.257L615.224 676.747H615.374L617.143 676.957H617.653H617.713C618.426 676.96 619.127 676.784 619.754 676.447C620.381 676.109 620.914 675.62 621.303 675.023C621.693 674.427 621.927 673.743 621.984 673.033C622.042 672.323 621.921 671.61 621.632 670.959L618.043 656.823L617.853 656.083L614.854 644.086L611.955 632.829L610.835 628.57L609.705 624.131L608.576 619.693L594.58 564.368L590.301 564.887L589.751 564.957C588.751 566.097 587.751 567.207 586.752 568.337L599.498 618.603L600.628 623.042L601.758 627.491L605.457 642.057L606.626 646.695L607.806 651.334L609.326 657.333L611.965 667.73L607.966 667.25L573.255 663.081Z" fill="#18A7B5"/>
<path d="M400.982 693.033C402.361 692.523 403.751 691.983 405.141 691.433C406.53 690.883 407.91 690.374 409.3 689.794C414.052 687.841 418.864 685.695 423.736 683.355C424.985 682.756 426.245 682.126 427.505 681.496L428.154 681.176C429.344 680.586 430.524 679.986 431.713 679.367L432.583 678.907C433.693 678.327 434.803 677.757 435.912 677.157L436.042 677.087C438.432 675.818 440.821 674.488 443.23 673.088C445.64 671.689 448.129 670.259 450.598 668.779C451.148 668.449 451.698 668.15 452.248 667.78C454.837 666.21 457.447 664.521 460.046 662.861C461.535 661.861 463.045 661.012 464.505 660.032C465.964 659.052 467.504 658.032 468.993 657.033C474.212 653.514 479.434 649.825 484.659 645.966C482.39 644.116 480.12 642.257 477.861 640.347C475.132 642.347 472.402 644.346 469.673 646.226C468.184 647.225 466.674 648.225 465.194 649.275C463.715 650.324 462.195 651.334 460.716 652.274L459.546 653.064C456.977 654.743 454.417 656.313 451.858 657.912C450.508 658.752 449.159 659.642 447.859 660.462C446.679 661.181 445.5 661.861 444.33 662.561C441.401 664.281 438.502 665.95 435.622 667.56L433.263 668.849L431.424 669.849L428.824 671.209L427.225 672.038C426.275 672.528 425.335 673.038 424.395 673.488C421.063 675.134 417.794 676.697 414.588 678.177C412.589 679.09 410.589 679.966 408.59 680.806L406.16 681.806L404.441 682.506C403.041 683.076 401.662 683.615 400.282 684.135L398.762 684.715C397.243 685.285 395.763 685.815 394.234 686.345C392.704 686.875 391.234 687.344 389.715 687.854C381.906 690.408 373.924 692.399 365.831 693.813V693.813C357.344 695.312 348.721 695.905 340.108 695.582C338.659 695.512 337.239 695.422 335.819 695.292C334.4 695.162 332.95 695.012 331.541 694.822C331.331 694.822 331.111 694.822 330.901 694.732C329.621 694.552 328.351 694.352 327.102 694.123L326.602 694.023C316.296 692.133 306.491 688.137 297.8 682.286C263.179 658.692 250.872 606.306 263.159 534.696C263.309 533.836 263.509 532.946 263.669 532.076C260.93 531.037 258.227 529.984 255.561 528.917C255.301 530.357 254.981 531.816 254.731 533.256C241.845 608.326 255.431 663.771 292.981 689.354C304.577 697.118 317.885 701.948 331.76 703.43C333.18 703.597 334.61 703.737 336.049 703.85C337.459 703.96 338.899 704.02 340.338 704.08C341.778 704.14 343.227 704.21 344.707 704.21C351.852 704.172 358.982 703.567 366.031 702.4C371.18 701.571 376.438 700.491 381.817 699.081C384.016 698.511 386.226 697.882 388.465 697.212C389.955 696.772 391.464 696.272 392.974 695.782L393.754 695.532C394.993 695.122 396.243 694.692 397.493 694.253C398.742 693.813 399.812 693.463 400.982 693.033Z" fill="#18A7B5"/>
<path d="M558.249 567.987C557.08 569.256 555.91 570.536 554.73 571.786C553.211 573.395 551.671 574.985 550.142 576.574L549.632 577.094C548.632 578.094 547.632 579.094 546.702 580.093L546.173 580.633C545.013 581.813 543.863 583.023 542.714 584.182L542.564 584.332C541.194 585.712 539.804 587.041 538.435 588.401C537.505 589.321 536.575 590.221 535.645 591.12C533.836 592.89 532.036 594.689 530.217 596.419C528.397 598.149 526.638 599.728 524.848 601.418C519.17 606.686 513.471 611.825 507.733 616.724C506.913 617.433 506.083 618.113 505.264 618.813L508.043 621.072C509.383 622.152 510.722 623.232 512.042 624.292C512.962 623.502 513.881 622.672 514.801 621.882C516.241 620.632 517.69 619.353 519.13 618.093L521.979 615.594C523.759 614.008 525.538 612.398 527.318 610.765C529.107 609.126 530.887 607.476 532.676 605.766C534.722 603.847 536.769 601.904 538.815 599.938C540.204 598.608 541.574 597.259 542.953 595.939C543.733 595.169 544.513 594.429 545.283 593.66C545.883 593.07 546.493 592.5 547.092 591.9L548.772 590.211L549.292 589.671C550.291 588.671 551.291 587.671 552.231 586.672L553.881 584.992C555.4 583.422 556.94 581.883 558.459 580.283C562.618 575.924 566.754 571.482 570.866 566.957C567.02 567.303 563.148 567.637 559.249 567.957L558.249 567.987Z" fill="#18A7B5"/>
<path d="M696.732 692.503C734.721 667.51 749.108 612.265 737.371 537.005C737.011 534.686 736.551 532.326 736.151 530.007C733.532 531.007 730.882 532.006 728.213 533.006C740.44 604.157 729.323 660.772 692.023 685.355C688.955 687.366 685.74 689.144 682.406 690.674C680.956 691.343 679.496 691.973 677.997 692.543C676.497 693.113 675.098 693.623 673.618 694.093C665.802 696.518 657.686 697.844 649.504 698.032C648.655 698.032 647.795 698.032 646.925 698.032H644.566H642.646C637.961 697.87 633.288 697.442 628.65 696.752C627.55 696.592 626.451 696.422 625.341 696.232C623.901 695.982 622.442 695.702 620.982 695.402C619.523 695.102 618.083 694.792 616.613 694.403C615.444 694.133 614.274 693.843 613.094 693.543C611.715 693.183 610.325 692.813 608.935 692.423C607.546 692.033 606.166 691.633 604.777 691.203C599.825 689.677 594.799 687.904 589.701 685.885C588.701 685.475 587.621 685.035 586.581 684.605L586.422 684.545C578.837 681.406 571.116 677.74 563.258 673.548C562.008 672.888 560.758 672.199 559.499 671.549L555.76 669.469L554.99 669.029L552.991 667.85L550.691 666.51L549.781 665.96L548.862 665.41L546.352 663.911L545.413 663.321L544.733 662.901L541.034 660.602C531.583 654.603 522.049 647.938 512.432 640.607C508.986 637.994 505.537 635.298 502.084 632.519C499.835 630.72 497.596 628.88 495.336 627.011C493.39 625.384 491.434 623.718 489.468 622.012L485.389 618.473C484.829 617.993 484.279 617.473 483.729 617.013C481.87 615.384 480.02 613.724 478.161 612.015C467.81 602.624 457.503 592.573 447.239 581.863C445.146 579.683 443.064 577.477 440.991 575.245L439.341 573.485C438.342 572.405 437.342 571.306 436.342 570.206L435.342 569.096L434.673 568.367L434.073 567.707L432.523 567.587H432.153L431.153 567.507L428.224 567.267H427.864L423.565 566.887L421.666 566.717C422.316 567.457 422.986 568.167 423.665 568.906C424.825 570.216 425.995 571.496 427.155 572.785L428.154 573.865C428.984 574.785 429.804 575.725 430.644 576.634L430.754 576.754C431.363 577.424 431.983 578.124 432.603 578.754C433.223 579.384 433.763 579.963 434.333 580.583L434.652 580.923C435.982 582.353 437.332 583.762 438.651 585.172L439.591 586.172C441.661 588.341 443.73 590.501 445.8 592.62C447.869 594.739 449.888 596.759 451.938 598.788C455.89 602.727 459.859 606.573 463.845 610.325C465.611 611.991 467.38 613.638 469.153 615.264C470.983 616.943 472.812 618.593 474.652 620.263C475.971 621.442 477.281 622.672 478.601 623.832C481.91 626.741 485.239 629.55 488.598 632.329C490.857 634.219 493.127 636.048 495.386 637.878C498.845 640.664 502.311 643.386 505.783 646.046C516.49 654.213 527.227 661.751 537.955 668.48C539.134 669.209 540.294 669.899 541.464 670.619L544.213 672.298L545.842 673.298L546.692 673.788C547.242 674.118 547.792 674.418 548.352 674.788L550.051 675.818L550.881 676.297L551.811 676.837L552.331 677.137L555.22 678.717L555.56 678.907C556.81 679.587 558.069 680.286 559.319 680.906L560.119 681.346C562.458 682.579 564.791 683.769 567.117 684.915C568.596 685.645 570.056 686.325 571.516 687.015C572.975 687.704 574.405 688.374 575.844 689.014C578.744 690.324 581.613 691.543 584.462 692.713L586.382 693.493C586.931 693.703 587.481 693.943 588.021 694.153L588.461 694.333L590.57 695.112C594.749 696.682 598.888 698.112 602.957 699.351L603.707 699.571C605.096 699.991 606.486 700.391 607.866 700.781C609.245 701.171 610.645 701.521 612.025 701.871C613.824 702.324 615.607 702.744 617.373 703.13C618.833 703.44 620.292 703.76 621.732 704.04C623.172 704.32 624.641 704.54 626.081 704.77C627.171 704.94 628.26 705.11 629.33 705.26C635.051 706.059 640.819 706.47 646.595 706.489C655.53 706.539 664.43 705.389 673.058 703.07C674.548 702.66 675.987 702.18 677.437 701.701C678.887 701.221 680.376 700.701 681.826 700.101C687.041 698.085 692.036 695.539 696.732 692.503V692.503Z" fill="#18A7B5"/>
<path d="M260.62 262.289C261.19 265.058 261.729 267.808 262.359 270.597C270.937 308.237 285.133 348.066 304.128 388.225C305.678 391.494 307.277 394.763 308.887 398.033C313.332 407.09 318.018 416.141 322.943 425.185L323.063 425.395L325.242 429.394L325.602 430.034C326.252 431.214 326.892 432.393 327.552 433.563L328.142 434.643C331.681 440.941 335.346 447.219 339.139 453.478C340.218 455.267 341.328 457.057 342.418 458.846C343.507 460.636 344.597 462.425 345.707 464.205C349.416 470.203 353.195 476.141 357.104 482.07C367.768 498.225 378.845 513.768 390.335 528.697C394.334 529.27 398.359 529.81 402.412 530.317C389.285 513.631 376.509 495.956 364.242 477.331C358.643 468.873 353.315 460.376 348.146 451.878C347.056 450.078 345.937 448.289 344.867 446.479C343.797 444.67 342.718 442.77 341.628 440.911C340.628 439.241 339.628 437.582 338.719 435.912C338.189 434.983 337.629 434.063 337.099 433.133C336.749 432.513 336.399 431.903 336.099 431.284C335.66 430.504 335.25 429.734 334.81 428.954C334.37 428.174 333.98 427.435 333.55 426.675L332.55 424.775C325.792 412.612 319.481 400.452 313.616 388.295C312.046 385.016 310.546 381.757 309.037 378.478C291.531 340.488 278.415 302.978 270.447 267.508C269.817 264.708 269.257 261.939 268.688 259.16C267.448 253.092 266.308 247.063 265.389 241.165C254.192 169.404 267.298 117.198 302.279 94.1246C346.847 64.7525 418.667 87.7263 492.227 146.88C464.405 169.404 436.972 196.337 410.929 226.699C363.942 231.937 319.834 241.465 280.844 254.841C281.394 257.6 281.984 260.38 282.594 263.159C318.094 250.932 358.783 241.665 402.891 236.176C389.675 252.122 376.898 268.947 364.562 286.503L343.677 285.433C343.087 285.401 342.496 285.492 341.943 285.702C341.391 285.913 340.888 286.236 340.468 286.653C340.046 287.067 339.714 287.564 339.494 288.113C339.274 288.662 339.17 289.251 339.189 289.842L340.188 323.363C331.777 336.879 323.906 350.462 316.575 364.112C318.014 367.351 319.514 370.61 321.014 373.859C327.152 362.252 333.73 350.645 340.648 339.078L341.728 375.559C341.728 375.689 341.788 375.789 341.798 375.908C341.808 376.028 341.798 376.308 341.858 376.508C341.902 376.621 341.952 376.731 342.008 376.838C342.067 377.017 342.14 377.191 342.228 377.358C342.369 377.622 342.533 377.873 342.718 378.108C342.826 378.245 342.943 378.375 343.068 378.498C343.297 378.721 343.556 378.913 343.837 379.068C343.965 379.157 344.098 379.237 344.237 379.308C344.68 379.521 345.157 379.653 345.647 379.697L368.821 381.647L367.821 423.146L346.827 424.095L349.196 428.274L349.486 428.764C350.196 429.994 350.915 431.224 351.635 432.443H351.905L367.581 431.723L371.86 431.533L376.149 431.334L380.987 431.114L385.326 430.924L389.665 430.724L396.663 430.404L401.042 430.204L439.881 428.424L438.162 455.517L423.806 456.167C423.547 456.182 423.289 456.219 423.036 456.277L422.846 456.337C422.446 456.455 422.066 456.63 421.716 456.857C421.651 456.893 421.587 456.933 421.526 456.977C421.168 457.238 420.854 457.555 420.597 457.916L420.467 458.086C420.21 458.479 420.021 458.911 419.907 459.366C419.905 459.399 419.905 459.433 419.907 459.466L416.998 471.983L414.998 480.72L412.999 489.468L407 515.281C408.13 516.75 409.25 518.2 410.379 519.65C411.509 521.099 412.629 522.549 413.758 523.989L417.757 506.783L419.757 498.036L420.887 492.867L421.276 503.864L421.926 522.379L422.276 532.506L424.775 532.746L426.575 532.906L429.324 533.146L430.864 533.286L430.434 521.079L428.484 465.284V464.525L437.682 464.105L441.971 463.915L446.28 463.715L450.039 463.545H450.149L454.517 463.345L457.567 463.205L458.876 463.145L476.312 462.355L480.6 462.155L484.879 461.965L491.447 461.665L495.786 461.465L500.125 461.265L508.863 460.876L513.242 460.676L517.62 460.476L519.99 460.366L525.668 460.106L530.097 459.906L533.946 459.736H534.536L538.225 459.566L542.494 459.376L553.591 458.866L557.66 458.686L557.5 461.105L555.5 492.757L552.851 534.126C554.301 534.026 555.73 533.906 557.16 533.796C558.589 533.686 560.049 533.586 561.469 533.466L564.768 481.59L576.485 527.747C577.604 526.378 578.714 524.978 579.834 523.589L583.193 519.42L566.347 453.108C566.321 453.071 566.301 453.03 566.287 452.988C566.167 452.567 565.985 452.166 565.747 451.798L565.677 451.708C565.552 451.515 565.408 451.334 565.248 451.168C565.103 451.025 564.945 450.894 564.778 450.778H564.718C564.497 450.614 564.259 450.473 564.008 450.358C563.845 450.283 563.678 450.216 563.508 450.158H563.378C562.931 450.024 562.465 449.96 561.998 449.968L559.709 450.078L555.3 450.278L542.164 450.878L541.584 434.443V433.683L563.128 432.683L567.477 432.493L583.153 431.773L587.432 431.583L591.72 431.384L596.559 431.164L600.838 430.884L605.177 430.684L612.175 430.364L616.554 430.164L645.546 428.844C646.406 427.385 647.225 425.915 648.075 424.455C648.925 422.996 649.755 421.516 650.595 420.057L606.287 422.056L614.524 357.174C614.529 357.124 614.529 357.073 614.524 357.024C614.524 356.914 614.524 356.814 614.524 356.714C614.533 356.456 614.516 356.198 614.474 355.944C614.457 355.836 614.433 355.729 614.404 355.624C614.34 355.345 614.246 355.074 614.124 354.814C614.1 354.763 614.08 354.709 614.064 354.654C614.064 354.654 614.064 354.654 614.064 354.604C613.906 354.316 613.718 354.045 613.505 353.794L613.445 353.744C613.383 353.679 613.316 353.619 613.245 353.565C613.057 353.376 612.849 353.208 612.625 353.065L612.335 352.895C612.104 352.771 611.863 352.667 611.615 352.585L611.375 352.505C611.048 352.423 610.713 352.376 610.375 352.365H610.265L602.907 352.435L611.405 292.731C611.488 292.144 611.448 291.547 611.287 290.977C611.127 290.407 610.85 289.876 610.475 289.419C610.099 288.961 609.632 288.586 609.104 288.318C608.576 288.051 607.998 287.895 607.406 287.862L559.269 285.403C558.679 285.371 558.088 285.462 557.535 285.672C556.982 285.883 556.48 286.206 556.06 286.623C555.639 287.036 555.308 287.531 555.088 288.078C554.868 288.626 554.763 289.212 554.78 289.802L557.31 375.529C557.31 375.659 557.37 375.759 557.38 375.879C557.385 376.08 557.405 376.28 557.44 376.478C557.481 376.595 557.531 376.709 557.59 376.818C557.65 376.993 557.724 377.164 557.81 377.328C557.947 377.594 558.111 377.845 558.299 378.078C558.408 378.215 558.525 378.345 558.649 378.468C558.883 378.683 559.137 378.874 559.409 379.038C559.54 379.127 559.677 379.207 559.819 379.278C560.254 379.484 560.72 379.616 561.199 379.667V379.667L584.382 381.617L583.383 423.116L536.985 425.225C536.715 425.24 536.448 425.28 536.185 425.345H536.075C535.645 425.466 535.236 425.655 534.866 425.905L534.726 425.985C534.354 426.261 534.032 426.599 533.776 426.985C533.776 427.035 533.696 427.075 533.656 427.135C533.401 427.528 533.212 427.96 533.096 428.414C533.096 428.414 533.096 428.474 533.096 428.514L527.768 451.408L501.305 452.618L510.652 379.048V378.898C510.652 378.798 510.652 378.688 510.652 378.588C510.657 378.33 510.637 378.072 510.592 377.818C510.581 377.71 510.561 377.603 510.532 377.498C510.46 377.223 510.363 376.956 510.242 376.698C510.229 376.64 510.208 376.583 510.182 376.528C510.03 376.233 509.842 375.958 509.623 375.709C509.623 375.709 509.623 375.709 509.563 375.659L509.433 375.529C509.197 375.286 508.932 375.074 508.643 374.899V374.899C507.999 374.478 507.242 374.266 506.473 374.289H506.393L497.506 374.369L507.143 306.637C507.227 306.051 507.188 305.453 507.029 304.882C506.869 304.311 506.593 303.78 506.216 303.322C505.84 302.864 505.373 302.489 504.844 302.222C504.315 301.954 503.736 301.8 503.144 301.769L448.879 298.989C448.289 298.96 447.7 299.053 447.148 299.263C446.596 299.472 446.094 299.794 445.672 300.207C445.251 300.62 444.919 301.116 444.699 301.663C444.478 302.211 444.373 302.798 444.39 303.388L447.229 399.762C447.229 399.882 447.289 399.992 447.299 400.112C447.3 400.313 447.32 400.514 447.359 400.712C447.4 400.824 447.447 400.934 447.499 401.042C447.561 401.217 447.634 401.387 447.719 401.552C447.859 401.818 448.026 402.07 448.219 402.301C448.325 402.441 448.438 402.575 448.559 402.701C448.798 402.914 449.056 403.105 449.329 403.271C449.458 403.358 449.591 403.438 449.729 403.511C450.166 403.719 450.636 403.847 451.118 403.891V403.891L477.681 406.13L476.482 453.767L456.687 454.667L448.629 422.886C448.629 422.836 448.629 422.806 448.579 422.766C448.459 422.345 448.277 421.944 448.039 421.576C448.015 421.535 447.985 421.498 447.949 421.466C447.824 421.279 447.683 421.101 447.529 420.936C447.393 420.809 447.249 420.688 447.099 420.576L446.979 420.476C446.619 420.221 446.221 420.022 445.8 419.887H445.66C445.216 419.751 444.754 419.691 444.29 419.707L390.755 422.136L398.992 357.254C398.992 357.204 398.992 357.154 398.992 357.104V356.794C399.001 356.536 398.984 356.278 398.942 356.024L398.882 355.704C398.81 355.426 398.713 355.155 398.593 354.894C398.593 354.844 398.593 354.784 398.533 354.734V354.684C398.376 354.395 398.188 354.123 397.973 353.874V353.874L397.723 353.644C397.539 353.462 397.338 353.298 397.123 353.155L396.963 353.065C396.305 352.652 395.54 352.443 394.764 352.465L387.396 352.535L395.893 292.831C395.977 292.244 395.938 291.646 395.779 291.076C395.619 290.505 395.343 289.974 394.966 289.516C394.59 289.058 394.123 288.683 393.594 288.416C393.065 288.148 392.486 287.994 391.894 287.962L374.729 287.082C387.725 268.757 401.362 251.292 415.368 234.817C470.273 229.018 525.639 229.072 580.533 234.977C598.283 256.452 614.853 278.875 630.17 302.148C646.014 326.151 660.5 351.023 673.558 376.648C675.118 373.409 676.668 370.18 678.157 366.951C665.748 343.092 652.114 319.89 637.308 297.44C623.172 275.995 608.226 255.591 592.73 236.396C637.328 241.935 678.457 251.442 714.147 263.929C714.787 261.169 715.447 258.4 716.017 255.671C676.817 241.935 632.329 232.157 584.842 226.769C559.579 196.527 532.926 169.634 505.864 147C518.872 136.831 532.454 127.418 546.543 118.808C608.636 81.1781 661.921 73.4501 696.542 97.0438C731.163 120.637 743.469 173.023 731.183 244.624C730.303 249.723 729.283 254.901 728.184 260.1C727.594 262.839 726.954 265.608 726.304 268.378C717.836 304.528 703.96 342.757 685.425 381.347C683.866 384.596 682.316 387.845 680.696 391.094C675.478 401.532 669.929 411.972 664.051 422.416V422.486C663.051 424.235 662.051 425.985 661.052 427.734C660.602 428.524 660.152 429.324 659.692 430.114C659.122 431.114 658.572 432.113 657.993 433.113C656.993 434.863 655.923 436.612 654.883 438.352C647.912 450.035 640.561 461.649 632.829 473.192C631.77 474.772 630.75 476.341 629.69 477.911C629.37 478.381 629.07 478.861 628.75 479.321C628.011 480.4 627.261 481.45 626.521 482.52C615.044 499.182 603.124 515.154 590.761 530.437C594.9 529.917 598.995 529.374 603.047 528.807C612.085 517.35 620.889 505.497 629.46 493.247C630.53 491.727 631.59 490.248 632.649 488.688C633.709 487.128 634.769 485.689 635.819 484.139C641.997 475.068 647.942 465.934 653.654 456.737C655.273 454.147 656.853 451.538 658.432 448.939L660.902 444.84C661.672 443.55 662.461 442.271 663.221 440.981C663.481 440.551 663.751 440.121 664.011 439.681C665.011 437.912 666.01 436.132 667.07 434.363C673.502 423.226 679.57 412.072 685.275 400.902C686.925 397.673 688.574 394.433 690.164 391.204C710.238 350.395 725.244 309.866 734.332 271.557C734.992 268.797 735.612 266.038 736.201 263.299C737.461 257.51 738.621 251.762 739.6 246.094C752.487 171.014 738.901 115.579 701.341 89.9857C663.781 64.3926 607.236 71.9805 542.094 111.49C527.165 120.629 512.79 130.644 499.045 141.482C485.478 130.458 471.27 120.246 456.497 110.9C391.974 70.441 335.53 61.9133 297.54 86.9065C259.55 111.9 245.194 167.135 256.931 242.395C257.931 248.933 259.22 255.591 260.62 262.289ZM386.426 361.033L386.056 361.552L386.126 361.033H386.426ZM377.368 382.367L378.998 382.507H379.358H379.478C380.163 382.507 380.838 382.342 381.447 382.027C382.056 381.713 382.581 381.256 382.977 380.697L388.355 373.099L382.077 422.476L376.359 422.736L377.368 382.367ZM378.088 356.824L377.478 361.112L375.699 373.639L373.319 373.439L369.041 373.089L351.705 371.63L350.176 371.5L350.056 367.581L348.826 325.722L348.376 310.456L347.906 294.221L358.823 294.77L368.891 295.29L386.726 296.19L378.728 352.545L378.088 356.824ZM447.969 455.077L446.79 455.127L447.029 451.358L447.969 455.077ZM497.956 382.897L495.666 386.136L496.126 382.917L497.956 382.897ZM488.078 378.708L487.469 382.997L486.679 388.565L485.309 398.182L482.17 397.893L477.901 397.533L457.187 395.783L455.657 395.653L455.537 391.734L453.058 307.757L497.866 310.046L488.698 374.429L488.078 378.708ZM486.229 406.89L488.618 407.1H489.118C489.803 407.102 490.478 406.939 491.087 406.626C491.696 406.313 492.22 405.859 492.617 405.301L499.865 394.993L492.497 453.048L485.049 453.388L486.229 406.89ZM601.978 361.073L601.608 361.592L601.688 361.073H601.978ZM593.64 356.864L593.03 361.152L591.241 373.679L588.861 373.479L584.592 373.129L567.257 371.67L565.727 371.54L565.607 367.621L563.448 294.221L602.268 296.22L594.27 352.575L593.64 356.864ZM592.92 382.407L594.55 382.547H594.91H595.03C595.715 382.547 596.39 382.382 596.999 382.067C597.608 381.753 598.132 381.296 598.529 380.737L603.897 373.149L597.629 422.516L591.91 422.776L592.92 382.407ZM572.566 225.549C548.042 223.14 522.859 221.94 497.176 221.94C472.103 221.94 447.439 223.12 423.436 225.389C447.789 197.727 473.242 173.083 499.015 152.409C525.524 174.686 550.126 199.138 572.566 225.509V225.549Z" fill="#18A7B5"/>
<path d="M999.9 640.507L903.626 198.836C903.487 198.204 903.207 197.611 902.807 197.103C902.407 196.594 901.898 196.182 901.317 195.897L755.636 124.616C754.616 124.118 753.441 124.045 752.367 124.413C751.294 124.782 750.411 125.561 749.912 126.581C749.414 127.6 749.341 128.776 749.709 129.849C750.078 130.923 750.857 131.806 751.877 132.304L895.698 202.675L991.112 640.367L718.186 991.442H281.734L8.88748 640.367L104.302 202.675L247.543 132.574C248.563 132.076 249.342 131.193 249.711 130.119C250.079 129.046 250.006 127.87 249.508 126.851C249.009 125.831 248.126 125.052 247.053 124.683C245.979 124.315 244.804 124.388 243.784 124.886L98.6832 195.947C98.1019 196.232 97.5922 196.644 97.1924 197.153C96.7925 197.661 96.5127 198.254 96.3739 198.886L0.0998549 640.507C-0.0341246 641.118 -0.0319224 641.751 0.106305 642.361C0.244532 642.971 0.515392 643.543 0.899639 644.036L276.265 998.35C276.666 998.864 277.179 999.279 277.764 999.565C278.35 999.851 278.993 1000 279.644 1000H720.335C720.987 1000 721.63 999.851 722.215 999.565C722.801 999.279 723.313 998.864 723.714 998.35L999.1 644.036C999.484 643.543 999.755 642.971 999.893 642.361C1000.03 641.751 1000.03 641.118 999.9 640.507Z" fill="#18A7B5"/>
<path d="M385.696 64.9825L499.955 8.9976L615.923 65.7223C616.507 66.0125 617.151 66.1631 617.803 66.1622C618.768 66.1599 619.704 65.8312 620.459 65.2297C621.214 64.6281 621.744 63.7889 621.961 62.8485C622.179 61.908 622.072 60.9216 621.659 60.0495C621.245 59.1773 620.548 58.4707 619.682 58.0444L501.864 0.439907C501.281 0.148592 500.637 -0.00305176 499.985 -0.00305176C499.332 -0.00305176 498.689 0.148592 498.105 0.439907L381.897 57.2746C380.875 57.7783 380.094 58.6675 379.728 59.7465C379.361 60.8255 379.438 62.0059 379.942 63.028C380.446 64.0501 381.335 64.8303 382.414 65.1968C383.493 65.5634 384.673 65.4863 385.696 64.9825V64.9825Z" fill="#18A7B5"/>
</g>
<defs>
<clipPath id="clip0">
<rect width="1000" height="1000" fill="white"/>
</clipPath>
</defs>
</svg>
