<svg width="1000" height="1000" viewBox="0 0 1000 1000" fill="none" xmlns="http://www.w3.org/2000/svg">
<path d="M714.2 629.83C713.997 629.345 713.7 628.905 713.326 628.535C712.953 628.165 712.51 627.873 712.024 627.674C711.537 627.475 711.016 627.374 710.49 627.377C709.965 627.38 709.445 627.486 708.96 627.69C705.262 629.242 701.694 631.088 698.29 633.21L649.61 621.67C649.096 621.549 648.564 621.53 648.043 621.615C647.522 621.7 647.024 621.888 646.576 622.167C646.127 622.446 645.739 622.81 645.433 623.24C645.126 623.67 644.908 624.156 644.79 624.67L640.62 642.27C639.954 642.14 639.266 642.181 638.62 642.39C638.122 642.559 637.662 642.825 637.267 643.171C636.872 643.518 636.549 643.94 636.317 644.412C636.084 644.883 635.947 645.396 635.914 645.921C635.88 646.446 635.95 646.972 636.12 647.47L638.07 653.2L631.2 682C631.08 682.513 631.062 683.044 631.148 683.564C631.234 684.084 631.422 684.581 631.701 685.028C631.98 685.475 632.344 685.863 632.773 686.168C633.202 686.474 633.687 686.692 634.2 686.81L650.83 690.75L652.43 695.46C652.698 696.246 653.204 696.93 653.878 697.415C654.551 697.901 655.359 698.165 656.19 698.17C657.017 698.17 657.824 697.912 658.499 697.434C659.175 696.956 659.685 696.28 659.96 695.5C659.96 695.44 660.29 694.59 660.88 693.14L691.52 700.41C692.546 700.648 693.623 700.472 694.52 699.92C695.422 699.363 696.065 698.471 696.31 697.44L709.91 640.09C710.061 639.453 710.053 638.79 709.887 638.157C709.721 637.524 709.403 636.941 708.96 636.46C709.96 635.97 710.96 635.46 712.03 635.08C712.519 634.88 712.963 634.584 713.337 634.212C713.711 633.839 714.007 633.395 714.209 632.907C714.411 632.419 714.514 631.896 714.512 631.368C714.511 630.84 714.405 630.317 714.2 629.83ZM701.2 642.12L689.45 691.69L664.21 685.69C669.95 673.92 681.59 654.22 699.77 641.76L701.2 642.12ZM639.9 679.94L642.9 667.41L647.79 681.8L639.9 679.94ZM689.6 639.37C672.66 653 662 671.67 656.61 683L646.35 652.81L651.66 630.41L689.6 639.37Z" fill="#18A7B5"/>
<path d="M753 496C752.591 495.022 751.811 494.246 750.83 493.842C749.849 493.439 748.749 493.442 747.77 493.85C744.134 495.375 740.623 497.184 737.27 499.26L685.37 487C684.857 486.88 684.326 486.862 683.806 486.948C683.286 487.034 682.789 487.222 682.342 487.501C681.895 487.78 681.507 488.144 681.202 488.573C680.896 489.002 680.678 489.487 680.56 490L676 509.36C675.431 509.884 675.027 510.561 674.835 511.31C674.644 512.059 674.673 512.847 674.92 513.58V513.72L667 547.27C666.88 547.783 666.863 548.314 666.948 548.834C667.034 549.354 667.222 549.851 667.501 550.298C667.78 550.745 668.144 551.133 668.573 551.438C669.002 551.744 669.487 551.962 670 552.08L689.6 556.73L691.25 561.6C691.518 562.388 692.026 563.072 692.702 563.558C693.377 564.044 694.188 564.307 695.02 564.31C695.847 564.309 696.654 564.052 697.329 563.574C698.005 563.096 698.515 562.42 698.79 561.64C698.79 561.58 699.14 560.64 699.79 559.15L727.35 565.68C727.655 565.751 727.967 565.788 728.28 565.79C729.179 565.787 730.05 565.482 730.754 564.923C731.458 564.364 731.953 563.585 732.16 562.71L745.76 505.36C745.885 504.793 745.885 504.207 745.76 503.64C747.42 502.767 749.127 501.96 750.88 501.22C751.851 500.806 752.618 500.024 753.015 499.047C753.412 498.069 753.407 496.974 753 496V496ZM703.09 551.73C708.62 540.4 719.57 521.85 736.53 509.41L725.23 557L703.09 551.73ZM675.69 545.23L679.76 528L686.49 547.82L675.69 545.23ZM728.55 505.41C711.55 519.09 700.8 537.8 695.41 549.13L683.25 513.34L687.44 495.66L728.55 505.41Z" fill="#18A7B5"/>
<path d="M920.27 678.77C920.11 678.272 919.859 677.807 919.53 677.4L903 657.4C902.493 656.791 901.817 656.345 901.056 656.121C900.296 655.897 899.486 655.903 898.73 656.14L751.92 701.62L837.44 381.5C837.505 381.248 837.545 380.99 837.56 380.73V380.54C837.59 380.284 837.59 380.026 837.56 379.77V379.77C837.511 379.52 837.437 379.275 837.34 379.04C837.321 378.978 837.298 378.918 837.27 378.86C837.165 378.622 837.038 378.394 836.89 378.18L760 269.42C759.871 269.244 759.731 269.077 759.58 268.92L759.43 268.79C759.32 268.69 759.21 268.59 759.09 268.5L758.9 268.37L758.54 268.17L758.32 268.07C758.187 268.01 758.05 267.96 757.91 267.92L757.77 267.86L381.83 166.86C381.322 166.724 380.792 166.69 380.27 166.759C379.749 166.828 379.246 167 378.791 167.264C378.336 167.527 377.937 167.878 377.618 168.296C377.298 168.715 377.065 169.191 376.93 169.7L366.47 209.29C366.335 209.798 366.302 210.328 366.372 210.849C366.442 211.37 366.614 211.872 366.879 212.327C367.143 212.781 367.494 213.179 367.912 213.498C368.33 213.817 368.807 214.05 369.315 214.185C369.823 214.32 370.353 214.353 370.874 214.283C371.395 214.213 371.897 214.041 372.352 213.776C372.806 213.512 373.204 213.161 373.523 212.743C373.842 212.325 374.075 211.848 374.21 211.34L383.63 175.63L752.07 274.63L735.8 355.72L721.09 352.24C720.577 352.12 720.046 352.103 719.526 352.188C719.006 352.274 718.509 352.462 718.062 352.741C717.615 353.02 717.227 353.384 716.922 353.813C716.616 354.242 716.398 354.727 716.28 355.24L702.68 412.6C702.56 413.113 702.542 413.644 702.628 414.164C702.714 414.684 702.902 415.181 703.181 415.628C703.46 416.075 703.824 416.463 704.253 416.768C704.682 417.074 705.167 417.292 705.68 417.41L728.24 422.76L729.96 427.81C730.228 428.596 730.734 429.279 731.407 429.765C732.081 430.251 732.889 430.515 733.72 430.52V430.52C734.547 430.52 735.354 430.262 736.029 429.784C736.705 429.306 737.215 428.63 737.49 427.85C737.49 427.79 737.85 426.85 738.49 425.21L763 431C763.305 431.071 763.617 431.108 763.93 431.11C764.83 431.109 765.704 430.805 766.41 430.246C767.116 429.687 767.613 428.906 767.82 428.03L780.05 376.45L828.52 383.8L742.9 704.41L709.14 714.86C708.487 715.062 707.897 715.431 707.43 715.93L672 753.18L658.82 767.06L613.82 756.38C613.306 756.259 612.774 756.24 612.253 756.325C611.732 756.41 611.233 756.598 610.785 756.877C610.337 757.155 609.949 757.52 609.643 757.95C609.336 758.38 609.118 758.866 609 759.38L604.56 778.11C604.072 777.249 603.282 776.6 602.343 776.287C601.405 775.975 600.383 776.021 599.477 776.418C598.57 776.815 597.843 777.533 597.435 778.435C597.028 779.337 596.969 780.357 597.27 781.3L601.12 792.63L595.41 816.73C595.288 817.244 595.27 817.776 595.355 818.297C595.44 818.818 595.628 819.316 595.907 819.765C596.185 820.213 596.55 820.601 596.98 820.907C597.409 821.214 597.896 821.432 598.41 821.55L612.09 824.79L613.63 829.32C613.896 830.108 614.401 830.793 615.075 831.281C615.749 831.769 616.558 832.034 617.39 832.04C618.219 832.042 619.028 831.786 619.705 831.307C620.382 830.829 620.894 830.152 621.17 829.37C621.17 829.31 621.47 828.51 622.03 827.15L655.74 835.15C656.045 835.218 656.357 835.251 656.67 835.25C657.411 835.252 658.138 835.047 658.77 834.66C659.672 834.103 660.315 833.211 660.56 832.18L672.7 780.97L681.16 782.79L719.71 791.1L686.17 916.74L217.35 805.44L308 462.34C308.193 461.341 307.998 460.305 307.455 459.445C306.911 458.584 306.06 457.963 305.075 457.708C304.089 457.453 303.044 457.583 302.151 458.072C301.258 458.561 300.586 459.372 300.27 460.34L208.57 807.36C208.433 807.88 208.403 808.423 208.481 808.955C208.559 809.488 208.744 809.999 209.024 810.458C209.304 810.917 209.674 811.315 210.111 811.628C210.549 811.942 211.045 812.163 211.57 812.28L688.11 925.43C688.415 925.501 688.727 925.538 689.04 925.54C689.925 925.537 690.783 925.241 691.482 924.698C692.18 924.155 692.679 923.396 692.9 922.54L727.57 792.74L731.4 793.56C731.679 793.62 731.964 793.65 732.25 793.65C732.649 793.648 733.046 793.59 733.43 793.48L923 734.82C923.763 734.583 924.437 734.123 924.936 733.499C925.435 732.875 925.736 732.116 925.8 731.32L928 704.73C928.042 704.224 927.988 703.715 927.84 703.23L920.27 678.77ZM824.89 375.11L785.71 369.17L781.36 368.51L773.14 367.27L756.78 364.79L742.61 362.64L742.84 361.48L743.63 357.56L758.87 281.63L824.87 375.12L824.89 375.11ZM741.89 417.73C747.01 407.31 756.66 390.88 771.29 378.67L761 422.25L741.89 417.73ZM711.39 410.5L716.6 388.5L725.17 413.74L711.39 410.5ZM734.22 363.56L733.9 365.18C733.794 365.71 733.796 366.257 733.907 366.786C734.018 367.316 734.235 367.817 734.546 368.26C734.856 368.703 735.253 369.079 735.713 369.364C736.172 369.65 736.685 369.839 737.22 369.92L764.38 374C749.05 387.39 739.25 404.58 734.17 415.24L721.22 377.13C720.954 376.352 720.455 375.674 719.79 375.19L723.18 360.9L734.22 363.56ZM918.07 728L732.07 785.57L729.65 785.05L721.82 783.36L685.16 775.46L679.45 757L712.51 722.2L740.51 713.55L749.51 710.76L898.57 664.62L912.89 681.9L919.98 704.9L918.07 728ZM625.37 819.71C630.76 808.62 641.44 790.33 658.02 777.79L664.89 779.27L653.71 826.43L625.37 819.71ZM604.14 814.71L605.99 806.9L608.99 815.9L604.14 814.71ZM650.67 773.39C633.82 787.04 623.18 805.6 617.82 816.86L609.46 792.26L615.89 765.14L650.67 773.39ZM676.18 773.55L674.18 773.12L667.55 771.69L665.88 771.33L667.88 769.24L673.14 763.7L674.51 768.13L676.19 773.55H676.18Z" fill="#18A7B5"/>
<path d="M735.29 758.52C735.289 758.121 735.232 757.723 735.12 757.34L731.71 746.29L730.78 743.29C730.667 742.938 730.509 742.602 730.31 742.29L720.51 727.34C719.914 726.488 719.01 725.901 717.989 725.704C716.968 725.508 715.911 725.716 715.041 726.285C714.171 726.855 713.557 727.741 713.329 728.755C713.101 729.77 713.277 730.833 713.82 731.72L721.42 743.33L723.31 746.21L727.31 759.13V775.36C727.309 776.395 727.71 777.391 728.428 778.137C729.146 778.883 730.125 779.321 731.16 779.36H731.31C732.371 779.36 733.388 778.939 734.138 778.188C734.889 777.438 735.31 776.421 735.31 775.36V758.52H735.29Z" fill="#18A7B5"/>
<path d="M906.8 683.79C906.487 682.777 905.784 681.93 904.846 681.435C903.909 680.94 902.813 680.838 901.8 681.15L744.37 729.91L739.37 731.44C738.457 731.724 737.675 732.325 737.167 733.135C736.659 733.946 736.458 734.911 736.601 735.857C736.744 736.802 737.221 737.666 737.945 738.29C738.669 738.914 739.594 739.258 740.55 739.26C740.953 739.26 741.355 739.2 741.74 739.08H741.88L904.11 688.83C904.62 688.68 905.096 688.43 905.509 688.095C905.921 687.759 906.263 687.344 906.514 686.875C906.764 686.406 906.918 685.891 906.968 685.361C907.017 684.832 906.96 684.297 906.8 683.79V683.79Z" fill="#18A7B5"/>
<path d="M908.86 704L746.48 754.32C745.566 754.604 744.784 755.206 744.276 756.018C743.768 756.829 743.568 757.795 743.712 758.742C743.856 759.688 744.335 760.551 745.061 761.175C745.787 761.798 746.713 762.141 747.67 762.14C748.07 762.139 748.468 762.079 748.85 761.96L911.22 711.67C912.203 711.333 913.017 710.626 913.488 709.699C913.959 708.773 914.051 707.699 913.744 706.706C913.437 705.713 912.756 704.878 911.844 704.378C910.933 703.879 909.862 703.754 908.86 704.03V704Z" fill="#18A7B5"/>
<path d="M678.72 340.61L398.23 270.4C397.717 270.262 397.182 270.228 396.656 270.3C396.129 270.371 395.623 270.547 395.165 270.816C394.707 271.085 394.308 271.443 393.99 271.868C393.672 272.294 393.442 272.778 393.313 273.293C393.184 273.808 393.159 274.344 393.24 274.869C393.32 275.394 393.504 275.898 393.781 276.351C394.058 276.804 394.423 277.197 394.854 277.508C395.284 277.818 395.773 278.04 396.29 278.16L676.78 348.37C677.802 348.607 678.876 348.433 679.771 347.886C680.666 347.338 681.31 346.461 681.564 345.444C681.818 344.426 681.663 343.349 681.131 342.445C680.599 341.541 679.733 340.882 678.72 340.61V340.61Z" fill="#18A7B5"/>
<path d="M396.29 300.94L670.61 369.61C671.123 369.748 671.658 369.782 672.184 369.71C672.711 369.639 673.217 369.463 673.675 369.194C674.133 368.925 674.532 368.567 674.85 368.142C675.168 367.716 675.398 367.232 675.527 366.717C675.656 366.202 675.681 365.666 675.6 365.141C675.52 364.616 675.336 364.112 675.059 363.659C674.782 363.206 674.417 362.813 673.986 362.502C673.556 362.192 673.067 361.97 672.55 361.85L398.23 293.18C397.717 293.042 397.182 293.008 396.656 293.08C396.129 293.151 395.623 293.327 395.165 293.596C394.707 293.865 394.308 294.223 393.99 294.648C393.672 295.074 393.442 295.558 393.313 296.073C393.184 296.588 393.159 297.124 393.24 297.649C393.32 298.174 393.504 298.678 393.781 299.131C394.058 299.584 394.423 299.977 394.854 300.288C395.284 300.598 395.773 300.82 396.29 300.94V300.94Z" fill="#18A7B5"/>
<path d="M395.5 323.52L664.44 390.85C665.462 391.087 666.536 390.913 667.431 390.366C668.326 389.818 668.97 388.941 669.224 387.924C669.478 386.906 669.323 385.829 668.791 384.925C668.259 384.021 667.393 383.362 666.38 383.09L397.45 315.76C396.94 315.632 396.411 315.606 395.891 315.682C395.371 315.759 394.872 315.937 394.421 316.207C393.97 316.477 393.577 316.833 393.263 317.254C392.95 317.676 392.723 318.156 392.595 318.665C392.467 319.175 392.441 319.704 392.517 320.224C392.594 320.744 392.772 321.243 393.042 321.694C393.312 322.145 393.668 322.538 394.089 322.852C394.511 323.165 394.99 323.392 395.5 323.52V323.52Z" fill="#18A7B5"/>
<path d="M390.49 340.77C390.233 341.799 390.395 342.888 390.941 343.798C391.486 344.707 392.371 345.363 393.4 345.62L659.9 412.33C660.922 412.567 661.996 412.393 662.891 411.846C663.786 411.298 664.43 410.421 664.684 409.404C664.938 408.386 664.783 407.309 664.251 406.405C663.719 405.501 662.853 404.842 661.84 404.57L395.34 337.86C394.311 337.603 393.222 337.765 392.312 338.311C391.403 338.856 390.747 339.741 390.49 340.77Z" fill="#18A7B5"/>
<path d="M361.23 408.25C360.973 409.279 361.135 410.368 361.681 411.278C362.226 412.187 363.111 412.843 364.14 413.1L641.14 482.45C642.162 482.687 643.236 482.513 644.131 481.966C645.026 481.418 645.67 480.541 645.924 479.524C646.178 478.506 646.023 477.429 645.491 476.525C644.959 475.621 644.093 474.962 643.08 474.69L366.08 405.34C365.051 405.083 363.962 405.245 363.052 405.791C362.143 406.336 361.487 407.221 361.23 408.25Z" fill="#18A7B5"/>
<path d="M635 503.69C636.03 503.947 637.121 503.785 638.031 503.238C638.942 502.691 639.598 501.805 639.855 500.775C640.112 499.745 639.95 498.654 639.403 497.744C638.856 496.833 637.97 496.177 636.94 495.92L361.21 426.92C360.697 426.782 360.162 426.748 359.636 426.82C359.109 426.891 358.603 427.067 358.145 427.336C357.687 427.605 357.288 427.963 356.97 428.388C356.652 428.814 356.422 429.298 356.293 429.813C356.164 430.328 356.139 430.864 356.22 431.389C356.3 431.914 356.484 432.418 356.761 432.871C357.038 433.324 357.403 433.717 357.834 434.028C358.264 434.338 358.753 434.56 359.27 434.68L635 503.69Z" fill="#18A7B5"/>
<path d="M633.65 522C633.779 521.49 633.806 520.959 633.729 520.439C633.652 519.918 633.474 519.418 633.203 518.966C632.933 518.515 632.576 518.121 632.154 517.808C631.731 517.494 631.251 517.267 630.74 517.14L347.62 446.29C347.107 446.152 346.572 446.118 346.046 446.19C345.519 446.261 345.013 446.437 344.555 446.706C344.097 446.975 343.698 447.333 343.38 447.758C343.062 448.184 342.832 448.668 342.703 449.183C342.574 449.698 342.549 450.234 342.63 450.759C342.71 451.284 342.894 451.788 343.171 452.241C343.448 452.694 343.813 453.087 344.244 453.398C344.674 453.708 345.163 453.93 345.68 454.05L628.8 524.93C629.829 525.187 630.918 525.025 631.828 524.479C632.737 523.934 633.393 523.049 633.65 522.02V522Z" fill="#18A7B5"/>
<path d="M625.23 546.53C626.208 546.537 627.155 546.185 627.892 545.541C628.628 544.896 629.103 544.004 629.226 543.034C629.349 542.063 629.112 541.081 628.56 540.273C628.008 539.465 627.179 538.888 626.23 538.65L341.1 467.28C340.587 467.142 340.052 467.108 339.526 467.18C338.999 467.251 338.493 467.427 338.035 467.696C337.577 467.965 337.178 468.323 336.86 468.748C336.542 469.174 336.312 469.658 336.183 470.173C336.054 470.688 336.029 471.224 336.11 471.749C336.19 472.274 336.374 472.778 336.651 473.231C336.928 473.684 337.293 474.077 337.724 474.388C338.154 474.698 338.643 474.92 339.16 475.04L624.26 546.41C624.577 546.489 624.903 546.53 625.23 546.53V546.53Z" fill="#18A7B5"/>
<path d="M594.13 659.12C595.108 659.127 596.055 658.775 596.792 658.131C597.528 657.486 598.003 656.594 598.126 655.624C598.249 654.653 598.012 653.671 597.46 652.863C596.908 652.055 596.079 651.478 595.13 651.24L310 579.87C308.971 579.611 307.881 579.772 306.971 580.317C306.06 580.862 305.404 581.746 305.145 582.775C304.886 583.804 305.047 584.894 305.592 585.804C306.137 586.715 307.021 587.371 308.05 587.63L593.15 659C593.471 659.079 593.8 659.119 594.13 659.12V659.12Z" fill="#18A7B5"/>
<path d="M570.83 750.72C571.808 750.727 572.755 750.375 573.492 749.731C574.228 749.086 574.703 748.194 574.826 747.224C574.949 746.253 574.712 745.271 574.16 744.463C573.608 743.655 572.779 743.078 571.83 742.84L286.6 671.38C285.571 671.115 284.479 671.269 283.563 671.809C282.648 672.349 281.985 673.231 281.72 674.26C281.455 675.289 281.609 676.381 282.149 677.296C282.689 678.212 283.571 678.875 284.6 679.14L569.8 750.6C570.136 750.688 570.483 750.728 570.83 750.72V750.72Z" fill="#18A7B5"/>
<path d="M564.66 772C565.638 772.007 566.585 771.655 567.322 771.011C568.058 770.366 568.533 769.474 568.656 768.504C568.779 767.533 568.542 766.551 567.99 765.743C567.438 764.935 566.609 764.358 565.66 764.12L281 692.76C280.49 692.632 279.961 692.606 279.441 692.682C278.921 692.759 278.422 692.937 277.971 693.207C277.52 693.477 277.127 693.833 276.813 694.254C276.5 694.676 276.273 695.155 276.145 695.665C276.017 696.175 275.99 696.704 276.067 697.224C276.144 697.744 276.322 698.243 276.592 698.694C276.862 699.145 277.218 699.538 277.639 699.852C278.061 700.165 278.54 700.392 279.05 700.52L563.68 771.84C563.999 771.934 564.328 771.988 564.66 772V772Z" fill="#18A7B5"/>
<path d="M562.37 790.17C562.627 789.141 562.465 788.052 561.919 787.142C561.374 786.233 560.489 785.577 559.46 785.32L276 714.3C275.487 714.162 274.952 714.128 274.426 714.2C273.899 714.271 273.393 714.447 272.935 714.716C272.477 714.985 272.078 715.343 271.76 715.768C271.442 716.194 271.212 716.678 271.083 717.193C270.954 717.708 270.929 718.244 271.01 718.769C271.09 719.294 271.274 719.798 271.551 720.251C271.828 720.704 272.193 721.097 272.624 721.408C273.054 721.718 273.543 721.94 274.06 722.06L557.49 793.06C557.817 793.14 558.153 793.181 558.49 793.18C559.379 793.181 560.244 792.886 560.946 792.34C561.649 791.795 562.15 791.032 562.37 790.17V790.17Z" fill="#18A7B5"/>
<path d="M554.92 806.8L271.49 735.8C270.98 735.672 270.451 735.646 269.931 735.722C269.411 735.799 268.912 735.977 268.461 736.247C268.01 736.517 267.617 736.873 267.303 737.294C266.99 737.716 266.763 738.196 266.635 738.705C266.507 739.215 266.481 739.744 266.557 740.264C266.634 740.784 266.812 741.283 267.082 741.734C267.352 742.185 267.708 742.578 268.129 742.892C268.551 743.205 269.03 743.432 269.54 743.56L552.98 814.56C553.306 814.65 553.642 814.694 553.98 814.69C554.966 814.708 555.923 814.36 556.669 813.715C557.414 813.07 557.895 812.172 558.019 811.194C558.143 810.215 557.902 809.226 557.341 808.415C556.78 807.604 555.939 807.029 554.98 806.8H554.92Z" fill="#18A7B5"/>
<path d="M905.16 756.84C904.264 756.145 903.13 755.834 902.005 755.974C900.88 756.115 899.857 756.696 899.16 757.59L718.24 991.45H281.74L8.87997 640.37L61.05 397.67C61.2524 396.577 61.0214 395.447 60.4058 394.521C59.7903 393.595 58.8385 392.945 57.752 392.709C56.6654 392.472 55.5295 392.668 54.5847 393.254C53.6399 393.84 52.9604 394.771 52.69 395.85L0.0999726 640.51C-0.027943 641.115 -0.0226422 641.74 0.115507 642.343C0.253656 642.946 0.521342 643.511 0.899973 644L276.27 998.35C276.669 998.863 277.18 999.279 277.764 999.565C278.348 999.851 278.99 1000 279.64 1000H720.33C720.982 1000 721.625 999.851 722.21 999.565C722.796 999.279 723.309 998.864 723.71 998.35L905.91 762.84C906.605 761.944 906.916 760.81 906.776 759.685C906.635 758.56 906.054 757.537 905.16 756.84V756.84Z" fill="#18A7B5"/>
<path d="M999.9 640.51L903.62 198.83C903.481 198.2 903.202 197.61 902.804 197.103C902.406 196.596 901.898 196.185 901.32 195.9L501.84 0.440008C501.255 0.153787 500.612 0.00500488 499.96 0.00500488C499.308 0.00500488 498.665 0.153787 498.08 0.440008L248.3 121.8C247.28 122.299 246.5 123.182 246.132 124.256C245.763 125.329 245.836 126.505 246.335 127.525C246.834 128.545 247.717 129.325 248.791 129.693C249.864 130.062 251.04 129.989 252.06 129.49L500 9.00001L895.7 202.68L991.12 640.37L943.12 700.95C942.442 701.848 942.145 702.977 942.293 704.092C942.441 705.207 943.022 706.219 943.91 706.909C944.799 707.6 945.923 707.912 947.041 707.779C948.158 707.646 949.178 707.079 949.88 706.2L999.1 644C999.479 643.511 999.746 642.946 999.884 642.343C1000.02 641.74 1000.03 641.115 999.9 640.51V640.51Z" fill="#18A7B5"/>
<path d="M217 463.21C305.16 463.21 376.89 391.49 376.89 303.33C376.89 215.17 305.2 143.44 217 143.44C128.8 143.44 57.15 215.16 57.15 303.33C57.15 391.5 128.88 463.21 217 463.21ZM217 151.44C300.75 151.44 368.89 219.57 368.89 303.33C368.89 387.09 300.79 455.21 217 455.21C133.21 455.21 65.15 387.08 65.15 303.33C65.15 219.58 133.29 151.44 217 151.44Z" fill="#18A7B5"/>
<path d="M217 417.56C239.597 417.57 261.689 410.878 280.483 398.331C299.276 385.783 313.927 367.944 322.581 347.07C331.234 326.196 333.503 303.224 329.1 281.06C324.697 258.896 313.82 238.536 297.844 222.554C281.868 206.573 261.512 195.688 239.349 191.278C217.187 186.867 194.214 189.127 173.337 197.774C152.459 206.421 134.615 221.065 122.061 239.854C109.508 258.643 102.808 280.733 102.81 303.33C102.844 333.608 114.885 362.637 136.291 384.051C157.697 405.464 186.722 417.515 217 417.56V417.56ZM217 197.09C238.014 197.08 258.56 203.303 276.037 214.97C293.515 226.638 307.14 243.227 315.189 262.639C323.237 282.051 325.348 303.414 321.255 324.026C317.161 344.638 307.047 363.572 292.191 378.435C277.335 393.298 258.405 403.422 237.795 407.525C217.185 411.628 195.821 409.527 176.405 401.488C156.989 393.448 140.394 379.831 128.718 362.359C117.042 344.887 110.81 324.344 110.81 303.33C110.839 275.171 122.035 248.173 141.941 228.257C161.848 208.341 188.841 197.132 217 197.09Z" fill="#18A7B5"/>
<path d="M157.5 308.75H196.5C197.39 308.744 198.252 308.441 198.95 307.89C199.523 311.312 201.027 314.51 203.298 317.133C205.569 319.757 208.518 321.704 211.823 322.762C215.127 323.819 218.659 323.946 222.031 323.129C225.403 322.312 228.485 320.581 230.938 318.128C233.391 315.675 235.122 312.593 235.939 309.221C236.756 305.849 236.629 302.317 235.572 299.013C234.514 295.708 232.567 292.759 229.943 290.488C227.32 288.217 224.122 286.713 220.7 286.14C221.253 285.439 221.556 284.573 221.56 283.68V223.59C221.56 222.529 221.139 221.512 220.388 220.762C219.638 220.011 218.621 219.59 217.56 219.59C216.499 219.59 215.482 220.011 214.732 220.762C213.981 221.512 213.56 222.529 213.56 223.59V283.68C213.564 284.573 213.867 285.439 214.42 286.14C210.565 286.807 207.012 288.653 204.251 291.424C201.489 294.194 199.654 297.753 199 301.61C198.302 301.059 197.44 300.756 196.55 300.75H157.55C156.489 300.75 155.472 301.171 154.722 301.922C153.971 302.672 153.55 303.689 153.55 304.75C153.55 305.811 153.971 306.828 154.722 307.578C155.472 308.329 156.489 308.75 157.55 308.75H157.5ZM217.59 293.85C219.746 293.848 221.855 294.486 223.648 295.682C225.442 296.879 226.841 298.58 227.667 300.572C228.494 302.563 228.711 304.755 228.292 306.87C227.872 308.985 226.835 310.929 225.311 312.454C223.787 313.979 221.845 315.018 219.73 315.44C217.615 315.861 215.423 315.646 213.431 314.821C211.439 313.997 209.736 312.6 208.538 310.807C207.34 309.014 206.7 306.906 206.7 304.75C206.703 301.862 207.85 299.092 209.892 297.049C211.933 295.006 214.702 293.855 217.59 293.85V293.85Z" fill="#18A7B5"/>
<path d="M285.18 310.59C286.335 310.59 287.464 310.248 288.424 309.606C289.385 308.964 290.133 308.052 290.575 306.985C291.017 305.918 291.133 304.744 290.908 303.611C290.682 302.478 290.126 301.437 289.309 300.621C288.493 299.804 287.452 299.248 286.319 299.022C285.186 298.797 284.012 298.913 282.945 299.355C281.878 299.797 280.966 300.545 280.324 301.505C279.682 302.466 279.34 303.595 279.34 304.75C279.343 306.298 279.959 307.782 281.053 308.877C282.148 309.971 283.632 310.587 285.18 310.59V310.59ZM285.18 302.59C285.607 302.59 286.025 302.717 286.38 302.954C286.735 303.191 287.012 303.529 287.176 303.923C287.339 304.318 287.382 304.752 287.298 305.171C287.215 305.59 287.009 305.975 286.707 306.277C286.405 306.579 286.02 306.785 285.601 306.869C285.182 306.952 284.748 306.909 284.353 306.746C283.959 306.582 283.621 306.305 283.384 305.95C283.147 305.595 283.02 305.177 283.02 304.75C283.02 304.177 283.248 303.628 283.653 303.223C284.058 302.818 284.607 302.59 285.18 302.59Z" fill="#18A7B5"/>
<path d="M217.59 366.49C216.435 366.49 215.306 366.833 214.345 367.474C213.385 368.116 212.637 369.028 212.195 370.095C211.753 371.162 211.637 372.336 211.862 373.469C212.088 374.602 212.644 375.643 213.46 376.46C214.277 377.276 215.318 377.832 216.451 378.058C217.584 378.283 218.758 378.167 219.825 377.725C220.892 377.283 221.804 376.535 222.446 375.575C223.087 374.614 223.43 373.485 223.43 372.33C223.427 370.782 222.811 369.298 221.717 368.203C220.622 367.109 219.138 366.493 217.59 366.49V366.49ZM217.59 374.49C217.163 374.49 216.745 374.363 216.39 374.126C216.035 373.889 215.758 373.551 215.594 373.157C215.431 372.762 215.388 372.328 215.471 371.909C215.555 371.49 215.761 371.105 216.063 370.803C216.365 370.501 216.75 370.295 217.169 370.212C217.588 370.128 218.022 370.171 218.417 370.334C218.811 370.498 219.149 370.775 219.386 371.13C219.623 371.485 219.75 371.903 219.75 372.33C219.75 372.903 219.522 373.452 219.117 373.857C218.712 374.262 218.163 374.49 217.59 374.49V374.49Z" fill="#18A7B5"/>
<path d="M607 616.65C607.978 616.657 608.925 616.305 609.662 615.661C610.398 615.016 610.873 614.124 610.996 613.154C611.119 612.183 610.882 611.201 610.33 610.393C609.778 609.585 608.949 609.008 608 608.77L322.85 537.4C322.337 537.262 321.802 537.228 321.276 537.3C320.749 537.371 320.243 537.547 319.785 537.816C319.327 538.085 318.928 538.443 318.61 538.868C318.292 539.294 318.062 539.778 317.933 540.293C317.804 540.808 317.779 541.344 317.86 541.869C317.94 542.394 318.124 542.898 318.401 543.351C318.678 543.804 319.043 544.197 319.474 544.508C319.904 544.818 320.393 545.04 320.91 545.16L606 616.53C606.327 616.61 606.663 616.651 607 616.65Z" fill="#18A7B5"/>
<path d="M600.3 637.88C601.278 637.887 602.225 637.535 602.962 636.891C603.698 636.246 604.173 635.354 604.296 634.384C604.419 633.413 604.182 632.431 603.63 631.623C603.078 630.815 602.249 630.238 601.3 630L316.2 558.63C315.687 558.492 315.152 558.458 314.626 558.53C314.099 558.601 313.593 558.777 313.135 559.046C312.677 559.315 312.278 559.673 311.96 560.098C311.642 560.524 311.412 561.008 311.283 561.523C311.154 562.038 311.129 562.574 311.21 563.099C311.29 563.624 311.474 564.128 311.751 564.581C312.028 565.034 312.393 565.427 312.824 565.738C313.254 566.048 313.743 566.27 314.26 566.39L599.36 637.76C599.667 637.837 599.983 637.877 600.3 637.88V637.88Z" fill="#18A7B5"/>
<path d="M588 680.36C588.978 680.367 589.925 680.015 590.662 679.371C591.398 678.726 591.873 677.834 591.996 676.864C592.119 675.893 591.882 674.911 591.33 674.103C590.778 673.295 589.949 672.718 589 672.48L303.9 601.11C303.39 600.982 302.861 600.956 302.341 601.032C301.821 601.109 301.322 601.287 300.871 601.557C300.42 601.827 300.027 602.183 299.713 602.604C299.4 603.026 299.173 603.506 299.045 604.015C298.917 604.525 298.89 605.054 298.967 605.574C299.044 606.094 299.222 606.593 299.492 607.044C299.762 607.495 300.118 607.888 300.539 608.202C300.961 608.515 301.44 608.742 301.95 608.87L587 680.24C587.327 680.32 587.663 680.361 588 680.36V680.36Z" fill="#18A7B5"/>
</svg>
