<svg width="1000" height="1000" viewBox="0 0 1000 1000" fill="none" xmlns="http://www.w3.org/2000/svg">
<g clip-path="url(#clip0)">
<path d="M500.21 7.87L499.96 9.04L500.21 7.87Z" fill="#18A7B5"/>
<path d="M0.900024 644.04L8.88002 640.37H8.89002H8.88002L0.900024 644.04Z" fill="#18A7B5"/>
<path d="M999.9 640.51L903.62 198.83C903.481 198.2 903.202 197.61 902.804 197.103C902.406 196.596 901.899 196.185 901.32 195.9V195.9L876.09 183.82C875.826 183.685 875.548 183.581 875.26 183.51L501.84 0.440063L500.21 7.87006L500 9.00006L874.59 192.71C874.889 192.855 875.205 192.963 875.53 193.03L895.7 202.68L991.12 640.37L718.24 991.45H281.74L280.93 992.45L281.74 991.45L245.74 945.28L314.07 935.82V969.88C314.075 969.947 314.075 970.014 314.07 970.08C314.076 970.268 314.096 970.455 314.13 970.64C314.145 970.715 314.165 970.788 314.19 970.86C314.23 971.034 314.283 971.205 314.35 971.37V971.45C314.391 971.546 314.437 971.64 314.49 971.73L314.6 971.94C314.702 972.117 314.819 972.284 314.95 972.44C315.088 972.608 315.242 972.762 315.41 972.9L315.54 973C315.66 973.099 315.787 973.189 315.92 973.27L316.13 973.39L316.51 973.56L316.74 973.65C316.88 973.7 317.03 973.73 317.19 973.77C317.236 973.776 317.283 973.776 317.33 973.77V973.77C317.543 973.785 317.757 973.785 317.97 973.77V973.77C318.195 973.767 318.419 973.743 318.64 973.7H318.86C319.034 973.66 319.205 973.607 319.37 973.54H319.5L465.26 911.25C465.461 911.157 465.654 911.05 465.84 910.93C465.891 910.903 465.938 910.869 465.98 910.83C466.138 910.728 466.285 910.61 466.42 910.48L466.52 910.39C466.674 910.229 466.818 910.059 466.95 909.88L467.03 909.74C467.13 909.589 467.22 909.432 467.3 909.27C467.3 909.21 467.35 909.16 467.37 909.1C467.461 908.894 467.531 908.68 467.58 908.46C467.586 908.414 467.586 908.367 467.58 908.32C467.61 908.209 467.631 908.095 467.64 907.98L469.56 889.42L531.1 869L532.37 886.73C532.376 886.753 532.376 886.777 532.37 886.8C532.392 887.002 532.429 887.203 532.48 887.4C532.48 887.46 532.48 887.52 532.48 887.58C532.542 887.796 532.623 888.007 532.72 888.21V888.27C532.817 888.455 532.927 888.632 533.05 888.8L533.16 888.94C533.307 889.119 533.468 889.286 533.64 889.44L533.72 889.5C533.86 889.61 534 889.7 534.14 889.79L534.32 889.9L534.44 889.97L534.57 890.02C534.768 890.108 534.972 890.182 535.18 890.24L535.41 890.3C535.68 890.355 535.954 890.385 536.23 890.39C536.482 890.388 536.733 890.361 536.98 890.31H537.16C537.404 890.258 537.642 890.181 537.87 890.08V890.08C538.036 890.009 538.196 889.925 538.35 889.83L600.28 850.32L620.73 870.83C620.918 871.019 621.126 871.186 621.35 871.33C621.481 871.413 621.618 871.487 621.76 871.55C621.85 871.606 621.944 871.656 622.04 871.7C622.195 871.763 622.356 871.814 622.52 871.85L622.79 871.93C623.031 871.974 623.275 871.997 623.52 872H623.57H624.04H624.1C624.362 871.965 624.62 871.905 624.87 871.82L625.04 871.75C625.238 871.67 625.428 871.573 625.61 871.46C625.681 871.428 625.748 871.387 625.81 871.34L625.94 871.26C626.07 871.158 626.194 871.048 626.31 870.93L626.45 870.81C626.642 870.61 626.809 870.389 626.95 870.15L640.02 848.54L705.72 830.54L743.41 819.38C743.796 819.264 744.163 819.092 744.5 818.87L769.69 801.97C770.022 801.749 770.319 801.48 770.57 801.17L785.14 783.17C785.226 783.065 785.307 782.955 785.38 782.84L800 760.67C800.416 760.024 800.637 759.273 800.637 758.505C800.637 757.737 800.416 756.986 800 756.34L794.83 748.21C794.466 747.624 793.955 747.145 793.348 746.818C792.741 746.492 792.059 746.33 791.37 746.35L783.55 746.53C782.575 746.546 781.642 746.924 780.93 747.59L755.83 770.79L733.4 780L710.88 786.25L690.18 788.14L693.68 784.74L710.8 771.2C711.426 770.704 711.889 770.032 712.13 769.27L715.88 757.5C716.101 756.807 716.128 756.067 715.96 755.36L713.56 745.3C713.413 744.677 713.118 744.099 712.7 743.614C712.283 743.128 711.755 742.75 711.162 742.511C710.568 742.272 709.925 742.179 709.288 742.24C708.651 742.3 708.038 742.513 707.5 742.86L674.28 764.29L648.57 769.52C648.114 769.608 647.677 769.778 647.28 770.02L617.9 788C617.481 788.264 617.115 788.603 616.82 789L593.94 818.83L577.55 801.83C577.362 801.635 577.155 801.461 576.93 801.31L576.72 801.19C576.56 801.1 576.4 801.01 576.23 800.93L575.97 800.83C575.806 800.776 575.639 800.733 575.47 800.7H575.19C575.001 800.68 574.809 800.68 574.62 800.7C574.56 800.695 574.5 800.695 574.44 800.7L568.21 801.04V790.25C568.21 789.64 568.069 789.038 567.801 788.49C567.532 787.942 567.141 787.463 566.658 787.09C566.176 786.716 565.614 786.458 565.016 786.335C564.419 786.212 563.801 786.228 563.21 786.38L410.75 826.65C409.947 826.854 409.227 827.302 408.69 827.932C408.152 828.563 407.824 829.345 407.75 830.17L406.18 848.32L345.32 856.55L348.44 831C348.523 830.317 348.427 829.624 348.164 828.988C347.9 828.352 347.477 827.795 346.935 827.37C346.393 826.946 345.75 826.669 345.07 826.565C344.389 826.462 343.694 826.536 343.05 826.78L246.05 863.52V732.52L307.73 720.87H307.83C307.93 720.87 308.02 720.81 308.12 720.78C308.304 720.73 308.485 720.667 308.66 720.59L308.94 720.44C309.103 720.346 309.26 720.243 309.41 720.13L309.66 719.93C309.823 719.779 309.973 719.615 310.11 719.44L310.23 719.31L347.74 667.55C348.209 666.9 348.473 666.124 348.496 665.323C348.519 664.522 348.301 663.732 347.87 663.056C347.439 662.381 346.814 661.85 346.078 661.533C345.342 661.216 344.527 661.128 343.74 661.28L238.74 682.28L191.87 661.5L191.6 661.41C191.448 661.346 191.291 661.296 191.13 661.26C190.942 661.219 190.752 661.192 190.56 661.18H190.35C190.082 661.171 189.814 661.191 189.55 661.24V661.24L61.26 683.86H61.13C61.0419 683.886 60.9551 683.916 60.87 683.95H60.77C60.6574 683.974 60.547 684.008 60.44 684.05V684.05L60.24 684.16L60.09 684.23C59.9768 684.284 59.8667 684.344 59.76 684.41V684.41C59.6855 684.465 59.6153 684.525 59.55 684.59V684.59C59.45 684.68 59.34 684.75 59.24 684.85C59.18 684.91 59.13 684.98 59.08 685.04L59.03 685.11C58.9386 685.199 58.855 685.297 58.78 685.4V685.46C58.73 685.54 58.7 685.62 58.66 685.7C58.6 685.81 58.53 685.91 58.48 686.02C58.4838 686.05 58.4838 686.08 58.48 686.11C58.48 686.22 58.41 686.33 58.38 686.44C58.35 686.55 58.3 686.66 58.28 686.77C58.26 686.88 58.28 686.83 58.28 686.86C58.28 686.89 58.28 687.1 58.28 687.22C58.28 687.34 58.28 687.45 58.28 687.56V806.56C58.28 806.56 58.28 806.67 58.28 806.73C58.28 806.79 58.28 806.99 58.28 807.12C58.2849 807.203 58.2849 807.287 58.28 807.37V807.37C58.28 807.37 58.28 807.45 58.28 807.5C58.28 807.55 58.34 807.7 58.37 807.8C58.4 807.9 58.37 807.97 58.45 808.06C58.4804 808.104 58.5072 808.151 58.53 808.2L58.66 808.46L58.8 808.71L58.91 808.86L59.08 809.07C59.1347 809.141 59.1948 809.208 59.26 809.27L59.43 809.44L59.59 809.59L59.8 809.75L60.04 809.91L60.18 810L60.48 810.15H60.6L60.74 810.2L60.9 810.26L61.26 810.36H61.37H61.51C61.7118 810.392 61.9157 810.408 62.12 810.41V810.41C62.3615 810.407 62.6023 810.383 62.84 810.34H62.96L112.96 799.47L132 932.42C132.078 932.964 132.267 933.486 132.556 933.953C132.845 934.421 133.227 934.824 133.678 935.137C134.129 935.451 134.64 935.668 135.179 935.775C135.718 935.882 136.273 935.877 136.81 935.76L242.87 912.84C243.764 912.648 244.566 912.155 245.141 911.444C245.716 910.732 246.03 909.845 246.03 908.93V872.06L339.71 836.59L328.94 925.7L237.5 938.35C236.644 938.473 235.851 938.87 235.239 939.481C234.628 940.092 234.231 940.886 234.108 941.742C233.985 942.598 234.143 943.471 234.558 944.229C234.973 944.988 235.623 945.592 236.41 945.95C236.452 946.814 236.763 947.642 237.3 948.32L276.3 998.32C276.702 998.833 277.214 999.248 277.8 999.534C278.386 999.82 279.028 999.969 279.68 999.97H720.33C720.982 999.97 721.625 999.821 722.21 999.535C722.796 999.249 723.309 998.834 723.71 998.32L999.1 644C999.479 643.511 999.746 642.946 999.884 642.343C1000.02 641.741 1000.03 641.115 999.9 640.51V640.51ZM304.65 713.27L241.27 725.27H241.21L217.21 729.8L179.11 737L161.49 740.33L177.49 719.33L188.23 705.24L192.46 699.69L239 690.36L335.2 671.08L304.65 713.27ZM189.71 669.27L225.12 685L189.43 692.15C188.478 692.343 187.628 692.876 187.04 693.65L181.89 700.4L171.15 714.49L151.07 740.81L121.51 721.64L72.66 690L189.71 669.27ZM105.77 722.91L105.52 722.97L105.13 723.07H104.99L104.76 723.18C104.647 723.227 104.537 723.281 104.43 723.34L104.28 723.4C104.21 723.4 104.15 723.51 104.08 723.55L103.79 723.78C103.744 723.807 103.701 723.837 103.66 723.87C103.6 723.87 103.55 723.99 103.49 724.05C103.405 724.139 103.325 724.232 103.25 724.33L103.15 724.44C103.092 724.518 103.042 724.602 103 724.69C102.948 724.749 102.901 724.813 102.86 724.88L66 791.31V695.16L108.27 722.58L105.77 722.91ZM69.77 800.91L104.11 739.17L111.71 791.8L69.77 800.91ZM238 905.7L139.3 927L120.14 794.38L110.88 730.28L118.4 729.17L149.81 749.54L149.92 749.6L150.07 749.69L150.22 749.77L150.5 749.89L150.67 749.96H150.8L151.13 750.04H151.32H151.38C151.563 750.05 151.747 750.05 151.93 750.04H152C152.211 750.04 152.422 750.02 152.63 749.98H152.72L180.59 744.71L218.67 737.52L238 734V868C237.665 868.893 237.665 869.877 238 870.77V905.7ZM460.29 903.53L428.8 903.09L461.46 892.21L460.29 903.53ZM572.22 808.66H573.03L580.4 816.32L588.99 825.25L589.48 825.76L591.8 828.17L594.6 831.09L602.6 839.45L601.5 840.15L598.05 842.35L594.6 844.56L556.67 868.75L567.2 856.4C567.22 856.364 567.243 856.331 567.27 856.3C567.381 856.158 567.482 856.008 567.57 855.85C567.61 855.796 567.647 855.739 567.68 855.68C567.807 855.464 567.914 855.236 568 855V854.85C568.049 854.672 568.09 854.492 568.12 854.31C568.12 854.22 568.12 854.14 568.12 854.05C568.125 853.957 568.125 853.863 568.12 853.77V808.88L572.22 808.66ZM678 771.39L707.1 752.61L707.93 756.1L704.93 765.64L688.61 778.55L688.3 778.82L676.54 790.24C675.948 790.817 675.549 791.562 675.398 792.375C675.246 793.187 675.351 794.027 675.696 794.777C676.041 795.528 676.611 796.154 677.326 796.568C678.041 796.982 678.867 797.164 679.69 797.09L712 794.15C712.24 794.127 712.477 794.084 712.71 794.02L735.81 787.61C735.96 787.569 736.107 787.519 736.25 787.46L759.62 777.93C760.064 777.749 760.471 777.488 760.82 777.16L785.34 754.49L789.34 754.4L791.91 758.45L779 778.28L764.93 795.64L740.75 811.85L703.75 822.85L636.59 841.21C635.6 841.48 634.751 842.121 634.22 843L624 859.9L612.51 838.28L612.43 838.15L612.35 838.01C612.207 837.785 612.043 837.574 611.86 837.38L599.59 824.63L622.76 794.42L650.9 777.17L676.66 771.94C677.137 771.843 677.592 771.657 678 771.39ZM607.44 845.86L607.6 846.16L607.35 845.91L607.44 845.86ZM539.66 876.43L538.94 866.43L551.87 862.13L539.66 876.43ZM415.51 833.66L560.21 795.44V850.88L537.27 858.52L465 882.62H464.95L409.66 901L413.91 852.09L415.51 833.66ZM405.51 856.48L401.18 906.33C401.12 906.879 401.175 907.434 401.34 907.96V907.96C401.34 907.96 401.34 908.05 401.34 908.09C401.617 908.869 402.128 909.542 402.803 910.018C403.478 910.495 404.284 910.75 405.11 910.75V910.75L444.92 911.31L324.92 962.61L336.29 930.61V930.53C336.34 930.35 336.38 930.17 336.42 929.99C336.46 929.81 336.42 929.86 336.42 929.79L344.26 864.79L405.51 856.48ZM322.12 946.66V934.72L326.58 934.1L322.12 946.66Z" fill="#18A7B5"/>
<path d="M501.84 0.440026C501.256 0.148633 500.612 -0.00305176 499.96 -0.00305176C499.307 -0.00305176 498.664 0.148633 498.08 0.440026L98.68 195.9C98.1015 196.185 97.5944 196.596 97.1962 197.103C96.7981 197.61 96.5191 198.2 96.38 198.83L0.0999726 640.51C-0.027943 641.115 -0.0226422 641.74 0.115507 642.343C0.253656 642.946 0.521342 643.511 0.899973 644V644L8.89997 640.33L104.3 202.68L500 9.00003L500.25 7.83003L501.84 0.440026Z" fill="#18A7B5"/>
<path d="M354.62 565.68L313 572.92C312.181 573.063 311.427 573.458 310.843 574.049C310.259 574.641 309.873 575.399 309.74 576.22L301.61 625.76C301.495 626.456 301.567 627.169 301.817 627.828C302.067 628.488 302.487 629.069 303.034 629.514C303.581 629.958 304.236 630.25 304.933 630.36C305.629 630.47 306.342 630.394 307 630.14L350.12 613.53C350.77 613.28 351.344 612.864 351.784 612.324C352.225 611.783 352.516 611.138 352.63 610.45L359.22 570.27C359.324 569.639 359.275 568.993 359.078 568.385C358.881 567.777 358.541 567.225 358.086 566.776C357.632 566.326 357.076 565.992 356.466 565.802C355.856 565.611 355.209 565.569 354.58 565.68H354.62ZM310.68 620.16L317.21 580.32L350.45 574.53L345.15 606.89L310.68 620.16Z" fill="#18A7B5"/>
<path d="M239.23 658.68C239.78 659.131 240.441 659.428 241.144 659.539C241.847 659.649 242.567 659.57 243.23 659.31L267.23 650.07C267.882 649.819 268.456 649.402 268.897 648.859C269.337 648.317 269.628 647.669 269.74 646.98L273.41 624.62C273.513 623.99 273.465 623.345 273.268 622.738C273.071 622.131 272.732 621.58 272.279 621.131C271.826 620.681 271.272 620.347 270.663 620.156C270.054 619.964 269.409 619.921 268.78 620.03L245.62 624.03C244.802 624.173 244.049 624.566 243.465 625.155C242.881 625.745 242.495 626.501 242.36 627.32L237.84 654.9C237.717 655.597 237.78 656.314 238.024 656.978C238.269 657.642 238.685 658.229 239.23 658.68ZM249.77 631.46L264.57 628.88L262.19 643.43L246.84 649.34L249.77 631.46Z" fill="#18A7B5"/>
<path d="M175.31 765.43C174.33 765.21 173.307 765.285 172.37 765.646C171.433 766.007 170.623 766.638 170.045 767.458C169.466 768.279 169.143 769.253 169.117 770.257C169.092 771.261 169.364 772.25 169.901 773.099C170.437 773.948 171.213 774.619 172.131 775.028C173.048 775.436 174.066 775.563 175.056 775.393C176.046 775.223 176.963 774.763 177.692 774.072C178.42 773.381 178.928 772.489 179.15 771.51C179.446 770.195 179.207 768.816 178.487 767.676C177.767 766.536 176.625 765.728 175.31 765.43V765.43Z" fill="#18A7B5"/>
<path d="M219.86 748.92C218.878 748.697 217.852 748.771 216.911 749.131C215.971 749.492 215.159 750.124 214.577 750.946C213.996 751.768 213.672 752.745 213.646 753.752C213.619 754.758 213.892 755.75 214.43 756.602C214.968 757.453 215.746 758.126 216.667 758.535C217.587 758.944 218.608 759.071 219.601 758.9C220.593 758.728 221.512 758.266 222.242 757.572C222.972 756.878 223.479 755.983 223.7 755C223.848 754.349 223.865 753.674 223.752 753.016C223.639 752.358 223.398 751.728 223.041 751.164C222.684 750.599 222.22 750.11 221.674 749.725C221.128 749.34 220.512 749.067 219.86 748.92V748.92Z" fill="#18A7B5"/>
<path d="M833.59 289.27L786.09 230.88C785.455 230.097 784.548 229.583 783.55 229.44L745.45 224.04L702.45 174.27C702.084 173.847 701.633 173.506 701.126 173.268C700.62 173.031 700.069 172.902 699.51 172.89L617.7 171C616.821 170.98 615.96 171.251 615.25 171.77L598.56 184L573.18 161.5C572.725 161.103 572.189 160.81 571.61 160.64L535.61 150.51C535.057 150.354 534.477 150.318 533.909 150.406C533.342 150.494 532.8 150.704 532.32 151.02L499.81 172.47L467.65 160.7C466.903 160.426 466.092 160.381 465.32 160.57L422.24 171.13C421.723 171.257 421.236 171.486 420.808 171.804C420.381 172.122 420.021 172.521 419.75 172.98L397.75 210.21L358.06 219.5C357.362 219.661 356.719 220.006 356.2 220.5L329.77 246C329.382 246.373 329.073 246.82 328.861 247.315C328.65 247.809 328.541 248.342 328.54 248.88V278.14L303.44 288.56C302.522 288.942 301.783 289.656 301.37 290.56L278.09 338.8C277.786 339.436 277.656 340.141 277.712 340.843C277.768 341.545 278.009 342.221 278.41 342.8L312.59 391.85C312.959 392.378 313.449 392.809 314.02 393.107C314.591 393.405 315.226 393.56 315.87 393.56H337.61C337.575 393.778 337.555 393.999 337.55 394.22V440.2C337.55 440.81 337.69 441.412 337.959 441.96C338.227 442.507 338.618 442.986 339.1 443.36L368 465.73C368.564 466.165 369.234 466.441 369.94 466.53L403.07 470.83L403.41 476.35C403.441 476.84 403.56 477.321 403.76 477.77L422.25 518L404 521.2C403.182 521.343 402.429 521.736 401.845 522.325C401.261 522.915 400.875 523.671 400.74 524.49L390 590.43C389.887 591.126 389.96 591.839 390.211 592.497C390.462 593.156 390.882 593.736 391.43 594.18C391.98 594.631 392.641 594.928 393.344 595.039C394.048 595.149 394.767 595.07 395.43 594.81L452.82 572.71C453.472 572.459 454.046 572.042 454.487 571.499C454.927 570.957 455.218 570.309 455.33 569.62L460.01 541.09L499.59 549.09C499.849 549.146 500.114 549.173 500.38 549.17C501.422 549.171 502.423 548.766 503.17 548.04L518.48 533.16L560.57 568.65C561.211 569.19 562.005 569.515 562.84 569.58L617.15 573.89L649.61 597.19L657.53 616.59L638.02 650.94L602 643.68C601.428 643.565 600.837 643.576 600.269 643.713C599.702 643.85 599.171 644.11 598.715 644.474C598.258 644.838 597.887 645.297 597.627 645.82C597.367 646.343 597.225 646.916 597.21 647.5L596.49 676.25C596.474 677.197 596.796 678.119 597.396 678.852C597.997 679.584 598.838 680.08 599.77 680.25L655.66 690.34C655.895 690.379 656.132 690.4 656.37 690.4C656.963 690.4 657.549 690.268 658.086 690.014C658.622 689.76 659.095 689.39 659.47 688.93L719.04 615.93C719.411 615.476 719.678 614.946 719.821 614.377C719.964 613.809 719.981 613.216 719.87 612.64L711.16 567.71L763.16 573.9H763.63C764.613 573.906 765.563 573.55 766.3 572.9L833.16 513.09C833.581 512.712 833.917 512.25 834.147 511.733C834.376 511.216 834.493 510.656 834.49 510.09V438.69L866.49 411.16C867.005 410.718 867.4 410.152 867.636 409.515C867.872 408.878 867.942 408.191 867.84 407.52L858.26 345.06C858.18 344.54 857.999 344.041 857.726 343.592C857.453 343.142 857.094 342.751 856.67 342.44L827.46 321L834.37 292.72C834.513 292.124 834.517 291.502 834.382 290.904C834.247 290.306 833.976 289.747 833.59 289.27ZM452.07 539.5L447.72 566.06L399 584.83L408.22 528.59L425.73 525.54L433.88 524.12L455.23 520.41L453.39 531.6L452.07 539.5ZM524.16 527.56L560.09 492.66L597.22 512.81C597.807 513.127 598.463 513.292 599.13 513.29C599.276 513.3 599.423 513.3 599.57 513.29L620.7 511C620.806 511.145 620.927 511.279 621.06 511.4L661 548L617.85 566L564.67 561.78L524.16 527.56ZM711.7 612.38L654.8 682.09L604.61 673L605.12 652.44L639.19 659.34C640.022 659.502 640.884 659.396 641.651 659.036C642.418 658.677 643.052 658.083 643.46 657.34L665.35 618.78C665.65 618.254 665.827 617.666 665.867 617.061C665.906 616.457 665.808 615.851 665.58 615.29L656.5 593.1C656.213 592.401 655.735 591.798 655.12 591.36L626.65 570.93L667.49 553.93L677.36 562.93C677.983 563.484 678.762 563.834 679.59 563.93L702.85 566.7L711.7 612.38ZM850.63 347.92L859.63 406.54L806.85 451.9L746.47 427.9L730.35 387.9C729.952 386.916 729.18 386.13 728.203 385.716C727.226 385.302 726.124 385.292 725.14 385.69C724.156 386.088 723.37 386.86 722.956 387.837C722.541 388.814 722.532 389.916 722.93 390.9L739.69 432.48C739.892 432.982 740.194 433.437 740.577 433.819C740.961 434.2 741.417 434.5 741.92 434.7L806.14 460.21C806.817 460.479 807.556 460.558 808.275 460.438C808.994 460.318 809.666 460.004 810.22 459.53L826.49 445.53V508.35L762.31 565.77L709.52 559.48C709.256 558.806 708.815 558.217 708.243 557.774C707.671 557.331 706.99 557.052 706.271 556.965C705.553 556.879 704.825 556.989 704.164 557.284C703.504 557.579 702.935 558.048 702.52 558.64L681.84 556.18L631.2 509.81L653.2 507.4C654.234 507.26 655.173 506.722 655.815 505.9C656.458 505.079 656.755 504.038 656.641 503.001C656.528 501.964 656.013 501.012 655.208 500.348C654.402 499.685 653.37 499.363 652.33 499.45L599.91 505.18L561.81 484.5L537.3 459.75C536.934 459.362 536.494 459.05 536.005 458.835C535.517 458.619 534.991 458.503 534.457 458.494C533.923 458.485 533.393 458.583 532.898 458.782C532.403 458.981 531.952 459.277 531.573 459.652C531.194 460.028 530.894 460.476 530.691 460.97C530.487 461.463 530.385 461.992 530.389 462.526C530.393 463.06 530.505 463.587 530.716 464.078C530.927 464.568 531.235 465.011 531.62 465.38L553.7 487.68L499 540.83L461.2 533.19L463.99 516.19C464.093 515.56 464.045 514.915 463.848 514.308C463.651 513.701 463.312 513.15 462.859 512.701C462.406 512.251 461.852 511.917 461.243 511.726C460.634 511.534 459.989 511.491 459.36 511.6L430.36 516.65L411.26 475.15L409.14 440C409.075 438.939 408.591 437.948 407.795 437.243C406.999 436.539 405.956 436.18 404.895 436.245C403.834 436.31 402.842 436.794 402.138 437.59C401.434 438.386 401.075 439.429 401.14 440.49L402.51 462.75L371.99 458.75L345.54 438.25V394.25C345.536 394.028 345.513 393.807 345.47 393.59H373.34C374.401 393.59 375.418 393.169 376.168 392.418C376.919 391.668 377.34 390.651 377.34 389.59C377.34 388.529 376.919 387.512 376.168 386.762C375.418 386.011 374.401 385.59 373.34 385.59H318L286.35 340.17L307.95 295.39L334.13 284.53L362.29 272.84C363.27 272.433 364.048 271.653 364.453 270.672C364.858 269.692 364.857 268.59 364.45 267.61C364.043 266.63 363.263 265.852 362.282 265.447C361.301 265.042 360.2 265.043 359.22 265.45L336.56 274.86V250.6L361 227L399.65 218L430.8 236.85C431.708 237.399 432.798 237.565 433.828 237.311C434.859 237.056 435.746 236.403 436.295 235.495C436.844 234.587 437.01 233.497 436.756 232.467C436.501 231.436 435.848 230.549 434.94 230L405.78 212.36L425.78 178.52L466 168.63L510.63 184.93C511.124 185.11 511.648 185.191 512.173 185.168C512.698 185.145 513.214 185.019 513.69 184.797C514.166 184.576 514.594 184.262 514.949 183.875C515.305 183.487 515.58 183.034 515.76 182.54C515.94 182.046 516.021 181.522 515.998 180.997C515.975 180.472 515.849 179.956 515.627 179.48C515.405 179.004 515.092 178.576 514.705 178.221C514.317 177.865 513.864 177.59 513.37 177.41L509.08 175.84L535.08 158.67L568.48 168.06L591.86 188.78L582.62 195.53C582.174 195.831 581.794 196.218 581.502 196.669C581.209 197.12 581.011 197.625 580.918 198.155C580.825 198.684 580.84 199.227 580.961 199.751C581.083 200.274 581.309 200.768 581.625 201.202C581.942 201.636 582.343 202.002 582.804 202.278C583.266 202.554 583.778 202.734 584.31 202.808C584.843 202.881 585.385 202.847 585.903 202.706C586.422 202.566 586.907 202.322 587.33 201.99L600.58 192.33L618.87 179L697.52 180.8L739.58 229.46L747.58 292.26C747.705 293.23 748.18 294.121 748.918 294.764C749.655 295.407 750.602 295.758 751.58 295.75C751.75 295.765 751.92 295.765 752.09 295.75C753.141 295.615 754.096 295.069 754.745 294.231C755.393 293.393 755.683 292.331 755.55 291.28L748.05 232.48L780.89 237.13L826.15 292.77L819.07 321.77L810.75 355.83C810.624 356.34 810.601 356.87 810.68 357.389C810.759 357.909 810.94 358.408 811.212 358.857C811.484 359.306 811.842 359.698 812.266 360.009C812.689 360.32 813.17 360.545 813.68 360.67C814.007 360.753 814.343 360.793 814.68 360.79C815.578 360.79 816.449 360.489 817.155 359.934C817.861 359.379 818.359 358.603 818.57 357.73L825.48 329.45L850.63 347.92Z" fill="#18A7B5"/>
<path d="M536.22 314.3C536.523 314.745 536.913 315.124 537.366 315.414C537.818 315.705 538.325 315.901 538.856 315.991C539.386 316.081 539.929 316.063 540.453 315.938C540.976 315.814 541.469 315.584 541.902 315.265C542.335 314.945 542.699 314.541 542.972 314.078C543.245 313.614 543.422 313.1 543.491 312.566C543.561 312.033 543.523 311.491 543.378 310.972C543.234 310.454 542.986 309.97 542.65 309.55L528.12 289.9C527.752 289.404 527.275 288.999 526.725 288.718C526.175 288.437 525.568 288.287 524.95 288.28L486.39 287.79C485.468 287.802 484.574 288.111 483.84 288.67L458.65 308.8C458.24 309.128 457.898 309.534 457.644 309.995C457.391 310.455 457.23 310.961 457.172 311.483C457.114 312.005 457.16 312.534 457.306 313.039C457.452 313.544 457.697 314.015 458.025 314.425C458.353 314.835 458.759 315.177 459.219 315.431C459.68 315.684 460.186 315.844 460.708 315.902C461.23 315.961 461.759 315.915 462.264 315.769C462.769 315.623 463.24 315.378 463.65 315.05L487.73 295.81L522.88 296.26L536.22 314.3Z" fill="#18A7B5"/>
<path d="M683.45 308.8L658.26 288.67C657.529 288.106 656.633 287.797 655.71 287.79L617.15 288.28C616.536 288.29 615.932 288.441 615.386 288.722C614.84 289.003 614.365 289.406 614 289.9L599.47 309.55C598.887 310.405 598.659 311.452 598.832 312.472C599.005 313.492 599.567 314.405 600.399 315.02C601.231 315.635 602.269 315.903 603.294 315.769C604.32 315.635 605.254 315.108 605.9 314.3L619.25 296.3L654.4 295.85L678.48 315.09C679.309 315.753 680.367 316.06 681.422 315.943C682.477 315.825 683.442 315.294 684.105 314.465C684.768 313.636 685.075 312.578 684.957 311.523C684.84 310.468 684.309 309.503 683.48 308.84L683.45 308.8Z" fill="#18A7B5"/>
<path d="M639.7 385.35L613.48 401.61L564.11 411.2L514 400.84L499 385.92C498.632 385.533 498.19 385.224 497.701 385.011C497.211 384.798 496.684 384.684 496.15 384.678C495.616 384.672 495.087 384.772 494.592 384.974C494.098 385.175 493.649 385.474 493.272 385.852C492.894 386.23 492.597 386.679 492.396 387.174C492.195 387.669 492.096 388.199 492.103 388.732C492.11 389.266 492.224 389.793 492.438 390.282C492.653 390.771 492.963 391.213 493.35 391.58L509.19 407.35C509.738 407.896 510.433 408.271 511.19 408.43L563.19 419.19C563.456 419.25 563.727 419.28 564 419.28C564.255 419.279 564.51 419.252 564.76 419.2L615.65 409.32C616.126 409.229 616.58 409.049 616.99 408.79L643.84 392.15C644.742 391.59 645.384 390.696 645.626 389.662C645.868 388.629 645.69 387.542 645.13 386.64C644.57 385.738 643.675 385.096 642.642 384.854C641.609 384.612 640.522 384.79 639.62 385.35H639.7Z" fill="#18A7B5"/>
<path d="M0.900024 644L27.2 677.74C27.6026 678.254 28.1172 678.67 28.7045 678.956C29.2919 679.242 29.9368 679.391 30.59 679.39C31.3908 679.391 32.1758 679.167 32.8553 678.743C33.5348 678.32 34.0815 677.714 34.4329 676.994C34.7844 676.274 34.9264 675.471 34.8428 674.674C34.7591 673.878 34.4532 673.121 33.96 672.49L8.89002 640.37L0.900024 644Z" fill="#18A7B5"/>
</g>
<defs>
<clipPath id="clip0">
<rect width="1000" height="1000" fill="white"/>
</clipPath>
</defs>
</svg>
