<svg width="1000" height="1000" viewBox="0 0 1000 1000" fill="none" xmlns="http://www.w3.org/2000/svg">
<g clip-path="url(#clip0)">
<path d="M999.9 640.51L903.62 198.83C903.481 198.2 903.202 197.61 902.804 197.103C902.406 196.596 901.899 196.185 901.32 195.9L501.84 0.440026C501.256 0.148633 500.612 -0.00305176 499.96 -0.00305176C499.307 -0.00305176 498.664 0.148633 498.08 0.440026L98.68 195.9C98.1015 196.185 97.5944 196.596 97.1962 197.103C96.7981 197.61 96.5191 198.2 96.38 198.83L0.0999726 640.51C-0.027943 641.115 -0.0226422 641.74 0.115507 642.343C0.253656 642.946 0.521342 643.511 0.899973 644L276.26 998.35C276.662 998.863 277.174 999.278 277.76 999.564C278.346 999.85 278.988 999.999 279.64 1000H720.33C720.982 1000 721.625 999.851 722.21 999.565C722.796 999.279 723.309 998.864 723.71 998.35L999.1 644C999.479 643.511 999.746 642.946 999.884 642.343C1000.02 641.74 1000.03 641.115 999.9 640.51V640.51ZM718.24 991.45H281.74L8.87997 640.37L104.3 202.68L500 9.00003L895.7 202.68L991.12 640.37L718.24 991.45Z" fill="#18A7B5"/>
<path d="M117.3 433L279 479C279.357 479.103 279.728 479.154 280.1 479.15C281.061 479.145 281.988 478.795 282.712 478.162C283.436 477.53 283.908 476.658 284.041 475.706C284.175 474.754 283.961 473.786 283.439 472.979C282.918 472.171 282.123 471.579 281.2 471.31L119.5 425.25C118.991 425.106 118.459 425.063 117.933 425.124C117.408 425.185 116.9 425.349 116.438 425.607C115.976 425.865 115.569 426.211 115.241 426.626C114.913 427.041 114.669 427.516 114.525 428.025C114.38 428.534 114.338 429.066 114.399 429.592C114.46 430.117 114.624 430.625 114.882 431.087C115.14 431.549 115.486 431.956 115.901 432.284C116.316 432.612 116.791 432.856 117.3 433V433Z" fill="#18A7B5"/>
<path d="M882.7 642.68L722.58 597.07C721.559 596.78 720.464 596.907 719.537 597.423C718.61 597.94 717.926 598.804 717.635 599.825C717.345 600.846 717.472 601.941 717.988 602.868C718.505 603.795 719.369 604.48 720.39 604.77L880.51 650.38C880.865 650.479 881.232 650.529 881.6 650.53C882.567 650.534 883.503 650.187 884.234 649.553C884.965 648.92 885.442 648.043 885.576 647.085C885.711 646.127 885.493 645.153 884.964 644.343C884.436 643.533 883.631 642.942 882.7 642.68V642.68Z" fill="#18A7B5"/>
<path d="M588.21 228.17C588.568 228.268 588.938 228.319 589.31 228.32C590.178 228.319 591.022 228.035 591.715 227.512C592.408 226.989 592.911 226.255 593.15 225.42L612.55 157.31C612.714 156.799 612.773 156.261 612.724 155.727C612.676 155.193 612.52 154.674 612.267 154.201C612.014 153.729 611.668 153.312 611.25 152.975C610.833 152.639 610.352 152.39 609.836 152.243C609.32 152.096 608.781 152.054 608.248 152.12C607.716 152.186 607.203 152.359 606.738 152.627C606.274 152.895 605.869 153.254 605.546 153.683C605.223 154.111 604.99 154.6 604.86 155.12L585.46 223.23C585.17 224.25 585.297 225.343 585.813 226.269C586.328 227.195 587.191 227.879 588.21 228.17Z" fill="#18A7B5"/>
<path d="M443.69 735.47C443.184 735.327 442.656 735.284 442.134 735.346C441.612 735.407 441.107 735.57 440.648 735.826C440.189 736.083 439.786 736.427 439.46 736.839C439.134 737.252 438.893 737.724 438.75 738.23L387.44 918.33C387.15 919.35 387.277 920.443 387.793 921.369C388.308 922.295 389.171 922.979 390.19 923.27C390.547 923.373 390.918 923.424 391.29 923.42C392.16 923.421 393.006 923.138 393.701 922.615C394.396 922.092 394.901 921.356 395.14 920.52L446.44 740.42C446.585 739.914 446.629 739.385 446.569 738.863C446.509 738.34 446.347 737.834 446.092 737.375C445.836 736.915 445.493 736.51 445.08 736.183C444.668 735.856 444.196 735.614 443.69 735.47Z" fill="#18A7B5"/>
<path d="M615.64 737.38C615.384 736.92 615.041 736.516 614.629 736.189C614.217 735.862 613.745 735.619 613.239 735.475C612.734 735.33 612.205 735.287 611.682 735.347C611.16 735.407 610.654 735.57 610.195 735.825C609.735 736.08 609.33 736.424 609.004 736.836C608.677 737.248 608.434 737.72 608.29 738.225C608.145 738.731 608.102 739.26 608.162 739.783C608.222 740.305 608.384 740.81 608.64 741.27L689.46 886.47C689.715 886.93 690.059 887.334 690.471 887.661C690.882 887.988 691.355 888.231 691.86 888.375C692.366 888.52 692.895 888.563 693.417 888.503C693.94 888.443 694.445 888.28 694.905 888.025C695.365 887.77 695.769 887.426 696.096 887.014C696.423 886.602 696.666 886.13 696.81 885.625C696.954 885.119 696.998 884.59 696.938 884.067C696.878 883.545 696.715 883.04 696.46 882.58L615.64 737.38Z" fill="#18A7B5"/>
<path d="M322.66 227.41C323.176 228.338 324.039 229.024 325.06 229.315C326.082 229.607 327.177 229.481 328.105 228.965C329.033 228.449 329.719 227.586 330.01 226.565C330.302 225.543 330.176 224.448 329.66 223.52L310.54 189.17C310.024 188.242 309.161 187.556 308.14 187.265C307.118 186.973 306.023 187.099 305.095 187.615C304.167 188.131 303.481 188.994 303.19 190.015C302.898 191.037 303.024 192.132 303.54 193.06L322.66 227.41Z" fill="#18A7B5"/>
<path d="M185.9 295.35L277.61 367.64C278.318 368.194 279.191 368.493 280.09 368.49C280.921 368.49 281.732 368.232 282.41 367.75C283.087 367.269 283.598 366.588 283.87 365.802C284.143 365.017 284.165 364.166 283.931 363.368C283.698 362.57 283.222 361.865 282.57 361.35L190.85 289.06C190.016 288.404 188.955 288.105 187.901 288.231C186.847 288.357 185.886 288.896 185.23 289.73C184.573 290.564 184.275 291.625 184.401 292.679C184.527 293.733 185.066 294.694 185.9 295.35V295.35Z" fill="#18A7B5"/>
<path d="M814.1 780.3L734.44 717.5C733.606 716.837 732.543 716.532 731.484 716.653C730.425 716.774 729.458 717.311 728.795 718.145C728.132 718.979 727.827 720.042 727.948 721.101C728.069 722.16 728.606 723.127 729.44 723.79L809.11 786.58C809.943 787.243 811.005 787.548 812.063 787.428C813.12 787.308 814.087 786.773 814.75 785.94C815.413 785.107 815.718 784.045 815.598 782.987C815.478 781.93 814.943 780.963 814.11 780.3H814.1Z" fill="#18A7B5"/>
<path d="M527.84 738.85C527.795 738.315 527.643 737.795 527.392 737.32C527.142 736.846 526.799 736.426 526.383 736.087C525.967 735.748 525.487 735.495 524.972 735.345C524.457 735.195 523.917 735.151 523.384 735.214C522.851 735.277 522.336 735.447 521.87 735.713C521.404 735.979 520.996 736.336 520.671 736.763C520.346 737.19 520.11 737.678 519.978 738.198C519.845 738.718 519.819 739.26 519.9 739.79L542.71 932.32C542.826 933.297 543.297 934.198 544.035 934.849C544.773 935.501 545.726 935.857 546.71 935.85H547.19C548.243 935.725 549.202 935.187 549.859 934.354C550.515 933.522 550.814 932.463 550.69 931.41L527.84 738.85Z" fill="#18A7B5"/>
<path d="M458.89 224.79C459.005 225.767 459.477 226.668 460.215 227.319C460.953 227.971 461.906 228.327 462.89 228.32H463.36C464.412 228.195 465.372 227.657 466.029 226.824C466.685 225.992 466.984 224.933 466.86 223.88L457.32 143.35C457.275 142.815 457.123 142.295 456.872 141.82C456.622 141.346 456.279 140.926 455.863 140.587C455.447 140.248 454.967 139.995 454.452 139.845C453.937 139.695 453.397 139.651 452.864 139.714C452.331 139.777 451.816 139.947 451.35 140.213C450.884 140.479 450.476 140.836 450.151 141.263C449.826 141.69 449.59 142.178 449.458 142.698C449.325 143.218 449.299 143.76 449.38 144.29L458.89 224.79Z" fill="#18A7B5"/>
<path d="M275.16 564.46C275.035 563.407 274.497 562.447 273.664 561.791C272.832 561.135 271.773 560.836 270.72 560.96L105.5 580.53C104.439 580.592 103.446 581.074 102.74 581.868C102.034 582.662 101.673 583.704 101.735 584.765C101.797 585.826 102.278 586.819 103.073 587.525C103.867 588.231 104.909 588.592 105.97 588.53H106.44L271.66 568.9C272.713 568.775 273.672 568.237 274.329 567.404C274.985 566.572 275.284 565.513 275.16 564.46Z" fill="#18A7B5"/>
<path d="M893.56 487.18L698.62 510.27C697.559 510.331 696.566 510.811 695.859 511.604C695.152 512.398 694.789 513.439 694.85 514.5C694.911 515.561 695.391 516.554 696.184 517.261C696.977 517.968 698.019 518.331 699.08 518.27H699.56L894.5 495.13C895.022 495.068 895.527 494.904 895.985 494.648C896.444 494.391 896.848 494.046 897.173 493.633C897.498 493.221 897.739 492.748 897.882 492.242C898.025 491.736 898.067 491.207 898.005 490.685C897.943 490.163 897.779 489.658 897.522 489.2C897.266 488.741 896.921 488.337 896.508 488.012C896.096 487.686 895.623 487.445 895.117 487.303C894.611 487.16 894.082 487.118 893.56 487.18V487.18Z" fill="#18A7B5"/>
<path d="M281.92 420.94L243.92 401.35C242.976 400.865 241.877 400.774 240.867 401.099C239.856 401.423 239.015 402.136 238.53 403.08C238.045 404.024 237.954 405.123 238.279 406.133C238.603 407.144 239.316 407.985 240.26 408.47L278.26 428.05C278.728 428.308 279.244 428.47 279.776 428.526C280.308 428.581 280.846 428.53 281.357 428.374C281.869 428.218 282.344 427.961 282.755 427.618C283.166 427.275 283.503 426.854 283.748 426.378C283.993 425.903 284.14 425.383 284.18 424.849C284.221 424.316 284.154 423.78 283.983 423.273C283.813 422.766 283.542 422.298 283.188 421.897C282.834 421.497 282.402 421.171 281.92 420.94Z" fill="#18A7B5"/>
<path d="M757.91 674.73C758.805 674.727 759.673 674.424 760.375 673.87C761.077 673.316 761.574 672.542 761.784 671.672C761.995 670.803 761.908 669.888 761.538 669.073C761.167 668.259 760.534 667.592 759.74 667.18L747.05 660.64C746.582 660.382 746.066 660.22 745.534 660.164C745.002 660.109 744.464 660.16 743.953 660.316C743.441 660.472 742.966 660.729 742.555 661.072C742.144 661.415 741.807 661.836 741.562 662.312C741.317 662.787 741.17 663.307 741.13 663.841C741.089 664.374 741.156 664.91 741.327 665.417C741.497 665.924 741.768 666.392 742.122 666.793C742.477 667.193 742.908 667.519 743.39 667.75L747.5 669.87C747.344 669.86 747.187 669.86 747.03 669.87C745.969 669.87 744.952 670.291 744.202 671.042C743.452 671.792 743.03 672.809 743.03 673.87C743.03 674.931 743.452 675.948 744.202 676.698C744.952 677.449 745.969 677.87 747.03 677.87C747.804 677.874 748.563 677.654 749.215 677.235C749.866 676.816 750.382 676.217 750.7 675.511C751.017 674.805 751.123 674.021 751.004 673.256C750.885 672.491 750.547 671.777 750.03 671.2L756.11 674.34C756.672 674.608 757.288 674.742 757.91 674.73Z" fill="#18A7B5"/>
<path d="M568.26 738.1C568.1 737.6 567.843 737.136 567.503 736.735C567.164 736.334 566.749 736.004 566.281 735.763C565.814 735.523 565.304 735.377 564.781 735.333C564.257 735.29 563.73 735.35 563.23 735.51C562.73 735.67 562.266 735.927 561.865 736.267C561.464 736.606 561.134 737.021 560.893 737.489C560.653 737.956 560.507 738.466 560.463 738.989C560.42 739.513 560.48 740.04 560.64 740.54L584.58 815.39C584.712 815.919 584.951 816.415 585.282 816.849C585.613 817.282 586.029 817.643 586.504 817.909C586.98 818.176 587.505 818.343 588.047 818.399C588.59 818.455 589.138 818.4 589.658 818.237C590.178 818.074 590.659 817.806 591.072 817.45C591.485 817.094 591.821 816.658 592.059 816.167C592.297 815.677 592.433 815.143 592.457 814.598C592.481 814.053 592.394 813.51 592.2 813L568.26 738.1Z" fill="#18A7B5"/>
<path d="M699.09 478.15C699.504 478.15 699.916 478.086 700.31 477.96L777.57 453.25C778.559 452.911 779.376 452.197 779.845 451.263C780.315 450.329 780.4 449.248 780.082 448.251C779.765 447.255 779.07 446.423 778.146 445.933C777.222 445.443 776.143 445.334 775.14 445.63L697.87 470.34C696.961 470.631 696.186 471.237 695.685 472.048C695.183 472.86 694.989 473.825 695.136 474.767C695.283 475.71 695.763 476.569 696.488 477.19C697.213 477.81 698.136 478.15 699.09 478.15V478.15Z" fill="#18A7B5"/>
<path d="M688 762.8C688.764 762.8 689.511 762.582 690.155 762.171C690.798 761.76 691.311 761.173 691.632 760.48C691.952 759.787 692.068 759.017 691.965 758.26C691.862 757.503 691.544 756.792 691.05 756.21L674.47 736.73C674.136 736.309 673.722 735.959 673.25 735.702C672.779 735.444 672.26 735.285 671.726 735.232C671.191 735.179 670.651 735.235 670.139 735.395C669.626 735.556 669.151 735.818 668.742 736.166C668.333 736.514 667.998 736.941 667.757 737.421C667.517 737.901 667.375 738.425 667.341 738.961C667.308 739.497 667.382 740.034 667.561 740.541C667.739 741.048 668.018 741.513 668.38 741.91L685 761.39C685.37 761.826 685.829 762.177 686.347 762.42C686.864 762.664 687.428 762.793 688 762.8Z" fill="#18A7B5"/>
<path d="M484.08 735.33C483.556 735.288 483.029 735.349 482.528 735.511C482.028 735.672 481.564 735.931 481.164 736.272C480.764 736.612 480.435 737.029 480.195 737.497C479.956 737.965 479.812 738.476 479.77 739L472.71 826.71C472.624 827.767 472.962 828.814 473.648 829.623C474.334 830.431 475.313 830.933 476.37 831.02H476.7C477.708 831.023 478.679 830.646 479.421 829.964C480.163 829.282 480.619 828.345 480.7 827.34L487.77 739.63C487.811 739.105 487.748 738.578 487.584 738.077C487.421 737.577 487.16 737.113 486.818 736.714C486.475 736.315 486.056 735.987 485.587 735.749C485.117 735.512 484.605 735.369 484.08 735.33Z" fill="#18A7B5"/>
<path d="M280.41 516.12L211.11 510.53C210.585 510.488 210.056 510.55 209.555 510.712C209.053 510.874 208.589 511.134 208.188 511.475C207.787 511.817 207.457 512.234 207.217 512.704C206.977 513.173 206.832 513.685 206.79 514.21C206.748 514.735 206.81 515.264 206.972 515.765C207.134 516.266 207.393 516.731 207.735 517.132C208.425 517.942 209.409 518.445 210.47 518.53L279.77 524.11H280.09C280.615 524.131 281.139 524.048 281.633 523.867C282.126 523.685 282.579 523.408 282.965 523.052C283.351 522.695 283.664 522.266 283.884 521.789C284.105 521.311 284.229 520.795 284.25 520.27C284.271 519.745 284.188 519.22 284.007 518.727C283.825 518.234 283.548 517.781 283.191 517.395C282.835 517.008 282.406 516.696 281.928 516.476C281.451 516.255 280.935 516.131 280.41 516.11V516.12Z" fill="#18A7B5"/>
<path d="M788.88 565.12H789.21C790.271 565.162 791.305 564.782 792.085 564.062C792.865 563.341 793.327 562.341 793.37 561.28C793.412 560.219 793.032 559.185 792.311 558.405C791.591 557.625 790.591 557.162 789.53 557.12L704.31 550.25C703.249 550.165 702.198 550.505 701.388 551.195C700.578 551.885 700.075 552.869 699.99 553.93C699.905 554.991 700.245 556.042 700.935 556.852C701.625 557.662 702.609 558.165 703.67 558.25L788.88 565.12Z" fill="#18A7B5"/>
<path d="M733.59 673.82C733.589 673.558 733.562 673.297 733.51 673.04C733.46 671.869 733.23 670.712 732.83 669.61L685.59 543.61V281.82C685.577 270.155 680.937 258.971 672.688 250.722C664.439 242.473 653.255 237.833 641.59 237.82H337.59C325.924 237.833 314.74 242.473 306.492 250.722C298.243 258.971 293.603 270.155 293.59 281.82V543.64L246.34 669.64C245.941 670.735 245.715 671.886 245.67 673.05C245.618 673.307 245.591 673.568 245.59 673.83V681.83C245.603 693.496 250.243 704.679 258.492 712.928C266.74 721.177 277.924 725.817 289.59 725.83H689.59C701.255 725.817 712.439 721.177 720.688 712.928C728.937 704.679 733.577 693.496 733.59 681.83V673.82ZM301.59 281.82C301.59 272.272 305.383 263.116 312.134 256.364C318.885 249.613 328.042 245.82 337.59 245.82H641.59C651.138 245.82 660.294 249.613 667.046 256.364C673.797 263.116 677.59 272.272 677.59 281.82V539.56H301.59V281.82ZM300.66 547.56H678.51L724.37 669.82H562.56C562.01 669.82 561.466 669.934 560.961 670.155C560.457 670.375 560.004 670.697 559.63 671.1L550.81 680.61H428.37L419.55 671.1C419.176 670.697 418.722 670.375 418.218 670.155C417.714 669.934 417.17 669.82 416.62 669.82H254.81L300.66 547.56ZM725.59 681.82C725.59 691.368 721.797 700.525 715.046 707.276C708.294 714.027 699.138 717.82 689.59 717.82H289.59C280.042 717.82 270.885 714.027 264.134 707.276C257.383 700.525 253.59 691.368 253.59 681.82V677.82H414.87L423.69 687.33C424.064 687.733 424.517 688.055 425.021 688.276C425.526 688.496 426.07 688.61 426.62 688.61H552.56C553.11 688.61 553.654 688.496 554.158 688.276C554.662 688.055 555.116 687.733 555.49 687.33L564.31 677.82H725.59V681.82Z" fill="#18A7B5"/>
<path d="M651.69 269.82H327.49C326.429 269.82 325.412 270.241 324.662 270.992C323.911 271.742 323.49 272.759 323.49 273.82V517C323.49 518.061 323.911 519.078 324.662 519.828C325.412 520.579 326.429 521 327.49 521H651.69C652.751 521 653.768 520.579 654.518 519.828C655.269 519.078 655.69 518.061 655.69 517V273.82C655.69 272.759 655.269 271.742 654.518 270.992C653.768 270.241 652.751 269.82 651.69 269.82ZM647.69 512.97H331.49V277.82H647.69V512.97Z" fill="#18A7B5"/>
<path d="M521.5 465.68C522.251 466.431 523.269 466.852 524.33 466.852C525.391 466.852 526.409 466.431 527.16 465.68C527.911 464.929 528.332 463.911 528.332 462.85C528.332 461.789 527.911 460.771 527.16 460.02L511.65 444.51L527.16 429C527.878 428.243 528.272 427.236 528.257 426.193C528.243 425.15 527.822 424.153 527.084 423.417C526.345 422.68 525.348 422.26 524.305 422.248C523.262 422.235 522.256 422.631 521.5 423.35L503.16 441.69C502.788 442.062 502.493 442.503 502.292 442.988C502.09 443.474 501.987 443.994 501.987 444.52C501.987 445.046 502.09 445.566 502.292 446.052C502.493 446.537 502.788 446.979 503.16 447.35L521.5 465.68Z" fill="#18A7B5"/>
<path d="M590.19 465.68C590.562 466.052 591.003 466.347 591.488 466.548C591.974 466.75 592.494 466.853 593.02 466.853C593.546 466.853 594.066 466.75 594.552 466.548C595.037 466.347 595.479 466.052 595.85 465.68L614.19 447.34C614.562 446.969 614.857 446.527 615.058 446.042C615.26 445.556 615.363 445.036 615.363 444.51C615.363 443.984 615.26 443.464 615.058 442.978C614.857 442.493 614.562 442.052 614.19 441.68L595.85 423.34C595.483 422.953 595.041 422.643 594.552 422.429C594.063 422.214 593.536 422.1 593.002 422.093C592.469 422.086 591.939 422.185 591.444 422.386C590.949 422.587 590.5 422.884 590.122 423.262C589.744 423.639 589.445 424.088 589.244 424.582C589.042 425.077 588.942 425.606 588.948 426.14C588.954 426.674 589.068 427.201 589.281 427.691C589.494 428.18 589.803 428.622 590.19 428.99L605.71 444.51L590.19 460C589.815 460.372 589.518 460.814 589.314 461.302C589.111 461.789 589.007 462.312 589.007 462.84C589.007 463.368 589.111 463.891 589.314 464.378C589.518 464.866 589.815 465.308 590.19 465.68Z" fill="#18A7B5"/>
<path d="M382.44 369.34C383.191 370.091 384.209 370.512 385.27 370.512C386.331 370.512 387.349 370.091 388.1 369.34C388.851 368.589 389.272 367.571 389.272 366.51C389.272 365.449 388.851 364.431 388.1 363.68L372.58 348.17L388.1 332.65C388.851 331.899 389.272 330.881 389.272 329.82C389.272 328.759 388.851 327.741 388.1 326.99C387.349 326.239 386.331 325.818 385.27 325.818C384.209 325.818 383.191 326.239 382.44 326.99L364.09 345.34C363.342 346.09 362.922 347.106 362.922 348.165C362.922 349.224 363.342 350.24 364.09 350.99L382.44 369.34Z" fill="#18A7B5"/>
<path d="M451.13 369.34C451.88 370.088 452.896 370.508 453.955 370.508C455.014 370.508 456.03 370.088 456.78 369.34L475.13 351C475.878 350.25 476.298 349.234 476.298 348.175C476.298 347.116 475.878 346.1 475.13 345.35L456.78 327C456.023 326.282 455.016 325.888 453.973 325.903C452.93 325.917 451.934 326.338 451.197 327.076C450.46 327.815 450.04 328.812 450.028 329.855C450.015 330.898 450.411 331.904 451.13 332.66L466.64 348.18L451.13 363.69C450.382 364.44 449.962 365.456 449.962 366.515C449.962 367.574 450.382 368.59 451.13 369.34V369.34Z" fill="#18A7B5"/>
<path d="M544.89 473C545.447 473.273 546.059 473.417 546.68 473.42C547.423 473.421 548.152 473.214 548.784 472.824C549.416 472.433 549.927 471.875 550.26 471.21L574.26 423.21C574.495 422.74 574.635 422.228 574.672 421.704C574.71 421.179 574.643 420.653 574.477 420.154C574.311 419.656 574.048 419.195 573.704 418.798C573.359 418.4 572.94 418.075 572.47 417.84C572 417.605 571.488 417.465 570.964 417.428C570.439 417.39 569.913 417.457 569.414 417.623C568.916 417.789 568.455 418.052 568.057 418.396C567.66 418.741 567.335 419.16 567.1 419.63L543.1 467.63C542.865 468.1 542.724 468.612 542.687 469.136C542.649 469.661 542.716 470.187 542.882 470.686C543.048 471.185 543.311 471.646 543.656 472.043C544 472.44 544.42 472.765 544.89 473Z" fill="#18A7B5"/>
<path d="M562.67 352.17H566.67V372.17C566.67 373.231 567.091 374.248 567.841 374.998C568.592 375.749 569.609 376.17 570.67 376.17C571.731 376.17 572.748 375.749 573.498 374.998C574.248 374.248 574.67 373.231 574.67 372.17V348.17C574.67 347.109 574.248 346.092 573.498 345.342C572.748 344.591 571.731 344.17 570.67 344.17H562.67C561.609 344.17 560.592 344.591 559.841 345.342C559.091 346.092 558.67 347.109 558.67 348.17C558.67 349.231 559.091 350.248 559.841 350.998C560.592 351.749 561.609 352.17 562.67 352.17Z" fill="#18A7B5"/>
<path d="M566.67 327.44C567.731 327.44 568.748 327.019 569.498 326.268C570.248 325.518 570.67 324.501 570.67 323.44V321.44C570.67 320.379 570.248 319.362 569.498 318.612C568.748 317.861 567.731 317.44 566.67 317.44C565.609 317.44 564.592 317.861 563.841 318.612C563.091 319.362 562.67 320.379 562.67 321.44V323.44C562.67 324.501 563.091 325.518 563.841 326.268C564.592 327.019 565.609 327.44 566.67 327.44Z" fill="#18A7B5"/>
<path d="M376.1 457.85C375.039 457.85 374.022 458.271 373.272 459.022C372.522 459.772 372.1 460.789 372.1 461.85V463.85C372.1 464.911 372.522 465.928 373.272 466.678C374.022 467.429 375.039 467.85 376.1 467.85C377.161 467.85 378.178 467.429 378.929 466.678C379.679 465.928 380.1 464.911 380.1 463.85V461.85C380.1 460.789 379.679 459.772 378.929 459.022C378.178 458.271 377.161 457.85 376.1 457.85Z" fill="#18A7B5"/>
<path d="M413.47 467.85C414.531 467.85 415.548 467.429 416.298 466.678C417.049 465.928 417.47 464.911 417.47 463.85V461.85C417.47 460.789 417.049 459.772 416.298 459.022C415.548 458.271 414.531 457.85 413.47 457.85C412.409 457.85 411.392 458.271 410.642 459.022C409.891 459.772 409.47 460.789 409.47 461.85V463.85C409.47 464.911 409.891 465.928 410.642 466.678C411.392 467.429 412.409 467.85 413.47 467.85Z" fill="#18A7B5"/>
<path d="M450.85 467.85C451.911 467.85 452.928 467.429 453.679 466.678C454.429 465.928 454.85 464.911 454.85 463.85V461.85C454.85 460.789 454.429 459.772 453.679 459.022C452.928 458.271 451.911 457.85 450.85 457.85C449.789 457.85 448.772 458.271 448.022 459.022C447.272 459.772 446.85 460.789 446.85 461.85V463.85C446.85 464.911 447.272 465.928 448.022 466.678C448.772 467.429 449.789 467.85 450.85 467.85Z" fill="#18A7B5"/>
<path d="M303.59 644.69H335.59C336.651 644.69 337.668 644.269 338.418 643.518C339.168 642.768 339.59 641.751 339.59 640.69C339.59 639.629 339.168 638.612 338.418 637.862C337.668 637.111 336.651 636.69 335.59 636.69H303.59C302.529 636.69 301.512 637.111 300.761 637.862C300.011 638.612 299.59 639.629 299.59 640.69C299.59 641.751 300.011 642.768 300.761 643.518C301.512 644.269 302.529 644.69 303.59 644.69Z" fill="#18A7B5"/>
<path d="M391.59 636.69H359.59C358.529 636.69 357.512 637.111 356.761 637.862C356.011 638.612 355.59 639.629 355.59 640.69C355.59 641.751 356.011 642.768 356.761 643.518C357.512 644.269 358.529 644.69 359.59 644.69H391.59C392.651 644.69 393.668 644.269 394.418 643.518C395.168 642.768 395.59 641.751 395.59 640.69C395.59 639.629 395.168 638.612 394.418 637.862C393.668 637.111 392.651 636.69 391.59 636.69Z" fill="#18A7B5"/>
<path d="M559.59 636.69H415.59C414.529 636.69 413.512 637.111 412.761 637.862C412.011 638.612 411.59 639.629 411.59 640.69C411.59 641.751 412.011 642.768 412.761 643.518C413.512 644.269 414.529 644.69 415.59 644.69H559.59C560.651 644.69 561.668 644.269 562.418 643.518C563.168 642.768 563.59 641.751 563.59 640.69C563.59 639.629 563.168 638.612 562.418 637.862C561.668 637.111 560.651 636.69 559.59 636.69Z" fill="#18A7B5"/>
<path d="M615.59 636.69H583.59C582.529 636.69 581.512 637.111 580.762 637.862C580.012 638.612 579.59 639.629 579.59 640.69C579.59 641.751 580.012 642.768 580.762 643.518C581.512 644.269 582.529 644.69 583.59 644.69H615.59C616.651 644.69 617.668 644.269 618.419 643.518C619.169 642.768 619.59 641.751 619.59 640.69C619.59 639.629 619.169 638.612 618.419 637.862C617.668 637.111 616.651 636.69 615.59 636.69Z" fill="#18A7B5"/>
<path d="M635.59 640.69C635.59 641.751 636.012 642.768 636.762 643.518C637.512 644.269 638.529 644.69 639.59 644.69H671.59C672.651 644.69 673.668 644.269 674.419 643.518C675.169 642.768 675.59 641.751 675.59 640.69C675.59 639.629 675.169 638.612 674.419 637.862C673.668 637.111 672.651 636.69 671.59 636.69H639.59C638.529 636.69 637.512 637.111 636.762 637.862C636.012 638.612 635.59 639.629 635.59 640.69Z" fill="#18A7B5"/>
<path d="M311.59 612.69H359.59C360.651 612.69 361.668 612.269 362.418 611.518C363.168 610.768 363.59 609.751 363.59 608.69C363.59 607.629 363.168 606.612 362.418 605.862C361.668 605.111 360.651 604.69 359.59 604.69H311.59C310.529 604.69 309.512 605.111 308.761 605.862C308.011 606.612 307.59 607.629 307.59 608.69C307.59 609.751 308.011 610.768 308.761 611.518C309.512 612.269 310.529 612.69 311.59 612.69Z" fill="#18A7B5"/>
<path d="M383.59 612.69H415.59C416.651 612.69 417.668 612.269 418.418 611.518C419.168 610.768 419.59 609.751 419.59 608.69C419.59 607.629 419.168 606.612 418.418 605.862C417.668 605.111 416.651 604.69 415.59 604.69H383.59C382.529 604.69 381.512 605.111 380.761 605.862C380.011 606.612 379.59 607.629 379.59 608.69C379.59 609.751 380.011 610.768 380.761 611.518C381.512 612.269 382.529 612.69 383.59 612.69Z" fill="#18A7B5"/>
<path d="M439.59 612.69H471.59C472.651 612.69 473.668 612.269 474.418 611.518C475.168 610.768 475.59 609.751 475.59 608.69C475.59 607.629 475.168 606.612 474.418 605.862C473.668 605.111 472.651 604.69 471.59 604.69H439.59C438.529 604.69 437.512 605.111 436.761 605.862C436.011 606.612 435.59 607.629 435.59 608.69C435.59 609.751 436.011 610.768 436.761 611.518C437.512 612.269 438.529 612.69 439.59 612.69Z" fill="#18A7B5"/>
<path d="M495.59 612.69H527.59C528.651 612.69 529.668 612.269 530.418 611.518C531.168 610.768 531.59 609.751 531.59 608.69C531.59 607.629 531.168 606.612 530.418 605.862C529.668 605.111 528.651 604.69 527.59 604.69H495.59C494.529 604.69 493.512 605.111 492.761 605.862C492.011 606.612 491.59 607.629 491.59 608.69C491.59 609.751 492.011 610.768 492.761 611.518C493.512 612.269 494.529 612.69 495.59 612.69V612.69Z" fill="#18A7B5"/>
<path d="M551.59 612.69H583.59C584.651 612.69 585.668 612.269 586.419 611.518C587.169 610.768 587.59 609.751 587.59 608.69C587.59 607.629 587.169 606.612 586.419 605.862C585.668 605.111 584.651 604.69 583.59 604.69H551.59C550.529 604.69 549.512 605.111 548.762 605.862C548.012 606.612 547.59 607.629 547.59 608.69C547.59 609.751 548.012 610.768 548.762 611.518C549.512 612.269 550.529 612.69 551.59 612.69Z" fill="#18A7B5"/>
<path d="M607.59 612.69H663.59C664.651 612.69 665.668 612.269 666.419 611.518C667.169 610.768 667.59 609.751 667.59 608.69C667.59 607.629 667.169 606.612 666.419 605.862C665.668 605.111 664.651 604.69 663.59 604.69H607.59C606.529 604.69 605.512 605.111 604.762 605.862C604.012 606.612 603.59 607.629 603.59 608.69C603.59 609.751 604.012 610.768 604.762 611.518C605.512 612.269 606.529 612.69 607.59 612.69Z" fill="#18A7B5"/>
<path d="M359.59 580.69H375.59C376.651 580.69 377.668 580.269 378.418 579.518C379.168 578.768 379.59 577.751 379.59 576.69C379.59 575.629 379.168 574.612 378.418 573.862C377.668 573.111 376.651 572.69 375.59 572.69H359.59C358.529 572.69 357.512 573.111 356.761 573.862C356.011 574.612 355.59 575.629 355.59 576.69C355.59 577.751 356.011 578.768 356.761 579.518C357.512 580.269 358.529 580.69 359.59 580.69Z" fill="#18A7B5"/>
<path d="M327.59 580.69H343.59C344.651 580.69 345.668 580.269 346.418 579.518C347.168 578.768 347.59 577.751 347.59 576.69C347.59 575.629 347.168 574.612 346.418 573.862C345.668 573.111 344.651 572.69 343.59 572.69H327.59C326.529 572.69 325.512 573.111 324.761 573.862C324.011 574.612 323.59 575.629 323.59 576.69C323.59 577.751 324.011 578.768 324.761 579.518C325.512 580.269 326.529 580.69 327.59 580.69Z" fill="#18A7B5"/>
<path d="M399.59 580.69H431.59C432.651 580.69 433.668 580.269 434.418 579.518C435.168 578.768 435.59 577.751 435.59 576.69C435.59 575.629 435.168 574.612 434.418 573.862C433.668 573.111 432.651 572.69 431.59 572.69H399.59C398.529 572.69 397.512 573.111 396.761 573.862C396.011 574.612 395.59 575.629 395.59 576.69C395.59 577.751 396.011 578.768 396.761 579.518C397.512 580.269 398.529 580.69 399.59 580.69Z" fill="#18A7B5"/>
<path d="M455.59 580.69H487.59C488.651 580.69 489.668 580.269 490.418 579.518C491.168 578.768 491.59 577.751 491.59 576.69C491.59 575.629 491.168 574.612 490.418 573.862C489.668 573.111 488.651 572.69 487.59 572.69H455.59C454.529 572.69 453.512 573.111 452.761 573.862C452.011 574.612 451.59 575.629 451.59 576.69C451.59 577.751 452.011 578.768 452.761 579.518C453.512 580.269 454.529 580.69 455.59 580.69Z" fill="#18A7B5"/>
<path d="M511.59 580.69H543.59C544.651 580.69 545.668 580.269 546.418 579.518C547.168 578.768 547.59 577.751 547.59 576.69C547.59 575.629 547.168 574.612 546.418 573.862C545.668 573.111 544.651 572.69 543.59 572.69H511.59C510.529 572.69 509.512 573.111 508.761 573.862C508.011 574.612 507.59 575.629 507.59 576.69C507.59 577.751 508.011 578.768 508.761 579.518C509.512 580.269 510.529 580.69 511.59 580.69V580.69Z" fill="#18A7B5"/>
<path d="M567.59 580.69H599.59C600.651 580.69 601.668 580.269 602.419 579.518C603.169 578.768 603.59 577.751 603.59 576.69C603.59 575.629 603.169 574.612 602.419 573.862C601.668 573.111 600.651 572.69 599.59 572.69H567.59C566.529 572.69 565.512 573.111 564.762 573.862C564.012 574.612 563.59 575.629 563.59 576.69C563.59 577.751 564.012 578.768 564.762 579.518C565.512 580.269 566.529 580.69 567.59 580.69Z" fill="#18A7B5"/>
<path d="M623.59 580.69H655.59C656.651 580.69 657.668 580.269 658.419 579.518C659.169 578.768 659.59 577.751 659.59 576.69C659.59 575.629 659.169 574.612 658.419 573.862C657.668 573.111 656.651 572.69 655.59 572.69H623.59C622.529 572.69 621.512 573.111 620.762 573.862C620.012 574.612 619.59 575.629 619.59 576.69C619.59 577.751 620.012 578.768 620.762 579.518C621.512 580.269 622.529 580.69 623.59 580.69Z" fill="#18A7B5"/>
</g>
<defs>
<clipPath id="clip0">
<rect width="1000" height="1000" fill="white"/>
</clipPath>
</defs>
</svg>
