<svg width="1000" height="1000" viewBox="0 0 1000 1000" fill="none" xmlns="http://www.w3.org/2000/svg">
<g clip-path="url(#clip0)">
<path d="M172.84 734.81C173.012 735.023 173.203 735.221 173.41 735.4L173.57 735.52C173.772 735.679 173.99 735.816 174.22 735.93V735.93C174.461 736.045 174.712 736.135 174.97 736.2H175.18H175.4L196.32 739.13L214.74 876.32C214.869 877.287 215.347 878.173 216.084 878.812C216.82 879.451 217.765 879.799 218.74 879.79C218.92 879.805 219.101 879.805 219.28 879.79C220.33 879.648 221.281 879.096 221.924 878.254C222.567 877.413 222.85 876.35 222.71 875.3L204.58 740.3L271.58 749.67C271.767 749.685 271.954 749.685 272.14 749.67C273.167 749.671 274.156 749.277 274.9 748.57C275.337 748.153 275.674 747.641 275.886 747.075C276.097 746.509 276.177 745.902 276.12 745.3L257.59 546.88L338.68 548.35H338.75C339.278 548.35 339.801 548.246 340.288 548.044C340.776 547.841 341.218 547.544 341.59 547.17L445.13 443.27C445.665 442.73 446.035 442.048 446.197 441.305C446.358 440.562 446.305 439.789 446.042 439.075C445.78 438.361 445.32 437.737 444.715 437.276C444.111 436.815 443.388 436.535 442.63 436.47L282.63 422.97C282.012 422.919 281.39 423.012 280.813 423.243C280.237 423.474 279.723 423.836 279.31 424.3L243.6 464.49L33.9303 393.23H33.8603L33.4603 393.14L33.2103 393.08H32.8003H32.5603C32.3957 393.081 32.2317 393.098 32.0703 393.13H31.9103C31.6954 393.171 31.4846 393.232 31.2803 393.31L31.0103 393.43C30.9009 393.474 30.794 393.524 30.6903 393.58V393.58C30.5878 393.634 30.4906 393.698 30.4003 393.77C30.3098 393.824 30.2229 393.884 30.1403 393.95L29.9703 394.1C29.8603 394.2 29.7603 394.29 29.6603 394.4L29.5203 394.59C29.4303 394.7 29.3403 394.81 29.2603 394.93V394.98C29.2603 395.04 29.2003 395.11 29.1603 395.17C29.0976 395.284 29.0409 395.401 28.9903 395.52C28.9903 395.61 28.9203 395.71 28.8903 395.8C28.8465 395.91 28.813 396.024 28.7903 396.14C28.7903 396.24 28.7903 396.34 28.7303 396.44C28.6703 396.54 28.7303 396.67 28.7303 396.78C28.7303 396.89 28.7303 396.99 28.7303 397.09C28.7303 397.19 28.7303 397.32 28.7303 397.43C28.7413 397.537 28.758 397.644 28.7803 397.75C28.7754 397.817 28.7754 397.883 28.7803 397.95L79.9203 624.26C79.9937 625.27 80.4473 626.214 81.1896 626.903C81.932 627.591 82.9078 627.973 83.9203 627.97C84.1213 627.968 84.3218 627.952 84.5203 627.92H84.7903H84.8603L144.15 613.63C144.697 613.498 145.209 613.249 145.65 612.9L157.15 665.23L123.56 659.35L122.99 659.29H122.84C122.704 659.28 122.567 659.28 122.43 659.29H122.25L121.87 659.37H121.7L121.32 659.51L121.18 659.57C121.014 659.645 120.854 659.732 120.7 659.83V659.83C120.542 659.932 120.392 660.046 120.25 660.17L120.12 660.29L119.92 660.49L119.86 660.56L119.73 660.73C119.649 660.824 119.575 660.924 119.51 661.03L119.45 661.12V661.2C119.383 661.309 119.322 661.423 119.27 661.54C119.27 661.6 119.27 661.65 119.2 661.71C119.132 661.868 119.078 662.032 119.04 662.2C119.04 662.2 119.04 662.2 119.04 662.2C119 662.375 118.97 662.552 118.95 662.73C118.955 662.793 118.955 662.857 118.95 662.92C118.95 663.04 118.95 663.16 118.95 663.28C118.95 663.4 118.95 663.42 118.95 663.49C118.95 663.56 118.95 663.71 118.95 663.82C118.945 663.897 118.945 663.973 118.95 664.05C118.946 664.09 118.946 664.13 118.95 664.17L176.29 879C176.511 879.857 177.01 880.616 177.709 881.158C178.407 881.701 179.266 881.997 180.15 882C180.488 881.994 180.824 881.947 181.15 881.86C181.666 881.727 182.15 881.492 182.574 881.169C182.998 880.846 183.354 880.442 183.619 879.98C183.885 879.518 184.055 879.007 184.12 878.478C184.186 877.949 184.145 877.413 184 876.9L131.87 681.53L172.82 734.79L172.84 734.81ZM283.91 431.11L433.4 443.71L337.12 540.32L189.38 537.65L247.82 471.78L283.91 431.11ZM237.84 471L180.41 535.7L124.08 480.7L48.0803 406.47L237.84 471ZM39.5203 409.33L116.86 484.83L84.2503 607.14L39.5203 409.33ZM142.26 605.79L89.5503 618.49L121 500.55L144.08 605.8C143.483 605.652 142.859 605.648 142.26 605.79ZM128.1 495.79L177.83 544.34C177.996 544.5 178.177 544.644 178.37 544.77H178.44C178.614 544.879 178.794 544.975 178.98 545.06L179.17 545.13C179.34 545.191 179.514 545.241 179.69 545.28H179.85C180.064 545.324 180.282 545.347 180.5 545.35L249.5 546.6L267.69 741L179.3 728.77L166.22 669.26L128.1 495.79ZM132.29 668.92L158.99 673.6L168.24 715.68L132.29 668.92Z" fill="#18A7B5"/>
<path d="M8.89015 640.37L36.7702 513.09C36.9096 512.534 36.9358 511.955 36.8474 511.389C36.7589 510.823 36.5576 510.28 36.2553 509.792C35.953 509.305 35.5559 508.884 35.0876 508.553C34.6192 508.222 34.0893 507.989 33.5291 507.867C32.9689 507.745 32.3899 507.737 31.8265 507.843C31.263 507.949 30.7267 508.168 30.2492 508.485C29.7718 508.802 29.363 509.212 29.047 509.691C28.7311 510.169 28.5145 510.706 28.4102 511.27L0.100152 640.5C-0.0279192 641.107 -0.0227103 641.734 0.115418 642.338C0.253546 642.942 0.521297 643.509 0.900152 644L136.42 818.42C136.766 818.864 137.195 819.235 137.684 819.513C138.173 819.791 138.712 819.97 139.27 820.04C139.828 820.109 140.394 820.068 140.936 819.919C141.479 819.77 141.986 819.515 142.43 819.17C142.874 818.825 143.246 818.395 143.523 817.906C143.801 817.417 143.98 816.878 144.05 816.32C144.12 815.762 144.079 815.196 143.929 814.654C143.78 814.111 143.526 813.604 143.18 813.16L8.89015 640.37Z" fill="#18A7B5"/>
<path d="M999.9 640.51L933.44 335.73C933.336 335.166 933.119 334.629 932.803 334.151C932.487 333.672 932.078 333.262 931.601 332.945C931.123 332.628 930.587 332.409 930.024 332.303C929.46 332.197 928.881 332.205 928.321 332.327C927.761 332.449 927.231 332.682 926.763 333.013C926.294 333.344 925.897 333.765 925.595 334.253C925.293 334.74 925.091 335.283 925.003 335.849C924.914 336.415 924.941 336.994 925.08 337.55L991.08 640.37L878.26 785.57C878.11 785.707 877.97 785.854 877.84 786.01L718.24 991.45H281.74L210.62 899.94C210.286 899.468 209.86 899.069 209.367 898.766C208.874 898.463 208.325 898.264 207.753 898.179C207.181 898.094 206.598 898.126 206.038 898.273C205.479 898.421 204.955 898.679 204.499 899.034C204.043 899.389 203.663 899.833 203.383 900.339C203.102 900.845 202.928 901.402 202.869 901.978C202.81 902.553 202.868 903.134 203.041 903.686C203.213 904.238 203.495 904.75 203.87 905.19L276.26 998.35C276.661 998.864 277.174 999.279 277.76 999.565C278.345 999.851 278.988 1000 279.64 1000H720.33C720.982 1000 721.625 999.851 722.21 999.565C722.796 999.279 723.309 998.864 723.71 998.35L859.71 823.35C859.817 823.254 859.918 823.151 860.01 823.04L999.1 644C999.479 643.511 999.746 642.946 999.884 642.343C1000.02 641.74 1000.03 641.115 999.9 640.51V640.51Z" fill="#18A7B5"/>
<path d="M434.41 707.54C432.154 701.755 428.233 696.769 423.142 693.213C418.051 689.658 412.02 687.693 405.812 687.566C399.604 687.44 393.498 689.158 388.267 692.504C383.036 695.849 378.915 700.672 376.426 706.36C373.937 712.049 373.191 718.348 374.283 724.461C375.376 730.573 378.257 736.224 382.563 740.699C386.868 745.173 392.405 748.269 398.471 749.596C404.537 750.922 410.86 750.419 416.64 748.15C424.376 745.114 430.591 739.133 433.922 731.519C437.254 723.906 437.429 715.282 434.41 707.54V707.54ZM395.86 740.34C390.914 738.174 386.872 734.359 384.423 729.546C381.974 724.734 381.27 719.221 382.429 713.947C383.589 708.673 386.542 703.965 390.784 700.624C395.027 697.283 400.296 695.517 405.695 695.626C411.094 695.735 416.288 697.712 420.392 701.221C424.496 704.73 427.257 709.554 428.203 714.87C429.15 720.186 428.224 725.666 425.583 730.376C422.942 735.086 418.749 738.735 413.72 740.7C410.867 741.822 407.819 742.367 404.754 742.305C401.689 742.244 398.666 741.576 395.86 740.34V740.34Z" fill="#18A7B5"/>
<path d="M470 736.14C472.111 736.088 474.116 735.202 475.577 733.677C477.039 732.153 477.838 730.112 477.8 728L477.29 706.59C477.24 704.501 476.376 702.515 474.881 701.056C473.386 699.596 471.379 698.779 469.29 698.78H469.1L461.66 698.96C461.45 698.36 461.23 697.76 461 697.18C460.77 696.6 460.54 696.02 460.29 695.44L465.87 690.53C467.462 689.128 468.433 687.151 468.568 685.034C468.703 682.917 467.991 680.833 466.59 679.24L452.44 663.16C451.038 661.567 449.061 660.597 446.944 660.462C444.827 660.327 442.743 661.038 441.15 662.44L435.55 667.37C434.47 666.74 433.37 666.14 432.25 665.58L433.37 658.2C433.688 656.104 433.162 653.967 431.905 652.258C430.649 650.55 428.766 649.411 426.67 649.09L405.49 645.87C405.089 645.81 404.685 645.78 404.28 645.78C402.368 645.782 400.52 646.469 399.07 647.717C397.621 648.964 396.667 650.689 396.38 652.58L395.27 659.93C394.02 660.14 392.79 660.38 391.56 660.67L387.7 654.32C387.153 653.422 386.435 652.641 385.586 652.02C384.738 651.4 383.775 650.953 382.753 650.705C381.732 650.457 380.671 650.413 379.633 650.575C378.594 650.737 377.597 651.103 376.7 651.65L358.42 662.8C357.522 663.347 356.74 664.065 356.12 664.914C355.5 665.762 355.053 666.725 354.805 667.747C354.557 668.768 354.513 669.829 354.675 670.867C354.837 671.906 355.202 672.903 355.75 673.8L359.62 680.16C358.81 681.16 358.02 682.1 357.27 683.1L350.27 680.72C349.445 680.443 348.58 680.301 347.71 680.3C346.035 680.301 344.402 680.827 343.042 681.805C341.683 682.782 340.664 684.162 340.13 685.75L333.25 706C332.573 708.006 332.719 710.199 333.656 712.098C334.594 713.997 336.245 715.447 338.25 716.13L345.25 718.51C345.25 719.77 345.25 721.03 345.34 722.28L338.48 725C336.504 725.772 334.916 727.297 334.065 729.24C333.214 731.183 333.169 733.384 333.94 735.36L341.74 755.31C342.325 756.809 343.35 758.097 344.679 759.005C346.008 759.914 347.58 760.4 349.19 760.4C350.185 760.397 351.172 760.21 352.1 759.85L359.03 757.14C359.83 758.14 360.66 759.05 361.52 759.97L358 766.46C356.984 768.321 356.749 770.509 357.345 772.543C357.941 774.577 359.32 776.292 361.18 777.31L379.97 787.58C380.892 788.085 381.904 788.402 382.949 788.516C383.993 788.629 385.05 788.535 386.059 788.24C387.067 787.944 388.008 787.453 388.826 786.795C389.645 786.136 390.326 785.322 390.83 784.4L394.4 777.86C395.64 778.093 396.88 778.283 398.12 778.43L399.59 785.73C399.954 787.539 400.933 789.166 402.36 790.336C403.787 791.506 405.575 792.147 407.42 792.15C407.95 792.154 408.48 792.104 409 792L430 787.79C431.03 787.583 432.01 787.176 432.882 786.59C433.755 786.005 434.504 785.254 435.086 784.379C435.669 783.504 436.073 782.523 436.276 781.492C436.479 780.461 436.477 779.4 436.27 778.37L434.8 771.08C435.9 770.46 436.97 769.81 438.02 769.08L443.83 773.72C445.249 774.854 447.013 775.471 448.83 775.47C449.126 775.485 449.423 775.485 449.72 775.47C450.767 775.348 451.779 775.02 452.699 774.505C453.619 773.99 454.428 773.298 455.08 772.47L468.45 755.74C469.774 754.083 470.386 751.969 470.151 749.861C469.917 747.754 468.855 745.825 467.2 744.5L461.38 739.84C461.81 738.67 462.21 737.48 462.58 736.28L470 736.14ZM462.17 750.78L448.79 767.5L438.21 759C434.427 762.114 430.222 764.676 425.72 766.61L428.39 779.9L407.39 784.11L404.72 770.82C399.826 770.772 394.964 770.028 390.28 768.61L383.77 780.52L365 770.29L371.5 758.39C367.77 755.202 364.514 751.498 361.83 747.39L349.21 752.33L341.41 732.33L354 727.49C353.192 722.657 353.081 717.734 353.67 712.87L340.82 708.53L347.66 688.24L360.52 692.58C363.01 688.365 366.076 684.517 369.63 681.15L362.58 669.58L380.86 658.44L387.93 670C392.546 668.366 397.371 667.396 402.26 667.12L404.26 653.72L425.47 657L423.47 670.42C428.048 672.145 432.363 674.501 436.29 677.42L446.48 668.42L460.63 684.49L450.46 693.49C451.66 695.62 452.709 697.833 453.6 700.11C454.495 702.387 455.224 704.727 455.78 707.11L469.34 706.79L469.85 728.2L456.28 728.52C455.372 733.325 453.796 737.98 451.6 742.35L462.17 750.78Z" fill="#18A7B5"/>
<path d="M580.52 589.87C580.342 579.737 576.194 570.078 568.968 562.972C561.742 555.865 552.015 551.879 541.88 551.87H541.22C531.065 552.094 521.405 556.308 514.332 563.599C507.259 570.89 503.341 580.673 503.425 590.831C503.509 600.989 507.589 610.705 514.782 617.878C521.975 625.051 531.702 629.104 541.86 629.16H542.55C552.802 628.984 562.563 624.744 569.689 617.372C576.815 610.001 580.722 600.101 580.55 589.85L580.52 589.87ZM520.6 612.57C516.243 608.36 513.232 602.953 511.947 597.032C510.663 591.111 511.162 584.942 513.383 579.304C515.604 573.667 519.446 568.815 524.424 565.361C529.402 561.907 535.292 560.007 541.35 559.9H541.88C550.007 559.83 557.828 562.99 563.624 568.687C569.42 574.383 572.715 582.149 572.785 590.275C572.856 598.401 569.695 606.223 563.998 612.018C558.302 617.814 550.537 621.11 542.41 621.18C538.385 621.266 534.383 620.549 530.638 619.071C526.894 617.593 523.481 615.383 520.6 612.57V612.57Z" fill="#18A7B5"/>
<path d="M552.14 663.58C554.69 663.22 557.22 662.73 559.72 662.11L565.37 671.52C565.911 672.424 566.625 673.212 567.471 673.839C568.317 674.466 569.279 674.92 570.301 675.175C571.323 675.429 572.385 675.479 573.427 675.323C574.468 675.166 575.468 674.805 576.37 674.26L599.63 660.26C600.534 659.719 601.322 659.005 601.949 658.159C602.576 657.313 603.03 656.351 603.284 655.329C603.539 654.307 603.589 653.245 603.432 652.203C603.275 651.162 602.914 650.162 602.37 649.26L596.7 639.82C598.418 637.907 600.033 635.904 601.54 633.82L611.96 637.4C612.956 637.741 614.009 637.883 615.06 637.816C616.111 637.749 617.138 637.476 618.083 637.011C619.028 636.547 619.872 635.9 620.566 635.109C621.26 634.318 621.792 633.397 622.13 632.4L630.96 606.76C631.301 605.764 631.443 604.711 631.376 603.66C631.309 602.609 631.036 601.582 630.571 600.637C630.107 599.692 629.46 598.848 628.669 598.154C627.878 597.459 626.957 596.928 625.96 596.59L615.58 593.01C615.58 591.72 615.64 590.43 615.58 589.15C615.52 587.87 615.5 586.58 615.41 585.3L625.66 581.36C627.639 580.599 629.235 579.084 630.098 577.147C630.96 575.21 631.019 573.01 630.26 571.03L620.54 545.7C619.781 543.719 618.267 542.121 616.329 541.256C614.392 540.392 612.191 540.332 610.21 541.09L600 545.16C598.42 543.136 596.734 541.197 594.95 539.35L600.29 529.72C601.317 527.866 601.567 525.68 600.984 523.642C600.401 521.603 599.033 519.88 597.18 518.85L573.45 505.69C572.263 505.031 570.927 504.686 569.57 504.69C568.826 504.693 568.086 504.798 567.37 505C565.331 505.589 563.606 506.958 562.57 508.81L557.25 518.41C554.729 517.88 552.182 517.479 549.62 517.21L547.53 506.43C547.177 504.607 546.201 502.963 544.768 501.781C543.336 500.598 541.537 499.951 539.68 499.95C539.166 499.95 538.654 500.001 538.15 500.1L511.53 505.27C510.498 505.47 509.516 505.871 508.64 506.451C507.763 507.031 507.009 507.778 506.422 508.649C505.834 509.52 505.423 510.498 505.214 511.528C505.004 512.558 504.999 513.619 505.2 514.65L507.29 525.43C505.021 526.647 502.818 527.982 500.69 529.43L492.14 522.51C490.491 521.175 488.38 520.549 486.271 520.771C484.161 520.992 482.226 522.042 480.89 523.69L463.8 544.74C463.138 545.558 462.645 546.498 462.347 547.507C462.049 548.515 461.953 549.573 462.065 550.619C462.176 551.665 462.493 552.678 462.997 553.602C463.5 554.525 464.181 555.34 465 556L473.53 562.92C472.557 565.3 471.713 567.73 471 570.2L460 570.39C458.949 570.408 457.913 570.633 456.949 571.052C455.985 571.471 455.114 572.076 454.384 572.832C453.654 573.588 453.08 574.48 452.695 575.458C452.31 576.435 452.121 577.479 452.14 578.53L452.6 605.65C452.637 607.747 453.496 609.746 454.992 611.217C456.488 612.687 458.502 613.51 460.6 613.51H460.74L471.74 613.32C472.539 615.769 473.463 618.176 474.51 620.53L466.23 627.73C464.63 629.122 463.649 631.091 463.501 633.207C463.352 635.322 464.05 637.409 465.44 639.01L483.23 659.49C484.622 661.091 486.594 662.073 488.71 662.22C488.896 662.23 489.083 662.23 489.27 662.22C491.201 662.208 493.062 661.497 494.51 660.22L502.82 653.01C504.999 654.369 507.245 655.618 509.55 656.75L507.83 667.6C507.665 668.638 507.705 669.699 507.95 670.721C508.195 671.743 508.639 672.708 509.256 673.558C509.874 674.409 510.653 675.13 511.55 675.679C512.446 676.228 513.442 676.596 514.48 676.76L541.27 681.01C541.686 681.078 542.108 681.111 542.53 681.11C544.433 681.11 546.274 680.431 547.722 679.196C549.17 677.961 550.13 676.25 550.43 674.37L552.14 663.58ZM545.21 656.21L542.51 673.21L515.73 668.96L518.42 651.96C512.629 649.738 507.182 646.708 502.24 642.96L489.24 654.24L471.45 633.77L484.45 622.5C481.423 617.083 479.187 611.261 477.81 605.21L460.64 605.51L460.18 578.39L477.34 578.09C478.503 572.003 480.523 566.111 483.34 560.59L470 549.78L487.08 528.7L500.44 539.52C505.253 535.612 510.596 532.406 516.31 530L513 513.12L539.63 507.94L542.9 524.8C549.103 524.895 555.261 525.871 561.19 527.7L569.52 512.7L593.25 525.86L584.9 540.86C589.584 544.933 593.671 549.646 597.04 554.86L613.04 548.7L622.84 574L606.84 580.16C607.816 586.285 607.92 592.516 607.15 598.67L623.39 604.26L614.55 629.91L598.3 624.31C595.102 629.62 591.177 634.457 586.64 638.68L595.5 653.42L572.25 667.42L563.4 652.7C557.534 654.727 551.409 655.909 545.21 656.21V656.21Z" fill="#18A7B5"/>
<path d="M609.26 709.42H608.9C603.465 709.523 598.293 711.776 594.518 715.687C590.742 719.597 588.672 724.845 588.76 730.28C588.857 735.653 591.057 740.773 594.889 744.541C598.72 748.308 603.876 750.423 609.25 750.43H609.61C615.047 750.333 620.224 748.081 624.002 744.17C627.78 740.258 629.851 735.007 629.76 729.57C629.663 724.196 627.461 719.074 623.628 715.306C619.794 711.538 614.635 709.424 609.26 709.42V709.42ZM600.58 738.91C599.393 737.775 598.443 736.415 597.787 734.91C597.131 733.404 596.782 731.782 596.76 730.14C596.706 726.833 597.963 723.639 600.257 721.256C602.55 718.873 605.693 717.494 609 717.42H609.22C612.452 717.519 615.519 718.866 617.78 721.177C620.041 723.489 621.319 726.586 621.346 729.819C621.373 733.052 620.147 736.17 617.926 738.519C615.704 740.869 612.66 742.266 609.43 742.42C607.795 742.454 606.171 742.161 604.651 741.558C603.131 740.956 601.747 740.055 600.58 738.91V738.91Z" fill="#18A7B5"/>
<path d="M647.38 755.88C648.325 755.419 649.17 754.777 649.867 753.989C650.564 753.202 651.098 752.284 651.44 751.29L655.65 739.07C656.295 737.193 656.219 735.144 655.437 733.32C654.656 731.496 653.224 730.028 651.42 729.2C653.191 728.31 654.568 726.794 655.284 724.947C656.001 723.099 656.007 721.051 655.3 719.2L650.67 707.13C649.959 705.277 648.585 703.755 646.815 702.859C645.044 701.963 643.004 701.756 641.09 702.28C641.875 700.459 641.956 698.411 641.317 696.534C640.678 694.656 639.364 693.083 637.63 692.12L626.32 685.85C625.133 685.193 623.797 684.849 622.44 684.85C621.696 684.848 620.955 684.953 620.24 685.16C618.461 685.669 616.913 686.778 615.86 688.3C615.291 686.398 614.035 684.776 612.337 683.748C610.639 682.721 608.619 682.361 606.67 682.74L594 685.18C592.051 685.559 590.312 686.649 589.122 688.238C587.931 689.828 587.375 691.803 587.56 693.78C585.903 692.689 583.9 692.253 581.939 692.556C579.979 692.859 578.201 693.88 576.95 695.42L568.81 705.47C567.562 707.012 566.931 708.963 567.04 710.944C567.149 712.925 567.99 714.794 569.4 716.19C567.43 716.42 565.615 717.375 564.308 718.868C563.002 720.361 562.297 722.286 562.33 724.27L562.55 737.19C562.583 739.176 563.354 741.079 564.713 742.528C566.071 743.977 567.92 744.869 569.9 745.03C568.537 746.474 567.76 748.373 567.719 750.358C567.679 752.343 568.378 754.272 569.68 755.77L578.16 765.52C578.849 766.314 579.687 766.965 580.628 767.435C581.568 767.906 582.592 768.186 583.64 768.26H584.2C585.856 768.257 587.471 767.74 588.82 766.78C588.704 768.761 589.328 770.715 590.572 772.262C591.816 773.809 593.59 774.838 595.55 775.15L608.32 777.15C608.737 777.218 609.158 777.252 609.58 777.25C611.351 777.246 613.071 776.656 614.47 775.57C615.868 774.484 616.868 772.965 617.31 771.25C618.496 772.843 620.231 773.938 622.179 774.322C624.127 774.707 626.148 774.353 627.85 773.33L638.93 766.68C640.607 765.653 641.848 764.044 642.414 762.161C642.98 760.278 642.833 758.252 642 756.47C642.603 756.612 643.221 756.686 643.84 756.69C645.066 756.692 646.277 756.415 647.38 755.88V755.88ZM636.13 746C634.606 748.526 632.738 750.828 630.58 752.84L634.8 759.84L623.72 766.49L619.5 759.49C616.709 760.461 613.792 761.026 610.84 761.17L609.56 769.25L596.8 767.25L598.08 759.17C595.322 758.108 592.727 756.664 590.37 754.88L584.19 760.26L575.71 750.5L581.89 745.13C580.45 742.55 579.383 739.779 578.72 736.9L570.54 737.04L570.32 724.11L578.5 723.97C579.053 721.069 580.023 718.263 581.38 715.64L575 710.5L583.13 700.5L589.5 705.66C591.789 703.791 594.331 702.256 597.05 701.1L595.49 693.1L608.18 690.64L609.74 698.64C612.694 698.687 615.626 699.152 618.45 700.02L622.45 692.87L633.76 699.14L629.76 706.31C631.987 708.246 633.936 710.48 635.55 712.95L643.2 710L647.83 722.07L640.2 725C640.428 726.456 640.555 727.926 640.58 729.4C640.61 730.877 640.533 732.354 640.35 733.82L648.08 736.49L643.87 748.71L636.13 746Z" fill="#18A7B5"/>
<path d="M394 604.6H394.32C396.679 604.566 399.007 604.067 401.173 603.133C403.338 602.198 405.298 600.845 406.941 599.152C408.583 597.458 409.875 595.458 410.743 593.265C411.611 591.071 412.038 588.728 412 586.37C411.901 581.662 409.96 577.181 406.595 573.887C403.23 570.593 398.709 568.749 394 568.75H393.69C388.947 568.863 384.441 570.843 381.151 574.261C377.861 577.678 376.053 582.257 376.12 587C376.209 591.688 378.13 596.156 381.472 599.445C384.814 602.735 389.311 604.585 394 604.6V604.6ZM393.84 576.75H394C396.58 576.807 399.037 577.866 400.85 579.703C402.663 581.541 403.689 584.012 403.711 586.593C403.733 589.173 402.75 591.662 400.969 593.53C399.188 595.398 396.749 596.499 394.17 596.6C391.54 596.64 389.002 595.637 387.111 593.809C385.22 591.982 384.13 589.479 384.08 586.85C384.059 585.544 384.295 584.246 384.776 583.031C385.257 581.817 385.972 580.709 386.881 579.771C387.791 578.833 388.876 578.083 390.075 577.565C391.274 577.046 392.564 576.77 393.87 576.75H393.84Z" fill="#18A7B5"/>
<path d="M353.19 581.93L353.38 592.83C353.408 594.458 353.933 596.039 354.884 597.362C355.834 598.684 357.166 599.685 358.7 600.23C357.923 601.663 357.602 603.3 357.78 604.922C357.959 606.543 358.629 608.07 359.7 609.3L366.85 617.53C368.243 619.131 370.214 620.113 372.33 620.26C372.517 620.27 372.704 620.27 372.89 620.26C373.846 620.261 374.794 620.091 375.69 619.76C376.016 621.355 376.82 622.812 377.996 623.938C379.172 625.064 380.663 625.804 382.27 626.06L393 627.79C393.42 627.858 393.845 627.891 394.27 627.89C395.684 627.888 397.072 627.511 398.293 626.798C399.514 626.085 400.524 625.061 401.22 623.83C402.495 624.845 404.05 625.446 405.676 625.554C407.303 625.661 408.923 625.269 410.32 624.43L419.67 618.81C421.488 617.717 422.797 615.948 423.31 613.89C423.588 612.78 423.622 611.624 423.41 610.5C424.555 610.47 425.679 610.197 426.71 609.7C427.656 609.239 428.501 608.597 429.197 607.809C429.894 607.022 430.428 606.104 430.77 605.11L434.32 594.8C434.852 593.259 434.901 591.593 434.459 590.023C434.018 588.454 433.108 587.058 431.85 586.02C433.068 584.94 433.927 583.514 434.313 581.932C434.699 580.351 434.593 578.69 434.01 577.17L430.15 567C429.57 565.49 428.545 564.191 427.212 563.275C425.878 562.359 424.298 561.869 422.68 561.87H422.61C422.854 560.262 422.602 558.617 421.888 557.155C421.173 555.694 420.03 554.485 418.61 553.69L409 548.38C407.813 547.723 406.478 547.379 405.12 547.38C404.376 547.379 403.635 547.483 402.92 547.69C401.816 548.005 400.793 548.554 399.92 549.3C399.07 547.909 397.814 546.81 396.321 546.153C394.829 545.495 393.171 545.309 391.57 545.62L380.87 547.7C379.27 548.01 377.802 548.801 376.663 549.968C375.525 551.135 374.77 552.622 374.5 554.23C373.685 553.955 372.83 553.817 371.97 553.82C370.775 553.824 369.596 554.095 368.52 554.614C367.444 555.133 366.497 555.887 365.75 556.82L358.89 565.29C357.863 566.557 357.247 568.107 357.126 569.734C357.004 571.36 357.383 572.985 358.21 574.39C357.145 574.804 356.182 575.445 355.39 576.27C353.942 577.794 353.151 579.828 353.19 581.93ZM365.19 570.29L372.06 561.82L377.43 566.17C379.363 564.597 381.507 563.305 383.8 562.33L382.49 555.55L393.19 553.47L394.5 560.25C396.997 560.289 399.475 560.683 401.86 561.42L405.2 555.42L414.74 560.71L411.39 566.76C413.271 568.393 414.913 570.282 416.27 572.37L422.72 569.89L426.59 580L420.14 582.48C420.337 583.707 420.447 584.947 420.47 586.19C420.49 587.436 420.423 588.683 420.27 589.92L426.8 592.16L423.25 602.47L416.71 600.22C415.415 602.355 413.83 604.3 412 606L415.56 611.92L406.21 617.54L402.65 611.62C400.298 612.442 397.839 612.92 395.35 613.04L394.27 619.86L383.5 618.15L384.58 611.33C382.253 610.443 380.064 609.227 378.08 607.72L372.86 612.25L365.71 604.02L370.92 599.49C369.703 597.313 368.803 594.972 368.25 592.54L361.35 592.66L361.16 581.76L368.06 581.64C368.538 579.204 369.356 576.848 370.49 574.64L365.19 570.29Z" fill="#18A7B5"/>
<path d="M674.42 661H674.72C676.892 660.967 679.036 660.507 681.029 659.646C683.023 658.784 684.827 657.538 686.339 655.979C687.851 654.419 689.041 652.577 689.841 650.558C690.641 648.539 691.034 646.382 691 644.21V644.21C690.911 639.876 689.125 635.751 686.027 632.72C682.928 629.688 678.765 627.994 674.43 628H674.15C669.767 628.082 665.596 629.898 662.552 633.052C659.507 636.205 657.838 640.437 657.91 644.82C657.999 649.14 659.777 653.254 662.864 656.279C665.95 659.303 670.099 660.998 674.42 661V661ZM674.42 635.94C676.658 635.959 678.797 636.863 680.369 638.455C681.942 640.047 682.819 642.197 682.81 644.435C682.801 646.672 681.905 648.815 680.32 650.394C678.734 651.973 676.588 652.86 674.35 652.86C672.112 652.86 669.966 651.973 668.38 650.394C666.795 648.815 665.899 646.672 665.89 644.435C665.881 642.197 666.758 640.047 668.331 638.455C669.903 636.863 672.042 635.959 674.28 635.94H674.42Z" fill="#18A7B5"/>
<path d="M663.72 680.74L673.41 682.28C673.827 682.348 674.248 682.382 674.67 682.38C675.935 682.38 677.182 682.08 678.308 681.504C679.435 680.929 680.409 680.095 681.15 679.07C682.431 679.869 683.911 680.292 685.42 680.29C686.869 680.293 688.29 679.899 689.53 679.15L697.94 674.15C699.209 673.388 700.241 672.289 700.923 670.976C701.604 669.663 701.908 668.186 701.8 666.71C703.267 666.51 704.649 665.906 705.793 664.967C706.937 664.028 707.798 662.789 708.28 661.39L711.47 652.11C711.951 650.713 712.035 649.21 711.714 647.768C711.393 646.326 710.678 645.001 709.65 643.94C710.644 642.843 711.314 641.493 711.586 640.038C711.858 638.583 711.721 637.082 711.19 635.7L707.67 626.54C707.295 625.558 706.73 624.66 706.008 623.896C705.286 623.133 704.42 622.519 703.46 622.09C702.684 621.752 701.862 621.533 701.02 621.44C701.076 619.961 700.72 618.496 699.993 617.207C699.265 615.918 698.195 614.857 696.9 614.14L688.32 609.38C687.133 608.723 685.797 608.379 684.44 608.38C683.696 608.379 682.955 608.483 682.24 608.69C681.426 608.925 680.653 609.286 679.95 609.76C679.429 609.081 678.805 608.487 678.1 608C676.341 606.814 674.183 606.375 672.1 606.78L662.47 608.65C661.018 608.932 659.673 609.612 658.583 610.613C657.494 611.614 656.704 612.897 656.3 614.32C654.854 614.009 653.35 614.106 651.956 614.598C650.561 615.091 649.33 615.96 648.4 617.11L642.22 624.73C641.289 625.88 640.696 627.265 640.505 628.732C640.314 630.199 640.534 631.69 641.14 633.04C640.394 633.433 639.719 633.947 639.14 634.56C637.666 636.084 636.857 638.13 636.89 640.25L637.06 650.07C637.098 652.189 637.976 654.207 639.5 655.68C640.111 656.268 640.809 656.757 641.57 657.13C641.013 658.499 640.846 659.996 641.088 661.454C641.33 662.912 641.971 664.274 642.94 665.39L649.38 672.8C650.069 673.594 650.907 674.245 651.847 674.715C652.788 675.186 653.811 675.466 654.86 675.54H655.42C656.094 675.545 656.766 675.464 657.42 675.3C657.87 676.698 658.696 677.944 659.807 678.904C660.918 679.863 662.272 680.499 663.72 680.74ZM655.4 667.53L648.96 660.13L653.65 656.05C652.553 654.093 651.745 651.988 651.25 649.8L645.04 649.91L644.87 640.1L651.08 639.99C651.501 637.785 652.239 635.653 653.27 633.66L648.44 629.75L654.61 622.12L659.45 626.04C661.185 624.619 663.115 623.454 665.18 622.58L664 616.49L673.63 614.61L674.81 620.71C677.053 620.729 679.282 621.066 681.43 621.71L684.43 616.28L693.01 621.04L690.01 626.48C691.696 627.956 693.173 629.655 694.4 631.53L700.2 629.3L703.72 638.46L697.92 640.69C698.096 641.795 698.196 642.911 698.22 644.03C698.231 645.153 698.171 646.275 698.04 647.39L703.91 649.39L700.71 658.67L694.83 656.67C693.673 658.589 692.257 660.339 690.62 661.87L693.82 667.2L685.41 672.2L682.21 666.88C680.091 667.613 677.879 668.044 675.64 668.16L674.64 674.29L665 672.84L666 666.71C663.906 665.905 661.936 664.807 660.15 663.45L655.4 667.53Z" fill="#18A7B5"/>
<path d="M308.49 614.13H308.7C311.844 614.017 314.821 612.682 316.996 610.409C319.171 608.136 320.373 605.104 320.347 601.958C320.321 598.812 319.069 595.8 316.856 593.563C314.644 591.326 311.646 590.041 308.5 589.98H308.29C305.146 590.093 302.17 591.428 299.995 593.701C297.82 595.974 296.617 599.006 296.643 602.152C296.67 605.298 297.922 608.31 300.134 610.547C302.347 612.784 305.345 614.069 308.49 614.13V614.13ZM308.49 597.98C309.557 597.982 310.58 598.402 311.341 599.15C312.102 599.898 312.539 600.914 312.56 601.98C312.574 603.059 312.161 604.1 311.413 604.877C310.664 605.653 309.639 606.104 308.56 606.13H308.48C307.415 606.123 306.395 605.701 305.635 604.954C304.876 604.208 304.436 603.195 304.41 602.13C304.394 601.051 304.806 600.01 305.556 599.234C306.305 598.458 307.332 598.011 308.41 597.99L308.49 597.98Z" fill="#18A7B5"/>
<path d="M286 617.38L290.15 622.15C291.542 623.751 293.514 624.733 295.63 624.88H295.79C296.405 625.764 297.193 626.514 298.105 627.087C299.018 627.659 300.036 628.041 301.1 628.21L307.35 629.21C307.767 629.278 308.188 629.311 308.61 629.31C310.35 629.309 312.042 628.74 313.43 627.69H313.59C314.61 627.946 315.67 627.998 316.71 627.843C317.749 627.689 318.749 627.331 319.65 626.79L325.07 623.53C326.887 622.437 328.197 620.668 328.71 618.61V618.45C328.759 618.433 328.807 618.409 328.85 618.38C330.757 617.452 332.217 615.804 332.91 613.8L334.97 607.8C335.322 606.781 335.465 605.701 335.389 604.625C335.314 603.549 335.021 602.5 334.53 601.54C334.989 600.566 335.246 599.509 335.283 598.433C335.321 597.356 335.14 596.284 334.75 595.28L332.49 589.37C331.73 587.391 330.216 585.794 328.28 584.93L328.13 584.87C327.854 583.827 327.369 582.851 326.706 582.001C326.042 581.15 325.214 580.442 324.27 579.92L318.74 576.85C317.552 576.193 316.217 575.849 314.86 575.85C314.116 575.849 313.375 575.954 312.66 576.16H312.51L312.37 576.07C310.611 574.884 308.453 574.445 306.37 574.85L300.17 576.05C299.111 576.256 298.104 576.674 297.21 577.279C296.317 577.883 295.555 578.663 294.97 579.57C293.896 579.657 292.851 579.962 291.899 580.465C290.946 580.969 290.106 581.661 289.43 582.5L285.43 587.42C284.756 588.254 284.256 589.215 283.961 590.245C283.665 591.276 283.58 592.356 283.71 593.42L283.59 593.53C282.861 594.286 282.287 595.179 281.903 596.157C281.519 597.135 281.331 598.179 281.35 599.23L281.46 605.55C281.473 606.63 281.705 607.697 282.142 608.685C282.578 609.673 283.21 610.563 284 611.3L284.12 611.41C284.016 612.48 284.129 613.561 284.452 614.586C284.775 615.612 285.301 616.562 286 617.38ZM293.41 599.15C293.677 597.728 294.152 596.353 294.82 595.07L291.7 592.55L295.7 587.64L298.82 590.16C299.938 589.248 301.181 588.501 302.51 587.94L301.75 584.01L308 582.8L308.76 586.73C310.205 586.75 311.64 586.979 313.02 587.41L314.96 583.91L320.49 586.97L318.55 590.48C319.641 591.426 320.593 592.52 321.38 593.73L325.12 592.3L327.39 598.2L323.65 599.64C323.764 600.351 323.828 601.07 323.84 601.79C323.85 602.512 323.81 603.234 323.72 603.95L327.51 605.25L325.45 611.25L321.66 609.95C320.912 611.187 319.997 612.314 318.94 613.3L321.01 616.73L315.57 620L313.51 616.57C312.143 617.043 310.715 617.319 309.27 617.39L308.64 621.34L302.4 620.34L303.03 616.34C301.679 615.824 300.41 615.117 299.26 614.24L296.26 616.87L292.11 612.1L295.11 609.47C294.409 608.217 293.89 606.87 293.57 605.47L289.57 605.54L289.46 599.22L293.41 599.15Z" fill="#18A7B5"/>
<path d="M522.06 736H522.27C525.472 735.972 528.531 734.674 530.774 732.391C533.018 730.107 534.263 727.026 534.235 723.825C534.208 720.624 532.909 717.565 530.626 715.321C528.343 713.077 525.262 711.832 522.06 711.86H521.85C518.653 711.926 515.612 713.254 513.392 715.555C511.171 717.856 509.952 720.943 510 724.14C510.063 727.3 511.36 730.311 513.614 732.527C515.868 734.744 518.899 735.99 522.06 736ZM522.06 719.85C523.129 719.85 524.155 720.269 524.917 721.017C525.68 721.765 526.119 722.782 526.14 723.85C526.156 724.929 525.745 725.97 524.995 726.746C524.245 727.522 523.219 727.969 522.14 727.99H522.07C521.005 727.983 519.985 727.561 519.225 726.814C518.466 726.068 518.026 725.055 518 723.99C517.991 723.456 518.087 722.924 518.283 722.427C518.479 721.93 518.771 721.476 519.143 721.091C519.514 720.707 519.958 720.399 520.448 720.186C520.938 719.973 521.466 719.859 522 719.85H522.06Z" fill="#18A7B5"/>
<path d="M499.61 739.25L503.76 744.03C505.153 745.631 507.124 746.613 509.24 746.76H509.4C510.016 747.644 510.803 748.394 511.716 748.967C512.628 749.539 513.647 749.921 514.71 750.09L520.96 751.09C521.377 751.158 521.798 751.192 522.22 751.19C523.96 751.189 525.653 750.62 527.04 749.57C527.725 749.753 528.431 749.847 529.14 749.85C530.593 749.851 532.018 749.454 533.26 748.7L538.68 745.45C539.581 744.908 540.367 744.193 540.991 743.347C541.616 742.501 542.067 741.541 542.32 740.52C542.316 740.47 542.316 740.42 542.32 740.37L542.46 740.3C543.406 739.839 544.251 739.197 544.947 738.409C545.644 737.622 546.178 736.704 546.52 735.71L548.58 729.71C548.054 725.554 547.98 721.352 548.36 717.18L546.1 711.28C545.723 710.299 545.156 709.402 544.432 708.64C543.708 707.878 542.841 707.267 541.88 706.84L541.74 706.77C541.466 705.728 540.983 704.752 540.319 703.902C539.656 703.053 538.826 702.348 537.88 701.83L532.35 698.76C531.164 698.099 529.828 697.755 528.47 697.76C527.726 697.763 526.986 697.868 526.27 698.07H526.11L525.98 697.98C524.221 696.794 522.063 696.355 519.98 696.76L513.77 697.96C512.714 698.166 511.709 698.583 510.817 699.186C509.926 699.789 509.165 700.566 508.58 701.47C507.506 701.562 506.462 701.869 505.51 702.374C504.558 702.88 503.718 703.572 503.04 704.41L499.04 709.32C498.363 710.152 497.862 711.113 497.566 712.144C497.27 713.175 497.187 714.256 497.32 715.32L497.2 715.44C496.471 716.196 495.898 717.089 495.513 718.067C495.129 719.045 494.941 720.089 494.96 721.14L495.06 727.46C495.101 729.581 495.982 731.599 497.51 733.07L497.62 733.19C497.519 734.283 497.643 735.384 497.985 736.427C498.328 737.469 498.881 738.43 499.61 739.25V739.25ZM507 721C507.268 719.58 507.74 718.205 508.4 716.92L505.29 714.4L509.29 709.49L512.41 712.01C513.528 711.095 514.771 710.344 516.1 709.78L515.34 705.85L521.54 704.65L522.31 708.58C523.755 708.602 525.189 708.827 526.57 709.25L528.51 705.75L534.04 708.82L532.1 712.33C533.191 713.276 534.144 714.37 534.93 715.58L538.67 714.14L540.93 720.05L537.2 721.48C537.315 722.195 537.378 722.916 537.39 723.64C537.401 724.362 537.361 725.084 537.27 725.8L541.06 727.1L539 733.1L535.21 731.79C534.465 733.029 533.55 734.156 532.49 735.14L534.56 738.58L529.14 741.83L527.08 738.4C525.714 738.876 524.286 739.156 522.84 739.23L522.21 743.23L515.97 742.23L516.59 738.23C515.241 737.712 513.971 737.005 512.82 736.13L509.82 738.76L505.65 734L508.65 731.37C507.952 730.114 507.43 728.768 507.1 727.37L503.1 727.44L503 721.12L507 721Z" fill="#18A7B5"/>
<path d="M681.32 545.84H681.08C677.317 545.871 673.72 547.395 671.08 550.077C668.441 552.76 666.975 556.382 667.005 560.145C667.036 563.908 668.56 567.506 671.243 570.145C673.926 572.785 677.547 574.25 681.31 574.22H681.57C685.33 574.149 688.909 572.59 691.522 569.885C694.135 567.181 695.569 563.55 695.51 559.79V559.79C695.442 556.07 693.918 552.525 691.265 549.917C688.611 547.308 685.041 545.845 681.32 545.84V545.84ZM677 564.49C676.12 563.64 675.512 562.547 675.253 561.351C674.993 560.156 675.094 558.91 675.543 557.771C675.991 556.632 676.767 555.652 677.772 554.954C678.777 554.256 679.967 553.872 681.19 553.85H681.3C682.924 553.852 684.482 554.492 685.64 555.63C686.797 556.769 687.462 558.317 687.49 559.94C687.514 561.58 686.889 563.163 685.749 564.344C684.61 565.524 683.05 566.206 681.41 566.24C680.595 566.263 679.783 566.12 679.025 565.819C678.267 565.519 677.578 565.066 677 564.49V564.49Z" fill="#18A7B5"/>
<path d="M711.86 559.51C712.542 558.453 712.966 557.251 713.096 556C713.226 554.749 713.06 553.485 712.61 552.31L709.75 544.86C709.374 543.877 708.808 542.978 708.084 542.215C707.359 541.451 706.492 540.838 705.53 540.41C705.156 540.248 704.772 540.111 704.38 540C704.223 538.751 703.774 537.557 703.068 536.514C702.363 535.472 701.421 534.61 700.32 534L693.32 530.13C692.134 529.47 690.798 529.126 689.44 529.13C688.696 529.133 687.956 529.238 687.24 529.44C686.844 529.556 686.456 529.7 686.08 529.87C685.768 529.59 685.433 529.336 685.08 529.11C683.76 528.218 682.203 527.741 680.61 527.74C680.097 527.742 679.585 527.789 679.08 527.88L671.25 529.41C670.017 529.65 668.857 530.176 667.865 530.948C666.873 531.719 666.076 532.713 665.54 533.85H665.15C663.955 533.854 662.776 534.125 661.7 534.644C660.623 535.163 659.677 535.917 658.93 536.85L653.93 543.05C653.138 544.027 652.587 545.178 652.323 546.408C652.059 547.638 652.089 548.913 652.41 550.13C652.084 550.373 651.779 550.644 651.5 550.94C650.769 551.696 650.194 552.588 649.808 553.566C649.422 554.544 649.232 555.589 649.25 556.64L649.39 564.64C649.412 565.898 649.73 567.134 650.319 568.246C650.909 569.358 651.752 570.315 652.78 571.04C652.505 572.263 652.52 573.534 652.826 574.75C653.132 575.966 653.719 577.093 654.54 578.04L659.77 584.04C661.163 585.641 663.134 586.623 665.25 586.77C665.437 586.78 665.624 586.78 665.81 586.77H666.48C667.055 587.887 667.886 588.853 668.904 589.59C669.922 590.327 671.099 590.813 672.34 591.01L680.22 592.26C680.64 592.328 681.065 592.361 681.49 592.36C683.596 592.356 685.615 591.523 687.11 590.04C688.272 590.525 689.531 590.73 690.787 590.64C692.043 590.55 693.26 590.166 694.34 589.52L701.18 585.41C702.998 584.317 704.307 582.548 704.82 580.49C704.922 580.093 704.989 579.688 705.02 579.28C706.222 578.917 707.32 578.275 708.226 577.406C709.131 576.537 709.818 575.466 710.23 574.28L712.82 566.74C713.245 565.545 713.379 564.266 713.212 563.009C713.045 561.752 712.582 560.553 711.86 559.51ZM702.69 571.62L697.91 570C696.971 571.564 695.816 572.988 694.48 574.23L697.09 578.56L690.25 582.67L687.65 578.34C685.924 578.928 684.122 579.265 682.3 579.34L681.51 584.34L673.63 583.09L674.42 578.09C672.717 577.438 671.115 576.549 669.66 575.45L665.84 578.76L660.61 572.76L664.42 569.45C663.53 567.855 662.873 566.141 662.47 564.36L657.42 564.45L657.28 556.45L662.33 556.36C662.674 554.57 663.273 552.839 664.11 551.22L660.18 548L665.18 541.8L669.11 544.99C670.523 543.833 672.096 542.886 673.78 542.18L672.78 537.18L680.62 535.66L681.62 540.66C683.445 540.686 685.257 540.972 687 541.51L689.45 537.09L696.45 540.96L694 545.43C695.374 546.625 696.575 548.005 697.57 549.53L702.29 547.72L705.15 555.17L700.42 557C700.707 558.803 700.74 560.638 700.52 562.45L705.29 564.09L702.69 571.62Z" fill="#18A7B5"/>
<path d="M624.33 367.87C632.581 368.904 640.905 366.619 647.47 361.516C654.036 356.413 658.306 348.911 659.34 340.66C660.374 332.409 658.089 324.085 652.986 317.52C647.883 310.954 640.381 306.684 632.13 305.65C623.881 304.629 615.564 306.921 609.002 312.024C602.441 317.126 598.171 324.623 597.13 332.87V332.87C596.106 341.116 598.394 349.433 603.493 355.994C608.592 362.556 616.086 366.826 624.33 367.87V367.87ZM605.07 333.87C605.646 329.29 607.566 324.984 610.589 321.496C613.612 318.008 617.601 315.494 622.052 314.273C626.503 313.051 631.216 313.177 635.596 314.634C639.976 316.091 643.825 318.814 646.657 322.459C649.489 326.103 651.177 330.506 651.508 335.109C651.838 339.713 650.797 344.312 648.514 348.323C646.231 352.335 642.81 355.58 638.684 357.648C634.557 359.715 629.91 360.513 625.33 359.94C619.187 359.164 613.603 355.981 609.805 351.091C606.006 346.202 604.303 340.004 605.07 333.86V333.87Z" fill="#18A7B5"/>
<path d="M568.58 331.19L561.34 332.84C559.275 333.316 557.484 334.593 556.359 336.389C555.234 338.185 554.868 340.354 555.34 342.42L560.1 363.3C560.504 365.067 561.495 366.645 562.912 367.775C564.329 368.905 566.088 369.52 567.9 369.52C568.499 369.522 569.097 369.454 569.68 369.32L576.96 367.66C577.6 368.73 578.28 369.78 578.96 370.81L574.46 376.76C573.821 377.598 573.353 378.554 573.084 379.574C572.815 380.593 572.75 381.656 572.893 382.7C573.036 383.745 573.385 384.751 573.918 385.66C574.451 386.57 575.159 387.365 576 388L593.07 400.93C594.762 402.208 596.891 402.763 598.991 402.473C601.091 402.182 602.99 401.07 604.27 399.38L608.76 393.46C609.95 393.86 611.16 394.23 612.37 394.57L612.74 401.99C612.843 404.042 613.731 405.975 615.22 407.39C616.71 408.805 618.686 409.593 620.74 409.59H621.14L642.53 408.52C644.648 408.414 646.636 407.472 648.059 405.9C649.482 404.329 650.224 402.257 650.12 400.14L649.75 392.7C650.92 392.25 652.07 391.76 653.22 391.24L658.28 396.7C658.996 397.47 659.856 398.092 660.812 398.529C661.767 398.967 662.8 399.212 663.85 399.25H664.15C666.167 399.251 668.11 398.49 669.59 397.12L685.28 382.55C686.835 381.108 687.753 379.108 687.834 376.989C687.915 374.87 687.151 372.806 685.71 371.25L680.65 365.8C681.26 364.7 681.84 363.58 682.37 362.44L689.75 363.37C690.082 363.41 690.416 363.43 690.75 363.43C692.699 363.431 694.582 362.72 696.044 361.431C697.506 360.142 698.447 358.364 698.69 356.43L701.35 335.17C701.613 333.066 701.03 330.943 699.729 329.268C698.427 327.594 696.514 326.505 694.41 326.24L687.04 325.32C686.79 324.08 686.51 322.86 686.19 321.64L692.44 317.64C694.222 316.489 695.474 314.677 695.921 312.603C696.367 310.529 695.971 308.362 694.82 306.58L683.2 288.58C682.631 287.697 681.894 286.934 681.03 286.336C680.166 285.738 679.192 285.316 678.165 285.094C677.138 284.872 676.078 284.855 675.044 285.043C674.01 285.231 673.023 285.621 672.14 286.19L665.88 290.19C664.88 289.41 663.88 288.65 662.88 287.92L665.07 280.81C665.695 278.782 665.488 276.59 664.496 274.715C663.504 272.839 661.808 271.435 659.78 270.81L639.32 264.49C638.556 264.253 637.761 264.131 636.96 264.13C635.249 264.129 633.582 264.678 632.205 265.695C630.828 266.712 629.813 268.144 629.31 269.78L627.12 276.88C625.87 276.88 624.61 276.97 623.35 277.07L620.47 270.22C620.062 269.252 619.466 268.374 618.718 267.636C617.97 266.899 617.084 266.315 616.11 265.92C614.151 265.109 611.95 265.109 609.99 265.92L590.26 274.23C589.29 274.638 588.41 275.234 587.671 275.983C586.931 276.733 586.347 277.62 585.951 278.596C585.555 279.571 585.356 280.615 585.364 281.668C585.373 282.72 585.589 283.761 586 284.73L588.9 291.61C587.95 292.43 587.04 293.28 586.15 294.16L579.51 290.75C578.381 290.171 577.13 289.87 575.86 289.87C574.388 289.87 572.945 290.276 571.688 291.043C570.432 291.811 569.412 292.91 568.74 294.22L559 313.28C558.521 314.215 558.23 315.235 558.145 316.283C558.06 317.33 558.182 318.384 558.504 319.384C558.827 320.384 559.343 321.311 560.023 322.111C560.704 322.912 561.535 323.571 562.47 324.05L569.08 327.44C568.99 328.07 568.9 328.7 568.82 329.33C568.74 329.96 568.64 330.56 568.58 331.19ZM566.09 316.93L575.86 297.87L587.94 304.07C591.025 300.273 594.631 296.93 598.65 294.14L593.37 281.63L613.1 273.31L618.37 285.8C621.619 285.17 624.921 284.852 628.23 284.85C629.8 284.85 631.38 284.92 632.97 285.07L636.97 272.07L657.43 278.39L653.43 291.39C657.711 293.765 661.63 296.738 665.07 300.22L676.47 292.86L688.08 310.86L676.7 318.21C678.469 322.776 679.58 327.571 680 332.45L693.45 334.14L690.78 355.39L677.34 353.7C675.742 358.329 673.493 362.706 670.66 366.7L679.88 376.65L664.19 391.21L654.95 381.26C650.755 383.786 646.223 385.705 641.49 386.96L642.17 400.49L620.78 401.56L620.07 388C615.224 387.23 610.511 385.779 606.07 383.69L597.89 394.49L580.82 381.56L589 370.77C585.798 367.072 583.132 362.941 581.08 358.5L567.84 361.5L563.08 340.62L576.29 337.62C576.255 335.174 576.389 332.728 576.69 330.3C576.986 327.872 577.461 325.468 578.11 323.11L566.09 316.93Z" fill="#18A7B5"/>
<path d="M476.82 402.88C481.237 405.175 486.236 406.11 491.184 405.565C496.132 405.021 500.807 403.022 504.62 399.821C508.432 396.62 511.211 392.362 512.604 387.583C513.997 382.804 513.942 377.719 512.446 372.971C510.951 368.223 508.081 364.025 504.201 360.907C500.32 357.789 495.603 355.892 490.644 355.454C485.686 355.016 480.708 356.058 476.342 358.447C471.975 360.837 468.414 364.468 466.11 368.88V368.88C463.028 374.81 462.425 381.721 464.433 388.095C466.441 394.47 470.896 399.787 476.82 402.88V402.88ZM473.21 372.6C474.781 369.587 477.209 367.108 480.189 365.475C483.168 363.843 486.565 363.13 489.949 363.428C493.334 363.726 496.554 365.02 499.203 367.148C501.852 369.275 503.81 372.141 504.831 375.381C505.851 378.622 505.888 382.092 504.937 385.354C503.985 388.615 502.088 391.522 499.484 393.705C496.881 395.888 493.689 397.251 490.312 397.62C486.935 397.989 483.524 397.349 480.51 395.78C478.498 394.749 476.711 393.328 475.252 391.601C473.794 389.873 472.693 387.873 472.014 385.716C471.334 383.56 471.09 381.29 471.296 379.038C471.501 376.786 472.152 374.598 473.21 372.6Z" fill="#18A7B5"/>
<path d="M434.14 398.58C433.688 400.642 434.069 402.798 435.2 404.58L444.11 418.58C445.245 420.369 447.043 421.635 449.11 422.1C449.678 422.228 450.258 422.292 450.84 422.29C452.363 422.291 453.855 421.858 455.14 421.04L458.91 418.63L459.24 418.89L457.89 423.15C457.263 425.17 457.461 427.355 458.441 429.229C459.421 431.103 461.103 432.513 463.12 433.15L478.94 438.15C480.957 438.799 483.149 438.621 485.035 437.655C486.921 436.69 488.347 435.016 489 433L490.35 428.72H490.76L492.47 432.86C493.076 434.323 494.102 435.574 495.42 436.454C496.737 437.333 498.286 437.802 499.87 437.8C500.92 437.797 501.959 437.589 502.93 437.19L518.25 430.84C520.21 430.028 521.767 428.471 522.579 426.512C523.391 424.552 523.391 422.35 522.58 420.39L520.87 416.26L521.18 415.98L525.18 418.04C526.322 418.637 527.591 418.949 528.88 418.95C529.694 418.952 530.504 418.827 531.28 418.58C533.302 417.943 534.989 416.53 535.97 414.65L543.64 399.93C544.62 398.048 544.812 395.854 544.174 393.831C543.537 391.807 542.122 390.12 540.24 389.14L536.24 387.08L536.3 386.66L540.66 385.66C542.731 385.201 544.535 383.938 545.675 382.149C546.816 380.36 547.199 378.191 546.74 376.12L543.16 359.92C542.766 358.142 541.778 356.552 540.358 355.412C538.937 354.272 537.171 353.65 535.35 353.65C534.768 353.648 534.188 353.712 533.62 353.84L529.24 354.84L529.02 354.49L531.75 350.94C532.39 350.107 532.86 349.156 533.133 348.141C533.406 347.126 533.476 346.067 533.339 345.025C533.203 343.984 532.862 342.979 532.337 342.068C531.812 341.158 531.113 340.36 530.28 339.72L517.1 329.6C516.267 328.96 515.316 328.49 514.301 328.217C513.286 327.944 512.227 327.874 511.185 328.011C510.143 328.147 509.139 328.488 508.228 329.013C507.318 329.537 506.52 330.237 505.88 331.07L503.16 334.62L502.76 334.5L502.57 330.03C502.48 327.97 501.597 326.023 500.107 324.598C498.616 323.173 496.632 322.378 494.57 322.38H494.23L477.65 323.11C475.531 323.203 473.536 324.134 472.103 325.698C470.671 327.262 469.918 329.331 470.01 331.45L470.2 335.93L469.84 336.08L466.84 332.77C466.13 331.995 465.275 331.367 464.323 330.923C463.37 330.478 462.34 330.226 461.29 330.18H460.94C458.937 330.178 457.007 330.928 455.53 332.28L443.3 343.49C441.737 344.924 440.807 346.92 440.716 349.039C440.624 351.158 441.377 353.226 442.81 354.79L445.81 358.09L445.71 358.27L445.62 358.46L441.18 357.87C440.832 357.827 440.481 357.804 440.13 357.8C438.184 357.804 436.307 358.517 434.849 359.806C433.391 361.094 432.453 362.87 432.21 364.8L430 381.2C429.859 382.243 429.926 383.303 430.196 384.32C430.466 385.338 430.933 386.291 431.573 387.128C432.212 387.964 433.009 388.665 433.92 389.193C434.831 389.72 435.837 390.062 436.88 390.2L441.34 390.78C441.34 390.91 441.39 391.04 441.42 391.17L437.63 393.58C435.852 394.721 434.598 396.518 434.14 398.58V398.58ZM438 382.24L440.17 365.8L450.58 367.16C451.847 363.599 453.608 360.233 455.81 357.16L448.72 349.42L460.95 338.21L468.05 345.97C471.318 344.046 474.839 342.589 478.51 341.64L478 331.1L494.57 330.38L495.03 340.87C498.774 341.482 502.411 342.627 505.83 344.27L512.23 335.95L525.38 346.05L519 354.38C521.464 357.261 523.508 360.476 525.07 363.93L535.34 361.66L538.92 377.86L528.67 380.13C528.712 383.925 528.213 387.706 527.19 391.36L536.5 396.21L528.84 410.92L519.53 406.07C517.122 409.002 514.307 411.575 511.17 413.71L515.17 423.42L499.85 429.77L495.85 420.05C493.397 420.511 490.906 420.742 488.41 420.74C487.13 420.74 485.83 420.68 484.54 420.56L481.38 430.56L465.56 425.56L468.73 415.56C465.416 413.705 462.385 411.385 459.73 408.67L450.87 414.31L441.96 400.31L450.83 394.66C449.509 391.124 448.685 387.422 448.38 383.66L438 382.24Z" fill="#18A7B5"/>
<path d="M439.54 259.56C444.264 250.492 445.191 239.92 442.12 230.168C439.048 220.416 432.228 212.284 423.16 207.56C414.092 202.837 403.519 201.909 393.768 204.98C384.016 208.052 375.884 214.872 371.16 223.94V223.94C366.437 233.008 365.509 243.581 368.58 253.332C371.652 263.084 378.472 271.217 387.54 275.94C396.608 280.664 407.181 281.591 416.932 278.52C426.684 275.448 434.817 268.628 439.54 259.56ZM391.24 268.85C384.06 265.1 378.66 258.657 376.223 250.932C373.786 243.207 374.511 234.831 378.24 227.64V227.64C381.03 222.278 385.347 217.863 390.645 214.954C395.944 212.045 401.986 210.773 408.008 211.299C414.03 211.824 419.76 214.124 424.475 217.906C429.19 221.689 432.677 226.785 434.495 232.549C436.314 238.314 436.382 244.488 434.691 250.292C433 256.095 429.627 261.266 424.996 265.152C420.366 269.038 414.688 271.463 408.679 272.121C402.671 272.78 396.602 271.641 391.24 268.85V268.85Z" fill="#18A7B5"/>
<path d="M424 330C425.05 329.998 426.089 329.79 427.06 329.39L452.06 319.04C453.031 318.639 453.914 318.051 454.658 317.308C455.401 316.566 455.992 315.684 456.395 314.714C456.798 313.744 457.006 312.703 457.007 311.653C457.007 310.602 456.801 309.561 456.4 308.59L452.22 298.48C454.193 296.857 456.079 295.131 457.87 293.31L467.57 298.31C469.435 299.278 471.606 299.473 473.613 298.854C475.621 298.235 477.304 296.85 478.3 295L490.8 271C491.78 269.118 491.972 266.924 491.334 264.901C490.697 262.877 489.282 261.19 487.4 260.21L477.7 255.21C478.168 252.696 478.502 250.159 478.7 247.61L489.38 245.24C491.451 244.781 493.255 243.518 494.396 241.729C495.536 239.94 495.919 237.771 495.46 235.7L489.61 209.28C489.218 207.5 488.23 205.908 486.81 204.766C485.39 203.624 483.622 203.001 481.8 203C481.218 203.003 480.639 203.067 480.07 203.19L469.37 205.56C468.113 203.337 466.741 201.18 465.26 199.1L471.93 190.42C472.57 189.586 473.039 188.635 473.311 187.619C473.583 186.604 473.652 185.545 473.515 184.503C473.377 183.461 473.036 182.457 472.51 181.547C471.984 180.637 471.284 179.839 470.45 179.2L449 162.68C448.166 162.04 447.215 161.571 446.199 161.299C445.184 161.027 444.125 160.958 443.083 161.095C442.041 161.233 441.037 161.574 440.127 162.1C439.217 162.626 438.419 163.326 437.78 164.16L431.12 172.83C428.723 171.931 426.279 171.16 423.8 170.52L423.33 159.6C423.24 157.54 422.357 155.594 420.867 154.168C419.376 152.743 417.392 151.948 415.33 151.95H415L388 153.13C386.95 153.175 385.919 153.426 384.966 153.87C384.014 154.314 383.157 154.94 382.447 155.715C381.737 156.489 381.186 157.396 380.826 158.384C380.466 159.371 380.304 160.42 380.35 161.47L380.83 172.47C378.424 173.32 376.064 174.295 373.76 175.39L366.36 167.3C365.65 166.525 364.795 165.897 363.843 165.453C362.89 165.008 361.86 164.756 360.81 164.71H360.46C358.457 164.708 356.527 165.458 355.05 166.81L335.06 185C333.497 186.434 332.567 188.43 332.476 190.549C332.384 192.668 333.137 194.736 334.57 196.3L341.95 204.37C341.3 205.47 340.68 206.59 340.09 207.72C339.5 208.85 338.94 210 338.41 211.17L327.57 209.74C327.219 209.692 326.865 209.669 326.51 209.67C324.564 209.674 322.687 210.387 321.229 211.676C319.772 212.964 318.833 214.74 318.59 216.67L315.06 243.49C314.919 244.533 314.986 245.593 315.256 246.61C315.526 247.628 315.994 248.582 316.633 249.418C317.272 250.254 318.069 250.955 318.98 251.483C319.891 252.01 320.897 252.352 321.94 252.49L332.81 253.92C333.234 256.434 333.788 258.924 334.47 261.38L325.22 267.27C324.333 267.834 323.566 268.568 322.963 269.429C322.36 270.29 321.933 271.261 321.705 272.287C321.478 273.314 321.455 274.374 321.637 275.41C321.82 276.445 322.205 277.434 322.77 278.32L337.3 301.14C338.438 302.919 340.233 304.175 342.293 304.636C344.354 305.097 346.513 304.725 348.3 303.6L357.53 297.72C359.473 299.383 361.502 300.942 363.61 302.39L360.32 312.83C359.693 314.85 359.891 317.035 360.871 318.909C361.851 320.783 363.534 322.193 365.55 322.83L391.38 331C392.16 331.244 392.973 331.369 393.79 331.37C395.491 331.37 397.148 330.829 398.52 329.823C399.892 328.818 400.908 327.402 401.42 325.78L404.71 315.34H405.26C407.633 315.34 410.003 315.227 412.37 315L416.56 325.12C417.178 326.579 418.214 327.821 419.539 328.69C420.863 329.559 422.416 330.015 424 330ZM405.31 307.28C403.21 307.28 401.103 307.18 398.99 306.98L393.84 323.31L368 315.21L373.16 298.87C367.763 295.841 362.826 292.056 358.5 287.63L344.06 296.83L329.51 274L344 264.79C341.828 259.008 340.481 252.948 340 246.79L323 244.55L326.53 217.72L343.53 219.95C344.563 217.042 345.796 214.208 347.22 211.47C348.646 208.73 350.263 206.093 352.06 203.58L340.5 190.95L360.45 172.67L372 185.31C377.327 182.177 383.066 179.804 389.05 178.26L388.3 161.12L415.3 159.95L416.04 177.05C422.144 178.059 428.073 179.931 433.65 182.61L444.13 169L465.58 185.48L455.15 199.06C459.169 203.76 462.503 209.005 465.05 214.64L481.8 211L487.64 237.42L470.92 241.13C470.993 247.316 470.184 253.481 468.52 259.44L483.7 267.35L471.2 291.35L456 283.39C452.07 288.171 447.481 292.369 442.37 295.86L448.92 311.69L424 322L417.44 306.15C413.425 306.918 409.348 307.31 405.26 307.32L405.31 307.28Z" fill="#18A7B5"/>
<path d="M581.18 437.36C578.007 435.718 574.312 435.401 570.905 436.476C567.498 437.552 564.655 439.934 563 443.1C561.975 445.069 561.451 447.261 561.474 449.48C561.498 451.7 562.069 453.88 563.137 455.827C564.204 457.773 565.735 459.426 567.594 460.64C569.453 461.854 571.582 462.59 573.794 462.784C576.005 462.978 578.231 462.624 580.272 461.752C582.314 460.881 584.11 459.519 585.5 457.788C586.89 456.058 587.831 454.01 588.241 451.829C588.651 449.647 588.517 447.398 587.85 445.28C587.322 443.582 586.46 442.007 585.314 440.647C584.169 439.287 582.763 438.169 581.18 437.36V437.36ZM572.41 454.21C571.444 453.708 570.649 452.931 570.126 451.977C569.602 451.022 569.373 449.934 569.468 448.85C569.563 447.766 569.977 446.734 570.659 445.886C571.341 445.037 572.259 444.41 573.297 444.083C574.335 443.757 575.447 443.746 576.492 444.052C577.536 444.357 578.467 444.966 579.165 445.801C579.864 446.636 580.299 447.659 580.415 448.741C580.532 449.823 580.325 450.916 579.82 451.88C579.143 453.168 577.984 454.136 576.595 454.573C575.207 455.009 573.702 454.879 572.41 454.21V454.21Z" fill="#18A7B5"/>
<path d="M605.39 446.4L603.78 439.14C603.318 437.075 602.056 435.277 600.27 434.14C600.025 433.983 599.771 433.84 599.51 433.71C599.483 432.513 599.188 431.337 598.647 430.269C598.105 429.201 597.33 428.269 596.38 427.54L590.48 423.01C589.083 421.939 587.371 421.359 585.61 421.36C584.97 421.358 584.333 421.432 583.71 421.58C583.52 421.37 583.31 421.16 583.1 420.96C581.623 419.608 579.693 418.858 577.69 418.86H577.34L569.91 419.18C568.86 419.226 567.83 419.478 566.877 419.923C565.925 420.367 565.07 420.995 564.36 421.77C564.163 421.982 563.979 422.206 563.81 422.44C563.523 422.39 563.232 422.36 562.94 422.35H562.59C560.586 422.351 558.656 423.104 557.18 424.46L551.7 429.46C550.817 430.269 550.127 431.266 549.68 432.377C549.234 433.488 549.042 434.685 549.12 435.88C548.096 436.502 547.225 437.346 546.57 438.35C545.916 439.354 545.496 440.492 545.34 441.68L544.34 449.05C544.183 450.238 544.294 451.446 544.667 452.585C545.039 453.723 545.662 454.764 546.49 455.63C546.104 456.763 545.977 457.969 546.119 459.158C546.261 460.347 546.668 461.489 547.31 462.5L551.31 468.77C552.445 470.559 554.243 471.825 556.31 472.29C556.598 472.351 556.888 472.398 557.18 472.43C557.282 472.705 557.402 472.972 557.54 473.23C558.521 475.11 560.208 476.523 562.23 477.16L569.32 479.4C570.1 479.645 570.913 479.77 571.73 479.77C573.311 479.769 574.856 479.299 576.17 478.42C577.22 478.997 578.386 479.33 579.582 479.396C580.778 479.462 581.973 479.258 583.08 478.8L590 476C591.108 475.541 592.098 474.839 592.898 473.946C593.697 473.053 594.286 471.991 594.62 470.84C594.908 470.79 595.192 470.72 595.47 470.63C596.472 470.314 597.402 469.803 598.207 469.127C599.012 468.451 599.676 467.623 600.16 466.69L603.6 460.1C604.085 459.168 604.381 458.149 604.472 457.103C604.563 456.056 604.447 455.002 604.13 454C604.043 453.721 603.94 453.447 603.82 453.18C604.576 452.241 605.109 451.144 605.381 449.97C605.653 448.796 605.656 447.575 605.39 446.4V446.4ZM596.49 456.4L593.05 463L588.88 460.82C587.8 462.136 586.537 463.291 585.13 464.25L586.93 468.6L580.06 471.45L578.25 467.09C577.152 467.299 576.037 467.402 574.92 467.4C574.339 467.403 573.758 467.377 573.18 467.32L571.77 471.81L564.67 469.57L566.09 465.08C564.616 464.247 563.269 463.206 562.09 461.99L558.09 464.52L554.09 458.24L558.09 455.71C557.496 454.119 557.125 452.453 556.99 450.76L552.32 450.14L553.32 442.76L557.99 443.38C558.269 442.578 558.603 441.796 558.99 441.04C559.386 440.289 559.83 439.564 560.32 438.87L557.14 435.4L562.63 430.4L565.81 433.88C567.278 433.023 568.856 432.37 570.5 431.94L570.3 427.23L577.73 426.91L577.94 431.61C579.618 431.889 581.247 432.404 582.78 433.14L585.65 429.41L591.55 433.94L588.68 437.67C589.786 438.963 590.702 440.408 591.4 441.96L596.01 440.96L597.61 448.22L593.02 449.22C593.031 450.91 592.805 452.593 592.35 454.22L596.49 456.4Z" fill="#18A7B5"/>
<path d="M389.62 367.32C386.444 365.669 382.742 365.346 379.328 366.422C375.913 367.498 373.066 369.886 371.41 373.06V373.06C369.757 376.236 369.432 379.939 370.509 383.354C371.585 386.769 373.974 389.616 377.15 391.27C380.326 392.924 384.029 393.248 387.444 392.171C390.859 391.095 393.707 388.706 395.36 385.53C397.011 382.354 397.334 378.652 396.258 375.237C395.182 371.823 392.794 368.975 389.62 367.32V367.32ZM380.85 384.17C379.889 383.666 379.099 382.889 378.58 381.937C378.06 380.984 377.834 379.899 377.931 378.818C378.028 377.737 378.443 376.71 379.123 375.865C379.804 375.019 380.719 374.395 381.754 374.07C382.79 373.745 383.898 373.734 384.939 374.038C385.981 374.343 386.909 374.949 387.606 375.78C388.303 376.611 388.738 377.631 388.857 378.709C388.975 379.788 388.771 380.877 388.27 381.84C387.591 383.129 386.43 384.097 385.04 384.534C383.65 384.97 382.144 384.839 380.85 384.17V384.17Z" fill="#18A7B5"/>
<path d="M413.83 376.36L412.22 369.1C411.758 367.035 410.496 365.237 408.71 364.1C408.465 363.943 408.211 363.8 407.95 363.67C407.924 362.473 407.628 361.297 407.087 360.229C406.545 359.161 405.77 358.229 404.82 357.5L398.92 352.97C397.53 351.892 395.82 351.308 394.06 351.31C393.417 351.311 392.776 351.388 392.15 351.54C391.401 350.687 390.478 350.003 389.443 349.534C388.409 349.065 387.286 348.822 386.15 348.82H385.79L378.36 349.15C377.31 349.196 376.28 349.449 375.328 349.893C374.375 350.337 373.52 350.965 372.81 351.74C372.611 351.95 372.427 352.174 372.26 352.41C371.973 352.36 371.682 352.33 371.39 352.32H371C368.998 352.318 367.067 353.068 365.59 354.42L360.11 359.42C359.227 360.229 358.537 361.226 358.09 362.337C357.644 363.448 357.452 364.645 357.53 365.84C356.506 366.462 355.635 367.306 354.98 368.31C354.326 369.314 353.906 370.452 353.75 371.64L352.75 379.01C352.48 381.116 353.051 383.243 354.34 384.93C354.52 385.163 354.71 385.383 354.91 385.59C354.524 386.724 354.397 387.929 354.539 389.118C354.681 390.307 355.088 391.449 355.73 392.46L359.73 398.74C360.867 400.525 362.665 401.788 364.73 402.25C365.018 402.311 365.308 402.358 365.6 402.39C365.702 402.665 365.822 402.932 365.96 403.19C366.941 405.07 368.628 406.483 370.65 407.12L377.74 409.36C378.884 409.717 380.093 409.812 381.279 409.639C382.465 409.466 383.596 409.029 384.59 408.36C385.769 409.012 387.093 409.356 388.44 409.36C389.491 409.363 390.531 409.155 391.5 408.75L398.38 405.91C399.485 405.451 400.472 404.75 401.27 403.859C402.068 402.967 402.656 401.909 402.99 400.76C404.165 400.527 405.273 400.034 406.232 399.315C407.191 398.597 407.976 397.672 408.53 396.61L412 390C412.485 389.068 412.781 388.049 412.872 387.003C412.963 385.956 412.847 384.902 412.53 383.9C412.447 383.621 412.347 383.347 412.23 383.08C412.982 382.151 413.516 381.065 413.793 379.902C414.07 378.739 414.083 377.529 413.83 376.36ZM404.93 386.36L401.5 392.96L397.32 390.78C396.245 392.101 394.981 393.257 393.57 394.21L395.37 398.57L388.5 401.41L386.7 397C385.599 397.211 384.481 397.319 383.36 397.32C382.779 397.32 382.198 397.29 381.62 397.23L380.21 401.72L373.11 399.49L374.53 394.99C373.056 394.157 371.709 393.116 370.53 391.9L366.53 394.43L362.53 388.15L366.53 385.62C365.936 384.029 365.565 382.363 365.43 380.67L360.76 380.05L361.76 372.67L366.43 373.29C366.709 372.488 367.043 371.706 367.43 370.95C367.826 370.199 368.27 369.474 368.76 368.78L365.58 365.31L371.07 360.31L374.25 363.79C375.718 362.933 377.296 362.28 378.94 361.85L378.74 357.14L386.17 356.82L386.38 361.52C388.058 361.799 389.687 362.314 391.22 363.05L394.09 359.31L399.99 363.85L397.12 367.58C398.23 368.871 399.146 370.316 399.84 371.87L404.45 370.87L406.06 378.13L401.46 379.13C401.474 380.819 401.252 382.502 400.8 384.13L404.93 386.36Z" fill="#18A7B5"/>
<path d="M652 485.94C649.511 484.666 646.657 484.294 643.924 484.887C641.191 485.481 638.749 487.004 637.013 489.196C635.277 491.389 634.354 494.115 634.403 496.911C634.451 499.707 635.467 502.4 637.278 504.531C639.089 506.662 641.583 508.099 644.335 508.598C647.087 509.097 649.926 508.626 652.37 507.266C654.813 505.906 656.71 503.742 657.737 501.14C658.763 498.539 658.856 495.662 658 493C657.518 491.484 656.739 490.08 655.709 488.868C654.679 487.656 653.418 486.66 652 485.94V485.94ZM644.54 500.27C643.824 499.899 643.234 499.323 642.845 498.616C642.456 497.909 642.286 497.103 642.357 496.299C642.428 495.495 642.736 494.73 643.242 494.102C643.748 493.474 644.43 493.01 645.2 492.77C645.71 492.609 646.246 492.55 646.778 492.596C647.311 492.643 647.829 492.794 648.303 493.041C648.776 493.288 649.197 493.626 649.54 494.036C649.882 494.446 650.141 494.92 650.3 495.43C650.465 495.939 650.525 496.475 650.479 497.007C650.433 497.54 650.28 498.058 650.03 498.53C649.533 499.481 648.681 500.198 647.658 500.524C646.636 500.85 645.526 500.758 644.57 500.27H644.54Z" fill="#18A7B5"/>
<path d="M673.49 493.9L672.13 487.73C671.668 485.665 670.405 483.867 668.62 482.73L668.48 482.64C668.361 481.569 668.026 480.534 667.497 479.596C666.968 478.658 666.255 477.836 665.4 477.18L660.4 473.33C659.005 472.261 657.297 471.681 655.54 471.68C655.135 471.68 654.731 471.71 654.33 471.77C652.844 470.348 650.867 469.553 648.81 469.55H648.46L642.14 469.83C640.021 469.92 638.025 470.848 636.59 472.41L636.48 472.53H636C634 472.525 632.071 473.275 630.6 474.63L625.93 478.9C625.136 479.628 624.498 480.51 624.052 481.491C623.607 482.472 623.365 483.533 623.34 484.61C622.472 485.249 621.742 486.056 621.194 486.984C620.646 487.912 620.291 488.942 620.15 490.01L619.32 496.28C619.043 498.382 619.611 500.507 620.9 502.19C620.937 502.231 620.97 502.274 621 502.32C620.743 503.364 620.699 504.45 620.871 505.512C621.042 506.574 621.427 507.59 622 508.5L625.4 513.84C626.537 515.625 628.335 516.888 630.4 517.35H630.56L630.63 517.49C631.115 518.423 631.778 519.251 632.583 519.927C633.388 520.603 634.318 521.114 635.32 521.43L641.32 523.33C642.348 523.654 643.43 523.767 644.502 523.662C645.575 523.557 646.615 523.237 647.56 522.72C648.575 523.166 649.671 523.398 650.78 523.4C651.831 523.399 652.872 523.189 653.84 522.78L659.68 520.37C660.676 519.958 661.578 519.348 662.333 518.578C663.087 517.808 663.678 516.894 664.07 515.89H664.22C666.242 515.253 667.929 513.84 668.91 511.96L671.84 506.35C672.325 505.418 672.621 504.399 672.712 503.353C672.803 502.306 672.687 501.252 672.37 500.25C672.37 500.2 672.37 500.15 672.37 500.09C672.965 499.188 673.372 498.174 673.564 497.11C673.757 496.046 673.731 494.954 673.49 493.9ZM664.76 502.62L661.84 508.23L658.29 506.38C657.375 507.497 656.304 508.477 655.11 509.29L656.64 512.99L650.8 515.41L649.26 511.71C647.839 511.973 646.389 512.037 644.95 511.9L643.75 515.72L637.75 513.82L638.95 510C637.694 509.286 636.543 508.401 635.53 507.37L632.15 509.52L628.76 504.19L632.14 502.03C631.63 500.682 631.317 499.267 631.21 497.83L627.21 497.3L628 491L632 491.52C632.237 490.833 632.525 490.165 632.86 489.52C633.195 488.882 633.573 488.268 633.99 487.68L631.29 484.68L635.95 480.41L638.66 483.36C639.91 482.627 641.256 482.071 642.66 481.71L642.49 477.71L648.8 477.43L648.98 481.43C650.405 481.665 651.789 482.103 653.09 482.73L655.53 479.56L660.53 483.41L658.09 486.58C659.024 487.681 659.802 488.906 660.4 490.22L664.32 489.36L665.68 495.53L661.77 496.4C661.792 497.843 661.603 499.281 661.21 500.67L664.76 502.62Z" fill="#18A7B5"/>
<path d="M533.5 273.93C530.659 272.451 527.348 272.161 524.293 273.123C521.238 274.085 518.691 276.22 517.21 279.06V279.06C515.735 281.901 515.448 285.211 516.412 288.264C517.375 291.316 519.511 293.861 522.35 295.34C524.062 296.24 525.966 296.71 527.9 296.71C530.606 296.718 533.236 295.816 535.367 294.15C537.499 292.483 539.009 290.149 539.655 287.521C540.301 284.894 540.045 282.126 538.929 279.661C537.813 277.196 535.901 275.178 533.5 273.93V273.93ZM526 288.25C525.287 287.877 524.701 287.301 524.316 286.595C523.93 285.889 523.763 285.085 523.834 284.283C523.905 283.482 524.213 282.72 524.717 282.093C525.221 281.467 525.9 281.003 526.667 280.762C527.434 280.521 528.256 280.512 529.028 280.737C529.8 280.963 530.488 281.412 531.005 282.028C531.523 282.644 531.846 283.399 531.934 284.199C532.022 284.998 531.871 285.806 531.5 286.52C531 287.478 530.139 288.199 529.108 288.523C528.077 288.847 526.959 288.749 526 288.25Z" fill="#18A7B5"/>
<path d="M553.6 275.71C553.138 273.645 551.875 271.847 550.09 270.71L549.95 270.63C549.831 269.559 549.496 268.524 548.967 267.586C548.438 266.648 547.725 265.826 546.87 265.17L541.87 261.31C540.473 260.239 538.761 259.659 537 259.66C536.595 259.66 536.191 259.69 535.79 259.75C534.302 258.332 532.326 257.54 530.27 257.54H529.92L523.6 257.82C522.525 257.867 521.471 258.13 520.5 258.594C519.529 259.058 518.662 259.713 517.95 260.52H517.43C515.431 260.521 513.504 261.27 512.03 262.62L507.37 266.89C506.574 267.617 505.934 268.498 505.487 269.48C505.04 270.461 504.796 271.522 504.77 272.6C503.902 273.239 503.172 274.046 502.624 274.974C502.076 275.902 501.721 276.931 501.58 278L500.75 284.27C500.616 285.332 500.696 286.411 500.987 287.441C501.277 288.472 501.771 289.434 502.44 290.27C502.181 291.316 502.137 292.403 502.308 293.467C502.48 294.531 502.865 295.549 503.44 296.46L506.84 301.79C507.975 303.579 509.773 304.845 511.84 305.31H512C512 305.31 512.05 305.41 512.08 305.45C512.565 306.383 513.228 307.211 514.033 307.887C514.838 308.563 515.768 309.074 516.77 309.39L522.77 311.29C523.547 311.535 524.356 311.66 525.17 311.66C526.514 311.657 527.835 311.313 529.01 310.66C529.996 311.096 531.06 311.327 532.138 311.339C533.216 311.351 534.285 311.144 535.28 310.73L541.12 308.31C542.118 307.901 543.021 307.292 543.776 306.522C544.531 305.752 545.121 304.836 545.51 303.83L545.67 303.78C547.692 303.143 549.379 301.73 550.36 299.85L553.28 294.24C553.765 293.308 554.061 292.289 554.152 291.243C554.243 290.196 554.127 289.142 553.81 288.14C553.798 288.089 553.781 288.038 553.76 287.99C554.359 287.093 554.771 286.084 554.971 285.024C555.17 283.963 555.153 282.874 554.92 281.82L553.6 275.71ZM546.23 290.61L543.31 296.21L539.76 294.36C538.845 295.48 537.774 296.463 536.58 297.28L538.11 300.98L532.27 303.4L530.74 299.69C529.804 299.87 528.853 299.961 527.9 299.96C527.41 299.96 526.9 299.96 526.43 299.89L525.22 303.7L519.22 301.8L520.4 298C519.135 297.295 517.979 296.409 516.97 295.37L513.6 297.53L510.2 292.19L513.58 290.04C513.076 288.687 512.763 287.27 512.65 285.83L508.65 285.3L509.47 279.04L513.47 279.56C513.71 278.874 513.998 278.206 514.33 277.56C514.665 276.922 515.043 276.307 515.46 275.72L512.76 272.77L517.42 268.5L520.13 271.45C521.381 270.721 522.727 270.17 524.13 269.81L523.96 265.81L530.28 265.54L530.45 269.54C531.877 269.781 533.263 270.218 534.57 270.84L537.01 267.67L542.01 271.52L539.57 274.69C540.51 275.793 541.29 277.021 541.89 278.34L545.8 277.47L547.17 283.64L543.26 284.51C543.272 285.956 543.083 287.396 542.7 288.79L546.23 290.61Z" fill="#18A7B5"/>
<path d="M300.77 324.89C295.015 321.899 288.308 321.313 282.121 323.261C275.935 325.209 270.773 329.531 267.77 335.28C265.535 339.57 264.623 344.427 265.148 349.236C265.673 354.044 267.613 358.59 270.721 362.296C273.829 366.003 277.966 368.705 282.61 370.06C287.254 371.416 292.195 371.364 296.809 369.911C301.423 368.458 305.503 365.67 308.533 361.899C311.562 358.127 313.405 353.542 313.829 348.724C314.253 343.905 313.239 339.069 310.914 334.826C308.59 330.584 305.06 327.126 300.77 324.89V324.89ZM304.06 354.18C303.108 356.173 301.765 357.953 300.11 359.416C298.455 360.879 296.523 361.993 294.429 362.694C292.335 363.394 290.121 363.666 287.919 363.493C285.718 363.32 283.573 362.706 281.614 361.687C279.655 360.668 277.921 359.265 276.515 357.562C275.109 355.859 274.06 353.891 273.431 351.774C272.801 349.657 272.605 347.435 272.852 345.241C273.099 343.046 273.785 340.924 274.87 339V339C276.946 335.238 280.41 332.437 284.524 331.195C288.637 329.953 293.073 330.368 296.884 332.353C300.695 334.337 303.579 337.733 304.92 341.816C306.261 345.898 305.952 350.342 304.06 354.2V354.18Z" fill="#18A7B5"/>
<path d="M339.92 351.8C341.991 351.341 343.796 350.078 344.936 348.289C346.076 346.5 346.459 344.331 346 342.26L342.54 326.62C342.146 324.842 341.158 323.252 339.738 322.112C338.318 320.972 336.551 320.35 334.73 320.35C334.148 320.348 333.568 320.412 333 320.54L329 321.43L331.52 318.15C332.158 317.314 332.625 316.36 332.893 315.343C333.162 314.327 333.228 313.267 333.087 312.225C332.945 311.183 332.6 310.179 332.071 309.27C331.541 308.362 330.837 307.566 330 306.93L317.3 297.18C316.467 296.54 315.516 296.07 314.501 295.797C313.486 295.524 312.428 295.454 311.386 295.591C310.344 295.727 309.339 296.068 308.429 296.593C307.518 297.117 306.72 297.817 306.08 298.65L303.57 301.92L303.39 297.8C303.303 295.738 302.421 293.789 300.93 292.362C299.439 290.934 297.454 290.138 295.39 290.14H295L279 290.84C277.95 290.885 276.919 291.136 275.967 291.58C275.014 292.024 274.158 292.65 273.447 293.425C272.737 294.199 272.186 295.106 271.826 296.094C271.466 297.081 271.305 298.13 271.35 299.18L271.53 303.32L268.73 300.26C268.021 299.485 267.165 298.857 266.213 298.413C265.261 297.968 264.23 297.716 263.18 297.67H262.83C260.831 297.671 258.905 298.42 257.43 299.77L245.65 310.6C244.086 312.032 243.154 314.027 243.061 316.146C242.967 318.265 243.719 320.335 245.15 321.9L247.94 324.9L243.85 324.36C243.498 324.32 243.144 324.3 242.79 324.3C240.852 324.303 238.981 325.009 237.524 326.287C236.068 327.565 235.125 329.329 234.87 331.25L232.78 347.13C232.64 348.173 232.706 349.233 232.976 350.25C233.246 351.268 233.714 352.221 234.353 353.058C234.992 353.894 235.79 354.595 236.7 355.123C237.611 355.65 238.617 355.992 239.66 356.13L243.77 356.67L240.28 358.9C238.503 360.039 237.249 361.835 236.79 363.895C236.331 365.956 236.705 368.114 237.83 369.9L246.43 383.42C247.567 385.205 249.365 386.467 251.43 386.93C251.998 387.058 252.578 387.122 253.16 387.12C254.683 387.118 256.174 386.684 257.46 385.87L260.94 383.65L259.7 387.59C259.073 389.608 259.27 391.793 260.248 393.667C261.226 395.54 262.906 396.951 264.92 397.59L280.2 402.4C280.975 402.652 281.785 402.78 282.6 402.78C284.302 402.78 285.96 402.236 287.332 401.229C288.704 400.222 289.72 398.804 290.23 397.18L291.48 393.24L293.06 397.06C293.872 399.02 295.429 400.577 297.389 401.389C299.348 402.201 301.55 402.201 303.51 401.39L318.31 395.26C320.27 394.448 321.827 392.891 322.639 390.932C323.451 388.972 323.451 386.77 322.64 384.81L321.06 381L324.72 382.9C325.862 383.497 327.132 383.809 328.42 383.81C329.235 383.812 330.044 383.687 330.82 383.44C332.843 382.803 334.529 381.39 335.51 379.51L342.91 365.3C343.89 363.418 344.082 361.224 343.445 359.201C342.807 357.177 341.392 355.49 339.51 354.51L335.86 352.6L339.92 351.8ZM335.86 361.71L328.46 375.92L319.46 371.24C317.134 374.07 314.417 376.555 311.39 378.62L315.27 387.99L300.47 394.12L296.58 384.74C294.213 385.184 291.809 385.408 289.4 385.41C288.16 385.41 286.91 385.35 285.66 385.23L282.61 394.89L267.34 390.08L270.34 380.4C267.145 378.605 264.222 376.362 261.66 373.74L253.11 379.19L244.51 365.68L253.07 360.22C251.787 356.795 250.992 353.207 250.71 349.56L240.64 348.23L242.73 332.35L252.79 333.67C253.399 331.954 254.127 330.283 254.97 328.67C255.838 327.048 256.817 325.487 257.9 324L251.05 316.52L262.86 305.7L269.72 313.19C272.875 311.334 276.275 309.93 279.82 309.02L279.37 298.87L295.37 298.17L295.81 308.3C299.425 308.9 302.936 310.007 306.24 311.59L312.42 303.59L325.12 313.35L318.95 321.35C321.327 324.137 323.299 327.244 324.81 330.58L334.72 328.38L338.19 344L328.29 346.2C328.329 349.849 327.851 353.485 326.87 357L335.86 361.71Z" fill="#18A7B5"/>
<path d="M756.91 181.76C756.65 181.711 756.385 181.691 756.12 181.7C755.848 181.704 755.577 181.734 755.31 181.79V181.79C755.054 181.852 754.803 181.936 754.56 182.04C754.473 182.084 754.39 182.134 754.31 182.19C754.057 182.3 753.827 182.456 753.63 182.65C753.52 182.74 753.4 182.83 753.3 182.93L753.1 183.18C753.01 183.3 752.91 183.41 752.83 183.54C752.765 183.639 752.709 183.742 752.66 183.85C752.6 183.97 752.53 184.09 752.47 184.22C752.389 184.43 752.329 184.648 752.29 184.87C752.284 184.903 752.284 184.937 752.29 184.97V184.97C752.242 185.234 752.219 185.502 752.22 185.77C752.222 186.04 752.256 186.308 752.32 186.57L775.6 290.21L736 283.38H735.9C735.79 283.38 735.68 283.38 735.57 283.38H735.26H735.15C735.002 283.386 734.855 283.403 734.71 283.43H734.54H734.41C734.283 283.463 734.16 283.506 734.04 283.56C733.966 283.575 733.892 283.595 733.82 283.62H733.75H733.68L733.35 283.8C733.275 283.836 733.201 283.876 733.13 283.92V283.92H733.07C732.966 284.001 732.865 284.088 732.77 284.18C732.699 284.228 732.632 284.281 732.57 284.34V284.39C732.481 284.489 732.398 284.592 732.32 284.7L732.15 284.91V284.97C732.064 285.111 731.987 285.258 731.92 285.41V285.46L731.86 285.57V285.64C731.802 285.792 731.758 285.95 731.73 286.11C731.706 286.168 731.686 286.229 731.67 286.29V286.29C731.664 286.313 731.664 286.337 731.67 286.36V286.36C731.666 286.38 731.666 286.4 731.67 286.42L698.62 509.66C698.474 510.667 698.717 511.693 699.301 512.527C699.884 513.361 700.764 513.942 701.76 514.15L768.41 527.93L741 662.88C740.791 663.92 741.003 665 741.59 665.883C742.177 666.766 743.091 667.38 744.13 667.59C744.393 667.647 744.661 667.674 744.93 667.67C745.851 667.668 746.742 667.348 747.454 666.766C748.167 666.183 748.656 665.372 748.84 664.47L776.25 529.55L788.25 532.03C788.32 532.035 788.39 532.035 788.46 532.03H788.58C788.844 532.081 789.112 532.108 789.38 532.11C789.913 532.11 790.44 532.005 790.931 531.798C791.422 531.592 791.867 531.29 792.24 530.91L830.75 491.68L773.11 677.14C772.797 678.152 772.898 679.246 773.391 680.184C773.885 681.121 774.729 681.825 775.74 682.14C776.126 682.258 776.527 682.318 776.93 682.32C777.783 682.32 778.614 682.048 779.301 681.542C779.989 681.037 780.496 680.325 780.75 679.51L843.32 478.31C843.32 478.31 843.32 478.24 843.32 478.21C843.395 477.959 843.445 477.701 843.47 477.44V477.44C843.495 477.181 843.495 476.919 843.47 476.66C843.47 476.6 843.47 476.54 843.47 476.49C843.435 476.248 843.375 476.01 843.29 475.78V475.69C843.2 475.472 843.093 475.262 842.97 475.06V474.97V474.92C842.829 474.706 842.665 474.508 842.48 474.33C842.448 474.292 842.411 474.258 842.37 474.23C842.203 474.067 842.018 473.923 841.82 473.8L841.73 473.74C841.511 473.608 841.28 473.498 841.04 473.41L840.88 473.36C840.63 473.275 840.372 473.215 840.11 473.18L818.85 470.81L812.46 470.1L838.97 389.16L920.1 403.11C920.618 403.199 921.149 403.185 921.661 403.069C922.174 402.952 922.659 402.736 923.088 402.433C923.517 402.129 923.882 401.744 924.162 401.299C924.442 400.854 924.632 400.358 924.72 399.84C924.838 399.17 924.779 398.481 924.55 397.84C924.545 397.8 924.545 397.76 924.55 397.72C924.55 397.59 924.55 397.46 924.55 397.33C924.55 397.2 924.55 397.07 924.55 396.94C924.55 396.81 924.55 396.69 924.55 396.57C924.55 396.45 924.55 396.29 924.47 396.14C924.475 396.09 924.475 396.04 924.47 395.99L895.81 296.69L925.73 304.79H925.94H926.13H926.24H926.61H926.77C926.964 304.789 927.158 304.772 927.35 304.74H927.46H927.55L927.9 304.65L928.11 304.57L928.27 304.52L928.45 304.43L928.68 304.3L928.85 304.21L928.97 304.12C929.1 304.029 929.224 303.928 929.34 303.82L929.48 303.71C929.649 303.543 929.8 303.359 929.93 303.16V303.16C930.049 302.976 930.153 302.782 930.24 302.58V302.53C930.265 302.465 930.285 302.398 930.3 302.33C930.346 302.222 930.386 302.112 930.42 302C930.42 302 930.42 301.94 930.42 301.9V301.8C930.42 301.69 930.42 301.58 930.42 301.48C930.42 301.38 930.42 301.24 930.42 301.12C930.42 301 930.42 301.05 930.42 301.02C930.42 300.99 930.42 300.86 930.42 300.78V300.73C930.42 300.6 930.42 300.47 930.42 300.34C930.42 300.21 930.42 300.26 930.42 300.22L890.14 93C889.984 92.1734 889.57 91.4171 888.959 90.8388C888.348 90.2605 887.571 89.8896 886.737 89.7788C885.903 89.6681 885.055 89.8231 884.314 90.2219C883.573 90.6207 882.977 91.2429 882.61 92L833.14 195.83L756.92 181.76H756.91ZM817.8 478.76L830.89 480.22L798 513.67L809.74 477.83L817.8 478.76ZM803.17 472.28L786.4 523.48L773.93 520.9H773.76L707.08 507.11L738.63 292L780.09 299.15L855.58 312.15L835.25 374.3L832.25 383.3L803.17 472.28ZM841.33 381.48L842.85 376.83L862.11 318L913.42 393.85L841.33 381.48ZM893 287.71L876.59 230.85L917.59 294.36L893 287.71ZM884.57 106.41L918.67 281.32L868.6 203.66L868.46 203.49L868.24 203.22C868.19 203.22 868.15 203.1 868.1 203.05L867.94 202.92C867.858 202.841 867.771 202.768 867.68 202.7C867.62 202.7 867.56 202.6 867.49 202.56C867.437 202.521 867.38 202.488 867.32 202.46C867.227 202.401 867.13 202.347 867.03 202.3L866.81 202.19L866.63 202.13L866.3 202.03L866.05 201.96L841.37 197.41L884.57 106.41ZM834.67 204.26L862.04 209.31L886 292.09V292.18C886 292.27 886.07 292.36 886.11 292.45V292.53C886.11 292.65 886.11 292.78 886.17 292.91L909.56 373.91L864.12 306.74L864.04 306.64C863.959 306.536 863.872 306.435 863.78 306.34C863.72 306.27 863.67 306.2 863.61 306.14L863.52 306.07C863.428 305.985 863.331 305.905 863.23 305.83C863.15 305.77 863.08 305.7 863 305.65L862.9 305.6L862.59 305.44C862.5 305.387 862.406 305.341 862.31 305.3H862.17H862.07L861.85 305.25L861.55 305.17L784.1 291.68L761.42 190.68L834.67 204.26Z" fill="#18A7B5"/>
<path d="M63.4703 370.15C64.5786 370.388 65.7361 370.178 66.6898 369.565C67.6435 368.952 68.316 367.987 68.5602 366.88L104.3 202.68L103.56 202.32L104.3 202.68L123.76 193.15L124.08 193.02L500 9.00003L501.77 0.750026L500 9.00003L811.68 161.57C812.7 162.069 813.876 162.142 814.95 161.773C816.023 161.405 816.907 160.625 817.405 159.605C817.904 158.585 817.977 157.409 817.608 156.336C817.24 155.262 816.46 154.379 815.44 153.88L501.84 0.440026C501.256 0.148633 500.613 -0.00305176 499.96 -0.00305176C499.308 -0.00305176 498.664 0.148633 498.08 0.440026L134.16 178.56L133.99 178.62L98.6802 195.9C98.1017 196.185 97.5946 196.596 97.1965 197.103C96.7984 197.61 96.5194 198.2 96.3802 198.83V198.83L60.2002 365.05C59.9593 366.16 60.1682 367.32 60.7811 368.276C61.3941 369.232 62.3612 369.906 63.4703 370.15V370.15Z" fill="#18A7B5"/>
<path d="M178.94 584.05C179.685 584.217 180.462 584.159 181.174 583.885C181.886 583.61 182.501 583.131 182.94 582.507C183.38 581.883 183.624 581.143 183.644 580.38C183.663 579.618 183.455 578.866 183.048 578.221C182.64 577.576 182.05 577.067 181.353 576.756C180.656 576.446 179.882 576.35 179.13 576.479C178.378 576.609 177.682 576.958 177.128 577.483C176.575 578.008 176.189 578.686 176.02 579.43C175.908 579.925 175.895 580.438 175.981 580.938C176.067 581.438 176.251 581.917 176.522 582.346C176.793 582.775 177.146 583.146 177.561 583.439C177.976 583.731 178.445 583.939 178.94 584.05V584.05Z" fill="#18A7B5"/>
<path d="M225.3 586.37C226.045 586.537 226.822 586.479 227.534 586.205C228.246 585.93 228.86 585.451 229.3 584.827C229.739 584.203 229.984 583.463 230.003 582.7C230.023 581.938 229.815 581.186 229.408 580.541C229 579.896 228.41 579.387 227.713 579.076C227.016 578.766 226.242 578.67 225.49 578.799C224.738 578.929 224.042 579.278 223.488 579.803C222.934 580.328 222.549 581.006 222.38 581.75C222.156 582.75 222.338 583.798 222.885 584.664C223.433 585.53 224.301 586.143 225.3 586.37V586.37Z" fill="#18A7B5"/>
<path d="M761.79 351.29C761.045 351.123 760.268 351.181 759.556 351.455C758.844 351.73 758.23 352.209 757.79 352.833C757.351 353.457 757.106 354.197 757.087 354.96C757.068 355.722 757.275 356.474 757.683 357.119C758.09 357.764 758.68 358.274 759.377 358.584C760.074 358.894 760.848 358.99 761.6 358.861C762.352 358.731 763.049 358.382 763.602 357.857C764.156 357.332 764.541 356.654 764.71 355.91C764.934 354.91 764.752 353.863 764.205 352.996C763.658 352.13 762.789 351.517 761.79 351.29Z" fill="#18A7B5"/>
<path d="M808.15 353.62C807.406 353.453 806.628 353.511 805.916 353.785C805.205 354.06 804.59 354.539 804.151 355.163C803.711 355.787 803.466 356.527 803.447 357.29C803.428 358.052 803.635 358.804 804.043 359.449C804.451 360.094 805.04 360.603 805.737 360.914C806.435 361.224 807.208 361.32 807.96 361.191C808.712 361.061 809.409 360.712 809.962 360.187C810.516 359.662 810.902 358.984 811.07 358.24C811.294 357.24 811.113 356.192 810.565 355.326C810.018 354.46 809.149 353.847 808.15 353.62Z" fill="#18A7B5"/>
</g>
<defs>
<clipPath id="clip0">
<rect width="1000" height="1000" fill="white"/>
</clipPath>
</defs>
</svg>
