<svg width="1000" height="1000" viewBox="0 0 1000 1000" fill="none" xmlns="http://www.w3.org/2000/svg">
<g clip-path="url(#clip0)">
<path d="M673.129 859.958C673.129 859.868 673.129 859.768 673.179 859.678C673.23 859.418 673.257 859.153 673.259 858.888V858.568C673.242 858.281 673.195 857.996 673.119 857.718V857.559C673.011 857.237 672.866 856.928 672.689 856.639V856.579C672.689 856.519 672.599 856.479 672.559 856.429C672.396 856.19 672.205 855.972 671.989 855.779C671.914 855.704 671.834 855.634 671.749 855.569C671.547 855.408 671.329 855.268 671.1 855.149L670.83 855.009C670.513 854.856 670.177 854.748 669.83 854.689L655.594 852.32L687.175 775.621C687.343 775.219 687.447 774.794 687.485 774.361L695.033 686.795C695.103 685.993 694.943 685.189 694.573 684.475L669.17 635.139C668.776 634.349 668.145 633.702 667.365 633.288C666.586 632.874 665.696 632.713 664.821 632.829L642.677 634.829L633.31 615.144C633.043 614.578 632.654 614.08 632.17 613.684L618.344 602.277C617.796 601.823 617.143 601.513 616.444 601.377C615.745 601.241 615.023 601.282 614.345 601.498L582.354 611.595L575.175 598.069C574.824 597.411 574.307 596.856 573.676 596.459L556.201 585.402C555.534 584.979 554.764 584.749 553.975 584.739C553.186 584.728 552.409 584.937 551.732 585.342L528.958 598.838L544.594 526.568L546.463 516.641L554.191 475.582L556.69 462.295C556.89 461.264 556.701 460.196 556.161 459.296L538.915 430.534C538.623 430.046 538.236 429.621 537.778 429.284C537.319 428.948 536.798 428.706 536.245 428.574C535.692 428.442 535.118 428.422 534.556 428.514C533.995 428.607 533.458 428.811 532.977 429.114L504.355 447.049C503.496 447.579 502.854 448.398 502.545 449.359L496.547 468.004L484.68 504.994L482.68 511.182L453.318 627.911L433.674 691.053L382.018 680.316L339.579 648.825C338.869 648.297 338.014 648.001 337.13 647.975L307.138 647.215C306.695 647.201 306.253 647.258 305.828 647.385C295.181 650.504 284.224 665.05 283.014 666.7C282.514 667.374 282.224 668.18 282.181 669.018C282.139 669.856 282.345 670.688 282.774 671.409L297.92 697.122C298.221 697.634 298.627 698.077 299.11 698.421L340.309 727.934L367.392 761.644L392.975 816.17C393.082 816.407 393.217 816.632 393.375 816.84L430.884 869.345L438.102 900.477V900.707C438.165 900.889 438.241 901.067 438.332 901.237C438.395 901.401 438.469 901.561 438.552 901.717C438.679 901.912 438.823 902.097 438.982 902.266C439.081 902.4 439.188 902.526 439.302 902.646C439.499 902.811 439.71 902.958 439.932 903.086C440.052 903.166 440.162 903.266 440.292 903.336C440.659 903.518 441.049 903.649 441.452 903.726L498.956 913.943L487.859 995.141C487.769 995.705 487.793 996.28 487.928 996.834C488.064 997.388 488.309 997.91 488.649 998.367C488.989 998.825 489.418 999.211 489.909 999.501C490.4 999.791 490.944 999.98 491.509 1000.06C492.075 1000.13 492.649 1000.1 493.2 999.947C493.751 999.798 494.266 999.541 494.716 999.19C495.166 998.839 495.541 998.402 495.819 997.904C496.097 997.406 496.273 996.858 496.337 996.291L496.417 995.721L507.414 915.443L598.889 931.748C599.137 931.788 599.388 931.808 599.639 931.808C599.949 931.808 600.257 931.771 600.559 931.699L600.849 931.619C601.05 931.56 601.247 931.487 601.438 931.399L601.748 931.229C601.92 931.135 602.083 931.028 602.238 930.909C602.333 930.837 602.423 930.761 602.508 930.679C602.556 930.648 602.603 930.614 602.648 930.579L660.103 873.734L623.952 994.492C623.853 994.897 623.812 995.314 623.832 995.731C623.827 996.646 624.116 997.537 624.656 998.275C625.196 999.013 625.959 999.558 626.831 999.83C627.231 999.949 627.645 1000.01 628.061 1000.01C628.974 1000.01 629.863 999.723 630.599 999.183C631.335 998.644 631.879 997.882 632.15 997.011L673.139 860.148C673.143 860.084 673.14 860.021 673.129 859.958V859.958ZM633.03 888.43L650.355 864.357C650.553 864.088 650.717 863.796 650.845 863.487L652.115 860.388L660.042 861.707L633.03 888.43ZM500.206 905.426L446.22 895.838L445.88 895.758L444.881 891.349L439.132 866.556C439.006 866.01 438.775 865.494 438.452 865.037L400.653 812.151L375.019 757.515C374.878 757.209 374.7 756.92 374.49 756.656L346.707 722.085C346.462 721.784 346.18 721.515 345.867 721.285L304.928 691.963L291.722 669.539C295.341 665.13 302.229 657.742 307.718 655.753L335.6 656.463L377.719 687.724C378.218 688.092 378.791 688.348 379.398 688.474L435.773 700.181C436.821 700.411 437.917 700.239 438.843 699.698C439.769 699.157 440.458 698.287 440.772 697.262L461.626 630.2L491.028 513.561L493.258 506.563L505.254 469.083L510.253 453.418L533.847 438.622L548.013 462.255L545.723 474.422L538.085 515.011L536.216 524.858L518.511 606.616C518.329 607.43 518.389 608.28 518.684 609.06C518.979 609.841 519.495 610.518 520.169 611.009C520.844 611.499 521.647 611.782 522.48 611.822C523.314 611.863 524.14 611.659 524.859 611.235L553.851 593.98L568.147 603.037L576.465 618.693C576.933 619.576 577.695 620.267 578.619 620.646C579.543 621.026 580.57 621.071 581.524 620.772L614.715 610.305L626.012 619.623L636.259 641.147C636.638 641.934 637.247 642.588 638.006 643.022C638.765 643.455 639.637 643.649 640.508 643.576L662.752 641.577L686.265 687.254L678.877 772.931L646.826 850.83L645.157 854.889L643.487 858.958L643.147 859.768L597.769 922.751L508.633 906.955L504.415 906.205L500.206 905.426Z" fill="#18A7B5"/>
<path d="M465.264 505.034C465.67 505.423 466.149 505.728 466.673 505.931C467.197 506.135 467.756 506.233 468.318 506.22C468.88 506.207 469.434 506.083 469.947 505.856C470.461 505.628 470.925 505.301 471.313 504.894C471.854 504.282 472.202 503.524 472.312 502.714C472.46 502.029 472.433 501.317 472.234 500.644C472.035 499.972 471.67 499.36 471.173 498.865C457.817 486.227 448.911 469.605 445.787 451.485C442.662 433.365 445.488 414.721 453.84 398.34C462.193 381.959 475.624 368.722 492.124 360.608C508.625 352.495 527.309 349.941 545.382 353.328C563.454 356.716 579.945 365.862 592.387 379.401C604.83 392.939 612.555 410.141 614.409 428.435C616.262 446.729 612.144 465.131 602.67 480.89C593.195 496.649 578.874 508.917 561.848 515.861C561.187 516.13 560.603 516.561 560.153 517.115C559.702 517.669 559.398 518.327 559.269 519.03C559.109 519.839 559.193 520.677 559.509 521.439C559.832 522.232 560.386 522.91 561.099 523.385C561.812 523.859 562.651 524.108 563.508 524.098C564.064 524.1 564.614 523.991 565.127 523.779C583.787 516.27 599.485 502.875 609.835 485.629C615.92 475.476 620.025 464.26 621.932 452.578L736.901 468.574C736.821 469.573 736.751 470.493 736.751 471.463C736.719 480.158 739.957 488.548 745.822 494.968C751.688 501.388 759.752 505.369 768.415 506.12C777.078 506.872 785.707 504.34 792.591 499.027C799.474 493.713 804.109 486.006 805.576 477.435C807.042 468.864 805.233 460.055 800.508 452.755C795.783 445.455 788.486 440.198 780.066 438.027C771.645 435.855 762.717 436.929 755.051 441.033C747.385 445.138 741.542 451.974 738.681 460.186L622.942 444.08C624.326 423.865 619.132 403.745 608.136 386.726L707.039 284.753C711.709 287.502 717.234 288.416 722.54 287.318C727.847 286.22 732.555 283.187 735.75 278.811C738.945 274.434 740.398 269.026 739.828 263.637C739.257 258.249 736.703 253.265 732.662 249.655C728.621 246.044 723.382 244.066 717.963 244.103C712.545 244.141 707.334 246.192 703.343 249.858C699.353 253.524 696.868 258.543 696.373 263.939C695.877 269.335 697.405 274.723 700.661 279.055L603.067 379.658C595.436 370.008 585.972 361.963 575.219 355.985C564.466 350.008 552.638 346.215 540.414 344.827V167.955C549.486 166.864 557.799 162.351 563.655 155.337C569.511 148.323 572.468 139.338 571.921 130.217C571.375 121.097 567.367 112.529 560.716 106.264C554.065 99.999 545.272 96.5103 536.135 96.5103C526.998 96.5103 518.206 99.999 511.555 106.264C504.903 112.529 500.895 121.097 500.349 130.217C499.803 139.338 502.76 148.323 508.616 155.337C514.472 162.351 522.785 166.864 531.856 167.955V344.257C518.479 343.989 505.199 346.585 492.907 351.869C480.615 357.154 469.595 365.006 460.586 374.899L410.239 324.562C413.53 320.289 415.116 314.945 414.687 309.568C414.258 304.191 411.847 299.165 407.92 295.467C403.994 291.768 398.833 289.662 393.44 289.555C388.047 289.449 382.807 291.351 378.738 294.892C374.669 298.433 372.061 303.36 371.421 308.715C370.781 314.071 372.155 319.474 375.275 323.874C378.395 328.274 383.039 331.357 388.305 332.524C393.572 333.691 399.084 332.86 403.771 330.191L455.117 381.527C446.848 392.492 441.099 405.145 438.279 418.585C435.459 432.026 435.638 445.922 438.802 459.286L223.49 546.932C219 538.069 211.285 531.262 201.931 527.911C192.577 524.559 182.295 524.918 173.198 528.914C164.101 532.909 156.88 540.238 153.019 549.393C149.158 558.548 148.95 568.834 152.439 578.138C155.928 587.441 162.848 595.054 171.776 599.413C180.705 603.772 190.964 604.546 200.446 601.574C209.927 598.603 217.91 592.112 222.754 583.437C227.597 574.762 228.934 564.561 226.489 554.93L441.251 467.484C446.112 481.753 454.35 494.635 465.264 505.034V505.034ZM747.318 461.415C749.798 455.464 754.401 450.647 760.234 447.899C766.066 445.151 772.712 444.669 778.88 446.546C785.048 448.423 790.298 452.526 793.611 458.057C796.924 463.588 798.063 470.153 796.807 476.477C795.551 482.8 791.989 488.432 786.814 492.277C781.639 496.122 775.22 497.907 768.802 497.285C762.385 496.662 756.428 493.677 752.089 488.909C747.749 484.141 745.336 477.93 745.319 471.483C745.319 470.913 745.319 470.343 745.399 469.783C745.496 468.356 745.706 466.938 746.029 465.544C746.339 464.134 746.771 462.752 747.318 461.415V461.415ZM718.006 252.862C720.592 252.879 723.115 253.662 725.257 255.11C727.399 256.558 729.065 258.608 730.045 261.001C731.025 263.394 731.275 266.023 730.764 268.558C730.253 271.093 729.004 273.42 727.173 275.246C725.343 277.072 723.013 278.317 720.477 278.822C717.941 279.327 715.312 279.071 712.921 278.085C710.531 277.1 708.485 275.429 707.042 273.284C705.598 271.138 704.822 268.614 704.81 266.028C704.815 262.533 706.208 259.182 708.682 256.713C711.157 254.244 714.511 252.859 718.006 252.862ZM536.135 105.092C541.528 105.096 546.798 106.698 551.28 109.696C555.761 112.694 559.254 116.954 561.316 121.937C563.377 126.919 563.916 132.401 562.863 137.69C561.81 142.978 559.213 147.836 555.4 151.649C551.587 155.462 546.729 158.059 541.441 159.112C536.152 160.165 530.67 159.626 525.688 157.565C520.705 155.503 516.445 152.01 513.447 147.529C510.449 143.047 508.847 137.777 508.843 132.384C508.848 125.147 511.725 118.208 516.842 113.091C521.959 107.974 528.898 105.097 536.135 105.092V105.092ZM393.054 298.11C395.661 298.106 398.211 298.875 400.381 300.321C402.55 301.767 404.242 303.824 405.243 306.232C406.243 308.64 406.506 311.29 405.999 313.848C405.492 316.405 404.238 318.755 402.395 320.6C400.552 322.444 398.203 323.7 395.646 324.209C393.089 324.718 390.438 324.457 388.029 323.458C385.62 322.46 383.562 320.77 382.115 318.601C380.667 316.433 379.895 313.883 379.897 311.276C379.903 307.787 381.29 304.443 383.756 301.975C386.222 299.507 389.565 298.117 393.054 298.11V298.11ZM219.031 564.038C219.086 571.694 216.262 579.092 211.12 584.764C205.977 590.437 198.891 593.97 191.266 594.664C183.64 595.358 176.033 593.161 169.951 588.509C163.869 583.858 159.757 577.091 158.43 569.55C157.103 562.009 158.658 554.245 162.786 547.796C166.914 541.348 173.314 536.686 180.718 534.734C188.122 532.783 195.989 533.684 202.759 537.26C209.529 540.836 214.709 546.825 217.271 554.04C217.761 555.391 218.155 556.774 218.451 558.179C218.84 560.111 219.034 562.077 219.031 564.048V564.038Z" fill="#18A7B5"/>
<path d="M516.52 384.996C526.933 382.393 537.885 382.935 547.99 386.553C558.096 390.17 566.903 396.701 573.299 405.321C579.695 413.941 583.393 424.263 583.926 434.984C584.459 445.704 581.803 456.342 576.294 465.554C574.192 468.966 571.732 472.143 568.956 475.032C568.36 475.692 567.992 476.526 567.906 477.411C567.803 478.076 567.86 478.757 568.074 479.395C568.288 480.034 568.652 480.611 569.136 481.08C569.965 481.858 571.068 482.274 572.204 482.239C573.34 482.203 574.416 481.718 575.194 480.89C578.396 477.559 581.226 473.888 583.632 469.943C589.33 460.507 592.446 449.738 592.665 438.717C592.885 427.696 590.202 416.811 584.885 407.155C579.568 397.499 571.804 389.411 562.373 383.705C552.942 377.998 542.175 374.873 531.154 374.644C520.133 374.414 509.246 377.088 499.585 382.396C489.925 387.705 481.831 395.462 476.116 404.888C470.401 414.314 467.266 425.077 467.027 436.098C466.787 447.119 469.451 458.008 474.751 467.674C475.312 468.632 476.224 469.335 477.294 469.634C478.364 469.932 479.508 469.803 480.485 469.273C481.461 468.744 482.193 467.855 482.526 466.795C482.859 465.736 482.767 464.588 482.269 463.595C478.263 456.341 475.978 448.264 475.59 439.987C475.202 431.71 476.722 423.454 480.032 415.858C483.343 408.262 488.355 401.528 494.681 396.177C501.008 390.826 508.48 387 516.52 384.996V384.996ZM325.562 454.047C325.564 449.75 324.291 445.549 321.905 441.975C319.519 438.402 316.127 435.616 312.158 433.97C308.188 432.324 303.82 431.892 299.605 432.729C295.391 433.567 291.519 435.635 288.48 438.673C285.44 441.71 283.37 445.581 282.531 449.796C281.692 454.01 282.122 458.378 283.766 462.349C285.41 466.319 288.194 469.712 291.767 472.1C295.34 474.487 299.54 475.762 303.837 475.762C309.596 475.756 315.117 473.467 319.189 469.396C323.262 465.326 325.554 459.806 325.562 454.047V454.047ZM303.837 440.881C306.442 440.881 308.987 441.653 311.152 443.1C313.318 444.547 315.005 446.603 316.002 449.009C316.998 451.415 317.259 454.062 316.751 456.616C316.243 459.17 314.989 461.516 313.148 463.357C311.306 465.199 308.96 466.453 306.406 466.961C303.852 467.469 301.205 467.208 298.799 466.212C296.393 465.215 294.337 463.527 292.89 461.362C291.443 459.197 290.671 456.651 290.671 454.047C290.674 450.556 292.062 447.209 294.53 444.74C296.999 442.272 300.346 440.884 303.837 440.881V440.881ZM652.403 392.024C652.403 396.321 653.677 400.521 656.065 404.093C658.452 407.666 661.844 410.45 665.814 412.095C669.784 413.739 674.152 414.169 678.366 413.331C682.58 412.493 686.451 410.424 689.489 407.385C692.527 404.347 694.596 400.476 695.434 396.262C696.272 392.048 695.842 387.68 694.198 383.711C692.554 379.741 689.769 376.348 686.197 373.961C682.624 371.574 678.424 370.3 674.127 370.3C668.368 370.308 662.847 372.599 658.775 376.672C654.703 380.744 652.411 386.265 652.403 392.024ZM674.127 405.191C671.523 405.191 668.978 404.418 666.813 402.972C664.647 401.525 662.96 399.469 661.963 397.063C660.967 394.657 660.706 392.01 661.214 389.455C661.722 386.901 662.976 384.555 664.817 382.714C666.659 380.873 669.005 379.619 671.559 379.111C674.113 378.603 676.76 378.863 679.166 379.86C681.572 380.856 683.628 382.544 685.075 384.709C686.522 386.874 687.294 389.42 687.294 392.024C687.289 395.514 685.9 398.86 683.432 401.328C680.964 403.796 677.618 405.185 674.127 405.191Z" fill="#18A7B5"/>
<path d="M999.899 640.507L903.625 198.836C903.486 198.204 903.206 197.612 902.807 197.103C902.407 196.594 901.897 196.182 901.316 195.897L501.864 0.439907C501.28 0.148592 500.636 -0.00305176 499.984 -0.00305176C499.332 -0.00305176 498.688 0.148592 498.105 0.439907L98.6824 195.947C98.1011 196.232 97.5914 196.644 97.1916 197.153C96.7917 197.662 96.5119 198.254 96.373 198.886L0.0990448 640.507C-0.0350757 641.12 -0.0329582 641.754 0.105248 642.366C0.243453 642.977 0.51437 643.551 0.898829 644.046L276.264 998.35C276.665 998.864 277.178 999.279 277.764 999.565C278.349 999.851 278.992 1000 279.644 1000H463.924C465.059 1000 466.147 999.549 466.949 998.747C467.752 997.944 468.203 996.856 468.203 995.721C468.203 994.586 467.752 993.498 466.949 992.696C466.147 991.893 465.059 991.442 463.924 991.442H281.733L8.88667 640.377L104.301 202.675L499.954 8.9976L895.757 202.675L991.161 640.377L718.235 991.442H657.482C656.347 991.442 655.258 991.893 654.456 992.696C653.654 993.498 653.203 994.586 653.203 995.721C653.203 996.856 653.654 997.944 654.456 998.747C655.258 999.549 656.347 1000 657.482 1000H720.335C720.986 1000 721.629 999.851 722.215 999.565C722.8 999.279 723.313 998.864 723.714 998.35L999.099 644.046C999.484 643.551 999.755 642.977 999.893 642.366C1000.03 641.754 1000.03 641.12 999.899 640.507V640.507Z" fill="#18A7B5"/>
</g>
<defs>
<clipPath id="clip0">
<rect width="1000" height="1000" fill="white"/>
</clipPath>
</defs>
</svg>
