<svg width="856" height="650" viewBox="0 0 856 650" fill="none" xmlns="http://www.w3.org/2000/svg">
<rect width="856" height="650" rx="10" fill="#EAEAEA"/>
<rect x="30" y="80" width="796" height="52" rx="5" fill="white"/>
<rect x="30" y="162" width="796" height="453" rx="5" fill="white"/>
<path d="M61.289 115V108.488C61.289 105.826 60.739 103.384 57.461 103.384C55.701 103.384 54.601 103.934 53.963 105.034V99.204L52.335 99.424V115H53.963V107.036C54.689 105.584 55.503 104.748 57.153 104.748C59.529 104.748 59.661 106.31 59.661 108.796V115H61.289Z" fill="#CACACA"/>
<path d="M66.9889 115.33L68.0889 114.406C66.6809 113.064 66.6589 111.964 66.6589 110.028V105.034H69.0349L69.1889 103.648H66.6589V99.974L65.0309 100.194V103.648H63.0949V105.034H65.0309V109.566C65.0309 112.052 65.1629 113.878 66.9889 115.33Z" fill="#CACACA"/>
<path d="M73.8209 115.33L74.9209 114.406C73.5129 113.064 73.4909 111.964 73.4909 110.028V105.034H75.8669L76.0209 103.648H73.4909V99.974L71.8629 100.194V103.648H69.9269V105.034H71.8629V109.566C71.8629 112.052 71.9949 113.878 73.8209 115.33Z" fill="#CACACA"/>
<path d="M79.4649 113.218V107.036C80.1909 105.584 81.0049 104.748 82.6549 104.748C84.8769 104.748 85.3609 106.508 85.3609 109.324C85.3609 113.042 84.1949 113.9 82.2369 113.9C81.3129 113.9 80.3669 113.724 79.4649 113.218ZM79.4649 118.388V116.76C79.4649 116.056 79.4649 115.352 79.3989 114.604C80.3449 115.088 81.2909 115.264 82.3909 115.264C84.6789 115.264 87.0109 114.274 87.0109 109.324C87.0109 105.386 85.7789 103.384 82.9189 103.384C81.1149 103.384 79.9489 104.022 79.2669 105.21C79.1569 104.638 79.0029 104.066 78.8049 103.516L77.4409 103.824C77.7489 105.034 77.8369 106.398 77.8369 107.762V118.388H79.4649Z" fill="#CACACA"/>
<path d="M90.6658 115.132C91.4138 115.132 91.7878 114.736 91.7878 113.988C91.7878 113.24 91.4138 112.844 90.6658 112.844C89.9178 112.844 89.5438 113.24 89.5438 113.988C89.5438 114.736 89.9178 115.132 90.6658 115.132ZM90.6658 107.982C91.4138 107.982 91.7878 107.586 91.7878 106.838C91.7878 106.09 91.4138 105.694 90.6658 105.694C89.9178 105.694 89.5438 106.09 89.5438 106.838C89.5438 107.586 89.9178 107.982 90.6658 107.982Z" fill="#CACACA"/>
<path d="M99.3871 99.754L97.9351 99.446L94.0191 114.846L95.4711 115.154L99.3871 99.754Z" fill="#CACACA"/>
<path d="M105.038 99.754L103.586 99.446L99.6695 114.846L101.122 115.154L105.038 99.754Z" fill="#CACACA"/>
<path d="M192.621 350V346.76H185.421V342.632H190.989L191.253 339.728H185.421V336.44H192.621V333.2H181.749V350H192.621Z" fill="#BDBDBD"/>
<path d="M205.116 350.528L209.028 349.424L203.436 341.24L208.476 333.2H204.324L201.468 338.72L198.492 332.984L194.268 333.584L199.188 341.24L194.004 350H198.3L201.324 344.048L205.116 350.528Z" fill="#BDBDBD"/>
<path d="M214.46 350V344.576C215.228 344.672 215.972 344.744 216.716 344.744C220.7 344.744 223.508 343.088 223.508 339.008C223.508 334.4 220.34 332.936 216.188 332.936C214.484 332.936 212.492 333.2 210.788 333.584V350H214.46ZM214.46 341.768V336.392C215.084 336.248 215.756 336.152 216.428 336.152C218.324 336.152 219.812 336.824 219.812 339.056C219.812 341.312 218.372 341.888 216.356 341.888C215.78 341.888 215.132 341.84 214.46 341.768Z" fill="#BDBDBD"/>
<path d="M236.215 350V346.76H229.015V342.632H234.583L234.847 339.728H229.015V336.44H236.215V333.2H225.343V350H236.215Z" fill="#BDBDBD"/>
<path d="M252.502 350V333.2H248.998V337.592C248.998 340.64 249.118 343.016 249.43 345.2C248.59 343.376 247.678 341.744 246.622 339.776L242.95 332.984L238.726 333.632V350H242.23V345.032C242.23 342.776 242.23 340.232 241.99 337.88C242.614 339.512 243.478 340.928 244.294 342.416L248.446 350H252.502Z" fill="#BDBDBD"/>
<path d="M256.014 345.872L254.862 348.728C256.734 349.832 258.87 350.288 261.27 350.288C265.302 350.288 267.39 348.2 267.39 345.008C267.39 341.36 264.126 340.544 261.726 339.896C260.598 339.512 258.774 339.44 258.774 337.832C258.774 336.584 259.926 336.128 261.366 336.128C262.71 336.128 264.15 336.44 265.494 337.112L266.574 334.232C264.75 333.224 262.902 332.912 260.886 332.912C257.502 332.912 255.174 334.736 255.174 337.976C255.174 341.648 257.91 342.56 260.31 343.208C261.966 343.64 263.67 343.856 263.67 345.272C263.67 346.616 262.494 347.072 261.03 347.072C259.35 347.072 257.574 346.712 256.014 345.872Z" fill="#BDBDBD"/>
<path d="M280.441 350V346.76H273.241V342.632H278.809L279.073 339.728H273.241V336.44H280.441V333.2H269.569V350H280.441Z" fill="#BDBDBD"/>
<path d="M283.576 345.872L282.424 348.728C284.296 349.832 286.432 350.288 288.832 350.288C292.864 350.288 294.952 348.2 294.952 345.008C294.952 341.36 291.688 340.544 289.288 339.896C288.16 339.512 286.336 339.44 286.336 337.832C286.336 336.584 287.488 336.128 288.928 336.128C290.272 336.128 291.712 336.44 293.056 337.112L294.136 334.232C292.312 333.224 290.464 332.912 288.448 332.912C285.064 332.912 282.736 334.736 282.736 337.976C282.736 341.648 285.472 342.56 287.872 343.208C289.528 343.64 291.232 343.856 291.232 345.272C291.232 346.616 290.056 347.072 288.592 347.072C286.912 347.072 285.136 346.712 283.576 345.872Z" fill="#BDBDBD"/>
<path d="M199.308 294V277.2H195.636V294H199.308Z" fill="#BDBDBD"/>
<path d="M215.974 294V277.2H212.47V281.592C212.47 284.64 212.59 287.016 212.902 289.2C212.062 287.376 211.15 285.744 210.094 283.776L206.422 276.984L202.198 277.632V294H205.702V289.032C205.702 286.776 205.702 284.232 205.462 281.88C206.086 283.512 206.95 284.928 207.766 286.416L211.918 294H215.974Z" fill="#BDBDBD"/>
<path d="M230.67 293.064L229.422 290.208C228.198 290.832 227.07 291.048 225.822 291.048C222.798 291.048 222.246 289.008 222.246 285.6C222.246 282.192 222.798 280.152 225.822 280.152C227.07 280.152 228.198 280.368 229.422 280.992L230.67 278.136C228.99 277.128 227.454 276.912 225.774 276.912C220.59 276.912 218.55 279.672 218.55 285.6C218.55 291.528 220.59 294.288 225.774 294.288C227.454 294.288 228.99 294.072 230.67 293.064Z" fill="#BDBDBD"/>
<path d="M239.766 294.288C244.95 294.288 246.99 291.528 246.99 285.6C246.99 279.672 244.95 276.912 239.766 276.912C234.582 276.912 232.542 279.672 232.542 285.6C232.542 291.528 234.582 294.288 239.766 294.288ZM239.814 291.072C236.79 291.072 236.238 289.008 236.238 285.6C236.238 282.192 236.79 280.128 239.814 280.128C242.742 280.128 243.294 282.192 243.294 285.6C243.294 289.008 242.742 291.072 239.814 291.072Z" fill="#BDBDBD"/>
<path d="M263.632 294.216L267.4 293.928L265.912 277.2H261.4L258.28 289.44L255.064 277.2H250.552L249.04 294H252.712L253.24 282.288L256.6 294H259.984L263.032 282.288L263.632 294.216Z" fill="#BDBDBD"/>
<path d="M280.734 294V290.76H273.534V286.632H279.102L279.366 283.728H273.534V280.44H280.734V277.2H269.862V294H280.734Z" fill="#BDBDBD"/>
<path d="M211.974 406V392.44H216.318V389.2H203.958V392.44H208.302V406H211.974Z" fill="#BDBDBD"/>
<path d="M226.236 406.216L230.22 405.784L224.604 388.984L220.836 389.416L215.316 406H219.204L220.044 402.856H225.3L226.236 406.216ZM224.532 400.12H220.788L222.636 393.328L224.532 400.12Z" fill="#BDBDBD"/>
<path d="M241.967 406.528L245.879 405.424L240.287 397.24L245.327 389.2H241.175L238.319 394.72L235.343 388.984L231.119 389.584L236.039 397.24L230.855 406H235.151L238.175 400.048L241.967 406.528Z" fill="#BDBDBD"/>
<path d="M258.511 406V402.76H251.311V398.632H256.879L257.143 395.728H251.311V392.44H258.511V389.2H247.639V406H258.511Z" fill="#BDBDBD"/>
<path d="M261.646 401.872L260.494 404.728C262.366 405.832 264.502 406.288 266.902 406.288C270.934 406.288 273.022 404.2 273.022 401.008C273.022 397.36 269.758 396.544 267.358 395.896C266.23 395.512 264.406 395.44 264.406 393.832C264.406 392.584 265.558 392.128 266.998 392.128C268.342 392.128 269.782 392.44 271.126 393.112L272.206 390.232C270.382 389.224 268.534 388.912 266.518 388.912C263.134 388.912 260.806 390.736 260.806 393.976C260.806 397.648 263.542 398.56 265.942 399.208C267.598 399.64 269.302 399.856 269.302 401.272C269.302 402.616 268.126 403.072 266.662 403.072C264.982 403.072 263.206 402.712 261.646 401.872Z" fill="#BDBDBD"/>
<path d="M143.392 457.872L142.24 460.728C144.112 461.832 146.248 462.288 148.648 462.288C152.68 462.288 154.768 460.2 154.768 457.008C154.768 453.36 151.504 452.544 149.104 451.896C147.976 451.512 146.152 451.44 146.152 449.832C146.152 448.584 147.304 448.128 148.744 448.128C150.088 448.128 151.528 448.44 152.872 449.112L153.952 446.232C152.128 445.224 150.28 444.912 148.264 444.912C144.88 444.912 142.552 446.736 142.552 449.976C142.552 453.648 145.288 454.56 147.688 455.208C149.344 455.64 151.048 455.856 151.048 457.272C151.048 458.616 149.872 459.072 148.408 459.072C146.728 459.072 144.952 458.712 143.392 457.872Z" fill="#BDBDBD"/>
<path d="M163.86 462.288C169.044 462.288 171.084 459.528 171.084 453.6C171.084 447.672 169.044 444.912 163.86 444.912C158.676 444.912 156.636 447.672 156.636 453.6C156.636 459.528 158.676 462.288 163.86 462.288ZM163.908 459.072C160.884 459.072 160.332 457.008 160.332 453.6C160.332 450.192 160.884 448.128 163.908 448.128C166.836 448.128 167.388 450.192 167.388 453.6C167.388 457.008 166.836 459.072 163.908 459.072Z" fill="#BDBDBD"/>
<path d="M185.467 461.064L184.219 458.208C182.995 458.832 181.867 459.048 180.619 459.048C177.595 459.048 177.043 457.008 177.043 453.6C177.043 450.192 177.595 448.152 180.619 448.152C181.867 448.152 182.995 448.368 184.219 448.992L185.467 446.136C183.787 445.128 182.251 444.912 180.571 444.912C175.387 444.912 173.347 447.672 173.347 453.6C173.347 459.528 175.387 462.288 180.571 462.288C182.251 462.288 183.787 462.072 185.467 461.064Z" fill="#BDBDBD"/>
<path d="M191.323 462V445.2H187.651V462H191.323Z" fill="#BDBDBD"/>
<path d="M204.006 462.216L207.99 461.784L202.374 444.984L198.606 445.416L193.086 462H196.974L197.814 458.856H203.07L204.006 462.216ZM202.302 456.12H198.558L200.406 449.328L202.302 456.12Z" fill="#BDBDBD"/>
<path d="M220.937 462V458.76H213.425V445.2H209.753V462H220.937Z" fill="#BDBDBD"/>
<path d="M228.658 457.872L227.506 460.728C229.378 461.832 231.514 462.288 233.914 462.288C237.946 462.288 240.034 460.2 240.034 457.008C240.034 453.36 236.77 452.544 234.37 451.896C233.242 451.512 231.418 451.44 231.418 449.832C231.418 448.584 232.57 448.128 234.01 448.128C235.354 448.128 236.794 448.44 238.138 449.112L239.218 446.232C237.394 445.224 235.546 444.912 233.53 444.912C230.146 444.912 227.818 446.736 227.818 449.976C227.818 453.648 230.554 454.56 232.954 455.208C234.61 455.64 236.314 455.856 236.314 457.272C236.314 458.616 235.138 459.072 233.674 459.072C231.994 459.072 230.218 458.712 228.658 457.872Z" fill="#BDBDBD"/>
<path d="M253.086 462V458.76H245.886V454.632H251.454L251.718 451.728H245.886V448.44H253.086V445.2H242.214V462H253.086Z" fill="#BDBDBD"/>
<path d="M267.17 461.064L265.922 458.208C264.698 458.832 263.57 459.048 262.322 459.048C259.298 459.048 258.746 457.008 258.746 453.6C258.746 450.192 259.298 448.152 262.322 448.152C263.57 448.152 264.698 448.368 265.922 448.992L267.17 446.136C265.49 445.128 263.954 444.912 262.274 444.912C257.09 444.912 255.05 447.672 255.05 453.6C255.05 459.528 257.09 462.288 262.274 462.288C263.954 462.288 265.49 462.072 267.17 461.064Z" fill="#BDBDBD"/>
<path d="M283.178 445.2H279.554V453.6C279.554 457.2 278.93 459.072 276.29 459.072C273.65 459.072 272.93 457.2 272.93 453.6V445.2H269.258V453.6C269.258 459.528 271.202 462.288 276.242 462.288C281.21 462.288 283.178 459.528 283.178 453.6V445.2Z" fill="#BDBDBD"/>
<path d="M289.643 453.672V448.392C290.315 448.248 290.987 448.152 291.659 448.152C293.507 448.152 294.899 448.848 294.899 450.96C294.899 452.64 293.987 453.672 292.163 453.672H289.643ZM295.283 462.288L299.315 461.784L295.643 455.808C297.419 455.064 298.595 453.528 298.595 450.912C298.595 446.352 295.427 444.936 291.443 444.936C289.595 444.936 287.699 445.2 285.971 445.584V462H289.643V456.432H292.259L295.283 462.288Z" fill="#BDBDBD"/>
<path d="M304.807 462V445.2H301.135V462H304.807Z" fill="#BDBDBD"/>
<path d="M314.994 462V448.44H319.338V445.2H306.978V448.44H311.322V462H314.994Z" fill="#BDBDBD"/>
<path d="M329.639 462V455.856L335.351 445.2H331.127L327.863 452.592L324.743 444.984L320.375 445.608L325.967 455.856V462H329.639Z" fill="#BDBDBD"/>
<path d="M185.502 518V501.2H181.998V505.592C181.998 508.64 182.118 511.016 182.43 513.2C181.59 511.376 180.678 509.744 179.622 507.776L175.95 500.984L171.726 501.632V518H175.23V513.032C175.23 510.776 175.23 508.232 174.99 505.88C175.614 507.512 176.478 508.928 177.294 510.416L181.446 518H185.502Z" fill="#BDBDBD"/>
<path d="M199.262 518V514.76H192.062V510.632H197.63L197.894 507.728H192.062V504.44H199.262V501.2H188.39V518H199.262Z" fill="#BDBDBD"/>
<path d="M209.068 518V504.44H213.412V501.2H201.052V504.44H205.396V518H209.068Z" fill="#BDBDBD"/>
<path d="M224.218 518V501.2H220.546V518H224.218Z" fill="#BDBDBD"/>
<path d="M240.884 518V501.2H237.38V505.592C237.38 508.64 237.5 511.016 237.812 513.2C236.972 511.376 236.06 509.744 235.004 507.776L231.332 500.984L227.108 501.632V518H230.612V513.032C230.612 510.776 230.612 508.232 230.372 505.88C230.996 507.512 231.86 508.928 232.676 510.416L236.828 518H240.884Z" fill="#BDBDBD"/>
<path d="M255.58 517.064L254.332 514.208C253.108 514.832 251.98 515.048 250.732 515.048C247.708 515.048 247.156 513.008 247.156 509.6C247.156 506.192 247.708 504.152 250.732 504.152C251.98 504.152 253.108 504.368 254.332 504.992L255.58 502.136C253.9 501.128 252.364 500.912 250.684 500.912C245.5 500.912 243.46 503.672 243.46 509.6C243.46 515.528 245.5 518.288 250.684 518.288C252.364 518.288 253.9 518.072 255.58 517.064Z" fill="#BDBDBD"/>
<path d="M264.677 518.288C269.861 518.288 271.901 515.528 271.901 509.6C271.901 503.672 269.861 500.912 264.677 500.912C259.493 500.912 257.453 503.672 257.453 509.6C257.453 515.528 259.493 518.288 264.677 518.288ZM264.725 515.072C261.701 515.072 261.149 513.008 261.149 509.6C261.149 506.192 261.701 504.128 264.725 504.128C267.653 504.128 268.205 506.192 268.205 509.6C268.205 513.008 267.653 515.072 264.725 515.072Z" fill="#BDBDBD"/>
<path d="M288.542 518.216L292.31 517.928L290.822 501.2H286.31L283.19 513.44L279.974 501.2H275.462L273.95 518H277.622L278.15 506.288L281.51 518H284.894L287.942 506.288L288.542 518.216Z" fill="#BDBDBD"/>
<path d="M305.644 518V514.76H298.444V510.632H304.012L304.276 507.728H298.444V504.44H305.644V501.2H294.772V518H305.644Z" fill="#BDBDBD"/>
<path d="M709.262 405.596C713.131 405.596 716.295 402.455 716.005 398.596C714.753 381.926 709.045 365.851 699.419 352.078C688.452 336.387 672.928 324.444 654.95 317.865C636.971 311.287 617.406 310.39 598.901 315.298C582.66 319.605 567.924 328.2 556.209 340.125C553.497 342.885 553.886 347.327 556.842 349.824V349.824C559.798 352.322 564.198 351.925 566.946 349.2C576.782 339.451 589.029 332.413 602.493 328.842C618.222 324.671 634.853 325.433 650.135 331.025C665.416 336.617 678.611 346.768 687.933 360.106C695.913 371.524 700.726 384.804 701.946 398.599C702.287 402.453 705.392 405.596 709.262 405.596V405.596Z" fill="#E0E0E0"/>
<path d="M594.315 400.496V394.916L599.441 385.24H595.65L592.721 391.952L589.92 385.044L586 385.61L591.019 394.916V400.496H594.315Z" fill="#BDBDBD"/>
<path d="M610.78 400.496V397.553H604.318V393.805H609.315L609.552 391.168H604.318V388.182H610.78V385.24H601.022V400.496H610.78Z" fill="#BDBDBD"/>
<path d="M621.822 400.692L625.398 400.3L620.358 385.044L616.976 385.436L612.021 400.496H615.511L616.265 397.641H620.982L621.822 400.692ZM620.293 395.156H616.933L618.591 388.988L620.293 395.156Z" fill="#BDBDBD"/>
<path d="M630.276 392.933V388.138C630.879 388.008 631.482 387.92 632.086 387.92C633.744 387.92 634.994 388.552 634.994 390.47C634.994 391.996 634.175 392.933 632.538 392.933H630.276ZM635.338 400.757L638.957 400.3L635.661 394.873C637.255 394.197 638.311 392.802 638.311 390.427C638.311 386.286 635.467 385 631.892 385C630.233 385 628.531 385.24 626.98 385.588V400.496H630.276V395.439H632.624L635.338 400.757Z" fill="#BDBDBD"/>
<path d="M650.629 400.496V397.553H643.886V385.24H640.591V400.496H650.629Z" fill="#BDBDBD"/>
<path d="M657.696 400.496V394.916L662.822 385.24H659.031L656.102 391.952L653.301 385.044L649.381 385.61L654.4 394.916V400.496H657.696Z" fill="#BDBDBD"/>
<path d="M591.917 427.738V412.483H588.622V427.738H591.917Z" fill="#BDBDBD"/>
<path d="M606.876 427.738V412.483H603.731V416.471C603.731 419.239 603.839 421.396 604.119 423.38C603.365 421.723 602.546 420.241 601.599 418.454L598.303 412.286L594.512 412.875V427.738H597.657V423.227C597.657 421.178 597.657 418.868 597.441 416.732C598.001 418.214 598.777 419.5 599.509 420.851L603.236 427.738H606.876Z" fill="#BDBDBD"/>
<path d="M620.066 426.888L618.946 424.295C617.847 424.862 616.835 425.058 615.715 425.058C613.001 425.058 612.505 423.205 612.505 420.11C612.505 417.016 613.001 415.163 615.715 415.163C616.835 415.163 617.847 415.359 618.946 415.926L620.066 413.332C618.558 412.417 617.18 412.221 615.672 412.221C611.019 412.221 609.188 414.727 609.188 420.11C609.188 425.494 611.019 428 615.672 428C617.18 428 618.558 427.804 620.066 426.888Z" fill="#BDBDBD"/>
<path d="M628.23 428C632.883 428 634.714 425.494 634.714 420.11C634.714 414.727 632.883 412.221 628.23 412.221C623.577 412.221 621.746 414.727 621.746 420.11C621.746 425.494 623.577 428 628.23 428ZM628.273 425.08C625.559 425.08 625.064 423.205 625.064 420.11C625.064 417.016 625.559 415.141 628.273 415.141C630.901 415.141 631.397 417.016 631.397 420.11C631.397 423.205 630.901 425.08 628.273 425.08Z" fill="#BDBDBD"/>
<path d="M649.65 427.935L653.032 427.673L651.697 412.483H647.647L644.847 423.598L641.96 412.483H637.911L636.554 427.738H639.849L640.323 417.103L643.339 427.738H646.376L649.112 417.103L649.65 427.935Z" fill="#BDBDBD"/>
<path d="M665 427.738V424.796H658.538V421.048H663.535L663.772 418.411H658.538V415.425H665V412.483H655.242V427.738H665Z" fill="#BDBDBD"/>
<path d="M550.455 357.391C547.254 355.217 542.871 356.038 540.943 359.393C538.598 363.474 536.565 367.726 534.861 372.113C533.46 375.72 535.573 379.646 539.275 380.773V380.773C542.976 381.9 546.862 379.797 548.311 376.209C549.546 373.15 550.97 370.171 552.576 367.29C554.459 363.909 553.656 359.565 550.455 357.391V357.391Z" fill="#E0E0E0"/>
<path d="M638.223 490.631C638.911 494.439 642.566 496.994 646.311 496.022C663.565 491.545 679.231 482.209 691.405 469.056C703.58 455.903 711.68 439.565 714.813 422.017C715.493 418.208 712.664 414.761 708.815 414.368V414.368C704.965 413.975 701.557 416.787 700.827 420.587C698.035 435.111 691.231 448.616 681.122 459.537C671.013 470.459 658.072 478.284 643.807 482.187C640.075 483.209 637.534 486.823 638.223 490.631V490.631Z" fill="#E0E0E0"/>
<path d="M537.721 390.739C533.909 390.074 530.251 392.624 529.874 396.475C528.688 408.558 529.867 420.779 533.37 432.449C537.545 446.362 544.907 459.108 554.87 469.678C564.834 480.247 577.124 488.347 590.766 493.335C602.21 497.52 614.34 499.417 626.471 498.946C630.338 498.796 633.1 495.296 632.66 491.451V491.451C632.221 487.607 628.746 484.879 624.877 484.978C614.917 485.232 604.975 483.611 595.578 480.175C583.983 475.935 573.536 469.049 565.067 460.066C556.598 451.082 550.34 440.247 546.791 428.422C543.915 418.838 542.882 408.818 543.724 398.89C544.051 395.034 541.533 391.404 537.721 390.739V390.739Z" fill="#E0E0E0"/>
<path fill-rule="evenodd" clip-rule="evenodd" d="M527.043 494.657L547.853 473.847L549.615 475.608L528.075 497.148H443.48V494.657H527.043Z" fill="url(#paint0_linear)"/>
<path fill-rule="evenodd" clip-rule="evenodd" d="M419.814 335.843H504.409L525.949 357.383L524.187 359.144L503.377 338.334H419.814V335.843Z" fill="url(#paint1_linear)"/>
<path fill-rule="evenodd" clip-rule="evenodd" d="M680.768 522.683V495.28H683.259V525.174H560.567V522.683H680.768Z" fill="url(#paint2_linear)"/>
<path fill-rule="evenodd" clip-rule="evenodd" d="M619.734 269.826V299.72H617.243V272.317H497.042V269.826H619.734Z" fill="url(#paint3_linear)"/>
<g clip-path="url(#clip0)">
<path d="M366.256 207.482C368.002 207.868 368.66 207.673 368.608 206.875C368.539 205.819 367.873 205.749 367.723 204.631C367.609 203.66 368.318 201.936 370.663 201.936C371.902 201.936 372.795 202.759 372.795 204.723C372.795 207.357 370.589 206.93 370.479 208.118C370.391 209.203 372.729 209.589 372.729 212.042C372.729 214.068 369.465 216.036 369.707 219.195C369.891 221.593 374.941 221.542 378.227 222.505C379.947 223.005 380.877 222.98 385.81 230.596C387.856 227.853 389.202 224.651 389.729 221.268C390.256 217.886 389.949 214.425 388.835 211.189C388.835 211.189 384.913 212.557 381.616 212.557C375.298 212.557 372.479 209.394 375.489 209.747C377.865 210.068 380.268 210.148 382.66 209.986C384.442 209.796 386.204 209.451 387.927 208.956C386.073 205.073 383.073 201.852 379.33 199.731C375.588 197.61 371.284 196.691 367.002 197.097C362.72 197.504 358.667 199.216 355.39 202.004C352.112 204.791 349.77 208.519 348.68 212.682C351.201 211.527 362.062 206.562 366.256 207.482Z" fill="#F18A21"/>
<path d="M374.776 226.032C366.745 226.334 362.386 226.091 362.386 221.549C362.386 218.787 364.489 217.397 365.117 212.63C365.591 209.041 362.037 209.32 348.243 214.808C347.781 217.835 347.985 220.927 348.841 223.867C349.698 226.806 351.186 229.524 353.201 231.828C355.903 229.239 357.924 227.75 360.497 227.283C363.482 226.746 365.753 227.283 362.467 229.997C361.537 230.769 359.802 232.045 356.347 234.778C359.987 237.528 364.427 239.011 368.988 239C374.56 238.984 379.903 236.775 383.862 232.851C377.684 228.551 379.937 225.841 374.776 226.032Z" fill="#F18A21"/>
<path d="M449.136 208.923V209.137C449.453 209.466 449.702 209.856 449.866 210.283C450.031 210.71 450.109 211.165 450.095 211.623V227.069H453.921V208.923H449.143H449.136Z" fill="#F18A21"/>
<path d="M439.888 213.528C439.84 211.089 439.554 208.923 439.554 208.923H435.044V209.137C435.36 209.466 435.608 209.855 435.772 210.281C435.936 210.708 436.013 211.162 436 211.619V227.066H439.91C439.91 227.066 439.8 223.792 439.8 220.365C439.77 218.826 440.09 217.301 440.734 215.904C443.604 210.321 446.721 212.623 446.721 212.623H446.978V209.137C444.236 208.162 441.77 210.284 439.87 213.513" fill="#F18A21"/>
<path d="M409.855 216.963L416.232 208.927H413.156L408.613 215.179L404.386 208.927H399.071V209.21C399.071 209.21 399.623 209.162 401.199 211.145L406.242 218.033L399.123 227.058H402.482L407.525 219.729L412.105 227.058H417.184L409.855 216.963Z" fill="#F18A21"/>
<path d="M488.625 213.292H488.405C487.883 212.359 487.106 211.595 486.164 211.09C485.222 210.585 484.155 210.36 483.09 210.442C481.697 210.527 480.249 211.023 480.249 212.329C480.249 216.032 489.989 215.639 489.989 221.619C489.989 225.44 487.049 227.459 482.142 227.459C478.709 227.459 476.562 226.407 476.562 226.407V222.557H476.779C476.779 222.557 478.172 225.319 482.542 225.319C485.288 225.319 486.336 224.109 486.336 222.744C486.336 218.206 477.062 218.474 476.526 213.693C476.158 210.233 479.521 208.5 483.241 208.5C485.118 208.554 486.958 209.035 488.622 209.905V213.289L488.625 213.292Z" fill="#F18A21"/>
<path d="M431.832 225.561C431.832 225.561 429.88 227.433 425.679 227.433C419.313 227.433 416.766 222.597 416.766 217.503C416.766 212.41 420.776 208.57 425.26 208.57C432.181 208.57 433.427 214.605 433.1 218.132H421.084C420.79 222.104 422.867 225.256 425.943 225.256C430.196 225.256 431.905 223.083 431.905 223.083H432.17L431.832 225.561ZM429.454 215.999C429.652 213.76 428.571 210.534 425.62 210.534C422.793 210.534 421.283 213.476 421.176 215.999H429.454Z" fill="#F18A21"/>
<path d="M469.042 208.923V209.137C469.042 209.137 469.935 209.813 469.935 211.667V218.526C469.935 223.119 468.752 225.403 465.87 225.403C462.989 225.403 461.809 223.289 461.809 218.526V208.923H457.082V209.137C457.082 209.137 457.972 209.813 457.972 211.667V219.067C457.972 226.617 462.856 227.496 465.874 227.496C468.891 227.496 473.762 226.481 473.762 219.067V208.923H469.042Z" fill="#F18A21"/>
<path d="M451.936 206.779C452.368 206.78 452.791 206.652 453.15 206.413C453.51 206.173 453.79 205.832 453.956 205.433C454.122 205.034 454.166 204.595 454.082 204.171C453.998 203.747 453.79 203.357 453.485 203.051C453.18 202.745 452.791 202.537 452.367 202.452C451.944 202.368 451.505 202.411 451.105 202.576C450.706 202.741 450.365 203.021 450.125 203.38C449.885 203.74 449.757 204.162 449.757 204.595C449.756 204.881 449.812 205.165 449.922 205.43C450.031 205.695 450.191 205.936 450.394 206.139C450.596 206.342 450.837 206.503 451.101 206.613C451.366 206.723 451.65 206.779 451.936 206.779" fill="#F18A21"/>
</g>
<path fill-rule="evenodd" clip-rule="evenodd" d="M778 38C778 42.4183 774.418 46 770 46C765.582 46 762 42.4183 762 38C762 33.5817 765.582 30 770 30C774.418 30 778 33.5817 778 38ZM802 38C802 42.4183 798.418 46 794 46C789.582 46 786 42.4183 786 38C786 33.5817 789.582 30 794 30C798.418 30 802 33.5817 802 38ZM818 46C822.418 46 826 42.4183 826 38C826 33.5817 822.418 30 818 30C813.582 30 810 33.5817 810 38C810 42.4183 813.582 46 818 46Z" fill="white"/>
<defs>
<linearGradient id="paint0_linear" x1="549.357" y1="474.105" x2="424.796" y2="475.973" gradientUnits="userSpaceOnUse">
<stop stop-opacity="0.11"/>
<stop offset="1" stop-opacity="0"/>
</linearGradient>
<linearGradient id="paint1_linear" x1="525.691" y1="315.29" x2="401.13" y2="317.159" gradientUnits="userSpaceOnUse">
<stop stop-opacity="0.11"/>
<stop offset="1" stop-opacity="0"/>
</linearGradient>
<linearGradient id="paint2_linear" x1="703.812" y1="502.131" x2="579.251" y2="503.999" gradientUnits="userSpaceOnUse">
<stop stop-opacity="0.11"/>
<stop offset="1" stop-opacity="0"/>
</linearGradient>
<linearGradient id="paint3_linear" x1="640.286" y1="249.273" x2="515.726" y2="251.142" gradientUnits="userSpaceOnUse">
<stop stop-opacity="0.11"/>
<stop offset="1" stop-opacity="0"/>
</linearGradient>
<clipPath id="clip0">
<rect width="142" height="42" fill="white" transform="translate(348 197)"/>
</clipPath>
</defs>
</svg>
