<?xml version="1.0" encoding="UTF-8"?>
<svg width="605px" height="604px" viewBox="0 0 605 604" version="1.1" xmlns="http://www.w3.org/2000/svg" xmlns:xlink="http://www.w3.org/1999/xlink">
    <!-- Generator: Sketch 49.1 (51147) - http://www.bohemiancoding.com/sketch -->
    <title>bg-line-pattern</title>
    <desc>Created with Sketch.</desc>
    <defs></defs>
    <g id="Page-1" stroke="none" stroke-width="1" fill="none" fill-rule="evenodd" opacity="0.07">
        <g id="bg-line-pattern" fill="#000000" fill-rule="nonzero">
            <polygon id="Line-3" points="394.081183 602.902773 393.097227 603.081183 359.918817 420.097227 360.902773 419.918817"></polygon>
            <polygon id="Line-2-Copy" points="603.749577 446.234864 603.359196 447.155517 137.844483 249.765136 138.234864 248.844483"></polygon>
            <polygon id="Line-2-Copy-3" points="128.155591 499.235047 127.764953 500.155591 0.0357056228 445.953027 0.426343411 445.032482"></polygon>
            <polygon id="Line-3-Copy-4" points="408.076906 89.9088754 407.091125 90.0769063 392.514218 1.2591556 393.5 1.09112463"></polygon>
            <polygon id="Line-3-Copy" points="301.156454 446.5195 302.120215 446.786268 259.5 603.233232 258.536239 602.966464"></polygon>
            <polygon id="Line-3-Copy-5" points="259.036688 1.23161467 260 1.5 203.847463 203.115848 202.884152 202.847463"></polygon>
            <polygon id="Line-4" points="177.030084 265.971626 178.028374 266.030084 164.969916 489.028374 163.971626 488.969916"></polygon>
            <polygon id="Line-2-Copy" points="301.839497 446.511805 302.12791 447.469311 1.16545332 538.122959 0.877040515 537.165453"></polygon>
            <polygon id="Line-2-Copy-2" points="603.709402 536.543155 604 537.5 393 601 392.709402 600.043155"></polygon>
            <polygon id="Line" points="301.79577 1.56371607 302.436284 0.795769738 532.20423 192.436284 531.563716 193.20423"></polygon>
            <polygon id="Line-Copy" points="266.795811 572.564172 267.435828 571.795811 304.21409 602.430803 303.574073 603.199164"></polygon>
            <polygon id="Line-3-Copy" points="603.750354 310.838696 604.161304 311.750354 301.449891 448.203952 301.038942 447.292294"></polygon>
            <polygon id="Line-3-Copy-2" points="216.74885 213.838129 217.161871 214.74885 0.44149409 313.033665 0.0284729842 312.122944"></polygon>
            <polygon id="Line-Copy-3" points="591.793717 1.53412659 592.465873 0.793717213 604.216184 11.4608483 603.544028 12.2012577"></polygon>
            <polygon id="Line-Copy-5" points="384.793388 409.526458 385.473542 408.793388 594.216513 602.468517 593.536359 603.201586"></polygon>
            <polygon id="Rectangle" points="1.5 10 346 337 345.5 338 1 11"></polygon>
            <polygon id="Line-2" points="1.34313254 148.189487 0.810512799 147.343133 233.46738 1.15364534 234 2"></polygon>
            <polygon id="Line-2-Copy-5" points="232.366304 603.192373 231.817528 602.356403 264.643597 580.807627 265.192373 581.643597"></polygon>
            <polygon id="Line-2-Copy-4" points="328.343915 321.189665 327.810335 320.343915 604.157278 145.997734 604.690858 146.843484"></polygon>
        </g>
    </g>
</svg>