<?xml version="1.0" encoding="UTF-8"?>
<svg width="27px" height="31px" viewBox="0 0 27 31" version="1.1" xmlns="http://www.w3.org/2000/svg" xmlns:xlink="http://www.w3.org/1999/xlink">
    <!-- Generator: Sketch 49.3 (51167) - http://www.bohemiancoding.com/sketch -->
    <title>icon-linkedin</title>
    <desc>Created with Sketch.</desc>
    <defs></defs>
    <g id="Page-1" stroke="none" stroke-width="1" fill="none" fill-rule="evenodd">
        <g id="icon-linkedin" fill="#FFFFFF" fill-rule="nonzero">
            <path d="M13.4250002,1.65910086e-09 L26.8500004,7.75 L26.8500004,23.25 L13.4250002,31 L-6.2064025e-09,23.25 L1.44642041e-08,7.74999999 L13.4250002,1.65910086e-09 Z M9.921317,13.374442 L7.1590402,13.374442 L7.1590402,21.6696429 L9.921317,21.6696429 L9.921317,13.374442 Z M10.0970982,10.813058 C10.0915178,10.4001095 9.9492201,10.0583161 9.6702009,9.78766741 C9.3911816,9.51701874 9.0200916,9.38169643 8.5569196,9.38169643 C8.0937477,9.38169643 7.7184724,9.51701874 7.4310826,9.78766741 C7.1436928,10.0583161 7,10.4001095 7,10.813058 C7,11.2204261 7.1395075,11.5608245 7.4185268,11.8342634 C7.697546,12.1077023 8.0658459,12.2444196 8.5234375,12.2444196 L8.5401786,12.2444196 C9.0089309,12.2444196 9.3869963,12.1077023 9.6743862,11.8342634 C9.961776,11.5608245 10.1026786,11.2204261 10.0970982,10.813058 Z M14.1986607,14.5532138 L14.1986607,13.374442 L11.4447545,13.374442 L11.453125,13.7762277 C11.4587054,14.0440862 11.4614955,14.8699708 11.4614955,16.2539062 C11.4614955,17.6378417 11.4559152,19.4430692 11.4447545,21.6696429 L14.1986607,21.6696429 L14.1986607,17.0407366 C14.1986607,16.756137 14.2293524,16.5301348 14.2907366,16.3627232 C14.4079247,16.0781236 14.5850993,15.8395657 14.8222656,15.6470424 C15.059432,15.4545191 15.3537929,15.3582589 15.7053571,15.3582589 C16.1852703,15.3582589 16.5382243,15.5242729 16.7642299,15.8563058 C16.9902355,16.1883387 17.1032366,16.6473185 17.1032366,17.2332589 L17.1032366,21.6696429 L19.8571429,21.6696429 L19.8571429,16.9151786 C19.8571429,15.6930742 19.5669672,14.7653491 18.9866071,14.1319754 C18.4062471,13.4986017 17.6389557,13.1819196 16.6847098,13.1819196 C16.3331456,13.1819196 16.0136733,13.225167 15.7262835,13.3116629 C15.4388937,13.3981589 15.1961505,13.5195305 14.9980469,13.6757812 C14.7999432,13.832032 14.6422997,13.9771199 14.5251116,14.1110491 C14.4137756,14.2382903 14.3049596,14.3856771 14.1986607,14.5532138 Z" id="Combined-Shape"></path>
        </g>
    </g>
</svg>