<?xml version="1.0" encoding="UTF-8"?>
<svg width="32px" height="27px" viewBox="0 0 32 27" version="1.1" xmlns="http://www.w3.org/2000/svg" xmlns:xlink="http://www.w3.org/1999/xlink">
    <!-- Generator: Sketch 49.1 (51147) - http://www.bohemiancoding.com/sketch -->
    <title>Combined Shape</title>
    <desc>Created with Sketch.</desc>
    <defs></defs>
    <g id="Page-1" stroke="none" stroke-width="1" fill="none" fill-rule="evenodd">
        <g id="website4-copy-4" transform="translate(-323.000000, -1344.000000)" fill="#FFFFFF">
            <g id="Footer" transform="translate(-204.000000, 819.000000)">
                <g id="Group-3" transform="translate(527.000000, 525.000000)">
                    <path d="M8.67500019,0.0766062413 L24.1763914,0.0758030253 L31.9263914,13.4991968 L24.1750002,26.9233938 L8.67360898,26.924197 L0.92360898,13.5008032 L8.67500019,0.0766062413 Z M12.921317,11.374442 L10.1590402,11.374442 L10.1590402,19.6696429 L12.921317,19.6696429 L12.921317,11.374442 Z M13.0970982,8.81305804 C13.0915178,8.40010954 12.9492201,8.05831609 12.6702009,7.78766741 C12.3911816,7.51701874 12.0200916,7.38169643 11.5569196,7.38169643 C11.0937477,7.38169643 10.7184724,7.51701874 10.4310826,7.78766741 C10.1436928,8.05831609 10,8.40010954 10,8.81305804 C10,9.22042614 10.1395075,9.56082453 10.4185268,9.83426339 C10.697546,10.1077023 11.0658459,10.2444196 11.5234375,10.2444196 L11.5401786,10.2444196 C12.0089309,10.2444196 12.3869963,10.1077023 12.6743862,9.83426339 C12.961776,9.56082453 13.1026786,9.22042614 13.0970982,8.81305804 Z M17.1986607,12.5532138 L17.1986607,11.374442 L14.4447545,11.374442 L14.453125,11.7762277 C14.4587054,12.0440862 14.4614955,12.8699708 14.4614955,14.2539062 C14.4614955,15.6378417 14.4559152,17.4430692 14.4447545,19.6696429 L17.1986607,19.6696429 L17.1986607,15.0407366 C17.1986607,14.756137 17.2293524,14.5301348 17.2907366,14.3627232 C17.4079247,14.0781236 17.5850993,13.8395657 17.8222656,13.6470424 C18.059432,13.4545191 18.3537929,13.3582589 18.7053571,13.3582589 C19.1852703,13.3582589 19.5382243,13.5242729 19.7642299,13.8563058 C19.9902355,14.1883387 20.1032366,14.6473185 20.1032366,15.2332589 L20.1032366,19.6696429 L22.8571429,19.6696429 L22.8571429,14.9151786 C22.8571429,13.6930742 22.5669672,12.7653491 21.9866071,12.1319754 C21.4062471,11.4986017 20.6389557,11.1819196 19.6847098,11.1819196 C19.3331456,11.1819196 19.0136733,11.225167 18.7262835,11.3116629 C18.4388937,11.3981589 18.1961505,11.5195305 17.9980469,11.6757812 C17.7999432,11.832032 17.6422997,11.9771199 17.5251116,12.1110491 C17.4137756,12.2382903 17.3049596,12.3856771 17.1986607,12.5532138 Z" id="Combined-Shape"></path>
                </g>
            </g>
        </g>
    </g>
</svg>