<?xml version="1.0" encoding="UTF-8"?>
<svg width="106px" height="38px" viewBox="0 0 106 38" version="1.1" xmlns="http://www.w3.org/2000/svg" xmlns:xlink="http://www.w3.org/1999/xlink">
    <!-- Generator: Sketch 49.3 (51167) - http://www.bohemiancoding.com/sketch -->
    <title>Logo_SDworx</title>
    <desc>Created with Sketch.</desc>
    <defs></defs>
    <g id="Page-1" stroke="none" stroke-width="1" fill="none" fill-rule="evenodd">
        <g id="website4-copy-12" transform="translate(-308.000000, -1634.000000)" fill="#FFFFFF" fill-rule="nonzero">
            <g id="Klanten" transform="translate(201.000000, 1592.000000)">
                <g id="Group-2">
                    <g id="Logo_SDworx" transform="translate(107.000000, 42.000000)">
                        <g>
                            <g id="Group-3" transform="translate(26.000000, 9.000000)">
                                <path d="M1.36913183,17.7711712 C2.11897106,18.2162162 3.38006431,18.7297297 4.60707395,18.7297297 C6.34533762,18.7297297 7.16334405,17.8738739 7.16334405,16.7441441 C7.16334405,15.5801802 6.48167203,14.9297297 4.70932476,14.2792793 C2.28938907,13.3891892 1.13054662,12.0882883 1.13054662,10.4792793 C1.13054662,8.32252252 2.90289389,6.54234234 5.7659164,6.54234234 C7.12926045,6.54234234 8.3221865,6.91891892 9.03794212,7.36396396 L8.4585209,9.10990991 C7.94726688,8.8018018 6.95884244,8.32252252 5.7318328,8.32252252 C4.30032154,8.32252252 3.51639871,9.14414414 3.51639871,10.1711712 C3.51639871,11.3009009 4.30032154,11.8144144 6.03858521,12.4648649 C8.3221865,13.3207207 9.54919614,14.4846847 9.54919614,16.5387387 C9.54919614,18.9351351 7.70868167,20.5783784 4.57299035,20.5783784 C3.1073955,20.5783784 1.74405145,20.2018018 0.823794212,19.6198198 L1.36913183,17.7711712 Z" id="Shape"></path>
                                <path d="M23.1485531,0.517117117 L23.1485531,16.7783784 C23.1485531,17.9765766 23.1826367,19.3459459 23.2508039,20.2702703 L21.0694534,20.2702703 L20.9672026,17.9423423 L20.8990354,17.9423423 C20.1491961,19.4486486 18.5472669,20.5783784 16.3659164,20.5783784 C13.1279743,20.5783784 10.6057878,17.8396396 10.6057878,13.7315315 C10.5717042,9.21261261 13.3665595,6.50810811 16.6045016,6.50810811 C18.6836013,6.50810811 20.0469453,7.46666667 20.6263666,8.52792793 L20.6945338,8.52792793 L20.6945338,0.517117117 L23.1485531,0.517117117 Z M20.6945338,12.2594595 C20.6945338,11.9171171 20.6604502,11.5405405 20.592283,11.1981982 C20.2173633,9.65765766 18.8881029,8.39099099 17.081672,8.39099099 C14.5594855,8.39099099 13.0598071,10.6162162 13.0598071,13.5603604 C13.0598071,16.2990991 14.4231511,18.5585586 17.0135048,18.5585586 C18.6495177,18.5585586 20.1491961,17.4630631 20.592283,15.6486486 C20.6604502,15.3063063 20.6945338,14.9981982 20.6945338,14.5873874 L20.6945338,12.2594595 Z" id="Shape"></path>
                                <path d="M27.5794212,6.78198198 L29.3858521,13.5945946 C29.7607717,15.1009009 30.1016077,16.5045045 30.3401929,17.9081081 L30.4083601,17.9081081 C30.7151125,16.5387387 31.1581994,15.1009009 31.6012862,13.6288288 L33.7826367,6.78198198 L35.8276527,6.78198198 L37.9067524,13.4918919 C38.4180064,15.0666667 38.792926,16.5045045 39.0996785,17.8738739 L39.1678457,17.8738739 C39.3723473,16.5045045 39.7472669,15.1009009 40.1903537,13.4918919 L42.0990354,6.74774775 L44.5189711,6.74774775 L40.1903537,20.2018018 L37.9749196,20.2018018 L35.9299035,13.8 C35.4527331,12.2594595 35.0778135,10.9243243 34.7369775,9.34954955 L34.6688103,9.34954955 C34.3279743,10.9585586 33.9189711,12.3621622 33.4418006,13.8342342 L31.2945338,20.236036 L29.0790997,20.236036 L25.0572347,6.78198198 L27.5794212,6.78198198 Z" id="Shape"></path>
                                <path d="M51.0630225,20.5441441 C47.4842444,20.5441441 44.6553055,17.8738739 44.6553055,13.6288288 C44.6553055,9.10990991 47.6205788,6.47387387 51.3016077,6.47387387 C55.1530547,6.47387387 57.7434084,9.28108108 57.7434084,13.354955 C57.7434084,18.3873874 54.266881,20.5441441 51.0630225,20.5441441 Z M51.1652733,18.7297297 C53.4829582,18.7297297 55.2212219,16.5387387 55.2212219,13.4918919 C55.2212219,11.1981982 54.096463,8.35675676 51.1993569,8.35675676 C48.3363344,8.35675676 47.1093248,11.027027 47.1093248,13.5945946 C47.1093248,16.5045045 48.7794212,18.7297297 51.1652733,18.7297297 Z" id="Shape"></path>
                                <path d="M59.7543408,10.9927928 C59.7543408,9.41801802 59.7202572,8.04864865 59.65209,6.78198198 L61.7652733,6.78198198 L61.8675241,9.41801802 L61.9356913,9.41801802 C62.5491961,7.6036036 64.0488746,6.47387387 65.6848875,6.47387387 C65.9234727,6.47387387 66.1279743,6.50810811 66.3324759,6.54234234 L66.3324759,8.83603604 C66.0598071,8.8018018 65.8212219,8.76756757 65.4803859,8.76756757 C63.7762058,8.76756757 62.5491961,10.0684685 62.2083601,11.8828829 C62.1401929,12.2594595 62.1401929,12.636036 62.1401929,13.0468468 L62.1401929,20.2018018 L59.7202572,20.2018018 L59.7543408,10.9927928 Z" id="Shape"></path>
                                <path d="M70.3884244,6.78198198 L72.2971061,9.65765766 C72.8083601,10.445045 73.2173633,11.0954955 73.6604502,11.8486486 L73.7286174,11.8486486 C74.1717042,11.0612613 74.614791,10.3765766 75.0919614,9.65765766 L76.9324759,6.78198198 L79.5909968,6.78198198 L75.0237942,13.2864865 L79.6932476,20.236036 L76.9324759,20.236036 L74.955627,17.2234234 C74.444373,16.436036 74.0012862,15.6828829 73.5241158,14.8954955 L73.4559486,14.8954955 C73.0128617,15.7171171 72.5356913,16.436036 72.0585209,17.2234234 L70.1157556,20.236036 L67.4231511,20.236036 L72.1948553,13.3891892 L67.6617363,6.81621622 L70.3884244,6.81621622 L70.3884244,6.78198198 Z" id="Shape"></path>
                            </g>
                            <polygon id="Shape" points="10.770418 10.7495495 7.73697749 37.8288288 12.5427653 37.8288288 15.7466238 10.7495495"></polygon>
                            <polygon id="Shape" points="2.21543408 29.4414414 6.74855305 29.4414414 4.94212219 19.1369369 0.27266881 19.1369369"></polygon>
                            <polygon id="Shape" points="22.2565916 0.23963964 16.0533762 29.4072072 20.9273312 29.4072072 27.4032154 0.23963964"></polygon>
                        </g>
                    </g>
                </g>
            </g>
        </g>
    </g>
</svg>