<?xml version="1.0" encoding="UTF-8"?>
<svg width="206px" height="71px" viewBox="0 0 206 71" version="1.1" xmlns="http://www.w3.org/2000/svg" xmlns:xlink="http://www.w3.org/1999/xlink">
    <!-- Generator: Sketch 50.2 (55047) - http://www.bohemiancoding.com/sketch -->
    <title>Group</title>
    <desc>Created with Sketch.</desc>
    <defs></defs>
    <g id="logo" stroke="none" stroke-width="1" fill="none" fill-rule="evenodd">
        <g id="logo_blauw" fill="#1C8C86">
            <g id="Group">
                <path d="M61,22.5472973 L51.1032448,21.5878378 L54.8820059,18.4695946 L44.6853491,1.49915541 L35.1484759,7.0160473 L35.6882989,9.2347973 L15.1750246,0 L8.2173058,8.45523649 L13.8554572,17.0903716 L1.19960669,17.1503378 L0,27.0447635 L7.49754179,27.7643581 L4.91838741,29.1435811 L11.5762045,40.1173986 L14.5152409,40.9569257 L9.83677483,44.4949324 L11.2763029,54.3893581 L19.3136676,56.4282095 L18.833825,63.2043919 L25.4316618,71 L35.0884956,66.5625 L35.0884956,62.3648649 L41.446411,61.8851351 L43.7856441,49.8918919 L35.0285152,48.3927365 L35.0285152,46.7736486 L45.6450344,49.7719595 L53.5024582,39.2179054 L52.0629302,32.8015203 L60.5201573,33.0413851 L61,22.5472973 Z M50.3834808,21.5278716 L49.5437561,21.4679054 L48.8839725,18.6494932 L53.8023599,18.6494932 L50.3834808,21.5278716 Z M54.0422812,18.1697635 L48.7640118,18.1697635 L45.7050147,4.67736486 L54.0422812,18.1697635 Z M44.3854474,2.63851351 L47.9242871,18.1697635 L47.9842675,18.4096284 L48.0442478,18.6494932 L48.6440511,21.347973 L42.1061947,20.7483108 L41.806293,20.6883446 L42.7659784,20.0886824 L40.7866273,13.9721284 L40.6066863,13.3125 L40.4267453,12.6528716 L39.9469027,11.1537162 L38.747296,10.6140203 L38.207473,10.3741554 L37.66765,10.1342905 L36.5880039,9.65456081 L36.2881023,8.5152027 L36.1681416,7.97550676 L36.0481809,7.43581081 L44.3854474,2.63851351 Z M15.4749263,1.01942568 L35.8682399,10.1942568 L36.3480826,10.4341216 L36.8279253,10.6739865 L38.6273353,11.4535473 L38.8672566,11.5734797 L39.107178,11.6934122 L39.2271386,11.7533784 L39.3470993,12.0532095 L39.4070796,12.1731419 L40.7866273,16.5506757 L41.626352,19.2491554 L38.6873156,18.2297297 L38.207473,18.0498311 L37.7276303,17.8699324 L31.9695182,15.8910473 L31.4296952,15.7111486 L30.8298918,15.5912162 L22.4926254,12.7128378 L22.072763,12.5929054 L21.712881,12.472973 L9.41691249,8.27533784 L15.4749263,1.01942568 Z M30.8898722,16.4907095 L37.9075713,18.8893581 L38.387414,19.0692568 L38.8672566,19.2491554 L41.3264503,20.0886824 L40.4867257,20.6283784 L39.1671583,20.5084459 L38.747296,20.4484797 L38.2674533,20.3885135 L25.7315634,19.1891892 L30.8898722,16.4907095 Z M24.2920354,19.0092905 L25.1917404,17.6300676 L23.0324484,13.7922297 L29.7502458,16.0709459 L24.2920354,19.0092905 Z M9.53687316,9.2347973 L21.892822,13.4324324 L24.0521141,17.2103041 L14.7551622,17.0903716 L9.53687316,9.2347973 Z M14.3952802,17.9298986 L14.6951819,17.9298986 L14.9950836,17.9298986 L24.1720747,17.8099662 L23.3923304,19.0092905 L15.2350049,18.2297297 L14.9351032,18.1697635 L14.6352016,18.1097973 L12.3559489,17.8699324 L14.3952802,17.9298986 Z M6.1179941,29.5033784 L9.05703048,27.9442568 L24.1120944,29.4434122 L21.2930187,30.9425676 L21.4129794,32.2018581 L21.4729597,32.6216216 L21.53294,32.9814189 L21.4729597,33.0413851 L12.0560472,39.1579392 L6.1179941,29.5033784 Z M12.8957719,39.5777027 L21.5929204,33.9408784 L21.712881,35.5599662 L21.712881,35.8597973 L21.712881,36.1596284 L22.252704,42.2761824 L15.9547689,40.4771959 L15.6548673,40.4172297 L15.3549656,40.3572635 L12.8957719,39.5777027 Z M11.9360865,53.5498311 L10.6165192,44.6148649 L10.6764995,44.5548986 L11.1563422,44.1951014 L15.2350049,41.1368243 L22.432645,43.1756757 L22.5526057,44.6748311 L21.0530973,45.9341216 L20.633235,46.2939189 L20.2133727,46.6537162 L12.0560472,53.4298986 L11.9360865,53.5498311 Z M22.612586,45.2744932 L22.6725664,46.2339527 L21.6529007,46.0540541 L22.612586,45.2744932 Z M12.3559489,53.9695946 L21.173058,46.5337838 L22.792527,47.1334459 L23.0924287,50.191723 L19.7935103,50.191723 L19.373648,55.5287162 L12.3559489,53.9695946 Z M23.152409,50.9712838 L23.3923304,53.3699324 L21.173058,50.9712838 L23.152409,50.9712838 Z M20.1533923,63.4442568 L19.7935103,63.0244932 L19.73353,62.9045608 L19.73353,62.6047297 L20.1533923,56.6680743 L20.2133727,56.2483108 L20.273353,55.8285473 L20.5732547,51.6908784 L23.5122911,54.8690878 L23.6922321,56.7280405 L23.7522124,57.1478041 L23.8121927,57.5675676 L24.2320551,62.3048986 L24.2920354,62.7246622 L24.3520157,63.1444257 L24.8318584,68.4814189 L20.1533923,63.4442568 Z M33.9488692,65.8429054 L25.9714848,69.5008446 L22.5526057,31.902027 L33.8888889,32.2618243 L33.8888889,65.8429054 L33.9488692,65.8429054 Z M42.526057,52.6503378 L40.8466077,61.0456081 L40.8466077,61.1655405 L39.8869223,61.2255068 L38.5073746,61.3454392 L35.1484759,61.5853041 L35.1484759,60.5059122 L35.1484759,60.0861486 L35.1484759,59.6663851 L35.1484759,50.7913851 L42.885939,50.6714527 L42.526057,52.6503378 Z M38.8672566,49.8918919 L35.1484759,49.9518581 L35.1484759,49.2322635 L38.8672566,49.8918919 Z M24.2320551,30.7626689 L26.2713864,29.683277 L42.8259587,31.3023649 L24.2320551,30.7626689 Z M38.1474926,32.3217905 L41.1465093,32.3817568 L42.1061947,36.339527 L35.1484759,34.9003378 L35.1484759,34.7804054 L38.1474926,32.3217905 Z M35.1484759,34.1807432 L35.1484759,32.2618243 L37.4277286,32.3217905 L35.1484759,34.1807432 Z M45.8249754,48.2728041 L45.5250737,48.6925676 L45.4650934,48.7525338 L45.0452311,48.6326014 L35.1484759,45.8741554 L35.1484759,35.8597973 L42.2861357,37.2989865 L42.7659784,37.4189189 L43.245821,37.5388514 L52.4228122,39.3978041 L45.8249754,48.2728041 Z M52.6027532,38.558277 L43.0058997,36.5793919 L42.0462144,32.441723 L51.2831858,32.7415541 L52.6027532,38.558277 Z M59.5004916,31.7221284 L1.31956735,25.9653716 L2.2792527,18.1697635 L59.740413,23.566723 L59.5004916,31.7221284 Z" id="Shape-Copy-2" fill-rule="nonzero"></path>
                <text id="Teal" font-family="EnzoOT-Bold, Enzo OT" font-size="24" font-weight="bold">
                    <tspan x="73" y="45">Teal</tspan>
                </text>
                <text id="Partners" font-family="EnzoOT-Medi, Enzo OT" font-size="24" font-weight="400">
                    <tspan x="121" y="44.5">Partners</tspan>
                </text>
            </g>
        </g>
    </g>
</svg>