<?xml version="1.0" encoding="UTF-8"?>
<svg width="508px" height="351px" viewBox="0 0 508 351" version="1.1" xmlns="http://www.w3.org/2000/svg" xmlns:xlink="http://www.w3.org/1999/xlink">
    <!-- Generator: Sketch 49.3 (51167) - http://www.bohemiancoding.com/sketch -->
    <title>q8-4</title>
    <desc>Created with Sketch.</desc>
    <defs></defs>
    <g id="Page-1" stroke="none" stroke-width="1" fill="none" fill-rule="evenodd">
        <g id="Artboard" transform="translate(-100.000000, -67.000000)" fill-rule="nonzero">
            <g id="q8-4" transform="translate(99.000000, 66.000000)">
                <g id="g3" transform="translate(0.601060, 0.934470)" fill="#FFFFFF">
                    <path d="M90.291945,124.050905 C86.322075,125.638853 81.558231,126.432827 77.191374,126.432827 C54.166128,126.432827 36.6987,105.392516 36.6987,80.779322 C36.6987,55.769141 54.166128,35.125817 77.191374,35.125817 C100.21662,35.125817 117.684048,55.769141 117.684048,80.779322 C117.684048,87.925088 116.0961,95.070854 113.317191,101.025659 L103.392516,91.497971 C96.24675,84.352205 85.925088,84.352205 79.573296,90.703997 C73.221504,97.055789 73.618491,107.377451 80.764257,114.523217 L90.291945,124.050905 Z M140.312307,127.623788 C149.046021,114.523217 153.809865,99.040724 153.809865,80.779322 C153.809865,36.316778 120.859944,0.190961 77.191374,0.190961 C32.72883,0.190961 0.572883,36.316778 0.572883,80.779322 C0.572883,127.623788 35.110752,161.367683 77.191374,161.367683 C91.879893,161.367683 105.377451,157.397813 116.890074,150.252047 L126.020775,158.985761 C133.166541,166.131527 143.488203,166.131527 149.839995,159.779735 C156.191787,153.427943 155.7948,143.106281 148.649034,135.960515 L140.312307,127.623788 Z" id="path5"></path>
                    <path d="M251.865654,74.030543 C251.865654,74.030543 251.468667,74.824517 249.483732,74.824517 C250.674693,74.824517 251.865654,75.618491 251.865654,75.618491 C266.554173,84.749192 272.111991,99.834698 272.111991,111.744308 C272.111991,143.900255 249.086745,162.161657 219.31272,162.161657 C189.538695,162.161657 166.513449,143.503268 166.513449,111.744308 C166.513449,99.834698 172.468254,84.749192 186.759786,75.618491 C186.759786,75.618491 187.950747,74.824517 189.141708,74.824517 C187.156773,74.824517 186.759786,74.030543 186.759786,74.030543 C176.438124,66.090803 172.865241,54.181193 172.865241,43.462544 C172.865241,18.84935 193.905552,0.190961 219.31272,0.190961 C245.116875,0.190961 265.760199,18.84935 265.760199,43.462544 C265.760199,54.181193 262.187316,66.090803 251.865654,74.030543 Z M219.31272,60.929972 C228.046434,60.929972 233.604252,54.181193 233.604252,45.844466 C233.604252,37.110752 227.649447,30.75896 219.31272,30.75896 C210.975993,30.75896 205.021188,37.507739 205.021188,45.844466 C204.624201,54.181193 210.579006,60.929972 219.31272,60.929972 Z M219.31272,130.799684 C229.237395,130.799684 236.780148,122.859944 236.780148,110.553347 C236.780148,99.040724 229.237395,90.703997 219.31272,90.703997 C209.388045,90.703997 201.845292,99.040724 201.845292,110.553347 C201.845292,122.462957 209.388045,130.799684 219.31272,130.799684 Z" id="path7"></path>
                </g>
                <g id="g9" transform="translate(178.245210, 8.874210)">
                    <path d="M179.820046,341.996768 L182.995942,337.232924 L194.905552,341.996768 L277.478848,341.996768 C375.13765,147.870125 305.664925,19.643324 305.664925,19.643324 C293.358328,24.804155 271.92103,37.904726 252.468667,52.593245 C249.689758,19.643324 242.147005,0.984935 242.147005,0.984935 C242.147005,0.984935 100.025659,35.125817 0.778909,258.629498 C0.778909,258.629498 42.859531,299.122172 134.166541,341.599781 L179.820046,341.996768 Z" id="path11" fill="#FFFFFF"></path>
                    <path d="M134.563528,341.996768 C43.256518,299.519159 1.175896,259.026485 1.175896,259.026485 C100.422646,35.522804 242.543992,1.381922 242.543992,1.381922 C242.543992,1.381922 249.689758,19.643324 252.865654,52.990232 C272.318017,38.301713 293.755315,24.804155 306.061912,20.040311 C306.061912,20.040311 375.534637,148.267112 277.875835,342.393755 L195.302539,342.393755 L183.392929,337.629911 L180.217033,342.393755 L134.563528,341.996768 Z" id="path13" fill="#EDEDED"></path>
                    <path d="M275.096926,338.026898 C304.870951,277.684874 320.353444,222.106694 324.720301,168.513449 C329.087158,113.332256 320.750431,62.51792 304.076977,24.804155 C283.83064,34.331843 261.599368,51.005297 252.865654,57.754076 C252.865654,57.754076 253.262641,63.311894 253.659628,75.221504 L131.387632,75.221504 C124.638853,81.176309 118.684048,87.528101 112.729243,93.879893 L253.659628,93.879893 C253.659628,93.879893 253.262641,107.377451 252.865654,113.729243 L94.864828,113.729243 L94.070854,114.523217 C87.719062,121.668983 81.764257,129.211736 76.206439,136.754489 L250.880719,136.754489 C250.880719,136.754489 249.689758,148.267112 248.10181,158.985761 L60.326959,158.985761 C54.769141,167.322488 49.60831,175.659215 44.844466,183.598955 L243.734953,183.598955 C243.734953,183.598955 239.765083,202.257344 237.383161,210.197084 L29.361973,210.197084 C24.201142,219.724772 19.834285,228.061499 16.261402,235.207265 L229.840408,235.207265 C229.840408,235.207265 225.076564,249.498797 221.900668,258.232511 L5.93974,258.232511 C5.93974,258.232511 15.467428,267.363212 35.713765,281.654744 L212.769967,281.654744 C212.769967,281.654744 211.975993,284.036666 202.448305,303.092042 L68.663686,303.092042 C78.985348,309.046847 90.100984,315.398639 102.804568,322.147418 L192.126643,322.147418 C192.126643,322.147418 189.744721,326.911262 184.980877,334.057028 L195.699526,338.423885 L275.096926,338.026898 Z" id="path15" fill="#FFFFFF"></path>
                    <path d="M248.895784,57.754076 C248.498797,51.799271 248.10181,46.241453 247.307836,41.477609 L172.67428,41.477609 C165.131527,46.63844 157.985761,52.196258 151.236982,57.754076 L248.895784,57.754076 Z" id="path17" fill="#FFFFFF"></path>
                    <path d="M244.925914,25.995116 C244.13194,21.628259 243.337966,18.055376 242.543992,14.87948 L217.930798,14.87948 C210.785032,18.055376 203.639266,22.025246 196.890487,25.995116 L244.925914,25.995116 Z" id="path19" fill="#FFFFFF"></path>
                    <g id="g21" transform="translate(93.276880, 40.698700)" fill="#D5D5D5">
                        <g id="g23" transform="translate(18.879480, 262.011420)">
                            <path d="M170.483319,19.437298 L178.820046,0.381922 L0.572883,0.381922 C13.276467,7.130701 29.552934,14.673454 41.462544,19.437298 L170.483319,19.437298 Z" id="path25"></path>
                        </g>
                        <g id="g27" transform="translate(0.000000, 217.342850)">
                            <path d="M206.43324,23.613194 C209.212149,15.673454 211.991058,8.130701 214.37298,0.190961 L7.145766,0.190961 C7.145766,0.190961 3.572883,10.115636 0.396987,23.613194 L206.43324,23.613194 Z" id="path29"></path>
                        </g>
                        <g id="g31" transform="translate(15.879480, 169.704410)">
                            <path d="M204.448305,25.201142 C206.43324,16.864415 208.418175,8.527688 210.006123,0.190961 L11.90961,0.190961 C7.542753,8.527688 3.175896,17.658389 0,25.201142 L204.448305,25.201142 Z" id="path33"></path>
                        </g>
                        <path d="M159.588774,17.055376 C164.352618,13.482493 172.689345,7.130701 182.61402,0.778909 L217.151889,0.778909 C219.136824,5.93974 220.724772,11.497558 222.31272,17.055376 L159.588774,17.055376 Z" id="path35"></path>
                        <g id="g37" transform="translate(118.126230, 33.728830)">
                            <path d="M20.422233,0.793974 C15.658389,5.160831 6.924675,12.703584 0.175896,19.452363 L111.729243,19.452363 C110.935269,13.100571 109.744308,6.748779 108.553347,0.793974 L20.422233,0.793974 Z" id="path39"></path>
                        </g>
                        <g id="g41" transform="translate(77.427530, 72.457660)">
                            <path d="M155.206852,23.598129 C155.206852,15.658389 154.809865,7.718649 154.412878,0.175896 L21.025246,0.175896 C15.467428,6.130701 5.93974,16.84935 0.381922,23.598129 L155.206852,23.598129 Z" id="path43"></path>
                        </g>
                        <g id="g45" transform="translate(43.668570, 118.096100)">
                            <path d="M186.186903,24.804155 C186.980877,19.643324 187.377864,14.482493 187.774851,9.718649 C188.171838,6.542753 188.171838,3.366857 188.568825,0.190961 L16.673454,0.190961 C11.512623,6.93974 3.96987,18.055376 -2.25660983e-13,24.804155 L186.186903,24.804155 Z" id="path47"></path>
                        </g>
                    </g>
                    <g id="g49" transform="translate(184.583890, 24.819220)" fill="#9A9A9A">
                        <g id="g51" transform="translate(0.000000, 296.740250)">
                            <path d="M98.055789,0.587948 C95.673867,5.748779 92.894958,11.306597 90.513036,16.864415 L11.115636,16.864415 L0.396987,12.497558 C4.763844,5.351792 7.542753,0.587948 7.542753,0.587948 L98.055789,0.587948 Z" id="path53"></path>
                        </g>
                        <g id="g55" transform="translate(16.879480, 256.041550)">
                            <path d="M0.984935,22.231272 C10.512623,3.175896 11.306597,0.793974 11.306597,0.793974 L98.24675,0.793974 C95.864828,7.93974 92.688932,15.085506 89.910023,22.231272 L0.984935,22.231272 Z" id="path57"></path>
                        </g>
                        <g id="g59" transform="translate(36.728830, 209.403110)">
                            <path d="M0.984935,24.010181 C4.557818,15.673454 8.924675,0.984935 8.924675,0.984935 L92.291945,0.984935 C90.30701,8.527688 88.322075,16.070441 85.940153,24.010181 L0.984935,24.010181 Z" id="path61"></path>
                        </g>
                        <g id="g63" transform="translate(52.608310, 157.794800)">
                            <path d="M85.940153,0.984935 C84.749192,9.718649 83.558231,18.84935 81.970283,27.583064 L0.190961,27.583064 C2.572883,19.643324 6.542753,0.984935 6.542753,0.984935 L85.940153,0.984935 Z" id="path65"></path>
                        </g>
                        <path d="M125.844879,16.658389 C123.859944,11.100571 121.875009,5.542753 119.493087,0.381922 C109.965399,4.748779 100.040724,11.100571 91.30701,16.658389 L125.844879,16.658389 Z" id="path67"></path>
                        <g id="g69" transform="translate(67.487790, 32.758960)">
                            <path d="M67.48779,17.643324 C66.296829,11.688519 65.105868,5.733714 63.51792,0.175896 L0.793974,0.175896 C0.793974,0.175896 1.190961,5.733714 1.587948,17.643324 L67.48779,17.643324 Z" id="path71"></path>
                        </g>
                        <path d="M140.136411,88.513036 C139.739424,81.764257 138.94545,75.412465 138.151476,68.663686 L69.075738,68.663686 C69.075738,68.663686 68.678751,82.161244 68.281764,88.513036 L140.136411,88.513036 Z" id="path73"></path>
                        <g id="g75" transform="translate(63.517920, 111.156360)">
                            <path d="M77.412465,23.010181 C77.809452,15.467428 77.809452,7.924675 77.809452,0.778909 L2.778909,0.778909 C2.778909,0.778909 1.587948,12.291532 2.25660983e-13,23.010181 L77.412465,23.010181 Z" id="path77"></path>
                        </g>
                    </g>
                </g>
            </g>
        </g>
    </g>
</svg>