<?xml version="1.0" encoding="UTF-8"?>
<svg width="142px" height="24px" viewBox="0 0 142 24" version="1.1" xmlns="http://www.w3.org/2000/svg" xmlns:xlink="http://www.w3.org/1999/xlink">
    <!-- Generator: Sketch 50 (54983) - http://www.bohemiancoding.com/sketch -->
    <title>Wolters_Kluwer_Logo</title>
    <desc>Created with Sketch.</desc>
    <defs></defs>
    <g id="Page-1" stroke="none" stroke-width="1" fill="none" fill-rule="evenodd">
        <g id="website4" transform="translate(-1012.000000, -793.000000)" fill-rule="nonzero">
            <g id="Logo-bar" transform="translate(-30.000000, 755.000000)">
                <g id="Wolters_Kluwer_Logo" transform="translate(1042.371094, 38.500000)">
                    <path d="M8.74358166,3.47889217 L8.74358166,0.507752962 C6.71374806,0.999109224 4.90014838,2.04991215 3.47024724,3.47889217 L8.74358166,3.47889217" id="path2684" fill="#D0D0D0"></path>
                    <path d="M14.0178279,3.47889217 L14.0178279,0.507752962 C16.0485827,0.999109224 17.8631021,2.04991215 19.2920835,3.47889217 L14.0178279,3.47889217" id="path2688" fill="#D0D0D0"></path>
                    <path d="M11.3908306,0.198586078 C10.4826497,0.198586078 9.59011205,0.304401549 8.74358166,0.507752962 L8.74358166,3.47889217 L14.0178359,3.47889217 L14.0178359,0.510513688 C13.1722253,0.307162275 12.2971705,0.198586078 11.3908306,0.198586078" id="path2692" fill="#A0C2E4"></path>
                    <path d="M14.0178279,19.3016563 L14.0178279,22.2718744 C16.0485827,21.7805181 17.8631021,20.7297165 19.2920835,19.3016563 L14.0178279,19.3016563" id="path2696" fill="#D0D0D0"></path>
                    <path d="M8.74358166,19.3016563 L8.74358166,22.2718744 C6.71374806,21.7805181 4.90014838,20.7297165 3.47024724,19.3016563 L8.74358166,19.3016563" id="path2700" fill="#D0D0D0"></path>
                    <path d="M11.3714922,22.5819624 C12.2805929,22.5819624 13.1722107,22.4761456 14.0178213,22.2718744 L14.0178213,19.3016563 L8.74356708,19.3016563 L8.74356708,22.2691137 C9.59009747,22.4733862 10.4633127,22.5819624 11.3714922,22.5819624" id="path2704" fill="#469DD7"></path>
                    <path d="M19.2920835,8.75222659 L22.2632214,8.75222659 C21.7718664,6.72331279 20.7219833,4.90879331 19.2920835,3.47889217 L19.2920835,8.75222659" id="path2708" fill="#D0D0D0"></path>
                    <path d="M19.2920835,14.0274008 L22.2632214,14.0274008 C21.7718664,16.0572344 20.7219833,17.8717552 19.2920835,19.3016563 L19.2920835,14.0274008" id="path2712" fill="#D0D0D0"></path>
                    <path d="M22.5733173,11.3994756 C22.5733173,10.4912948 22.4675005,9.59783718 22.2632293,8.75222659 L19.2920901,8.75222659 L19.2920901,14.0274008 L22.2595488,14.0274008 C22.4647398,13.1817902 22.5733173,12.3067354 22.5733173,11.3994756" id="path2716" fill="#469DD7"></path>
                    <path d="M3.47023929,14.0274008 L0.500021205,14.0274008 C0.989536541,16.0572344 2.04125927,17.8717552 3.47023929,19.3016563 L3.47023929,14.0274008" id="path2720" fill="#D0D0D0"></path>
                    <path d="M3.47023929,8.75222659 L0.500021205,8.75222659 C0.989536541,6.72331279 2.04125927,4.90879331 3.47023929,3.47889217 L3.47023929,8.75222659" id="path2724" fill="#D0D0D0"></path>
                    <path d="M0.189933196,11.3801598 C0.189933196,12.2892605 0.295749992,13.1817981 0.500021205,14.0274087 L3.47023929,14.0274087 L3.47023929,8.75223455 L0.502781931,8.75223455 C0.297589593,9.59784514 0.189933196,10.4738199 0.189933196,11.3801598" id="path2728" fill="#A0C2E4"></path>
                    <polygon id="path2730" fill="#93CC84" points="3.47023929 8.75222659 8.74357371 8.75222659 8.74357371 3.47797237 3.47023929 3.47797237"></polygon>
                    <polygon id="path2732" fill="#C6E3BD" points="3.47023929 14.0274008 8.74357371 14.0274008 8.74357371 8.75222659 3.47023929 8.75222659"></polygon>
                    <polygon id="path2734" fill="#6EBF5D" points="3.47023929 19.3016563 8.74357371 19.3016563 8.74357371 14.0274008 3.47023929 14.0274008"></polygon>
                    <polygon id="path2736" fill="#C6E3BD" points="8.74357371 8.75222659 14.0178279 8.75222659 14.0178279 3.47797237 8.74357371 3.47797237"></polygon>
                    <polygon id="path2738" fill="#E4105B" points="8.74357371 14.0274008 14.0178279 14.0274008 14.0178279 8.75222659 8.74357371 8.75222659"></polygon>
                    <polygon id="path2740" fill="#93CC84" points="8.74357371 19.3016563 14.0178279 19.3016563 14.0178279 14.0274008 8.74357371 14.0274008"></polygon>
                    <polygon id="path2742" fill="#6EBF5D" points="14.0178279 8.75222659 19.2920835 8.75222659 19.2920835 3.47797237 14.0178279 3.47797237"></polygon>
                    <polygon id="path2744" fill="#93CC84" points="14.0178279 14.0274008 19.2920835 14.0274008 19.2920835 8.75222659 14.0178279 8.75222659"></polygon>
                    <polygon id="path2746" fill="#6EBF5D" points="14.0178279 19.3016563 19.2920835 19.3016563 19.2920835 14.0274008 14.0178279 14.0274008"></polygon>
                    <path d="M41.1114047,19.3541114 L40.1020087,19.3541114 L37.7970528,12.8772316 C37.6065839,12.3444684 37.3783886,11.6773653 37.1492735,10.9164082 L37.1115471,10.9164082 C36.882432,11.6580429 36.6542367,12.2874196 36.444444,12.8772316 L34.0447142,19.3541114 L33.0159944,19.3541114 L28.6536016,6.7444841 L30.158033,6.7444841 L32.9589456,15.1260585 C33.1871409,15.8308866 33.3969335,16.4593448 33.56808,17.0878017 L33.6058064,17.0878017 C33.7778727,16.4786672 34.0253904,15.8502104 34.2729095,15.1637835 L36.444444,9.22058652 L35.586872,6.7444841 L37.0544982,6.7444841 L39.9308622,15.0496872 C40.1783813,15.7738378 40.425899,16.3829722 40.5970455,16.9930265 L40.6356917,16.9930265 C40.7875144,16.3636498 40.9586609,15.7922417 41.1877773,15.1067347 L43.9307199,6.7444841 L45.3974263,6.7444841 L41.1114047,19.3541114" id="path2750" fill="#696A6D"></path>
                    <path d="M49.4709038,11.2402905 C47.7750809,11.2402905 46.8034113,12.6113032 46.8034113,14.7441916 C46.8034113,16.8780011 47.8128073,18.2876586 49.4893064,18.2876586 C51.1658055,18.2876586 52.1752001,16.8780011 52.1752001,14.7441916 C52.1752001,12.6113032 51.2044503,11.2402905 49.4709038,11.2402905 Z M52.3086216,18.3640312 C51.6037921,19.0881831 50.6128001,19.4884447 49.45158,19.4884447 C48.3271665,19.4884447 47.3564167,19.1065857 46.6515873,18.3824339 C45.8317417,17.5451041 45.3937537,16.2688679 45.3937537,14.7828378 C45.3937537,13.2968089 45.8510641,12.0592176 46.6515873,11.2209681 C47.3748194,10.4774938 48.346489,10.0588282 49.4709038,10.0588282 C50.6321225,10.0588282 51.6037921,10.4774938 52.327944,11.2209681 C53.1275473,12.0592176 53.5848591,13.2968089 53.5848591,14.7828378 C53.5848591,16.2688679 53.1275473,17.5257817 52.3086216,18.3640312 Z" id="path2754" fill="#696A6D"></path>
                    <path d="M56.9765021,19.4884447 C55.8704912,19.4884447 55.3947782,18.7826954 55.3947782,17.8303482 L55.3947782,5.81145272 L56.785112,5.81145272 L56.785112,17.2018914 C56.785112,18.0585435 56.9949047,18.2306098 57.5285877,18.2306098 C57.6233616,18.2306098 57.7761054,18.2306098 58.0043007,18.173561 L58.1754472,19.1838781 C57.756783,19.3927497 57.4328927,19.4884447 56.9765021,19.4884447" id="path2758" fill="#696A6D"></path>
                    <path d="M62.0427966,19.4884447 C60.7472367,19.4884447 60.1187798,18.7256466 60.1187798,17.5644279 L60.1187798,11.4684858 L58.6520734,11.4684858 L58.6520734,10.2870235 L60.1187798,10.2870235 L60.1187798,8.30595778 L61.5100347,7.83024475 L61.5100347,10.2870235 L64.2713813,10.2870235 L63.7763445,11.4684858 L61.5100347,11.4684858 L61.5100347,17.1448425 C61.5100347,17.9067208 61.7952789,18.2499336 62.3860107,18.2499336 C63.0328702,18.2499336 63.6236007,17.8883182 63.9852174,17.6021529 L64.4241251,18.5922265 C63.7570221,19.0881831 62.8810461,19.4884447 62.0427966,19.4884447" id="path2762" fill="#696A6D"></path>
                    <path d="M68.5951306,11.2402905 C67.2627707,11.2402905 66.4236013,12.420833 66.4236013,13.8488932 L70.6718912,13.8488932 C70.6718912,12.5919795 69.9670644,11.2402905 68.5951306,11.2402905 Z M66.4051987,15.0303568 C66.4051987,16.7455008 67.395271,18.269256 69.3956617,18.269256 C70.157532,18.269256 70.9948684,17.9646895 71.5294658,17.6214767 L71.948134,18.5738239 C71.3012785,19.1065857 70.157532,19.4884447 69.1104176,19.4884447 C66.2901799,19.4884447 64.9182487,17.1825689 64.9182487,14.6116913 C64.9182487,12.001249 66.4051987,10.0588282 68.5767346,10.0588282 C70.9010063,10.0588282 72.1772491,11.9064738 72.1772491,14.7064665 C72.1772491,14.8021615 72.1772491,14.9162592 72.1772491,15.0303568 L66.4051987,15.0303568 Z" id="path2766" fill="#696A6D"></path>
                    <path d="M78.5381984,11.6773587 C78.3486453,11.6019072 78.0624734,11.5255346 77.6815383,11.5255346 C77.148783,11.5255346 76.2718846,11.9819252 75.7004686,12.6113032 L75.7004686,19.2970547 L74.3110533,19.2970547 L74.3110533,10.2870235 L75.4529575,10.2870235 L75.6434251,11.315742 C76.8819349,10.1922496 77.5665235,10.0588282 78.2143067,10.0588282 C78.6145657,10.0588282 78.9577811,10.2106523 79.1289249,10.3256697 L78.5381984,11.6773587" id="path2770" fill="#696A6D"></path>
                    <path d="M82.0052889,19.4884447 C80.7097223,19.4884447 79.9294427,19.1452319 79.3378017,18.8020192 L79.8723992,17.7162506 C80.2901396,17.9830921 81.0722615,18.3640312 82.0632601,18.3640312 C83.1674314,18.3640312 83.9670347,17.8689944 83.9670347,17.0307449 C83.9670347,14.8205642 79.8723992,15.6017649 79.8723992,12.4401568 C79.8723992,11.1445968 80.8054266,10.0588282 82.8628635,10.0588282 C83.8152014,10.0588282 84.5384375,10.2686209 85.129164,10.5345426 L85.129164,11.7537299 C84.5007177,11.4878096 83.8529344,11.2209681 82.919907,11.2209681 C82.0052889,11.2209681 81.2434053,11.5448584 81.2434053,12.3637842 C81.2434053,14.3825762 85.4144081,13.868217 85.4144081,16.8209522 C85.4144081,18.7063242 83.8529344,19.4884447 82.0052889,19.4884447" id="path2774" fill="#696A6D"></path>
                    <polyline id="path2778" fill="#696A6D" points="97.7397057 19.297048 92.7286097 13.6206913 92.7102137 13.6206913 92.7102137 19.297048 91.3198839 19.297048 91.3198839 6.74446953 92.7102137 6.74446953 92.7102137 12.5165201 92.7286097 12.5165201 97.3964903 6.78219459 99.129121 6.78219459 93.9671328 12.9535882 99.5873512 19.297048 97.7397057 19.297048"></polyline>
                    <path d="M102.501448,19.4884447 C101.396362,19.4884447 100.920651,18.7826954 100.920651,17.8303482 L100.920651,5.81145272 L102.310981,5.81145272 L102.310981,17.2018914 C102.310981,18.0585435 102.519857,18.2306098 103.05354,18.2306098 C103.149231,18.2306098 103.301979,18.2306098 103.530167,18.173561 L103.702238,19.1838781 C103.282656,19.3927497 102.958764,19.4884447 102.501448,19.4884447" id="path2782" fill="#696A6D"></path>
                    <path d="M111.111228,19.297048 L110.749617,18.3640233 C110.08251,18.9354313 109.035382,19.4884367 107.83552,19.4884367 C106.616334,19.4884367 105.092581,18.8599799 105.092581,16.3259088 L105.092581,10.2870169 L106.481995,10.2870169 L106.481995,16.1915676 C106.481995,17.6969202 107.111369,18.287652 108.235779,18.287652 C109.378598,18.287652 110.254581,17.5644199 110.634589,17.0877871 L110.634589,10.2870169 L112.025846,10.2870169 L112.025846,15.5263055 C112.025846,18.3640233 112.082903,18.9161089 112.216314,19.297048 L111.111228,19.297048" id="path2786" fill="#696A6D"></path>
                    <polyline id="path2790" fill="#696A6D" points="123.473331 19.3541114 122.216412 19.3541114 119.969422 12.0776282 119.911464 12.0776282 117.68287 19.3541114 116.463684 19.3541114 113.453896 10.2870315 114.864477 10.2870315 117.073748 17.4494171 117.130791 17.4494171 119.359372 10.2870315 120.617205 10.2870315 122.864195 17.4687395 122.921239 17.4687395 125.092776 10.2870315 126.445386 10.2870315 123.473331 19.3541114"></polyline>
                    <path d="M130.807784,11.2402905 C129.47357,11.2402905 128.635333,12.420833 128.635333,13.8488932 L132.883617,13.8488932 C132.883617,12.5919795 132.17879,11.2402905 130.807784,11.2402905 Z M128.616923,15.0303568 C128.616923,16.7455008 129.606994,18.269256 131.607388,18.269256 C132.369258,18.269256 133.207509,17.9646895 133.741192,17.6214767 L134.15986,18.5738239 C133.512077,19.1065857 132.369258,19.4884447 131.321216,19.4884447 C128.502823,19.4884447 127.130889,17.1825689 127.130889,14.6116913 C127.130889,12.001249 128.616923,10.0588282 130.788461,10.0588282 C133.111818,10.0588282 134.388061,11.9064738 134.388061,14.7064665 C134.388061,14.8021615 134.388061,14.9162592 134.388061,15.0303568 L128.616923,15.0303568 Z" id="path2794" fill="#696A6D"></path>
                    <path d="M140.483991,11.6773587 C140.293523,11.6019072 140.008279,11.5255346 139.627344,11.5255346 C139.093661,11.5255346 138.21769,11.9819252 137.646274,12.6113032 L137.646274,19.2970547 L136.255017,19.2970547 L136.255017,10.2870235 L137.397835,10.2870235 L137.589231,11.315742 C138.826826,10.1922496 139.513244,10.0588282 140.160112,10.0588282 C140.560371,10.0588282 140.903587,10.2106523 141.074731,10.3256697 L140.483991,11.6773587" id="path2798" fill="#696A6D"></path>
                    <polyline id="path2802" fill="#696A6D" points="22.4969381 18.1533188 22.1261208 18.1533188 22.1261208 19.295215 21.7957892 19.295215 21.7957892 18.1533188 21.384486 18.1533188 21.384486 17.8910776 22.5650285 17.8910776 22.4969381 18.1533188"></polyline>
                    <path d="M23.8946343,19.2952071 L23.8946343,18.5793374 C23.8946343,18.5287285 23.8946343,18.4707599 23.8973937,18.4284331 L23.8946343,18.4284331 C23.8826716,18.4578787 23.824703,18.5406912 23.8016987,18.5774965 L23.570744,18.9225501 L23.4281219,18.9225501 L23.1658808,18.564614 C23.1364366,18.5241282 23.1023907,18.4818014 23.0720267,18.4284331 L23.0683462,18.4284331 C23.0701858,18.4753602 23.0701858,18.5305694 23.0701858,18.5692156 L23.0701858,19.2952071 L22.7462968,19.2952071 L22.7462968,17.891071 L23.0407416,17.891071 L23.3922365,18.3815061 C23.4345632,18.4413157 23.4686077,18.4919232 23.5008127,18.5480523 L23.505413,18.5480523 C23.531178,18.4965236 23.5643028,18.4367153 23.6075493,18.3704645 L23.9231587,17.891071 L24.2194444,17.891071 L24.2194444,19.2952071 L23.8946343,19.2952071" id="path2806" fill="#696A6D"></path>
                </g>
            </g>
        </g>
    </g>
</svg>