<?xml version="1.0" encoding="UTF-8"?>
<svg width="1998px" height="1604px" viewBox="0 0 1998 1604" version="1.1" xmlns="http://www.w3.org/2000/svg" xmlns:xlink="http://www.w3.org/1999/xlink">
    <!-- Generator: Sketch 49 (51002) - http://www.bohemiancoding.com/sketch -->
    <title>logo-shape</title>
    <desc>Created with Sketch.</desc>
    <defs></defs>
    <g id="logo-shape" stroke="none" stroke-width="1" fill="none" fill-rule="evenodd" fill-opacity="0.168619792">
        <path d="M1737,488.216216 L1497.69322,464.972973 L1589.0649,389.432432 L1342.50639,-21.6824324 L1111.90167,111.966216 L1124.95477,165.716216 L628.93707,-58 L460.697148,146.831081 L597.029499,356.02027 L291.006883,357.472973 L262,597.168919 L443.293019,614.601351 L380.92822,648.013514 L541.916421,913.858108 L612.983284,934.195946 L499.856441,1019.90541 L534.6647,1259.60135 L729.010816,1308.99324 L717.408063,1473.14865 L876.945919,1662 L1110.45133,1554.5 L1110.45133,1452.81081 L1264.18781,1441.18919 L1320.75123,1150.64865 L1109.00098,1114.33108 L1109.00098,1075.10811 L1365.7119,1147.74324 L1555.70698,892.067568 L1520.89872,736.628378 L1725.39725,742.439189 L1737,488.216216 Z M1481.03025,463.620915 L1460.68428,462.168845 L1444.69817,393.921569 L1563.86738,393.921569 L1481.03025,463.620915 Z M1570.6128,380.431373 L1442.49822,380.431373 L1368.25,54.4183007 L1570.6128,380.431373 Z M1335.32589,4.95424837 L1420.60736,381.973521 L1422.05281,387.796213 L1423.49826,393.618904 L1437.95274,459.124183 L1280.39885,444.567454 L1273.1716,443.111781 L1296.29878,428.555053 L1248.59898,280.07642 L1244.26263,264.064019 L1239.92628,248.051617 L1228.3627,211.659796 L1199.45372,198.55874 L1186.44469,192.736048 L1173.43565,186.913357 L1147.41757,175.267974 L1140.19033,147.610189 L1137.29943,134.509134 L1134.40854,121.408078 L1335.32589,4.95424837 Z M635.418623,-33.2679739 L1127.9897,188.5215 L1139.57961,194.319917 L1151.16952,200.118335 L1194.63167,218.963192 L1200.42663,221.862401 L1206.22158,224.76161 L1209.11906,226.211214 L1212.01654,233.459236 L1213.46527,236.358445 L1246.78626,342.179567 L1267.0686,407.411765 L1196.08041,382.76849 L1184.4905,378.419677 L1172.9006,374.070863 L1033.8217,326.233918 L1020.78306,321.885105 L1006.29567,318.985896 L804.921024,249.404885 L794.779855,246.505676 L786.087424,243.606467 L489.096037,142.134159 L635.418623,-33.2679739 Z M1009.7738,342.20915 L1179.75856,400.862177 L1191.38145,405.261154 L1203.00434,409.660131 L1262.57165,430.18869 L1242.23159,443.385621 L1210.26864,440.45297 L1200.09862,438.986644 L1188.47573,437.520318 L884.827744,408.193805 L1009.7738,342.20915 Z M849.976372,402.915033 L871.658101,369.628878 L819.621951,277.006536 L981.512195,332.001052 L849.976372,402.915033 Z M493.592988,166.836601 L792.175683,268.604747 L844.355183,360.196078 L619.693446,357.288417 L493.592988,166.836601 Z M610.331102,376.60915 L617.578727,376.60915 L624.826351,376.60915 L846.603659,373.686275 L827.759835,402.915033 L630.624451,383.91634 L623.376826,382.454902 L616.129202,380.993464 L561.047256,375.147712 L610.331102,376.60915 Z M410.39939,656.583622 L481.646087,618.75817 L846.603659,655.128797 L778.26499,691.499423 L781.173018,722.05075 L782.627033,732.234525 L784.081047,740.963476 L782.627033,742.418301 L554.346799,890.810458 L410.39939,656.583622 Z M574.53811,901.744957 L785.620964,764.901961 L788.532452,804.207928 L788.532452,811.486811 L788.532452,818.765693 L801.634146,967.254902 L648.781045,923.581605 L641.502326,922.125829 L634.223607,920.670052 L574.53811,901.744957 Z M550.143844,1239.30719 L518.32622,1022.44306 L519.772475,1020.98759 L531.342521,1012.25481 L629.687906,938.026144 L803.238586,987.511919 L806.131098,1023.89852 L769.974706,1054.46326 L759.850916,1063.19605 L749.727126,1071.92883 L553.036356,1236.39626 L550.143844,1239.30719 Z M809.173153,1039.20261 L810.628049,1061.68627 L785.894817,1057.47059 L809.173153,1039.20261 Z M561.047256,1248.72035 L773.396307,1068.43137 L812.399194,1082.97081 L819.621951,1157.12192 L740.171626,1157.12192 L730.059766,1286.52288 L561.047256,1248.72035 Z M822.781971,1176.35294 L828.615854,1234.81046 L774.652439,1176.35294 L822.781971,1176.35294 Z M748.861101,1479.20784 L740.131725,1469.03399 L738.676829,1466.12717 L738.676829,1458.86013 L748.861101,1314.97274 L750.315997,1304.79888 L751.770893,1294.62502 L759.045373,1194.33987 L830.335276,1271.37049 L834.699964,1316.42614 L836.15486,1326.6 L837.609756,1336.77386 L847.794028,1451.59309 L849.248924,1461.76695 L850.70382,1471.9408 L862.342988,1601.29412 L748.861101,1479.20784 Z M1084.94207,1537.43622 L891.348323,1626.02614 L808.379573,715.437908 L1083.48648,724.151672 L1083.48648,1537.43622 L1084.94207,1537.43622 Z M1289.86709,1217.71299 L1249.35967,1421.79545 L1249.35967,1424.71091 L1226.21258,1426.16864 L1192.93862,1429.08411 L1111.92378,1434.91503 L1111.92378,1408.67586 L1111.92378,1398.47174 L1111.92378,1388.26761 L1111.92378,1172.52331 L1298.54726,1169.60784 L1289.86709,1217.71299 Z M1201.8628,1150.122 L1111.92378,1151.62092 L1111.92378,1133.63399 L1201.8628,1150.122 Z M848.852134,686.958606 L898.173535,661.477124 L1298.54726,699.699346 L848.852134,686.958606 Z M1184.61157,724.431373 L1257.29936,725.874354 L1280.55945,821.111111 L1111.92378,786.479563 L1111.92378,783.593601 L1184.61157,724.431373 Z M1111.92378,771.647059 L1111.92378,724.431373 L1168.13567,725.906863 L1111.92378,771.647059 Z M1370.40479,1110.7634 L1363.14409,1120.93856 L1361.69195,1122.39216 L1351.52696,1119.48497 L1111.92378,1052.61961 L1111.92378,809.869281 L1284.7285,844.755556 L1296.34562,847.662745 L1307.96275,850.569935 L1530.14024,895.631373 L1370.40479,1110.7634 Z M1534.6372,877.320261 L1301.61336,829.311034 L1278.31098,728.928105 L1502.59642,736.20223 L1534.6372,877.320261 Z M1699.7224,710.941176 L293.478659,571.50269 L316.674432,382.679739 L1705.52134,513.40332 L1699.7224,710.941176 Z" id="Shape-Copy-3" fill="#FFFFFF" fill-rule="nonzero" transform="translate(999.500000, 802.000000) rotate(-270.000000) translate(-999.500000, -802.000000) "></path>
    </g>
</svg>