<svg id="Layer_1" data-name="Layer 1" xmlns="http://www.w3.org/2000/svg" viewBox="0 0 386.34 114.2"><defs><style>.cls-1{fill:#f18a21;}</style></defs><title>xerius-logo-nav</title><path class="cls-1" d="M49.67,28.5c4.75,1.05,6.54.52,6.4-1.65-0.19-2.87-2-3.06-2.41-6.1-0.31-2.64,1.62-7.33,8-7.33,3.37,0,5.8,2.24,5.8,7.58,0,7.16-6,6-6.3,9.23-0.24,2.95,6.12,4,6.12,10.67,0,5.51-8.88,10.86-8.22,19.45,0.5,6.52,14.24,6.38,23.18,9,4.68,1.36,7.21,1.29,20.63,22a57.11,57.11,0,0,0,8.23-52.77s-10.67,3.72-19.64,3.72c-17.19,0-24.86-8.6-16.67-7.64a97,97,0,0,0,19.51.65,84.53,84.53,0,0,0,14.33-2.8A57.11,57.11,0,0,0,1.85,42.64C8.71,39.5,38.26,26,49.67,28.5"/><path class="cls-1" d="M72.85,78.94C51,79.76,39.14,79.1,39.14,66.75c0-7.51,5.72-11.29,7.43-24.25,1.29-9.76-8.38-9-45.91,5.92A57.17,57.17,0,0,0,14.15,94.7C21.5,87.66,27,83.61,34,82.34c8.12-1.46,14.3,0,5.36,7.38-2.53,2.1-7.25,5.57-16.65,13A56.84,56.84,0,0,0,57.1,114.2,57.74,57.74,0,0,0,97.57,97.48C80.76,85.79,86.89,78.42,72.85,78.94"/><path class="cls-1" d="M275.16,32.42V33a9.33,9.33,0,0,1,2.61,6.76v42h10.41V32.42h-13Z"/><path class="cls-1" d="M250,44.94c-0.13-6.63-.91-12.52-0.91-12.52H236.82V33a9.33,9.33,0,0,1,2.6,6.75v42h10.64s-0.3-8.9-.3-18.22a27.69,27.69,0,0,1,2.54-12.13c7.81-15.18,16.29-8.92,16.29-8.92h0.7V33c-7.46-2.65-14.17,3.12-19.34,11.9"/><path class="cls-1" d="M168.29,54.28l17.35-21.85h-8.37l-12.36,17-11.5-17H138.95v0.77s1.5-.13,5.79,5.26l13.72,18.73L139.09,81.73h9.14L161.95,61.8l12.46,19.93h13.82Z"/><path class="cls-1" d="M382.6,44.3H382a15.23,15.23,0,0,0-14.46-7.75c-3.79.23-7.73,1.58-7.73,5.13,0,10.07,26.5,9,26.5,25.26,0,10.39-8,15.88-21.35,15.88-9.34,0-15.18-2.86-15.18-2.86V69.49h0.59S354.16,77,366.05,77c7.47,0,10.32-3.29,10.32-7,0-12.34-25.23-11.61-26.69-24.61-1-9.41,8.15-14.12,18.27-14.12a33.69,33.69,0,0,1,14.64,3.82v9.2Z"/><path class="cls-1" d="M228.08,77.66s-5.31,5.09-16.74,5.09c-17.32,0-24.25-13.15-24.25-27S198,31.46,210.2,31.46c18.83,0,22.22,16.41,21.33,26H198.84c-0.8,10.8,4.85,19.37,13.22,19.37,11.57,0,16.22-5.91,16.22-5.91H229Zm-6.47-26c0.54-6.09-2.4-14.86-10.43-14.86-7.69,0-11.8,8-12.09,14.86h22.52Z"/><path class="cls-1" d="M329.32,32.42V33s2.43,1.84,2.43,6.88V58.53c0,12.49-3.22,18.7-11.06,18.7s-11.05-5.75-11.05-18.7V32.42H296.78V33s2.42,1.84,2.42,6.88V60c0,20.53,13.29,22.92,21.5,22.92S342.16,80.16,342.16,60V32.42H329.32Z"/><path class="cls-1" d="M282.78,26.59a5.94,5.94,0,1,0-5.93-5.94,5.93,5.93,0,0,0,5.93,5.94"/></svg>