<svg width="718" height="1000" viewBox="0 0 718 1000" fill="none" xmlns="http://www.w3.org/2000/svg">
<path d="M28.157 996.479V921.831H4.22363V904.225H72.504V921.831H47.8668V996.479H28.157Z" fill="#18A7B5"/>
<path d="M102.773 997.887C81.6552 997.887 69.6885 988.732 69.6885 961.972C69.6885 933.803 82.3591 925.352 101.365 925.352C120.371 925.352 131.634 932.394 131.634 966.197L90.1023 970.423C91.5101 978.873 95.0297 982.394 103.477 982.394C110.516 982.394 116.851 980.986 123.89 976.761L129.522 990.141C121.075 995.07 113.332 997.887 102.773 997.887ZM111.924 954.225C111.924 943.662 107.7 940.141 100.661 940.141C92.918 940.141 88.6944 945.07 88.6944 956.338V958.451L111.924 954.225Z" fill="#18A7B5"/>
<path d="M187.947 997.887C186.539 994.366 185.131 990.845 184.427 987.324C180.908 993.662 174.573 997.887 164.014 997.887C146.416 997.887 139.376 989.437 139.376 976.056C139.376 962.676 147.824 954.93 180.908 953.521C180.204 943.662 175.276 940.845 167.533 940.845C161.198 940.845 154.159 942.254 148.527 945.775L142.896 931.69C151.343 926.761 160.494 925.352 171.053 925.352C189.355 925.352 200.618 935.916 200.618 952.817V969.718C200.618 977.465 200.618 985.915 202.729 994.366L187.947 997.887ZM181.612 966.197C164.718 966.901 159.086 969.718 159.086 975.352C159.086 980.282 161.902 982.394 168.941 982.394C175.276 982.394 178.796 978.873 181.612 973.239V966.197Z" fill="#18A7B5"/>
<path d="M220.327 996.479C217.512 990.141 217.512 981.69 217.512 972.535V904.225L236.518 902.113V974.648C236.518 981.69 236.518 990.845 237.925 997.183H220.327V996.479Z" fill="#18A7B5"/>
<path d="M254.116 996.479V905.634C261.859 903.521 270.306 902.817 278.753 902.817C300.575 902.817 316.765 910.563 316.765 935.211C316.765 958.451 299.871 965.493 280.161 965.493C275.233 965.493 269.602 964.789 264.675 964.085V996.479H254.116ZM278.049 956.338C295.647 956.338 306.206 952.113 306.206 935.211C306.206 916.901 294.943 911.972 279.457 911.972C274.53 911.972 268.898 912.676 263.971 913.38V954.93C268.898 955.634 273.826 956.338 278.049 956.338Z" fill="#18A7B5"/>
<path d="M370.967 986.62C366.743 993.662 359.704 997.887 349.145 997.887C333.659 997.887 325.916 992.958 325.916 978.169C325.916 964.789 336.475 958.451 370.263 957.042V955.634C370.263 940.845 362.52 935.916 353.369 935.916C347.033 935.916 339.994 937.324 334.363 940.141L331.547 932.394C338.586 928.873 345.626 927.465 353.369 927.465C368.151 927.465 380.118 934.507 380.118 954.93V972.535C380.118 980.986 380.822 988.732 382.23 996.479L373.782 998.592C373.079 993.662 371.671 990.141 370.967 986.62ZM370.263 964.789C347.737 965.493 335.771 969.014 335.771 978.169C335.771 986.62 338.586 990.141 351.257 990.141C361.112 990.141 366.039 985.211 370.263 976.056V964.789Z" fill="#18A7B5"/>
<path d="M397.716 996.479V952.817C397.716 944.366 397.012 936.62 395.604 928.873L404.051 926.761C405.459 930.282 406.163 934.507 406.867 938.732C410.387 930.986 416.722 926.761 427.281 926.056L428.689 936.62C418.13 936.62 411.795 941.549 407.571 951.409V995.775H397.716V996.479Z" fill="#18A7B5"/>
<path d="M445.583 963.38V936.62H434.32V928.169H445.583V907.746L455.438 906.338V928.169H470.924L470.22 936.62H456.142V966.901C456.142 978.169 456.142 985.211 464.589 992.958L458.253 998.592C446.991 989.437 445.583 978.169 445.583 963.38Z" fill="#18A7B5"/>
<path d="M525.83 996.479V959.155C525.83 944.366 525.126 935.211 511.047 935.211C501.192 935.211 496.265 940.141 492.041 948.592V996.479H482.187V952.817C482.187 944.366 481.483 936.62 480.075 928.873L488.522 926.761C489.93 930.282 490.634 933.803 491.338 936.62C495.561 929.578 502.6 925.352 513.159 925.352C532.869 925.352 536.388 940.141 536.388 955.634V994.366H525.83V996.479Z" fill="#18A7B5"/>
<path d="M580.032 997.887C562.433 997.887 550.467 990.845 550.467 961.972C550.467 932.394 563.841 926.056 578.624 926.056C595.518 926.056 605.373 934.507 605.373 963.38V964.789L560.322 968.31C561.026 984.507 568.065 989.437 580.032 989.437C587.071 989.437 593.406 988.028 599.037 984.507L602.557 992.254C596.222 996.479 587.775 997.887 580.032 997.887ZM596.222 957.747C596.222 940.845 589.182 935.211 578.624 935.211C567.361 935.211 560.322 941.549 560.322 959.859V961.268L596.222 957.747Z" fill="#18A7B5"/>
<path d="M620.859 996.479V952.817C620.859 944.366 620.155 936.62 618.747 928.873L627.194 926.761C628.602 930.282 629.306 934.507 630.01 938.732C633.53 930.986 639.865 926.761 650.424 926.056L651.832 936.62C641.273 936.62 634.937 941.549 630.714 951.409V995.775H620.859V996.479Z" fill="#18A7B5"/>
<path d="M684.916 989.437C694.067 989.437 698.994 987.324 698.994 978.873C698.994 971.127 694.067 969.718 684.212 966.901C672.949 964.084 662.39 959.859 662.39 945.07C662.39 932.394 672.245 926.761 684.916 926.761C692.659 926.761 699.698 927.465 705.329 930.986L701.81 938.732C696.882 935.915 691.251 935.211 684.916 935.211C677.173 935.211 671.541 936.62 671.541 945.775C671.541 952.817 678.58 955.634 687.027 957.746C697.586 960.563 708.849 963.38 708.849 978.169C708.849 992.958 699.698 997.887 685.62 997.887C675.765 997.887 667.318 996.479 660.278 992.253L663.094 984.507C669.429 987.324 676.469 989.437 684.916 989.437Z" fill="#18A7B5"/>
<path d="M715.888 264.789L599.741 253.521L644.088 216.901L524.422 17.6056L412.498 82.3944L418.833 108.451L178.092 0L96.4373 99.2958L162.606 200.704L14.0784 201.408L0 317.606L87.9902 326.056L57.7216 342.253L135.857 471.127L170.349 480.986L115.443 522.535L132.337 638.732L226.663 662.676L221.031 742.253L298.463 833.803L411.794 781.69V732.394L486.41 726.76L513.863 585.915L411.09 568.31V549.296L535.684 584.507L627.898 460.563L611.004 385.211L710.257 388.028L715.888 264.789ZM591.294 252.817L581.439 252.113L573.696 219.014H631.418L591.294 252.817ZM634.233 213.38H572.288L536.388 54.9296L634.233 213.38ZM423.057 87.3239L520.902 30.9859L562.433 213.38L563.137 216.197L563.841 219.014L570.88 250.704L494.153 243.662L490.633 242.958L501.896 235.915L478.667 164.084L476.555 156.338L474.443 148.592L468.812 130.986L454.733 124.648L448.398 121.831L442.063 119.014L429.392 113.38L425.873 100L424.465 93.662L423.057 87.3239ZM181.612 11.9718L420.945 119.718L426.576 122.535L432.208 125.352L453.326 134.507L456.141 135.915L458.957 137.324L460.365 138.028L461.773 141.549L462.476 142.958L478.667 194.366L488.522 226.056L454.029 214.084L448.398 211.972L442.767 209.859L375.19 186.62L368.855 184.507L361.816 183.099L263.971 149.296L259.043 147.887L254.82 146.479L110.516 97.1831L181.612 11.9718ZM362.52 193.662L444.878 221.831L450.51 223.944L456.141 226.056L485.002 235.915L475.147 242.254L459.661 240.845L454.733 240.141L449.102 239.437L301.982 225.352L362.52 193.662ZM285.088 223.239L295.647 207.042L270.306 161.972L349.145 188.732L285.088 223.239ZM111.924 108.451L256.931 157.746L282.273 202.113L173.165 200.704L111.924 108.451ZM168.941 210.563H172.461H175.98L283.68 209.155L274.529 223.239L178.796 214.084L175.276 213.38L171.757 212.676L145.008 209.859L168.941 210.563ZM71.8 346.479L106.292 328.169L282.976 345.775L249.892 363.38L251.3 378.169L252.004 383.099L252.708 387.324L252.004 388.028L141.488 459.859L71.8 346.479ZM151.343 464.789L253.412 398.592L254.82 417.606V421.127V424.648L261.155 496.479L187.243 475.352L183.724 474.648L180.204 473.944L151.343 464.789ZM140.08 628.873L124.594 523.944L125.298 523.239L130.929 519.014L178.796 483.099L263.267 507.042L264.675 524.648L247.076 539.437L242.149 543.662L237.222 547.887L141.488 627.465L140.08 628.873ZM265.378 531.69L266.082 542.958L254.116 540.845L265.378 531.69ZM145.008 633.803L248.484 546.479L267.49 553.521L271.01 589.437H232.294L227.367 652.113L145.008 633.803ZM271.714 598.592L274.529 626.761L248.484 598.592H271.714ZM236.518 745.07L232.294 740.141L231.59 738.732V735.211L236.518 665.493L237.222 660.563L237.925 655.634L241.445 607.042L275.937 644.366L278.049 666.197L278.753 671.127L279.457 676.056L284.384 731.69L285.088 736.62L285.792 741.549L291.424 804.225L236.518 745.07ZM398.42 773.239L304.798 816.197L264.675 374.648L397.716 378.873V773.239H398.42ZM499.08 618.31L479.371 716.901V718.31L468.108 719.014L451.918 720.423L412.498 723.239V710.563V705.634V700.704V596.479L503.304 595.07L499.08 618.31ZM456.141 585.915L412.498 586.62V578.169L456.141 585.915ZM284.384 361.268L308.318 348.592L502.6 367.606L284.384 361.268ZM447.694 379.577L482.89 380.282L494.153 426.761L412.498 409.859V408.451L447.694 379.577ZM412.498 401.408V378.873L439.247 379.577L412.498 401.408ZM537.796 566.901L534.277 571.831L533.573 572.535L528.645 571.127L412.498 538.732V421.127L496.265 438.028L501.896 439.437L507.527 440.845L615.227 462.676L537.796 566.901ZM617.339 452.817L504.712 429.577L493.449 380.986L601.853 384.507L617.339 452.817ZM698.29 372.535L15.4863 304.93L26.749 213.38L701.106 276.761L698.29 372.535Z" fill="#18A7B5"/>
</svg>
