<?xml version="1.0" encoding="UTF-8"?>
<svg width="206px" height="71px" viewBox="0 0 206 71" version="1.1" xmlns="http://www.w3.org/2000/svg" xmlns:xlink="http://www.w3.org/1999/xlink">
    <!-- Generator: Sketch 49 (51002) - http://www.bohemiancoding.com/sketch -->
    <title>Group</title>
    <desc>Created with Sketch.</desc>
    <defs></defs>
    <g id="Page-1" stroke="none" stroke-width="1" fill="none" fill-rule="evenodd">
        <g id="website4-copy-4" transform="translate(-84.000000, -24.000000)" fill="#FFFFFF">
            <g id="Header">
                <g id="Group" transform="translate(84.000000, 24.000000)">
                    <path d="M61,22.5472973 L51.1032448,21.5878378 L54.8820059,18.4695946 L44.6853491,1.49915541 L35.1484759,7.0160473 L35.6882989,9.2347973 L15.1750246,0 L8.2173058,8.45523649 L13.8554572,17.0903716 L1.19960669,17.1503378 L0,27.0447635 L7.49754179,27.7643581 L4.91838741,29.1435811 L11.5762045,40.1173986 L14.5152409,40.9569257 L9.83677483,44.4949324 L11.2763029,54.3893581 L19.3136676,56.4282095 L18.833825,63.2043919 L25.4316618,71 L35.0884956,66.5625 L35.0884956,62.3648649 L41.446411,61.8851351 L43.7856441,49.8918919 L35.0285152,48.3927365 L35.0285152,46.7736486 L45.6450344,49.7719595 L53.5024582,39.2179054 L52.0629302,32.8015203 L60.5201573,33.0413851 L61,22.5472973 Z M50.3834808,21.5278716 L49.5437561,21.4679054 L48.8839725,18.6494932 L53.8023599,18.6494932 L50.3834808,21.5278716 Z M54.0422812,18.1697635 L48.7640118,18.1697635 L45.7050147,4.67736486 L54.0422812,18.1697635 Z M44.3854474,2.63851351 L47.9242871,18.1697635 L47.9842675,18.4096284 L48.0442478,18.6494932 L48.6440511,21.347973 L42.1061947,20.7483108 L41.806293,20.6883446 L42.7659784,20.0886824 L40.7866273,13.9721284 L40.6066863,13.3125 L40.4267453,12.6528716 L39.9469027,11.1537162 L38.747296,10.6140203 L38.207473,10.3741554 L37.66765,10.1342905 L36.5880039,9.65456081 L36.2881023,8.5152027 L36.1681416,7.97550676 L36.0481809,7.43581081 L44.3854474,2.63851351 Z M15.4749263,1.01942568 L35.8682399,10.1942568 L36.3480826,10.4341216 L36.8279253,10.6739865 L38.6273353,11.4535473 L38.8672566,11.5734797 L39.107178,11.6934122 L39.2271386,11.7533784 L39.3470993,12.0532095 L39.4070796,12.1731419 L40.7866273,16.5506757 L41.626352,19.2491554 L38.6873156,18.2297297 L38.207473,18.0498311 L37.7276303,17.8699324 L31.9695182,15.8910473 L31.4296952,15.7111486 L30.8298918,15.5912162 L22.4926254,12.7128378 L22.072763,12.5929054 L21.712881,12.472973 L9.41691249,8.27533784 L15.4749263,1.01942568 Z M30.8898722,16.4907095 L37.9075713,18.8893581 L38.387414,19.0692568 L38.8672566,19.2491554 L41.3264503,20.0886824 L40.4867257,20.6283784 L39.1671583,20.5084459 L38.747296,20.4484797 L38.2674533,20.3885135 L25.7315634,19.1891892 L30.8898722,16.4907095 Z M24.2920354,19.0092905 L25.1917404,17.6300676 L23.0324484,13.7922297 L29.7502458,16.0709459 L24.2920354,19.0092905 Z M9.53687316,9.2347973 L21.892822,13.4324324 L24.0521141,17.2103041 L14.7551622,17.0903716 L9.53687316,9.2347973 Z M14.3952802,17.9298986 L14.6951819,17.9298986 L14.9950836,17.9298986 L24.1720747,17.8099662 L23.3923304,19.0092905 L15.2350049,18.2297297 L14.9351032,18.1697635 L14.6352016,18.1097973 L12.3559489,17.8699324 L14.3952802,17.9298986 Z M6.1179941,29.5033784 L9.05703048,27.9442568 L24.1120944,29.4434122 L21.2930187,30.9425676 L21.4129794,32.2018581 L21.4729597,32.6216216 L21.53294,32.9814189 L21.4729597,33.0413851 L12.0560472,39.1579392 L6.1179941,29.5033784 Z M12.8957719,39.5777027 L21.5929204,33.9408784 L21.712881,35.5599662 L21.712881,35.8597973 L21.712881,36.1596284 L22.252704,42.2761824 L15.9547689,40.4771959 L15.6548673,40.4172297 L15.3549656,40.3572635 L12.8957719,39.5777027 Z M11.9360865,53.5498311 L10.6165192,44.6148649 L10.6764995,44.5548986 L11.1563422,44.1951014 L15.2350049,41.1368243 L22.432645,43.1756757 L22.5526057,44.6748311 L21.0530973,45.9341216 L20.633235,46.2939189 L20.2133727,46.6537162 L12.0560472,53.4298986 L11.9360865,53.5498311 Z M22.612586,45.2744932 L22.6725664,46.2339527 L21.6529007,46.0540541 L22.612586,45.2744932 Z M12.3559489,53.9695946 L21.173058,46.5337838 L22.792527,47.1334459 L23.0924287,50.191723 L19.7935103,50.191723 L19.373648,55.5287162 L12.3559489,53.9695946 Z M23.152409,50.9712838 L23.3923304,53.3699324 L21.173058,50.9712838 L23.152409,50.9712838 Z M20.1533923,63.4442568 L19.7935103,63.0244932 L19.73353,62.9045608 L19.73353,62.6047297 L20.1533923,56.6680743 L20.2133727,56.2483108 L20.273353,55.8285473 L20.5732547,51.6908784 L23.5122911,54.8690878 L23.6922321,56.7280405 L23.7522124,57.1478041 L23.8121927,57.5675676 L24.2320551,62.3048986 L24.2920354,62.7246622 L24.3520157,63.1444257 L24.8318584,68.4814189 L20.1533923,63.4442568 Z M33.9488692,65.8429054 L25.9714848,69.5008446 L22.5526057,31.902027 L33.8888889,32.2618243 L33.8888889,65.8429054 L33.9488692,65.8429054 Z M42.526057,52.6503378 L40.8466077,61.0456081 L40.8466077,61.1655405 L39.8869223,61.2255068 L38.5073746,61.3454392 L35.1484759,61.5853041 L35.1484759,60.5059122 L35.1484759,60.0861486 L35.1484759,59.6663851 L35.1484759,50.7913851 L42.885939,50.6714527 L42.526057,52.6503378 Z M38.8672566,49.8918919 L35.1484759,49.9518581 L35.1484759,49.2322635 L38.8672566,49.8918919 Z M24.2320551,30.7626689 L26.2713864,29.683277 L42.8259587,31.3023649 L24.2320551,30.7626689 Z M38.1474926,32.3217905 L41.1465093,32.3817568 L42.1061947,36.339527 L35.1484759,34.9003378 L35.1484759,34.7804054 L38.1474926,32.3217905 Z M35.1484759,34.1807432 L35.1484759,32.2618243 L37.4277286,32.3217905 L35.1484759,34.1807432 Z M45.8249754,48.2728041 L45.5250737,48.6925676 L45.4650934,48.7525338 L45.0452311,48.6326014 L35.1484759,45.8741554 L35.1484759,35.8597973 L42.2861357,37.2989865 L42.7659784,37.4189189 L43.245821,37.5388514 L52.4228122,39.3978041 L45.8249754,48.2728041 Z M52.6027532,38.558277 L43.0058997,36.5793919 L42.0462144,32.441723 L51.2831858,32.7415541 L52.6027532,38.558277 Z M59.5004916,31.7221284 L1.31956735,25.9653716 L2.2792527,18.1697635 L59.740413,23.566723 L59.5004916,31.7221284 Z" id="Shape-Copy-2" fill-rule="nonzero"></path>
                    <path d="M81.736,43 L78.064,43 L78.064,29.44 L73.72,29.44 L73.72,26.2 L86.08,26.2 L86.08,29.44 L81.736,29.44 L81.736,43 Z M96.448,41.896 C95.08,42.832 93.568,43.288 91.72,43.288 C87.856,43.288 85.648,41.656 85.648,36.712 C85.648,31.6 87.904,30.04 91.36,30.04 C94.768,30.04 96.808,31.336 96.808,37.528 L89.272,38.32 C89.488,39.856 90.208,40.456 91.672,40.456 C92.992,40.456 94.168,40.192 95.392,39.472 L96.448,41.896 Z M89.128,36.112 L93.4,35.44 C93.352,33.568 92.656,32.848 91.36,32.848 C89.896,32.848 89.128,33.76 89.128,35.752 L89.128,36.112 Z M106.096,38.896 L106.096,37.528 C103.072,37.696 101.992,38.224 101.992,39.256 C101.992,40.192 102.448,40.576 103.816,40.576 C105.016,40.576 105.616,39.928 106.096,38.896 Z M109.936,42.592 L107.2,43.264 C106.96,42.664 106.744,42.016 106.6,41.392 C105.904,42.568 104.824,43.288 102.928,43.288 C99.736,43.288 98.488,41.752 98.488,39.376 C98.488,36.904 99.976,35.584 106.096,35.224 C106,33.4 105.088,32.944 103.696,32.944 C102.496,32.944 101.296,33.256 100.192,33.808 L99.136,31.24 C100.648,30.376 102.352,30.04 104.248,30.04 C107.584,30.04 109.6,32.008 109.6,35.032 L109.6,38.152 C109.6,39.616 109.624,41.152 109.936,42.592 Z M116.32,43 L113.032,43 C112.576,41.824 112.504,40.288 112.504,38.656 L112.504,26.176 L116.008,25.768 L116.008,38.896 C116.008,40.192 116.032,41.872 116.32,43 Z" id="Teal"></path>
                    <path d="M124.528,43 L122.68,43 L122.68,26.464 C124.096,26.128 125.68,25.912 127.144,25.912 C131.152,25.912 134.056,27.328 134.056,31.792 C134.056,35.992 130.936,37.36 127.36,37.36 C126.424,37.36 125.464,37.264 124.528,37.12 L124.528,43 Z M124.528,35.512 C125.344,35.656 126.208,35.728 127.072,35.728 C130.216,35.728 132.184,34.936 132.184,31.84 C132.184,28.504 130.096,27.592 127.312,27.592 C126.352,27.592 125.392,27.688 124.528,27.904 L124.528,35.512 Z M144.472,43.144 C144.256,42.544 144.088,41.92 143.968,41.296 C143.224,42.592 141.976,43.288 139.936,43.288 C137.104,43.288 135.736,42.328 135.736,39.64 C135.736,37.216 137.632,36.04 143.752,35.776 L143.752,35.488 C143.752,32.752 142.36,31.912 140.632,31.912 C139.432,31.912 138.256,32.176 137.176,32.704 L136.6,31.264 C137.824,30.616 139.168,30.328 140.632,30.328 C143.272,30.328 145.528,31.648 145.528,35.296 L145.528,38.512 C145.528,40 145.624,41.488 145.96,42.808 L144.472,43.144 Z M143.752,39.304 L143.752,37.24 C139.6,37.432 137.488,38.032 137.488,39.64 C137.488,41.128 137.992,41.824 140.272,41.824 C142.072,41.824 142.96,40.888 143.752,39.304 Z M150.616,43 L148.84,43 L148.84,35.104 C148.84,33.616 148.744,32.128 148.408,30.808 L149.896,30.472 C150.136,31.12 150.328,31.864 150.472,32.608 C151.144,31.24 152.272,30.472 154.192,30.328 L154.432,32.248 C152.464,32.272 151.312,33.112 150.616,34.888 L150.616,43 Z M159.688,43.36 C157.696,41.776 157.552,39.784 157.552,37.072 L157.552,32.128 L155.44,32.128 L155.44,30.616 L157.552,30.616 L157.552,26.848 L159.328,26.608 L159.328,30.616 L162.088,30.616 L161.92,32.128 L159.328,32.128 L159.328,37.576 C159.328,39.688 159.352,40.888 160.888,42.352 L159.688,43.36 Z M173.848,43 L172.072,43 L172.072,36.232 C172.072,33.52 171.928,31.816 169.336,31.816 C167.536,31.816 166.648,32.728 165.856,34.312 L165.856,43 L164.08,43 L164.08,35.104 C164.08,33.616 163.984,32.128 163.648,30.808 L165.136,30.472 C165.352,31.072 165.52,31.696 165.64,32.32 C166.384,31.024 167.632,30.328 169.672,30.328 C173.248,30.328 173.848,32.992 173.848,35.896 L173.848,43 Z M186.088,42.184 C184.84,43 183.424,43.288 181.936,43.288 C178.672,43.288 176.536,41.944 176.536,36.808 C176.536,31.432 179.008,30.328 181.696,30.328 C184.816,30.328 186.616,31.816 186.616,37.096 L186.616,37.312 L178.36,37.984 C178.432,40.888 179.728,41.776 181.936,41.776 C183.208,41.776 184.312,41.488 185.44,40.816 L186.088,42.184 Z M178.312,36.592 L184.864,35.968 C184.816,32.848 183.64,31.84 181.696,31.84 C179.608,31.84 178.312,32.992 178.312,36.328 L178.312,36.592 Z M191.176,43 L189.4,43 L189.4,35.104 C189.4,33.616 189.304,32.128 188.968,30.808 L190.456,30.472 C190.696,31.12 190.888,31.864 191.032,32.608 C191.704,31.24 192.832,30.472 194.752,30.328 L194.992,32.248 C193.024,32.272 191.872,33.112 191.176,34.888 L191.176,43 Z M197.056,40.792 C198.184,41.44 199.552,41.752 200.992,41.752 C202.624,41.752 203.608,41.32 203.608,39.832 C203.608,38.464 202.768,38.224 200.872,37.672 C198.784,37.096 196.84,36.448 196.84,33.688 C196.84,31.36 198.664,30.328 200.896,30.328 C202.264,30.328 203.536,30.52 204.664,31.144 L204.064,32.536 C203.224,32.08 202.168,31.864 201.04,31.864 C199.624,31.864 198.568,32.152 198.568,33.784 C198.568,35.128 199.792,35.536 201.352,35.968 C203.248,36.496 205.336,37.024 205.336,39.64 C205.336,42.28 203.704,43.288 201.088,43.288 C199.312,43.288 197.752,43 196.48,42.208 L197.056,40.792 Z" id="Partners"></path>
                </g>
            </g>
        </g>
    </g>
</svg>