<svg width="1000" height="349" viewBox="0 0 1000 349" fill="none" xmlns="http://www.w3.org/2000/svg">
<path fill-rule="evenodd" clip-rule="evenodd" d="M297.17 110.831L248.957 106.115L267.365 90.7872L217.691 7.36909L171.231 34.4873L173.86 45.3936L73.9274 0L40.0317 41.5617L67.4986 84.0076L5.84406 84.3024L0 132.938L36.5253 136.476L23.9606 143.255L56.3953 197.197L70.7132 201.323L47.9212 218.715L54.934 267.35L94.0891 277.372L91.7514 310.681L123.894 349L170.938 327.187V306.554L201.912 304.196L213.308 245.243L170.646 237.874V229.916L222.366 244.654L260.644 192.775L253.632 161.236L294.832 162.415L297.17 110.831ZM245.45 105.82L241.359 105.525L238.145 91.6715H262.106L245.45 105.82ZM237.56 89.3133H263.275L222.658 22.9916L237.56 89.3133ZM216.23 12.9696L233.47 89.3133L233.762 90.4924L234.054 91.6715L236.976 104.936L205.126 101.988L203.665 101.693L208.34 98.7458L198.698 68.6799L197.821 65.4375L196.944 62.1951L194.607 54.826L188.763 52.1731L186.133 50.9941L183.503 49.815L178.243 47.4569L176.783 41.8564L176.198 39.2035L175.614 36.5507L216.23 12.9696ZM174.737 50.1098L75.3882 5.01098L45.8758 40.6774L105.777 61.3108L107.531 61.9003L109.576 62.4899L150.192 76.6385L153.114 77.228L155.744 78.1123L183.795 87.8395L186.133 88.7238L188.471 89.6081L202.788 94.6191L198.698 81.3547L191.977 59.837L191.685 59.2475L191.1 57.7736L190.516 57.4789L189.347 56.8894L188.178 56.2998L179.412 52.4679L177.075 51.2888L174.737 50.1098ZM150.484 81.06L184.672 92.8505L187.009 93.7348L189.347 94.6191L201.327 98.7458L197.237 101.399L190.808 100.809L188.763 100.514L186.425 100.22L125.355 94.3243L150.484 81.06ZM122.725 86.6605L118.342 93.44L144.933 78.9966L112.206 67.7956L122.725 86.6605ZM46.4602 45.3936L106.654 66.027L117.173 84.5971L71.8816 84.0076L46.4602 45.3936ZM71.5896 88.1343H70.1288L60.1939 87.8395L71.2972 89.0186L72.7585 89.3133L74.2193 89.6081L113.959 93.44L117.758 87.5448L73.0505 88.1343H71.5896ZM29.8046 145.024L44.1225 137.36L117.466 144.729L103.732 152.098L104.316 158.288L104.608 160.351L104.9 162.12L104.608 162.415L58.7325 192.481L29.8046 145.024ZM105.193 166.836L62.8236 194.544L74.8038 198.376L76.2646 198.671L77.7259 198.965L108.407 207.808L105.777 177.742V176.269V174.795L105.193 166.836ZM58.1481 263.224L51.7198 219.304L52.0118 219.009L54.3495 217.241L74.2193 202.208L109.283 212.23L109.868 219.599L102.563 225.789L100.517 227.557L98.4722 229.326L58.7325 262.634L58.1481 263.224ZM110.452 227.263L110.16 222.546L105.485 226.378L110.452 227.263ZM60.1939 265.287L103.148 228.736L111.037 231.684L112.498 246.717H96.4269L94.3816 272.951L60.1939 265.287ZM113.959 262.34L112.79 250.549H103.148L113.959 262.34ZM98.1802 311.86L96.4269 309.796L96.1344 309.207V307.733L98.1802 278.552L98.4722 276.488L98.7646 274.425L100.225 254.086L114.543 269.709L115.42 278.846L115.712 280.91L116.004 282.973L118.05 306.259L118.342 308.323L118.634 310.386L120.972 336.62L98.1802 311.86ZM126.524 341.631L165.386 323.65H165.094V158.583L109.868 156.814L126.524 341.631ZM207.172 258.802L198.99 300.069V300.659L194.315 300.954L187.594 301.543L171.231 302.722V297.416V295.353V293.29V249.665L208.925 249.075L207.172 258.802ZM171.231 245.538L189.347 245.243L171.231 242.001V245.538ZM118.05 151.214L127.984 145.908L208.633 153.867L118.05 151.214ZM200.451 159.172L185.841 158.878L171.231 170.963V171.552L205.126 178.627L200.451 159.172ZM171.231 168.015V158.583L182.334 158.878L171.231 168.015ZM221.782 239.348L223.242 237.285L255.385 193.66L210.678 184.522L208.34 183.932L206.003 183.343L171.231 176.269V225.494L219.444 239.053L221.489 239.643L221.782 239.348ZM256.261 189.533L209.509 179.806L204.834 159.467L249.833 160.941L256.261 189.533ZM6.42844 127.633L289.865 155.93L291.033 115.842L11.1037 89.3133L6.42844 127.633Z" fill="#18A7B5"/>
<path fill-rule="evenodd" clip-rule="evenodd" d="M554.736 210.834H570.755C569.354 205.369 569.236 197.229 569.236 190.949V127.338L552.165 129.315V189.786C552.165 197.694 552.514 205.136 554.736 210.834ZM384.372 210.834H402.261V145.13H423.425V129.431H363.207V145.13H384.372V210.834ZM450.903 212.23C459.907 212.23 467.273 210.02 473.939 205.485L468.793 193.74C462.83 197.229 457.101 198.508 450.67 198.508C443.537 198.508 440.029 195.601 438.977 188.158L475.693 184.32C475.693 154.317 465.753 148.037 449.149 148.037C432.312 148.037 421.321 155.597 421.321 180.366C421.321 204.322 432.078 212.23 450.903 212.23ZM438.275 177.459L459.089 174.203C458.855 165.132 455.464 161.644 449.149 161.644C442.017 161.644 438.275 166.063 438.275 175.715V177.459ZM520.943 184.32V190.949C518.604 195.949 515.684 199.089 509.835 199.089C503.17 199.089 500.948 197.229 500.948 192.693C500.948 187.693 506.212 185.134 520.943 184.32ZM539.651 208.857L526.321 212.113C525.151 209.206 524.099 206.066 523.401 203.043C520.009 208.741 514.745 212.23 505.509 212.23C489.957 212.23 483.877 204.787 483.877 193.274C483.877 181.297 491.127 174.901 520.943 173.157C520.476 164.318 516.033 162.109 509.25 162.109C503.406 162.109 497.557 163.621 492.179 166.295L487.033 153.852C494.401 149.666 502.703 148.037 511.939 148.037C528.193 148.037 538.014 157.574 538.014 172.226V187.344C538.014 194.438 538.132 201.88 539.651 208.857Z" fill="#18A7B5"/>
<path fill-rule="evenodd" clip-rule="evenodd" d="M603.41 210.478H594.34V130.024C601.288 128.389 609.061 127.338 616.25 127.338C635.92 127.338 650.17 134.227 650.17 155.947C650.17 176.381 634.858 183.037 617.307 183.037C612.712 183.037 608.005 182.57 603.41 181.87V210.478ZM603.41 174.046C607.415 174.747 611.656 175.097 615.896 175.097C631.325 175.097 640.986 171.244 640.986 156.18C640.986 139.949 630.736 135.512 617.071 135.512C612.363 135.512 607.651 135.979 603.41 137.03V174.046ZM698.816 202.188C699.406 205.223 700.231 208.26 701.292 211.179L708.594 209.544C706.943 203.122 706.472 195.882 706.472 188.642V172.995C706.472 155.246 695.401 148.824 682.443 148.824C675.259 148.824 668.665 150.225 662.656 153.378L665.481 160.384C670.783 157.815 676.557 156.53 682.443 156.53C690.924 156.53 697.759 160.618 697.759 173.93V175.331C667.722 176.615 658.415 182.337 658.415 194.13C658.415 207.209 665.132 211.879 679.028 211.879C689.042 211.879 695.165 208.493 698.816 202.188ZM697.759 192.496V182.454C677.382 183.388 667.014 186.307 667.014 194.13C667.014 201.37 669.486 204.757 680.679 204.757C689.514 204.757 693.868 200.203 697.759 192.496ZM722.726 210.478H731.443V171.01C734.858 162.369 740.514 158.282 750.175 158.166L748.995 148.824C739.571 149.525 734.038 153.261 730.736 159.917C730.033 156.297 729.09 152.677 727.91 149.525L720.608 151.159C722.255 157.582 722.726 164.821 722.726 172.061V210.478ZM775.967 212.23C766.193 204.523 765.486 194.831 765.486 181.636V157.582H755.118V150.225H765.486V131.892L774.203 130.724V150.225H787.745L786.925 157.582H774.203V184.088C774.203 194.364 774.321 200.203 781.858 207.326L775.967 212.23ZM836.745 210.478H845.462V175.915C845.462 161.785 842.519 148.824 824.967 148.824C814.958 148.824 808.83 152.21 805.179 158.515C804.59 155.48 803.764 152.443 802.708 149.525L795.401 151.159C797.052 157.582 797.524 164.821 797.524 172.061V210.478H806.241V168.207C810.127 160.501 814.486 156.064 823.321 156.064C836.038 156.064 836.745 164.354 836.745 177.549V210.478ZM905.533 206.508C899.41 210.478 892.462 211.879 885.156 211.879C869.137 211.879 858.656 205.34 858.656 180.352C858.656 154.195 870.788 148.824 883.981 148.824C899.292 148.824 908.127 156.064 908.127 181.753V182.804L867.608 186.073C867.962 200.203 874.321 204.523 885.156 204.523C891.401 204.523 896.816 203.122 902.354 199.852L905.533 206.508ZM899.528 176.265L867.373 179.301V178.016C867.373 161.785 873.731 156.18 883.981 156.18C893.519 156.18 899.292 161.084 899.528 176.265ZM930.505 210.478H921.788V172.061C921.788 164.821 921.316 157.582 919.67 151.159L926.972 149.525C928.151 152.677 929.09 156.297 929.797 159.917C933.094 153.261 938.632 149.525 948.057 148.824L949.236 158.166C939.575 158.282 933.92 162.369 930.505 171.01V210.478ZM978.679 204.406C971.613 204.406 964.901 202.888 959.363 199.736L956.538 206.625C962.778 210.478 970.434 211.879 979.151 211.879C991.991 211.879 1000 206.975 1000 194.13C1000 181.652 990.151 178.938 980.995 176.416C980.811 176.365 980.632 176.315 980.448 176.265C972.792 174.163 966.783 172.178 966.783 165.638C966.783 157.698 971.967 156.297 978.915 156.297C984.453 156.297 989.637 157.348 993.759 159.567L996.703 152.794C991.165 149.758 984.925 148.824 978.208 148.824C967.255 148.824 958.302 153.845 958.302 165.171C958.302 178.6 967.844 181.753 978.09 184.555L978.184 184.582C987.425 187.249 991.519 188.431 991.519 195.065C991.519 202.305 986.689 204.406 978.679 204.406Z" fill="#18A7B5"/>
</svg>
