<?xml version="1.0" encoding="utf-8"?>
<!-- Generator: Adobe Illustrator 21.1.0, SVG Export Plug-In . SVG Version: 6.00 Build 0)  -->
<svg version="1.1" id="Laag_1" xmlns="http://www.w3.org/2000/svg" xmlns:xlink="http://www.w3.org/1999/xlink" x="0px" y="0px"
	 viewBox="0 0 101.7 141.7" style="enable-background:new 0 0 101.7 141.7;" xml:space="preserve">
<style type="text/css">
	.st0{fill:#001689;}
	.st1{fill:#34D9C3;}
	.st2{fill:#1D1D1B;}
	.st3{fill:#FFFFFF;}
</style>
<g>
	<g>
		<path class="st3" d="M4,141.5v-10.6H0.6v-2.5h9.7v2.5H6.8v10.6H4z"/>
		<path class="st3" d="M14.6,141.7c-3,0-4.7-1.3-4.7-5.1c0-4,1.8-5.2,4.5-5.2c2.7,0,4.3,1,4.3,5.8l-5.9,0.6c0.2,1.2,0.7,1.7,1.9,1.7
			c1,0,1.9-0.2,2.9-0.8l0.8,1.9C17.2,141.3,16.1,141.7,14.6,141.7z M15.9,135.5c0-1.5-0.6-2-1.6-2c-1.1,0-1.7,0.7-1.7,2.3v0.3
			L15.9,135.5z"/>
		<path class="st3" d="M26.7,141.7c-0.2-0.5-0.4-1-0.5-1.5c-0.5,0.9-1.4,1.5-2.9,1.5c-2.5,0-3.5-1.2-3.5-3.1c0-1.9,1.2-3,5.9-3.2
			c-0.1-1.4-0.8-1.8-1.9-1.8c-0.9,0-1.9,0.2-2.7,0.7l-0.8-2c1.2-0.7,2.5-0.9,4-0.9c2.6,0,4.2,1.5,4.2,3.9v2.4c0,1.1,0,2.3,0.3,3.5
			L26.7,141.7z M25.8,137.2c-2.4,0.1-3.2,0.5-3.2,1.3c0,0.7,0.4,1,1.4,1c0.9,0,1.4-0.5,1.8-1.3V137.2z"/>
		<path class="st3" d="M31.3,141.5c-0.4-0.9-0.4-2.1-0.4-3.4v-9.7l2.7-0.3v10.3c0,1,0,2.3,0.2,3.2H31.3z"/>
		<path class="st3" d="M36.1,141.5v-12.9c1.1-0.3,2.3-0.4,3.5-0.4c3.1,0,5.4,1.1,5.4,4.6c0,3.3-2.4,4.3-5.2,4.3
			c-0.7,0-1.5-0.1-2.2-0.2v4.6H36.1z M39.5,135.8c2.5,0,4-0.6,4-3c0-2.6-1.6-3.3-3.8-3.3c-0.7,0-1.5,0.1-2.2,0.2v5.9
			C38.2,135.7,38.9,135.8,39.5,135.8z"/>
		<path class="st3" d="M52.7,140.1c-0.6,1-1.6,1.6-3.1,1.6c-2.2,0-3.3-0.7-3.3-2.8c0-1.9,1.5-2.8,6.3-3v-0.2c0-2.1-1.1-2.8-2.4-2.8
			c-0.9,0-1.9,0.2-2.7,0.6l-0.4-1.1c1-0.5,2-0.7,3.1-0.7c2.1,0,3.8,1,3.8,3.9v2.5c0,1.2,0.1,2.3,0.3,3.4l-1.2,0.3
			C53,141.1,52.8,140.6,52.7,140.1z M52.6,137c-3.2,0.1-4.9,0.6-4.9,1.9c0,1.2,0.4,1.7,2.2,1.7c1.4,0,2.1-0.7,2.7-2V137z"/>
		<path class="st3" d="M56.5,141.5v-6.2c0-1.2-0.1-2.3-0.3-3.4l1.2-0.3c0.2,0.5,0.3,1.1,0.4,1.7c0.5-1.1,1.4-1.7,2.9-1.8l0.2,1.5
			c-1.5,0-2.4,0.7-3,2.1v6.3H56.5z"/>
		<path class="st3" d="M63.3,136.8V133h-1.6v-1.2h1.6v-2.9l1.4-0.2v3.1h2.2l-0.1,1.2h-2v4.3c0,1.6,0,2.6,1.2,3.7l-0.9,0.8
			C63.5,140.5,63.3,138.9,63.3,136.8z"/>
		<path class="st3" d="M74.7,141.5v-5.3c0-2.1-0.1-3.4-2.1-3.4c-1.4,0-2.1,0.7-2.7,1.9v6.8h-1.4v-6.2c0-1.2-0.1-2.3-0.3-3.4l1.2-0.3
			c0.2,0.5,0.3,1,0.4,1.4c0.6-1,1.6-1.6,3.1-1.6c2.8,0,3.3,2.1,3.3,4.3v5.5H74.7z"/>
		<path class="st3" d="M82.4,141.7c-2.5,0-4.2-1-4.2-5.1c0-4.2,1.9-5.1,4-5.1c2.4,0,3.8,1.2,3.8,5.3v0.2l-6.4,0.5
			c0.1,2.3,1.1,3,2.8,3c1,0,1.9-0.2,2.7-0.7l0.5,1.1C84.7,141.5,83.5,141.7,82.4,141.7z M84.7,136c0-2.4-1-3.2-2.5-3.2
			c-1.6,0-2.6,0.9-2.6,3.5v0.2L84.7,136z"/>
		<path class="st3" d="M88.2,141.5v-6.2c0-1.2-0.1-2.3-0.3-3.4l1.2-0.3c0.2,0.5,0.3,1.1,0.4,1.7c0.5-1.1,1.4-1.7,2.9-1.8l0.2,1.5
			c-1.5,0-2.4,0.7-3,2.1v6.3H88.2z"/>
		<path class="st3" d="M97.3,140.5c1.3,0,2-0.3,2-1.5c0-1.1-0.7-1.3-2.1-1.7c-1.6-0.4-3.1-1-3.1-3.1c0-1.8,1.4-2.6,3.2-2.6
			c1.1,0,2.1,0.1,2.9,0.6l-0.5,1.1c-0.7-0.4-1.5-0.5-2.4-0.5c-1.1,0-1.9,0.2-1.9,1.5c0,1,1,1.4,2.2,1.7c1.5,0.4,3.1,0.8,3.1,2.9
			c0,2.1-1.3,2.8-3.3,2.8c-1.4,0-2.6-0.2-3.6-0.8l0.4-1.1C95.1,140.2,96.1,140.5,97.3,140.5z"/>
	</g>
	<path class="st3" d="M101.7,37.6L85.2,36l6.3-5.2l-17-28.3l-15.9,9.2l0.9,3.7L25.3,0L13.7,14.1l9.4,14.4L2,28.6L0,45.1l12.5,1.2
		l-4.3,2.3l11.1,18.3l4.9,1.4l-7.8,5.9l2.4,16.5l13.4,3.4l-0.8,11.3l11,13l16.1-7.4v-7l10.6-0.8l3.9-20l-14.6-2.5V78l17.7,5
		l13.1-17.6l-2.4-10.7l14.1,0.4L101.7,37.6z M84,35.9l-1.4-0.1l-1.1-4.7h8.2L84,35.9z M90.1,30.3h-8.8L76.2,7.8L90.1,30.3z
		 M60.1,12.4l13.9-8l5.9,25.9l0.1,0.4l0.1,0.4l1,4.5l-10.9-1l-0.5-0.1l1.6-1L68,23.3l-0.3-1.1l-0.3-1.1l-0.8-2.5l-2-0.9l-0.9-0.4
		l-0.9-0.4L61,16.1l-0.5-1.9l-0.2-0.9L60.1,12.4L60.1,12.4z M25.8,1.7l34,15.3l0.8,0.4l0.8,0.4l3,1.3l0.4,0.2l0.4,0.2l0.2,0.1
		l0.2,0.5l0.1,0.2l2.3,7.3l1.4,4.5l-4.9-1.7l-0.8-0.3l-0.8-0.3l-9.6-3.3l-0.9-0.3L51.4,26l-13.9-4.8L36.8,21l-0.6-0.2l-20.5-7
		L25.8,1.7z M51.5,27.5l11.7,4l0.8,0.3l0.8,0.3l4.1,1.4l-1.4,0.9l-2.2-0.2l-0.7-0.1L63.8,34l-20.9-2L51.5,27.5z M40.5,31.7l1.5-2.3
		l-3.6-6.4l11.2,3.8L40.5,31.7z M15.9,15.4l20.6,7l3.6,6.3l-15.5-0.2L15.9,15.4z M24,29.9l0.5,0l0.5,0l15.3-0.2L39,31.7l-13.6-1.3
		l-0.5-0.1l-0.5-0.1l-3.8-0.4L24,29.9z M10.2,49.2l4.9-2.6l25.1,2.5l-4.7,2.5l0.2,2.1l0.1,0.7l0.1,0.6l-0.1,0.1L20.1,65.3L10.2,49.2
		z M21.5,66L36,56.6l0.2,2.7l0,0.5l0,0.5l0.9,10.2l-10.5-3l-0.5-0.1l-0.5-0.1L21.5,66z M19.9,89.3l-2.2-14.9l0.1-0.1l0.8-0.6
		l6.8-5.1L37.4,72l0.2,2.5l-2.5,2.1l-0.7,0.6l-0.7,0.6L20.1,89.1L19.9,89.3z M37.7,75.5l0.1,1.6l-1.7-0.3L37.7,75.5z M20.6,90
		l14.7-12.4l2.7,1l0.5,5.1L33,83.7l-0.7,8.9L20.6,90z M38.6,85l0.4,4l-3.7-4L38.6,85z M33.6,105.8l-0.6-0.7l-0.1-0.2l0-0.5l0.7-9.9
		l0.1-0.7l0.1-0.7l0.5-6.9l4.9,5.3l0.3,3.1l0.1,0.7l0.1,0.7l0.7,7.9l0.1,0.7l0.1,0.7l0.8,8.9L33.6,105.8z M56.6,109.8l-13.3,6.1
		l-5.7-62.7l18.9,0.6V109.8z M70.9,87.8l-2.8,14l0,0.2l-1.6,0.1l-2.3,0.2l-5.6,0.4v-1.8v-0.7v-0.7V84.7l12.9-0.2L70.9,87.8z
		 M64.8,83.2l-6.2,0.1v-1.2L64.8,83.2z M40.4,51.3l3.4-1.8l27.6,2.7L40.4,51.3z M63.6,53.9l5,0.1l1.6,6.6l-11.6-2.4v-0.2L63.6,53.9z
		 M58.6,57v-3.2l3.8,0.1L58.6,57z M76.4,80.5l-0.5,0.7l-0.1,0.1l-0.7-0.2l-16.5-4.6V59.8l11.9,2.4l0.8,0.2l0.8,0.2l15.3,3.1
		L76.4,80.5z M87.7,64.3l-16-3.3l-1.6-6.9l15.4,0.5L87.7,64.3z M99.2,52.9L99.2,52.9l-97-9.6l1.6-13l95.8,9L99.2,52.9z"/>
</g>
</svg>
